G04 ================== begin FILE IDENTIFICATION RECORD ==================*
G04 Layout Name:  XR871_EVB_MAIN_BRD_V1_1-20170606.brd*
G04 Film Name:    BOTTOM*
G04 File Format:  Gerber RS274X*
G04 File Origin:  Cadence Allegro 16.6-S012*
G04 Origin Date:  Tue Jun 06 20:24:42 2017*
G04 *
G04 Layer:  VIA CLASS/BOTTOM*
G04 Layer:  PIN/BOTTOM*
G04 Layer:  ETCH/BOTTOM*
G04 *
G04 Offset:    (0.00 0.00)*
G04 Mirror:    No*
G04 Mode:      Positive*
G04 Rotation:  0*
G04 FullContactRelief:  No*
G04 UndefLineWidth:     6.00*
G04 ================== end FILE IDENTIFICATION RECORD ====================*
%FSLAX25Y25*MOIN*%
%IR0*IPPOS*OFA0.00000B0.00000*MIA0B0*SFA1.00000B1.00000*%
%ADD14C,.04*%
%ADD10C,.022*%
%ADD12C,.06*%
%ADD17C,.018*%
%ADD13R,.06X.06*%
%ADD11C,.09055*%
%ADD25C,.05906*%
%ADD26R,.05906X.05906*%
%ADD22R,.03543X.0315*%
%ADD23O,.04134X.04921*%
%ADD18R,.02205X.02598*%
%ADD19R,.02598X.02205*%
%ADD15R,.0374X.03937*%
%ADD21R,.03937X.0374*%
%ADD16R,.03543X.03937*%
%ADD20R,.03937X.03543*%
%ADD24R,.0748X.08268*%
%ADD27C,.01*%
%ADD28C,.02*%
%ADD29C,.012*%
%ADD30C,.015*%
%ADD31C,.0063*%
%ADD32C,.0057*%
%ADD33C,.0067*%
%ADD44C,.03204*%
%ADD36C,.08404*%
%ADD41C,.07604*%
%ADD39R,.77304X.0794*%
%ADD38R,.09882X.1067*%
%ADD35R,.025X.035*%
%ADD34R,.035X.035*%
%ADD43C,.15804*%
%ADD42C,.11458*%
%ADD37R,.08404X.08404*%
%ADD40R,.07604X.07604*%
G75*
%LPD*%
G75*
G36*
G01X164175Y224544D02*
X165446Y225814D01*
G03X162976Y230461I-1946J1946D01*
G02X162500Y230853I-76J393D01*
G01Y231616D01*
G03Y231794I-3000J89D01*
G01Y241000D01*
X159000Y244500D01*
X155331D01*
X154329Y245502D01*
X92998D01*
X92502Y245998D01*
Y246829D01*
X90329Y249002D01*
X46171D01*
X45169Y248000D01*
X45000D01*
Y247831D01*
X44498Y247329D01*
Y237171D01*
X45000Y236669D01*
Y235831D01*
X44498Y235329D01*
Y227671D01*
X45000Y227169D01*
Y223500D01*
X47500Y221000D01*
X49636D01*
G03X55364I2864J2500D01*
G01X66000D01*
X66498Y220502D01*
Y196171D01*
X67000Y195669D01*
Y182000D01*
X66502Y181502D01*
X46998D01*
X46500Y182000D01*
Y201500D01*
X46000Y202000D01*
X44025D01*
X43950Y202015D01*
X43949D01*
G03X41015Y202000I-1449J-3515D01*
G01X36000D01*
X34500Y200500D01*
Y198245D01*
X34498Y198243D01*
Y179257D01*
X34500Y179255D01*
Y170000D01*
X41000Y163500D01*
X73000D01*
X74500Y162000D01*
Y142500D01*
X73796Y141796D01*
X48204D01*
X47000Y143000D01*
X39831D01*
X37329Y145502D01*
X31998D01*
X28000Y149500D01*
Y162000D01*
X27000Y163000D01*
X19500D01*
X19000Y162500D01*
Y152000D01*
X17400Y150400D01*
G02X16820Y150415I-283J283D01*
G03X16182Y144209I-3120J-2815D01*
G01X16235Y144248D01*
X16500D01*
Y143831D01*
X15998Y143329D01*
Y141792D01*
G02X15434Y141428I-400J0D01*
G03Y133772I-1734J-3828D01*
G02X15998Y133408I164J-364D01*
G01Y132998D01*
X15500Y132500D01*
X10500D01*
X9500Y131500D01*
Y114500D01*
X10500Y113500D01*
X27500D01*
X28500Y114500D01*
Y119500D01*
X28998Y119998D01*
X36502D01*
X38000Y118500D01*
Y90422D01*
G02X38500Y90034I100J-387D01*
G01Y66500D01*
X39500Y65500D01*
X40163D01*
X40217Y65460D01*
G03X44836Y65500I2283J3040D01*
G01X47000D01*
X75000Y93500D01*
X89000D01*
X89500Y93000D01*
Y89245D01*
X87294Y87038D01*
Y80038D01*
X83998Y76743D01*
Y73500D01*
G03X86973Y70499I3001J0D01*
G01X87052Y70498D01*
X87249Y70312D01*
X87256Y70236D01*
G03X87291Y69972I2990J262D01*
G01X87294Y69955D01*
Y64705D01*
G03X88173Y62583I3001J0D01*
G01X90257Y60498D01*
X91204D01*
Y59498D01*
G03X91673Y57888I3001J1D01*
G01X91704Y57839D01*
Y57196D01*
X92280D01*
X92335Y57152D01*
G03X94205Y56498I1870J2348D01*
G01X106279D01*
G02X106604Y55865I0J-400D01*
G03X108500Y52164I1896J-1365D01*
G01X109532D01*
X110500Y51196D01*
Y43000D01*
X110664Y42836D01*
Y41532D01*
X113532Y38664D01*
X114837D01*
X115000Y38500D01*
X122696D01*
X133500Y27696D01*
Y14000D01*
X136500Y11000D01*
X168500D01*
X169000Y11500D01*
Y40500D01*
X171500Y43000D01*
X172696D01*
X182500Y33196D01*
Y28000D01*
X183050Y27450D01*
X182927Y27309D01*
G03X183054Y23554I2073J-1810D01*
G01X190360Y16248D01*
X208252D01*
X212665Y11835D01*
X212611Y11710D01*
G03X218777Y7500I3489J-1510D01*
G01X223423D01*
G03X228777I2677J2700D01*
G01X233423D01*
G03X239000Y12659I2678J2699D01*
G01Y32000D01*
X242500Y35500D01*
Y49000D01*
X244250Y50750D01*
X257750D01*
X259000Y52000D01*
Y84061D01*
G02X259690Y84336I400J-1D01*
G03Y90064I3010J2864D01*
G02X259000Y90339I-290J276D01*
G01Y94061D01*
G02X259690Y94336I400J-1D01*
G03Y100064I3010J2864D01*
G02X259000Y100339I-290J276D01*
G01Y100669D01*
X259002Y100671D01*
Y104059D01*
G02X259691Y104335I400J0D01*
G03Y110065I3009J2865D01*
G02X259002Y110341I-289J276D01*
G01Y112329D01*
X259000Y112331D01*
Y114061D01*
G02X259690Y114336I400J-1D01*
G03X266404Y119082I3010J2864D01*
G02X266760Y119664I357J182D01*
G01X266968D01*
X267804Y120500D01*
X268000D01*
X271000Y123500D01*
Y123696D01*
X271836Y124532D01*
Y199968D01*
X271000Y200804D01*
Y226000D01*
X262500Y234500D01*
X257804D01*
X255468Y236836D01*
X243468D01*
X237000Y243304D01*
Y249500D01*
X238162Y250662D01*
X271600D01*
G02X273599Y248663I0J-1999D01*
G01Y4000D01*
G02X271600Y2001I-1999J0D01*
G01X57904D01*
Y22860D01*
X2000D01*
Y54500D01*
X2001Y54501D01*
Y248663D01*
G02X4000Y250662I1999J0D01*
G01X48501D01*
Y258601D01*
X4000D01*
G02X2001Y260600I0J1999D01*
G01Y339000D01*
G02X4000Y340999I1999J0D01*
G01X271600D01*
G02X273599Y339000I0J-1999D01*
G01Y260600D01*
G02X271600Y258601I-1999J0D01*
G01X229399D01*
X229000Y259000D01*
Y260664D01*
X254468D01*
X255304Y261500D01*
X255500D01*
X257500Y263500D01*
Y263696D01*
X257836Y264032D01*
Y265429D01*
G02X258494Y265735I400J0D01*
G03X258180Y271872I2706J3215D01*
G01X258121Y271811D01*
X257836D01*
Y272282D01*
X260054Y274500D01*
X264500D01*
X267000Y277000D01*
Y294669D01*
X267502Y295171D01*
Y303829D01*
X264329Y307002D01*
X244646D01*
G02X244363Y307684I0J400D01*
G01X248602Y311922D01*
Y319078D01*
X244078Y323602D01*
X236922D01*
X232398Y319078D01*
Y311922D01*
X236637Y307684D01*
G02X236354Y307002I-283J-282D01*
G01X230829D01*
X213329Y324502D01*
X212998D01*
X210500Y327000D01*
X184804D01*
X182968Y328836D01*
X147910D01*
X140410Y321336D01*
X139667D01*
G02X139272Y321801I0J400D01*
G03X139316Y322330I-3225J535D01*
G01Y323118D01*
G03X133079Y324487I-3269J0D01*
G02X132433Y324371I-363J167D01*
G01X131968Y324836D01*
X121532D01*
X120710Y324014D01*
G02X120048Y324168I-283J283D01*
G03X113684Y323118I-3095J-1050D01*
G01Y322330D01*
G03X113833Y321356I3269J2D01*
G02X113452Y320836I-382J-120D01*
G01X109797D01*
X94297Y336336D01*
X88500D01*
G03X86388Y335000I0J-2337D01*
G01X83304D01*
X82652Y335652D01*
G03X78866Y333048I-1652J-1652D01*
G01X78922Y332922D01*
X72002Y326002D01*
X57171D01*
X56669Y325500D01*
X56500D01*
X55000Y324000D01*
Y323831D01*
X54498Y323329D01*
Y312498D01*
X54000Y312000D01*
X49000D01*
X48000Y311000D01*
Y303000D01*
X44000Y299000D01*
X10000D01*
X8000Y297000D01*
Y294804D01*
X7164Y293968D01*
Y283732D01*
X8000Y282896D01*
Y268500D01*
X11500Y265000D01*
X15896D01*
X16232Y264664D01*
X36468D01*
X36804Y265000D01*
X37500D01*
X51514Y279014D01*
X80486D01*
X81000Y278500D01*
X81830D01*
Y278377D01*
X88170D01*
Y278500D01*
X90498D01*
Y263171D01*
X91000Y262669D01*
Y262500D01*
X92500Y261000D01*
X92669D01*
X92671Y260998D01*
X105829D01*
X105831Y261000D01*
X107669D01*
X107671Y260998D01*
X117829D01*
X117831Y261000D01*
X119169D01*
X119171Y260998D01*
X163829D01*
X163831Y261000D01*
X164000D01*
X165000Y262000D01*
X185500D01*
X194000Y270500D01*
Y293000D01*
X194683Y293683D01*
X194777Y293674D01*
G03X196652Y294348I223J2326D01*
G01X197986Y295682D01*
Y296986D01*
X198500Y297500D01*
Y297830D01*
X198623D01*
Y304170D01*
X197830D01*
X197500Y304500D01*
X189500D01*
X187500Y306500D01*
Y307546D01*
X188836Y308882D01*
Y310000D01*
G03X187500Y312112I-2337J0D01*
G01Y314000D01*
X187999Y314498D01*
X207671D01*
X229671Y292498D01*
X243502D01*
X244398Y291601D01*
Y285698D01*
X244500D01*
Y285500D01*
X245500Y284500D01*
X251000D01*
X252000Y283500D01*
Y283054D01*
X251295Y282349D01*
X251153Y282489D01*
G03X250541Y276010I-2953J-2989D01*
G02X251164Y275678I223J-332D01*
G01Y274164D01*
X250000Y273000D01*
X249725D01*
X249650Y273015D01*
X249649D01*
G03X246751I-1449J-3515D01*
G01X246714Y273000D01*
X246500D01*
X246284Y272784D01*
X246262Y272771D01*
G03X244970Y267496I1938J-3270D01*
G01Y267495D01*
X245000Y267446D01*
Y267000D01*
X244836Y266836D01*
X224532D01*
X223696Y266000D01*
X223000D01*
X220000Y263000D01*
Y248305D01*
X216664Y244969D01*
Y214797D01*
X206164Y204297D01*
Y204296D01*
X205868Y204000D01*
X202000D01*
X200500Y205500D01*
Y219566D01*
G03X201206Y221500I-2296J1934D01*
G01Y224500D01*
G03X200738Y226110I-3002J1D01*
G01X200737Y226111D01*
X200706Y226161D01*
Y226804D01*
X200196D01*
X200000Y227000D01*
X199867D01*
X199818Y227031D01*
G03X196592I-1613J-2531D01*
G01X196543Y227000D01*
X195457D01*
X195408Y227031D01*
G03X192182I-1613J-2531D01*
G01X192133Y227000D01*
X192000D01*
X191804Y226804D01*
X191294D01*
Y226294D01*
X191000Y226000D01*
Y225595D01*
X190987Y225561D01*
G03X190794Y224504I2808J-1059D01*
G01Y194038D01*
X182878Y186122D01*
G03X182061Y184608I2122J-2122D01*
G01Y184607D01*
X182048Y184548D01*
X181836Y184336D01*
X153031D01*
X152683Y183988D01*
G02X152000Y184271I-283J283D01*
G01Y185669D01*
X156329Y189998D01*
X182329D01*
X184502Y192171D01*
Y234671D01*
X192002Y242171D01*
Y247329D01*
X189829Y249502D01*
X185671D01*
X174498Y238329D01*
Y208829D01*
X173671Y208002D01*
X152671D01*
X98669Y154000D01*
X94002D01*
Y181502D01*
X99497Y186997D01*
X99577Y186999D01*
G03X102501Y189923I-77J3001D01*
G01X102503Y190003D01*
X110498Y197998D01*
X134329D01*
X136002Y199671D01*
Y218329D01*
X135500Y218831D01*
Y219000D01*
X134500Y220000D01*
X134331D01*
X133829Y220502D01*
X92502D01*
Y230498D01*
X104329D01*
X104831Y231000D01*
X107500D01*
X108500Y230000D01*
Y228487D01*
X108483Y228407D01*
Y228406D01*
G03Y226184I2517J-1111D01*
G01X108500Y226145D01*
Y225500D01*
X108696Y225304D01*
Y224794D01*
X109851D01*
X109890Y224777D01*
G03X110996Y224544I1108J2518D01*
G01X115675D01*
X116946Y225814D01*
G03X117750Y227672I-1946J1945D01*
G01Y227673D01*
X117753Y227753D01*
X120998Y230998D01*
X151502D01*
X157196Y225304D01*
Y224794D01*
X158351D01*
X158390Y224777D01*
G03X159496Y224544I1108J2518D01*
G01X164175D01*
G37*
G36*
G01X29000Y122000D02*
X28000Y123000D01*
Y130500D01*
X27000Y131500D01*
X19000D01*
X18000Y132500D01*
Y142500D01*
X19000Y143500D01*
X36500D01*
X38000Y142000D01*
Y136500D01*
X39500Y135000D01*
X41014D01*
X41051Y134985D01*
G03X43985Y135000I1449J3515D01*
G01X82500D01*
X153500Y206000D01*
X174500D01*
X176500Y208000D01*
Y237500D01*
X186500Y247500D01*
X189000D01*
X190000Y246500D01*
Y243000D01*
X182500Y235500D01*
Y193000D01*
X181500Y192000D01*
X155500D01*
X124750Y161250D01*
Y149250D01*
X97500Y122000D01*
X84528D01*
X84476Y122122D01*
G03X81524I-1476J-622D01*
G01X81472Y122000D01*
X43985D01*
G03X41015I-1485J-3500D01*
G01X29000D01*
G37*
G36*
G01X49500Y290664D02*
Y289038D01*
X37962Y277500D01*
X28500D01*
X27000Y276000D01*
Y270000D01*
X26336Y269336D01*
X20163D01*
X19500Y270000D01*
Y290664D01*
X49500D01*
G37*
G36*
G01X107000Y200000D02*
X101500Y205500D01*
X81000D01*
X79000Y207500D01*
Y235500D01*
X77000Y237500D01*
X47000D01*
X46500Y238000D01*
Y246500D01*
X47000Y247000D01*
X89500D01*
X90500Y246000D01*
Y243831D01*
X90498Y243829D01*
Y232171D01*
X90500Y232169D01*
Y219500D01*
X91500Y218500D01*
X133000D01*
X134000Y217500D01*
Y200500D01*
X133500Y200000D01*
X125703D01*
G02X125463Y200720I0J400D01*
G03X123100Y202778I-963J1280D01*
G02X122400I-350J194D01*
G03X120037Y200720I-1400J-778D01*
G02X119797Y200000I-240J-320D01*
G01X118203D01*
G02X117963Y200720I0J400D01*
G03X116037I-963J1280D01*
G02X115797Y200000I-240J-320D01*
G01X107000D01*
G37*
G36*
G01X71980Y193520D02*
X68500Y197000D01*
Y225500D01*
X66500Y227500D01*
X47500D01*
X46500Y228500D01*
Y234500D01*
X47498Y235498D01*
X76002D01*
X76998Y234502D01*
Y206671D01*
X77000Y206669D01*
Y203500D01*
X83000Y197500D01*
Y192000D01*
X81500Y190500D01*
X75000D01*
X74020Y191480D01*
X74049Y191591D01*
G03X72091Y193549I-1549J409D01*
G01X71980Y193520D01*
G37*
G36*
G01X85000Y140331D02*
X84169Y139500D01*
X81000D01*
X80888Y139612D01*
X80874Y139660D01*
G03X80531Y140408I-2874J-865D01*
G01X80500Y140457D01*
Y141543D01*
X80531Y141593D01*
G03X81002Y143205I-2530J1614D01*
G01Y165743D01*
X80500Y166245D01*
Y167000D01*
X77000Y170500D01*
X76245D01*
X75243Y171502D01*
X47000D01*
Y175000D01*
X47498Y175498D01*
X79295D01*
G03X79383Y175500I-24J3001D01*
G01X83617D01*
G03X83705Y175498I112J2999D01*
G01X84002D01*
X84498Y175002D01*
Y147671D01*
X85000Y147169D01*
Y140331D01*
G37*
G36*
G01X64336Y299999D02*
Y301747D01*
X62431Y303652D01*
G03X61202Y304298I-1652J-1652D01*
G01X61123Y304377D01*
Y305170D01*
X60330D01*
X60000Y305500D01*
X57000D01*
X56500Y306000D01*
Y322500D01*
X58000Y324000D01*
X94500D01*
X95500Y323000D01*
Y317000D01*
X94002Y315502D01*
X87671D01*
X87669Y315500D01*
X68000D01*
Y299000D01*
X69000Y298000D01*
X86693D01*
G03X90946Y297554I2307J1500D01*
G01X91391Y298000D01*
X96000D01*
X105500Y288500D01*
Y263500D01*
X105000Y263000D01*
X93500D01*
X92500Y264000D01*
Y287000D01*
X91831Y287669D01*
X91824Y287739D01*
G03X91152Y289152I-2324J-239D01*
G01X90318Y289986D01*
X89514D01*
X88500Y291000D01*
X82500D01*
X82123Y290623D01*
X81830D01*
Y290330D01*
X81500Y290000D01*
X77000D01*
X74000Y293000D01*
X72291D01*
G03X69099Y293370I-1791J-1500D01*
G02X68534Y293457I-240J320D01*
G03X66500Y294502I-2034J-1457D01*
G01X65170D01*
G02X64780Y294989I0J400D01*
G03X63500Y297612I-2280J511D01*
G01Y298206D01*
X63566Y298266D01*
G03X64336Y299999I-1566J1733D01*
G37*
G36*
G01X87000Y148000D02*
X86500Y148500D01*
Y180000D01*
X84500Y182000D01*
Y190669D01*
X85002Y191171D01*
Y198329D01*
X84500Y198831D01*
Y202500D01*
X85000Y203000D01*
X89500D01*
X90000Y202500D01*
Y185500D01*
X92000Y183500D01*
Y148500D01*
X91500Y148000D01*
X87000D01*
G37*
G36*
G01X123326Y312624D02*
X120830D01*
Y301286D01*
X119447D01*
X110947Y309786D01*
X104947D01*
X104117Y310617D01*
G03X100882Y307384I-1618J-1616D01*
G02Y307102I-141J-141D01*
G03X104117Y303869I1617J-1616D01*
G01X104291Y304044D01*
X108568D01*
X117068Y295544D01*
X127681D01*
X130352Y298215D01*
Y299969D01*
X130760Y300376D01*
X131684D01*
Y293540D01*
X133000Y292224D01*
Y290500D01*
X135500D01*
X136498Y289501D01*
Y275171D01*
X136500Y275169D01*
Y272500D01*
X136251Y272252D01*
X136250D01*
X136231Y272232D01*
X119502D01*
Y274329D01*
X119500Y274331D01*
Y284500D01*
X119000Y285000D01*
X113500D01*
X96000Y302500D01*
Y304500D01*
X95706Y304794D01*
Y305304D01*
X95196D01*
X95000Y305500D01*
X94355D01*
X94316Y305517D01*
G03X92056Y305500I-1111J-2517D01*
G01X89944D01*
G03X87684Y305517I-1149J-2500D01*
G01X87645Y305500D01*
X86500D01*
X86304Y305304D01*
X86294D01*
Y305294D01*
X85500Y304500D01*
Y301000D01*
X84502Y300002D01*
X70002D01*
Y311501D01*
X70500Y312000D01*
X83500D01*
X85998Y309501D01*
Y308671D01*
X87671Y306998D01*
X94829D01*
X95831Y308000D01*
X96000D01*
Y308169D01*
X96502Y308671D01*
Y310501D01*
X99000Y313000D01*
X99527D01*
Y312724D01*
X105473D01*
Y313473D01*
X106598Y314598D01*
X107032Y314164D01*
X120468D01*
X122304Y316000D01*
X123000D01*
X123684Y315316D01*
Y313500D01*
G03X123719Y313094I2316J-5D01*
G02X123326Y312624I-393J-70D01*
G37*
G36*
G01X97206Y64038D02*
X96372Y64872D01*
X96500Y65000D01*
X96000Y65500D01*
X95745D01*
X95622Y65622D01*
G03X93500Y66502I-2123J-2121D01*
G01Y68000D01*
X93296Y68084D01*
Y71694D01*
X93248Y71743D01*
Y74497D01*
X92796Y74949D01*
Y75339D01*
X92827Y75388D01*
G03X93296Y77000I-2532J1611D01*
G01Y84552D01*
X99745Y91000D01*
X109255D01*
X113998Y86257D01*
Y71907D01*
X114078Y71827D01*
Y69830D01*
X115307D01*
G02X115449Y69489I0J-200D01*
G01X115264Y69304D01*
X114704D01*
Y68661D01*
X114673Y68612D01*
G03X114204Y67000I2532J-1611D01*
G01Y62502D01*
X97206D01*
Y64038D01*
G37*
G36*
G01X93000Y243500D02*
X153500D01*
X154500Y242500D01*
Y233500D01*
X154000Y233000D01*
X119000D01*
X117500Y234500D01*
X105500D01*
X103500Y232500D01*
X93000D01*
X92500Y233000D01*
Y243000D01*
X93000Y243500D01*
G37*
G36*
G01X88500Y309000D02*
X94000D01*
X94500Y309500D01*
Y313500D01*
X88500D01*
X88000Y313000D01*
Y309500D01*
X88500Y309000D01*
G37*
G36*
G01X160664Y292429D02*
Y289632D01*
X162632Y287664D01*
X162836D01*
X164500Y286000D01*
X176500D01*
X177000Y286500D01*
Y291164D01*
X177468D01*
X179758Y293453D01*
Y294257D01*
X182000Y296500D01*
X190500D01*
X191500Y295500D01*
Y290000D01*
X191000Y289500D01*
X187500D01*
X187101Y289899D01*
X187086Y289941D01*
G03X181748Y289000I-2586J-941D01*
G01Y286360D01*
X183500Y284609D01*
Y282500D01*
X184500Y281500D01*
X190000D01*
X191000Y280500D01*
Y274500D01*
X189500Y273000D01*
X187000D01*
X186500Y272500D01*
Y266500D01*
X186000Y266000D01*
X183500D01*
X182910Y266590D01*
X182931Y266694D01*
G03X181392Y268602I-1573J306D01*
G02X181000Y269002I8J400D01*
G01Y274500D01*
X180000Y275500D01*
X165500D01*
X165000Y275000D01*
Y265000D01*
X163000Y263000D01*
X120000D01*
X119502Y263499D01*
Y266730D01*
X138511D01*
X138530Y266748D01*
X145140D01*
X145891Y267500D01*
X151000D01*
X153500Y270000D01*
Y278500D01*
X154000Y279000D01*
X159351D01*
G03X162446Y283446I1150J2500D01*
G01X159990Y285902D01*
X158670D01*
Y286222D01*
X158278D01*
X156500Y288000D01*
Y305609D01*
X158891Y308000D01*
X164500D01*
X165000Y307500D01*
Y301500D01*
X163500Y300000D01*
Y298836D01*
X162532D01*
X161348Y297652D01*
G03X161341Y294354I1652J-1653D01*
G02Y294073I-142J-140D01*
G03X160664Y292429I1660J-1645D01*
G37*
G36*
G01X108000Y263500D02*
Y273500D01*
X108500Y274000D01*
X117000D01*
X117500Y273500D01*
Y263500D01*
X117000Y263000D01*
X108500D01*
X108000Y263500D01*
G37*
G36*
G01X139000Y275500D02*
X138500Y276000D01*
Y293000D01*
X137159Y294341D01*
X137143Y294378D01*
G03X136638Y295138I-2144J-877D01*
G01X136316Y295460D01*
Y299316D01*
X137000Y300000D01*
Y308000D01*
X151500Y322500D01*
X177696D01*
X177848Y322348D01*
G03X181291Y322500I1652J1652D01*
G01X182696D01*
X182848Y322348D01*
G03X186291Y322500I1652J1652D01*
G01X212500D01*
X230000Y305000D01*
X263500D01*
X265500Y303000D01*
Y296000D01*
X264000Y294500D01*
X230500D01*
X208500Y316500D01*
X185123D01*
Y317170D01*
X172877D01*
Y316500D01*
X158000D01*
X145000Y303500D01*
Y276000D01*
X144500Y275500D01*
X139000D01*
G37*
G36*
G01X177664Y139504D02*
Y134032D01*
X178000Y133696D01*
Y133500D01*
X198000Y113500D01*
Y112203D01*
G02X197280Y111963I-400J0D01*
G03Y110037I-1280J-963D01*
G02X198000Y109797I320J-240D01*
G01Y92500D01*
X202664Y87836D01*
Y87532D01*
X224032Y66164D01*
X224336D01*
X226000Y64500D01*
X239500D01*
X240500Y65500D01*
Y111000D01*
X242500Y113000D01*
X255500D01*
X257000Y111500D01*
Y101500D01*
X256000Y100500D01*
X254492D01*
X254449Y100523D01*
G03X250951I-1749J-3323D01*
G01X250908Y100500D01*
X250000D01*
X248500Y99000D01*
Y59500D01*
X246500Y57500D01*
X221500D01*
X189000Y90000D01*
Y108500D01*
X169836Y127664D01*
Y153500D01*
G03X169000Y155291I-2336J0D01*
G01Y165000D01*
X170000Y166000D01*
X177000D01*
X178000Y165000D01*
Y144208D01*
G03X177973Y141837I2000J-1208D01*
G01X178000Y141791D01*
Y140709D01*
X177973Y140663D01*
G03X177664Y139504I2027J-1161D01*
G37*
%LPC*%
G75*
G36*
G01X25398Y43922D02*
Y51078D01*
X29922Y55602D01*
X37078D01*
X41602Y51078D01*
Y43922D01*
X37078Y39398D01*
X29922D01*
X25398Y43922D01*
G37*
G36*
G01X41102Y322078D02*
Y314922D01*
X36578Y310398D01*
X29422D01*
X24898Y314922D01*
Y322078D01*
X29422Y326602D01*
X36578D01*
X41102Y322078D01*
G37*
G36*
G01X170900Y201722D02*
G02Y203278I-1400J778D01*
G03X171600I350J194D01*
G02Y201722I1400J-778D01*
G03X170900I-350J-194D01*
G37*
G54D44*
X33000Y139000D03*
Y129000D03*
X53000D03*
X90500D03*
X95000Y126500D03*
X102500Y134000D03*
X98500Y137000D03*
X113500Y145000D03*
X110500Y149000D03*
X165500Y202500D03*
X112000Y216295D03*
X72500Y211500D03*
Y202000D03*
X149000Y311000D03*
G54D36*
X206100Y10200D03*
X34000Y223000D03*
X42500Y158500D03*
Y148500D03*
G54D41*
X34000Y233000D03*
X42500Y208500D03*
G54D39*
X180450Y254632D03*
X95150D03*
G54D38*
X140673Y334535D03*
X112327D03*
G54D35*
X98750Y226750D03*
G54D34*
X147250D03*
G54D43*
X260700Y328200D03*
X263200Y13400D03*
X16800Y52700D03*
X12400Y330300D03*
X14500Y238000D03*
G54D42*
X9005Y218206D03*
X9000Y196500D03*
G54D37*
X196100Y10200D03*
X13700Y157600D03*
X31100Y283300D03*
G54D40*
X34000Y243000D03*
%LPD*%
G75*
G54D10*
G01X9298Y137600D02*
X13700D01*
G01X9298Y157600D02*
X13700D01*
G01X9298Y147600D02*
X13700D01*
G01X9000Y190570D02*
Y196500D01*
G01D02*
Y202430D01*
G01Y196500D02*
X14930D01*
G01X9005Y212276D02*
Y218206D01*
G01D02*
Y224136D01*
G01Y218206D02*
X14935D01*
G01X13700Y143198D02*
Y147600D01*
G01Y133198D02*
Y137600D01*
G01D02*
Y142002D01*
G01Y153198D02*
Y157600D01*
G01D02*
Y162002D01*
G01Y157600D02*
X18102D01*
G01X13700Y147600D02*
Y152002D01*
G01X42500Y144098D02*
Y148500D01*
G01Y154098D02*
Y158500D01*
G01D02*
Y162902D01*
G01X38098Y158500D02*
X42500D01*
G01D02*
X46902D01*
G01X42500Y148500D02*
Y152902D01*
G01X38098Y148500D02*
X42500D01*
G01D02*
X46902D01*
G01X34000Y218598D02*
Y223000D01*
G01D02*
Y227402D01*
G01X29598Y223000D02*
X34000D01*
G01D02*
X38402D01*
G01X112327Y328999D02*
Y334535D01*
G01X107185D02*
X112327D01*
G01D02*
X117469D01*
G01X116953Y322724D02*
Y326587D01*
G01X113484Y322724D02*
X116953D01*
G01X140673Y328999D02*
Y334535D01*
G01X135531D02*
X140673D01*
G01D02*
X145815D01*
G01X136047Y322724D02*
Y326587D01*
G01Y322724D02*
X139516D01*
G01X196100Y5798D02*
Y10200D01*
G01X201698D02*
X206100D01*
G01X196100D02*
Y14602D01*
G01X191698Y10200D02*
X196100D01*
G01D02*
X200502D01*
G01X206100Y5798D02*
Y10200D01*
G01D02*
Y14602D01*
G01Y10200D02*
X210502D01*
G01X261200Y264548D02*
Y268950D01*
G01D02*
Y273352D01*
G01Y268950D02*
X265602D01*
G01X248200Y275098D02*
Y279500D01*
G01D02*
Y283902D01*
G01X243798Y279500D02*
X248200D01*
G01X262700Y82845D02*
Y87200D01*
G01Y92845D02*
Y97200D01*
G01D02*
Y101555D01*
G01Y97200D02*
X267055D01*
G01X262700Y102845D02*
Y107200D01*
G01Y87200D02*
Y91555D01*
G01Y87200D02*
X267055D01*
G01X262700Y112845D02*
Y117200D01*
G01D02*
X267055D01*
G01X262700Y107200D02*
Y111555D01*
G01Y107200D02*
X267055D01*
X4500Y24500D03*
Y36500D03*
Y31500D03*
Y46500D03*
X3500Y59000D03*
Y69000D03*
Y79000D03*
Y89000D03*
Y99000D03*
Y109000D03*
Y119000D03*
Y129000D03*
Y139000D03*
Y149000D03*
Y159000D03*
Y169000D03*
Y179000D03*
Y189000D03*
Y209000D03*
Y239000D03*
Y229000D03*
Y249000D03*
X3600Y260500D03*
Y270500D03*
Y280500D03*
X4500Y300000D03*
Y290000D03*
X3200Y311500D03*
Y330000D03*
Y320000D03*
X3500Y339500D03*
X13500Y24500D03*
X23500D03*
Y31500D03*
X13500D03*
X14000Y39500D03*
X24000D03*
X13000Y79000D03*
Y69000D03*
X23000Y79000D03*
Y69000D03*
Y99000D03*
X13000D03*
Y89000D03*
X23000D03*
X13000Y109000D03*
X23000D03*
Y169000D03*
X13000Y179000D03*
Y169000D03*
X23000Y179000D03*
Y199000D03*
Y189000D03*
X13000D03*
Y209000D03*
X23000Y219000D03*
Y209000D03*
Y229000D03*
X13000D03*
Y260500D03*
X23000D03*
Y249500D03*
X13000D03*
X23500Y269500D03*
Y279500D03*
Y289500D03*
Y299500D03*
Y309500D03*
Y319500D03*
X13500Y311500D03*
X23500Y329500D03*
Y339500D03*
X13500D03*
X33500Y24500D03*
X40500D03*
X47500Y45500D03*
X44000Y41500D03*
X40500Y31500D03*
X42000Y37000D03*
X33500Y31500D03*
X34500Y38500D03*
X45000Y52500D03*
X33000Y59000D03*
Y79000D03*
Y69000D03*
Y99000D03*
Y89000D03*
Y119000D03*
Y109000D03*
Y139000D03*
Y129000D03*
Y159000D03*
Y179000D03*
Y199000D03*
Y189000D03*
Y209000D03*
X43000Y249500D03*
X33000Y260500D03*
X43000D03*
X33000Y249500D03*
X43500Y269500D03*
Y299500D03*
X33500Y289500D03*
X43500D03*
X33500Y299500D03*
X43500Y309500D03*
X33500D03*
X43500Y319500D03*
X33500Y329500D03*
X43500D03*
Y339500D03*
X33500D03*
X65500Y4000D03*
X59500Y4500D03*
X66000Y11000D03*
Y17500D03*
X54500Y24500D03*
X50000D03*
X61500Y29000D03*
X59500Y17500D03*
Y11500D03*
Y23500D03*
X65500Y25000D03*
X56500Y34000D03*
X53000Y31500D03*
X50500Y34500D03*
X52500Y38000D03*
X63000Y48000D03*
X65000Y38500D03*
X62000Y41500D03*
X66000Y51000D03*
X55000Y52500D03*
X65500Y63500D03*
X59000Y56500D03*
X51500Y49500D03*
X53000Y59000D03*
X62000Y60000D03*
X63000Y69000D03*
X53000D03*
Y79000D03*
X63000D03*
Y89000D03*
X54000Y105500D03*
X63000Y99000D03*
X53000Y89000D03*
X63000Y119000D03*
X53000D03*
Y129000D03*
X62500Y152000D03*
X52500D03*
X62500Y162000D03*
X52500D03*
Y172000D03*
X62500D03*
X52500Y182000D03*
X62500D03*
Y202000D03*
X52500D03*
X62500Y192000D03*
X52500D03*
X62500Y211500D03*
X52500D03*
X63000Y249500D03*
X53000Y260500D03*
X63000D03*
X53000Y249500D03*
Y279000D03*
X63000D03*
X67500Y268500D03*
Y263500D03*
X53000Y270500D03*
X67500Y274500D03*
X63000Y270500D03*
X58000Y286500D03*
X62000Y300000D03*
X62500Y295500D03*
X66500Y292000D03*
X52350Y312850D03*
X53500Y319500D03*
X62000Y304500D03*
X66000Y319500D03*
X53500Y329500D03*
X63500Y339500D03*
X53500D03*
X81500Y9500D03*
X73000Y4000D03*
X84000Y28000D03*
X86500Y18500D03*
X81500Y21500D03*
X75000Y28000D03*
X73500Y12000D03*
X78000Y25000D03*
X69500Y21000D03*
X72500Y17500D03*
X79000Y41000D03*
X74000Y46000D03*
X85500D03*
X79500Y34500D03*
X68000Y43500D03*
X84500Y41000D03*
X73000D03*
X72000Y31000D03*
X68000Y35000D03*
X85500Y53000D03*
X79000Y57000D03*
Y49500D03*
X78000Y63000D03*
X75500Y60000D03*
X87000Y65000D03*
X86500Y59500D03*
X69000Y66500D03*
X71500Y51000D03*
X82500Y65000D03*
X72500Y57000D03*
X78860Y73210D03*
X75000Y72500D03*
X81840Y73850D03*
X72000Y69500D03*
X77000Y105000D03*
X82000D03*
X77000Y92000D03*
X82000D03*
X83000Y121500D03*
X87000Y118500D03*
X72500Y152000D03*
X82500D03*
Y162000D03*
X72500D03*
Y172000D03*
Y182000D03*
Y202000D03*
Y192000D03*
X81500Y193500D03*
Y197000D03*
X72500Y211500D03*
X83000Y260000D03*
Y249500D03*
X73000D03*
Y260000D03*
X73500Y279000D03*
X78000Y263000D03*
X79000Y291000D03*
X70500Y291500D03*
X76000Y305500D03*
X81000D03*
X71000D03*
Y310500D03*
X76000D03*
X81000D03*
X71000Y300500D03*
X76000D03*
X81000D03*
Y334000D03*
X83500Y339500D03*
X73500D03*
X98500Y9500D03*
X90000Y4000D03*
X89500Y8000D03*
X102500Y3500D03*
X104500Y16500D03*
X87500Y12500D03*
X92500Y23000D03*
Y13000D03*
X104500Y30000D03*
X90000D03*
X90500Y35500D03*
Y47299D03*
X100000Y35500D03*
X101000Y51500D03*
X105500Y54000D03*
X90000Y51500D03*
X95000D03*
X98000Y77000D03*
Y72000D03*
X103000D03*
Y77000D03*
X98000Y82000D03*
X103000D03*
Y87000D03*
X98000D03*
X90500Y129000D03*
X95000Y126500D03*
X102500Y134000D03*
X98500Y137000D03*
X96000Y156000D03*
X91000Y149500D03*
X87500D03*
X104000Y169000D03*
X99500Y190000D03*
X93500D03*
X94000Y222000D03*
X93500Y229000D03*
X94500Y234500D03*
Y239000D03*
X103000Y249500D03*
X93000D03*
Y260000D03*
X103000D03*
X88000Y267000D03*
Y277500D03*
Y272500D03*
X95000Y271000D03*
X106500Y295500D03*
X89500Y287500D03*
X95000Y289000D03*
X89000Y299500D03*
X106500Y310500D03*
Y303000D03*
X98000Y317000D03*
X89000Y310000D03*
X102500Y309000D03*
Y305486D03*
X103500Y329500D03*
X88500Y334000D03*
X103500Y339500D03*
X93500D03*
X112500Y3500D03*
X122500D03*
X113000Y22500D03*
Y10000D03*
X120000Y16000D03*
X121000Y30000D03*
X109500Y35500D03*
Y39500D03*
X115500Y43000D03*
X121500D03*
X109500Y51000D03*
X108500Y54500D03*
X107000Y72000D03*
X113000Y77000D03*
X108000D03*
Y82000D03*
X113000D03*
Y87000D03*
X108000D03*
X125000Y100500D03*
X122500Y92000D03*
X125000Y105500D03*
X120000Y100500D03*
Y105500D03*
X117500Y95500D03*
X122500D03*
X120000Y110500D03*
X125000D03*
X113500Y145000D03*
X110500Y149000D03*
X114500Y188000D03*
X124500D03*
X117000Y202000D03*
X121000D03*
X124500D03*
X112000Y216295D03*
X115000Y231500D03*
Y227760D03*
X123000Y249500D03*
X113000D03*
X123000Y260000D03*
X113000D03*
X121500Y277000D03*
X111500Y279240D03*
Y273000D03*
Y269500D03*
X112500Y295500D03*
X123500Y286500D03*
X115500Y314000D03*
X120000Y302500D03*
X122500Y313500D03*
X126000D03*
X123500Y329500D03*
X121382Y327118D03*
X123500Y339500D03*
X142500Y9500D03*
X127000Y9000D03*
X132500Y3500D03*
X142500D03*
X127000Y23000D03*
X137000Y24500D03*
X131500Y16000D03*
X145000Y21500D03*
X136500Y18500D03*
X137500Y35000D03*
X130000Y47000D03*
X133295Y61795D03*
X144500Y61500D03*
X134000Y49000D03*
X138000Y61500D03*
X133000Y77500D03*
X137000Y80000D03*
X134500Y83500D03*
X136000Y99000D03*
X128500Y95000D03*
X139000Y154500D03*
Y150000D03*
X131000D03*
Y154500D03*
X135500Y194000D03*
X132500Y202000D03*
X128500D03*
X143500Y207500D03*
Y214500D03*
Y222500D03*
Y229000D03*
X145000Y235000D03*
X142000D03*
X145000Y249500D03*
X131500Y260000D03*
X143000Y276500D03*
X139500D03*
X135000Y289000D03*
X127500Y284000D03*
X136000Y281500D03*
X135000Y293500D03*
X137000Y297000D03*
X141000D03*
X132000Y313500D03*
X129000D03*
X133500Y329500D03*
Y339500D03*
X152500Y9500D03*
X162500D03*
Y3500D03*
X152500D03*
X151000Y21500D03*
X148000Y26500D03*
X153500Y32500D03*
X163000Y64500D03*
Y70000D03*
X146500Y86000D03*
X145951Y80500D03*
X163000Y76000D03*
X152500Y106000D03*
X157500Y88295D03*
X146500Y99000D03*
Y92000D03*
X156500Y106000D03*
X158000Y101000D03*
Y96000D03*
X155000Y113500D03*
X149500Y150000D03*
X155000Y150500D03*
X149500Y154000D03*
X160000Y160500D03*
Y156000D03*
X152500Y152500D03*
X153000Y173500D03*
X146500Y178000D03*
X164500Y174000D03*
X158500Y173500D03*
X156500Y187500D03*
X149500Y212500D03*
X163500Y231500D03*
Y227760D03*
X153500Y249500D03*
X163500D03*
X153000Y260000D03*
X163000D03*
X146500D03*
X160500Y277000D03*
X147500Y288500D03*
X147000Y281500D03*
X160500D03*
X163000Y296000D03*
Y292427D03*
X150000Y306000D03*
X162000Y310500D03*
X149000Y300500D03*
Y311000D03*
X161500Y300500D03*
X163500Y329500D03*
X153500D03*
X163500Y339500D03*
X153500D03*
X172500Y9500D03*
X182500D03*
Y3500D03*
X172500D03*
X171500Y22500D03*
X183500Y15000D03*
X171500Y31000D03*
X171000Y41000D03*
X182000Y61000D03*
X180000Y83000D03*
X165000Y82000D03*
X183500Y106000D03*
Y96000D03*
Y91795D03*
X180000Y139500D03*
Y143000D03*
X181500Y155500D03*
X167500Y153500D03*
X175000Y164000D03*
Y160500D03*
X171500Y164000D03*
Y160500D03*
X170000Y174500D03*
X166500Y187500D03*
X169500Y202500D03*
X176500Y187500D03*
X173000Y202500D03*
X165500D03*
X177000D03*
X180500D03*
X173500Y249500D03*
X183000Y260000D03*
X173000D03*
X175500Y267000D03*
X181358D03*
X184000Y277500D03*
X169500Y310500D03*
X173484Y300500D03*
X175453Y310000D03*
X182000D03*
X177421Y300500D03*
X170000D03*
X179000Y310000D03*
X166000Y311000D03*
X183500Y329500D03*
X173500D03*
X179500Y324000D03*
X173500Y339500D03*
X183500D03*
X202500Y3500D03*
X192500D03*
X197500Y26500D03*
X185000Y25500D03*
X193500Y33500D03*
X203500D03*
X185000Y46500D03*
X193500Y53000D03*
X200000Y63000D03*
X202500Y50000D03*
X195500Y75000D03*
X190500Y91500D03*
X196000Y111000D03*
X193000Y128500D03*
X196000Y142500D03*
X192000D03*
X185000Y143000D03*
Y148000D03*
X200000Y155500D03*
X191500Y149000D03*
X202500Y153000D03*
X197500D03*
Y149000D03*
X186500Y155500D03*
Y163000D03*
X202500Y158000D03*
Y162000D03*
X187000Y175000D03*
X186500Y168500D03*
X197500Y180500D03*
X185000Y184000D03*
X188500Y193000D03*
X197500Y185500D03*
X188500Y211000D03*
X203000Y219000D03*
X198205Y221500D03*
X203000Y229000D03*
Y249500D03*
X193000D03*
Y260000D03*
X203000D03*
X187000Y246500D03*
X187500Y243500D03*
X199500Y268000D03*
X200000Y275000D03*
X195500Y272000D03*
X194500Y279795D03*
X184500Y267000D03*
X200500Y292705D03*
X184500Y289000D03*
Y293500D03*
X195000Y296000D03*
X202000Y313500D03*
X192000D03*
X186500Y310000D03*
X203500Y329500D03*
X193500D03*
X184500Y324000D03*
X203500Y339500D03*
X193500D03*
X222500Y3500D03*
X212500D03*
X220500Y18000D03*
X221000Y45000D03*
X214000Y33500D03*
X210000Y63000D03*
X213000Y89000D03*
X213500Y162500D03*
X210000Y168000D03*
Y180500D03*
X205000D03*
X213000Y212000D03*
Y219000D03*
Y239000D03*
Y229000D03*
Y249500D03*
Y260000D03*
X222000Y277000D03*
X205000Y275000D03*
X211000D03*
X219500Y268000D03*
X217500Y275000D03*
X209500Y268000D03*
X222000Y287000D03*
X208500Y299500D03*
X217500Y282500D03*
Y290784D03*
X208500Y295561D03*
X219000Y299500D03*
X217500Y295561D03*
X208500Y307000D03*
X213500Y329500D03*
Y339500D03*
X232500Y3500D03*
X231000Y18000D03*
X241000Y19000D03*
Y29000D03*
X231500Y45000D03*
X223500Y33500D03*
X233500D03*
X239500Y229000D03*
X233000Y260000D03*
X229500Y268500D03*
Y277000D03*
X239500D03*
Y268500D03*
Y287000D03*
X229500D03*
X223500Y319500D03*
X233500Y309500D03*
X231500Y321000D03*
X233500Y329500D03*
X223500D03*
X233500Y339500D03*
X223500D03*
X252500Y3500D03*
X242500D03*
X251000Y29000D03*
Y19000D03*
Y39000D03*
X261000D03*
X255000Y59500D03*
X261500Y66500D03*
X251000Y49000D03*
X261000D03*
X255000Y54500D03*
X253000Y239000D03*
X243000D03*
X253000Y249500D03*
X243000D03*
Y260000D03*
X253000D03*
X250500Y309500D03*
X260500D03*
X243500Y329500D03*
X253500Y339500D03*
X243500D03*
X272500Y9000D03*
X272000Y3500D03*
X262500D03*
X271500Y27500D03*
X272500Y19000D03*
X271000Y39000D03*
Y49000D03*
X272500Y59000D03*
X262500Y79000D03*
X272500Y69000D03*
Y79000D03*
Y89000D03*
Y99000D03*
Y109000D03*
Y119000D03*
Y129000D03*
Y139000D03*
Y149000D03*
Y159000D03*
Y169000D03*
Y179000D03*
Y189000D03*
Y199000D03*
Y219000D03*
Y209000D03*
Y229000D03*
X263000Y239000D03*
X272500D03*
X272000Y249000D03*
X263000Y249500D03*
Y260500D03*
X272000D03*
X272500Y280500D03*
Y270500D03*
X270500Y289500D03*
Y299500D03*
Y309500D03*
X272000Y330500D03*
Y320500D03*
Y339500D03*
X263500D03*
G54D20*
X87500Y200850D03*
Y207150D03*
X85000Y287650D03*
Y281350D03*
X99500Y200850D03*
X93500D03*
X99500Y207150D03*
X93500D03*
X124000Y309650D03*
Y303350D03*
X130500Y309650D03*
Y303350D03*
G54D11*
X9000Y196500D03*
X9005Y218206D03*
G54D30*
G01X79000Y291000D02*
Y286795D01*
X78705Y286500D01*
G01X93500Y200850D02*
Y190000D01*
G01X93205Y297705D02*
Y303000D01*
G01X88795D02*
X89118Y302677D01*
Y299618D01*
X89000Y299500D01*
G01X125000Y64500D02*
X125705Y63795D01*
Y61500D01*
G01X121000Y64500D02*
X121500Y64000D01*
Y61705D01*
X121295Y61500D01*
G01X122819Y82191D02*
X124128Y83500D01*
X125795D01*
G01X120951Y78800D02*
X121651Y79500D01*
X125795D01*
G01D02*
Y75294D01*
X123351Y72850D01*
Y72817D01*
X121500Y70966D01*
Y67500D01*
G01X124500D02*
X126500D01*
X127795Y66205D01*
X130000D01*
G01X122500Y85000D02*
X125500Y88000D01*
X125795D01*
G01X107500Y90295D02*
Y87500D01*
X108000Y87000D01*
G01X111000Y227295D02*
X114535D01*
X115000Y227760D01*
G01X115350Y281000D02*
X113592Y279242D01*
X111502D01*
X111500Y279240D01*
G01X117019Y269481D02*
X137371D01*
X137390Y269500D01*
X144000D01*
X150500Y276000D01*
Y295000D01*
X153500Y298000D01*
Y306500D01*
X160500Y313500D01*
X163500D01*
X166000Y311000D01*
G01X130000Y61795D02*
X133295D01*
G01X130205Y79500D02*
X131000D01*
X133000Y77500D01*
G01D02*
Y75705D01*
X132000Y74705D01*
X130000D01*
G01X134500Y83500D02*
X130205D01*
G01Y88000D02*
Y93295D01*
X128500Y95000D01*
G01X159500Y227295D02*
X163035D01*
X163500Y227760D01*
G01X160500Y281500D02*
X158850Y283150D01*
X155500D01*
G01X188000Y115000D02*
X183705Y110705D01*
X180000D01*
G01X176850Y271500D02*
Y268350D01*
X175500Y267000D01*
G01X173150Y285650D02*
Y290000D01*
G01X169150Y306000D02*
Y310150D01*
X169500Y310500D01*
G01X209500Y22295D02*
Y20500D01*
X208000Y19000D01*
X191500D01*
X185000Y25500D01*
G01X195650Y276000D02*
Y272150D01*
X195500Y272000D01*
G01X195650Y285500D02*
Y280945D01*
X194500Y279795D01*
G01X195650Y292000D02*
X199795D01*
X200500Y292705D01*
G01X184500Y289000D02*
Y287500D01*
X186500Y285500D01*
X189350D01*
G01X216063Y21260D02*
X212739D01*
X211704Y22295D01*
X209500D01*
G54D21*
X100500Y234650D03*
Y228350D03*
X149000Y234650D03*
Y228350D03*
X155500Y276850D03*
Y283150D03*
G54D12*
X23700Y127600D03*
Y117600D03*
X13700D03*
Y127600D03*
X23700Y147600D03*
Y137600D03*
X13700D03*
Y147600D03*
X23700Y157600D03*
X14700Y269500D03*
Y279500D03*
X31100Y273300D03*
X42500Y68500D03*
Y88500D03*
Y78500D03*
Y98500D03*
Y108500D03*
Y118500D03*
Y138500D03*
Y148500D03*
Y158500D03*
Y178500D03*
Y168500D03*
Y188500D03*
Y198500D03*
Y208500D03*
X34000Y223000D03*
Y233000D03*
X52500Y223500D03*
Y233500D03*
X206100Y10200D03*
X216100D03*
X206400Y39200D03*
X216400D03*
X226100Y10200D03*
X236100D03*
X226400Y39200D03*
X236400D03*
X232500Y68500D03*
Y88500D03*
Y78500D03*
Y98500D03*
Y108500D03*
Y128500D03*
Y118500D03*
Y138500D03*
Y164500D03*
Y154500D03*
Y174500D03*
Y184500D03*
Y194500D03*
Y204500D03*
Y214500D03*
Y224500D03*
Y234500D03*
Y244500D03*
X248200Y269500D03*
Y279500D03*
X261200Y268950D03*
Y278950D03*
Y298950D03*
Y288950D03*
G54D31*
G01X126000Y313500D02*
Y314500D01*
X127500Y316000D01*
X132501D01*
X134000Y314501D01*
Y294500D01*
X135000Y293500D01*
G54D22*
X92563Y319240D03*
X102500Y315500D03*
X92563Y311760D03*
X216063Y28740D03*
Y21260D03*
Y56240D03*
Y48760D03*
X226000Y25000D03*
Y52500D03*
G54D13*
X13700Y157600D03*
X31100Y283300D03*
X14700Y289500D03*
X34000Y243000D03*
X52500Y243500D03*
X196100Y10200D03*
X196400Y39200D03*
X248200Y289500D03*
G54D32*
G01X124000Y303350D02*
X126896Y300454D01*
Y299647D01*
X126249Y299000D01*
X118500D01*
X110000Y307500D01*
X104000D01*
X102500Y309000D01*
G01X130500Y303350D02*
X128066Y300916D01*
Y299162D01*
X126734Y297830D01*
X118015D01*
X109515Y306330D01*
X103344D01*
X102500Y305486D01*
G01X126000Y313500D02*
X126521Y312979D01*
Y312171D01*
X124000Y309650D01*
G01X129000Y313500D02*
X128229Y312729D01*
Y311921D01*
X130500Y309650D01*
G54D23*
X116953Y322724D03*
X136047D03*
G54D14*
X33500Y47500D03*
X33000Y318500D03*
X240500Y315500D03*
G54D33*
G01X14700Y279500D02*
X9500Y284700D01*
Y293000D01*
X12000Y295500D01*
X45350D01*
X51850Y302000D01*
G01X85000Y281350D02*
X49850D01*
X35500Y267000D01*
X17200D01*
X14700Y269500D01*
G01Y289500D02*
X18200Y293000D01*
X49350D01*
X51850Y295500D01*
G01X42500Y78500D02*
X47000D01*
X67500Y99000D01*
X86000D01*
X89500Y102500D01*
X110500D01*
X117500Y95500D01*
G01X42500Y68500D02*
X46000D01*
X74000Y96500D01*
X88500D01*
X91500Y99500D01*
X110000D01*
X116000Y93500D01*
X120500D01*
X122500Y95500D01*
G01X120000Y100500D02*
X116500D01*
X111500Y105500D01*
X88000D01*
X85500Y103000D01*
X57000D01*
X42500Y88500D01*
G01X120000Y105500D02*
X116001D01*
X112501Y109000D01*
X53000D01*
X42500Y98500D01*
G01X120000Y110500D02*
X115000Y115500D01*
X45500D01*
X42500Y118500D01*
G01Y108500D02*
X46000Y112000D01*
X114001D01*
X118001Y108000D01*
X122500D01*
X125000Y110500D01*
G01X58150Y295500D02*
X62500D01*
G01X58150Y302000D02*
X60779D01*
X62000Y300779D01*
Y300000D01*
G01X85000Y287650D02*
X89350D01*
X89500Y287500D01*
G01X68650Y286500D02*
X74295D01*
G01X70500Y291500D02*
X68650Y289650D01*
Y286500D01*
G01X81000Y334000D02*
X84500Y330500D01*
X94000D01*
X108000Y316500D01*
X119500D01*
X123500Y320500D01*
X131000D01*
X134000Y317500D01*
X142000D01*
X149500Y325000D01*
X178500D01*
X179500Y324000D01*
G01X102500Y315500D02*
X99500D01*
X98000Y317000D01*
G01X88500Y334000D02*
X93329D01*
X108829Y318500D01*
X118500D01*
X122500Y322500D01*
X131000D01*
X134500Y319000D01*
X141378D01*
X148878Y326500D01*
X182000D01*
X184500Y324000D01*
G01X153000Y173500D02*
X152500Y173000D01*
Y160000D01*
X147000Y154500D01*
Y107500D01*
X152500Y102000D01*
Y57000D01*
X147000Y51500D01*
X133500D01*
X132000Y50000D01*
Y46000D01*
X131000Y45000D01*
X120500D01*
X116500Y41000D01*
X114500D01*
X113000Y42500D01*
Y52000D01*
X110500Y54500D01*
X108500D01*
G01X261200Y288950D02*
X253500Y281250D01*
Y267000D01*
X251000Y264500D01*
X225500D01*
X222500Y261500D01*
Y247501D01*
X219000Y244001D01*
Y213829D01*
X208500Y203329D01*
Y203328D01*
X187172Y182000D01*
X153999D01*
X147000Y175001D01*
Y162000D01*
X142500Y157500D01*
Y106000D01*
X148644Y99856D01*
Y60644D01*
X143500Y55500D01*
X128000D01*
X115500Y43000D01*
G01X140000Y29205D02*
X135295D01*
X121500Y43000D01*
G01X136500Y18500D02*
X136795Y18205D01*
X140000D01*
G01X145000Y13795D02*
X140000D01*
G01X130000Y47000D02*
Y51000D01*
X132500Y53500D01*
X145000D01*
X150500Y59000D01*
Y101000D01*
X144500Y107000D01*
Y156000D01*
X149500Y161000D01*
Y174000D01*
X155644Y180144D01*
X188145D01*
X210500Y202499D01*
Y202500D01*
X221000Y213000D01*
Y243000D01*
X225000Y247000D01*
Y260000D01*
X228000Y263000D01*
X253500D01*
X255500Y265000D01*
Y273250D01*
X261200Y278950D01*
G01X145000Y29205D02*
X140000D01*
G01X140500Y39705D02*
X145000D01*
G01X140500Y44295D02*
Y39705D01*
G01X145500Y48705D02*
X140500D01*
G01X134000Y49000D02*
X134295Y48705D01*
X140500D01*
G01X161500Y13795D02*
X166000D01*
G01X161500D02*
X157000D01*
G01D02*
X151000D01*
G01D02*
X145000D01*
G01X151000Y24795D02*
X149705D01*
X148000Y26500D01*
G01X145500Y44295D02*
X149295D01*
X155000Y50000D01*
Y98000D01*
X158000Y101000D01*
G01X153500Y32500D02*
Y32795D01*
X151000Y35295D01*
G01X157000Y29205D02*
X151000D01*
G01D02*
X145000D01*
G01X157000Y39705D02*
X151000D01*
G01D02*
X145000D01*
G01X163000Y76000D02*
X166000Y73000D01*
Y18205D01*
G01X161000Y101205D02*
X158205D01*
X158000Y101000D01*
G01X160000Y160500D02*
X162000Y158500D01*
Y115000D01*
X170500Y106500D01*
Y53501D01*
X192501Y31500D01*
X232205D01*
X236000Y27705D01*
G01X160000Y156000D02*
Y114171D01*
X168500Y105671D01*
Y50500D01*
X196705Y22295D01*
X205500D01*
G01X152500Y152500D02*
Y110000D01*
X156500Y106000D01*
G01X153000Y173500D02*
X157500Y178000D01*
X199000D01*
X206000Y185000D01*
Y189000D01*
X227000Y210000D01*
Y218000D01*
X228500Y219500D01*
X235000D01*
X242700Y227200D01*
X252700D01*
G01X166850Y296500D02*
X163500D01*
X163000Y296000D01*
G01X166850Y290000D02*
X163600D01*
X163000Y290600D01*
Y292427D01*
G01X182000Y61000D02*
X186000Y65000D01*
Y103500D01*
X183500Y106000D01*
G01X167500Y153500D02*
Y121000D01*
X177500Y111000D01*
Y98705D01*
X180000Y96205D01*
G01D02*
X183295D01*
X183500Y96000D01*
G01X180000Y106295D02*
X183205D01*
X183500Y106000D01*
G01X232500Y68500D02*
X225000D01*
X205000Y88500D01*
Y110000D01*
X180000Y135000D01*
Y139500D01*
G01X232500Y78500D02*
X219500D01*
X208000Y90000D01*
Y109999D01*
X182500Y135499D01*
Y140500D01*
X180000Y143000D01*
G01X232500Y118500D02*
X223000D01*
X207000Y134500D01*
X194000D01*
X188500Y140000D01*
Y148500D01*
X181500Y155500D01*
G01X173150Y296500D02*
Y300166D01*
X173484Y300500D01*
G01X177421D02*
Y294421D01*
X176500Y293500D01*
X167950D01*
X166850Y292400D01*
Y290000D01*
G01X175850Y314000D02*
Y310397D01*
X175453Y310000D01*
G01X182150Y314000D02*
Y310150D01*
X182000Y310000D01*
G01X189350Y301000D02*
X180500D01*
X179000Y302500D01*
X172000D01*
X170000Y300500D01*
G01X179000Y310000D02*
Y308650D01*
X176350Y306000D01*
G01X186500Y310000D02*
Y309850D01*
X182650Y306000D01*
G01X205500Y49795D02*
X202705D01*
X202500Y50000D01*
G01X193000Y128500D02*
X223000Y98500D01*
X232500D01*
G01X185000Y143000D02*
Y136000D01*
X190000Y131000D01*
X194500D01*
X217000Y108500D01*
X232500D01*
G01X262700Y167200D02*
X257500Y162000D01*
Y154000D01*
X255500Y152000D01*
X250500D01*
X248000Y149500D01*
Y142500D01*
X239000Y133500D01*
X225500D01*
X218500Y140500D01*
X198000D01*
X196000Y142500D01*
G01X192000D02*
X196500Y138000D01*
X217000D01*
X227000Y128000D01*
X232000D01*
X232500Y128500D01*
G01Y138500D02*
X225000D01*
X220500Y143000D01*
X200000D01*
X194000Y149000D01*
X191500D01*
G01X202500Y153000D02*
X205500Y150000D01*
X223000D01*
X226500Y146500D01*
X238000D01*
X241000Y149500D01*
Y161500D01*
X246000Y166500D01*
Y170500D01*
X252700Y177200D01*
G01X197500Y153000D02*
X202500Y148000D01*
X221750D01*
X225000Y144750D01*
X240750D01*
X243500Y147500D01*
Y161000D01*
X248000Y165500D01*
Y169000D01*
X251000Y172000D01*
X257500D01*
X262700Y177200D01*
G01X252700Y167200D02*
X245500Y160000D01*
Y146000D01*
X242500Y143000D01*
X224000D01*
X221500Y145500D01*
X201000D01*
X197500Y149000D01*
G01X186500Y155500D02*
X196500Y165500D01*
X226000D01*
X227000Y164500D01*
X232500D01*
G01Y174500D02*
X229500Y171500D01*
X195000D01*
X186500Y163000D01*
G01X202500Y158000D02*
X208000Y152500D01*
X224000D01*
X228250Y148250D01*
X236250D01*
X239000Y151000D01*
Y162500D01*
X244000Y167500D01*
Y175000D01*
X251000Y182000D01*
X257500D01*
X262700Y187200D01*
G01X202500Y162000D02*
X209500Y155000D01*
X225500D01*
X230500Y150000D01*
X234500D01*
X237000Y152500D01*
Y164000D01*
X242000Y169000D01*
Y176500D01*
X252700Y187200D01*
G01X232500Y184500D02*
X222500Y174500D01*
X192500D01*
X186500Y168500D01*
G01X197500Y180500D02*
X201000Y184000D01*
Y187000D01*
X225000Y211000D01*
Y232000D01*
X227500Y234500D01*
X232500D01*
G01X197500Y185500D02*
Y186500D01*
X223000Y212000D01*
Y241500D01*
X226000Y244500D01*
X232500D01*
G01X195650Y301000D02*
Y296650D01*
X195000Y296000D01*
G01X205500Y26705D02*
X209500D01*
G01D02*
X214028D01*
X216063Y28740D01*
G01Y56240D02*
X213535D01*
X211500Y54205D01*
X209500D01*
G01X205500D02*
X209500D01*
G01X213000Y89000D02*
X213500Y88500D01*
X232500D01*
G01X213500Y162500D02*
X224500D01*
X232500Y154500D01*
G01X210000Y180500D02*
X224000Y194500D01*
X232500D01*
G01X205000Y180500D02*
X229000Y204500D01*
X232500D01*
G01X226000Y25000D02*
Y10300D01*
X226100Y10200D01*
G01X236000Y23295D02*
Y10300D01*
X236100Y10200D01*
G01X236500Y49795D02*
Y39300D01*
X236400Y39200D01*
G01X226000Y52500D02*
Y39600D01*
X226400Y39200D01*
G01X236500Y54205D02*
X254705D01*
X255000Y54500D01*
G01X232500Y118500D02*
X236000Y122000D01*
X257500D01*
X262700Y127200D01*
G01X232500Y128500D02*
X242500D01*
X246000Y132000D01*
X255000D01*
X258000Y135000D01*
Y150000D01*
X262700Y154700D01*
Y157200D01*
G01X232500Y164500D02*
X233000D01*
X240000Y171500D01*
Y181500D01*
X250500Y192000D01*
X265500D01*
X267500Y190000D01*
Y134000D01*
X265500Y132000D01*
X261000D01*
X256200Y127200D01*
X252700D01*
G01X232500Y174500D02*
X237500Y179500D01*
Y189000D01*
X250500Y202000D01*
X266500D01*
X269500Y199000D01*
Y125500D01*
X266000Y122000D01*
X260500D01*
X255700Y117200D01*
X252700D01*
G01X232500Y244500D02*
X242500Y234500D01*
X254500D01*
X258000Y231000D01*
Y212500D01*
X252700Y207200D01*
G54D24*
X112327Y334535D03*
X140673D03*
G54D15*
X62350Y286500D03*
X58150Y308500D03*
X51850D03*
X68650Y286500D03*
X117150Y73000D03*
X110850D03*
X115350Y273000D03*
X121650D03*
X115350Y281000D03*
X121650D03*
X162850Y306000D03*
X183150Y271500D03*
X176850D03*
X169150Y306000D03*
X189350Y276000D03*
X195650D03*
X189350Y292000D03*
X195650D03*
X189350Y285500D03*
X195650D03*
G54D16*
X58150Y295500D03*
X51850D03*
X58150Y302000D03*
X51850D03*
X103350Y265500D03*
X109650D03*
X115350D03*
X121650D03*
X166850Y290000D03*
X173150D03*
Y296500D03*
X166850D03*
X182650Y306000D03*
X176350D03*
X182150Y314000D03*
X175850D03*
X189350Y301000D03*
X195650D03*
G54D25*
X252700Y87200D03*
X262700D03*
X252700Y107200D03*
Y97200D03*
X262700Y107200D03*
Y97200D03*
X252700Y127200D03*
Y117200D03*
X262700Y127200D03*
Y117200D03*
X252700Y147200D03*
Y137200D03*
X262700Y147200D03*
Y137200D03*
X252700Y157200D03*
X262700D03*
X252700Y177200D03*
Y167200D03*
X262700Y177200D03*
Y167200D03*
X252700Y197200D03*
Y187200D03*
X262700Y197200D03*
Y187200D03*
X252700Y217200D03*
Y207200D03*
X262700Y217200D03*
Y207200D03*
Y227200D03*
G54D26*
X252700D03*
G54D17*
X87000Y73500D03*
X93500Y63500D03*
X90000Y73500D03*
X104325Y94500D03*
X125000Y64500D03*
X121500Y67500D03*
X124500D03*
X121000Y64500D03*
X122819Y82191D03*
X125000Y71000D03*
X120951Y78800D03*
X121101Y73750D03*
X122500Y85000D03*
G54D27*
G01X26698Y283300D02*
X31100D01*
G01Y278898D02*
Y283300D01*
G01Y273300D02*
X37300D01*
X56000Y292000D01*
X66500D01*
G01X31100Y283300D02*
Y287702D01*
G01Y283300D02*
X35502D01*
G54D18*
X78000Y143205D03*
Y138795D03*
X107500Y90295D03*
Y94705D03*
X111000Y227295D03*
Y231705D03*
X140000Y24795D03*
X145000D03*
Y18205D03*
Y13795D03*
X140000Y18205D03*
Y13795D03*
Y29205D03*
X145000D03*
X140500Y39705D03*
Y35295D03*
X145000D03*
Y39705D03*
X140500Y44295D03*
X130000Y66205D03*
Y61795D03*
X140500Y48705D03*
X130000Y74705D03*
Y70295D03*
X151000Y13795D03*
Y18205D03*
Y24795D03*
X157000D03*
Y13795D03*
Y18205D03*
X161500Y13795D03*
Y18205D03*
X145500Y44295D03*
X151000Y29205D03*
Y39705D03*
Y35295D03*
X157000D03*
Y39705D03*
Y29205D03*
X145500Y48705D03*
X161000Y88295D03*
Y92705D03*
Y96795D03*
Y101205D03*
X159500Y227295D03*
Y231705D03*
X166000Y13795D03*
Y18205D03*
X180000Y91795D03*
Y96205D03*
Y110705D03*
Y106295D03*
X209500Y26705D03*
Y22295D03*
X205500Y26705D03*
Y22295D03*
X209500Y54205D03*
Y49795D03*
X205500Y54205D03*
Y49795D03*
X236000Y23295D03*
Y27705D03*
X236500Y49795D03*
Y54205D03*
G54D28*
G01X78000Y138795D02*
X42795D01*
X42500Y138500D01*
G01Y168500D02*
X74000D01*
X78000Y164500D01*
Y143205D01*
G01X42500Y198500D02*
X39000D01*
X37500Y197000D01*
Y180500D01*
X39500Y178500D01*
X42500D01*
G01X79295D02*
X42500D01*
G01X51850Y308500D02*
Y312350D01*
G01D02*
X52350Y312850D01*
G01X89795Y59500D02*
X86500D01*
G01X87000Y73500D02*
Y75500D01*
X88500Y77000D01*
X90295D01*
G01X83705Y178500D02*
X87500D01*
G01X94205Y59500D02*
X115500D01*
G01X90295Y66500D02*
Y70451D01*
X90246Y70500D01*
G01X90295Y66500D02*
Y64705D01*
X91500Y63500D01*
X93500D01*
G01D02*
X94205Y62795D01*
Y59500D01*
G01X94705Y77000D02*
X98000D01*
G01X90000Y73500D02*
X90246Y73254D01*
Y70500D01*
G01X104325Y94500D02*
X99000D01*
X90295Y85795D01*
Y77000D01*
G01X107500Y94705D02*
X104530D01*
X104325Y94500D01*
G01X99500Y200850D02*
Y190000D01*
G01X115500Y59500D02*
X117205Y61205D01*
Y67000D01*
G01X115500Y59500D02*
X117000Y58000D01*
X134500D01*
X138000Y61500D01*
G01X121500Y67500D02*
X117705D01*
X117205Y67000D01*
G01X110850Y73000D02*
Y74150D01*
X108000Y77000D01*
G01X130000Y70295D02*
X125705D01*
X125000Y71000D01*
G01X107500Y94705D02*
X107502Y94703D01*
X109797D01*
X117000Y87500D01*
Y73150D01*
X117150Y73000D01*
G01X121101Y73750D02*
X117900D01*
X117150Y73000D01*
G01X111000Y231705D02*
Y235500D01*
G01X144500Y61500D02*
X135705Y70295D01*
G01X146500Y178000D02*
X136000Y167500D01*
Y104000D01*
X140000Y100000D01*
Y74590D01*
X135705Y70295D01*
G01X130000D02*
X135705D01*
G01X161000Y88295D02*
X157500D01*
G01X161000Y96795D02*
X158795D01*
X158000Y96000D01*
G01X161000Y92705D02*
Y96795D01*
G01X164500Y174000D02*
Y117500D01*
X174000Y108000D01*
Y57500D01*
X185000Y46500D01*
G01X153000Y234000D02*
X155295Y231705D01*
X159500D01*
G01X180000Y91795D02*
X183500D01*
G01X209500Y49795D02*
Y48000D01*
X208000Y46500D01*
X185000D01*
G01X193795Y224500D02*
Y192795D01*
X185000Y184000D01*
G01X198205Y224500D02*
Y221500D01*
G01X216063Y48760D02*
X213535D01*
X212500Y49795D01*
X209500D01*
G54D19*
X83705Y178500D03*
X79295D03*
X74295Y286500D03*
X78705D03*
X94205Y59500D03*
X89795D03*
X90295Y66500D03*
X94705D03*
X90246Y70500D03*
X94656D03*
X90295Y77000D03*
X94705D03*
X93205Y303000D03*
X88795D03*
X121295Y61500D03*
X125705D03*
X117205Y67000D03*
X112795D03*
X125795Y79500D03*
Y83500D03*
Y88000D03*
X130205Y79500D03*
Y83500D03*
Y88000D03*
X193795Y224500D03*
X198205D03*
G54D29*
G01X39000Y45000D02*
Y50000D01*
X36000Y53000D01*
X31000D01*
X28000Y50000D01*
Y45000D01*
X31000Y42000D01*
X36000D01*
X39000Y45000D01*
G01X38500Y316000D02*
Y321000D01*
X35500Y324000D01*
X30500D01*
X27500Y321000D01*
Y316000D01*
X30500Y313000D01*
X35500D01*
X38500Y316000D01*
G01X62350Y286500D02*
X58000D01*
G01X140000Y24795D02*
X137295D01*
X137000Y24500D01*
G01X140500Y35295D02*
X145000D01*
G01X140500D02*
X137795D01*
X137500Y35000D01*
G01X151000Y18205D02*
Y21500D01*
G01X145000Y18205D02*
Y21500D01*
G01Y24795D02*
Y21500D01*
G01X163000Y64500D02*
Y22501D01*
X161500Y21001D01*
Y18205D01*
G01X157000D02*
Y24795D01*
G01D02*
X158800D01*
X160000Y25995D01*
Y30500D01*
X157000Y33500D01*
Y35295D01*
G01X158500Y173500D02*
X157500Y172500D01*
Y113000D01*
X164500Y106000D01*
Y87000D01*
X160000Y82500D01*
Y36499D01*
X158796Y35295D01*
X157000D01*
G01X246000Y313000D02*
Y318000D01*
X243000Y321000D01*
X238000D01*
X235000Y318000D01*
Y313000D01*
X238000Y310000D01*
X243000D01*
X246000Y313000D01*
M02*
