G04 ================== begin FILE IDENTIFICATION RECORD ==================*
G04 Layout Name:  XR871_EVB_MAIN_BRD_V1_1-20170606.brd*
G04 Film Name:    DRILL-1-4*
G04 File Format:  Gerber RS274X*
G04 File Origin:  Cadence Allegro 16.6-S012*
G04 Origin Date:  Tue Jun 06 20:24:42 2017*
G04 *
G04 Layer:  MANUFACTURING/NCLEGEND-1-4*
G04 Layer:  BOARD GEOMETRY/OUTLINE*
G04 Layer:  BOARD GEOMETRY/DIMENSION*
G04 *
G04 Offset:    (0.00 0.00)*
G04 Mirror:    No*
G04 Mode:      Positive*
G04 Rotation:  0*
G04 FullContactRelief:  No*
G04 UndefLineWidth:     1.00*
G04 ================== end FILE IDENTIFICATION RECORD ====================*
%FSLAX25Y25*MOIN*%
%IR0*IPPOS*OFA0.00000B0.00000*MIA0B0*SFA1.00000B1.00000*%
%AMMACRO14*
1,1,.001,.005,0.0*
20,1,.001,.005,0.0,-.005,0.0,0.0*
1,1,.001,-.005,0.0*
1,1,.001,0.0,.005*
20,1,.001,0.0,.005,0.0,-.005,0.0*
1,1,.001,0.0,-.005*
%
%ADD14MACRO14*%
%AMMACRO10*
1,1,.001,.005,.005*
20,1,.001,.005,.005,.005,-.005,0.0*
1,1,.001,.005,-.005*
20,1,.001,.005,-.005,-.005,-.005,0.0*
1,1,.001,-.005,-.005*
20,1,.001,-.005,-.005,-.005,.005,0.0*
1,1,.001,-.005,.005*
20,1,.001,-.005,.005,.005,.005,0.0*
1,1,.001,.005,.005*
%
%ADD10MACRO10*%
%AMMACRO13*
1,1,.001,.018995,0.0*
20,1,.001,.018995,0.0,.009498,.01645,0.0*
1,1,.001,.009498,.01645*
20,1,.001,.009498,.01645,-.009497,.01645,0.0*
1,1,.001,-.009497,.01645*
20,1,.001,-.009497,.01645,-.018995,0.0,0.0*
1,1,.001,-.018995,0.0*
20,1,.001,-.018995,0.0,-.009498,-.01645,0.0*
1,1,.001,-.009498,-.01645*
20,1,.001,-.009498,-.01645,.009497,-.01645,0.0*
1,1,.001,.009497,-.01645*
20,1,.001,.009497,-.01645,.018995,0.0,0.0*
1,1,.001,.018995,0.0*
%
%ADD13MACRO13*%
%AMMACRO12*
1,1,.001,.008284,-.02*
20,1,.001,.008284,-.02,-.008284,-.02,0.0*
1,1,.001,-.008284,-.02*
20,1,.001,-.008284,-.02,-.02,-.008284,0.0*
1,1,.001,-.02,-.008284*
20,1,.001,-.02,-.008284,-.02,.008284,0.0*
1,1,.001,-.02,.008284*
20,1,.001,-.02,.008284,-.008284,.02,0.0*
1,1,.001,-.008284,.02*
20,1,.001,-.008284,.02,.008284,.02,0.0*
1,1,.001,.008284,.02*
20,1,.001,.008284,.02,.02,.008284,0.0*
1,1,.001,.02,.008284*
20,1,.001,.02,.008284,.02,-.008284,0.0*
1,1,.001,.02,-.008284*
20,1,.001,.02,-.008284,.008284,-.02,0.0*
1,1,.001,.008284,-.02*
%
%ADD12MACRO12*%
%AMMACRO11*
1,1,.001,.033465,0.0*
20,1,.001,.033465,0.0,0.0,-.033465,0.0*
1,1,.001,0.0,-.033465*
20,1,.001,0.0,-.033465,-.033465,0.0,0.0*
1,1,.001,-.033465,0.0*
20,1,.001,-.033465,0.0,0.0,.033465,0.0*
1,1,.001,0.0,.033465*
20,1,.001,0.0,.033465,.033465,0.0,0.0*
1,1,.001,.033465,0.0*
%
%ADD11MACRO11*%
%AMMACRO15*
1,1,.001,-.0128,-.00394*
20,1,.001,-.0128,-.00394,-.0128,.00394,0.0*
1,1,.001,-.0128,.00394*
20,1,.001,-.0128,.00394,-.012601,.006162,0.0*
1,1,.001,-.012601,.006162*
20,1,.001,-.012601,.006162,-.012023,.008316,0.0*
1,1,.001,-.012023,.008316*
20,1,.001,-.012023,.008316,-.011081,.010337,0.0*
1,1,.001,-.011081,.010337*
20,1,.001,-.011081,.010337,-.009802,.012164,0.0*
1,1,.001,-.009802,.012164*
20,1,.001,-.009802,.012164,-.008224,.013742,0.0*
1,1,.001,-.008224,.013742*
20,1,.001,-.008224,.013742,-.006398,.015021,0.0*
1,1,.001,-.006398,.015021*
20,1,.001,-.006398,.015021,-.004376,.015963,0.0*
1,1,.001,-.004376,.015963*
20,1,.001,-.004376,.015963,-.002222,.016541,0.0*
1,1,.001,-.002222,.016541*
20,1,.001,-.002222,.016541,0.0,.016735,0.0*
1,1,.001,0.0,.016735*
20,1,.001,0.0,.016735,.002222,.016541,0.0*
1,1,.001,.002222,.016541*
20,1,.001,.002222,.016541,.004376,.015963,0.0*
1,1,.001,.004376,.015963*
20,1,.001,.004376,.015963,.006397,.015021,0.0*
1,1,.001,.006397,.015021*
20,1,.001,.006397,.015021,.008224,.013742,0.0*
1,1,.001,.008224,.013742*
20,1,.001,.008224,.013742,.009802,.012164,0.0*
1,1,.001,.009802,.012164*
20,1,.001,.009802,.012164,.011081,.010338,0.0*
1,1,.001,.011081,.010338*
20,1,.001,.011081,.010338,.012023,.008316,0.0*
1,1,.001,.012023,.008316*
20,1,.001,.012023,.008316,.012601,.006162,0.0*
1,1,.001,.012601,.006162*
20,1,.001,.012601,.006162,.0128,.00394,0.0*
1,1,.001,.0128,.00394*
20,1,.001,.0128,.00394,.0128,-.00394,0.0*
1,1,.001,.0128,-.00394*
20,1,.001,.0128,-.00394,.012601,-.006162,0.0*
1,1,.001,.012601,-.006162*
20,1,.001,.012601,-.006162,.012023,-.008316,0.0*
1,1,.001,.012023,-.008316*
20,1,.001,.012023,-.008316,.011081,-.010337,0.0*
1,1,.001,.011081,-.010337*
20,1,.001,.011081,-.010337,.009802,-.012164,0.0*
1,1,.001,.009802,-.012164*
20,1,.001,.009802,-.012164,.008224,-.013742,0.0*
1,1,.001,.008224,-.013742*
20,1,.001,.008224,-.013742,.006398,-.015021,0.0*
1,1,.001,.006398,-.015021*
20,1,.001,.006398,-.015021,.004376,-.015963,0.0*
1,1,.001,.004376,-.015963*
20,1,.001,.004376,-.015963,.002222,-.016541,0.0*
1,1,.001,.002222,-.016541*
20,1,.001,.002222,-.016541,0.0,-.016735,0.0*
1,1,.001,0.0,-.016735*
20,1,.001,0.0,-.016735,-.002222,-.016541,0.0*
1,1,.001,-.002222,-.016541*
20,1,.001,-.002222,-.016541,-.004376,-.015963,0.0*
1,1,.001,-.004376,-.015963*
20,1,.001,-.004376,-.015963,-.006397,-.015021,0.0*
1,1,.001,-.006397,-.015021*
20,1,.001,-.006397,-.015021,-.008224,-.013742,0.0*
1,1,.001,-.008224,-.013742*
20,1,.001,-.008224,-.013742,-.009802,-.012164,0.0*
1,1,.001,-.009802,-.012164*
20,1,.001,-.009802,-.012164,-.011081,-.010338,0.0*
1,1,.001,-.011081,-.010338*
20,1,.001,-.011081,-.010338,-.012023,-.008316,0.0*
1,1,.001,-.012023,-.008316*
20,1,.001,-.012023,-.008316,-.012601,-.006162,0.0*
1,1,.001,-.012601,-.006162*
20,1,.001,-.012601,-.006162,-.0128,-.00394,0.0*
1,1,.001,-.0128,-.00394*
1,1,.001,-.0064,-.00639*
20,1,.001,-.0064,-.00639,-.0081,-.00618,0.0*
1,1,.001,-.0081,-.00618*
20,1,.001,-.0081,-.00618,-.00959,-.00532,0.0*
1,1,.001,-.00959,-.00532*
20,1,.001,-.00959,-.00532,-.01087,-.00405,0.0*
1,1,.001,-.01087,-.00405*
20,1,.001,-.01087,-.00405,-.01172,-.00255,0.0*
1,1,.001,-.01172,-.00255*
20,1,.001,-.01172,-.00255,-.01215,-.00085,0.0*
1,1,.001,-.01215,-.00085*
20,1,.001,-.01215,-.00085,-.01215,.00086,0.0*
1,1,.001,-.01215,.00086*
20,1,.001,-.01215,.00086,-.01172,.00256,0.0*
1,1,.001,-.01172,.00256*
20,1,.001,-.01172,.00256,-.01087,.00406,0.0*
1,1,.001,-.01087,.00406*
20,1,.001,-.01087,.00406,-.00959,.00533,0.0*
1,1,.001,-.00959,.00533*
20,1,.001,-.00959,.00533,-.0081,.00619,0.0*
1,1,.001,-.0081,.00619*
20,1,.001,-.0081,.00619,-.0064,.0064,0.0*
1,1,.001,-.0064,.0064*
20,1,.001,-.0064,.0064,-.00469,.00619,0.0*
1,1,.001,-.00469,.00619*
20,1,.001,-.00469,.00619,-.0032,.00533,0.0*
1,1,.001,-.0032,.00533*
20,1,.001,-.0032,.00533,-.00192,.00406,0.0*
1,1,.001,-.00192,.00406*
20,1,.001,-.00192,.00406,-.00107,.00256,0.0*
1,1,.001,-.00107,.00256*
20,1,.001,-.00107,.00256,-.00064,.00086,0.0*
1,1,.001,-.00064,.00086*
20,1,.001,-.00064,.00086,-.00064,-.00085,0.0*
1,1,.001,-.00064,-.00085*
20,1,.001,-.00064,-.00085,-.00107,-.00255,0.0*
1,1,.001,-.00107,-.00255*
20,1,.001,-.00107,-.00255,-.00192,-.00405,0.0*
1,1,.001,-.00192,-.00405*
20,1,.001,-.00192,-.00405,-.0032,-.00532,0.0*
1,1,.001,-.0032,-.00532*
20,1,.001,-.0032,-.00532,-.00469,-.00618,0.0*
1,1,.001,-.00469,-.00618*
20,1,.001,-.00469,-.00618,-.0064,-.00639,0.0*
1,1,.001,-.0064,-.00639*
1,1,.001,.00108,-.00639*
20,1,.001,.00108,-.00639,.0064,.0064,0.0*
1,1,.001,.0064,.0064*
20,1,.001,.0064,.0064,.01173,-.00639,0.0*
1,1,.001,.01173,-.00639*
1,1,.001,.00982,-.00191*
20,1,.001,.00982,-.00191,.00299,-.00191,0.0*
1,1,.001,.00299,-.00191*
%
%ADD15MACRO15*%
%AMMACRO17*
1,1,.001,0.0,.019685*
20,1,.001,0.0,.019685,-.017048,.009843,0.0*
1,1,.001,-.017048,.009843*
20,1,.001,-.017048,.009843,-.017048,-.009842,0.0*
1,1,.001,-.017048,-.009842*
20,1,.001,-.017048,-.009842,0.0,-.019685,0.0*
1,1,.001,0.0,-.019685*
20,1,.001,0.0,-.019685,.017048,-.009843,0.0*
1,1,.001,.017048,-.009843*
20,1,.001,.017048,-.009843,.017048,.009842,0.0*
1,1,.001,.017048,.009842*
20,1,.001,.017048,.009842,0.0,.019685,0.0*
1,1,.001,0.0,.019685*
%
%ADD17MACRO17*%
%AMMACRO16*
1,1,.001,-.01634,-.01319*
20,1,.001,-.01634,-.01319,-.01634,.01319,0.0*
1,1,.001,-.01634,.01319*
20,1,.001,-.01634,.01319,-.016092,.016027,0.0*
1,1,.001,-.016092,.016027*
20,1,.001,-.016092,.016027,-.015355,.018779,0.0*
1,1,.001,-.015355,.018779*
20,1,.001,-.015355,.018779,-.014151,.02136,0.0*
1,1,.001,-.014151,.02136*
20,1,.001,-.014151,.02136,-.012517,.023693,0.0*
1,1,.001,-.012517,.023693*
20,1,.001,-.012517,.023693,-.010503,.025707,0.0*
1,1,.001,-.010503,.025707*
20,1,.001,-.010503,.025707,-.00817,.027341,0.0*
1,1,.001,-.00817,.027341*
20,1,.001,-.00817,.027341,-.005589,.028545,0.0*
1,1,.001,-.005589,.028545*
20,1,.001,-.005589,.028545,-.002837,.029282,0.0*
1,1,.001,-.002837,.029282*
20,1,.001,-.002837,.029282,0.0,.02953,0.0*
1,1,.001,0.0,.02953*
20,1,.001,0.0,.02953,.002837,.029282,0.0*
1,1,.001,.002837,.029282*
20,1,.001,.002837,.029282,.005589,.028545,0.0*
1,1,.001,.005589,.028545*
20,1,.001,.005589,.028545,.00817,.027341,0.0*
1,1,.001,.00817,.027341*
20,1,.001,.00817,.027341,.010503,.025707,0.0*
1,1,.001,.010503,.025707*
20,1,.001,.010503,.025707,.012517,.023693,0.0*
1,1,.001,.012517,.023693*
20,1,.001,.012517,.023693,.014151,.02136,0.0*
1,1,.001,.014151,.02136*
20,1,.001,.014151,.02136,.015355,.018779,0.0*
1,1,.001,.015355,.018779*
20,1,.001,.015355,.018779,.016092,.016027,0.0*
1,1,.001,.016092,.016027*
20,1,.001,.016092,.016027,.01634,.01319,0.0*
1,1,.001,.01634,.01319*
20,1,.001,.01634,.01319,.01634,-.01319,0.0*
1,1,.001,.01634,-.01319*
20,1,.001,.01634,-.01319,.016092,-.016027,0.0*
1,1,.001,.016092,-.016027*
20,1,.001,.016092,-.016027,.015355,-.018779,0.0*
1,1,.001,.015355,-.018779*
20,1,.001,.015355,-.018779,.014151,-.02136,0.0*
1,1,.001,.014151,-.02136*
20,1,.001,.014151,-.02136,.012517,-.023693,0.0*
1,1,.001,.012517,-.023693*
20,1,.001,.012517,-.023693,.010503,-.025707,0.0*
1,1,.001,.010503,-.025707*
20,1,.001,.010503,-.025707,.00817,-.027341,0.0*
1,1,.001,.00817,-.027341*
20,1,.001,.00817,-.027341,.005589,-.028545,0.0*
1,1,.001,.005589,-.028545*
20,1,.001,.005589,-.028545,.002837,-.029282,0.0*
1,1,.001,.002837,-.029282*
20,1,.001,.002837,-.029282,0.0,-.02953,0.0*
1,1,.001,0.0,-.02953*
20,1,.001,0.0,-.02953,-.002837,-.029282,0.0*
1,1,.001,-.002837,-.029282*
20,1,.001,-.002837,-.029282,-.005589,-.028545,0.0*
1,1,.001,-.005589,-.028545*
20,1,.001,-.005589,-.028545,-.00817,-.027341,0.0*
1,1,.001,-.00817,-.027341*
20,1,.001,-.00817,-.027341,-.010503,-.025707,0.0*
1,1,.001,-.010503,-.025707*
20,1,.001,-.010503,-.025707,-.012517,-.023693,0.0*
1,1,.001,-.012517,-.023693*
20,1,.001,-.012517,-.023693,-.014151,-.02136,0.0*
1,1,.001,-.014151,-.02136*
20,1,.001,-.014151,-.02136,-.015355,-.018779,0.0*
1,1,.001,-.015355,-.018779*
20,1,.001,-.015355,-.018779,-.016092,-.016027,0.0*
1,1,.001,-.016092,-.016027*
20,1,.001,-.016092,-.016027,-.01634,-.01319,0.0*
1,1,.001,-.01634,-.01319*
1,1,.001,-.00817,-.00817*
20,1,.001,-.00817,-.00817,-.01035,-.0079,0.0*
1,1,.001,-.01035,-.0079*
20,1,.001,-.01035,-.0079,-.01225,-.00681,0.0*
1,1,.001,-.01225,-.00681*
20,1,.001,-.01225,-.00681,-.01389,-.00517,0.0*
1,1,.001,-.01389,-.00517*
20,1,.001,-.01389,-.00517,-.01498,-.00327,0.0*
1,1,.001,-.01498,-.00327*
20,1,.001,-.01498,-.00327,-.01552,-.00109,0.0*
1,1,.001,-.01552,-.00109*
20,1,.001,-.01552,-.00109,-.01552,.00109,0.0*
1,1,.001,-.01552,.00109*
20,1,.001,-.01552,.00109,-.01498,.00327,0.0*
1,1,.001,-.01498,.00327*
20,1,.001,-.01498,.00327,-.01389,.00517,0.0*
1,1,.001,-.01389,.00517*
20,1,.001,-.01389,.00517,-.01225,.00681,0.0*
1,1,.001,-.01225,.00681*
20,1,.001,-.01225,.00681,-.01035,.0079,0.0*
1,1,.001,-.01035,.0079*
20,1,.001,-.01035,.0079,-.00817,.00817,0.0*
1,1,.001,-.00817,.00817*
20,1,.001,-.00817,.00817,-.00599,.0079,0.0*
1,1,.001,-.00599,.0079*
20,1,.001,-.00599,.0079,-.00409,.00681,0.0*
1,1,.001,-.00409,.00681*
20,1,.001,-.00409,.00681,-.00245,.00517,0.0*
1,1,.001,-.00245,.00517*
20,1,.001,-.00245,.00517,-.00136,.00327,0.0*
1,1,.001,-.00136,.00327*
20,1,.001,-.00136,.00327,-.00082,.00109,0.0*
1,1,.001,-.00082,.00109*
20,1,.001,-.00082,.00109,-.00082,-.00109,0.0*
1,1,.001,-.00082,-.00109*
20,1,.001,-.00082,-.00109,-.00136,-.00327,0.0*
1,1,.001,-.00136,-.00327*
20,1,.001,-.00136,-.00327,-.00245,-.00517,0.0*
1,1,.001,-.00245,-.00517*
20,1,.001,-.00245,-.00517,-.00409,-.00681,0.0*
1,1,.001,-.00409,-.00681*
20,1,.001,-.00409,-.00681,-.00599,-.0079,0.0*
1,1,.001,-.00599,-.0079*
20,1,.001,-.00599,-.0079,-.00817,-.00817,0.0*
1,1,.001,-.00817,-.00817*
1,1,.001,.01036,.00054*
20,1,.001,.01036,.00054,.01145,.00136,0.0*
1,1,.001,.01145,.00136*
20,1,.001,.01145,.00136,.01226,.00272,0.0*
1,1,.001,.01226,.00272*
20,1,.001,.01226,.00272,.01281,.00463,0.0*
1,1,.001,.01281,.00463*
20,1,.001,.01281,.00463,.01226,.00626,0.0*
1,1,.001,.01226,.00626*
20,1,.001,.01226,.00626,.01118,.00735,0.0*
1,1,.001,.01118,.00735*
20,1,.001,.01118,.00735,.00927,.00817,0.0*
1,1,.001,.00927,.00817*
20,1,.001,.00927,.00817,.00192,.00817,0.0*
1,1,.001,.00192,.00817*
20,1,.001,.00192,.00817,.00192,-.00817,0.0*
1,1,.001,.00192,-.00817*
20,1,.001,.00192,-.00817,.0109,-.00817,0.0*
1,1,.001,.0109,-.00817*
20,1,.001,.0109,-.00817,.01281,-.00708,0.0*
1,1,.001,.01281,-.00708*
20,1,.001,.01281,-.00708,.0139,-.00545,0.0*
1,1,.001,.0139,-.00545*
20,1,.001,.0139,-.00545,.01444,-.00354,0.0*
1,1,.001,.01444,-.00354*
20,1,.001,.01444,-.00354,.0139,-.00163,0.0*
1,1,.001,.0139,-.00163*
20,1,.001,.0139,-.00163,.01226,0.0,0.0*
1,1,.001,.01226,0.0*
20,1,.001,.01226,0.0,.01036,.00054,0.0*
1,1,.001,.01036,.00054*
20,1,.001,.01036,.00054,.00192,.00054,0.0*
1,1,.001,.00192,.00054*
%
%ADD16MACRO16*%
%ADD18C,.012*%
%ADD19C,.001*%
%ADD20C,.006*%
G75*
%LPD*%
G75*
G54D10*
X4500Y24500D03*
Y36500D03*
Y31500D03*
Y46500D03*
X3500Y59000D03*
Y69000D03*
Y79000D03*
Y89000D03*
Y99000D03*
Y109000D03*
Y119000D03*
Y129000D03*
Y139000D03*
Y149000D03*
Y159000D03*
Y169000D03*
Y179000D03*
Y189000D03*
Y209000D03*
Y239000D03*
Y229000D03*
Y249000D03*
X3600Y260500D03*
Y270500D03*
Y280500D03*
X4500Y300000D03*
Y290000D03*
X3200Y311500D03*
Y330000D03*
Y320000D03*
X3500Y339500D03*
X13500Y24500D03*
X23500D03*
Y31500D03*
X13500D03*
X14000Y39500D03*
X24000D03*
X13000Y79000D03*
Y69000D03*
X23000Y79000D03*
Y69000D03*
Y99000D03*
X13000D03*
Y89000D03*
X23000D03*
X13000Y109000D03*
X23000D03*
Y169000D03*
X13000Y179000D03*
Y169000D03*
X23000Y179000D03*
Y199000D03*
Y189000D03*
X13000D03*
Y209000D03*
X23000Y219000D03*
Y209000D03*
Y229000D03*
X13000D03*
Y260500D03*
X23000D03*
Y249500D03*
X13000D03*
X23500Y269500D03*
Y279500D03*
Y289500D03*
Y299500D03*
Y309500D03*
Y319500D03*
X13500Y311500D03*
X23500Y329500D03*
Y339500D03*
X13500D03*
X33500Y24500D03*
X40500D03*
X47500Y45500D03*
X44000Y41500D03*
X40500Y31500D03*
X42000Y37000D03*
X33500Y31500D03*
X34500Y38500D03*
X45000Y52500D03*
X33000Y59000D03*
Y79000D03*
Y69000D03*
Y99000D03*
Y89000D03*
Y119000D03*
Y109000D03*
Y139000D03*
Y129000D03*
Y159000D03*
Y179000D03*
Y199000D03*
Y189000D03*
Y209000D03*
X43000Y249500D03*
X33000Y260500D03*
X43000D03*
X33000Y249500D03*
X43500Y269500D03*
Y299500D03*
X33500Y289500D03*
X43500D03*
X33500Y299500D03*
X43500Y309500D03*
X33500D03*
X43500Y319500D03*
X33500Y329500D03*
X43500D03*
Y339500D03*
X33500D03*
X65500Y4000D03*
X59500Y4500D03*
X66000Y11000D03*
Y17500D03*
X54500Y24500D03*
X50000D03*
X61500Y29000D03*
X59500Y17500D03*
Y11500D03*
Y23500D03*
X65500Y25000D03*
X56500Y34000D03*
X53000Y31500D03*
X50500Y34500D03*
X52500Y38000D03*
X63000Y48000D03*
X65000Y38500D03*
X62000Y41500D03*
X66000Y51000D03*
X55000Y52500D03*
X65500Y63500D03*
X59000Y56500D03*
X51500Y49500D03*
X53000Y59000D03*
X62000Y60000D03*
X63000Y69000D03*
X53000D03*
Y79000D03*
X63000D03*
Y89000D03*
X54000Y105500D03*
X63000Y99000D03*
X53000Y89000D03*
X63000Y119000D03*
X53000D03*
Y129000D03*
X62500Y152000D03*
X52500D03*
X62500Y162000D03*
X52500D03*
Y172000D03*
X62500D03*
X52500Y182000D03*
X62500D03*
Y202000D03*
X52500D03*
X62500Y192000D03*
X52500D03*
X62500Y211500D03*
X52500D03*
X63000Y249500D03*
X53000Y260500D03*
X63000D03*
X53000Y249500D03*
Y279000D03*
X63000D03*
X67500Y268500D03*
Y263500D03*
X53000Y270500D03*
X67500Y274500D03*
X63000Y270500D03*
X58000Y286500D03*
X62000Y300000D03*
X62500Y295500D03*
X66500Y292000D03*
X52350Y312850D03*
X53500Y319500D03*
X62000Y304500D03*
X66000Y319500D03*
X53500Y329500D03*
X63500Y339500D03*
X53500D03*
X81500Y9500D03*
X73000Y4000D03*
X84000Y28000D03*
X86500Y18500D03*
X81500Y21500D03*
X75000Y28000D03*
X73500Y12000D03*
X78000Y25000D03*
X69500Y21000D03*
X72500Y17500D03*
X79000Y41000D03*
X74000Y46000D03*
X85500D03*
X79500Y34500D03*
X68000Y43500D03*
X84500Y41000D03*
X73000D03*
X72000Y31000D03*
X68000Y35000D03*
X85500Y53000D03*
X79000Y57000D03*
Y49500D03*
X78000Y63000D03*
X75500Y60000D03*
X87000Y65000D03*
X86500Y59500D03*
X69000Y66500D03*
X71500Y51000D03*
X82500Y65000D03*
X72500Y57000D03*
X78860Y73210D03*
X75000Y72500D03*
X81840Y73850D03*
X72000Y69500D03*
X87000Y73500D03*
X77000Y105000D03*
X82000D03*
X77000Y92000D03*
X82000D03*
X83000Y121500D03*
X87000Y118500D03*
X72500Y152000D03*
X82500D03*
Y162000D03*
X72500D03*
Y172000D03*
Y182000D03*
Y202000D03*
Y192000D03*
X81500Y193500D03*
Y197000D03*
X72500Y211500D03*
X83000Y260000D03*
Y249500D03*
X73000D03*
Y260000D03*
X73500Y279000D03*
X78000Y263000D03*
X79000Y291000D03*
X70500Y291500D03*
X81000Y334000D03*
X83500Y339500D03*
X73500D03*
X98500Y9500D03*
X90000Y4000D03*
X89500Y8000D03*
X102500Y3500D03*
X104500Y16500D03*
X87500Y12500D03*
X92500Y23000D03*
Y13000D03*
X104500Y30000D03*
X90000D03*
X90500Y35500D03*
Y47299D03*
X100000Y35500D03*
X101000Y51500D03*
X105500Y54000D03*
X90000Y51500D03*
X95000D03*
X93500Y63500D03*
X90000Y73500D03*
X104325Y94500D03*
X90500Y129000D03*
X95000Y126500D03*
X102500Y134000D03*
X98500Y137000D03*
X96000Y156000D03*
X91000Y149500D03*
X87500D03*
X104000Y169000D03*
X99500Y190000D03*
X93500D03*
X94000Y222000D03*
X93500Y229000D03*
X94500Y234500D03*
Y239000D03*
X103000Y249500D03*
X93000D03*
Y260000D03*
X103000D03*
X88000Y267000D03*
Y277500D03*
Y272500D03*
X95000Y271000D03*
X106500Y295500D03*
X89500Y287500D03*
X95000Y289000D03*
X89000Y299500D03*
X106500Y310500D03*
Y303000D03*
X98000Y317000D03*
X89000Y310000D03*
X102500Y309000D03*
Y305486D03*
X103500Y329500D03*
X88500Y334000D03*
X103500Y339500D03*
X93500D03*
X112500Y3500D03*
X122500D03*
X113000Y22500D03*
Y10000D03*
X120000Y16000D03*
X121000Y30000D03*
X109500Y35500D03*
Y39500D03*
X115500Y43000D03*
X121500D03*
X125000Y64500D03*
X109500Y51000D03*
X108500Y54500D03*
X121500Y67500D03*
X124500D03*
X121000Y64500D03*
X122819Y82191D03*
X125000Y71000D03*
X120951Y78800D03*
X121101Y73750D03*
X122500Y85000D03*
X125000Y100500D03*
X122500Y92000D03*
X125000Y105500D03*
X120000Y100500D03*
Y105500D03*
X117500Y95500D03*
X122500D03*
X120000Y110500D03*
X125000D03*
X113500Y145000D03*
X110500Y149000D03*
X114500Y188000D03*
X124500D03*
X117000Y202000D03*
X121000D03*
X124500D03*
X112000Y216295D03*
X115000Y231500D03*
Y227760D03*
X123000Y249500D03*
X113000D03*
X123000Y260000D03*
X113000D03*
X121500Y277000D03*
X111500Y279240D03*
Y273000D03*
Y269500D03*
X112500Y295500D03*
X123500Y286500D03*
X115500Y314000D03*
X120000Y302500D03*
X122500Y313500D03*
X126000D03*
X123500Y329500D03*
X121382Y327118D03*
X123500Y339500D03*
X142500Y9500D03*
X127000Y9000D03*
X132500Y3500D03*
X142500D03*
X127000Y23000D03*
X137000Y24500D03*
X131500Y16000D03*
X145000Y21500D03*
X136500Y18500D03*
X137500Y35000D03*
X130000Y47000D03*
X133295Y61795D03*
X144500Y61500D03*
X134000Y49000D03*
X138000Y61500D03*
X133000Y77500D03*
X137000Y80000D03*
X134500Y83500D03*
X136000Y99000D03*
X128500Y95000D03*
X139000Y154500D03*
Y150000D03*
X131000D03*
Y154500D03*
X135500Y194000D03*
X132500Y202000D03*
X128500D03*
X143500Y207500D03*
Y214500D03*
Y222500D03*
Y229000D03*
X145000Y235000D03*
X142000D03*
X145000Y249500D03*
X131500Y260000D03*
X143000Y276500D03*
X139500D03*
X135000Y289000D03*
X127500Y284000D03*
X136000Y281500D03*
X135000Y293500D03*
X137000Y297000D03*
X141000D03*
X132000Y313500D03*
X129000D03*
X133500Y329500D03*
Y339500D03*
X152500Y9500D03*
X162500D03*
Y3500D03*
X152500D03*
X151000Y21500D03*
X148000Y26500D03*
X153500Y32500D03*
X163000Y64500D03*
Y70000D03*
X146500Y86000D03*
X145951Y80500D03*
X163000Y76000D03*
X152500Y106000D03*
X157500Y88295D03*
X146500Y99000D03*
Y92000D03*
X156500Y106000D03*
X158000Y101000D03*
Y96000D03*
X155000Y113500D03*
X149500Y150000D03*
X155000Y150500D03*
X149500Y154000D03*
X160000Y160500D03*
Y156000D03*
X152500Y152500D03*
X153000Y173500D03*
X146500Y178000D03*
X164500Y174000D03*
X158500Y173500D03*
X156500Y187500D03*
X149500Y212500D03*
X163500Y231500D03*
Y227760D03*
X153500Y249500D03*
X163500D03*
X153000Y260000D03*
X163000D03*
X146500D03*
X160500Y277000D03*
X147500Y288500D03*
X147000Y281500D03*
X160500D03*
X163000Y296000D03*
Y292427D03*
X150000Y306000D03*
X162000Y310500D03*
X149000Y300500D03*
Y311000D03*
X161500Y300500D03*
X163500Y329500D03*
X153500D03*
X163500Y339500D03*
X153500D03*
X172500Y9500D03*
X182500D03*
Y3500D03*
X172500D03*
X171500Y22500D03*
X183500Y15000D03*
X171500Y31000D03*
X171000Y41000D03*
X182000Y61000D03*
X180000Y83000D03*
X165000Y82000D03*
X183500Y106000D03*
Y96000D03*
Y91795D03*
X180000Y139500D03*
Y143000D03*
X181500Y155500D03*
X167500Y153500D03*
X175000Y164000D03*
Y160500D03*
X171500Y164000D03*
Y160500D03*
X170000Y174500D03*
X166500Y187500D03*
X169500Y202500D03*
X176500Y187500D03*
X173000Y202500D03*
X165500D03*
X177000D03*
X180500D03*
X173500Y249500D03*
X183000Y260000D03*
X173000D03*
X175500Y267000D03*
X181358D03*
X184000Y277500D03*
X169500Y310500D03*
X173484Y300500D03*
X175453Y310000D03*
X182000D03*
X177421Y300500D03*
X170000D03*
X179000Y310000D03*
X166000Y311000D03*
X183500Y329500D03*
X173500D03*
X179500Y324000D03*
X173500Y339500D03*
X183500D03*
X202500Y3500D03*
X192500D03*
X197500Y26500D03*
X185000Y25500D03*
X193500Y33500D03*
X203500D03*
X185000Y46500D03*
X193500Y53000D03*
X200000Y63000D03*
X202500Y50000D03*
X195500Y75000D03*
X190500Y91500D03*
X196000Y111000D03*
X193000Y128500D03*
X196000Y142500D03*
X192000D03*
X185000Y143000D03*
Y148000D03*
X200000Y155500D03*
X191500Y149000D03*
X202500Y153000D03*
X197500D03*
Y149000D03*
X186500Y155500D03*
Y163000D03*
X202500Y158000D03*
Y162000D03*
X187000Y175000D03*
X186500Y168500D03*
X197500Y180500D03*
X185000Y184000D03*
X188500Y193000D03*
X197500Y185500D03*
X188500Y211000D03*
X203000Y219000D03*
X198205Y221500D03*
X203000Y229000D03*
Y249500D03*
X193000D03*
Y260000D03*
X203000D03*
X187000Y246500D03*
X187500Y243500D03*
X199500Y268000D03*
X200000Y275000D03*
X195500Y272000D03*
X194500Y279795D03*
X184500Y267000D03*
X200500Y292705D03*
X184500Y289000D03*
Y293500D03*
X195000Y296000D03*
X202000Y313500D03*
X192000D03*
X186500Y310000D03*
X203500Y329500D03*
X193500D03*
X184500Y324000D03*
X203500Y339500D03*
X193500D03*
X222500Y3500D03*
X212500D03*
X220500Y18000D03*
X221000Y45000D03*
X214000Y33500D03*
X210000Y63000D03*
X213000Y89000D03*
X213500Y162500D03*
X210000Y168000D03*
Y180500D03*
X205000D03*
X213000Y212000D03*
Y219000D03*
Y239000D03*
Y229000D03*
Y249500D03*
Y260000D03*
X222000Y277000D03*
X205000Y275000D03*
X211000D03*
X219500Y268000D03*
X217500Y275000D03*
X209500Y268000D03*
X222000Y287000D03*
X208500Y299500D03*
X217500Y282500D03*
Y290784D03*
X208500Y295561D03*
X219000Y299500D03*
X217500Y295561D03*
X208500Y307000D03*
X213500Y329500D03*
Y339500D03*
X232500Y3500D03*
X231000Y18000D03*
X241000Y19000D03*
Y29000D03*
X231500Y45000D03*
X223500Y33500D03*
X233500D03*
X239500Y229000D03*
X233000Y260000D03*
X229500Y268500D03*
Y277000D03*
X239500D03*
Y268500D03*
Y287000D03*
X229500D03*
X223500Y319500D03*
X233500Y309500D03*
X231500Y321000D03*
X233500Y329500D03*
X223500D03*
X233500Y339500D03*
X223500D03*
X252500Y3500D03*
X242500D03*
X251000Y29000D03*
Y19000D03*
Y39000D03*
X261000D03*
X255000Y59500D03*
X261500Y66500D03*
X251000Y49000D03*
X261000D03*
X255000Y54500D03*
X253000Y239000D03*
X243000D03*
X253000Y249500D03*
X243000D03*
Y260000D03*
X253000D03*
X250500Y309500D03*
X260500D03*
X243500Y329500D03*
X253500Y339500D03*
X243500D03*
X272500Y9000D03*
X272000Y3500D03*
X262500D03*
X271500Y27500D03*
X272500Y19000D03*
X271000Y39000D03*
Y49000D03*
X272500Y59000D03*
X262500Y79000D03*
X272500Y69000D03*
Y79000D03*
Y89000D03*
Y99000D03*
Y109000D03*
Y119000D03*
Y129000D03*
Y139000D03*
Y149000D03*
Y159000D03*
Y169000D03*
Y179000D03*
Y189000D03*
Y199000D03*
Y219000D03*
Y209000D03*
Y229000D03*
X263000Y239000D03*
X272500D03*
X272000Y249000D03*
X263000Y249500D03*
Y260500D03*
X272000D03*
X272500Y280500D03*
Y270500D03*
X270500Y289500D03*
Y299500D03*
Y309500D03*
X272000Y330500D03*
Y320500D03*
Y339500D03*
X263500D03*
X373019Y215810D03*
G54D20*
G01X-16500Y225350D02*
X-19500D01*
X-16500Y227650D01*
X-19500D01*
G01X-16500Y228501D02*
X-19500D01*
Y229701D01*
X-19350Y230101D01*
X-19000Y230401D01*
X-18600Y230501D01*
X-18200Y230401D01*
X-17900Y230151D01*
X-17750Y229701D01*
Y228501D01*
G01X-19500Y232502D02*
X-16500D01*
G01X-19500Y231352D02*
Y233652D01*
G01X-16500Y234453D02*
X-19500D01*
G01Y236553D02*
X-16500D01*
G01X-18000D02*
Y234453D01*
G01X-16500Y240405D02*
X-19500D01*
Y241405D01*
X-19350Y241805D01*
X-19150Y242105D01*
X-18850Y242355D01*
X-18500Y242555D01*
X-18000Y242605D01*
X-17500Y242555D01*
X-17150Y242355D01*
X-16850Y242105D01*
X-16650Y241805D01*
X-16500Y241405D01*
Y240405D01*
G01Y243506D02*
X-19500D01*
Y244756D01*
X-19350Y245156D01*
X-19150Y245406D01*
X-18750Y245506D01*
X-18350Y245406D01*
X-18100Y245106D01*
X-17950Y244756D01*
Y243506D01*
G01Y244756D02*
X-16500Y245506D01*
G01X-19500Y246907D02*
Y248107D01*
G01Y247507D02*
X-16500D01*
G01Y246907D02*
Y248107D01*
G01X-19500Y249508D02*
X-16500D01*
Y251508D01*
G01X-19500Y252509D02*
X-16500D01*
Y254509D01*
G01X16300Y355500D02*
X17300D01*
Y354600D01*
X17000Y354300D01*
X16650Y354100D01*
X16150Y354000D01*
X15650Y354100D01*
X15300Y354300D01*
X15000Y354600D01*
X14800Y354950D01*
X14700Y355350D01*
Y355700D01*
X14800Y356000D01*
X15000Y356350D01*
X15300Y356650D01*
X15600Y356850D01*
X16000Y357000D01*
X16350D01*
X16750Y356900D01*
X17050Y356700D01*
G01X19001Y357000D02*
X18601Y356900D01*
X18301Y356650D01*
X18101Y356350D01*
X17951Y355950D01*
X17901Y355500D01*
X17951Y355050D01*
X18101Y354650D01*
X18301Y354350D01*
X18601Y354100D01*
X19001Y354000D01*
X19401Y354100D01*
X19701Y354350D01*
X19901Y354650D01*
X20051Y355050D01*
X20101Y355500D01*
X20051Y355950D01*
X19901Y356350D01*
X19701Y356650D01*
X19401Y356900D01*
X19001Y357000D01*
G01X21152Y354350D02*
X21502Y354100D01*
X21902Y354000D01*
X22302Y354100D01*
X22652Y354400D01*
X22902Y354850D01*
X23002Y355300D01*
Y355850D01*
X22902Y356300D01*
X22652Y356700D01*
X22352Y356900D01*
X22002Y357000D01*
X21602Y356900D01*
X21302Y356700D01*
X21102Y356400D01*
X21002Y356000D01*
X21102Y355650D01*
X21352Y355300D01*
X21652Y355100D01*
X22002Y355050D01*
X22402Y355150D01*
X22702Y355400D01*
X23002Y355850D01*
G01X24053Y355250D02*
X24403Y355600D01*
X24703Y355800D01*
X25103Y355900D01*
X25453Y355800D01*
X25703Y355600D01*
X25903Y355300D01*
X25953Y354950D01*
X25903Y354650D01*
X25703Y354350D01*
X25403Y354100D01*
X25053Y354000D01*
X24653Y354100D01*
X24303Y354400D01*
X24103Y354850D01*
X24053Y355350D01*
X24153Y356000D01*
X24303Y356350D01*
X24553Y356700D01*
X24903Y356950D01*
X25253Y357000D01*
X25603Y356900D01*
X25853Y356650D01*
G01X29104Y356750D02*
X28804Y356900D01*
X28454Y357000D01*
X28054D01*
X27604Y356850D01*
X27254Y356600D01*
X27004Y356300D01*
X26804Y355800D01*
X26754Y355350D01*
X26854Y354900D01*
X27004Y354600D01*
X27304Y354300D01*
X27654Y354100D01*
X28004Y354000D01*
X28354D01*
X28704Y354100D01*
X29004Y354250D01*
X29254Y354450D01*
G01X31005Y357000D02*
X30605Y356900D01*
X30305Y356650D01*
X30105Y356350D01*
X29955Y355950D01*
X29905Y355500D01*
X29955Y355050D01*
X30105Y354650D01*
X30305Y354350D01*
X30605Y354100D01*
X31005Y354000D01*
X31405Y354100D01*
X31705Y354350D01*
X31905Y354650D01*
X32055Y355050D01*
X32105Y355500D01*
X32055Y355950D01*
X31905Y356350D01*
X31705Y356650D01*
X31405Y356900D01*
X31005Y357000D01*
G01X34606Y354000D02*
Y357000D01*
X32756Y354850D01*
X35256D01*
G01X36057Y355250D02*
X36407Y355600D01*
X36707Y355800D01*
X37107Y355900D01*
X37457Y355800D01*
X37707Y355600D01*
X37907Y355300D01*
X37957Y354950D01*
X37907Y354650D01*
X37707Y354350D01*
X37407Y354100D01*
X37057Y354000D01*
X36657Y354100D01*
X36307Y354400D01*
X36107Y354850D01*
X36057Y355350D01*
X36157Y356000D01*
X36307Y356350D01*
X36557Y356700D01*
X36907Y356950D01*
X37257Y357000D01*
X37607Y356900D01*
X37857Y356650D01*
G01X38758Y354000D02*
X40008Y357000D01*
X41258Y354000D01*
G01X40808Y355050D02*
X39208D01*
G01X43009Y357000D02*
X42609Y356900D01*
X42309Y356650D01*
X42109Y356350D01*
X41959Y355950D01*
X41909Y355500D01*
X41959Y355050D01*
X42109Y354650D01*
X42309Y354350D01*
X42609Y354100D01*
X43009Y354000D01*
X43409Y354100D01*
X43709Y354350D01*
X43909Y354650D01*
X44059Y355050D01*
X44109Y355500D01*
X44059Y355950D01*
X43909Y356350D01*
X43709Y356650D01*
X43409Y356900D01*
X43009Y357000D01*
G01X77495Y253500D02*
X77195Y253550D01*
X76895Y253750D01*
X76695Y254100D01*
X76595Y254500D01*
X76695Y254900D01*
X76895Y255250D01*
X77195Y255450D01*
X77495Y255500D01*
X77795Y255450D01*
X78095Y255250D01*
X78295Y254900D01*
X78345Y254500D01*
X78295Y254100D01*
X78095Y253750D01*
X77795Y253550D01*
X77495Y253500D01*
G01X79596Y252500D02*
Y255500D01*
G01Y255050D02*
X79846Y255300D01*
X80096Y255450D01*
X80496Y255500D01*
X80846Y255450D01*
X81196Y255200D01*
X81346Y254850D01*
X81396Y254500D01*
X81346Y254150D01*
X81196Y253800D01*
X80896Y253600D01*
X80496Y253500D01*
X80146Y253550D01*
X79796Y253700D01*
X79596Y253900D01*
G01X82747Y254850D02*
X84347D01*
X84197Y255200D01*
X83947Y255400D01*
X83597Y255500D01*
X83247Y255450D01*
X82947Y255300D01*
X82747Y254950D01*
X82647Y254650D01*
Y254350D01*
X82747Y254050D01*
X82997Y253750D01*
X83297Y253550D01*
X83647Y253500D01*
X83997Y253600D01*
X84347Y253900D01*
G01X85648Y253500D02*
Y255500D01*
G01Y255000D02*
X85848Y255250D01*
X86148Y255450D01*
X86548Y255500D01*
X86898Y255450D01*
X87198Y255250D01*
X87348Y254900D01*
Y253500D01*
G01X91250Y255500D02*
X91850Y253500D01*
X92500Y255500D01*
X93150Y253500D01*
X93750Y255500D01*
G01X95501D02*
Y253500D01*
G01Y256300D02*
X95401Y256350D01*
Y256450D01*
X95501Y256500D01*
X95601Y256450D01*
Y256350D01*
X95501Y256300D01*
G01X97652Y253500D02*
Y255500D01*
G01Y255000D02*
X97852Y255250D01*
X98152Y255450D01*
X98552Y255500D01*
X98902Y255450D01*
X99202Y255250D01*
X99352Y254900D01*
Y253500D01*
G01X102403Y256500D02*
Y253500D01*
G01Y253950D02*
X102203Y253700D01*
X101903Y253550D01*
X101553Y253500D01*
X101153Y253600D01*
X100853Y253850D01*
X100653Y254150D01*
X100603Y254500D01*
X100653Y254850D01*
X100853Y255150D01*
X101153Y255400D01*
X101553Y255500D01*
X101903Y255450D01*
X102153Y255350D01*
X102403Y255150D01*
G01X104504Y253500D02*
X104204Y253550D01*
X103904Y253750D01*
X103704Y254100D01*
X103604Y254500D01*
X103704Y254900D01*
X103904Y255250D01*
X104204Y255450D01*
X104504Y255500D01*
X104804Y255450D01*
X105104Y255250D01*
X105304Y254900D01*
X105354Y254500D01*
X105304Y254100D01*
X105104Y253750D01*
X104804Y253550D01*
X104504Y253500D01*
G01X106255Y255500D02*
X106855Y253500D01*
X107505Y255500D01*
X108155Y253500D01*
X108755Y255500D01*
G01X109756Y253850D02*
X110006Y253650D01*
X110356Y253500D01*
X110656D01*
X110956Y253600D01*
X111156Y253750D01*
X111256Y253950D01*
X111206Y254250D01*
X111006Y254400D01*
X110106Y254700D01*
X109906Y255050D01*
X110006Y255300D01*
X110206Y255450D01*
X110506Y255500D01*
X110806Y255450D01*
X111106Y255300D01*
G01X166995Y253500D02*
X166695Y253550D01*
X166395Y253750D01*
X166195Y254100D01*
X166095Y254500D01*
X166195Y254900D01*
X166395Y255250D01*
X166695Y255450D01*
X166995Y255500D01*
X167295Y255450D01*
X167595Y255250D01*
X167795Y254900D01*
X167845Y254500D01*
X167795Y254100D01*
X167595Y253750D01*
X167295Y253550D01*
X166995Y253500D01*
G01X169096Y252500D02*
Y255500D01*
G01Y255050D02*
X169346Y255300D01*
X169596Y255450D01*
X169996Y255500D01*
X170346Y255450D01*
X170696Y255200D01*
X170846Y254850D01*
X170896Y254500D01*
X170846Y254150D01*
X170696Y253800D01*
X170396Y253600D01*
X169996Y253500D01*
X169646Y253550D01*
X169296Y253700D01*
X169096Y253900D01*
G01X172247Y254850D02*
X173847D01*
X173697Y255200D01*
X173447Y255400D01*
X173097Y255500D01*
X172747Y255450D01*
X172447Y255300D01*
X172247Y254950D01*
X172147Y254650D01*
Y254350D01*
X172247Y254050D01*
X172497Y253750D01*
X172797Y253550D01*
X173147Y253500D01*
X173497Y253600D01*
X173847Y253900D01*
G01X175148Y253500D02*
Y255500D01*
G01Y255000D02*
X175348Y255250D01*
X175648Y255450D01*
X176048Y255500D01*
X176398Y255450D01*
X176698Y255250D01*
X176848Y254900D01*
Y253500D01*
G01X180750Y255500D02*
X181350Y253500D01*
X182000Y255500D01*
X182650Y253500D01*
X183250Y255500D01*
G01X185001D02*
Y253500D01*
G01Y256300D02*
X184901Y256350D01*
Y256450D01*
X185001Y256500D01*
X185101Y256450D01*
Y256350D01*
X185001Y256300D01*
G01X187152Y253500D02*
Y255500D01*
G01Y255000D02*
X187352Y255250D01*
X187652Y255450D01*
X188052Y255500D01*
X188402Y255450D01*
X188702Y255250D01*
X188852Y254900D01*
Y253500D01*
G01X191903Y256500D02*
Y253500D01*
G01Y253950D02*
X191703Y253700D01*
X191403Y253550D01*
X191053Y253500D01*
X190653Y253600D01*
X190353Y253850D01*
X190153Y254150D01*
X190103Y254500D01*
X190153Y254850D01*
X190353Y255150D01*
X190653Y255400D01*
X191053Y255500D01*
X191403Y255450D01*
X191653Y255350D01*
X191903Y255150D01*
G01X194004Y253500D02*
X193704Y253550D01*
X193404Y253750D01*
X193204Y254100D01*
X193104Y254500D01*
X193204Y254900D01*
X193404Y255250D01*
X193704Y255450D01*
X194004Y255500D01*
X194304Y255450D01*
X194604Y255250D01*
X194804Y254900D01*
X194854Y254500D01*
X194804Y254100D01*
X194604Y253750D01*
X194304Y253550D01*
X194004Y253500D01*
G01X195755Y255500D02*
X196355Y253500D01*
X197005Y255500D01*
X197655Y253500D01*
X198255Y255500D01*
G01X199256Y253850D02*
X199506Y253650D01*
X199856Y253500D01*
X200156D01*
X200456Y253600D01*
X200656Y253750D01*
X200756Y253950D01*
X200706Y254250D01*
X200506Y254400D01*
X199606Y254700D01*
X199406Y255050D01*
X199506Y255300D01*
X199706Y255450D01*
X200006Y255500D01*
X200306Y255450D01*
X200606Y255300D01*
G01X312000Y116350D02*
X309000D01*
X312000Y118650D01*
X309000D01*
G01X312000Y119501D02*
X309000D01*
Y120701D01*
X309150Y121101D01*
X309500Y121401D01*
X309900Y121501D01*
X310300Y121401D01*
X310600Y121151D01*
X310750Y120701D01*
Y119501D01*
G01X309000Y123502D02*
X312000D01*
G01X309000Y122352D02*
Y124652D01*
G01X312000Y125453D02*
X309000D01*
G01Y127553D02*
X312000D01*
G01X310500D02*
Y125453D01*
G01X312000Y131405D02*
X309000D01*
Y132405D01*
X309150Y132805D01*
X309350Y133105D01*
X309650Y133355D01*
X310000Y133555D01*
X310500Y133605D01*
X311000Y133555D01*
X311350Y133355D01*
X311650Y133105D01*
X311850Y132805D01*
X312000Y132405D01*
Y131405D01*
G01Y134506D02*
X309000D01*
Y135756D01*
X309150Y136156D01*
X309350Y136406D01*
X309750Y136506D01*
X310150Y136406D01*
X310400Y136106D01*
X310550Y135756D01*
Y134506D01*
G01Y135756D02*
X312000Y136506D01*
G01X309000Y137907D02*
Y139107D01*
G01Y138507D02*
X312000D01*
G01Y137907D02*
Y139107D01*
G01X309000Y140508D02*
X312000D01*
Y142508D01*
G01X309000Y143509D02*
X312000D01*
Y145509D01*
G54D11*
X9000Y196500D03*
X9005Y218206D03*
X373019Y103410D03*
G54D12*
X23700Y127600D03*
Y117600D03*
X13700D03*
Y127600D03*
X23700Y147600D03*
Y137600D03*
X13700D03*
Y147600D03*
X23700Y157600D03*
X13700D03*
X31100Y283300D03*
Y273300D03*
X14700Y289500D03*
X34000Y243000D03*
X52500Y243500D03*
X196100Y10200D03*
X196400Y39200D03*
X206100Y10200D03*
X216100D03*
X206400Y39200D03*
X216400D03*
X226100Y10200D03*
X236100D03*
X226400Y39200D03*
X236400D03*
X248200Y289500D03*
X373019Y131510D03*
G54D13*
X14700Y269500D03*
Y279500D03*
X42500Y68500D03*
Y88500D03*
Y78500D03*
Y98500D03*
Y108500D03*
Y118500D03*
Y138500D03*
Y148500D03*
Y158500D03*
Y178500D03*
Y168500D03*
Y188500D03*
Y198500D03*
Y208500D03*
X34000Y223000D03*
Y233000D03*
X52500Y223500D03*
Y233500D03*
X232500Y68500D03*
Y88500D03*
Y78500D03*
Y98500D03*
Y108500D03*
Y128500D03*
Y118500D03*
Y138500D03*
Y164500D03*
Y154500D03*
Y174500D03*
Y184500D03*
Y194500D03*
Y204500D03*
Y214500D03*
Y224500D03*
Y234500D03*
Y244500D03*
X248200Y269500D03*
Y279500D03*
X261200Y268950D03*
Y278950D03*
Y298950D03*
Y288950D03*
X373019Y187710D03*
G54D14*
X76000Y305500D03*
X81000D03*
X71000D03*
Y310500D03*
X76000D03*
X81000D03*
X71000Y300500D03*
X76000D03*
X81000D03*
X98000Y77000D03*
Y72000D03*
X103000D03*
Y77000D03*
X98000Y82000D03*
X103000D03*
Y87000D03*
X98000D03*
X107000Y72000D03*
X113000Y77000D03*
X108000D03*
Y82000D03*
X113000D03*
Y87000D03*
X108000D03*
X373019Y243910D03*
G54D15*
X116953Y322724D03*
X136047D03*
X373019Y75310D03*
G54D16*
X112327Y334535D03*
X140673D03*
X373019Y47210D03*
G54D17*
X252700Y87200D03*
X262700D03*
X252700Y107200D03*
Y97200D03*
X262700Y107200D03*
Y97200D03*
X252700Y127200D03*
Y117200D03*
X262700Y127200D03*
Y117200D03*
X252700Y147200D03*
Y137200D03*
X262700Y147200D03*
Y137200D03*
X252700Y157200D03*
X262700D03*
X252700Y177200D03*
Y167200D03*
X262700Y177200D03*
Y167200D03*
X252700Y197200D03*
Y187200D03*
X262700Y197200D03*
Y187200D03*
X252700Y217200D03*
Y207200D03*
X262700Y217200D03*
Y207200D03*
X252700Y227200D03*
X262700D03*
X373019Y159610D03*
G54D18*
G01X-24100Y108800D02*
X-23167Y109400D01*
X-22633Y110200D01*
X-22500Y111100D01*
X-22633Y111900D01*
X-23300Y112700D01*
X-24100Y113200D01*
X-24900Y113300D01*
X-25833Y113100D01*
X-26500Y112400D01*
X-26767Y111700D01*
Y110800D01*
G01Y111700D02*
X-27167Y112300D01*
X-27833Y112800D01*
X-28633Y113000D01*
X-29433Y112800D01*
X-30100Y112300D01*
X-30500Y111400D01*
X-30367Y110500D01*
X-29833Y109600D01*
G01X-22500Y120200D02*
X-30500D01*
X-24767Y116500D01*
Y121500D01*
G01X-24100Y124800D02*
X-23167Y125400D01*
X-22633Y126200D01*
X-22500Y127100D01*
X-22633Y127900D01*
X-23300Y128700D01*
X-24100Y129200D01*
X-24900Y129300D01*
X-25833Y129100D01*
X-26500Y128400D01*
X-26767Y127700D01*
Y126800D01*
G01Y127700D02*
X-27167Y128300D01*
X-27833Y128800D01*
X-28633Y129000D01*
X-29433Y128800D01*
X-30100Y128300D01*
X-30500Y127400D01*
X-30367Y126500D01*
X-29833Y125600D01*
G01X-30500Y135000D02*
X-30233Y134200D01*
X-29567Y133600D01*
X-28767Y133200D01*
X-27700Y132900D01*
X-26500Y132800D01*
X-25300Y132900D01*
X-24233Y133200D01*
X-23433Y133600D01*
X-22767Y134200D01*
X-22500Y135000D01*
X-22767Y135800D01*
X-23433Y136400D01*
X-24233Y136800D01*
X-25300Y137100D01*
X-26500Y137200D01*
X-27700Y137100D01*
X-28767Y136800D01*
X-29567Y136400D01*
X-30233Y135800D01*
X-30500Y135000D01*
G01X-22233Y143000D02*
X-22367Y142800D01*
X-22633D01*
X-22767Y143000D01*
X-22633Y143200D01*
X-22367D01*
X-22233Y143000D01*
G01X-30500Y151000D02*
X-30233Y150200D01*
X-29567Y149600D01*
X-28767Y149200D01*
X-27700Y148900D01*
X-26500Y148800D01*
X-25300Y148900D01*
X-24233Y149200D01*
X-23433Y149600D01*
X-22767Y150200D01*
X-22500Y151000D01*
X-22767Y151800D01*
X-23433Y152400D01*
X-24233Y152800D01*
X-25300Y153100D01*
X-26500Y153200D01*
X-27700Y153100D01*
X-28767Y152800D01*
X-29567Y152400D01*
X-30233Y151800D01*
X-30500Y151000D01*
G01X-22500Y173600D02*
X-22633Y174300D01*
X-23033Y175100D01*
X-23700Y175600D01*
X-24633Y175800D01*
X-25566Y175600D01*
X-26367Y175000D01*
X-26767Y174100D01*
Y173100D01*
X-27033Y172500D01*
X-27700Y172000D01*
X-28633Y171800D01*
X-29567Y172100D01*
X-30233Y172800D01*
X-30500Y173600D01*
X-30233Y174400D01*
X-29567Y175100D01*
X-28633Y175400D01*
X-27700Y175200D01*
X-27033Y174700D01*
X-26767Y174100D01*
Y173100D01*
X-26367Y172200D01*
X-25566Y171600D01*
X-24633Y171400D01*
X-23700Y171600D01*
X-23033Y172100D01*
X-22633Y172900D01*
X-22500Y173600D01*
G01Y181400D02*
X-24233Y181600D01*
X-25700Y181900D01*
X-27033Y182300D01*
X-28500Y182800D01*
X-30500Y183600D01*
Y179600D01*
G01X-22233Y189600D02*
X-22367Y189400D01*
X-22633D01*
X-22767Y189600D01*
X-22633Y189800D01*
X-22367D01*
X-22233Y189600D01*
G01X-22500Y197600D02*
X-30500D01*
X-28900Y196400D01*
G01X-22500D02*
Y198800D01*
G01X78700Y371567D02*
X79300Y372367D01*
X80000Y372767D01*
X80800Y372900D01*
X81800Y372633D01*
X82500Y371967D01*
X82700Y371167D01*
X82600Y370366D01*
X82200Y369700D01*
X80200Y368367D01*
X79300Y367433D01*
X78700Y366100D01*
X78500Y364900D01*
X82700D01*
G01X88400D02*
X88600Y366633D01*
X88900Y368100D01*
X89300Y369433D01*
X89800Y370900D01*
X90600Y372900D01*
X86600D01*
G01X94400Y366100D02*
X95000Y365433D01*
X95700Y365033D01*
X96600Y364900D01*
X97500Y365167D01*
X98200Y365700D01*
X98700Y366633D01*
X98800Y367700D01*
X98600Y368767D01*
X98100Y369433D01*
X97400Y369967D01*
X96700Y370100D01*
X96000Y369967D01*
X95100Y369433D01*
X95400Y372900D01*
X98100D01*
G01X102700Y368233D02*
X103400Y369167D01*
X104000Y369700D01*
X104800Y369967D01*
X105500Y369700D01*
X106000Y369167D01*
X106400Y368367D01*
X106500Y367433D01*
X106400Y366633D01*
X106000Y365833D01*
X105400Y365167D01*
X104700Y364900D01*
X103900Y365167D01*
X103200Y365966D01*
X102800Y367167D01*
X102700Y368500D01*
X102900Y370233D01*
X103200Y371167D01*
X103700Y372100D01*
X104400Y372767D01*
X105100Y372900D01*
X105800Y372633D01*
X106300Y371967D01*
G01X112600Y364633D02*
X112400Y364767D01*
Y365033D01*
X112600Y365167D01*
X112800Y365033D01*
Y364767D01*
X112600Y364633D01*
G01X120600Y372900D02*
X119800Y372633D01*
X119200Y371967D01*
X118800Y371167D01*
X118500Y370100D01*
X118400Y368900D01*
X118500Y367700D01*
X118800Y366633D01*
X119200Y365833D01*
X119800Y365167D01*
X120600Y364900D01*
X121400Y365167D01*
X122000Y365833D01*
X122400Y366633D01*
X122700Y367700D01*
X122800Y368900D01*
X122700Y370100D01*
X122400Y371167D01*
X122000Y371967D01*
X121400Y372633D01*
X120600Y372900D01*
G01X143000Y364900D02*
X143200Y366633D01*
X143500Y368100D01*
X143900Y369433D01*
X144400Y370900D01*
X145200Y372900D01*
X141200D01*
G01X151200D02*
X150400Y372633D01*
X149800Y371967D01*
X149400Y371167D01*
X149100Y370100D01*
X149000Y368900D01*
X149100Y367700D01*
X149400Y366633D01*
X149800Y365833D01*
X150400Y365167D01*
X151200Y364900D01*
X152000Y365167D01*
X152600Y365833D01*
X153000Y366633D01*
X153300Y367700D01*
X153400Y368900D01*
X153300Y370100D01*
X153000Y371167D01*
X152600Y371967D01*
X152000Y372633D01*
X151200Y372900D01*
G54D19*
G01X4500Y0D02*
X-36500D01*
G01X33500Y343000D02*
X-36500D01*
G01X-26500Y101400D02*
Y0D01*
G01X-29000Y15000D02*
X-26500Y0D01*
X-24000Y15000D01*
X-29000D01*
G01X-22500Y167600D02*
Y164600D01*
X-30500D01*
Y167600D01*
G01X-26500Y212600D02*
Y343000D01*
G01X-22500Y203600D02*
Y206600D01*
X-30500D01*
Y203600D01*
G01X10107Y324864D02*
X-13500Y236000D01*
G01X12500Y237500D02*
X-13500Y236000D01*
G01X19000Y53500D02*
X-13500Y234500D01*
G01X-24000Y328000D02*
X-26500Y343000D01*
X-29000Y328000D01*
X-24000D01*
G01X275600Y339000D02*
Y260600D01*
G02X271600Y256600I-4000J0D01*
G01X230600D01*
G03X229100Y255100I0J-1500D01*
G01Y254163D01*
G03X230600Y252663I1500J0D01*
G01X271600D01*
G02X275600Y248663I0J-4000D01*
G01Y4000D01*
G02X271600Y0I-4000J0D01*
G01X4000D01*
G02X0Y4000I0J4000D01*
G01Y248663D01*
G02X4000Y252663I4000J0D01*
G01X45000D01*
G03X46500Y254163I0J1500D01*
G01Y255100D01*
G03X45000Y256600I-1500J0D01*
G01X4000D01*
G02X0Y260600I0J4000D01*
G01Y339000D01*
G02X4000Y343000I4000J0D01*
G01X271600D01*
G02X275600Y339000I0J-4000D01*
G01X-2331Y234140D02*
X12500Y237500D01*
X-2619Y239132D01*
X-2331Y234140D01*
G01X0Y303300D02*
Y378900D01*
G01X8672Y309725D02*
X10107Y324864D01*
X3840Y311009D01*
X8672Y309725D01*
G01X18300Y330300D02*
G03I-5900J0D01*
G01D02*
G03I-5900J0D01*
G01D02*
G03I-5900J0D01*
G01X71000Y368900D02*
X0D01*
G01X15000Y371400D02*
X0Y368900D01*
X15000Y366400D01*
Y371400D01*
G01X22700Y52700D02*
G03I-5900J0D01*
G01D02*
G03I-5900J0D01*
G01D02*
G03I-5900J0D01*
G01X13888Y67822D02*
X19000Y53500D01*
X18810Y68706D01*
X13888Y67822D01*
G01X20400Y238000D02*
G03I-5900J0D01*
G01D02*
G03I-5900J0D01*
G01D02*
G03I-5900J0D01*
G01D02*
G03I-5900J0D01*
G01X58500Y254163D02*
Y255100D01*
G02X60000Y256600I1500J0D01*
G01X130300D01*
G02X131800Y255100I0J-1500D01*
G01Y254163D01*
G02X130300Y252663I-1500J0D01*
G01X60000D01*
G02X58500Y254163I0J1500D01*
G01X143800Y255100D02*
Y254163D01*
G03X145300Y252663I1500J0D01*
G01X215600D01*
G03X217100Y254163I0J1500D01*
G01Y255100D01*
G03X215600Y256600I-1500J0D01*
G01X145300D01*
G03X143800Y255100I0J-1500D01*
G01X137200Y364900D02*
X134200D01*
Y372900D01*
X137200D01*
G01X157200Y364900D02*
X160200D01*
Y372900D01*
X157200D01*
G01X166200Y368900D02*
X275600D01*
G01X269100Y13400D02*
G03I-5900J0D01*
G01D02*
G03I-5900J0D01*
G01D02*
G03I-5900J0D01*
G01X266600Y328200D02*
G03I-5900J0D01*
G01D02*
G03I-5900J0D01*
G01D02*
G03I-5900J0D01*
G01X266346Y27938D02*
X263500Y13000D01*
X271037Y26208D01*
X266346Y27938D01*
G01X263500Y13000D02*
X305000Y125500D01*
G01X265329Y324542D02*
X304000Y127500D01*
G01X270671Y310304D02*
X265329Y324542D01*
X265765Y309341D01*
X270671Y310304D01*
G01X275600Y329500D02*
Y378900D01*
G01X260600Y366400D02*
X275600Y368900D01*
X260600Y371400D01*
Y366400D01*
G01X328069Y33160D02*
Y339160D01*
X811669D01*
Y33160D01*
X328069D01*
G01Y61260D02*
X811669D01*
G01X328069Y89360D02*
X811669D01*
G01X328069Y117460D02*
X811669D01*
G01X328069Y145560D02*
X811669D01*
G01X328069Y173660D02*
X811669D01*
G01X328069Y201760D02*
X811669D01*
G01X328069Y229860D02*
X811669D01*
G01X328069Y257960D02*
X811669D01*
G01X339074Y267310D02*
Y279810D01*
X344964D01*
G01X342794Y273768D02*
X339074D01*
G01X352559Y279810D02*
X356279D01*
G01X354419D02*
Y267310D01*
G01X352559D02*
X356279D01*
G01X367749Y273560D02*
X370849D01*
Y269810D01*
X369919Y268560D01*
X368834Y267727D01*
X367284Y267310D01*
X365734Y267727D01*
X364649Y268560D01*
X363719Y269810D01*
X363099Y271268D01*
X362789Y272935D01*
Y274393D01*
X363099Y275643D01*
X363719Y277102D01*
X364649Y278352D01*
X365579Y279185D01*
X366819Y279810D01*
X367904D01*
X369144Y279393D01*
X370074Y278560D01*
G01X375809Y279810D02*
Y270852D01*
X376429Y268976D01*
X377669Y267727D01*
X379219Y267310D01*
X380769Y267727D01*
X382009Y268976D01*
X382629Y270852D01*
Y279810D01*
G01X388519Y267310D02*
Y279810D01*
X392394D01*
X393634Y279185D01*
X394409Y278352D01*
X394719Y276685D01*
X394409Y275018D01*
X393479Y273977D01*
X392394Y273352D01*
X388519D01*
G01X392394D02*
X394719Y267310D01*
G01X407119D02*
X400919D01*
Y279810D01*
X407119D01*
G01X404639Y273768D02*
X400919D01*
G01X328069Y286060D02*
X811669D01*
G01X328069Y314160D02*
X811669D01*
G01X411459Y320410D02*
Y332910D01*
X414559D01*
X415799Y332285D01*
X416729Y331452D01*
X417504Y330202D01*
X418124Y328743D01*
X418279Y326660D01*
X418124Y324577D01*
X417504Y323118D01*
X416729Y321868D01*
X415799Y321035D01*
X414559Y320410D01*
X411459D01*
G01X424169D02*
Y332910D01*
X428044D01*
X429284Y332285D01*
X430059Y331452D01*
X430369Y329785D01*
X430059Y328118D01*
X429129Y327077D01*
X428044Y326452D01*
X424169D01*
G01X428044D02*
X430369Y320410D01*
G01X437809Y332910D02*
X441529D01*
G01X439669D02*
Y320410D01*
G01X437809D02*
X441529D01*
G01X448969Y332910D02*
Y320410D01*
X455169D01*
G01X461369Y332910D02*
Y320410D01*
X467569D01*
G01X492679Y331868D02*
X491749Y332493D01*
X490664Y332910D01*
X489424D01*
X488029Y332285D01*
X486944Y331243D01*
X486169Y329993D01*
X485549Y327910D01*
X485394Y326035D01*
X485704Y324160D01*
X486169Y322910D01*
X487099Y321660D01*
X488184Y320827D01*
X489269Y320410D01*
X490354D01*
X491439Y320827D01*
X492369Y321451D01*
X493144Y322285D01*
G01X498414Y320410D02*
Y332910D01*
G01X504924D02*
Y320410D01*
G01Y326660D02*
X498414D01*
G01X510194Y320410D02*
X514069Y332910D01*
X517944Y320410D01*
G01X516549Y324785D02*
X511589D01*
G01X523369Y320410D02*
Y332910D01*
X527244D01*
X528484Y332285D01*
X529259Y331452D01*
X529569Y329785D01*
X529259Y328118D01*
X528329Y327077D01*
X527244Y326452D01*
X523369D01*
G01X527244D02*
X529569Y320410D01*
G01X538869Y332910D02*
Y320410D01*
G01X535304Y332910D02*
X542434D01*
G01X551269Y319993D02*
X550959Y320202D01*
Y320618D01*
X551269Y320827D01*
X551579Y320618D01*
Y320202D01*
X551269Y319993D01*
G01Y325618D02*
X550959Y325827D01*
Y326243D01*
X551269Y326452D01*
X551579Y326243D01*
Y325827D01*
X551269Y325618D01*
G01X576069Y332910D02*
Y320410D01*
G01X572504Y332910D02*
X579634D01*
G01X588469Y320410D02*
X587229Y320618D01*
X586144Y321451D01*
X585214Y322702D01*
X584594Y324160D01*
X584284Y325827D01*
Y327493D01*
X584594Y329160D01*
X585214Y330618D01*
X586144Y331868D01*
X587229Y332702D01*
X588469Y332910D01*
X589709Y332702D01*
X590794Y331868D01*
X591724Y330618D01*
X592344Y329160D01*
X592654Y327493D01*
Y325827D01*
X592344Y324160D01*
X591724Y322702D01*
X590794Y321451D01*
X589709Y320618D01*
X588469Y320410D01*
G01X597769D02*
Y332910D01*
X601489D01*
X602729Y332285D01*
X603659Y330827D01*
X603969Y329160D01*
X603659Y327493D01*
X602884Y326243D01*
X601489Y325618D01*
X597769D01*
G01X625669Y332910D02*
Y320410D01*
G01X623499Y328743D02*
X627839D01*
G01X638069Y320410D02*
X637139Y320618D01*
X636209Y321451D01*
X635589Y322910D01*
X635279Y324577D01*
X635589Y326243D01*
X636209Y327702D01*
X637139Y328535D01*
X638069Y328743D01*
X638999Y328535D01*
X639929Y327702D01*
X640549Y326243D01*
X640704Y324577D01*
X640549Y322910D01*
X639929Y321451D01*
X638999Y320618D01*
X638069Y320410D01*
G01X664109Y327077D02*
X664729Y327702D01*
X665194Y328743D01*
X665504Y330202D01*
X665194Y331452D01*
X664574Y332285D01*
X663489Y332910D01*
X659304D01*
Y320410D01*
X664419D01*
X665504Y321243D01*
X666124Y322493D01*
X666434Y323952D01*
X666124Y325410D01*
X665194Y326660D01*
X664109Y327077D01*
X659304D01*
G01X675269Y320410D02*
X674029Y320618D01*
X672944Y321451D01*
X672014Y322702D01*
X671394Y324160D01*
X671084Y325827D01*
Y327493D01*
X671394Y329160D01*
X672014Y330618D01*
X672944Y331868D01*
X674029Y332702D01*
X675269Y332910D01*
X676509Y332702D01*
X677594Y331868D01*
X678524Y330618D01*
X679144Y329160D01*
X679454Y327493D01*
Y325827D01*
X679144Y324160D01*
X678524Y322702D01*
X677594Y321451D01*
X676509Y320618D01*
X675269Y320410D01*
G01X687669Y332910D02*
Y320410D01*
G01X684104Y332910D02*
X691234D01*
G01X700069D02*
Y320410D01*
G01X696504Y332910D02*
X703634D01*
G01X712469Y320410D02*
X711229Y320618D01*
X710144Y321451D01*
X709214Y322702D01*
X708594Y324160D01*
X708284Y325827D01*
Y327493D01*
X708594Y329160D01*
X709214Y330618D01*
X710144Y331868D01*
X711229Y332702D01*
X712469Y332910D01*
X713709Y332702D01*
X714794Y331868D01*
X715724Y330618D01*
X716344Y329160D01*
X716654Y327493D01*
Y325827D01*
X716344Y324160D01*
X715724Y322702D01*
X714794Y321451D01*
X713709Y320618D01*
X712469Y320410D01*
G01X720839D02*
Y332910D01*
X724869Y322493D01*
X728899Y332910D01*
Y320410D01*
G01X417969Y286060D02*
Y33160D01*
G01X447109Y42835D02*
X448039Y41793D01*
X449124Y41168D01*
X450519Y40960D01*
X451914Y41377D01*
X452999Y42210D01*
X453774Y43668D01*
X453929Y45335D01*
X453619Y47002D01*
X452844Y48043D01*
X451759Y48877D01*
X450674Y49085D01*
X449589Y48877D01*
X448194Y48043D01*
X448659Y53460D01*
X452844D01*
G01X460284Y42418D02*
X461369Y41377D01*
X462609Y40960D01*
X463849Y41377D01*
X464934Y42626D01*
X465709Y44502D01*
X466019Y46377D01*
Y48668D01*
X465709Y50543D01*
X464934Y52210D01*
X464004Y53043D01*
X462919Y53460D01*
X461679Y53043D01*
X460749Y52210D01*
X460129Y50960D01*
X459819Y49293D01*
X460129Y47835D01*
X460904Y46377D01*
X461834Y45543D01*
X462919Y45335D01*
X464159Y45751D01*
X465089Y46793D01*
X466019Y48668D01*
G01X475319Y40543D02*
X475009Y40752D01*
Y41168D01*
X475319Y41377D01*
X475629Y41168D01*
Y40752D01*
X475319Y40543D01*
G01X487719Y53460D02*
X486479Y53043D01*
X485549Y52002D01*
X484929Y50752D01*
X484464Y49085D01*
X484309Y47210D01*
X484464Y45335D01*
X484929Y43668D01*
X485549Y42418D01*
X486479Y41377D01*
X487719Y40960D01*
X488959Y41377D01*
X489889Y42418D01*
X490509Y43668D01*
X490974Y45335D01*
X491129Y47210D01*
X490974Y49085D01*
X490509Y50752D01*
X489889Y52002D01*
X488959Y53043D01*
X487719Y53460D01*
G01X497174Y46168D02*
X498259Y47627D01*
X499189Y48460D01*
X500429Y48877D01*
X501514Y48460D01*
X502289Y47627D01*
X502909Y46377D01*
X503064Y44918D01*
X502909Y43668D01*
X502289Y42418D01*
X501359Y41377D01*
X500274Y40960D01*
X499034Y41377D01*
X497949Y42626D01*
X497329Y44502D01*
X497174Y46585D01*
X497484Y49293D01*
X497949Y50752D01*
X498724Y52210D01*
X499809Y53252D01*
X500894Y53460D01*
X501979Y53043D01*
X502754Y52002D01*
G01X510194Y49293D02*
X514844Y40960D01*
G01Y49293D02*
X510194Y40960D01*
G01X521509Y43460D02*
X522439Y42001D01*
X523679Y41168D01*
X525074Y40960D01*
X526314Y41168D01*
X527554Y42210D01*
X528329Y43460D01*
X528484Y44710D01*
X528174Y46168D01*
X527089Y47210D01*
X526004Y47627D01*
X524609D01*
G01X526004D02*
X526934Y48252D01*
X527709Y49293D01*
X528019Y50543D01*
X527709Y51793D01*
X526934Y52835D01*
X525539Y53460D01*
X524144Y53252D01*
X522749Y52418D01*
G01X534374Y51377D02*
X535304Y52626D01*
X536389Y53252D01*
X537629Y53460D01*
X539179Y53043D01*
X540264Y52002D01*
X540574Y50752D01*
X540419Y49501D01*
X539799Y48460D01*
X536699Y46377D01*
X535304Y44918D01*
X534374Y42835D01*
X534064Y40960D01*
X540574D01*
G01X549719Y40543D02*
X549409Y40752D01*
Y41168D01*
X549719Y41377D01*
X550029Y41168D01*
Y40752D01*
X549719Y40543D01*
G01X559174Y46168D02*
X560259Y47627D01*
X561189Y48460D01*
X562429Y48877D01*
X563514Y48460D01*
X564289Y47627D01*
X564909Y46377D01*
X565064Y44918D01*
X564909Y43668D01*
X564289Y42418D01*
X563359Y41377D01*
X562274Y40960D01*
X561034Y41377D01*
X559949Y42626D01*
X559329Y44502D01*
X559174Y46585D01*
X559484Y49293D01*
X559949Y50752D01*
X560724Y52210D01*
X561809Y53252D01*
X562894Y53460D01*
X563979Y53043D01*
X564754Y52002D01*
G01X574519Y40960D02*
X575604Y41168D01*
X576844Y41793D01*
X577619Y42835D01*
X577929Y44293D01*
X577619Y45751D01*
X576689Y47002D01*
X575294Y47627D01*
X573744D01*
X572814Y48043D01*
X572039Y49085D01*
X571729Y50543D01*
X572194Y52002D01*
X573279Y53043D01*
X574519Y53460D01*
X575759Y53043D01*
X576844Y52002D01*
X577309Y50543D01*
X576999Y49085D01*
X576224Y48043D01*
X575294Y47627D01*
X573744D01*
X572349Y47002D01*
X571419Y45751D01*
X571109Y44293D01*
X571419Y42835D01*
X572194Y41793D01*
X573434Y41168D01*
X574519Y40960D01*
G01X447109Y71560D02*
X448039Y70101D01*
X449279Y69268D01*
X450674Y69060D01*
X451914Y69268D01*
X453154Y70310D01*
X453929Y71560D01*
X454084Y72810D01*
X453774Y74268D01*
X452689Y75310D01*
X451604Y75727D01*
X450209D01*
G01X451604D02*
X452534Y76352D01*
X453309Y77393D01*
X453619Y78643D01*
X453309Y79893D01*
X452534Y80935D01*
X451139Y81560D01*
X449744Y81352D01*
X448349Y80518D01*
G01X459509Y71560D02*
X460439Y70101D01*
X461679Y69268D01*
X463074Y69060D01*
X464314Y69268D01*
X465554Y70310D01*
X466329Y71560D01*
X466484Y72810D01*
X466174Y74268D01*
X465089Y75310D01*
X464004Y75727D01*
X462609D01*
G01X464004D02*
X464934Y76352D01*
X465709Y77393D01*
X466019Y78643D01*
X465709Y79893D01*
X464934Y80935D01*
X463539Y81560D01*
X462144Y81352D01*
X460749Y80518D01*
G01X475319Y68643D02*
X475009Y68852D01*
Y69268D01*
X475319Y69477D01*
X475629Y69268D01*
Y68852D01*
X475319Y68643D01*
G01X489579Y69060D02*
Y81560D01*
X483844Y72602D01*
X491594D01*
G01X497174Y74268D02*
X498259Y75727D01*
X499189Y76560D01*
X500429Y76977D01*
X501514Y76560D01*
X502289Y75727D01*
X502909Y74477D01*
X503064Y73018D01*
X502909Y71768D01*
X502289Y70518D01*
X501359Y69477D01*
X500274Y69060D01*
X499034Y69477D01*
X497949Y70726D01*
X497329Y72602D01*
X497174Y74685D01*
X497484Y77393D01*
X497949Y78852D01*
X498724Y80310D01*
X499809Y81352D01*
X500894Y81560D01*
X501979Y81143D01*
X502754Y80102D01*
G01X510194Y77393D02*
X514844Y69060D01*
G01Y77393D02*
X510194Y69060D01*
G01X521974Y79477D02*
X522904Y80726D01*
X523989Y81352D01*
X525229Y81560D01*
X526779Y81143D01*
X527864Y80102D01*
X528174Y78852D01*
X528019Y77601D01*
X527399Y76560D01*
X524299Y74477D01*
X522904Y73018D01*
X521974Y70935D01*
X521664Y69060D01*
X528174D01*
G01X533909Y70935D02*
X534839Y69893D01*
X535924Y69268D01*
X537319Y69060D01*
X538714Y69477D01*
X539799Y70310D01*
X540574Y71768D01*
X540729Y73435D01*
X540419Y75102D01*
X539644Y76143D01*
X538559Y76977D01*
X537474Y77185D01*
X536389Y76977D01*
X534994Y76143D01*
X535459Y81560D01*
X539644D01*
G01X549719Y68643D02*
X549409Y68852D01*
Y69268D01*
X549719Y69477D01*
X550029Y69268D01*
Y68852D01*
X549719Y68643D01*
G01X558709Y70935D02*
X559639Y69893D01*
X560724Y69268D01*
X562119Y69060D01*
X563514Y69477D01*
X564599Y70310D01*
X565374Y71768D01*
X565529Y73435D01*
X565219Y75102D01*
X564444Y76143D01*
X563359Y76977D01*
X562274Y77185D01*
X561189Y76977D01*
X559794Y76143D01*
X560259Y81560D01*
X564444D01*
G01X571884Y70518D02*
X572969Y69477D01*
X574209Y69060D01*
X575449Y69477D01*
X576534Y70726D01*
X577309Y72602D01*
X577619Y74477D01*
Y76768D01*
X577309Y78643D01*
X576534Y80310D01*
X575604Y81143D01*
X574519Y81560D01*
X573279Y81143D01*
X572349Y80310D01*
X571729Y79060D01*
X571419Y77393D01*
X571729Y75935D01*
X572504Y74477D01*
X573434Y73643D01*
X574519Y73435D01*
X575759Y73851D01*
X576689Y74893D01*
X577619Y76768D01*
G01X441994Y295410D02*
X445869Y307910D01*
X449744Y295410D01*
G01X448349Y299785D02*
X443389D01*
G01X455169Y307910D02*
Y295410D01*
X461369D01*
G01X467569Y307910D02*
Y295410D01*
X473769D01*
G01X492059Y307910D02*
Y298952D01*
X492679Y297076D01*
X493919Y295827D01*
X495469Y295410D01*
X497019Y295827D01*
X498259Y297076D01*
X498879Y298952D01*
Y307910D01*
G01X504304Y295410D02*
Y307910D01*
X511434Y295410D01*
Y307910D01*
G01X518409D02*
X522129D01*
G01X520269D02*
Y295410D01*
G01X518409D02*
X522129D01*
G01X532669Y307910D02*
Y295410D01*
G01X529104Y307910D02*
X536234D01*
G01X541814Y297076D02*
X543054Y296035D01*
X544449Y295410D01*
X545689D01*
X546929Y296035D01*
X547859Y297076D01*
X548324Y298535D01*
X548014Y299993D01*
X547239Y301243D01*
X545844Y302077D01*
X543984Y302493D01*
X542899Y303327D01*
X542434Y304785D01*
X542744Y306243D01*
X543519Y307285D01*
X544604Y307910D01*
X545689D01*
X546774Y307493D01*
X547704Y306452D01*
G01X565994Y295410D02*
X569869Y307910D01*
X573744Y295410D01*
G01X572349Y299785D02*
X567389D01*
G01X579169Y295410D02*
Y307910D01*
X583044D01*
X584284Y307285D01*
X585059Y306452D01*
X585369Y304785D01*
X585059Y303118D01*
X584129Y302077D01*
X583044Y301452D01*
X579169D01*
G01X583044D02*
X585369Y295410D01*
G01X597769D02*
X591569D01*
Y307910D01*
X597769D01*
G01X595289Y301868D02*
X591569D01*
G01X617609Y307910D02*
X621329D01*
G01X619469D02*
Y295410D01*
G01X617609D02*
X621329D01*
G01X628304D02*
Y307910D01*
X635434Y295410D01*
Y307910D01*
G01X652639Y295410D02*
Y307910D01*
X656669Y297493D01*
X660699Y307910D01*
Y295410D01*
G01X667209Y307910D02*
X670929D01*
G01X669069D02*
Y295410D01*
G01X667209D02*
X670929D01*
G01X678369Y307910D02*
Y295410D01*
X684569D01*
G01X690614Y297076D02*
X691854Y296035D01*
X693249Y295410D01*
X694489D01*
X695729Y296035D01*
X696659Y297076D01*
X697124Y298535D01*
X696814Y299993D01*
X696039Y301243D01*
X694644Y302077D01*
X692784Y302493D01*
X691699Y303327D01*
X691234Y304785D01*
X691544Y306243D01*
X692319Y307285D01*
X693404Y307910D01*
X694489D01*
X695574Y307493D01*
X696504Y306452D01*
G01X484774Y102368D02*
X485859Y103827D01*
X486789Y104660D01*
X488029Y105077D01*
X489114Y104660D01*
X489889Y103827D01*
X490509Y102577D01*
X490664Y101118D01*
X490509Y99868D01*
X489889Y98618D01*
X488959Y97577D01*
X487874Y97160D01*
X486634Y97577D01*
X485549Y98826D01*
X484929Y100702D01*
X484774Y102785D01*
X485084Y105493D01*
X485549Y106952D01*
X486324Y108410D01*
X487409Y109452D01*
X488494Y109660D01*
X489579Y109243D01*
X490354Y108202D01*
G01X497174Y102368D02*
X498259Y103827D01*
X499189Y104660D01*
X500429Y105077D01*
X501514Y104660D01*
X502289Y103827D01*
X502909Y102577D01*
X503064Y101118D01*
X502909Y99868D01*
X502289Y98618D01*
X501359Y97577D01*
X500274Y97160D01*
X499034Y97577D01*
X497949Y98826D01*
X497329Y100702D01*
X497174Y102785D01*
X497484Y105493D01*
X497949Y106952D01*
X498724Y108410D01*
X499809Y109452D01*
X500894Y109660D01*
X501979Y109243D01*
X502754Y108202D01*
G01X512519Y96743D02*
X512209Y96952D01*
Y97368D01*
X512519Y97577D01*
X512829Y97368D01*
Y96952D01*
X512519Y96743D01*
G01X522284Y98618D02*
X523369Y97577D01*
X524609Y97160D01*
X525849Y97577D01*
X526934Y98826D01*
X527709Y100702D01*
X528019Y102577D01*
Y104868D01*
X527709Y106743D01*
X526934Y108410D01*
X526004Y109243D01*
X524919Y109660D01*
X523679Y109243D01*
X522749Y108410D01*
X522129Y107160D01*
X521819Y105493D01*
X522129Y104035D01*
X522904Y102577D01*
X523834Y101743D01*
X524919Y101535D01*
X526159Y101951D01*
X527089Y102993D01*
X528019Y104868D01*
G01X533909Y99660D02*
X534839Y98201D01*
X536079Y97368D01*
X537474Y97160D01*
X538714Y97368D01*
X539954Y98410D01*
X540729Y99660D01*
X540884Y100910D01*
X540574Y102368D01*
X539489Y103410D01*
X538404Y103827D01*
X537009D01*
G01X538404D02*
X539334Y104452D01*
X540109Y105493D01*
X540419Y106743D01*
X540109Y107993D01*
X539334Y109035D01*
X537939Y109660D01*
X536544Y109452D01*
X535149Y108618D01*
G01X495779Y125260D02*
Y137760D01*
X490044Y128802D01*
X497794D01*
G01X506319Y137760D02*
X505079Y137343D01*
X504149Y136302D01*
X503529Y135052D01*
X503064Y133385D01*
X502909Y131510D01*
X503064Y129635D01*
X503529Y127968D01*
X504149Y126718D01*
X505079Y125677D01*
X506319Y125260D01*
X507559Y125677D01*
X508489Y126718D01*
X509109Y127968D01*
X509574Y129635D01*
X509729Y131510D01*
X509574Y133385D01*
X509109Y135052D01*
X508489Y136302D01*
X507559Y137343D01*
X506319Y137760D01*
G01X518719Y124843D02*
X518409Y125052D01*
Y125468D01*
X518719Y125677D01*
X519029Y125468D01*
Y125052D01*
X518719Y124843D01*
G01X531119Y137760D02*
X529879Y137343D01*
X528949Y136302D01*
X528329Y135052D01*
X527864Y133385D01*
X527709Y131510D01*
X527864Y129635D01*
X528329Y127968D01*
X528949Y126718D01*
X529879Y125677D01*
X531119Y125260D01*
X532359Y125677D01*
X533289Y126718D01*
X533909Y127968D01*
X534374Y129635D01*
X534529Y131510D01*
X534374Y133385D01*
X533909Y135052D01*
X533289Y136302D01*
X532359Y137343D01*
X531119Y137760D01*
G01X484309Y155860D02*
X485239Y154401D01*
X486479Y153568D01*
X487874Y153360D01*
X489114Y153568D01*
X490354Y154610D01*
X491129Y155860D01*
X491284Y157110D01*
X490974Y158568D01*
X489889Y159610D01*
X488804Y160027D01*
X487409D01*
G01X488804D02*
X489734Y160652D01*
X490509Y161693D01*
X490819Y162943D01*
X490509Y164193D01*
X489734Y165235D01*
X488339Y165860D01*
X486944Y165652D01*
X485549Y164818D01*
G01X497484Y154818D02*
X498569Y153777D01*
X499809Y153360D01*
X501049Y153777D01*
X502134Y155026D01*
X502909Y156902D01*
X503219Y158777D01*
Y161068D01*
X502909Y162943D01*
X502134Y164610D01*
X501204Y165443D01*
X500119Y165860D01*
X498879Y165443D01*
X497949Y164610D01*
X497329Y163360D01*
X497019Y161693D01*
X497329Y160235D01*
X498104Y158777D01*
X499034Y157943D01*
X500119Y157735D01*
X501359Y158151D01*
X502289Y159193D01*
X503219Y161068D01*
G01X512519Y152943D02*
X512209Y153152D01*
Y153568D01*
X512519Y153777D01*
X512829Y153568D01*
Y153152D01*
X512519Y152943D01*
G01X521509Y155860D02*
X522439Y154401D01*
X523679Y153568D01*
X525074Y153360D01*
X526314Y153568D01*
X527554Y154610D01*
X528329Y155860D01*
X528484Y157110D01*
X528174Y158568D01*
X527089Y159610D01*
X526004Y160027D01*
X524609D01*
G01X526004D02*
X526934Y160652D01*
X527709Y161693D01*
X528019Y162943D01*
X527709Y164193D01*
X526934Y165235D01*
X525539Y165860D01*
X524144Y165652D01*
X522749Y164818D01*
G01X537009Y153360D02*
X537319Y156068D01*
X537784Y158360D01*
X538404Y160443D01*
X539179Y162735D01*
X540419Y165860D01*
X534219D01*
G01X484309Y183960D02*
X485239Y182501D01*
X486479Y181668D01*
X487874Y181460D01*
X489114Y181668D01*
X490354Y182710D01*
X491129Y183960D01*
X491284Y185210D01*
X490974Y186668D01*
X489889Y187710D01*
X488804Y188127D01*
X487409D01*
G01X488804D02*
X489734Y188752D01*
X490509Y189793D01*
X490819Y191043D01*
X490509Y192293D01*
X489734Y193335D01*
X488339Y193960D01*
X486944Y193752D01*
X485549Y192918D01*
G01X499809Y181460D02*
X500119Y184168D01*
X500584Y186460D01*
X501204Y188543D01*
X501979Y190835D01*
X503219Y193960D01*
X497019D01*
G01X512519Y181043D02*
X512209Y181252D01*
Y181668D01*
X512519Y181877D01*
X512829Y181668D01*
Y181252D01*
X512519Y181043D01*
G01X522284Y182918D02*
X523369Y181877D01*
X524609Y181460D01*
X525849Y181877D01*
X526934Y183126D01*
X527709Y185002D01*
X528019Y186877D01*
Y189168D01*
X527709Y191043D01*
X526934Y192710D01*
X526004Y193543D01*
X524919Y193960D01*
X523679Y193543D01*
X522749Y192710D01*
X522129Y191460D01*
X521819Y189793D01*
X522129Y188335D01*
X522904Y186877D01*
X523834Y186043D01*
X524919Y185835D01*
X526159Y186251D01*
X527089Y187293D01*
X528019Y189168D01*
G01X534684Y182918D02*
X535769Y181877D01*
X537009Y181460D01*
X538249Y181877D01*
X539334Y183126D01*
X540109Y185002D01*
X540419Y186877D01*
Y189168D01*
X540109Y191043D01*
X539334Y192710D01*
X538404Y193543D01*
X537319Y193960D01*
X536079Y193543D01*
X535149Y192710D01*
X534529Y191460D01*
X534219Y189793D01*
X534529Y188335D01*
X535304Y186877D01*
X536234Y186043D01*
X537319Y185835D01*
X538559Y186251D01*
X539489Y187293D01*
X540419Y189168D01*
G01X493919Y209560D02*
Y222060D01*
X492059Y219560D01*
G01Y209560D02*
X495779D01*
G01X506319Y222060D02*
X505079Y221643D01*
X504149Y220602D01*
X503529Y219352D01*
X503064Y217685D01*
X502909Y215810D01*
X503064Y213935D01*
X503529Y212268D01*
X504149Y211018D01*
X505079Y209977D01*
X506319Y209560D01*
X507559Y209977D01*
X508489Y211018D01*
X509109Y212268D01*
X509574Y213935D01*
X509729Y215810D01*
X509574Y217685D01*
X509109Y219352D01*
X508489Y220602D01*
X507559Y221643D01*
X506319Y222060D01*
G01X518719Y209143D02*
X518409Y209352D01*
Y209768D01*
X518719Y209977D01*
X519029Y209768D01*
Y209352D01*
X518719Y209143D01*
G01X531119Y222060D02*
X529879Y221643D01*
X528949Y220602D01*
X528329Y219352D01*
X527864Y217685D01*
X527709Y215810D01*
X527864Y213935D01*
X528329Y212268D01*
X528949Y211018D01*
X529879Y209977D01*
X531119Y209560D01*
X532359Y209977D01*
X533289Y211018D01*
X533909Y212268D01*
X534374Y213935D01*
X534529Y215810D01*
X534374Y217685D01*
X533909Y219352D01*
X533289Y220602D01*
X532359Y221643D01*
X531119Y222060D01*
G01X493919Y237660D02*
Y250160D01*
X492059Y247660D01*
G01Y237660D02*
X495779D01*
G01X506319Y250160D02*
X505079Y249743D01*
X504149Y248702D01*
X503529Y247452D01*
X503064Y245785D01*
X502909Y243910D01*
X503064Y242035D01*
X503529Y240368D01*
X504149Y239118D01*
X505079Y238077D01*
X506319Y237660D01*
X507559Y238077D01*
X508489Y239118D01*
X509109Y240368D01*
X509574Y242035D01*
X509729Y243910D01*
X509574Y245785D01*
X509109Y247452D01*
X508489Y248702D01*
X507559Y249743D01*
X506319Y250160D01*
G01X518719Y237243D02*
X518409Y237452D01*
Y237868D01*
X518719Y238077D01*
X519029Y237868D01*
Y237452D01*
X518719Y237243D01*
G01X531119Y250160D02*
X529879Y249743D01*
X528949Y248702D01*
X528329Y247452D01*
X527864Y245785D01*
X527709Y243910D01*
X527864Y242035D01*
X528329Y240368D01*
X528949Y239118D01*
X529879Y238077D01*
X531119Y237660D01*
X532359Y238077D01*
X533289Y239118D01*
X533909Y240368D01*
X534374Y242035D01*
X534529Y243910D01*
X534374Y245785D01*
X533909Y247452D01*
X533289Y248702D01*
X532359Y249743D01*
X531119Y250160D01*
G01X490664Y268976D02*
X491904Y267935D01*
X493299Y267310D01*
X494539D01*
X495779Y267935D01*
X496709Y268976D01*
X497174Y270435D01*
X496864Y271893D01*
X496089Y273143D01*
X494694Y273977D01*
X492834Y274393D01*
X491749Y275227D01*
X491284Y276685D01*
X491594Y278143D01*
X492369Y279185D01*
X493454Y279810D01*
X494539D01*
X495624Y279393D01*
X496554Y278352D01*
G01X504459Y279810D02*
X508179D01*
G01X506319D02*
Y267310D01*
G01X504459D02*
X508179D01*
G01X515774Y279810D02*
X521664D01*
X515774Y267310D01*
X521664D01*
G01X534219D02*
X528019D01*
Y279810D01*
X534219D01*
G01X531739Y273768D02*
X528019D01*
G01X607069Y286060D02*
Y33160D01*
G01X636519Y40960D02*
Y53460D01*
X640239D01*
X641479Y52835D01*
X642409Y51377D01*
X642719Y49710D01*
X642409Y48043D01*
X641634Y46793D01*
X640239Y46168D01*
X636519D01*
G01X648919Y53460D02*
Y40960D01*
X655119D01*
G01X660544D02*
X664419Y53460D01*
X668294Y40960D01*
G01X666899Y45335D02*
X661939D01*
G01X676819Y53460D02*
Y40960D01*
G01X673254Y53460D02*
X680384D01*
G01X692319Y40960D02*
X686119D01*
Y53460D01*
X692319D01*
G01X689839Y47418D02*
X686119D01*
G01X698209Y40960D02*
Y53460D01*
X701309D01*
X702549Y52835D01*
X703479Y52002D01*
X704254Y50752D01*
X704874Y49293D01*
X705029Y47210D01*
X704874Y45127D01*
X704254Y43668D01*
X703479Y42418D01*
X702549Y41585D01*
X701309Y40960D01*
X698209D01*
G01X636519Y69060D02*
Y81560D01*
X640239D01*
X641479Y80935D01*
X642409Y79477D01*
X642719Y77810D01*
X642409Y76143D01*
X641634Y74893D01*
X640239Y74268D01*
X636519D01*
G01X648919Y81560D02*
Y69060D01*
X655119D01*
G01X660544D02*
X664419Y81560D01*
X668294Y69060D01*
G01X666899Y73435D02*
X661939D01*
G01X676819Y81560D02*
Y69060D01*
G01X673254Y81560D02*
X680384D01*
G01X692319Y69060D02*
X686119D01*
Y81560D01*
X692319D01*
G01X689839Y75518D02*
X686119D01*
G01X698209Y69060D02*
Y81560D01*
X701309D01*
X702549Y80935D01*
X703479Y80102D01*
X704254Y78852D01*
X704874Y77393D01*
X705029Y75310D01*
X704874Y73227D01*
X704254Y71768D01*
X703479Y70518D01*
X702549Y69685D01*
X701309Y69060D01*
X698209D01*
G01X636519Y97160D02*
Y109660D01*
X640239D01*
X641479Y109035D01*
X642409Y107577D01*
X642719Y105910D01*
X642409Y104243D01*
X641634Y102993D01*
X640239Y102368D01*
X636519D01*
G01X648919Y109660D02*
Y97160D01*
X655119D01*
G01X660544D02*
X664419Y109660D01*
X668294Y97160D01*
G01X666899Y101535D02*
X661939D01*
G01X676819Y109660D02*
Y97160D01*
G01X673254Y109660D02*
X680384D01*
G01X692319Y97160D02*
X686119D01*
Y109660D01*
X692319D01*
G01X689839Y103618D02*
X686119D01*
G01X698209Y97160D02*
Y109660D01*
X701309D01*
X702549Y109035D01*
X703479Y108202D01*
X704254Y106952D01*
X704874Y105493D01*
X705029Y103410D01*
X704874Y101327D01*
X704254Y99868D01*
X703479Y98618D01*
X702549Y97785D01*
X701309Y97160D01*
X698209D01*
G01X636519Y125260D02*
Y137760D01*
X640239D01*
X641479Y137135D01*
X642409Y135677D01*
X642719Y134010D01*
X642409Y132343D01*
X641634Y131093D01*
X640239Y130468D01*
X636519D01*
G01X648919Y137760D02*
Y125260D01*
X655119D01*
G01X660544D02*
X664419Y137760D01*
X668294Y125260D01*
G01X666899Y129635D02*
X661939D01*
G01X676819Y137760D02*
Y125260D01*
G01X673254Y137760D02*
X680384D01*
G01X692319Y125260D02*
X686119D01*
Y137760D01*
X692319D01*
G01X689839Y131718D02*
X686119D01*
G01X698209Y125260D02*
Y137760D01*
X701309D01*
X702549Y137135D01*
X703479Y136302D01*
X704254Y135052D01*
X704874Y133593D01*
X705029Y131510D01*
X704874Y129427D01*
X704254Y127968D01*
X703479Y126718D01*
X702549Y125885D01*
X701309Y125260D01*
X698209D01*
G01X636519Y153360D02*
Y165860D01*
X640239D01*
X641479Y165235D01*
X642409Y163777D01*
X642719Y162110D01*
X642409Y160443D01*
X641634Y159193D01*
X640239Y158568D01*
X636519D01*
G01X648919Y165860D02*
Y153360D01*
X655119D01*
G01X660544D02*
X664419Y165860D01*
X668294Y153360D01*
G01X666899Y157735D02*
X661939D01*
G01X676819Y165860D02*
Y153360D01*
G01X673254Y165860D02*
X680384D01*
G01X692319Y153360D02*
X686119D01*
Y165860D01*
X692319D01*
G01X689839Y159818D02*
X686119D01*
G01X698209Y153360D02*
Y165860D01*
X701309D01*
X702549Y165235D01*
X703479Y164402D01*
X704254Y163152D01*
X704874Y161693D01*
X705029Y159610D01*
X704874Y157527D01*
X704254Y156068D01*
X703479Y154818D01*
X702549Y153985D01*
X701309Y153360D01*
X698209D01*
G01X636519Y181460D02*
Y193960D01*
X640239D01*
X641479Y193335D01*
X642409Y191877D01*
X642719Y190210D01*
X642409Y188543D01*
X641634Y187293D01*
X640239Y186668D01*
X636519D01*
G01X648919Y193960D02*
Y181460D01*
X655119D01*
G01X660544D02*
X664419Y193960D01*
X668294Y181460D01*
G01X666899Y185835D02*
X661939D01*
G01X676819Y193960D02*
Y181460D01*
G01X673254Y193960D02*
X680384D01*
G01X692319Y181460D02*
X686119D01*
Y193960D01*
X692319D01*
G01X689839Y187918D02*
X686119D01*
G01X698209Y181460D02*
Y193960D01*
X701309D01*
X702549Y193335D01*
X703479Y192502D01*
X704254Y191252D01*
X704874Y189793D01*
X705029Y187710D01*
X704874Y185627D01*
X704254Y184168D01*
X703479Y182918D01*
X702549Y182085D01*
X701309Y181460D01*
X698209D01*
G01X636519Y209560D02*
Y222060D01*
X640239D01*
X641479Y221435D01*
X642409Y219977D01*
X642719Y218310D01*
X642409Y216643D01*
X641634Y215393D01*
X640239Y214768D01*
X636519D01*
G01X648919Y222060D02*
Y209560D01*
X655119D01*
G01X660544D02*
X664419Y222060D01*
X668294Y209560D01*
G01X666899Y213935D02*
X661939D01*
G01X676819Y222060D02*
Y209560D01*
G01X673254Y222060D02*
X680384D01*
G01X692319Y209560D02*
X686119D01*
Y222060D01*
X692319D01*
G01X689839Y216018D02*
X686119D01*
G01X698209Y209560D02*
Y222060D01*
X701309D01*
X702549Y221435D01*
X703479Y220602D01*
X704254Y219352D01*
X704874Y217893D01*
X705029Y215810D01*
X704874Y213727D01*
X704254Y212268D01*
X703479Y211018D01*
X702549Y210185D01*
X701309Y209560D01*
X698209D01*
G01X636519Y237660D02*
Y250160D01*
X640239D01*
X641479Y249535D01*
X642409Y248077D01*
X642719Y246410D01*
X642409Y244743D01*
X641634Y243493D01*
X640239Y242868D01*
X636519D01*
G01X648919Y250160D02*
Y237660D01*
X655119D01*
G01X660544D02*
X664419Y250160D01*
X668294Y237660D01*
G01X666899Y242035D02*
X661939D01*
G01X676819Y250160D02*
Y237660D01*
G01X673254Y250160D02*
X680384D01*
G01X692319Y237660D02*
X686119D01*
Y250160D01*
X692319D01*
G01X689839Y244118D02*
X686119D01*
G01X698209Y237660D02*
Y250160D01*
X701309D01*
X702549Y249535D01*
X703479Y248702D01*
X704254Y247452D01*
X704874Y245993D01*
X705029Y243910D01*
X704874Y241827D01*
X704254Y240368D01*
X703479Y239118D01*
X702549Y238285D01*
X701309Y237660D01*
X698209D01*
G01X636519Y267310D02*
Y279810D01*
X640239D01*
X641479Y279185D01*
X642409Y277727D01*
X642719Y276060D01*
X642409Y274393D01*
X641634Y273143D01*
X640239Y272518D01*
X636519D01*
G01X648919Y279810D02*
Y267310D01*
X655119D01*
G01X660544D02*
X664419Y279810D01*
X668294Y267310D01*
G01X666899Y271685D02*
X661939D01*
G01X676819Y279810D02*
Y267310D01*
G01X673254Y279810D02*
X680384D01*
G01X692319Y267310D02*
X686119D01*
Y279810D01*
X692319D01*
G01X689839Y273768D02*
X686119D01*
G01X698209Y267310D02*
Y279810D01*
X701309D01*
X702549Y279185D01*
X703479Y278352D01*
X704254Y277102D01*
X704874Y275643D01*
X705029Y273560D01*
X704874Y271477D01*
X704254Y270018D01*
X703479Y268768D01*
X702549Y267935D01*
X701309Y267310D01*
X698209D01*
G01X734169Y286060D02*
Y33160D01*
G01X763774Y135677D02*
X764704Y136926D01*
X765789Y137552D01*
X767029Y137760D01*
X768579Y137343D01*
X769664Y136302D01*
X769974Y135052D01*
X769819Y133801D01*
X769199Y132760D01*
X766099Y130677D01*
X764704Y129218D01*
X763774Y127135D01*
X763464Y125260D01*
X769974D01*
G01X776174Y130468D02*
X777259Y131927D01*
X778189Y132760D01*
X779429Y133177D01*
X780514Y132760D01*
X781289Y131927D01*
X781909Y130677D01*
X782064Y129218D01*
X781909Y127968D01*
X781289Y126718D01*
X780359Y125677D01*
X779274Y125260D01*
X778034Y125677D01*
X776949Y126926D01*
X776329Y128802D01*
X776174Y130885D01*
X776484Y133593D01*
X776949Y135052D01*
X777724Y136510D01*
X778809Y137552D01*
X779894Y137760D01*
X780979Y137343D01*
X781754Y136302D01*
G01X763309Y155860D02*
X764239Y154401D01*
X765479Y153568D01*
X766874Y153360D01*
X768114Y153568D01*
X769354Y154610D01*
X770129Y155860D01*
X770284Y157110D01*
X769974Y158568D01*
X768889Y159610D01*
X767804Y160027D01*
X766409D01*
G01X767804D02*
X768734Y160652D01*
X769509Y161693D01*
X769819Y162943D01*
X769509Y164193D01*
X768734Y165235D01*
X767339Y165860D01*
X765944Y165652D01*
X764549Y164818D01*
G01X779119Y165860D02*
X777879Y165443D01*
X776949Y164402D01*
X776329Y163152D01*
X775864Y161485D01*
X775709Y159610D01*
X775864Y157735D01*
X776329Y156068D01*
X776949Y154818D01*
X777879Y153777D01*
X779119Y153360D01*
X780359Y153777D01*
X781289Y154818D01*
X781909Y156068D01*
X782374Y157735D01*
X782529Y159610D01*
X782374Y161485D01*
X781909Y163152D01*
X781289Y164402D01*
X780359Y165443D01*
X779119Y165860D01*
G01X768579Y181460D02*
Y193960D01*
X762844Y185002D01*
X770594D01*
G01X780979Y181460D02*
Y193960D01*
X775244Y185002D01*
X782994D01*
G01X757574Y214768D02*
X758659Y216227D01*
X759589Y217060D01*
X760829Y217477D01*
X761914Y217060D01*
X762689Y216227D01*
X763309Y214977D01*
X763464Y213518D01*
X763309Y212268D01*
X762689Y211018D01*
X761759Y209977D01*
X760674Y209560D01*
X759434Y209977D01*
X758349Y211226D01*
X757729Y213102D01*
X757574Y215185D01*
X757884Y217893D01*
X758349Y219352D01*
X759124Y220810D01*
X760209Y221852D01*
X761294Y222060D01*
X762379Y221643D01*
X763154Y220602D01*
G01X772919Y209560D02*
X774004Y209768D01*
X775244Y210393D01*
X776019Y211435D01*
X776329Y212893D01*
X776019Y214351D01*
X775089Y215602D01*
X773694Y216227D01*
X772144D01*
X771214Y216643D01*
X770439Y217685D01*
X770129Y219143D01*
X770594Y220602D01*
X771679Y221643D01*
X772919Y222060D01*
X774159Y221643D01*
X775244Y220602D01*
X775709Y219143D01*
X775399Y217685D01*
X774624Y216643D01*
X773694Y216227D01*
X772144D01*
X770749Y215602D01*
X769819Y214351D01*
X769509Y212893D01*
X769819Y211435D01*
X770594Y210393D01*
X771834Y209768D01*
X772919Y209560D01*
G01X785319D02*
X786404Y209768D01*
X787644Y210393D01*
X788419Y211435D01*
X788729Y212893D01*
X788419Y214351D01*
X787489Y215602D01*
X786094Y216227D01*
X784544D01*
X783614Y216643D01*
X782839Y217685D01*
X782529Y219143D01*
X782994Y220602D01*
X784079Y221643D01*
X785319Y222060D01*
X786559Y221643D01*
X787644Y220602D01*
X788109Y219143D01*
X787799Y217685D01*
X787024Y216643D01*
X786094Y216227D01*
X784544D01*
X783149Y215602D01*
X782219Y214351D01*
X781909Y212893D01*
X782219Y211435D01*
X782994Y210393D01*
X784234Y209768D01*
X785319Y209560D01*
G01X763774Y248077D02*
X764704Y249326D01*
X765789Y249952D01*
X767029Y250160D01*
X768579Y249743D01*
X769664Y248702D01*
X769974Y247452D01*
X769819Y246201D01*
X769199Y245160D01*
X766099Y243077D01*
X764704Y241618D01*
X763774Y239535D01*
X763464Y237660D01*
X769974D01*
G01X780979D02*
Y250160D01*
X775244Y241202D01*
X782994D01*
G01X760519Y267310D02*
X759279Y267518D01*
X758194Y268351D01*
X757264Y269602D01*
X756644Y271060D01*
X756334Y272727D01*
Y274393D01*
X756644Y276060D01*
X757264Y277518D01*
X758194Y278768D01*
X759279Y279602D01*
X760519Y279810D01*
X761759Y279602D01*
X762844Y278768D01*
X763774Y277518D01*
X764394Y276060D01*
X764704Y274393D01*
Y272727D01*
X764394Y271060D01*
X763774Y269602D01*
X762844Y268351D01*
X761759Y267518D01*
X760519Y267310D01*
G01X761759Y270643D02*
X763619Y267310D01*
G01X772919Y279810D02*
Y267310D01*
G01X769354Y279810D02*
X776484D01*
G01X785319Y267310D02*
Y272935D01*
X782219Y279810D01*
G01X788419D02*
X785319Y272935D01*
G01X769974Y51377D02*
X770904Y52626D01*
X771989Y53252D01*
X773229Y53460D01*
X774779Y53043D01*
X775864Y52002D01*
X776174Y50752D01*
X776019Y49501D01*
X775399Y48460D01*
X772299Y46377D01*
X770904Y44918D01*
X769974Y42835D01*
X769664Y40960D01*
X776174D01*
G01X769974Y79477D02*
X770904Y80726D01*
X771989Y81352D01*
X773229Y81560D01*
X774779Y81143D01*
X775864Y80102D01*
X776174Y78852D01*
X776019Y77601D01*
X775399Y76560D01*
X772299Y74477D01*
X770904Y73018D01*
X769974Y70935D01*
X769664Y69060D01*
X776174D01*
G01X769974Y107577D02*
X770904Y108826D01*
X771989Y109452D01*
X773229Y109660D01*
X774779Y109243D01*
X775864Y108202D01*
X776174Y106952D01*
X776019Y105701D01*
X775399Y104660D01*
X772299Y102577D01*
X770904Y101118D01*
X769974Y99035D01*
X769664Y97160D01*
X776174D01*
M02*
