G04 ================== begin FILE IDENTIFICATION RECORD ==================*
G04 Layout Name:  XR871_EVB_MAIN_BRD_V1_1-20170606.brd*
G04 Film Name:    SOLDER_TOP*
G04 File Format:  Gerber RS274X*
G04 File Origin:  Cadence Allegro 16.6-S012*
G04 Origin Date:  Tue Jun 06 20:24:42 2017*
G04 *
G04 Layer:  VIA CLASS/SOLDERMASK_TOP*
G04 Layer:  PIN/SOLDERMASK_TOP*
G04 Layer:  PACKAGE GEOMETRY/SOLDERMASK_TOP*
G04 Layer:  BOARD GEOMETRY/OUTLINE*
G04 Layer:  BOARD GEOMETRY/SOLDERMASK_TOP*
G04 *
G04 Offset:    (0.00 0.00)*
G04 Mirror:    No*
G04 Mode:      Positive*
G04 Rotation:  0*
G04 FullContactRelief:  No*
G04 UndefLineWidth:     6.00*
G04 ================== end FILE IDENTIFICATION RECORD ====================*
%FSLAX25Y25*MOIN*%
%IR0*IPPOS*OFA0.00000B0.00000*MIA0B0*SFA1.00000B1.00000*%
%AMMACRO22*
4,1,44,.03091,-.02303,
.03091,.02303,
.03085,.023714,
.030673,.024377,
.030383,.025,
.029989,.025562,
.029504,.026048,
.028941,.026442,
.028319,.026732,
.027656,.02691,
.026972,.02697,
.02697,.02697,
-.02697,.02697,
-.027654,.02691,
-.028317,.026733,
-.02894,.026443,
-.029502,.026049,
-.029988,.025564,
-.030382,.025001,
-.030672,.024379,
-.03085,.023716,
-.03091,.023032,
-.03091,.02303,
-.03091,-.02303,
-.03085,-.023714,
-.030673,-.024377,
-.030383,-.025,
-.029989,-.025562,
-.029504,-.026048,
-.028941,-.026442,
-.028319,-.026732,
-.027656,-.02691,
-.026972,-.02697,
-.02697,-.02697,
.02697,-.02697,
.027654,-.02691,
.028317,-.026733,
.02894,-.026443,
.029502,-.026049,
.029988,-.025564,
.030382,-.025001,
.030672,-.024379,
.03085,-.023716,
.03091,-.023032,
.03091,-.02303,
0.0*
%
%ADD22MACRO22*%
%ADD38R,.11X.07*%
%ADD44R,.07X.11*%
%ADD46C,.04*%
%ADD11C,.07*%
%ADD15C,.08*%
%ADD26C,.027*%
%ADD13C,.065*%
%ADD14C,.066*%
%ADD21C,.05118*%
%AMMACRO16*
21,1,.02598,.02205,0.0,0.0,135.*%
%ADD16MACRO16*%
%ADD12R,.066X.066*%
%ADD20R,.12205X.06299*%
%ADD52C,.06299*%
%ADD10C,.09449*%
%ADD53R,.06299X.06299*%
%AMMACRO51*
4,1,44,.02303,.03091,
-.02303,.03091,
-.023714,.03085,
-.024377,.030673,
-.025,.030383,
-.025562,.029989,
-.026048,.029504,
-.026442,.028941,
-.026732,.028319,
-.02691,.027656,
-.02697,.026972,
-.02697,.02697,
-.02697,-.02697,
-.02691,-.027654,
-.026733,-.028317,
-.026443,-.02894,
-.026049,-.029502,
-.025564,-.029988,
-.025001,-.030382,
-.024379,-.030672,
-.023716,-.03085,
-.023032,-.03091,
-.02303,-.03091,
.02303,-.03091,
.023714,-.03085,
.024377,-.030673,
.025,-.030383,
.025562,-.029989,
.026048,-.029504,
.026442,-.028941,
.026732,-.028319,
.02691,-.027656,
.02697,-.026972,
.02697,-.02697,
.02697,.02697,
.02691,.027654,
.026733,.028317,
.026443,.02894,
.026049,.029502,
.025564,.029988,
.025001,.030382,
.024379,.030672,
.023716,.03085,
.023032,.03091,
.02303,.03091,
0.0*
%
%ADD51MACRO51*%
%AMMACRO33*
4,1,40,.01476,.02854,
-.01476,.02854,
-.015443,.028481,
-.016106,.028304,
-.016728,.028015,
-.017291,.027622,
-.017776,.027137,
-.018171,.026576,
-.018461,.025955,
-.018639,.025292,
-.0187,.02461,
-.0187,-.02461,
-.018639,-.025293,
-.018461,-.025956,
-.01817,-.026577,
-.017776,-.027138,
-.01729,-.027623,
-.016727,-.028016,
-.016105,-.028305,
-.015442,-.028481,
-.01476,-.02854,
.01476,-.02854,
.015443,-.028481,
.016106,-.028304,
.016728,-.028015,
.017291,-.027622,
.017776,-.027137,
.018171,-.026576,
.018461,-.025955,
.018639,-.025292,
.0187,-.02461,
.0187,.02461,
.018639,.025293,
.018461,.025956,
.01817,.026577,
.017776,.027138,
.01729,.027623,
.016727,.028016,
.016105,.028305,
.015442,.028481,
.01476,.02854,
0.0*
%
%ADD33MACRO33*%
%AMMACRO28*
4,1,44,-.03091,.02303,
-.03091,-.02303,
-.03085,-.023714,
-.030673,-.024377,
-.030383,-.025,
-.029989,-.025562,
-.029504,-.026048,
-.028941,-.026442,
-.028319,-.026732,
-.027656,-.02691,
-.026972,-.02697,
-.02697,-.02697,
.02697,-.02697,
.027654,-.02691,
.028317,-.026733,
.02894,-.026443,
.029502,-.026049,
.029988,-.025564,
.030382,-.025001,
.030672,-.024379,
.03085,-.023716,
.03091,-.023032,
.03091,-.02303,
.03091,.02303,
.03085,.023714,
.030673,.024377,
.030383,.025,
.029989,.025562,
.029504,.026048,
.028941,.026442,
.028319,.026732,
.027656,.02691,
.026972,.02697,
.02697,.02697,
-.02697,.02697,
-.027654,.02691,
-.028317,.026733,
-.02894,.026443,
-.029502,.026049,
-.029988,.025564,
-.030382,.025001,
-.030672,.024379,
-.03085,.023716,
-.03091,.023032,
-.03091,.02303,
0.0*
%
%ADD28MACRO28*%
%AMMACRO19*
4,1,40,-.02854,.01476,
-.02854,-.01476,
-.028481,-.015443,
-.028304,-.016106,
-.028015,-.016728,
-.027622,-.017291,
-.027137,-.017776,
-.026576,-.018171,
-.025955,-.018461,
-.025292,-.018639,
-.02461,-.0187,
.02461,-.0187,
.025293,-.018639,
.025956,-.018461,
.026577,-.01817,
.027138,-.017776,
.027623,-.01729,
.028016,-.016727,
.028305,-.016105,
.028481,-.015442,
.02854,-.01476,
.02854,.01476,
.028481,.015443,
.028304,.016106,
.028015,.016728,
.027622,.017291,
.027137,.017776,
.026576,.018171,
.025955,.018461,
.025292,.018639,
.02461,.0187,
-.02461,.0187,
-.025293,.018639,
-.025956,.018461,
-.026577,.01817,
-.027138,.017776,
-.027623,.01729,
-.028016,.016727,
-.028305,.016105,
-.028481,.015442,
-.02854,.01476,
0.0*
%
%ADD19MACRO19*%
%ADD31O,.034X.012*%
%ADD29O,.012X.034*%
%ADD24O,.015X.04*%
%ADD18O,.04X.015*%
%ADD48O,.08X.022*%
%ADD43R,.094X.05*%
%ADD45R,.077X.046*%
%ADD36R,.04134X.05512*%
%ADD34O,.05512X.02953*%
%ADD40O,.04528X.05315*%
%ADD32R,.187X.187*%
%ADD30R,.02205X.02598*%
%AMMACRO17*
21,1,.02598,.02205,0.0,0.0,45.*%
%ADD17MACRO17*%
%ADD23R,.02598X.02205*%
%ADD42R,.0866X.0591*%
%ADD47R,.0374X.03937*%
%ADD37R,.03937X.0374*%
%ADD35R,.03543X.03937*%
%ADD27R,.03937X.03543*%
%ADD50R,.05906X.01378*%
%ADD49R,.01378X.05906*%
%ADD25R,.13976X.13976*%
%ADD41R,.08268X.09055*%
%ADD39O,.01969X.07087*%
%ADD54C,.006*%
G75*
%LPD*%
G75*
G54D10*
X9000Y196500D03*
X9005Y218206D03*
G54D20*
X81300Y4179D03*
G54D11*
X23700Y127600D03*
Y117600D03*
X13700D03*
Y127600D03*
X23700Y147600D03*
Y137600D03*
X13700D03*
Y147600D03*
X23700Y157600D03*
G54D30*
X95500Y59205D03*
Y54795D03*
X100500D03*
Y59205D03*
X90000D03*
Y54795D03*
X101000Y220705D03*
Y216295D03*
X105000Y220705D03*
Y216295D03*
X98000Y313205D03*
Y308795D03*
X123000Y46295D03*
X115000D03*
X119000D03*
X123000Y50705D03*
X115000D03*
X119000D03*
X118000Y206295D03*
Y210705D03*
X109000Y216295D03*
Y220705D03*
X116500Y305295D03*
Y309705D03*
X127000Y46295D03*
Y50705D03*
X131451Y82295D03*
Y86705D03*
X127451Y86795D03*
X131451Y95705D03*
Y91295D03*
X127451Y91205D03*
X157500Y220705D03*
Y216295D03*
X153500Y220705D03*
Y216295D03*
X149500D03*
Y220705D03*
X166500Y207295D03*
Y211705D03*
X179500Y315795D03*
Y320205D03*
X197500Y279795D03*
Y284205D03*
Y288295D03*
Y292705D03*
X184500Y315795D03*
Y320205D03*
G54D12*
X13700Y157600D03*
X31100Y283300D03*
X14700Y289500D03*
X34000Y243000D03*
X52500Y243500D03*
X196100Y10200D03*
X196400Y39200D03*
X248200Y289500D03*
G54D21*
X81300Y15006D03*
G54D40*
X116953Y322724D03*
X136047D03*
G54D31*
X94164Y85399D03*
Y83824D03*
Y82250D03*
Y80675D03*
Y79100D03*
Y77525D03*
Y75950D03*
Y74376D03*
Y72801D03*
Y71226D03*
Y69651D03*
Y88549D03*
Y86974D03*
X117636Y69651D03*
Y71226D03*
Y72801D03*
Y74376D03*
Y75950D03*
Y77525D03*
Y79100D03*
Y80675D03*
Y82250D03*
Y83824D03*
Y85399D03*
Y86974D03*
Y88549D03*
G54D13*
X14700Y269500D03*
Y279500D03*
X42500Y68500D03*
Y88500D03*
Y78500D03*
Y98500D03*
Y108500D03*
Y118500D03*
Y138500D03*
Y148500D03*
Y158500D03*
Y178500D03*
Y168500D03*
Y188500D03*
Y198500D03*
Y208500D03*
X34000Y223000D03*
Y233000D03*
X52500Y223500D03*
Y233500D03*
X232500Y68500D03*
Y88500D03*
Y78500D03*
Y98500D03*
Y108500D03*
Y128500D03*
Y118500D03*
Y138500D03*
Y164500D03*
Y154500D03*
Y174500D03*
Y184500D03*
Y194500D03*
Y204500D03*
Y214500D03*
Y224500D03*
Y234500D03*
Y244500D03*
X248200Y269500D03*
Y279500D03*
X261200Y268950D03*
Y278950D03*
Y298950D03*
Y288950D03*
G54D22*
X73216Y267201D03*
X82784Y274799D03*
Y267201D03*
X73216Y274799D03*
G54D41*
X112327Y334535D03*
X140673D03*
G54D50*
X155571Y277673D03*
Y279642D03*
Y281610D03*
Y283579D03*
Y285547D03*
Y287516D03*
Y289484D03*
Y291453D03*
Y293421D03*
Y295390D03*
Y297358D03*
Y299327D03*
X189429Y279642D03*
Y277673D03*
Y299327D03*
Y297358D03*
Y295390D03*
Y293421D03*
Y291453D03*
Y289484D03*
Y287516D03*
Y285547D03*
Y283579D03*
Y281610D03*
G54D23*
X80295Y283500D03*
X84705D03*
X71295D03*
X75705D03*
X140295Y300500D03*
X144705D03*
X145205Y311500D03*
X140795D03*
G54D32*
X105900Y79100D03*
G54D14*
X31100Y273300D03*
X206100Y10200D03*
X216100D03*
X206400Y39200D03*
X216400D03*
X226100Y10200D03*
X236100D03*
X226400Y39200D03*
X236400D03*
G54D42*
X145500Y15000D03*
X175500D03*
G54D24*
X68710Y295357D03*
X70679D03*
X72647D03*
X74616D03*
X76584D03*
X78553D03*
X80521D03*
X82490D03*
Y315043D03*
X80521D03*
X78553D03*
X76584D03*
X74616D03*
X72647D03*
X70679D03*
X68710D03*
G54D33*
X106358Y196000D03*
X102142Y276000D03*
X94858D03*
X102142Y293500D03*
X94858D03*
X113642Y196000D03*
G54D51*
X212799Y281216D03*
X205201D03*
Y290784D03*
X212799D03*
G54D15*
X33500Y47500D03*
X33000Y318500D03*
X240500Y315500D03*
G54D25*
X75600Y305200D03*
G54D34*
X100594Y227760D03*
Y235240D03*
X110906D03*
Y231500D03*
Y227760D03*
X115594Y271760D03*
Y279240D03*
X125906D03*
Y275500D03*
Y271760D03*
X149094Y227760D03*
Y235240D03*
X159406D03*
Y231500D03*
Y227760D03*
G54D43*
X143177Y41000D03*
Y31000D03*
X177823Y41000D03*
Y31000D03*
G54D52*
X252700Y87200D03*
X262700D03*
X252700Y107200D03*
Y97200D03*
X262700Y107200D03*
Y97200D03*
X252700Y127200D03*
Y117200D03*
X262700Y127200D03*
Y117200D03*
X252700Y147200D03*
Y137200D03*
X262700Y147200D03*
Y137200D03*
X252700Y157200D03*
X262700D03*
X252700Y177200D03*
Y167200D03*
X262700Y177200D03*
Y167200D03*
X252700Y197200D03*
Y187200D03*
X262700Y197200D03*
Y187200D03*
X252700Y217200D03*
Y207200D03*
X262700Y217200D03*
Y207200D03*
Y227200D03*
G54D16*
X56241Y47359D03*
X59359Y44241D03*
X55759Y41041D03*
X52641Y44159D03*
X65641Y56859D03*
X68759Y53741D03*
G54D35*
X95350Y284000D03*
X101650D03*
X95850Y301000D03*
X102150D03*
X138850Y292500D03*
X145150D03*
G54D17*
X49141Y41041D03*
X52259Y44159D03*
X59441Y50441D03*
X62559Y53559D03*
X69941Y60941D03*
X73059Y64059D03*
G54D53*
X252700Y227200D03*
G54D26*
X76000Y305500D03*
X81000D03*
X71000D03*
Y310500D03*
X76000D03*
X81000D03*
X71000Y300500D03*
X76000D03*
X81000D03*
X98000Y77000D03*
Y72000D03*
X103000D03*
Y77000D03*
X98000Y82000D03*
X103000D03*
Y87000D03*
X98000D03*
X107000Y72000D03*
X113000Y77000D03*
X108000D03*
Y82000D03*
X113000D03*
Y87000D03*
X108000D03*
G54D44*
X130200Y70000D03*
X143800D03*
G54D54*
G01X275600Y339000D02*
Y260600D01*
G02X271600Y256600I-4000J0D01*
G01X230600D01*
G03X229100Y255100I0J-1500D01*
G01Y254163D01*
G03X230600Y252663I1500J0D01*
G01X271600D01*
G02X275600Y248663I0J-4000D01*
G01Y4000D01*
G02X271600Y0I-4000J0D01*
G01X4000D01*
G02X0Y4000I0J4000D01*
G01Y248663D01*
G02X4000Y252663I4000J0D01*
G01X45000D01*
G03X46500Y254163I0J1500D01*
G01Y255100D01*
G03X45000Y256600I-1500J0D01*
G01X4000D01*
G02X0Y260600I0J4000D01*
G01Y339000D01*
G02X4000Y343000I4000J0D01*
G01X271600D01*
G02X275600Y339000I0J-4000D01*
G01X18300Y330300D02*
G03I-5900J0D01*
G01D02*
G03I-5900J0D01*
G01D02*
G03I-5900J0D01*
G01X22700Y52700D02*
G03I-5900J0D01*
G01D02*
G03I-5900J0D01*
G01D02*
G03I-5900J0D01*
G01X20400Y238000D02*
G03I-5900J0D01*
G01D02*
G03I-5900J0D01*
G01D02*
G03I-5900J0D01*
G01D02*
G03I-5900J0D01*
G01X58500Y254163D02*
Y255100D01*
G02X60000Y256600I1500J0D01*
G01X130300D01*
G02X131800Y255100I0J-1500D01*
G01Y254163D01*
G02X130300Y252663I-1500J0D01*
G01X60000D01*
G02X58500Y254163I0J1500D01*
G01X143800Y255100D02*
Y254163D01*
G03X145300Y252663I1500J0D01*
G01X215600D01*
G03X217100Y254163I0J1500D01*
G01Y255100D01*
G03X215600Y256600I-1500J0D01*
G01X145300D01*
G03X143800Y255100I0J-1500D01*
G01X269100Y13400D02*
G03I-5900J0D01*
G01D02*
G03I-5900J0D01*
G01D02*
G03I-5900J0D01*
G01X266600Y328200D02*
G03I-5900J0D01*
G01D02*
G03I-5900J0D01*
G01D02*
G03I-5900J0D01*
G54D27*
X74000Y323850D03*
Y330150D03*
X81000Y323850D03*
Y330150D03*
X88500Y323850D03*
Y330150D03*
X124000Y309650D03*
Y303350D03*
X129500Y212150D03*
Y205850D03*
X141000Y272650D03*
Y266350D03*
X130500Y309650D03*
Y303350D03*
X158000Y316350D03*
Y322650D03*
X178500Y212650D03*
Y206350D03*
X201000Y299850D03*
Y306150D03*
G54D36*
X123760Y196000D03*
X131240D03*
G54D45*
X140251Y84279D03*
Y94121D03*
G54D18*
X65757Y298310D03*
Y312090D03*
Y310121D03*
Y308153D03*
Y306184D03*
Y304216D03*
Y302247D03*
Y300279D03*
X85443Y298310D03*
Y300279D03*
Y302247D03*
Y304216D03*
Y306184D03*
Y308153D03*
Y310121D03*
Y312090D03*
G54D37*
X123500Y212150D03*
Y205850D03*
Y297150D03*
Y290850D03*
X134500Y272650D03*
Y266350D03*
X131000Y290850D03*
Y297150D03*
X172000Y212650D03*
Y206350D03*
G54D19*
X66000Y331642D03*
Y324358D03*
X166000Y315858D03*
Y323142D03*
G54D28*
X104784Y47299D03*
X95216Y39701D03*
Y47299D03*
X104784Y39701D03*
G54D46*
X129500Y246000D03*
X183500Y245000D03*
G54D47*
X144150Y306000D03*
X137850D03*
G54D29*
X96451Y67364D03*
X98026D03*
X99601D03*
X101176D03*
X102750D03*
X104325D03*
Y90836D03*
X102750D03*
X101176D03*
X99601D03*
X98026D03*
X96451D03*
X105900Y67364D03*
X107475D03*
X109050D03*
X110624D03*
X112199D03*
X113774D03*
X115349D03*
Y90836D03*
X113774D03*
X112199D03*
X110624D03*
X109050D03*
X107475D03*
X105900D03*
G54D38*
X123500Y221200D03*
Y234800D03*
X172000Y221700D03*
Y235300D03*
G54D39*
X123941Y321100D03*
X121382D03*
X131618D03*
X129059D03*
X126500D03*
G54D48*
X164024Y106000D03*
Y101000D03*
Y96000D03*
Y111000D03*
X189976Y96000D03*
Y101000D03*
Y106000D03*
Y111000D03*
G54D49*
X163642Y271571D03*
X161673D03*
Y305429D03*
X163642D03*
X183327Y271571D03*
X181358D03*
X179390D03*
X177421D03*
X175453D03*
X173484D03*
X171516D03*
X169547D03*
X167579D03*
X165610D03*
Y305429D03*
X167579D03*
X169547D03*
X171516D03*
X173484D03*
X175453D03*
X177421D03*
X179390D03*
X181358D03*
X183327D03*
M02*
