G04 ================== begin FILE IDENTIFICATION RECORD ==================*
G04 Layout Name:  XR871_EVB_MAIN_BRD_V1_1-20170606.brd*
G04 Film Name:    TOP*
G04 File Format:  Gerber RS274X*
G04 File Origin:  Cadence Allegro 16.6-S012*
G04 Origin Date:  Tue Jun 06 20:24:42 2017*
G04 *
G04 Layer:  VIA CLASS/TOP*
G04 Layer:  PIN/TOP*
G04 Layer:  ETCH/TOP*
G04 *
G04 Offset:    (0.00 0.00)*
G04 Mirror:    No*
G04 Mode:      Positive*
G04 Rotation:  0*
G04 FullContactRelief:  No*
G04 UndefLineWidth:     6.00*
G04 ================== end FILE IDENTIFICATION RECORD ====================*
%FSLAX25Y25*MOIN*%
%IR0*IPPOS*OFA0.00000B0.00000*MIA0B0*SFA1.00000B1.00000*%
%ADD37R,.1X.06*%
%ADD43R,.06X.1*%
%ADD30O,.03X.008*%
%ADD28O,.008X.03*%
%ADD14C,.04*%
%ADD10C,.022*%
%ADD12C,.06*%
%ADD21C,.018*%
%ADD13R,.06X.06*%
%ADD20C,.04724*%
%ADD19R,.11811X.05906*%
%AMMACRO15*
21,1,.02598,.02205,0.0,0.0,135.*%
%ADD15MACRO15*%
%ADD11C,.09055*%
%ADD50C,.05906*%
%ADD48R,.05512X.00984*%
%ADD47R,.00984X.05512*%
%ADD51R,.05906X.05906*%
%AMMACRO49*
4,1,40,.02106,.02894,
-.02106,.02894,
-.021744,.02888,
-.022408,.028702,
-.02303,.028412,
-.023593,.028018,
-.024078,.027533,
-.024472,.02697,
-.024762,.026348,
-.02494,.025684,
-.025,.025,
-.025,-.025,
-.02494,-.025684,
-.024762,-.026348,
-.024472,-.02697,
-.024078,-.027533,
-.023593,-.028018,
-.02303,-.028412,
-.022408,-.028702,
-.021744,-.02888,
-.02106,-.02894,
.02106,-.02894,
.021744,-.02888,
.022408,-.028702,
.02303,-.028412,
.023593,-.028018,
.024078,-.027533,
.024472,-.02697,
.024762,-.026348,
.02494,-.025684,
.025,-.025,
.025,.025,
.02494,.025684,
.024762,.026348,
.024472,.02697,
.024078,.027533,
.023593,.028018,
.02303,.028412,
.022408,.028702,
.021744,.02888,
.02106,.02894,
0.0*
%
%ADD49MACRO49*%
%AMMACRO32*
4,1,40,.0128,.02658,
-.0128,.02658,
-.013484,.026519,
-.014146,.02634,
-.014768,.026048,
-.015329,.025654,
-.015814,.025167,
-.016206,.024604,
-.016495,.023981,
-.016672,.023318,
-.01673,.02264,
-.01673,-.02264,
-.016671,-.023324,
-.016493,-.023987,
-.016203,-.024609,
-.01581,-.025172,
-.015325,-.025657,
-.014763,-.026051,
-.014141,-.026342,
-.013478,-.02652,
-.0128,-.02658,
.0128,-.02658,
.013484,-.026519,
.014146,-.02634,
.014768,-.026048,
.015329,-.025654,
.015814,-.025167,
.016206,-.024604,
.016495,-.023981,
.016672,-.023318,
.01673,-.02264,
.01673,.02264,
.016671,.023324,
.016493,.023987,
.016203,.024609,
.01581,.025172,
.015325,.025657,
.014763,.026051,
.014141,.026342,
.013478,.02652,
.0128,.02658,
0.0*
%
%ADD32MACRO32*%
%AMMACRO27*
4,1,40,-.02894,.02106,
-.02894,-.02106,
-.02888,-.021744,
-.028702,-.022408,
-.028412,-.02303,
-.028018,-.023593,
-.027533,-.024078,
-.02697,-.024472,
-.026348,-.024762,
-.025684,-.02494,
-.025,-.025,
.025,-.025,
.025684,-.02494,
.026348,-.024762,
.02697,-.024472,
.027533,-.024078,
.028018,-.023593,
.028412,-.02303,
.028702,-.022408,
.02888,-.021744,
.02894,-.02106,
.02894,.02106,
.02888,.021744,
.028702,.022408,
.028412,.02303,
.028018,.023593,
.027533,.024078,
.02697,.024472,
.026348,.024762,
.025684,.02494,
.025,.025,
-.025,.025,
-.025684,.02494,
-.026348,.024762,
-.02697,.024472,
-.027533,.024078,
-.028018,.023593,
-.028412,.02303,
-.028702,.022408,
-.02888,.021744,
-.02894,.02106,
0.0*
%
%ADD27MACRO27*%
%AMMACRO18*
4,1,40,-.02658,.0128,
-.02658,-.0128,
-.026519,-.013484,
-.02634,-.014146,
-.026048,-.014768,
-.025654,-.015329,
-.025167,-.015814,
-.024604,-.016206,
-.023981,-.016495,
-.023318,-.016672,
-.02264,-.01673,
.02264,-.01673,
.023324,-.016671,
.023987,-.016493,
.024609,-.016203,
.025172,-.01581,
.025657,-.015325,
.026051,-.014763,
.026342,-.014141,
.02652,-.013478,
.02658,-.0128,
.02658,.0128,
.026519,.013484,
.02634,.014146,
.026048,.014768,
.025654,.015329,
.025167,.015814,
.024604,.016206,
.023981,.016495,
.023318,.016672,
.02264,.01673,
-.02264,.01673,
-.023324,.016671,
-.023987,.016493,
-.024609,.016203,
-.025172,.01581,
-.025657,.015325,
-.026051,.014763,
-.026342,.014141,
-.02652,.013478,
-.02658,.0128,
0.0*
%
%ADD18MACRO18*%
%ADD24O,.01X.035*%
%ADD17O,.035X.01*%
%ADD46O,.08X.022*%
%ADD44R,.071X.04*%
%ADD42R,.088X.044*%
%ADD35R,.04134X.05512*%
%ADD39O,.04134X.04921*%
%ADD31R,.181X.181*%
%ADD33O,.04724X.02165*%
%ADD29R,.02205X.02598*%
%AMMACRO16*
21,1,.02598,.02205,0.0,0.0,45.*%
%ADD16MACRO16*%
%ADD23R,.02598X.02205*%
%ADD41R,.0866X.0591*%
%ADD45R,.0374X.03937*%
%ADD25R,.13583X.13583*%
%ADD36R,.03937X.0374*%
%ADD34R,.03543X.03937*%
%ADD26R,.03937X.03543*%
%ADD38O,.01575X.06693*%
%ADD40R,.0748X.08268*%
%AMMACRO22*
4,1,40,.02894,-.02106,
.02894,.02106,
.02888,.021744,
.028702,.022408,
.028412,.02303,
.028018,.023593,
.027533,.024078,
.02697,.024472,
.026348,.024762,
.025684,.02494,
.025,.025,
-.025,.025,
-.025684,.02494,
-.026348,.024762,
-.02697,.024472,
-.027533,.024078,
-.028018,.023593,
-.028412,.02303,
-.028702,.022408,
-.02888,.021744,
-.02894,.02106,
-.02894,-.02106,
-.02888,-.021744,
-.028702,-.022408,
-.028412,-.02303,
-.028018,-.023593,
-.027533,-.024078,
-.02697,-.024472,
-.026348,-.024762,
-.025684,-.02494,
-.025,-.025,
.025,-.025,
.025684,-.02494,
.026348,-.024762,
.02697,-.024472,
.027533,-.024078,
.028018,-.023593,
.028412,-.02303,
.028702,-.022408,
.02888,-.021744,
.02894,-.02106,
0.0*
%
%ADD22MACRO22*%
%ADD52C,.01*%
%ADD53C,.02*%
%ADD54C,.012*%
%ADD55C,.032*%
%ADD56C,.015*%
%ADD57C,.025*%
%ADD58C,.006*%
%ADD59C,.008*%
%ADD60C,.0057*%
%ADD61C,.0067*%
%ADD62O,.06004X.27004*%
%ADD70C,.03204*%
%ADD69C,.08404*%
%ADD65C,.07604*%
%ADD68R,.09882X.1067*%
%ADD73R,.02X.02*%
%ADD71R,.015X.02*%
%ADD72R,.02X.025*%
%ADD63C,.15804*%
%ADD64C,.11458*%
%ADD66R,.08404X.08404*%
%ADD67R,.07604X.07604*%
G75*
%LPD*%
G75*
G36*
G01X57903Y2000D02*
Y22859D01*
X47284D01*
Y23151D01*
X47295Y23182D01*
G03X47384Y23723I-1592J540D01*
G01Y31421D01*
G02X47480Y32871I11081J-5D01*
G02X50418Y39943I14654J-1942D01*
G01X51654Y41180D01*
X51652Y41182D01*
X52380Y41900D01*
X52567Y41858D01*
X52747Y41679D01*
X52770Y41640D01*
X53340Y41080D01*
X53343Y41083D01*
X54507Y39919D01*
G03X54563Y39859I1257J1117D01*
G01X78331Y15812D01*
X78305Y15705D01*
G03X80945Y18060I2994J-700D01*
G01X80848Y18049D01*
X58266Y40896D01*
X58272Y40902D01*
X57252Y41922D01*
X56955Y42223D01*
G03X56881Y42293I-1192J-1186D01*
G01X55736Y43439D01*
X56324Y44018D01*
X59498Y40844D01*
X62756Y44102D01*
X59116Y47742D01*
X60523Y49148D01*
X60607Y49230D01*
G03X60693Y49319I-1165J1212D01*
G01X61954Y50580D01*
X61948Y50586D01*
X62417Y51048D01*
X62420Y51046D01*
X63681Y52307D01*
G03X63788Y52411I-1117J1257D01*
G01X63818Y52444D01*
X65308Y53934D01*
X68898Y50344D01*
X72156Y53602D01*
X68792Y56966D01*
G02X68800Y57539I283J283D01*
G01X69770Y58460D01*
X69802Y58428D01*
X71045Y59670D01*
X71099Y59721D01*
G03X71190Y59815I-1162J1216D01*
G01X71193Y59819D01*
X72454Y61080D01*
X72452Y61082D01*
X72918Y61548D01*
X72920Y61546D01*
X74181Y62807D01*
G03X74248Y62870I-1118J1256D01*
G01X75439Y64061D01*
X76057Y64680D01*
G02X83999Y67970I7943J-7943D01*
G01X87651D01*
G03X89016Y68670I0J1681D01*
G01X91000D01*
Y67500D01*
X87000Y63500D01*
Y33500D01*
X89000Y31500D01*
X116000D01*
X120000Y35500D01*
X132500D01*
X134500Y37500D01*
X149196D01*
X151164Y35532D01*
Y32500D01*
G03X155836I2336J0D01*
G01Y37500D01*
X162500D01*
X167164Y42164D01*
X172968D01*
X173804Y43000D01*
X174500D01*
X197250Y65750D01*
X210250D01*
X212000Y64000D01*
Y53500D01*
X210632Y52132D01*
X203457D01*
G03X200848Y48348I-957J-2132D01*
G01X201737Y47458D01*
X241263D01*
X260036Y66232D01*
Y83247D01*
G02X260635Y83594I400J0D01*
G03X264126Y83297I2065J3606D01*
G02X264664Y82922I138J-375D01*
G01Y67468D01*
X253348Y56152D01*
G03X256652Y52848I1652J-1652D01*
G01X269336Y65532D01*
Y123868D01*
X266432Y126773D01*
X266440Y126866D01*
G03X263034Y123460I-3740J334D01*
G01X263127Y123468D01*
X264664Y121932D01*
Y121478D01*
G02X264126Y121103I-400J0D01*
G03X258620Y116414I-1426J-3903D01*
G02X257944Y116056I-393J-76D01*
G01X256438Y117562D01*
X256430Y117631D01*
G03X256000Y118992I-3730J-430D01*
G01Y125408D01*
G03X256023Y128949I-3300J1792D01*
G01X256000Y128992D01*
Y131000D01*
X259512Y134512D01*
G02X260075Y134515I283J-283D01*
G03X265743Y135000I2625J2685D01*
G01X271000D01*
Y211196D01*
X271836Y212032D01*
Y228468D01*
X263468Y236836D01*
X235499D01*
G03X228757Y235165I-2999J-2336D01*
G01X228727Y235000D01*
X191159D01*
X188000Y238159D01*
Y239998D01*
X189329D01*
X191002Y241671D01*
Y247829D01*
X189329Y249502D01*
X181671D01*
X179498Y247329D01*
Y247143D01*
G02X179157Y247002I-200J0D01*
G01X178657Y247502D01*
X152829D01*
X151829Y248502D01*
X144329D01*
X143502Y249329D01*
Y250662D01*
X219102D01*
Y258602D01*
X144898D01*
X144665Y258835D01*
X145502Y259671D01*
Y261500D01*
X158696D01*
X160032Y260164D01*
X249968D01*
X251304Y261500D01*
X252500D01*
X255500Y264500D01*
Y265696D01*
X255836Y266032D01*
Y273336D01*
X257000Y274500D01*
X263500D01*
X264500Y275500D01*
Y277061D01*
X264525Y277106D01*
G03X264500Y280838I-3325J1844D01*
G01Y287062D01*
G03Y290838I-3300J1888D01*
G01Y297062D01*
G03X264525Y300794I-3300J1888D01*
G01X264500Y300839D01*
Y302500D01*
X259000Y308000D01*
X251304D01*
X250968Y308336D01*
X245981D01*
G02X245698Y309019I0J400D01*
G01X248602Y311922D01*
Y319078D01*
X244078Y323602D01*
X236922D01*
X232398Y319078D01*
Y311922D01*
X235302Y309019D01*
G02X235019Y308337I-283J-282D01*
G01X219468D01*
X199468Y328336D01*
X180532D01*
X179696Y327500D01*
X155500D01*
X149000Y321000D01*
X140831D01*
X140829Y321002D01*
X139596D01*
G02X139209Y321503I0J400D01*
G03X139316Y322330I-3162J829D01*
G01Y323118D01*
G03X134046Y325702I-3269J0D01*
G01X133906Y325594D01*
X133500Y326000D01*
X122500D01*
X122000Y325500D01*
Y322401D01*
G03X121604Y321100I1941J-1302D01*
G01Y318909D01*
X115664Y312968D01*
Y312664D01*
X114000Y311000D01*
Y306444D01*
G03X113748Y305295I2500J-1150D01*
G01Y294749D01*
X111000Y292000D01*
X107000D01*
X105500Y293500D01*
Y308500D01*
X104777Y309223D01*
X104768Y309291D01*
G03X102791Y311268I-2268J-291D01*
G01X102723Y311277D01*
X101000Y313000D01*
Y317500D01*
X99000Y319500D01*
X94000D01*
X92500Y321000D01*
Y333500D01*
X90500Y335500D01*
X90294D01*
X90234Y335566D01*
G03X86709Y335500I-1734J-1566D01*
G01X82791D01*
G03X79209I-1791J-1500D01*
G01X62500D01*
X61500Y334500D01*
Y306956D01*
X61352Y306916D01*
G03X60231Y302731I648J-2416D01*
G01X60829Y302133D01*
X60348Y301652D01*
G03X60308Y298388I1652J-1652D01*
G01X60443Y298247D01*
X60164Y297968D01*
Y295500D01*
G03X61500Y293388I2337J0D01*
G01Y292000D01*
X64500Y289000D01*
Y263000D01*
X67000Y260500D01*
X88500D01*
X94500Y266500D01*
X108669D01*
X110171Y264998D01*
X118829D01*
X120502Y266671D01*
Y267001D01*
X122000Y268500D01*
X123169D01*
X123171Y268498D01*
X135498D01*
Y263829D01*
X132498Y260829D01*
Y258998D01*
X132102Y258602D01*
X56498D01*
Y250662D01*
X126500D01*
Y248831D01*
X125669Y248000D01*
X46331D01*
X45829Y248502D01*
X26171D01*
X25669Y248000D01*
X25500D01*
X24500Y247000D01*
Y246831D01*
X23998Y246329D01*
Y168329D01*
X17471Y161802D01*
X9498D01*
Y153398D01*
X17000D01*
Y150831D01*
X16998Y150829D01*
Y150527D01*
X16716D01*
X16658Y150585D01*
G03X16347Y144336I-2958J-2985D01*
G02X16998Y144026I251J-311D01*
G01Y141671D01*
X17000Y141669D01*
Y141173D01*
G02X16348Y140863I-400J0D01*
G03X11201Y134222I-2647J-3264D01*
G02X10964Y133500I-237J-322D01*
G01X10500D01*
X9500Y132500D01*
Y113500D01*
X10000Y113000D01*
X27500D01*
X28000Y113500D01*
Y119000D01*
X28998Y119998D01*
X38444D01*
G02X38830Y119494I0J-400D01*
G03X46170I3670J-994D01*
G02X46556Y119998I386J104D01*
G01X68329D01*
X68331Y120000D01*
X68664D01*
Y88531D01*
X84296Y72898D01*
X84671D01*
X84715Y72760D01*
G03X85302Y71802I2284J741D01*
G01X85430Y71674D01*
G02X85288Y71332I-141J-142D01*
G01X83999D01*
G03X73679Y67058I0J-14596D01*
G01X73061Y66439D01*
X71870Y65248D01*
G03X71810Y65185I1187J-1191D01*
G01X71807Y65181D01*
X70546Y63920D01*
X70553Y63913D01*
X70083Y63451D01*
X70080Y63454D01*
X68819Y62193D01*
G03X68783Y62161I1099J-1273D01*
G01X65837Y59364D01*
X65510Y59380D01*
X63137Y57007D01*
X63130Y57010D01*
X63131Y57001D01*
X63128Y56998D01*
X63131Y56994D01*
X63157Y56663D01*
X61330Y54707D01*
G03X61307Y54681I1248J-1127D01*
G01X60046Y53420D01*
X60062Y53403D01*
X59500Y52897D01*
Y52874D01*
X58319Y51693D01*
G03X58275Y51652I1124J-1250D01*
G01X56261Y49713D01*
X56102Y49872D01*
X53728Y47498D01*
X53724Y47371D01*
X52707Y46467D01*
X52502Y46672D01*
X52500Y46670D01*
X52400D01*
X52398Y46672D01*
X49746Y44020D01*
X49748Y44018D01*
X49260Y43540D01*
X49263Y43537D01*
X48019Y42293D01*
G03X47889Y42163I1122J-1252D01*
G01X46628Y40902D01*
X46838Y40692D01*
X46753Y40557D01*
G03X44146Y33311I15382J-9626D01*
G03X44022Y31421I14319J-1889D01*
G01Y23723D01*
G03X44111Y23182I1681J-1D01*
G01X44122Y23151D01*
Y22859D01*
X2000D01*
Y30000D01*
X2001Y30001D01*
Y248663D01*
G02X4000Y250662I1999J0D01*
G01X48501D01*
Y258601D01*
X4000D01*
G02X2001Y260600I0J1999D01*
G01Y339000D01*
G02X4000Y340999I1999J0D01*
G01X271600D01*
G02X273599Y339000I0J-1999D01*
G01Y260600D01*
G02X271600Y258601I-1999J0D01*
G01X227099D01*
Y250662D01*
X271600D01*
G02X273599Y248663I0J-1999D01*
G01Y4000D01*
G02X271600Y2001I-1999J0D01*
G01X88407D01*
Y8334D01*
X74193D01*
Y2000D01*
X57903D01*
G37*
G36*
G01X102328Y170500D02*
G02X102662Y169880I0J-400D01*
G03X105338I1338J-880D01*
G02X105672Y170500I334J220D01*
G01X176000D01*
X177000Y169500D01*
Y160000D01*
X174500Y157500D01*
X170500D01*
X164500Y163500D01*
X109000D01*
X67500Y122000D01*
X43985D01*
G03X41015I-1485J-3500D01*
G01X29000D01*
X28000Y123000D01*
Y141000D01*
X27000Y142000D01*
X19500D01*
X19000Y142500D01*
Y150000D01*
X20000Y151000D01*
X36500D01*
X38000Y149500D01*
Y136500D01*
X39500Y135000D01*
X41014D01*
X41051Y134985D01*
G03X43985Y135000I1449J3515D01*
G01X59000D01*
X94500Y170500D01*
X102328D01*
G37*
G36*
G01X69500Y228500D02*
X86500Y245500D01*
X102500D01*
X103000Y245000D01*
Y234000D01*
X102500Y233500D01*
X93500D01*
X74500Y214500D01*
X39000D01*
X37500Y213000D01*
Y212500D01*
X37750Y212250D01*
Y211750D01*
X37500Y211500D01*
Y176000D01*
X39000Y174500D01*
X46500D01*
X47500Y173500D01*
Y163000D01*
X47000Y162500D01*
X38500D01*
X38000Y162000D01*
Y156000D01*
X36000Y154000D01*
X20000D01*
X19000Y155000D01*
Y160500D01*
X26000Y167500D01*
Y245500D01*
X27000Y246500D01*
X45000D01*
X46000Y245500D01*
Y230000D01*
X47500Y228500D01*
X69500D01*
G37*
G36*
G01X47734Y23000D02*
Y19137D01*
X50905D01*
Y23500D01*
X50952Y23548D01*
Y25500D01*
X48000D01*
X47500Y25000D01*
Y23000D01*
X47734D01*
G37*
G36*
G01X60032Y186164D02*
X75032Y171164D01*
X78000D01*
Y157000D01*
X71500Y150500D01*
X52000D01*
X49500Y153000D01*
Y162169D01*
X49502Y162171D01*
Y174329D01*
X49500Y174331D01*
Y186164D01*
X60032D01*
G37*
G36*
G01X76968Y175836D02*
X61968Y190836D01*
X49500D01*
Y212498D01*
X75329D01*
X93831Y231000D01*
X96500D01*
X97000Y230500D01*
Y228891D01*
X95748Y227640D01*
Y221505D01*
X97000Y220254D01*
Y212500D01*
X101500Y208000D01*
X107109D01*
X107155Y207954D01*
X118000D01*
G03X118479Y207995I6J2751D01*
G01X118496Y207998D01*
X124998D01*
Y201002D01*
X111671D01*
X111669Y201000D01*
X80000D01*
X78000Y199000D01*
Y198831D01*
X77498Y198329D01*
Y192671D01*
X78000Y192169D01*
Y175836D01*
X76968D01*
G37*
G36*
G01X95390Y192000D02*
G03X91610I-1890J-2000D01*
G01X81000D01*
X79500Y193500D01*
Y197500D01*
X80500Y198500D01*
X107500D01*
X108000Y198000D01*
Y192500D01*
X107500Y192000D01*
X101745D01*
X101622Y192122D01*
G03X97262Y192000I-2122J-2122D01*
G01X95390D01*
G37*
G36*
G01X181000Y186000D02*
X180500Y186500D01*
X156245D01*
X155743Y187002D01*
X112500D01*
Y189000D01*
X113000Y189500D01*
X127500D01*
X129000Y191000D01*
Y198000D01*
X129750Y198750D01*
X139750D01*
X141000Y200000D01*
Y230500D01*
X141998Y231498D01*
X145500D01*
Y228650D01*
X144248Y227399D01*
Y222067D01*
X145500Y220816D01*
Y210500D01*
X147500Y208500D01*
X164169D01*
X164171Y208498D01*
X173502D01*
X173998Y208002D01*
Y201171D01*
X174000Y201169D01*
Y200500D01*
X177000Y197500D01*
X193500D01*
X195000Y196000D01*
Y186500D01*
X194500Y186000D01*
X187238D01*
G03X182878Y186122I-2238J-2000D01*
G01X182755Y186000D01*
X181000D01*
G37*
G36*
G01X112000Y192500D02*
Y198500D01*
X112500Y199000D01*
X125500D01*
X126000Y198500D01*
Y192500D01*
X125500Y192000D01*
X112500D01*
X112000Y192500D01*
G37*
G36*
G01X116000Y210000D02*
X115500Y210500D01*
Y224000D01*
X116000Y224500D01*
X129500D01*
X131000Y223000D01*
Y211000D01*
X130000Y210000D01*
X116000D01*
G37*
G36*
G01X110906Y234252D02*
G03X109795Y234017I2J-2752D01*
G01X109756Y234000D01*
X109000D01*
X108500Y234500D01*
Y240000D01*
X109500Y241000D01*
X125500D01*
X128000Y238500D01*
Y232500D01*
X127000Y231500D01*
X118000D01*
X117740Y231760D01*
X117732Y231829D01*
G03X115000Y234252I-2732J-329D01*
G01X110906D01*
G37*
G36*
G01X127056Y273000D02*
X128500D01*
X129500Y274000D01*
Y276500D01*
X128000Y278000D01*
X127056D01*
X127017Y278017D01*
G03X125906Y278252I-1113J-2517D01*
G01X124140D01*
X123500Y278891D01*
Y280000D01*
X124000Y280500D01*
X127321D01*
X128922Y278898D01*
X129102D01*
X129500Y278500D01*
X144000D01*
X144500Y278000D01*
Y272000D01*
X143000Y270500D01*
X124000D01*
X123500Y271000D01*
Y272748D01*
X125906D01*
G03X127017Y272983I-2J2752D01*
G01X127056Y273000D01*
G37*
G36*
G01X110500Y267500D02*
Y273500D01*
X111000Y274000D01*
X118000D01*
X118500Y273500D01*
Y267500D01*
X118000Y267000D01*
X111000D01*
X110500Y267500D01*
G37*
G36*
G01X137000Y201000D02*
X127500D01*
X127000Y201500D01*
Y207500D01*
X127498Y207998D01*
X130829D01*
X130831Y208000D01*
X132000D01*
X133250Y209250D01*
Y237250D01*
X127500Y243000D01*
Y247000D01*
X128000Y247500D01*
X131000D01*
X137500Y241000D01*
Y201500D01*
X137000Y201000D01*
G37*
G36*
G01X134503Y260003D02*
X137500Y263000D01*
Y266258D01*
G03Y266442I-3000J92D01*
G01Y268000D01*
X137999Y268498D01*
X143001D01*
X143500Y268000D01*
Y260500D01*
X141500Y258500D01*
Y248500D01*
X143500Y246500D01*
X151000D01*
X151500Y246000D01*
Y234000D01*
X151000Y233500D01*
X141500D01*
X140500Y234500D01*
Y241000D01*
X134500Y247000D01*
Y259908D01*
G03X134501Y259923I-2994J207D01*
G01X134503Y260003D01*
G37*
G36*
G01X134500Y296500D02*
Y318500D01*
X135000Y319000D01*
X140000D01*
X141500Y317500D01*
Y310000D01*
X140000Y308500D01*
Y303500D01*
X141500Y302000D01*
Y299000D01*
X142500Y298000D01*
Y296500D01*
X142000Y296000D01*
X135000D01*
X134500Y296500D01*
G37*
G36*
G01X159406Y234252D02*
G03X158295Y234017I2J-2752D01*
G01X158256Y234000D01*
X157500D01*
X157000Y234500D01*
Y237500D01*
X158000Y238500D01*
X176341D01*
X178500Y236341D01*
Y232500D01*
X177500Y231500D01*
X177002D01*
Y231502D01*
X166998D01*
Y231500D01*
X166500D01*
X166240Y231760D01*
X166232Y231829D01*
G03X163500Y234252I-2732J-329D01*
G01X159406D01*
G37*
G36*
G01X176000Y202000D02*
Y207500D01*
X176500Y208000D01*
X186500D01*
X187000Y207500D01*
Y202000D01*
X186500Y201500D01*
X176500D01*
X176000Y202000D01*
G37*
G36*
G01X165000Y210500D02*
X164000Y211500D01*
Y224000D01*
X164500Y224500D01*
X180500D01*
X181000Y224000D01*
Y211000D01*
X180500Y210500D01*
X165000D01*
G37*
G36*
G01X182500Y247500D02*
X188500D01*
X189000Y247000D01*
Y242500D01*
X188500Y242000D01*
X184500D01*
X181500Y245000D01*
Y246500D01*
X182500Y247500D01*
G37*
G36*
G01X202696Y315500D02*
X216532Y301664D01*
X242336D01*
X244000Y300000D01*
Y284500D01*
X245000Y283500D01*
X245333D01*
G02X245582Y282787I0J-400D01*
G03X250541Y276010I2618J-3287D01*
G02X251164Y275678I223J-332D01*
G01Y275164D01*
X250500Y274500D01*
X244500D01*
X243000Y273000D01*
Y267604D01*
X242232Y266836D01*
X187004D01*
X187001Y267034D01*
G03X186500Y268502I-2501J-34D01*
G01Y272500D01*
X187500Y273500D01*
X196500D01*
X197500Y272500D01*
X218500D01*
X220500Y274500D01*
Y295500D01*
X219670Y296330D01*
X219655Y296370D01*
G03X218309Y297716I-2155J-809D01*
G01X218269Y297731D01*
X218000Y298000D01*
X206000D01*
X205000Y299000D01*
Y307500D01*
X203500Y309000D01*
X189170D01*
G02X188780Y309488I0J400D01*
G03X188836Y310000I-2280J508D01*
G01Y314763D01*
X188782Y314817D01*
G02X189065Y315500I283J283D01*
G01X202696D01*
G37*
G36*
G01X260036Y101153D02*
Y103247D01*
G02X260635Y103594I400J0D01*
G03X264126Y103297I2065J3606D01*
G02X264664Y102922I138J-375D01*
G01Y101478D01*
G02X264126Y101103I-400J0D01*
G03X260635Y100806I-1426J-3903D01*
G02X260036Y101153I-199J347D01*
G37*
G36*
G01Y91153D02*
Y93247D01*
G02X260635Y93594I400J0D01*
G03X264126Y93297I2065J3606D01*
G02X264664Y92922I138J-375D01*
G01Y91478D01*
G02X264126Y91103I-400J0D01*
G03X260635Y90806I-1426J-3903D01*
G02X260036Y91153I-199J347D01*
G37*
G36*
G01X260635Y110806D02*
G02X260036Y111153I-199J347D01*
G01Y113168D01*
X259000Y114204D01*
Y114809D01*
X259301D01*
X259361Y114728D01*
G03X264126Y113297I3340J2472D01*
G02X264664Y112922I138J-375D01*
G01Y111478D01*
G02X264126Y111103I-400J0D01*
G03X260635Y110806I-1426J-3903D01*
G37*
%LPC*%
G75*
G36*
G01X120222Y322330D02*
G02X113684I-3269J1D01*
G01Y323118D01*
G02X120222I3269J-1D01*
G01Y322330D01*
G37*
G36*
G01X29422Y326602D02*
X36578D01*
X41102Y322078D01*
Y314922D01*
X36578Y310398D01*
X29422D01*
X24898Y314922D01*
Y322078D01*
X29422Y326602D01*
G37*
G36*
G01X29922Y39398D02*
X25398Y43922D01*
Y51078D01*
X29922Y55602D01*
X37078D01*
X41602Y51078D01*
Y43922D01*
X37078Y39398D01*
X29922D01*
G37*
G36*
G01X150336Y29468D02*
Y26500D01*
G02X145664I-2336J0D01*
G01Y27532D01*
X145196Y28000D01*
X138000D01*
Y34000D01*
X149500D01*
Y30304D01*
X150336Y29468D01*
G37*
G36*
G01X140568Y12664D02*
X139032D01*
X134848Y16848D01*
G02X138152Y20152I1652J1652D01*
G01X139886Y18419D01*
G03X140541Y18556I283J283D01*
G01X150432D01*
Y11444D01*
X140568D01*
Y12664D01*
G37*
G54D62*
X185000Y36000D03*
G54D70*
X96000Y156000D03*
X82500Y152000D03*
X53000Y129000D03*
X33000D03*
Y139000D03*
Y209000D03*
Y189000D03*
Y199000D03*
Y179000D03*
Y159000D03*
G54D69*
X206100Y10200D03*
X206400Y39200D03*
X261200Y268950D03*
G54D65*
X14700Y269500D03*
Y279500D03*
X31100Y273300D03*
X42500Y68500D03*
Y88500D03*
Y78500D03*
Y98500D03*
Y108500D03*
X216100Y10200D03*
X216400Y39200D03*
X226100Y10200D03*
X236100D03*
X226400Y39200D03*
X236400D03*
X232500Y244500D03*
X34000Y233000D03*
Y223000D03*
G54D68*
X112327Y334535D03*
X140673D03*
G54D73*
X167500Y212000D03*
G54D71*
X119250Y205000D03*
G54D72*
X165500Y205750D03*
X119000Y212250D03*
G54D63*
X14500Y238000D03*
X12400Y330300D03*
X16800Y52700D03*
X263200Y13400D03*
X260700Y328200D03*
G54D64*
X9000Y196500D03*
X9005Y218206D03*
G54D66*
X31100Y283300D03*
X196100Y10200D03*
X196400Y39200D03*
G54D67*
X14700Y289500D03*
%LPD*%
G75*
G54D10*
G01X49141Y41041D02*
G03X45813Y33091I12993J-10111D01*
G03X45703Y31417I12652J-1672D01*
G01Y23723D01*
G01X52641Y44159D02*
X56241Y47359D01*
G01D02*
X59441Y50441D01*
G01X55759Y41041D02*
X81300Y15200D01*
Y15006D01*
G01X69941Y60941D02*
X65641Y56859D01*
G01D02*
X62559Y53559D01*
G01X73059Y64059D02*
X74250Y65250D01*
X74868Y65869D01*
G02X84000Y69651I9131J-9132D01*
G01X87651D01*
X4500Y24500D03*
Y36500D03*
Y31500D03*
Y46500D03*
X3500Y59000D03*
Y69000D03*
Y79000D03*
Y89000D03*
Y99000D03*
Y109000D03*
Y119000D03*
Y129000D03*
Y139000D03*
Y149000D03*
Y159000D03*
Y169000D03*
Y179000D03*
Y189000D03*
Y209000D03*
Y239000D03*
Y229000D03*
Y249000D03*
X3600Y260500D03*
Y270500D03*
Y280500D03*
X4500Y300000D03*
Y290000D03*
X3200Y311500D03*
Y330000D03*
Y320000D03*
X3500Y339500D03*
X13500Y24500D03*
X23500D03*
Y31500D03*
X13500D03*
X14000Y39500D03*
X24000D03*
X13000Y79000D03*
Y69000D03*
X23000Y79000D03*
Y69000D03*
Y99000D03*
X13000D03*
Y89000D03*
X23000D03*
X13000Y109000D03*
X23000D03*
Y169000D03*
X13000Y179000D03*
Y169000D03*
X23000Y179000D03*
Y199000D03*
Y189000D03*
X13000D03*
Y209000D03*
X23000Y219000D03*
Y209000D03*
Y229000D03*
X13000D03*
Y260500D03*
X23000D03*
Y249500D03*
X13000D03*
X23500Y269500D03*
Y279500D03*
Y289500D03*
Y299500D03*
Y309500D03*
Y319500D03*
X13500Y311500D03*
X23500Y329500D03*
Y339500D03*
X13500D03*
X33500Y24500D03*
X40500D03*
X47500Y45500D03*
X44000Y41500D03*
X40500Y31500D03*
X42000Y37000D03*
X33500Y31500D03*
X34500Y38500D03*
X45000Y52500D03*
X33000Y59000D03*
Y79000D03*
Y69000D03*
Y99000D03*
Y89000D03*
Y119000D03*
Y109000D03*
Y139000D03*
Y129000D03*
Y159000D03*
Y179000D03*
Y199000D03*
Y189000D03*
Y209000D03*
X43000Y249500D03*
X33000Y260500D03*
X43000D03*
X33000Y249500D03*
X43500Y269500D03*
Y299500D03*
X33500Y289500D03*
X43500D03*
X33500Y299500D03*
X43500Y309500D03*
X33500D03*
X43500Y319500D03*
X33500Y329500D03*
X43500D03*
Y339500D03*
X33500D03*
X65500Y4000D03*
X59500Y4500D03*
X66000Y11000D03*
Y17500D03*
X54500Y24500D03*
X50000D03*
X61500Y29000D03*
X59500Y17500D03*
Y11500D03*
Y23500D03*
X65500Y25000D03*
X56500Y34000D03*
X53000Y31500D03*
X50500Y34500D03*
X52500Y38000D03*
X63000Y48000D03*
X65000Y38500D03*
X62000Y41500D03*
X66000Y51000D03*
X55000Y52500D03*
X65500Y63500D03*
X59000Y56500D03*
X51500Y49500D03*
X53000Y59000D03*
X62000Y60000D03*
X63000Y69000D03*
X53000D03*
Y79000D03*
X63000D03*
Y89000D03*
X54000Y105500D03*
X63000Y99000D03*
X53000Y89000D03*
X63000Y119000D03*
X53000D03*
Y129000D03*
X62500Y152000D03*
X52500D03*
X62500Y162000D03*
X52500D03*
Y172000D03*
X62500D03*
X52500Y182000D03*
X62500D03*
Y202000D03*
X52500D03*
X62500Y192000D03*
X52500D03*
X62500Y211500D03*
X52500D03*
X63000Y249500D03*
X53000Y260500D03*
X63000D03*
X53000Y249500D03*
Y279000D03*
X63000D03*
X67500Y268500D03*
Y263500D03*
X53000Y270500D03*
X67500Y274500D03*
X63000Y270500D03*
X58000Y286500D03*
X62000Y300000D03*
X62500Y295500D03*
X66500Y292000D03*
X52350Y312850D03*
X53500Y319500D03*
X62000Y304500D03*
X66000Y319500D03*
X53500Y329500D03*
X63500Y339500D03*
X53500D03*
X81500Y9500D03*
X73000Y4000D03*
X84000Y28000D03*
X86500Y18500D03*
X81500Y21500D03*
X75000Y28000D03*
X73500Y12000D03*
X78000Y25000D03*
X69500Y21000D03*
X72500Y17500D03*
X79000Y41000D03*
X74000Y46000D03*
X85500D03*
X79500Y34500D03*
X68000Y43500D03*
X84500Y41000D03*
X73000D03*
X72000Y31000D03*
X68000Y35000D03*
X85500Y53000D03*
X79000Y57000D03*
Y49500D03*
X78000Y63000D03*
X75500Y60000D03*
X87000Y65000D03*
X86500Y59500D03*
X69000Y66500D03*
X71500Y51000D03*
X82500Y65000D03*
X72500Y57000D03*
X78860Y73210D03*
X75000Y72500D03*
X81840Y73850D03*
X72000Y69500D03*
X77000Y105000D03*
X82000D03*
X77000Y92000D03*
X82000D03*
X83000Y121500D03*
X87000Y118500D03*
X72500Y152000D03*
X82500D03*
Y162000D03*
X72500D03*
Y172000D03*
Y182000D03*
Y202000D03*
Y192000D03*
X81500Y193500D03*
Y197000D03*
X72500Y211500D03*
X83000Y260000D03*
Y249500D03*
X73000D03*
Y260000D03*
X73500Y279000D03*
X78000Y263000D03*
X79000Y291000D03*
X70500Y291500D03*
X76000Y305500D03*
X81000D03*
X71000D03*
Y310500D03*
X76000D03*
X81000D03*
X71000Y300500D03*
X76000D03*
X81000D03*
Y334000D03*
X83500Y339500D03*
X73500D03*
X98500Y9500D03*
X90000Y4000D03*
X89500Y8000D03*
X102500Y3500D03*
X104500Y16500D03*
X87500Y12500D03*
X92500Y23000D03*
Y13000D03*
X104500Y30000D03*
X90000D03*
X90500Y35500D03*
Y47299D03*
X100000Y35500D03*
X101000Y51500D03*
X105500Y54000D03*
X90000Y51500D03*
X95000D03*
X98000Y77000D03*
Y72000D03*
X103000D03*
Y77000D03*
X98000Y82000D03*
X103000D03*
Y87000D03*
X98000D03*
X90500Y129000D03*
X95000Y126500D03*
X102500Y134000D03*
X98500Y137000D03*
X96000Y156000D03*
X91000Y149500D03*
X87500D03*
X104000Y169000D03*
X99500Y190000D03*
X93500D03*
X94000Y222000D03*
X93500Y229000D03*
X94500Y234500D03*
Y239000D03*
X103000Y249500D03*
X93000D03*
Y260000D03*
X103000D03*
X88000Y267000D03*
Y277500D03*
Y272500D03*
X95000Y271000D03*
X106500Y295500D03*
X89500Y287500D03*
X95000Y289000D03*
X89000Y299500D03*
X106500Y310500D03*
Y303000D03*
X98000Y317000D03*
X89000Y310000D03*
X102500Y309000D03*
Y305486D03*
X103500Y329500D03*
X88500Y334000D03*
X103500Y339500D03*
X93500D03*
X112500Y3500D03*
X122500D03*
X113000Y22500D03*
Y10000D03*
X120000Y16000D03*
X121000Y30000D03*
X109500Y35500D03*
Y39500D03*
X115500Y43000D03*
X121500D03*
X109500Y51000D03*
X108500Y54500D03*
X107000Y72000D03*
X113000Y77000D03*
X108000D03*
Y82000D03*
X113000D03*
Y87000D03*
X108000D03*
X125000Y100500D03*
X122500Y92000D03*
X125000Y105500D03*
X120000Y100500D03*
Y105500D03*
X117500Y95500D03*
X122500D03*
X120000Y110500D03*
X125000D03*
X113500Y145000D03*
X110500Y149000D03*
X114500Y188000D03*
X124500D03*
X117000Y202000D03*
X121000D03*
X124500D03*
X112000Y216295D03*
X115000Y231500D03*
Y227760D03*
X123000Y249500D03*
X113000D03*
X123000Y260000D03*
X113000D03*
X121500Y277000D03*
X111500Y279240D03*
Y273000D03*
Y269500D03*
X112500Y295500D03*
X123500Y286500D03*
X115500Y314000D03*
X120000Y302500D03*
X122500Y313500D03*
X126000D03*
X123500Y329500D03*
X121382Y327118D03*
X123500Y339500D03*
X142500Y9500D03*
X127000Y9000D03*
X132500Y3500D03*
X142500D03*
X127000Y23000D03*
X137000Y24500D03*
X131500Y16000D03*
X145000Y21500D03*
X136500Y18500D03*
X137500Y35000D03*
X130000Y47000D03*
X133295Y61795D03*
X144500Y61500D03*
X134000Y49000D03*
X138000Y61500D03*
X133000Y77500D03*
X137000Y80000D03*
X134500Y83500D03*
X136000Y99000D03*
X128500Y95000D03*
X139000Y154500D03*
Y150000D03*
X131000D03*
Y154500D03*
X135500Y194000D03*
X132500Y202000D03*
X128500D03*
X143500Y207500D03*
Y214500D03*
Y222500D03*
Y229000D03*
X145000Y235000D03*
X142000D03*
X145000Y249500D03*
X131500Y260000D03*
X143000Y276500D03*
X139500D03*
X135000Y289000D03*
X127500Y284000D03*
X136000Y281500D03*
X135000Y293500D03*
X137000Y297000D03*
X141000D03*
X132000Y313500D03*
X129000D03*
X133500Y329500D03*
Y339500D03*
X152500Y9500D03*
X162500D03*
Y3500D03*
X152500D03*
X151000Y21500D03*
X148000Y26500D03*
X153500Y32500D03*
X163000Y64500D03*
Y70000D03*
X146500Y86000D03*
X145951Y80500D03*
X163000Y76000D03*
X152500Y106000D03*
X157500Y88295D03*
X146500Y99000D03*
Y92000D03*
X156500Y106000D03*
X158000Y101000D03*
Y96000D03*
X155000Y113500D03*
X149500Y150000D03*
X155000Y150500D03*
X149500Y154000D03*
X160000Y160500D03*
Y156000D03*
X152500Y152500D03*
X153000Y173500D03*
X146500Y178000D03*
X164500Y174000D03*
X158500Y173500D03*
X156500Y187500D03*
X149500Y212500D03*
X163500Y231500D03*
Y227760D03*
X153500Y249500D03*
X163500D03*
X153000Y260000D03*
X163000D03*
X146500D03*
X160500Y277000D03*
X147500Y288500D03*
X147000Y281500D03*
X160500D03*
X163000Y296000D03*
Y292427D03*
X150000Y306000D03*
X162000Y310500D03*
X149000Y300500D03*
Y311000D03*
X161500Y300500D03*
X163500Y329500D03*
X153500D03*
X163500Y339500D03*
X153500D03*
X172500Y9500D03*
X182500D03*
Y3500D03*
X172500D03*
X171500Y22500D03*
X183500Y15000D03*
X171500Y31000D03*
X171000Y41000D03*
X182000Y61000D03*
X180000Y83000D03*
X165000Y82000D03*
X183500Y106000D03*
Y96000D03*
Y91795D03*
X180000Y139500D03*
Y143000D03*
X181500Y155500D03*
X167500Y153500D03*
X175000Y164000D03*
Y160500D03*
X171500Y164000D03*
Y160500D03*
X170000Y174500D03*
X166500Y187500D03*
X169500Y202500D03*
X176500Y187500D03*
X173000Y202500D03*
X165500D03*
X177000D03*
X180500D03*
X173500Y249500D03*
X183000Y260000D03*
X173000D03*
X175500Y267000D03*
X181358D03*
X184000Y277500D03*
X169500Y310500D03*
X173484Y300500D03*
X175453Y310000D03*
X182000D03*
X177421Y300500D03*
X170000D03*
X179000Y310000D03*
X166000Y311000D03*
X183500Y329500D03*
X173500D03*
X179500Y324000D03*
X173500Y339500D03*
X183500D03*
X202500Y3500D03*
X192500D03*
X197500Y26500D03*
X185000Y25500D03*
X193500Y33500D03*
X203500D03*
X185000Y46500D03*
X193500Y53000D03*
X200000Y63000D03*
X202500Y50000D03*
X195500Y75000D03*
X190500Y91500D03*
X196000Y111000D03*
X193000Y128500D03*
X196000Y142500D03*
X192000D03*
X185000Y143000D03*
Y148000D03*
X200000Y155500D03*
X191500Y149000D03*
X202500Y153000D03*
X197500D03*
Y149000D03*
X186500Y155500D03*
Y163000D03*
X202500Y158000D03*
Y162000D03*
X187000Y175000D03*
X186500Y168500D03*
X197500Y180500D03*
X185000Y184000D03*
X188500Y193000D03*
X197500Y185500D03*
X188500Y211000D03*
X203000Y219000D03*
X198205Y221500D03*
X203000Y229000D03*
Y249500D03*
X193000D03*
Y260000D03*
X203000D03*
X187000Y246500D03*
X187500Y243500D03*
X199500Y268000D03*
X200000Y275000D03*
X195500Y272000D03*
X194500Y279795D03*
X184500Y267000D03*
X200500Y292705D03*
X184500Y289000D03*
Y293500D03*
X195000Y296000D03*
X202000Y313500D03*
X192000D03*
X186500Y310000D03*
X203500Y329500D03*
X193500D03*
X184500Y324000D03*
X203500Y339500D03*
X193500D03*
X222500Y3500D03*
X212500D03*
X220500Y18000D03*
X221000Y45000D03*
X214000Y33500D03*
X210000Y63000D03*
X213000Y89000D03*
X213500Y162500D03*
X210000Y168000D03*
Y180500D03*
X205000D03*
X213000Y212000D03*
Y219000D03*
Y239000D03*
Y229000D03*
Y249500D03*
Y260000D03*
X222000Y277000D03*
X205000Y275000D03*
X211000D03*
X219500Y268000D03*
X217500Y275000D03*
X209500Y268000D03*
X222000Y287000D03*
X208500Y299500D03*
X217500Y282500D03*
Y290784D03*
X208500Y295561D03*
X219000Y299500D03*
X217500Y295561D03*
X208500Y307000D03*
X213500Y329500D03*
Y339500D03*
X232500Y3500D03*
X231000Y18000D03*
X241000Y19000D03*
Y29000D03*
X231500Y45000D03*
X223500Y33500D03*
X233500D03*
X239500Y229000D03*
X233000Y260000D03*
X229500Y268500D03*
Y277000D03*
X239500D03*
Y268500D03*
Y287000D03*
X229500D03*
X223500Y319500D03*
X233500Y309500D03*
X231500Y321000D03*
X233500Y329500D03*
X223500D03*
X233500Y339500D03*
X223500D03*
X252500Y3500D03*
X242500D03*
X251000Y29000D03*
Y19000D03*
Y39000D03*
X261000D03*
X255000Y59500D03*
X261500Y66500D03*
X251000Y49000D03*
X261000D03*
X255000Y54500D03*
X253000Y239000D03*
X243000D03*
X253000Y249500D03*
X243000D03*
Y260000D03*
X253000D03*
X250500Y309500D03*
X260500D03*
X243500Y329500D03*
X253500Y339500D03*
X243500D03*
X272500Y9000D03*
X272000Y3500D03*
X262500D03*
X271500Y27500D03*
X272500Y19000D03*
X271000Y39000D03*
Y49000D03*
X272500Y59000D03*
X262500Y79000D03*
X272500Y69000D03*
Y79000D03*
Y89000D03*
Y99000D03*
Y109000D03*
Y119000D03*
Y129000D03*
Y139000D03*
Y149000D03*
Y159000D03*
Y169000D03*
Y179000D03*
Y189000D03*
Y199000D03*
Y219000D03*
Y209000D03*
Y229000D03*
X263000Y239000D03*
X272500D03*
X272000Y249000D03*
X263000Y249500D03*
Y260500D03*
X272000D03*
X272500Y280500D03*
Y270500D03*
X270500Y289500D03*
Y299500D03*
Y309500D03*
X272000Y330500D03*
Y320500D03*
Y339500D03*
X263500D03*
G54D11*
X9000Y196500D03*
X9005Y218206D03*
G54D20*
X81300Y15006D03*
G54D21*
X87000Y73500D03*
X93500Y63500D03*
X90000Y73500D03*
X104325Y94500D03*
X125000Y64500D03*
X121500Y67500D03*
X124500D03*
X121000Y64500D03*
X122819Y82191D03*
X125000Y71000D03*
X120951Y78800D03*
X121101Y73750D03*
X122500Y85000D03*
G54D12*
X23700Y127600D03*
Y117600D03*
X13700D03*
Y127600D03*
X23700Y147600D03*
Y137600D03*
X13700D03*
Y147600D03*
X23700Y157600D03*
X14700Y269500D03*
Y279500D03*
X31100Y273300D03*
X42500Y68500D03*
Y88500D03*
Y78500D03*
Y98500D03*
Y108500D03*
Y118500D03*
Y138500D03*
Y148500D03*
Y158500D03*
Y178500D03*
Y168500D03*
Y188500D03*
Y198500D03*
Y208500D03*
X34000Y223000D03*
Y233000D03*
X52500Y223500D03*
Y233500D03*
X206100Y10200D03*
X216100D03*
X206400Y39200D03*
X216400D03*
X226100Y10200D03*
X236100D03*
X226400Y39200D03*
X236400D03*
X232500Y68500D03*
Y88500D03*
Y78500D03*
Y98500D03*
Y108500D03*
Y128500D03*
Y118500D03*
Y138500D03*
Y164500D03*
Y154500D03*
Y174500D03*
Y184500D03*
Y194500D03*
Y204500D03*
Y214500D03*
Y224500D03*
Y234500D03*
Y244500D03*
X248200Y269500D03*
Y279500D03*
X261200Y268950D03*
Y278950D03*
Y298950D03*
Y288950D03*
G54D30*
X94164Y85399D03*
Y83824D03*
Y82250D03*
Y80675D03*
Y79100D03*
Y77525D03*
Y75950D03*
Y74376D03*
Y72801D03*
Y71226D03*
Y69651D03*
Y88549D03*
Y86974D03*
X117636Y69651D03*
Y71226D03*
Y72801D03*
Y74376D03*
Y75950D03*
Y77525D03*
Y79100D03*
Y80675D03*
Y82250D03*
Y83824D03*
Y85399D03*
Y86974D03*
Y88549D03*
G54D22*
X73216Y267201D03*
X82784Y274799D03*
Y267201D03*
X73216Y274799D03*
G54D40*
X112327Y334535D03*
X140673D03*
G54D31*
X105900Y79100D03*
G54D13*
X13700Y157600D03*
X31100Y283300D03*
X14700Y289500D03*
X34000Y243000D03*
X52500Y243500D03*
X196100Y10200D03*
X196400Y39200D03*
X248200Y289500D03*
G54D41*
X145500Y15000D03*
X175500D03*
G54D23*
X80295Y283500D03*
X84705D03*
X71295D03*
X75705D03*
X140295Y300500D03*
X144705D03*
X145205Y311500D03*
X140795D03*
G54D32*
X106358Y196000D03*
X102142Y276000D03*
X94858D03*
X102142Y293500D03*
X94858D03*
X113642Y196000D03*
G54D50*
X252700Y87200D03*
X262700D03*
X252700Y107200D03*
Y97200D03*
X262700Y107200D03*
Y97200D03*
X252700Y127200D03*
Y117200D03*
X262700Y127200D03*
Y117200D03*
X252700Y147200D03*
Y137200D03*
X262700Y147200D03*
Y137200D03*
X252700Y157200D03*
X262700D03*
X252700Y177200D03*
Y167200D03*
X262700Y177200D03*
Y167200D03*
X252700Y197200D03*
Y187200D03*
X262700Y197200D03*
Y187200D03*
X252700Y217200D03*
Y207200D03*
X262700Y217200D03*
Y207200D03*
Y227200D03*
G54D14*
G01X149500Y243500D02*
X177000D01*
X187500Y233000D01*
Y222500D01*
X222500Y187500D01*
Y176500D01*
X226000Y173000D01*
Y66500D01*
X230000Y62500D01*
X236500D01*
X246000Y72000D01*
Y93000D01*
X250200Y97200D01*
X252700D01*
G01X185000Y206000D02*
X193500D01*
X216000Y183500D01*
Y173000D01*
X220000Y169000D01*
Y60500D01*
X224500Y56000D01*
X239500D01*
X252700Y69200D01*
Y87200D01*
X33500Y47500D03*
X33000Y318500D03*
X129500Y246000D03*
X183500Y245000D03*
X240500Y315500D03*
G54D60*
G01X98000Y308795D02*
X96875Y307670D01*
X88968D01*
X88485Y308153D01*
X85443D01*
G01Y306184D02*
X88484D01*
X88800Y306500D01*
X101485D01*
X102500Y305486D01*
G01Y309000D02*
Y308500D01*
X101670Y307670D01*
X99125D01*
X98000Y308795D01*
G01X123500Y297150D02*
X125150Y295500D01*
X125930D01*
X126500Y294930D01*
Y288345D01*
X130737Y284108D01*
X150994D01*
X151523Y283579D01*
X155571D01*
G01X124000Y303350D02*
X126274Y301075D01*
Y299924D01*
X123500Y297150D01*
G01X124000Y309650D02*
X126521Y312171D01*
Y312979D01*
X126000Y313500D01*
G01X131000Y297150D02*
X129150Y299000D01*
X128181D01*
X127444Y299737D01*
Y300944D01*
X129850Y303350D01*
X130500D01*
G01X155571Y285547D02*
X151523D01*
X151254Y285278D01*
X131222D01*
X127670Y288830D01*
Y294930D01*
X128240Y295500D01*
X129430D01*
X131000Y297070D01*
Y297150D01*
G01X126000Y313500D02*
X126930Y314430D01*
Y317070D01*
X126500Y317500D01*
Y321100D01*
G01X129000Y313500D02*
X128229Y312729D01*
Y311921D01*
X130500Y309650D01*
G01X129000Y313500D02*
X128100Y314400D01*
Y317100D01*
X129059Y318059D01*
Y321100D01*
G54D33*
X100594Y227760D03*
Y235240D03*
X110906D03*
Y231500D03*
Y227760D03*
X115594Y271760D03*
Y279240D03*
X125906D03*
Y275500D03*
Y271760D03*
X149094Y227760D03*
Y235240D03*
X159406D03*
Y231500D03*
Y227760D03*
G54D42*
X143177Y41000D03*
Y31000D03*
X177823Y41000D03*
Y31000D03*
G54D24*
X68710Y295357D03*
X70679D03*
X72647D03*
X74616D03*
X76584D03*
X78553D03*
X80521D03*
X82490D03*
Y315043D03*
X80521D03*
X78553D03*
X76584D03*
X74616D03*
X72647D03*
X70679D03*
X68710D03*
G54D51*
X252700Y227200D03*
G54D15*
X56241Y47359D03*
X59359Y44241D03*
X55759Y41041D03*
X52641Y44159D03*
X65641Y56859D03*
X68759Y53741D03*
G54D61*
G01X153000Y173500D02*
X76000D01*
X61000Y188500D01*
X42500D01*
G01X62500Y295500D02*
Y297000D01*
X63810Y298310D01*
X65757D01*
G01Y300279D02*
X62279D01*
X62000Y300000D01*
G01X160000Y160500D02*
X159500Y161000D01*
X112500D01*
X71000Y119500D01*
Y89499D01*
X85264Y75235D01*
X90719D01*
X91578Y74376D01*
X94164D01*
G01X160000Y156000D02*
X157000Y159000D01*
X113500D01*
X72931Y118431D01*
Y90068D01*
X86424Y76575D01*
X91275D01*
X91900Y75950D01*
X94164D01*
G01Y79100D02*
X92900D01*
X92660Y79340D01*
X89611D01*
X79500Y89451D01*
Y114500D01*
X117000Y152000D01*
X152000D01*
X152500Y152500D01*
G01X167500Y153500D02*
X158500D01*
X155000Y157000D01*
X114999D01*
X74863Y116864D01*
Y90636D01*
X87584Y77915D01*
X91831D01*
X92221Y77525D01*
X94164D01*
G01Y83824D02*
X91675D01*
X86157Y89342D01*
Y93657D01*
X87500Y95000D01*
Y112000D01*
X120500Y145000D01*
X171000D01*
X181500Y155500D01*
G01X186500Y163000D02*
X185000D01*
X169500Y147500D01*
X119000D01*
X84225Y112725D01*
Y89274D01*
X91249Y82250D01*
X94164D01*
G01X89500Y287500D02*
X88000D01*
X82490Y293010D01*
Y295357D01*
G01X95350Y284000D02*
X89000D01*
X80521Y292479D01*
Y295357D01*
G01X95850Y301000D02*
X92634Y304216D01*
X85443D01*
G01X88500Y323850D02*
Y313500D01*
X87090Y312090D01*
X85443D01*
G01X81000Y323850D02*
Y321500D01*
X82490Y320010D01*
Y315043D01*
G01X81000Y330150D02*
Y334000D01*
G01X108500Y54500D02*
Y55000D01*
X102750Y60750D01*
Y67364D01*
G01X210000Y180500D02*
Y172000D01*
X216000Y166000D01*
Y88500D01*
X172000Y44500D01*
X138000D01*
X131500Y38000D01*
X113500D01*
X111500Y40000D01*
Y54500D01*
X104325Y61675D01*
Y67364D01*
G01X186500Y155500D02*
X172971Y141971D01*
X121971D01*
X90500Y110500D01*
Y94500D01*
X88088Y92088D01*
Y89411D01*
X92100Y85399D01*
X94164D01*
G01X192000Y142500D02*
X192500Y142000D01*
Y132000D01*
X188353Y127853D01*
X130352D01*
X105000Y102501D01*
Y96421D01*
X106060Y95361D01*
Y93160D01*
X105900Y93000D01*
Y90836D01*
G01X99601D02*
Y105602D01*
X127146Y133147D01*
X183647D01*
X187000Y136500D01*
Y146500D01*
X189500Y149000D01*
X191500D01*
G01X102750Y90836D02*
Y93250D01*
X102516Y93484D01*
Y103017D01*
X129117Y129618D01*
X186618D01*
X190000Y133000D01*
Y144000D01*
X191000Y145000D01*
X193500D01*
X195500Y147000D01*
Y172500D01*
X201000Y178000D01*
Y182000D01*
X197500Y185500D01*
G01X98026Y90836D02*
Y106527D01*
X126411Y134912D01*
X182412D01*
X185000Y137500D01*
Y143000D01*
G01X186500Y168500D02*
X190000Y165000D01*
Y156000D01*
X174206Y140206D01*
X122705D01*
X92500Y110001D01*
Y94000D01*
X90020Y91520D01*
Y89479D01*
X92525Y86974D01*
X94164D01*
G01X197500Y180500D02*
X193750Y176750D01*
Y147670D01*
X193080Y147000D01*
X190000D01*
X188500Y145500D01*
Y135000D01*
X184882Y131382D01*
X128381D01*
X101176Y104177D01*
Y90836D01*
G01X94164Y88549D02*
X92902D01*
X91951Y89500D01*
Y90950D01*
X94500Y93499D01*
Y109001D01*
X123940Y138441D01*
X178941D01*
X180000Y139500D01*
G01X96451Y90836D02*
Y107952D01*
X125175Y136676D01*
X180676D01*
X182000Y138000D01*
Y141000D01*
X180000Y143000D01*
G01X102142Y293500D02*
Y300992D01*
X102150Y301000D01*
G01X98000Y313205D02*
Y317000D01*
G01X88500Y330150D02*
Y334000D01*
G01X115000Y46295D02*
Y43500D01*
X115500Y43000D01*
G01X213000Y89000D02*
X170000Y46000D01*
X136500D01*
X130500Y40000D01*
X114500D01*
X112962Y41538D01*
Y55539D01*
X105900Y62601D01*
Y67364D01*
G01X182000Y61000D02*
X169000Y48000D01*
X136000D01*
X131000Y43000D01*
X126295D01*
X123000Y46295D01*
G01X119000D02*
Y44170D01*
X120170Y43000D01*
X121500D01*
G01X164024Y111000D02*
X174500D01*
X177000Y113500D01*
X197000D01*
X199000Y111500D01*
Y93500D01*
X163000Y57500D01*
X131500D01*
X129000Y60000D01*
X119500D01*
X113774Y65726D01*
Y67364D01*
G01X123000Y50705D02*
X119000D01*
G01X115000D02*
X119000D01*
G01X115000D02*
Y56000D01*
X107475Y63525D01*
Y67364D01*
G01X110624D02*
Y64876D01*
X120500Y55000D01*
X127500D01*
X131000Y51500D01*
X169000D01*
X214000Y96500D01*
Y162000D01*
X213500Y162500D01*
G01X109050Y67364D02*
Y64451D01*
X120001Y53500D01*
X126330D01*
X127000Y52830D01*
Y50705D01*
G01X112199Y67364D02*
Y65301D01*
X120000Y57500D01*
X128000D01*
X131000Y54500D01*
X165999D01*
X210000Y98501D01*
Y161500D01*
X205000Y166500D01*
Y180500D01*
G01X115349Y67364D02*
Y66151D01*
X119500Y62000D01*
X130000D01*
X133000Y59000D01*
X161500D01*
X197000Y94500D01*
Y99500D01*
X195500Y101000D01*
X189976D01*
G01X163000Y76000D02*
X161500Y77500D01*
X136000D01*
X134000Y79500D01*
X122846D01*
X121671Y80675D01*
X117636D01*
G01X193000Y128500D02*
X190588Y126088D01*
X131588D01*
X107475Y101975D01*
Y90836D01*
G01X109050D02*
Y101050D01*
X118500Y110500D01*
X120000D01*
G01Y100500D02*
X122500Y103000D01*
X125951D01*
X141980Y119029D01*
X195029D01*
X202500Y126500D01*
Y153000D01*
G01X113774Y90836D02*
Y96274D01*
X118000Y100500D01*
X120000D01*
G01Y105500D02*
X112199Y97699D01*
Y90836D01*
G01X125000Y110500D02*
X123000D01*
X120000Y107500D01*
X118500D01*
X110624Y99624D01*
Y90836D01*
G01X202500Y158000D02*
X204500Y156000D01*
Y125500D01*
X196265Y117265D01*
X144764D01*
X125999Y98500D01*
X120000D01*
X117500Y96000D01*
Y95500D01*
G01X202500Y162000D02*
X206500Y158000D01*
Y124000D01*
X198000Y115500D01*
X145999D01*
X126999Y96500D01*
X123500D01*
X122500Y95500D01*
G01X196000Y142500D02*
Y128000D01*
X192324Y124324D01*
X133824D01*
X120000Y110500D01*
G01X197500Y153000D02*
X200500Y150000D01*
Y127500D01*
X193794Y120794D01*
X139293D01*
X126297Y107798D01*
X123798D01*
X121500Y105500D01*
X120000D01*
G01X125000Y110500D02*
X137059Y122559D01*
X193059D01*
X198500Y128000D01*
Y148000D01*
X197500Y149000D01*
G01X116500Y309705D02*
X118000Y311205D01*
Y312000D01*
X123941Y317941D01*
Y321100D01*
G01X136500Y18500D02*
X140000Y15000D01*
X145500D01*
G01X127000Y46295D02*
X129295D01*
X130000Y47000D01*
G01X148000Y26500D02*
Y28500D01*
X145500Y31000D01*
X143177D01*
G01X153500Y32500D02*
Y36500D01*
X149000Y41000D01*
X143177D01*
G01X134000Y49000D02*
X131500D01*
X129795Y50705D01*
X127000D01*
G01X138850Y292500D02*
X136000D01*
X135000Y293500D01*
G01X164024Y101000D02*
X158000D01*
G01X164024Y106000D02*
X156500D01*
G01X155571Y281610D02*
X152110D01*
X151500Y281000D01*
Y272000D01*
X161000Y262500D01*
X249000D01*
X253500Y267000D01*
Y284200D01*
X248200Y289500D01*
G01Y269500D02*
X243200Y264500D01*
X163501D01*
X161673Y266328D01*
Y271571D01*
G01X155571Y295390D02*
X162390D01*
X163000Y296000D01*
G01X145150Y292500D02*
X149000D01*
X152016Y289484D01*
X155571D01*
G01X163000Y292427D02*
X162006Y293421D01*
X155571D01*
G01Y287516D02*
X162400D01*
X163000Y288116D01*
Y292427D01*
G01X179390Y305429D02*
Y299390D01*
X178000Y298000D01*
X159500D01*
X158858Y297358D01*
X155571D01*
G01X158000Y316350D02*
Y305000D01*
X159500Y303500D01*
Y300000D01*
X158827Y299327D01*
X155571D01*
G01X166000Y323142D02*
X158492D01*
X158000Y322650D01*
G01X173484Y305429D02*
Y300500D01*
G01X175453Y305429D02*
Y310000D01*
G01X181358Y305429D02*
Y309358D01*
X182000Y310000D01*
G01X179500Y315795D02*
X182000Y313295D01*
Y310000D01*
G01X177421Y305429D02*
Y300500D01*
G01X171516Y305429D02*
Y302016D01*
X170000Y300500D01*
G01X179000Y310000D02*
Y309500D01*
X179390Y309110D01*
Y305429D01*
G01X179500Y320205D02*
Y324000D01*
G01D02*
X181500Y326000D01*
X198500D01*
X218500Y306000D01*
X250000D01*
X256000Y300000D01*
Y294150D01*
X261200Y288950D01*
G01X252700Y117200D02*
X257700Y112200D01*
Y67200D01*
X240295Y49795D01*
X202705D01*
X202500Y50000D01*
G01X189976Y96000D02*
X183500D01*
G01X189976Y106000D02*
X183500D01*
G01X186500Y310000D02*
Y313795D01*
X184500Y315795D01*
G01X186500Y310000D02*
X185500D01*
X183327Y307827D01*
Y305429D01*
G01X261200Y278950D02*
Y280800D01*
X253500Y288500D01*
Y298500D01*
X248000Y304000D01*
X217500D01*
X197500Y324000D01*
X184500D01*
G01Y320205D02*
Y324000D01*
G01X252700Y137200D02*
X248000Y132500D01*
Y103500D01*
X241500Y97000D01*
Y77500D01*
X232500Y68500D01*
G01X262700Y147200D02*
X257700Y142200D01*
X250700D01*
X246000Y137500D01*
Y106000D01*
X239500Y99500D01*
Y85500D01*
X232500Y78500D01*
G01X252700Y157200D02*
X242000Y146500D01*
Y108000D01*
X232500Y98500D01*
G01X252700Y147200D02*
X244000Y138500D01*
Y106500D01*
X237500Y100000D01*
Y93500D01*
X232500Y88500D01*
G01X262700Y197200D02*
X257700Y192200D01*
X251200D01*
X247500Y188500D01*
Y156000D01*
X240000Y148500D01*
Y116000D01*
X232500Y108500D01*
G01X252700Y197200D02*
X244000Y188500D01*
Y156500D01*
X232500Y145000D01*
Y138500D01*
G01X262700Y217200D02*
Y217300D01*
X258000Y222000D01*
X248000D01*
X235500Y209500D01*
X230000D01*
X228000Y207500D01*
Y181000D01*
X229500Y179500D01*
X236500D01*
X239000Y177000D01*
Y161000D01*
X232500Y154500D01*
G01Y194500D02*
X250500Y212500D01*
X264500D01*
X267500Y215500D01*
Y222400D01*
X262700Y227200D01*
G01Y137200D02*
X268000Y142500D01*
Y199500D01*
X265500Y202000D01*
X250000D01*
X232500Y184500D01*
G01X252700Y217200D02*
X249700D01*
X237000Y204500D01*
X232500D01*
G01X262700Y207200D02*
X263700D01*
X269500Y213000D01*
Y227500D01*
X262500Y234500D01*
X232500D01*
G01X255000Y54500D02*
X267000Y66500D01*
Y122900D01*
X262700Y127200D01*
G54D52*
G01X3070Y196500D02*
X9000D01*
G01X3075Y218206D02*
X9005D01*
G01X13700Y143198D02*
Y147600D01*
G01Y137600D02*
Y142002D01*
G01X9298Y137600D02*
X13700D01*
G01Y153198D02*
Y157600D01*
G01D02*
Y162002D01*
G01X9298Y157600D02*
X13700D01*
G01Y147600D02*
Y152002D01*
G01X9298Y147600D02*
X13700D01*
G01X9000Y190570D02*
Y196500D01*
G01D02*
Y202430D01*
G01Y196500D02*
X14930D01*
G01X9005Y212276D02*
Y218206D01*
G01D02*
Y224136D01*
G01Y218206D02*
X14935D01*
G01X26698Y283300D02*
X31100D01*
G01Y278898D02*
Y283300D01*
G01D02*
Y287702D01*
G01Y283300D02*
X35502D01*
G01X59359Y44241D02*
X61269Y42331D01*
G01X57588Y42470D02*
X59359Y44241D01*
G01D02*
X61130Y46012D01*
G01X66988Y51970D02*
X68759Y53741D01*
G01X68710Y295357D02*
Y294210D01*
X66500Y292000D01*
G01D02*
X69500Y289000D01*
X71146D01*
X72647Y290501D01*
Y295357D01*
G01X65757Y304216D02*
X62284D01*
X62000Y304500D01*
G01X68759Y53741D02*
X70669Y51831D01*
G01X68759Y53741D02*
X70530Y55512D01*
G01X73216Y267201D02*
X78205Y272190D01*
Y281000D01*
X75705Y283500D01*
G01X82784Y274799D02*
X80500Y277083D01*
Y283295D01*
X80295Y283500D01*
G01X79000Y291000D02*
X78553Y291447D01*
Y295357D01*
G01X89000Y299500D02*
X88500D01*
X87310Y298310D01*
X85443D01*
G01X75705Y283500D02*
Y286796D01*
X74616Y287885D01*
Y295357D01*
G01X80295Y283500D02*
X79000Y284795D01*
Y286499D01*
X76584Y288915D01*
Y295357D01*
G01X70500Y291500D02*
X70679Y291679D01*
Y295357D01*
G01X85443Y310121D02*
X88879D01*
X89000Y310000D01*
G01X74616Y315043D02*
Y319884D01*
X74000Y320500D01*
Y323850D01*
G01X102142Y276000D02*
Y283508D01*
X101650Y284000D01*
G01X112327Y328999D02*
Y334535D01*
G01D02*
Y340071D01*
G01X107185Y334535D02*
X112327D01*
G01D02*
X117469D01*
G01X116953Y318861D02*
Y322724D01*
G01D02*
Y326587D01*
G01X113484Y322724D02*
X116953D01*
G01X137000Y80000D02*
X135952D01*
X134451Y81501D01*
Y83451D01*
X134500Y83500D01*
G01X140673Y328999D02*
Y334535D01*
G01D02*
Y340071D01*
G01X135531Y334535D02*
X140673D01*
G01D02*
X145815D01*
G01X136047Y322724D02*
Y326587D01*
G01Y322724D02*
X139516D01*
G01X160500Y281500D02*
X158642Y279642D01*
X155571D01*
G01X160500Y277000D02*
X159827Y277673D01*
X155571D01*
G01X162000Y310500D02*
X163000D01*
X163642Y309858D01*
Y305429D01*
G01X161673D02*
Y300673D01*
X161500Y300500D01*
G01X181358Y271571D02*
Y267000D01*
G01X175453Y271571D02*
Y267047D01*
X175500Y267000D01*
G01X183327Y271571D02*
Y268173D01*
X184500Y267000D01*
G01X169500Y310500D02*
X169547Y310453D01*
Y305429D01*
G01X196100Y5798D02*
Y10200D01*
G01X201698D02*
X206100D01*
G01X196100D02*
Y14602D01*
G01X191698Y10200D02*
X196100D01*
G01D02*
X200502D01*
G01X201998Y39200D02*
X206400D01*
G01X196400Y34798D02*
Y39200D01*
G01D02*
Y43602D01*
G01X191998Y39200D02*
X196400D01*
G01D02*
X200802D01*
G01X189429Y277673D02*
X184173D01*
X184000Y277500D01*
G01X197500Y292705D02*
X194705D01*
X193453Y291453D01*
X189429D01*
G01X184500Y289000D02*
X184878D01*
X185362Y289484D01*
X189429D01*
G01Y293421D02*
X184579D01*
X184500Y293500D01*
G01X201000Y299850D02*
X200350Y300500D01*
X195812D01*
X192670Y297358D01*
X189429D01*
G01X201000Y306150D02*
X198650D01*
X191827Y299327D01*
X189429D01*
G01X206100Y5798D02*
Y10200D01*
G01D02*
Y14602D01*
G01Y10200D02*
X210502D01*
G01X206400Y34798D02*
Y39200D01*
G01D02*
Y43602D01*
G01Y39200D02*
X210802D01*
G01X258345Y117200D02*
X262700D01*
G01X256798Y268950D02*
X261200D01*
G01X262700Y82845D02*
Y87200D01*
G01Y92845D02*
Y97200D01*
G01D02*
Y101555D01*
G01Y102845D02*
Y107200D01*
G01Y87200D02*
Y91555D01*
G01Y112845D02*
Y117200D01*
G01D02*
Y121555D01*
G01Y107200D02*
Y111555D01*
G01X261200Y264548D02*
Y268950D01*
G01D02*
Y273352D01*
G01Y268950D02*
X265602D01*
G54D34*
X95350Y284000D03*
X101650D03*
X95850Y301000D03*
X102150D03*
X138850Y292500D03*
X145150D03*
G54D25*
X75600Y305200D03*
G54D16*
X49141Y41041D03*
X52259Y44159D03*
X59441Y50441D03*
X62559Y53559D03*
X69941Y60941D03*
X73059Y64059D03*
G54D43*
X130200Y70000D03*
X143800D03*
G54D53*
G01X45626Y3859D02*
X38203D01*
Y16359D01*
X30703D01*
Y3859D01*
X23203D01*
Y16359D01*
X15703D01*
Y3859D01*
X8203D01*
Y19848D01*
G01X49168Y4634D02*
Y3859D01*
X45626D01*
G01X45703Y23723D02*
Y3936D01*
X45626Y3859D01*
G01X90000Y193500D02*
Y187500D01*
X99500Y178000D01*
X146500D01*
G01X99500Y190000D02*
X105500Y184000D01*
X154500D01*
X164500Y174000D01*
G01X138000Y61500D02*
X143800Y67300D01*
Y70000D01*
G01X131500Y260000D02*
Y263350D01*
X134500Y266350D01*
G01X144705Y300500D02*
X149000D01*
G01X144150Y306000D02*
X150000D01*
G01X164024Y96000D02*
X158000D01*
G01X183500Y91795D02*
X174705D01*
X170500Y96000D01*
X164024D01*
G01X145205Y311500D02*
X148500D01*
X149000Y311000D01*
G01X190500Y91500D02*
X183795D01*
X183500Y91795D01*
G01X174500Y166000D02*
Y173500D01*
X185000Y184000D01*
G01X166000Y315858D02*
Y311000D01*
G01X185000Y25500D02*
Y46500D01*
G01X189976Y111000D02*
X196000D01*
G01X232500Y224500D02*
X201205D01*
X198205Y221500D01*
G54D26*
X74000Y323850D03*
Y330150D03*
X81000Y323850D03*
Y330150D03*
X88500Y323850D03*
Y330150D03*
X124000Y309650D03*
Y303350D03*
X129500Y212150D03*
Y205850D03*
X141000Y272650D03*
Y266350D03*
X130500Y309650D03*
Y303350D03*
X158000Y316350D03*
Y322650D03*
X178500Y212650D03*
Y206350D03*
X201000Y299850D03*
Y306150D03*
G54D35*
X123760Y196000D03*
X131240D03*
G54D44*
X140251Y84279D03*
Y94121D03*
G54D17*
X65757Y298310D03*
Y312090D03*
Y310121D03*
Y308153D03*
Y306184D03*
Y304216D03*
Y302247D03*
Y300279D03*
X85443Y298310D03*
Y300279D03*
Y302247D03*
Y304216D03*
Y306184D03*
Y308153D03*
Y310121D03*
Y312090D03*
G54D54*
G01X28000Y45000D02*
Y50000D01*
X31000Y53000D01*
X36000D01*
X39000Y50000D01*
Y45000D01*
X36000Y42000D01*
X31000D01*
X28000Y45000D01*
G01X27500Y316000D02*
Y321000D01*
X30500Y324000D01*
X35500D01*
X38500Y321000D01*
Y316000D01*
X35500Y313000D01*
X30500D01*
X27500Y316000D01*
G01X77000Y92000D02*
Y105000D01*
G01D02*
Y115500D01*
X83000Y121500D01*
G01X82000Y92000D02*
Y105000D01*
G01D02*
Y113500D01*
X87000Y118500D01*
G01X83000Y121500D02*
X90500Y129000D01*
G01X105500Y54000D02*
Y53200D01*
X106700Y52000D01*
X108500D01*
X109500Y51000D01*
G01X95500Y54795D02*
Y52000D01*
X95000Y51500D01*
G01X87000Y118500D02*
X95000Y126500D01*
G01X110500Y149000D02*
X98500Y137000D01*
G01X113500Y145000D02*
X102500Y134000D01*
G01X95000Y126500D02*
X102500Y134000D01*
G01X90500Y129000D02*
X98500Y137000D01*
G01X121500Y67500D02*
Y68950D01*
X120725Y69725D01*
G01X124500Y67500D02*
Y68500D01*
X121500Y71500D01*
G01X122500Y92000D02*
X125000Y94500D01*
X127500D01*
X128000Y95000D01*
X128500D01*
G01X110500Y149000D02*
X116000Y154500D01*
X131000D01*
G01Y150000D02*
X118500D01*
X113500Y145000D01*
G01X127500Y284000D02*
X125000Y286500D01*
X123500D01*
G01X120000Y302500D02*
Y294350D01*
X123500Y290850D01*
G01X122500Y313500D02*
X122000D01*
X120000Y311500D01*
Y302500D01*
G01X144500Y61500D02*
X160000D01*
X163000Y64500D01*
G01X136000Y99000D02*
X146500D01*
G01X139000Y150000D02*
X131000D01*
G01Y154500D02*
X139000D01*
G01X149500Y150000D02*
X139000D01*
G01Y154500D02*
X149000D01*
X149500Y154000D01*
G01X136000Y281500D02*
X130000D01*
X127500Y284000D01*
G01X147000Y281500D02*
X136000D01*
G01X155000Y150500D02*
X154500Y150000D01*
X149500D01*
G01Y154000D02*
X150500Y155000D01*
X153500D01*
X155000Y153500D01*
Y150500D01*
G01X175500Y15000D02*
X183500D01*
G01X177823Y41000D02*
X171000D01*
G01X177823Y31000D02*
X171500D01*
G01X235000Y313000D02*
Y318000D01*
X238000Y321000D01*
X243000D01*
X246000Y318000D01*
Y313000D01*
X243000Y310000D01*
X238000D01*
X235000Y313000D01*
G54D36*
X123500Y212150D03*
Y205850D03*
Y297150D03*
Y290850D03*
X134500Y272650D03*
Y266350D03*
X131000Y290850D03*
Y297150D03*
X172000Y212650D03*
Y206350D03*
G54D45*
X144150Y306000D03*
X137850D03*
G54D18*
X66000Y331642D03*
Y324358D03*
X166000Y315858D03*
Y323142D03*
G54D27*
X104784Y47299D03*
X95216Y39701D03*
Y47299D03*
X104784Y39701D03*
G54D55*
G01X49306Y19303D02*
X49303Y12033D01*
Y6785D01*
X49302Y4768D01*
X49168Y4634D01*
G54D46*
X164024Y106000D03*
Y101000D03*
Y96000D03*
Y111000D03*
X189976Y96000D03*
Y101000D03*
Y106000D03*
Y111000D03*
G54D19*
X81300Y4179D03*
G54D28*
X96451Y67364D03*
X98026D03*
X99601D03*
X101176D03*
X102750D03*
X104325D03*
Y90836D03*
X102750D03*
X101176D03*
X99601D03*
X98026D03*
X96451D03*
X105900Y67364D03*
X107475D03*
X109050D03*
X110624D03*
X112199D03*
X113774D03*
X115349D03*
Y90836D03*
X113774D03*
X112199D03*
X110624D03*
X109050D03*
X107475D03*
X105900D03*
G54D37*
X123500Y221200D03*
Y234800D03*
X172000Y221700D03*
Y235300D03*
G54D56*
G01X66000Y324358D02*
Y319500D01*
G01Y331642D02*
X72508D01*
X74000Y330150D01*
G01X82784Y267201D02*
X87799D01*
X88000Y267000D01*
G01X78000Y263000D02*
X68000D01*
X67500Y263500D01*
G01X73216Y274799D02*
X67799D01*
X67500Y274500D01*
G01X71295Y283500D02*
Y281205D01*
X73500Y279000D01*
G01X73216Y274799D02*
X73500Y275083D01*
Y279000D01*
G01X67500Y274500D02*
Y268500D01*
G01Y263500D02*
Y268500D01*
G01X88000Y267000D02*
Y264500D01*
X86500Y263000D01*
X78000D01*
G01X88000Y277500D02*
Y280205D01*
X84705Y283500D01*
G01X95216Y47299D02*
X90500D01*
G01Y35500D02*
Y47299D01*
G01Y35500D02*
X100000D01*
G01D02*
X109500D01*
G01X95000Y51500D02*
X95216Y51284D01*
Y47299D01*
G01X109500Y39500D02*
X104985D01*
X104784Y39701D01*
G01X90000Y54795D02*
Y51500D01*
G01X100500Y54795D02*
Y52000D01*
X101000Y51500D01*
G01X158500Y173500D02*
X151000Y181000D01*
X102500D01*
X93500Y190000D01*
G01X105000Y216295D02*
X101000D01*
G01X118000Y210705D02*
X108295D01*
X105000Y214000D01*
Y216295D01*
G01X100594Y227760D02*
X99760D01*
X98500Y226500D01*
Y222645D01*
X100440Y220705D01*
X101000D01*
G01X105000D02*
X109000D01*
G01X101000D02*
X105000D01*
G01X88000Y272500D02*
Y277500D01*
G01Y267000D02*
Y272500D01*
G01X94858Y276000D02*
Y271142D01*
X95000Y271000D01*
G01X94858Y293500D02*
Y289142D01*
X95000Y289000D01*
G01X109500Y35500D02*
Y39500D01*
G01D02*
Y51000D01*
G01X125000Y71000D02*
Y72751D01*
X123375Y74376D01*
G01X123351Y77000D02*
X124999Y77001D01*
X130200Y71800D01*
Y70000D01*
G01X109000Y216295D02*
X112000D01*
G01X110906Y231500D02*
X115000D01*
G01X110906Y227760D02*
X115000D01*
G01X121500Y277000D02*
X123000Y275500D01*
X125906D01*
G01X115594Y279240D02*
X111500D01*
G01X116500Y305295D02*
Y290000D01*
X107500Y281000D01*
Y277000D01*
X111500Y273000D01*
G01Y269500D02*
Y273000D01*
G01X123500Y286500D02*
Y290850D01*
G01X121382Y321100D02*
Y327118D01*
G01X134500Y83500D02*
X134000D01*
X132795Y82295D01*
X131451D01*
G01X137000Y80000D02*
X145451D01*
X145951Y80500D01*
G01X131451Y95705D02*
X129205D01*
X128500Y95000D01*
G01X131451Y95705D02*
X134746Y99000D01*
X136000D01*
G01X131000Y290850D02*
X133150D01*
X135000Y289000D01*
G01X147500Y288500D02*
X135500D01*
X135000Y289000D01*
G01X132679Y317821D02*
X131618Y318882D01*
Y321100D01*
G01X146500Y86000D02*
Y81049D01*
X145951Y80500D01*
G01X146500Y86000D02*
Y92000D01*
G01Y99000D02*
Y92000D01*
G01X149500Y216295D02*
Y212500D01*
G01X157500Y220705D02*
X153500D01*
G01X149500D02*
X153500D01*
G01X149094Y227760D02*
X148501D01*
X147000Y226259D01*
Y223207D01*
X149500Y220707D01*
Y220705D01*
G01X157500Y216295D02*
Y213500D01*
X159295Y211705D01*
X166500D01*
G01X153500Y216295D02*
X157500D01*
G01X159406Y231500D02*
X163500D01*
G01X159406Y227760D02*
X163500D01*
G01X197500Y279795D02*
Y276500D01*
X199000Y275000D01*
X200000D01*
G01X197500Y279795D02*
X194500D01*
G01X205000Y275000D02*
X200000D01*
G01X197500Y292705D02*
X200500D01*
G01X208500Y295561D02*
X202000D01*
X200500Y294061D01*
Y292705D01*
G01X211000Y275000D02*
X205000D01*
G01X217500D02*
X211000D01*
G01X217500Y282500D02*
Y275000D01*
G01X205201Y281216D02*
Y275201D01*
X205000Y275000D01*
G01X212799Y290784D02*
X217500D01*
G01D02*
Y282500D01*
G01X208500Y295561D02*
X217500D01*
G01D02*
Y290784D01*
G01X248200Y275098D02*
Y279500D01*
G01X243798D02*
X248200D01*
G54D38*
X123941Y321100D03*
X121382D03*
X131618D03*
X129059D03*
X126500D03*
G54D29*
X95500Y59205D03*
Y54795D03*
X100500D03*
Y59205D03*
X90000D03*
Y54795D03*
X101000Y220705D03*
Y216295D03*
X105000Y220705D03*
Y216295D03*
X98000Y313205D03*
Y308795D03*
X123000Y46295D03*
X115000D03*
X119000D03*
X123000Y50705D03*
X115000D03*
X119000D03*
X118000Y206295D03*
Y210705D03*
X109000Y216295D03*
Y220705D03*
X116500Y305295D03*
Y309705D03*
X127000Y46295D03*
Y50705D03*
X131451Y82295D03*
Y86705D03*
X127451Y86795D03*
X131451Y95705D03*
Y91295D03*
X127451Y91205D03*
X157500Y220705D03*
Y216295D03*
X153500Y220705D03*
Y216295D03*
X149500D03*
Y220705D03*
X166500Y207295D03*
Y211705D03*
X179500Y315795D03*
Y320205D03*
X197500Y279795D03*
Y284205D03*
Y288295D03*
Y292705D03*
X184500Y315795D03*
Y320205D03*
G54D47*
X163642Y271571D03*
X161673D03*
Y305429D03*
X163642D03*
X183327Y271571D03*
X181358D03*
X179390D03*
X177421D03*
X175453D03*
X173484D03*
X171516D03*
X169547D03*
X167579D03*
X165610D03*
Y305429D03*
X167579D03*
X169547D03*
X171516D03*
X173484D03*
X175453D03*
X177421D03*
X179390D03*
X181358D03*
X183327D03*
G54D57*
G01X73000Y4000D02*
X73179Y4179D01*
G01X81300D02*
Y9300D01*
G01X73179Y4179D02*
X81300D01*
G01Y9300D02*
X81500Y9500D01*
G01X89821Y4179D02*
X81300D01*
G01X90000Y4000D02*
X89821Y4179D01*
G01X134821Y317821D02*
X132679D01*
G54D39*
X116953Y322724D03*
X136047D03*
G54D48*
X155571Y277673D03*
Y279642D03*
Y281610D03*
Y283579D03*
Y285547D03*
Y287516D03*
Y289484D03*
Y291453D03*
Y293421D03*
Y295390D03*
Y297358D03*
Y299327D03*
X189429Y279642D03*
Y277673D03*
Y299327D03*
Y297358D03*
Y295390D03*
Y293421D03*
Y291453D03*
Y289484D03*
Y287516D03*
Y285547D03*
Y283579D03*
Y281610D03*
G54D58*
G01X115349Y90836D02*
Y93349D01*
X117500Y95500D01*
G01X122500D02*
X119500Y92500D01*
Y89649D01*
X118400Y88549D01*
X117636D01*
G01X195000Y296000D02*
X194390Y295390D01*
X189429D01*
G54D49*
X212799Y281216D03*
X205201D03*
Y290784D03*
X212799D03*
G54D59*
G01X87651Y69651D02*
X94164D01*
G01X100500Y59205D02*
X103000Y56705D01*
Y49083D01*
X104784Y47299D01*
G01X95500Y59205D02*
X98000Y56705D01*
Y51500D01*
X100205Y49295D01*
Y44690D01*
X95216Y39701D01*
G01X101176Y67364D02*
Y62177D01*
X100500Y61501D01*
Y59205D01*
G01X99601Y67364D02*
Y63306D01*
X95500Y59205D01*
G01X93500Y63500D02*
X94000D01*
X96451Y65951D01*
Y67364D01*
G01X90000Y59205D02*
X92295Y61500D01*
X93978D01*
X93982Y61504D01*
X94504D01*
X98026Y65026D01*
Y67364D01*
G01X98000Y82000D02*
Y81475D01*
X97200Y80675D01*
X94164D01*
G01X90000Y73500D02*
X90699Y72801D01*
X94164D01*
G01X87000Y73500D02*
X89274Y71226D01*
X94164D01*
G01X104325Y90836D02*
Y94500D01*
G01X117636Y69651D02*
X118200D01*
X119000Y68851D01*
Y66500D01*
X121000Y64500D01*
G01X122819Y82191D02*
X122809D01*
X122800Y82200D01*
X117686D01*
X117636Y82250D01*
G01X123375Y74376D02*
X122051Y75700D01*
X119666D01*
X119416Y75950D01*
X117636D01*
G01X127451Y86795D02*
X126246Y88000D01*
X122954D01*
X120353Y85399D01*
X117636D01*
G01X120951Y78800D02*
X120651Y79100D01*
X117636D01*
G01X120725Y69725D02*
X119224Y71226D01*
X117636D01*
G01Y77525D02*
X119680D01*
X120205Y77000D01*
X123351D01*
G01X121500Y71500D02*
X121050Y71950D01*
X120355D01*
X119805Y72500D01*
X119789D01*
X119488Y72801D01*
X117636D01*
G01X121101Y73750D02*
X120475Y74376D01*
X117636D01*
G01X122500Y85000D02*
X121324Y83824D01*
X117636D01*
G01Y86974D02*
X119474D01*
X122500Y90000D01*
X126246D01*
X127451Y91205D01*
G01X140251Y84279D02*
X138171D01*
X135745Y86705D01*
X131451D01*
G01X127451Y91205D02*
X131361D01*
X131451Y91295D01*
G01X140251Y94121D02*
X138571D01*
X135745Y91295D01*
X131451D01*
G01X127451Y86795D02*
X131361D01*
X131451Y86705D01*
G01X212799Y281216D02*
X208015Y285500D01*
X201500D01*
X200205Y284205D01*
X197500D01*
G01X189429Y285547D02*
X196158D01*
X197500Y284205D01*
G01X189429Y287516D02*
X196721D01*
X197500Y288295D01*
G01X205201Y290784D02*
X202212Y288295D01*
X197500D01*
M02*
