G04 ================== begin FILE IDENTIFICATION RECORD ==================*
G04 Layout Name:  DEV_SUB_AUDIO_BRD_V1_1-20170606.brd*
G04 Film Name:    DRILL-1-4*
G04 File Format:  Gerber RS274X*
G04 File Origin:  Cadence Allegro 16.6-S012*
G04 Origin Date:  Tue Jun 06 20:57:13 2017*
G04 *
G04 Layer:  MANUFACTURING/NCLEGEND-1-4*
G04 Layer:  BOARD GEOMETRY/OUTLINE*
G04 Layer:  BOARD GEOMETRY/DIMENSION*
G04 *
G04 Offset:    (0.00 0.00)*
G04 Mirror:    No*
G04 Mode:      Positive*
G04 Rotation:  0*
G04 FullContactRelief:  No*
G04 UndefLineWidth:     1.00*
G04 ================== end FILE IDENTIFICATION RECORD ====================*
%FSLAX25Y25*MOIN*%
%IR0*IPPOS*OFA0.00000B0.00000*MIA0B0*SFA1.00000B1.00000*%
%AMMACRO10*
1,1,.001,.005,0.0*
20,1,.001,.005,0.0,-.005,0.0,0.0*
1,1,.001,-.005,0.0*
1,1,.001,0.0,.005*
20,1,.001,0.0,.005,0.0,-.005,0.0*
1,1,.001,0.0,-.005*
%
%ADD10MACRO10*%
%AMMACRO13*
1,1,.001,.008317,-.02008*
20,1,.001,.008317,-.02008,-.008317,-.02008,0.0*
1,1,.001,-.008317,-.02008*
20,1,.001,-.008317,-.02008,-.02008,-.008317,0.0*
1,1,.001,-.02008,-.008317*
20,1,.001,-.02008,-.008317,-.02008,.008317,0.0*
1,1,.001,-.02008,.008317*
20,1,.001,-.02008,.008317,-.008317,.02008,0.0*
1,1,.001,-.008317,.02008*
20,1,.001,-.008317,.02008,.008317,.02008,0.0*
1,1,.001,.008317,.02008*
20,1,.001,.008317,.02008,.02008,.008317,0.0*
1,1,.001,.02008,.008317*
20,1,.001,.02008,.008317,.02008,-.008317,0.0*
1,1,.001,.02008,-.008317*
20,1,.001,.02008,-.008317,.008317,-.02008,0.0*
1,1,.001,.008317,-.02008*
%
%ADD13MACRO13*%
%AMMACRO16*
1,1,.001,.02008,0.0*
20,1,.001,.02008,0.0,0.0,-.02008,0.0*
1,1,.001,0.0,-.02008*
20,1,.001,0.0,-.02008,-.02008,0.0,0.0*
1,1,.001,-.02008,0.0*
20,1,.001,-.02008,0.0,0.0,.02008,0.0*
1,1,.001,0.0,.02008*
20,1,.001,0.0,.02008,.02008,0.0,0.0*
1,1,.001,.02008,0.0*
%
%ADD16MACRO16*%
%AMMACRO18*
1,1,.001,.01378,.01378*
20,1,.001,.01378,.01378,.01378,-.01378,0.0*
1,1,.001,.01378,-.01378*
20,1,.001,.01378,-.01378,-.01378,-.01378,0.0*
1,1,.001,-.01378,-.01378*
20,1,.001,-.01378,-.01378,-.01378,.01378,0.0*
1,1,.001,-.01378,.01378*
20,1,.001,-.01378,.01378,.01378,.01378,0.0*
1,1,.001,.01378,.01378*
%
%ADD18MACRO18*%
%AMMACRO14*
1,1,.001,.031495,.02362*
20,1,.001,.031495,.02362,.031495,-.02362,0.0*
1,1,.001,.031495,-.02362*
20,1,.001,.031495,-.02362,-.031495,-.02362,0.0*
1,1,.001,-.031495,-.02362*
20,1,.001,-.031495,-.02362,-.031495,.02362,0.0*
1,1,.001,-.031495,.02362*
20,1,.001,-.031495,.02362,.031495,.02362,0.0*
1,1,.001,.031495,.02362*
%
%ADD14MACRO14*%
%AMMACRO15*
1,1,.001,-.012,-.018*
20,1,.001,-.012,-.018,-.012,.018,0.0*
1,1,.001,-.012,.018*
20,1,.001,-.012,.018,-.011818,.020084,0.0*
1,1,.001,-.011818,.020084*
20,1,.001,-.011818,.020084,-.011276,.022104,0.0*
1,1,.001,-.011276,.022104*
20,1,.001,-.011276,.022104,-.010392,.024,0.0*
1,1,.001,-.010392,.024*
20,1,.001,-.010392,.024,-.009193,.025713,0.0*
1,1,.001,-.009193,.025713*
20,1,.001,-.009193,.025713,-.007713,.027193,0.0*
1,1,.001,-.007713,.027193*
20,1,.001,-.007713,.027193,-.006,.028392,0.0*
1,1,.001,-.006,.028392*
20,1,.001,-.006,.028392,-.004104,.029276,0.0*
1,1,.001,-.004104,.029276*
20,1,.001,-.004104,.029276,-.002084,.029818,0.0*
1,1,.001,-.002084,.029818*
20,1,.001,-.002084,.029818,0.0,.03,0.0*
1,1,.001,0.0,.03*
20,1,.001,0.0,.03,.002084,.029818,0.0*
1,1,.001,.002084,.029818*
20,1,.001,.002084,.029818,.004104,.029276,0.0*
1,1,.001,.004104,.029276*
20,1,.001,.004104,.029276,.006,.028392,0.0*
1,1,.001,.006,.028392*
20,1,.001,.006,.028392,.007713,.027193,0.0*
1,1,.001,.007713,.027193*
20,1,.001,.007713,.027193,.009193,.025713,0.0*
1,1,.001,.009193,.025713*
20,1,.001,.009193,.025713,.010392,.024,0.0*
1,1,.001,.010392,.024*
20,1,.001,.010392,.024,.011276,.022104,0.0*
1,1,.001,.011276,.022104*
20,1,.001,.011276,.022104,.011818,.020084,0.0*
1,1,.001,.011818,.020084*
20,1,.001,.011818,.020084,.012,.018,0.0*
1,1,.001,.012,.018*
20,1,.001,.012,.018,.012,-.018,0.0*
1,1,.001,.012,-.018*
20,1,.001,.012,-.018,.011818,-.020084,0.0*
1,1,.001,.011818,-.020084*
20,1,.001,.011818,-.020084,.011276,-.022104,0.0*
1,1,.001,.011276,-.022104*
20,1,.001,.011276,-.022104,.010392,-.024,0.0*
1,1,.001,.010392,-.024*
20,1,.001,.010392,-.024,.009193,-.025713,0.0*
1,1,.001,.009193,-.025713*
20,1,.001,.009193,-.025713,.007713,-.027193,0.0*
1,1,.001,.007713,-.027193*
20,1,.001,.007713,-.027193,.006,-.028392,0.0*
1,1,.001,.006,-.028392*
20,1,.001,.006,-.028392,.004104,-.029276,0.0*
1,1,.001,.004104,-.029276*
20,1,.001,.004104,-.029276,.002084,-.029818,0.0*
1,1,.001,.002084,-.029818*
20,1,.001,.002084,-.029818,0.0,-.03,0.0*
1,1,.001,0.0,-.03*
20,1,.001,0.0,-.03,-.002084,-.029818,0.0*
1,1,.001,-.002084,-.029818*
20,1,.001,-.002084,-.029818,-.004104,-.029276,0.0*
1,1,.001,-.004104,-.029276*
20,1,.001,-.004104,-.029276,-.006,-.028392,0.0*
1,1,.001,-.006,-.028392*
20,1,.001,-.006,-.028392,-.007713,-.027193,0.0*
1,1,.001,-.007713,-.027193*
20,1,.001,-.007713,-.027193,-.009193,-.025713,0.0*
1,1,.001,-.009193,-.025713*
20,1,.001,-.009193,-.025713,-.010392,-.024,0.0*
1,1,.001,-.010392,-.024*
20,1,.001,-.010392,-.024,-.011276,-.022104,0.0*
1,1,.001,-.011276,-.022104*
20,1,.001,-.011276,-.022104,-.011818,-.020084,0.0*
1,1,.001,-.011818,-.020084*
20,1,.001,-.011818,-.020084,-.012,-.018,0.0*
1,1,.001,-.012,-.018*
1,1,.001,-.006,-.006*
20,1,.001,-.006,-.006,-.0076,-.0058,0.0*
1,1,.001,-.0076,-.0058*
20,1,.001,-.0076,-.0058,-.009,-.005,0.0*
1,1,.001,-.009,-.005*
20,1,.001,-.009,-.005,-.0102,-.0038,0.0*
1,1,.001,-.0102,-.0038*
20,1,.001,-.0102,-.0038,-.011,-.0024,0.0*
1,1,.001,-.011,-.0024*
20,1,.001,-.011,-.0024,-.0114,-.0008,0.0*
1,1,.001,-.0114,-.0008*
20,1,.001,-.0114,-.0008,-.0114,.0008,0.0*
1,1,.001,-.0114,.0008*
20,1,.001,-.0114,.0008,-.011,.0024,0.0*
1,1,.001,-.011,.0024*
20,1,.001,-.011,.0024,-.0102,.0038,0.0*
1,1,.001,-.0102,.0038*
20,1,.001,-.0102,.0038,-.009,.005,0.0*
1,1,.001,-.009,.005*
20,1,.001,-.009,.005,-.0076,.0058,0.0*
1,1,.001,-.0076,.0058*
20,1,.001,-.0076,.0058,-.006,.006,0.0*
1,1,.001,-.006,.006*
20,1,.001,-.006,.006,-.0044,.0058,0.0*
1,1,.001,-.0044,.0058*
20,1,.001,-.0044,.0058,-.003,.005,0.0*
1,1,.001,-.003,.005*
20,1,.001,-.003,.005,-.0018,.0038,0.0*
1,1,.001,-.0018,.0038*
20,1,.001,-.0018,.0038,-.001,.0024,0.0*
1,1,.001,-.001,.0024*
20,1,.001,-.001,.0024,-.0006,.0008,0.0*
1,1,.001,-.0006,.0008*
20,1,.001,-.0006,.0008,-.0006,-.0008,0.0*
1,1,.001,-.0006,-.0008*
20,1,.001,-.0006,-.0008,-.001,-.0024,0.0*
1,1,.001,-.001,-.0024*
20,1,.001,-.001,-.0024,-.0018,-.0038,0.0*
1,1,.001,-.0018,-.0038*
20,1,.001,-.0018,-.0038,-.003,-.005,0.0*
1,1,.001,-.003,-.005*
20,1,.001,-.003,-.005,-.0044,-.0058,0.0*
1,1,.001,-.0044,-.0058*
20,1,.001,-.0044,-.0058,-.006,-.006,0.0*
1,1,.001,-.006,-.006*
1,1,.001,.00101,-.006*
20,1,.001,.00101,-.006,.00601,.006,0.0*
1,1,.001,.00601,.006*
20,1,.001,.00601,.006,.01101,-.006,0.0*
1,1,.001,.01101,-.006*
1,1,.001,.00921,-.0018*
20,1,.001,.00921,-.0018,.00281,-.0018,0.0*
1,1,.001,.00281,-.0018*
%
%ADD15MACRO15*%
%AMMACRO11*
1,1,.001,.018,0.0*
20,1,.001,.018,0.0,.009,.015588,0.0*
1,1,.001,.009,.015588*
20,1,.001,.009,.015588,-.009,.015588,0.0*
1,1,.001,-.009,.015588*
20,1,.001,-.009,.015588,-.018,0.0,0.0*
1,1,.001,-.018,0.0*
20,1,.001,-.018,0.0,-.009,-.015588,0.0*
1,1,.001,-.009,-.015588*
20,1,.001,-.009,-.015588,.009,-.015588,0.0*
1,1,.001,.009,-.015588*
20,1,.001,.009,-.015588,.018,0.0,0.0*
1,1,.001,.018,0.0*
%
%ADD11MACRO11*%
%AMMACRO12*
1,1,.001,-.003935,.011815*
20,1,.001,-.003935,.011815,.003935,.011815,0.0*
1,1,.001,.003935,.011815*
20,1,.001,.003935,.011815,.005987,.011636,0.0*
1,1,.001,.005987,.011636*
20,1,.001,.005987,.011636,.007976,.011102,0.0*
1,1,.001,.007976,.011102*
20,1,.001,.007976,.011102,.009842,.010232,0.0*
1,1,.001,.009842,.010232*
20,1,.001,.009842,.010232,.01153,.009051,0.0*
1,1,.001,.01153,.009051*
20,1,.001,.01153,.009051,.012986,.007595,0.0*
1,1,.001,.012986,.007595*
20,1,.001,.012986,.007595,.014167,.005908,0.0*
1,1,.001,.014167,.005908*
20,1,.001,.014167,.005908,.015037,.004041,0.0*
1,1,.001,.015037,.004041*
20,1,.001,.015037,.004041,.015571,.002052,0.0*
1,1,.001,.015571,.002052*
20,1,.001,.015571,.002052,.01575,0.0,0.0*
1,1,.001,.01575,0.0*
20,1,.001,.01575,0.0,.015571,-.002052,0.0*
1,1,.001,.015571,-.002052*
20,1,.001,.015571,-.002052,.015037,-.004041,0.0*
1,1,.001,.015037,-.004041*
20,1,.001,.015037,-.004041,.014167,-.005907,0.0*
1,1,.001,.014167,-.005907*
20,1,.001,.014167,-.005907,.012986,-.007595,0.0*
1,1,.001,.012986,-.007595*
20,1,.001,.012986,-.007595,.01153,-.009051,0.0*
1,1,.001,.01153,-.009051*
20,1,.001,.01153,-.009051,.009843,-.010232,0.0*
1,1,.001,.009843,-.010232*
20,1,.001,.009843,-.010232,.007976,-.011102,0.0*
1,1,.001,.007976,-.011102*
20,1,.001,.007976,-.011102,.005987,-.011636,0.0*
1,1,.001,.005987,-.011636*
20,1,.001,.005987,-.011636,.003935,-.011815,0.0*
1,1,.001,.003935,-.011815*
20,1,.001,.003935,-.011815,-.003935,-.011815,0.0*
1,1,.001,-.003935,-.011815*
20,1,.001,-.003935,-.011815,-.005987,-.011636,0.0*
1,1,.001,-.005987,-.011636*
20,1,.001,-.005987,-.011636,-.007976,-.011102,0.0*
1,1,.001,-.007976,-.011102*
20,1,.001,-.007976,-.011102,-.009842,-.010232,0.0*
1,1,.001,-.009842,-.010232*
20,1,.001,-.009842,-.010232,-.01153,-.009051,0.0*
1,1,.001,-.01153,-.009051*
20,1,.001,-.01153,-.009051,-.012986,-.007595,0.0*
1,1,.001,-.012986,-.007595*
20,1,.001,-.012986,-.007595,-.014167,-.005908,0.0*
1,1,.001,-.014167,-.005908*
20,1,.001,-.014167,-.005908,-.015037,-.004041,0.0*
1,1,.001,-.015037,-.004041*
20,1,.001,-.015037,-.004041,-.015571,-.002052,0.0*
1,1,.001,-.015571,-.002052*
20,1,.001,-.015571,-.002052,-.01575,0.0,0.0*
1,1,.001,-.01575,0.0*
20,1,.001,-.01575,0.0,-.015571,.002052,0.0*
1,1,.001,-.015571,.002052*
20,1,.001,-.015571,.002052,-.015037,.004041,0.0*
1,1,.001,-.015037,.004041*
20,1,.001,-.015037,.004041,-.014167,.005907,0.0*
1,1,.001,-.014167,.005907*
20,1,.001,-.014167,.005907,-.012986,.007595,0.0*
1,1,.001,-.012986,.007595*
20,1,.001,-.012986,.007595,-.01153,.009051,0.0*
1,1,.001,-.01153,.009051*
20,1,.001,-.01153,.009051,-.009843,.010232,0.0*
1,1,.001,-.009843,.010232*
20,1,.001,-.009843,.010232,-.007976,.011102,0.0*
1,1,.001,-.007976,.011102*
20,1,.001,-.007976,.011102,-.005987,.011636,0.0*
1,1,.001,-.005987,.011636*
20,1,.001,-.005987,.011636,-.003935,.011815,0.0*
1,1,.001,-.003935,.011815*
%
%ADD12MACRO12*%
%AMMACRO19*
1,1,.001,-.013285,.00443*
20,1,.001,-.013285,.00443,-.013083,.006737,0.0*
1,1,.001,-.013083,.006737*
20,1,.001,-.013083,.006737,-.012484,.008974,0.0*
1,1,.001,-.012484,.008974*
20,1,.001,-.012484,.008974,-.011505,.011072,0.0*
1,1,.001,-.011505,.011072*
20,1,.001,-.011505,.011072,-.010177,.012969,0.0*
1,1,.001,-.010177,.012969*
20,1,.001,-.010177,.012969,-.008539,.014607,0.0*
1,1,.001,-.008539,.014607*
20,1,.001,-.008539,.014607,-.006643,.015935,0.0*
1,1,.001,-.006643,.015935*
20,1,.001,-.006643,.015935,-.004544,.016914,0.0*
1,1,.001,-.004544,.016914*
20,1,.001,-.004544,.016914,-.002307,.017513,0.0*
1,1,.001,-.002307,.017513*
20,1,.001,-.002307,.017513,0.0,.017715,0.0*
1,1,.001,0.0,.017715*
20,1,.001,0.0,.017715,.002307,.017513,0.0*
1,1,.001,.002307,.017513*
20,1,.001,.002307,.017513,.004544,.016914,0.0*
1,1,.001,.004544,.016914*
20,1,.001,.004544,.016914,.006642,.015935,0.0*
1,1,.001,.006642,.015935*
20,1,.001,.006642,.015935,.008539,.014607,0.0*
1,1,.001,.008539,.014607*
20,1,.001,.008539,.014607,.010177,.012969,0.0*
1,1,.001,.010177,.012969*
20,1,.001,.010177,.012969,.011505,.011073,0.0*
1,1,.001,.011505,.011073*
20,1,.001,.011505,.011073,.012484,.008974,0.0*
1,1,.001,.012484,.008974*
20,1,.001,.012484,.008974,.013083,.006737,0.0*
1,1,.001,.013083,.006737*
20,1,.001,.013083,.006737,.013285,.00443,0.0*
1,1,.001,.013285,.00443*
20,1,.001,.013285,.00443,.013285,-.00443,0.0*
1,1,.001,.013285,-.00443*
20,1,.001,.013285,-.00443,.013083,-.006737,0.0*
1,1,.001,.013083,-.006737*
20,1,.001,.013083,-.006737,.012484,-.008974,0.0*
1,1,.001,.012484,-.008974*
20,1,.001,.012484,-.008974,.011505,-.011072,0.0*
1,1,.001,.011505,-.011072*
20,1,.001,.011505,-.011072,.010177,-.012969,0.0*
1,1,.001,.010177,-.012969*
20,1,.001,.010177,-.012969,.008539,-.014607,0.0*
1,1,.001,.008539,-.014607*
20,1,.001,.008539,-.014607,.006643,-.015935,0.0*
1,1,.001,.006643,-.015935*
20,1,.001,.006643,-.015935,.004544,-.016914,0.0*
1,1,.001,.004544,-.016914*
20,1,.001,.004544,-.016914,.002307,-.017513,0.0*
1,1,.001,.002307,-.017513*
20,1,.001,.002307,-.017513,0.0,-.017715,0.0*
1,1,.001,0.0,-.017715*
20,1,.001,0.0,-.017715,-.002307,-.017513,0.0*
1,1,.001,-.002307,-.017513*
20,1,.001,-.002307,-.017513,-.004544,-.016914,0.0*
1,1,.001,-.004544,-.016914*
20,1,.001,-.004544,-.016914,-.006642,-.015935,0.0*
1,1,.001,-.006642,-.015935*
20,1,.001,-.006642,-.015935,-.008539,-.014607,0.0*
1,1,.001,-.008539,-.014607*
20,1,.001,-.008539,-.014607,-.010177,-.012969,0.0*
1,1,.001,-.010177,-.012969*
20,1,.001,-.010177,-.012969,-.011505,-.011073,0.0*
1,1,.001,-.011505,-.011073*
20,1,.001,-.011505,-.011073,-.012484,-.008974,0.0*
1,1,.001,-.012484,-.008974*
20,1,.001,-.012484,-.008974,-.013083,-.006737,0.0*
1,1,.001,-.013083,-.006737*
20,1,.001,-.013083,-.006737,-.013285,-.00443,0.0*
1,1,.001,-.013285,-.00443*
20,1,.001,-.013285,-.00443,-.013285,.00443,0.0*
1,1,.001,-.013285,.00443*
%
%ADD19MACRO19*%
%AMMACRO20*
1,1,.001,0.0,.019685*
20,1,.001,0.0,.019685,-.017048,.009843,0.0*
1,1,.001,-.017048,.009843*
20,1,.001,-.017048,.009843,-.017048,-.009842,0.0*
1,1,.001,-.017048,-.009842*
20,1,.001,-.017048,-.009842,0.0,-.019685,0.0*
1,1,.001,0.0,-.019685*
20,1,.001,0.0,-.019685,.017048,-.009843,0.0*
1,1,.001,.017048,-.009843*
20,1,.001,.017048,-.009843,.017048,.009842,0.0*
1,1,.001,.017048,.009842*
20,1,.001,.017048,.009842,0.0,.019685,0.0*
1,1,.001,0.0,.019685*
%
%ADD20MACRO20*%
%AMMACRO17*
1,1,.001,0.0,.049215*
20,1,.001,0.0,.049215,.049215,-.049215,0.0*
1,1,.001,.049215,-.049215*
20,1,.001,.049215,-.049215,-.049215,-.049215,0.0*
1,1,.001,-.049215,-.049215*
20,1,.001,-.049215,-.049215,0.0,.049215,0.0*
1,1,.001,0.0,.049215*
%
%ADD17MACRO17*%
%ADD21C,.015*%
%ADD22C,.001*%
%ADD23C,.006*%
G75*
%LPD*%
G75*
G36*
G01X-11600Y5300D02*
X-12000D01*
Y5700D01*
X-11600D01*
Y5300D01*
G37*
G36*
G01Y5700D02*
X-12000D01*
Y6100D01*
X-11600D01*
Y5700D01*
G37*
G36*
G01Y6100D02*
X-12000D01*
Y6500D01*
X-11600D01*
Y6100D01*
G37*
G36*
G01X-7200Y4900D02*
X-7600D01*
Y5300D01*
X-7200D01*
Y4900D01*
G37*
G36*
G01Y5300D02*
X-7600D01*
Y5700D01*
X-7200D01*
Y5300D01*
G37*
G36*
G01Y5700D02*
X-7600D01*
Y6100D01*
X-7200D01*
Y5700D01*
G37*
G36*
G01Y6100D02*
X-7600D01*
Y6500D01*
X-7200D01*
Y6100D01*
G37*
G36*
G01X-12000Y9700D02*
X-12400D01*
Y10100D01*
X-12000D01*
Y9700D01*
G37*
G36*
G01X-11600Y6500D02*
X-12000D01*
Y6900D01*
X-11600D01*
Y6500D01*
G37*
G36*
G01Y6900D02*
X-12000D01*
Y7300D01*
X-11600D01*
Y6900D01*
G37*
G36*
G01Y7300D02*
X-12000D01*
Y7700D01*
X-11600D01*
Y7300D01*
G37*
G36*
G01Y7700D02*
X-12000D01*
Y8100D01*
X-11600D01*
Y7700D01*
G37*
G36*
G01Y8100D02*
X-12000D01*
Y8500D01*
X-11600D01*
Y8100D01*
G37*
G36*
G01Y8500D02*
X-12000D01*
Y8900D01*
X-11600D01*
Y8500D01*
G37*
G36*
G01Y8900D02*
X-12000D01*
Y9300D01*
X-11600D01*
Y8900D01*
G37*
G36*
G01Y9300D02*
X-12000D01*
Y9700D01*
X-11600D01*
Y9300D01*
G37*
G36*
G01Y9700D02*
X-12000D01*
Y10100D01*
X-11600D01*
Y9700D01*
G37*
G36*
G01Y10100D02*
X-12000D01*
Y10500D01*
X-11600D01*
Y10100D01*
G37*
G36*
G01X-11200Y7700D02*
X-11600D01*
Y8100D01*
X-11200D01*
Y7700D01*
G37*
G36*
G01X-10800D02*
X-11200D01*
Y8100D01*
X-10800D01*
Y7700D01*
G37*
G36*
G01X-10400D02*
X-10800D01*
Y8100D01*
X-10400D01*
Y7700D01*
G37*
G36*
G01X-10000D02*
X-10400D01*
Y8100D01*
X-10000D01*
Y7700D01*
G37*
G36*
G01X-9600D02*
X-10000D01*
Y8100D01*
X-9600D01*
Y7700D01*
G37*
G36*
G01X-9200D02*
X-9600D01*
Y8100D01*
X-9200D01*
Y7700D01*
G37*
G36*
G01X-8800D02*
X-9200D01*
Y8100D01*
X-8800D01*
Y7700D01*
G37*
G36*
G01X-8400D02*
X-8800D01*
Y8100D01*
X-8400D01*
Y7700D01*
G37*
G36*
G01X-8000D02*
X-8400D01*
Y8100D01*
X-8000D01*
Y7700D01*
G37*
G36*
G01X-7600D02*
X-8000D01*
Y8100D01*
X-7600D01*
Y7700D01*
G37*
G36*
G01Y10100D02*
X-8000D01*
Y10500D01*
X-7600D01*
Y10100D01*
G37*
G36*
G01X-7200Y6500D02*
X-7600D01*
Y6900D01*
X-7200D01*
Y6500D01*
G37*
G36*
G01Y6900D02*
X-7600D01*
Y7300D01*
X-7200D01*
Y6900D01*
G37*
G36*
G01Y7300D02*
X-7600D01*
Y7700D01*
X-7200D01*
Y7300D01*
G37*
G36*
G01Y7700D02*
X-7600D01*
Y8100D01*
X-7200D01*
Y7700D01*
G37*
G36*
G01Y8100D02*
X-7600D01*
Y8500D01*
X-7200D01*
Y8100D01*
G37*
G36*
G01Y8500D02*
X-7600D01*
Y8900D01*
X-7200D01*
Y8500D01*
G37*
G36*
G01Y8900D02*
X-7600D01*
Y9300D01*
X-7200D01*
Y8900D01*
G37*
G36*
G01Y9300D02*
X-7600D01*
Y9700D01*
X-7200D01*
Y9300D01*
G37*
G36*
G01Y9700D02*
X-7600D01*
Y10100D01*
X-7200D01*
Y9700D01*
G37*
G36*
G01Y10100D02*
X-7600D01*
Y10500D01*
X-7200D01*
Y10100D01*
G37*
G36*
G01Y10500D02*
X-7600D01*
Y10900D01*
X-7200D01*
Y10500D01*
G37*
G36*
G01X-12400Y14900D02*
X-12800D01*
Y15300D01*
X-12400D01*
Y14900D01*
G37*
G36*
G01Y16500D02*
X-12800D01*
Y16900D01*
X-12400D01*
Y16500D01*
G37*
G36*
G01X-12000Y14900D02*
X-12400D01*
Y15300D01*
X-12000D01*
Y14900D01*
G37*
G36*
G01Y16500D02*
X-12400D01*
Y16900D01*
X-12000D01*
Y16500D01*
G37*
G36*
G01Y18100D02*
X-12400D01*
Y18500D01*
X-12000D01*
Y18100D01*
G37*
G36*
G01X-11600Y12900D02*
X-12000D01*
Y13300D01*
X-11600D01*
Y12900D01*
G37*
G36*
G01Y13300D02*
X-12000D01*
Y13700D01*
X-11600D01*
Y13300D01*
G37*
G36*
G01Y13700D02*
X-12000D01*
Y14100D01*
X-11600D01*
Y13700D01*
G37*
G36*
G01Y14100D02*
X-12000D01*
Y14500D01*
X-11600D01*
Y14100D01*
G37*
G36*
G01Y14500D02*
X-12000D01*
Y14900D01*
X-11600D01*
Y14500D01*
G37*
G36*
G01Y14900D02*
X-12000D01*
Y15300D01*
X-11600D01*
Y14900D01*
G37*
G36*
G01Y15300D02*
X-12000D01*
Y15700D01*
X-11600D01*
Y15300D01*
G37*
G36*
G01Y15700D02*
X-12000D01*
Y16100D01*
X-11600D01*
Y15700D01*
G37*
G36*
G01Y16100D02*
X-12000D01*
Y16500D01*
X-11600D01*
Y16100D01*
G37*
G36*
G01Y16500D02*
X-12000D01*
Y16900D01*
X-11600D01*
Y16500D01*
G37*
G36*
G01Y16900D02*
X-12000D01*
Y17300D01*
X-11600D01*
Y16900D01*
G37*
G36*
G01Y17300D02*
X-12000D01*
Y17700D01*
X-11600D01*
Y17300D01*
G37*
G36*
G01Y17700D02*
X-12000D01*
Y18100D01*
X-11600D01*
Y17700D01*
G37*
G36*
G01Y18100D02*
X-12000D01*
Y18500D01*
X-11600D01*
Y18100D01*
G37*
G36*
G01Y18500D02*
X-12000D01*
Y18900D01*
X-11600D01*
Y18500D01*
G37*
G36*
G01X-11200Y14900D02*
X-11600D01*
Y15300D01*
X-11200D01*
Y14900D01*
G37*
G36*
G01Y16500D02*
X-11600D01*
Y16900D01*
X-11200D01*
Y16500D01*
G37*
G36*
G01X-10400Y13700D02*
X-10800D01*
Y14100D01*
X-10400D01*
Y13700D01*
G37*
G36*
G01Y14100D02*
X-10800D01*
Y14500D01*
X-10400D01*
Y14100D01*
G37*
G36*
G01Y14500D02*
X-10800D01*
Y14900D01*
X-10400D01*
Y14500D01*
G37*
G36*
G01Y14900D02*
X-10800D01*
Y15300D01*
X-10400D01*
Y14900D01*
G37*
G36*
G01Y15300D02*
X-10800D01*
Y15700D01*
X-10400D01*
Y15300D01*
G37*
G36*
G01Y15700D02*
X-10800D01*
Y16100D01*
X-10400D01*
Y15700D01*
G37*
G36*
G01Y16100D02*
X-10800D01*
Y16500D01*
X-10400D01*
Y16100D01*
G37*
G36*
G01Y16500D02*
X-10800D01*
Y16900D01*
X-10400D01*
Y16500D01*
G37*
G36*
G01X-10000Y16100D02*
X-10400D01*
Y16500D01*
X-10000D01*
Y16100D01*
G37*
G36*
G01X-9600Y15700D02*
X-10000D01*
Y16100D01*
X-9600D01*
Y15700D01*
G37*
G36*
G01X-9200Y15300D02*
X-9600D01*
Y15700D01*
X-9200D01*
Y15300D01*
G37*
G36*
G01X-8800Y14900D02*
X-9200D01*
Y15300D01*
X-8800D01*
Y14900D01*
G37*
G36*
G01X-8400Y14500D02*
X-8800D01*
Y14900D01*
X-8400D01*
Y14500D01*
G37*
G36*
G01X-8000Y14100D02*
X-8400D01*
Y14500D01*
X-8000D01*
Y14100D01*
G37*
G36*
G01X-7600Y13700D02*
X-8000D01*
Y14100D01*
X-7600D01*
Y13700D01*
G37*
G36*
G01Y18500D02*
X-8000D01*
Y18900D01*
X-7600D01*
Y18500D01*
G37*
G36*
G01X-7200Y13700D02*
X-7600D01*
Y14100D01*
X-7200D01*
Y13700D01*
G37*
G36*
G01Y18500D02*
X-7600D01*
Y18900D01*
X-7200D01*
Y18500D01*
G37*
G36*
G01X-6800Y13700D02*
X-7200D01*
Y14100D01*
X-6800D01*
Y13700D01*
G37*
G36*
G01Y18500D02*
X-7200D01*
Y18900D01*
X-6800D01*
Y18500D01*
G37*
G36*
G01X-6400Y14100D02*
X-6800D01*
Y14500D01*
X-6400D01*
Y14100D01*
G37*
G36*
G01Y14500D02*
X-6800D01*
Y14900D01*
X-6400D01*
Y14500D01*
G37*
G36*
G01Y14900D02*
X-6800D01*
Y15300D01*
X-6400D01*
Y14900D01*
G37*
G36*
G01Y15300D02*
X-6800D01*
Y15700D01*
X-6400D01*
Y15300D01*
G37*
G36*
G01Y15700D02*
X-6800D01*
Y16100D01*
X-6400D01*
Y15700D01*
G37*
G36*
G01Y16100D02*
X-6800D01*
Y16500D01*
X-6400D01*
Y16100D01*
G37*
G36*
G01Y16500D02*
X-6800D01*
Y16900D01*
X-6400D01*
Y16500D01*
G37*
G36*
G01Y16900D02*
X-6800D01*
Y17300D01*
X-6400D01*
Y16900D01*
G37*
G36*
G01Y17300D02*
X-6800D01*
Y17700D01*
X-6400D01*
Y17300D01*
G37*
G36*
G01Y17700D02*
X-6800D01*
Y18100D01*
X-6400D01*
Y17700D01*
G37*
G36*
G01Y18100D02*
X-6800D01*
Y18500D01*
X-6400D01*
Y18100D01*
G37*
G36*
G01Y18500D02*
X-6800D01*
Y18900D01*
X-6400D01*
Y18500D01*
G37*
G36*
G01X-12400Y24100D02*
X-12800D01*
Y24500D01*
X-12400D01*
Y24100D01*
G37*
G36*
G01X-12000Y21700D02*
X-12400D01*
Y22100D01*
X-12000D01*
Y21700D01*
G37*
G36*
G01Y24100D02*
X-12400D01*
Y24500D01*
X-12000D01*
Y24100D01*
G37*
G36*
G01X-11600Y22100D02*
X-12000D01*
Y22500D01*
X-11600D01*
Y22100D01*
G37*
G36*
G01Y24100D02*
X-12000D01*
Y24500D01*
X-11600D01*
Y24100D01*
G37*
G36*
G01X-11200Y22100D02*
X-11600D01*
Y22500D01*
X-11200D01*
Y22100D01*
G37*
G36*
G01Y24100D02*
X-11600D01*
Y24500D01*
X-11200D01*
Y24100D01*
G37*
G36*
G01Y25700D02*
X-11600D01*
Y26100D01*
X-11200D01*
Y25700D01*
G37*
G36*
G01X-10800Y22900D02*
X-11200D01*
Y23300D01*
X-10800D01*
Y22900D01*
G37*
G36*
G01Y23300D02*
X-11200D01*
Y23700D01*
X-10800D01*
Y23300D01*
G37*
G36*
G01Y23700D02*
X-11200D01*
Y24100D01*
X-10800D01*
Y23700D01*
G37*
G36*
G01Y24100D02*
X-11200D01*
Y24500D01*
X-10800D01*
Y24100D01*
G37*
G36*
G01Y24500D02*
X-11200D01*
Y24900D01*
X-10800D01*
Y24500D01*
G37*
G36*
G01Y24900D02*
X-11200D01*
Y25300D01*
X-10800D01*
Y24900D01*
G37*
G36*
G01Y25300D02*
X-11200D01*
Y25700D01*
X-10800D01*
Y25300D01*
G37*
G36*
G01Y25700D02*
X-11200D01*
Y26100D01*
X-10800D01*
Y25700D01*
G37*
G36*
G01Y26100D02*
X-11200D01*
Y26500D01*
X-10800D01*
Y26100D01*
G37*
G36*
G01X-10400Y24100D02*
X-10800D01*
Y24500D01*
X-10400D01*
Y24100D01*
G37*
G36*
G01Y25700D02*
X-10800D01*
Y26100D01*
X-10400D01*
Y25700D01*
G37*
G36*
G01X-10000Y20900D02*
X-10400D01*
Y21300D01*
X-10000D01*
Y20900D01*
G37*
G36*
G01Y21300D02*
X-10400D01*
Y21700D01*
X-10000D01*
Y21300D01*
G37*
G36*
G01Y21700D02*
X-10400D01*
Y22100D01*
X-10000D01*
Y21700D01*
G37*
G36*
G01Y22100D02*
X-10400D01*
Y22500D01*
X-10000D01*
Y22100D01*
G37*
G36*
G01Y24100D02*
X-10400D01*
Y24500D01*
X-10000D01*
Y24100D01*
G37*
G36*
G01Y25700D02*
X-10400D01*
Y26100D01*
X-10000D01*
Y25700D01*
G37*
G36*
G01X-9600Y22100D02*
X-10000D01*
Y22500D01*
X-9600D01*
Y22100D01*
G37*
G36*
G01Y24100D02*
X-10000D01*
Y24500D01*
X-9600D01*
Y24100D01*
G37*
G36*
G01Y25700D02*
X-10000D01*
Y26100D01*
X-9600D01*
Y25700D01*
G37*
G36*
G01X-9200Y22100D02*
X-9600D01*
Y22500D01*
X-9200D01*
Y22100D01*
G37*
G36*
G01Y23700D02*
X-9600D01*
Y24100D01*
X-9200D01*
Y23700D01*
G37*
G36*
G01Y25700D02*
X-9600D01*
Y26100D01*
X-9200D01*
Y25700D01*
G37*
G36*
G01X-8800Y22100D02*
X-9200D01*
Y22500D01*
X-8800D01*
Y22100D01*
G37*
G36*
G01Y23700D02*
X-9200D01*
Y24100D01*
X-8800D01*
Y23700D01*
G37*
G36*
G01Y25700D02*
X-9200D01*
Y26100D01*
X-8800D01*
Y25700D01*
G37*
G36*
G01X-8400Y22100D02*
X-8800D01*
Y22500D01*
X-8400D01*
Y22100D01*
G37*
G36*
G01Y23700D02*
X-8800D01*
Y24100D01*
X-8400D01*
Y23700D01*
G37*
G36*
G01Y25700D02*
X-8800D01*
Y26100D01*
X-8400D01*
Y25700D01*
G37*
G36*
G01X-8000Y22100D02*
X-8400D01*
Y22500D01*
X-8000D01*
Y22100D01*
G37*
G36*
G01Y23300D02*
X-8400D01*
Y23700D01*
X-8000D01*
Y23300D01*
G37*
G36*
G01Y24500D02*
X-8400D01*
Y24900D01*
X-8000D01*
Y24500D01*
G37*
G36*
G01Y25300D02*
X-8400D01*
Y25700D01*
X-8000D01*
Y25300D01*
G37*
G36*
G01X-7600Y22100D02*
X-8000D01*
Y22500D01*
X-7600D01*
Y22100D01*
G37*
G36*
G01Y22900D02*
X-8000D01*
Y23300D01*
X-7600D01*
Y22900D01*
G37*
G36*
G01Y24900D02*
X-8000D01*
Y25300D01*
X-7600D01*
Y24900D01*
G37*
G36*
G01X-7200Y21700D02*
X-7600D01*
Y22100D01*
X-7200D01*
Y21700D01*
G37*
G36*
G01Y22500D02*
X-7600D01*
Y22900D01*
X-7200D01*
Y22500D01*
G37*
G36*
G01Y26100D02*
X-7600D01*
Y26500D01*
X-7200D01*
Y26100D01*
G37*
G36*
G01Y26500D02*
X-7600D01*
Y26900D01*
X-7200D01*
Y26500D01*
G37*
G36*
G01X-6800Y21300D02*
X-7200D01*
Y21700D01*
X-6800D01*
Y21300D01*
G37*
G36*
G01Y22900D02*
X-7200D01*
Y23300D01*
X-6800D01*
Y22900D01*
G37*
G36*
G01Y23300D02*
X-7200D01*
Y23700D01*
X-6800D01*
Y23300D01*
G37*
G36*
G01Y23700D02*
X-7200D01*
Y24100D01*
X-6800D01*
Y23700D01*
G37*
G36*
G01Y24100D02*
X-7200D01*
Y24500D01*
X-6800D01*
Y24100D01*
G37*
G36*
G01Y24500D02*
X-7200D01*
Y24900D01*
X-6800D01*
Y24500D01*
G37*
G36*
G01Y24900D02*
X-7200D01*
Y25300D01*
X-6800D01*
Y24900D01*
G37*
G36*
G01Y25300D02*
X-7200D01*
Y25700D01*
X-6800D01*
Y25300D01*
G37*
G36*
G01Y25700D02*
X-7200D01*
Y26100D01*
X-6800D01*
Y25700D01*
G37*
G36*
G01Y26100D02*
X-7200D01*
Y26500D01*
X-6800D01*
Y26100D01*
G37*
G36*
G01X-12400Y32500D02*
X-12800D01*
Y32900D01*
X-12400D01*
Y32500D01*
G37*
G36*
G01Y33700D02*
X-12800D01*
Y34100D01*
X-12400D01*
Y33700D01*
G37*
G36*
G01X-12000Y29300D02*
X-12400D01*
Y29700D01*
X-12000D01*
Y29300D01*
G37*
G36*
G01Y30900D02*
X-12400D01*
Y31300D01*
X-12000D01*
Y30900D01*
G37*
G36*
G01Y31300D02*
X-12400D01*
Y31700D01*
X-12000D01*
Y31300D01*
G37*
G36*
G01Y31700D02*
X-12400D01*
Y32100D01*
X-12000D01*
Y31700D01*
G37*
G36*
G01Y32100D02*
X-12400D01*
Y32500D01*
X-12000D01*
Y32100D01*
G37*
G36*
G01Y32500D02*
X-12400D01*
Y32900D01*
X-12000D01*
Y32500D01*
G37*
G36*
G01Y32900D02*
X-12400D01*
Y33300D01*
X-12000D01*
Y32900D01*
G37*
G36*
G01Y33300D02*
X-12400D01*
Y33700D01*
X-12000D01*
Y33300D01*
G37*
G36*
G01Y33700D02*
X-12400D01*
Y34100D01*
X-12000D01*
Y33700D01*
G37*
G36*
G01Y34100D02*
X-12400D01*
Y34500D01*
X-12000D01*
Y34100D01*
G37*
G36*
G01X-11600Y29700D02*
X-12000D01*
Y30100D01*
X-11600D01*
Y29700D01*
G37*
G36*
G01Y32500D02*
X-12000D01*
Y32900D01*
X-11600D01*
Y32500D01*
G37*
G36*
G01X-11200Y29700D02*
X-11600D01*
Y30100D01*
X-11200D01*
Y29700D01*
G37*
G36*
G01Y31300D02*
X-11600D01*
Y31700D01*
X-11200D01*
Y31300D01*
G37*
G36*
G01Y31700D02*
X-11600D01*
Y32100D01*
X-11200D01*
Y31700D01*
G37*
G36*
G01Y32100D02*
X-11600D01*
Y32500D01*
X-11200D01*
Y32100D01*
G37*
G36*
G01Y32500D02*
X-11600D01*
Y32900D01*
X-11200D01*
Y32500D01*
G37*
G36*
G01Y32900D02*
X-11600D01*
Y33300D01*
X-11200D01*
Y32900D01*
G37*
G36*
G01Y33300D02*
X-11600D01*
Y33700D01*
X-11200D01*
Y33300D01*
G37*
G36*
G01Y33700D02*
X-11600D01*
Y34100D01*
X-11200D01*
Y33700D01*
G37*
G36*
G01X-10800Y32500D02*
X-11200D01*
Y32900D01*
X-10800D01*
Y32500D01*
G37*
G36*
G01X-10400Y28900D02*
X-10800D01*
Y29300D01*
X-10400D01*
Y28900D01*
G37*
G36*
G01Y29300D02*
X-10800D01*
Y29700D01*
X-10400D01*
Y29300D01*
G37*
G36*
G01Y29700D02*
X-10800D01*
Y30100D01*
X-10400D01*
Y29700D01*
G37*
G36*
G01Y30500D02*
X-10800D01*
Y30900D01*
X-10400D01*
Y30500D01*
G37*
G36*
G01Y30900D02*
X-10800D01*
Y31300D01*
X-10400D01*
Y30900D01*
G37*
G36*
G01Y31300D02*
X-10800D01*
Y31700D01*
X-10400D01*
Y31300D01*
G37*
G36*
G01Y31700D02*
X-10800D01*
Y32100D01*
X-10400D01*
Y31700D01*
G37*
G36*
G01Y32100D02*
X-10800D01*
Y32500D01*
X-10400D01*
Y32100D01*
G37*
G36*
G01Y32500D02*
X-10800D01*
Y32900D01*
X-10400D01*
Y32500D01*
G37*
G36*
G01Y32900D02*
X-10800D01*
Y33300D01*
X-10400D01*
Y32900D01*
G37*
G36*
G01Y33300D02*
X-10800D01*
Y33700D01*
X-10400D01*
Y33300D01*
G37*
G36*
G01Y33700D02*
X-10800D01*
Y34100D01*
X-10400D01*
Y33700D01*
G37*
G36*
G01Y34100D02*
X-10800D01*
Y34500D01*
X-10400D01*
Y34100D01*
G37*
G36*
G01Y34500D02*
X-10800D01*
Y34900D01*
X-10400D01*
Y34500D01*
G37*
G36*
G01X-10000Y29700D02*
X-10400D01*
Y30100D01*
X-10000D01*
Y29700D01*
G37*
G36*
G01Y33700D02*
X-10400D01*
Y34100D01*
X-10000D01*
Y33700D01*
G37*
G36*
G01X-9600Y29700D02*
X-10000D01*
Y30100D01*
X-9600D01*
Y29700D01*
G37*
G36*
G01Y31300D02*
X-10000D01*
Y31700D01*
X-9600D01*
Y31300D01*
G37*
G36*
G01Y31700D02*
X-10000D01*
Y32100D01*
X-9600D01*
Y31700D01*
G37*
G36*
G01Y32100D02*
X-10000D01*
Y32500D01*
X-9600D01*
Y32100D01*
G37*
G36*
G01Y32500D02*
X-10000D01*
Y32900D01*
X-9600D01*
Y32500D01*
G37*
G36*
G01Y32900D02*
X-10000D01*
Y33300D01*
X-9600D01*
Y32900D01*
G37*
G36*
G01Y33300D02*
X-10000D01*
Y33700D01*
X-9600D01*
Y33300D01*
G37*
G36*
G01Y33700D02*
X-10000D01*
Y34100D01*
X-9600D01*
Y33700D01*
G37*
G36*
G01Y34100D02*
X-10000D01*
Y34500D01*
X-9600D01*
Y34100D01*
G37*
G36*
G01X-9200Y29700D02*
X-9600D01*
Y30100D01*
X-9200D01*
Y29700D01*
G37*
G36*
G01Y31300D02*
X-9600D01*
Y31700D01*
X-9200D01*
Y31300D01*
G37*
G36*
G01Y33700D02*
X-9600D01*
Y34100D01*
X-9200D01*
Y33700D01*
G37*
G36*
G01X-8800Y29700D02*
X-9200D01*
Y30100D01*
X-8800D01*
Y29700D01*
G37*
G36*
G01Y31300D02*
X-9200D01*
Y31700D01*
X-8800D01*
Y31300D01*
G37*
G36*
G01Y31700D02*
X-9200D01*
Y32100D01*
X-8800D01*
Y31700D01*
G37*
G36*
G01Y32100D02*
X-9200D01*
Y32500D01*
X-8800D01*
Y32100D01*
G37*
G36*
G01Y32500D02*
X-9200D01*
Y32900D01*
X-8800D01*
Y32500D01*
G37*
G36*
G01Y32900D02*
X-9200D01*
Y33300D01*
X-8800D01*
Y32900D01*
G37*
G36*
G01Y33300D02*
X-9200D01*
Y33700D01*
X-8800D01*
Y33300D01*
G37*
G36*
G01Y33700D02*
X-9200D01*
Y34100D01*
X-8800D01*
Y33700D01*
G37*
G36*
G01X-8400Y29700D02*
X-8800D01*
Y30100D01*
X-8400D01*
Y29700D01*
G37*
G36*
G01Y31300D02*
X-8800D01*
Y31700D01*
X-8400D01*
Y31300D01*
G37*
G36*
G01Y33700D02*
X-8800D01*
Y34100D01*
X-8400D01*
Y33700D01*
G37*
G36*
G01X-8000Y29700D02*
X-8400D01*
Y30100D01*
X-8000D01*
Y29700D01*
G37*
G36*
G01Y31300D02*
X-8400D01*
Y31700D01*
X-8000D01*
Y31300D01*
G37*
G36*
G01Y31700D02*
X-8400D01*
Y32100D01*
X-8000D01*
Y31700D01*
G37*
G36*
G01Y32100D02*
X-8400D01*
Y32500D01*
X-8000D01*
Y32100D01*
G37*
G36*
G01Y32500D02*
X-8400D01*
Y32900D01*
X-8000D01*
Y32500D01*
G37*
G36*
G01Y32900D02*
X-8400D01*
Y33300D01*
X-8000D01*
Y32900D01*
G37*
G36*
G01Y33300D02*
X-8400D01*
Y33700D01*
X-8000D01*
Y33300D01*
G37*
G36*
G01Y33700D02*
X-8400D01*
Y34100D01*
X-8000D01*
Y33700D01*
G37*
G36*
G01X-7600Y29700D02*
X-8000D01*
Y30100D01*
X-7600D01*
Y29700D01*
G37*
G36*
G01Y30500D02*
X-8000D01*
Y30900D01*
X-7600D01*
Y30500D01*
G37*
G36*
G01Y31300D02*
X-8000D01*
Y31700D01*
X-7600D01*
Y31300D01*
G37*
G36*
G01Y33700D02*
X-8000D01*
Y34100D01*
X-7600D01*
Y33700D01*
G37*
G36*
G01X-7200Y29700D02*
X-7600D01*
Y30100D01*
X-7200D01*
Y29700D01*
G37*
G36*
G01Y30100D02*
X-7600D01*
Y30500D01*
X-7200D01*
Y30100D01*
G37*
G36*
G01Y31300D02*
X-7600D01*
Y31700D01*
X-7200D01*
Y31300D01*
G37*
G36*
G01Y33700D02*
X-7600D01*
Y34100D01*
X-7200D01*
Y33700D01*
G37*
G36*
G01X-6800Y29700D02*
X-7200D01*
Y30100D01*
X-6800D01*
Y29700D01*
G37*
G36*
G01Y31300D02*
X-7200D01*
Y31700D01*
X-6800D01*
Y31300D01*
G37*
G36*
G01Y32900D02*
X-7200D01*
Y33300D01*
X-6800D01*
Y32900D01*
G37*
G36*
G01Y33700D02*
X-7200D01*
Y34100D01*
X-6800D01*
Y33700D01*
G37*
G36*
G01X-6400Y31300D02*
X-6800D01*
Y31700D01*
X-6400D01*
Y31300D01*
G37*
G36*
G01Y33300D02*
X-6800D01*
Y33700D01*
X-6400D01*
Y33300D01*
G37*
G36*
G01X-12400Y38100D02*
X-12800D01*
Y38500D01*
X-12400D01*
Y38100D01*
G37*
G36*
G01Y40900D02*
X-12800D01*
Y41300D01*
X-12400D01*
Y40900D01*
G37*
G36*
G01X-12000Y38100D02*
X-12400D01*
Y38500D01*
X-12000D01*
Y38100D01*
G37*
G36*
G01Y40900D02*
X-12400D01*
Y41300D01*
X-12000D01*
Y40900D01*
G37*
G36*
G01Y41700D02*
X-12400D01*
Y42100D01*
X-12000D01*
Y41700D01*
G37*
G36*
G01X-11600Y38100D02*
X-12000D01*
Y38500D01*
X-11600D01*
Y38100D01*
G37*
G36*
G01Y38500D02*
X-12000D01*
Y38900D01*
X-11600D01*
Y38500D01*
G37*
G36*
G01Y38900D02*
X-12000D01*
Y39300D01*
X-11600D01*
Y38900D01*
G37*
G36*
G01Y40900D02*
X-12000D01*
Y41300D01*
X-11600D01*
Y40900D01*
G37*
G36*
G01Y42100D02*
X-12000D01*
Y42500D01*
X-11600D01*
Y42100D01*
G37*
G36*
G01X-11200Y37700D02*
X-11600D01*
Y38100D01*
X-11200D01*
Y37700D01*
G37*
G36*
G01Y39300D02*
X-11600D01*
Y39700D01*
X-11200D01*
Y39300D01*
G37*
G36*
G01Y39700D02*
X-11600D01*
Y40100D01*
X-11200D01*
Y39700D01*
G37*
G36*
G01Y40100D02*
X-11600D01*
Y40500D01*
X-11200D01*
Y40100D01*
G37*
G36*
G01Y40500D02*
X-11600D01*
Y40900D01*
X-11200D01*
Y40500D01*
G37*
G36*
G01Y40900D02*
X-11600D01*
Y41300D01*
X-11200D01*
Y40900D01*
G37*
G36*
G01Y41300D02*
X-11600D01*
Y41700D01*
X-11200D01*
Y41300D01*
G37*
G36*
G01Y41700D02*
X-11600D01*
Y42100D01*
X-11200D01*
Y41700D01*
G37*
G36*
G01Y42100D02*
X-11600D01*
Y42500D01*
X-11200D01*
Y42100D01*
G37*
G36*
G01Y42500D02*
X-11600D01*
Y42900D01*
X-11200D01*
Y42500D01*
G37*
G36*
G01X-10800Y37700D02*
X-11200D01*
Y38100D01*
X-10800D01*
Y37700D01*
G37*
G36*
G01Y40900D02*
X-11200D01*
Y41300D01*
X-10800D01*
Y40900D01*
G37*
G36*
G01X-10400Y37300D02*
X-10800D01*
Y37700D01*
X-10400D01*
Y37300D01*
G37*
G36*
G01Y37700D02*
X-10800D01*
Y38100D01*
X-10400D01*
Y37700D01*
G37*
G36*
G01Y38100D02*
X-10800D01*
Y38500D01*
X-10400D01*
Y38100D01*
G37*
G36*
G01Y38500D02*
X-10800D01*
Y38900D01*
X-10400D01*
Y38500D01*
G37*
G36*
G01Y38900D02*
X-10800D01*
Y39300D01*
X-10400D01*
Y38900D01*
G37*
G36*
G01Y39700D02*
X-10800D01*
Y40100D01*
X-10400D01*
Y39700D01*
G37*
G36*
G01Y40100D02*
X-10800D01*
Y40500D01*
X-10400D01*
Y40100D01*
G37*
G36*
G01Y40500D02*
X-10800D01*
Y40900D01*
X-10400D01*
Y40500D01*
G37*
G36*
G01Y40900D02*
X-10800D01*
Y41300D01*
X-10400D01*
Y40900D01*
G37*
G36*
G01Y41300D02*
X-10800D01*
Y41700D01*
X-10400D01*
Y41300D01*
G37*
G36*
G01Y41700D02*
X-10800D01*
Y42100D01*
X-10400D01*
Y41700D01*
G37*
G36*
G01Y42100D02*
X-10800D01*
Y42500D01*
X-10400D01*
Y42100D01*
G37*
G36*
G01X-10000Y36900D02*
X-10400D01*
Y37300D01*
X-10000D01*
Y36900D01*
G37*
G36*
G01Y38100D02*
X-10400D01*
Y38500D01*
X-10000D01*
Y38100D01*
G37*
G36*
G01Y39700D02*
X-10400D01*
Y40100D01*
X-10000D01*
Y39700D01*
G37*
G36*
G01Y40900D02*
X-10400D01*
Y41300D01*
X-10000D01*
Y40900D01*
G37*
G36*
G01Y42100D02*
X-10400D01*
Y42500D01*
X-10000D01*
Y42100D01*
G37*
G36*
G01X-9600Y38100D02*
X-10000D01*
Y38500D01*
X-9600D01*
Y38100D01*
G37*
G36*
G01Y39700D02*
X-10000D01*
Y40100D01*
X-9600D01*
Y39700D01*
G37*
G36*
G01Y40900D02*
X-10000D01*
Y41300D01*
X-9600D01*
Y40900D01*
G37*
G36*
G01Y42100D02*
X-10000D01*
Y42500D01*
X-9600D01*
Y42100D01*
G37*
G36*
G01X-9200Y37300D02*
X-9600D01*
Y37700D01*
X-9200D01*
Y37300D01*
G37*
G36*
G01Y37700D02*
X-9600D01*
Y38100D01*
X-9200D01*
Y37700D01*
G37*
G36*
G01Y38100D02*
X-9600D01*
Y38500D01*
X-9200D01*
Y38100D01*
G37*
G36*
G01Y38500D02*
X-9600D01*
Y38900D01*
X-9200D01*
Y38500D01*
G37*
G36*
G01Y38900D02*
X-9600D01*
Y39300D01*
X-9200D01*
Y38900D01*
G37*
G36*
G01Y39700D02*
X-9600D01*
Y40100D01*
X-9200D01*
Y39700D01*
G37*
G36*
G01Y40100D02*
X-9600D01*
Y40500D01*
X-9200D01*
Y40100D01*
G37*
G36*
G01Y40500D02*
X-9600D01*
Y40900D01*
X-9200D01*
Y40500D01*
G37*
G36*
G01Y40900D02*
X-9600D01*
Y41300D01*
X-9200D01*
Y40900D01*
G37*
G36*
G01Y41300D02*
X-9600D01*
Y41700D01*
X-9200D01*
Y41300D01*
G37*
G36*
G01Y41700D02*
X-9600D01*
Y42100D01*
X-9200D01*
Y41700D01*
G37*
G36*
G01Y42100D02*
X-9600D01*
Y42500D01*
X-9200D01*
Y42100D01*
G37*
G36*
G01X-8800Y38100D02*
X-9200D01*
Y38500D01*
X-8800D01*
Y38100D01*
G37*
G36*
G01Y39700D02*
X-9200D01*
Y40100D01*
X-8800D01*
Y39700D01*
G37*
G36*
G01Y40900D02*
X-9200D01*
Y41300D01*
X-8800D01*
Y40900D01*
G37*
G36*
G01Y42100D02*
X-9200D01*
Y42500D01*
X-8800D01*
Y42100D01*
G37*
G36*
G01X-8400Y38100D02*
X-8800D01*
Y38500D01*
X-8400D01*
Y38100D01*
G37*
G36*
G01Y39700D02*
X-8800D01*
Y40100D01*
X-8400D01*
Y39700D01*
G37*
G36*
G01Y40900D02*
X-8800D01*
Y41300D01*
X-8400D01*
Y40900D01*
G37*
G36*
G01Y42100D02*
X-8800D01*
Y42500D01*
X-8400D01*
Y42100D01*
G37*
G36*
G01X-8000Y38100D02*
X-8400D01*
Y38500D01*
X-8000D01*
Y38100D01*
G37*
G36*
G01Y39700D02*
X-8400D01*
Y40100D01*
X-8000D01*
Y39700D01*
G37*
G36*
G01Y40100D02*
X-8400D01*
Y40500D01*
X-8000D01*
Y40100D01*
G37*
G36*
G01Y40500D02*
X-8400D01*
Y40900D01*
X-8000D01*
Y40500D01*
G37*
G36*
G01Y40900D02*
X-8400D01*
Y41300D01*
X-8000D01*
Y40900D01*
G37*
G36*
G01Y41300D02*
X-8400D01*
Y41700D01*
X-8000D01*
Y41300D01*
G37*
G36*
G01Y41700D02*
X-8400D01*
Y42100D01*
X-8000D01*
Y41700D01*
G37*
G36*
G01Y42100D02*
X-8400D01*
Y42500D01*
X-8000D01*
Y42100D01*
G37*
G36*
G01X-7600Y38100D02*
X-8000D01*
Y38500D01*
X-7600D01*
Y38100D01*
G37*
G36*
G01Y38900D02*
X-8000D01*
Y39300D01*
X-7600D01*
Y38900D01*
G37*
G36*
G01Y39700D02*
X-8000D01*
Y40100D01*
X-7600D01*
Y39700D01*
G37*
G36*
G01Y40900D02*
X-8000D01*
Y41300D01*
X-7600D01*
Y40900D01*
G37*
G36*
G01Y42100D02*
X-8000D01*
Y42500D01*
X-7600D01*
Y42100D01*
G37*
G36*
G01X-7200Y38100D02*
X-7600D01*
Y38500D01*
X-7200D01*
Y38100D01*
G37*
G36*
G01Y38500D02*
X-7600D01*
Y38900D01*
X-7200D01*
Y38500D01*
G37*
G36*
G01Y39700D02*
X-7600D01*
Y40100D01*
X-7200D01*
Y39700D01*
G37*
G36*
G01Y40900D02*
X-7600D01*
Y41300D01*
X-7200D01*
Y40900D01*
G37*
G36*
G01Y42100D02*
X-7600D01*
Y42500D01*
X-7200D01*
Y42100D01*
G37*
G36*
G01X-6800Y38100D02*
X-7200D01*
Y38500D01*
X-6800D01*
Y38100D01*
G37*
G36*
G01Y39700D02*
X-7200D01*
Y40100D01*
X-6800D01*
Y39700D01*
G37*
G36*
G01Y40900D02*
X-7200D01*
Y41300D01*
X-6800D01*
Y40900D01*
G37*
G36*
G01Y41300D02*
X-7200D01*
Y41700D01*
X-6800D01*
Y41300D01*
G37*
G36*
G01Y42100D02*
X-7200D01*
Y42500D01*
X-6800D01*
Y42100D01*
G37*
G36*
G01X-6400Y39700D02*
X-6800D01*
Y40100D01*
X-6400D01*
Y39700D01*
G37*
G36*
G01Y40900D02*
X-6800D01*
Y41300D01*
X-6400D01*
Y40900D01*
G37*
G36*
G01Y41700D02*
X-6800D01*
Y42100D01*
X-6400D01*
Y41700D01*
G37*
G36*
G01X-12400Y45700D02*
X-12800D01*
Y46100D01*
X-12400D01*
Y45700D01*
G37*
G36*
G01Y50100D02*
X-12800D01*
Y50500D01*
X-12400D01*
Y50100D01*
G37*
G36*
G01X-12000Y45700D02*
X-12400D01*
Y46100D01*
X-12000D01*
Y45700D01*
G37*
G36*
G01Y47300D02*
X-12400D01*
Y47700D01*
X-12000D01*
Y47300D01*
G37*
G36*
G01Y47700D02*
X-12400D01*
Y48100D01*
X-12000D01*
Y47700D01*
G37*
G36*
G01Y48100D02*
X-12400D01*
Y48500D01*
X-12000D01*
Y48100D01*
G37*
G36*
G01Y48500D02*
X-12400D01*
Y48900D01*
X-12000D01*
Y48500D01*
G37*
G36*
G01Y48900D02*
X-12400D01*
Y49300D01*
X-12000D01*
Y48900D01*
G37*
G36*
G01Y49300D02*
X-12400D01*
Y49700D01*
X-12000D01*
Y49300D01*
G37*
G36*
G01Y49700D02*
X-12400D01*
Y50100D01*
X-12000D01*
Y49700D01*
G37*
G36*
G01Y50100D02*
X-12400D01*
Y50500D01*
X-12000D01*
Y50100D01*
G37*
G36*
G01Y50500D02*
X-12400D01*
Y50900D01*
X-12000D01*
Y50500D01*
G37*
G36*
G01X-11600Y45700D02*
X-12000D01*
Y46100D01*
X-11600D01*
Y45700D01*
G37*
G36*
G01Y46100D02*
X-12000D01*
Y46500D01*
X-11600D01*
Y46100D01*
G37*
G36*
G01Y46500D02*
X-12000D01*
Y46900D01*
X-11600D01*
Y46500D01*
G37*
G36*
G01Y46900D02*
X-12000D01*
Y47300D01*
X-11600D01*
Y46900D01*
G37*
G36*
G01Y47300D02*
X-12000D01*
Y47700D01*
X-11600D01*
Y47300D01*
G37*
G36*
G01Y50100D02*
X-12000D01*
Y50500D01*
X-11600D01*
Y50100D01*
G37*
G36*
G01X-11200Y45300D02*
X-11600D01*
Y45700D01*
X-11200D01*
Y45300D01*
G37*
G36*
G01Y47300D02*
X-11600D01*
Y47700D01*
X-11200D01*
Y47300D01*
G37*
G36*
G01Y50100D02*
X-11600D01*
Y50500D01*
X-11200D01*
Y50100D01*
G37*
G36*
G01X-10800Y44900D02*
X-11200D01*
Y45300D01*
X-10800D01*
Y44900D01*
G37*
G36*
G01Y47300D02*
X-11200D01*
Y47700D01*
X-10800D01*
Y47300D01*
G37*
G36*
G01Y48100D02*
X-11200D01*
Y48500D01*
X-10800D01*
Y48100D01*
G37*
G36*
G01Y48500D02*
X-11200D01*
Y48900D01*
X-10800D01*
Y48500D01*
G37*
G36*
G01Y48900D02*
X-11200D01*
Y49300D01*
X-10800D01*
Y48900D01*
G37*
G36*
G01Y49300D02*
X-11200D01*
Y49700D01*
X-10800D01*
Y49300D01*
G37*
G36*
G01Y50100D02*
X-11200D01*
Y50500D01*
X-10800D01*
Y50100D01*
G37*
G36*
G01X-10400Y45300D02*
X-10800D01*
Y45700D01*
X-10400D01*
Y45300D01*
G37*
G36*
G01Y45700D02*
X-10800D01*
Y46100D01*
X-10400D01*
Y45700D01*
G37*
G36*
G01Y46100D02*
X-10800D01*
Y46500D01*
X-10400D01*
Y46100D01*
G37*
G36*
G01Y46500D02*
X-10800D01*
Y46900D01*
X-10400D01*
Y46500D01*
G37*
G36*
G01Y47300D02*
X-10800D01*
Y47700D01*
X-10400D01*
Y47300D01*
G37*
G36*
G01Y50100D02*
X-10800D01*
Y50500D01*
X-10400D01*
Y50100D01*
G37*
G36*
G01X-10000Y45700D02*
X-10400D01*
Y46100D01*
X-10000D01*
Y45700D01*
G37*
G36*
G01Y47300D02*
X-10400D01*
Y47700D01*
X-10000D01*
Y47300D01*
G37*
G36*
G01Y50100D02*
X-10400D01*
Y50500D01*
X-10000D01*
Y50100D01*
G37*
G36*
G01X-9600Y45700D02*
X-10000D01*
Y46100D01*
X-9600D01*
Y45700D01*
G37*
G36*
G01Y47300D02*
X-10000D01*
Y47700D01*
X-9600D01*
Y47300D01*
G37*
G36*
G01Y48100D02*
X-10000D01*
Y48500D01*
X-9600D01*
Y48100D01*
G37*
G36*
G01Y48500D02*
X-10000D01*
Y48900D01*
X-9600D01*
Y48500D01*
G37*
G36*
G01Y48900D02*
X-10000D01*
Y49300D01*
X-9600D01*
Y48900D01*
G37*
G36*
G01Y49300D02*
X-10000D01*
Y49700D01*
X-9600D01*
Y49300D01*
G37*
G36*
G01Y50100D02*
X-10000D01*
Y50500D01*
X-9600D01*
Y50100D01*
G37*
G36*
G01X-9200Y44900D02*
X-9600D01*
Y45300D01*
X-9200D01*
Y44900D01*
G37*
G36*
G01Y45300D02*
X-9600D01*
Y45700D01*
X-9200D01*
Y45300D01*
G37*
G36*
G01Y45700D02*
X-9600D01*
Y46100D01*
X-9200D01*
Y45700D01*
G37*
G36*
G01Y46100D02*
X-9600D01*
Y46500D01*
X-9200D01*
Y46100D01*
G37*
G36*
G01Y46500D02*
X-9600D01*
Y46900D01*
X-9200D01*
Y46500D01*
G37*
G36*
G01Y47300D02*
X-9600D01*
Y47700D01*
X-9200D01*
Y47300D01*
G37*
G36*
G01Y48100D02*
X-9600D01*
Y48500D01*
X-9200D01*
Y48100D01*
G37*
G36*
G01Y49300D02*
X-9600D01*
Y49700D01*
X-9200D01*
Y49300D01*
G37*
G36*
G01Y50100D02*
X-9600D01*
Y50500D01*
X-9200D01*
Y50100D01*
G37*
G36*
G01X-8800Y45700D02*
X-9200D01*
Y46100D01*
X-8800D01*
Y45700D01*
G37*
G36*
G01Y47300D02*
X-9200D01*
Y47700D01*
X-8800D01*
Y47300D01*
G37*
G36*
G01Y48100D02*
X-9200D01*
Y48500D01*
X-8800D01*
Y48100D01*
G37*
G36*
G01Y49300D02*
X-9200D01*
Y49700D01*
X-8800D01*
Y49300D01*
G37*
G36*
G01Y50100D02*
X-9200D01*
Y50500D01*
X-8800D01*
Y50100D01*
G37*
G36*
G01X-8400Y45700D02*
X-8800D01*
Y46100D01*
X-8400D01*
Y45700D01*
G37*
G36*
G01Y47300D02*
X-8800D01*
Y47700D01*
X-8400D01*
Y47300D01*
G37*
G36*
G01Y48100D02*
X-8800D01*
Y48500D01*
X-8400D01*
Y48100D01*
G37*
G36*
G01Y49300D02*
X-8800D01*
Y49700D01*
X-8400D01*
Y49300D01*
G37*
G36*
G01Y50100D02*
X-8800D01*
Y50500D01*
X-8400D01*
Y50100D01*
G37*
G36*
G01X-8000Y45700D02*
X-8400D01*
Y46100D01*
X-8000D01*
Y45700D01*
G37*
G36*
G01Y46900D02*
X-8400D01*
Y47300D01*
X-8000D01*
Y46900D01*
G37*
G36*
G01Y47300D02*
X-8400D01*
Y47700D01*
X-8000D01*
Y47300D01*
G37*
G36*
G01Y48100D02*
X-8400D01*
Y48500D01*
X-8000D01*
Y48100D01*
G37*
G36*
G01Y48500D02*
X-8400D01*
Y48900D01*
X-8000D01*
Y48500D01*
G37*
G36*
G01Y48900D02*
X-8400D01*
Y49300D01*
X-8000D01*
Y48900D01*
G37*
G36*
G01Y49300D02*
X-8400D01*
Y49700D01*
X-8000D01*
Y49300D01*
G37*
G36*
G01Y50100D02*
X-8400D01*
Y50500D01*
X-8000D01*
Y50100D01*
G37*
G36*
G01X-7600Y45700D02*
X-8000D01*
Y46100D01*
X-7600D01*
Y45700D01*
G37*
G36*
G01Y46500D02*
X-8000D01*
Y46900D01*
X-7600D01*
Y46500D01*
G37*
G36*
G01Y47300D02*
X-8000D01*
Y47700D01*
X-7600D01*
Y47300D01*
G37*
G36*
G01Y50100D02*
X-8000D01*
Y50500D01*
X-7600D01*
Y50100D01*
G37*
G36*
G01X-7200Y45700D02*
X-7600D01*
Y46100D01*
X-7200D01*
Y45700D01*
G37*
G36*
G01Y46100D02*
X-7600D01*
Y46500D01*
X-7200D01*
Y46100D01*
G37*
G36*
G01Y47300D02*
X-7600D01*
Y47700D01*
X-7200D01*
Y47300D01*
G37*
G36*
G01Y50100D02*
X-7600D01*
Y50500D01*
X-7200D01*
Y50100D01*
G37*
G36*
G01X-6800Y45700D02*
X-7200D01*
Y46100D01*
X-6800D01*
Y45700D01*
G37*
G36*
G01Y47300D02*
X-7200D01*
Y47700D01*
X-6800D01*
Y47300D01*
G37*
G36*
G01Y49300D02*
X-7200D01*
Y49700D01*
X-6800D01*
Y49300D01*
G37*
G36*
G01Y50100D02*
X-7200D01*
Y50500D01*
X-6800D01*
Y50100D01*
G37*
G36*
G01X-6400Y47300D02*
X-6800D01*
Y47700D01*
X-6400D01*
Y47300D01*
G37*
G36*
G01Y49700D02*
X-6800D01*
Y50100D01*
X-6400D01*
Y49700D01*
G37*
G36*
G01X283400Y5300D02*
X283000D01*
Y5700D01*
X283400D01*
Y5300D01*
G37*
G36*
G01Y5700D02*
X283000D01*
Y6100D01*
X283400D01*
Y5700D01*
G37*
G36*
G01Y6100D02*
X283000D01*
Y6500D01*
X283400D01*
Y6100D01*
G37*
G36*
G01X287800Y4900D02*
X287400D01*
Y5300D01*
X287800D01*
Y4900D01*
G37*
G36*
G01Y5300D02*
X287400D01*
Y5700D01*
X287800D01*
Y5300D01*
G37*
G36*
G01Y5700D02*
X287400D01*
Y6100D01*
X287800D01*
Y5700D01*
G37*
G36*
G01Y6100D02*
X287400D01*
Y6500D01*
X287800D01*
Y6100D01*
G37*
G36*
G01X283000Y9700D02*
X282600D01*
Y10100D01*
X283000D01*
Y9700D01*
G37*
G36*
G01X283400Y6500D02*
X283000D01*
Y6900D01*
X283400D01*
Y6500D01*
G37*
G36*
G01Y6900D02*
X283000D01*
Y7300D01*
X283400D01*
Y6900D01*
G37*
G36*
G01Y7300D02*
X283000D01*
Y7700D01*
X283400D01*
Y7300D01*
G37*
G36*
G01Y7700D02*
X283000D01*
Y8100D01*
X283400D01*
Y7700D01*
G37*
G36*
G01Y8100D02*
X283000D01*
Y8500D01*
X283400D01*
Y8100D01*
G37*
G36*
G01Y8500D02*
X283000D01*
Y8900D01*
X283400D01*
Y8500D01*
G37*
G36*
G01Y8900D02*
X283000D01*
Y9300D01*
X283400D01*
Y8900D01*
G37*
G36*
G01Y9300D02*
X283000D01*
Y9700D01*
X283400D01*
Y9300D01*
G37*
G36*
G01Y9700D02*
X283000D01*
Y10100D01*
X283400D01*
Y9700D01*
G37*
G36*
G01Y10100D02*
X283000D01*
Y10500D01*
X283400D01*
Y10100D01*
G37*
G36*
G01X283800Y7700D02*
X283400D01*
Y8100D01*
X283800D01*
Y7700D01*
G37*
G36*
G01X284200D02*
X283800D01*
Y8100D01*
X284200D01*
Y7700D01*
G37*
G36*
G01X284600D02*
X284200D01*
Y8100D01*
X284600D01*
Y7700D01*
G37*
G36*
G01X285000D02*
X284600D01*
Y8100D01*
X285000D01*
Y7700D01*
G37*
G36*
G01X285400D02*
X285000D01*
Y8100D01*
X285400D01*
Y7700D01*
G37*
G36*
G01X285800D02*
X285400D01*
Y8100D01*
X285800D01*
Y7700D01*
G37*
G36*
G01X286200D02*
X285800D01*
Y8100D01*
X286200D01*
Y7700D01*
G37*
G36*
G01X286600D02*
X286200D01*
Y8100D01*
X286600D01*
Y7700D01*
G37*
G36*
G01X287000D02*
X286600D01*
Y8100D01*
X287000D01*
Y7700D01*
G37*
G36*
G01X287400D02*
X287000D01*
Y8100D01*
X287400D01*
Y7700D01*
G37*
G36*
G01Y10100D02*
X287000D01*
Y10500D01*
X287400D01*
Y10100D01*
G37*
G36*
G01X287800Y6500D02*
X287400D01*
Y6900D01*
X287800D01*
Y6500D01*
G37*
G36*
G01Y6900D02*
X287400D01*
Y7300D01*
X287800D01*
Y6900D01*
G37*
G36*
G01Y7300D02*
X287400D01*
Y7700D01*
X287800D01*
Y7300D01*
G37*
G36*
G01Y7700D02*
X287400D01*
Y8100D01*
X287800D01*
Y7700D01*
G37*
G36*
G01Y8100D02*
X287400D01*
Y8500D01*
X287800D01*
Y8100D01*
G37*
G36*
G01Y8500D02*
X287400D01*
Y8900D01*
X287800D01*
Y8500D01*
G37*
G36*
G01Y8900D02*
X287400D01*
Y9300D01*
X287800D01*
Y8900D01*
G37*
G36*
G01Y9300D02*
X287400D01*
Y9700D01*
X287800D01*
Y9300D01*
G37*
G36*
G01Y9700D02*
X287400D01*
Y10100D01*
X287800D01*
Y9700D01*
G37*
G36*
G01Y10100D02*
X287400D01*
Y10500D01*
X287800D01*
Y10100D01*
G37*
G36*
G01Y10500D02*
X287400D01*
Y10900D01*
X287800D01*
Y10500D01*
G37*
G36*
G01X282600Y14900D02*
X282200D01*
Y15300D01*
X282600D01*
Y14900D01*
G37*
G36*
G01Y16500D02*
X282200D01*
Y16900D01*
X282600D01*
Y16500D01*
G37*
G36*
G01X283000Y14900D02*
X282600D01*
Y15300D01*
X283000D01*
Y14900D01*
G37*
G36*
G01Y16500D02*
X282600D01*
Y16900D01*
X283000D01*
Y16500D01*
G37*
G36*
G01Y18100D02*
X282600D01*
Y18500D01*
X283000D01*
Y18100D01*
G37*
G36*
G01X283400Y12900D02*
X283000D01*
Y13300D01*
X283400D01*
Y12900D01*
G37*
G36*
G01Y13300D02*
X283000D01*
Y13700D01*
X283400D01*
Y13300D01*
G37*
G36*
G01Y13700D02*
X283000D01*
Y14100D01*
X283400D01*
Y13700D01*
G37*
G36*
G01Y14100D02*
X283000D01*
Y14500D01*
X283400D01*
Y14100D01*
G37*
G36*
G01Y14500D02*
X283000D01*
Y14900D01*
X283400D01*
Y14500D01*
G37*
G36*
G01Y14900D02*
X283000D01*
Y15300D01*
X283400D01*
Y14900D01*
G37*
G36*
G01Y15300D02*
X283000D01*
Y15700D01*
X283400D01*
Y15300D01*
G37*
G36*
G01Y15700D02*
X283000D01*
Y16100D01*
X283400D01*
Y15700D01*
G37*
G36*
G01Y16100D02*
X283000D01*
Y16500D01*
X283400D01*
Y16100D01*
G37*
G36*
G01Y16500D02*
X283000D01*
Y16900D01*
X283400D01*
Y16500D01*
G37*
G36*
G01Y16900D02*
X283000D01*
Y17300D01*
X283400D01*
Y16900D01*
G37*
G36*
G01Y17300D02*
X283000D01*
Y17700D01*
X283400D01*
Y17300D01*
G37*
G36*
G01Y17700D02*
X283000D01*
Y18100D01*
X283400D01*
Y17700D01*
G37*
G36*
G01Y18100D02*
X283000D01*
Y18500D01*
X283400D01*
Y18100D01*
G37*
G36*
G01Y18500D02*
X283000D01*
Y18900D01*
X283400D01*
Y18500D01*
G37*
G36*
G01X283800Y14900D02*
X283400D01*
Y15300D01*
X283800D01*
Y14900D01*
G37*
G36*
G01Y16500D02*
X283400D01*
Y16900D01*
X283800D01*
Y16500D01*
G37*
G36*
G01X284600Y13700D02*
X284200D01*
Y14100D01*
X284600D01*
Y13700D01*
G37*
G36*
G01Y14100D02*
X284200D01*
Y14500D01*
X284600D01*
Y14100D01*
G37*
G36*
G01Y14500D02*
X284200D01*
Y14900D01*
X284600D01*
Y14500D01*
G37*
G36*
G01Y14900D02*
X284200D01*
Y15300D01*
X284600D01*
Y14900D01*
G37*
G36*
G01Y15300D02*
X284200D01*
Y15700D01*
X284600D01*
Y15300D01*
G37*
G36*
G01Y15700D02*
X284200D01*
Y16100D01*
X284600D01*
Y15700D01*
G37*
G36*
G01Y16100D02*
X284200D01*
Y16500D01*
X284600D01*
Y16100D01*
G37*
G36*
G01Y16500D02*
X284200D01*
Y16900D01*
X284600D01*
Y16500D01*
G37*
G36*
G01X285000Y16100D02*
X284600D01*
Y16500D01*
X285000D01*
Y16100D01*
G37*
G36*
G01X285400Y15700D02*
X285000D01*
Y16100D01*
X285400D01*
Y15700D01*
G37*
G36*
G01X285800Y15300D02*
X285400D01*
Y15700D01*
X285800D01*
Y15300D01*
G37*
G36*
G01X286200Y14900D02*
X285800D01*
Y15300D01*
X286200D01*
Y14900D01*
G37*
G36*
G01X286600Y14500D02*
X286200D01*
Y14900D01*
X286600D01*
Y14500D01*
G37*
G36*
G01X287000Y14100D02*
X286600D01*
Y14500D01*
X287000D01*
Y14100D01*
G37*
G36*
G01X287400Y13700D02*
X287000D01*
Y14100D01*
X287400D01*
Y13700D01*
G37*
G36*
G01Y18500D02*
X287000D01*
Y18900D01*
X287400D01*
Y18500D01*
G37*
G36*
G01X287800Y13700D02*
X287400D01*
Y14100D01*
X287800D01*
Y13700D01*
G37*
G36*
G01Y18500D02*
X287400D01*
Y18900D01*
X287800D01*
Y18500D01*
G37*
G36*
G01X288200Y13700D02*
X287800D01*
Y14100D01*
X288200D01*
Y13700D01*
G37*
G36*
G01Y18500D02*
X287800D01*
Y18900D01*
X288200D01*
Y18500D01*
G37*
G36*
G01X288600Y14100D02*
X288200D01*
Y14500D01*
X288600D01*
Y14100D01*
G37*
G36*
G01Y14500D02*
X288200D01*
Y14900D01*
X288600D01*
Y14500D01*
G37*
G36*
G01Y14900D02*
X288200D01*
Y15300D01*
X288600D01*
Y14900D01*
G37*
G36*
G01Y15300D02*
X288200D01*
Y15700D01*
X288600D01*
Y15300D01*
G37*
G36*
G01Y15700D02*
X288200D01*
Y16100D01*
X288600D01*
Y15700D01*
G37*
G36*
G01Y16100D02*
X288200D01*
Y16500D01*
X288600D01*
Y16100D01*
G37*
G36*
G01Y16500D02*
X288200D01*
Y16900D01*
X288600D01*
Y16500D01*
G37*
G36*
G01Y16900D02*
X288200D01*
Y17300D01*
X288600D01*
Y16900D01*
G37*
G36*
G01Y17300D02*
X288200D01*
Y17700D01*
X288600D01*
Y17300D01*
G37*
G36*
G01Y17700D02*
X288200D01*
Y18100D01*
X288600D01*
Y17700D01*
G37*
G36*
G01Y18100D02*
X288200D01*
Y18500D01*
X288600D01*
Y18100D01*
G37*
G36*
G01Y18500D02*
X288200D01*
Y18900D01*
X288600D01*
Y18500D01*
G37*
G36*
G01X282600Y24100D02*
X282200D01*
Y24500D01*
X282600D01*
Y24100D01*
G37*
G36*
G01X283000Y21700D02*
X282600D01*
Y22100D01*
X283000D01*
Y21700D01*
G37*
G36*
G01Y24100D02*
X282600D01*
Y24500D01*
X283000D01*
Y24100D01*
G37*
G36*
G01X283400Y22100D02*
X283000D01*
Y22500D01*
X283400D01*
Y22100D01*
G37*
G36*
G01Y24100D02*
X283000D01*
Y24500D01*
X283400D01*
Y24100D01*
G37*
G36*
G01X283800Y22100D02*
X283400D01*
Y22500D01*
X283800D01*
Y22100D01*
G37*
G36*
G01Y24100D02*
X283400D01*
Y24500D01*
X283800D01*
Y24100D01*
G37*
G36*
G01Y25700D02*
X283400D01*
Y26100D01*
X283800D01*
Y25700D01*
G37*
G36*
G01X284200Y22900D02*
X283800D01*
Y23300D01*
X284200D01*
Y22900D01*
G37*
G36*
G01Y23300D02*
X283800D01*
Y23700D01*
X284200D01*
Y23300D01*
G37*
G36*
G01Y23700D02*
X283800D01*
Y24100D01*
X284200D01*
Y23700D01*
G37*
G36*
G01Y24100D02*
X283800D01*
Y24500D01*
X284200D01*
Y24100D01*
G37*
G36*
G01Y24500D02*
X283800D01*
Y24900D01*
X284200D01*
Y24500D01*
G37*
G36*
G01Y24900D02*
X283800D01*
Y25300D01*
X284200D01*
Y24900D01*
G37*
G36*
G01Y25300D02*
X283800D01*
Y25700D01*
X284200D01*
Y25300D01*
G37*
G36*
G01Y25700D02*
X283800D01*
Y26100D01*
X284200D01*
Y25700D01*
G37*
G36*
G01Y26100D02*
X283800D01*
Y26500D01*
X284200D01*
Y26100D01*
G37*
G36*
G01X284600Y24100D02*
X284200D01*
Y24500D01*
X284600D01*
Y24100D01*
G37*
G36*
G01Y25700D02*
X284200D01*
Y26100D01*
X284600D01*
Y25700D01*
G37*
G36*
G01X285000Y20900D02*
X284600D01*
Y21300D01*
X285000D01*
Y20900D01*
G37*
G36*
G01Y21300D02*
X284600D01*
Y21700D01*
X285000D01*
Y21300D01*
G37*
G36*
G01Y21700D02*
X284600D01*
Y22100D01*
X285000D01*
Y21700D01*
G37*
G36*
G01Y22100D02*
X284600D01*
Y22500D01*
X285000D01*
Y22100D01*
G37*
G36*
G01Y24100D02*
X284600D01*
Y24500D01*
X285000D01*
Y24100D01*
G37*
G36*
G01Y25700D02*
X284600D01*
Y26100D01*
X285000D01*
Y25700D01*
G37*
G36*
G01X285400Y22100D02*
X285000D01*
Y22500D01*
X285400D01*
Y22100D01*
G37*
G36*
G01Y24100D02*
X285000D01*
Y24500D01*
X285400D01*
Y24100D01*
G37*
G36*
G01Y25700D02*
X285000D01*
Y26100D01*
X285400D01*
Y25700D01*
G37*
G36*
G01X285800Y22100D02*
X285400D01*
Y22500D01*
X285800D01*
Y22100D01*
G37*
G36*
G01Y23700D02*
X285400D01*
Y24100D01*
X285800D01*
Y23700D01*
G37*
G36*
G01Y25700D02*
X285400D01*
Y26100D01*
X285800D01*
Y25700D01*
G37*
G36*
G01X286200Y22100D02*
X285800D01*
Y22500D01*
X286200D01*
Y22100D01*
G37*
G36*
G01Y23700D02*
X285800D01*
Y24100D01*
X286200D01*
Y23700D01*
G37*
G36*
G01Y25700D02*
X285800D01*
Y26100D01*
X286200D01*
Y25700D01*
G37*
G36*
G01X286600Y22100D02*
X286200D01*
Y22500D01*
X286600D01*
Y22100D01*
G37*
G36*
G01Y23700D02*
X286200D01*
Y24100D01*
X286600D01*
Y23700D01*
G37*
G36*
G01Y25700D02*
X286200D01*
Y26100D01*
X286600D01*
Y25700D01*
G37*
G36*
G01X287000Y22100D02*
X286600D01*
Y22500D01*
X287000D01*
Y22100D01*
G37*
G36*
G01Y23300D02*
X286600D01*
Y23700D01*
X287000D01*
Y23300D01*
G37*
G36*
G01Y24500D02*
X286600D01*
Y24900D01*
X287000D01*
Y24500D01*
G37*
G36*
G01Y25300D02*
X286600D01*
Y25700D01*
X287000D01*
Y25300D01*
G37*
G36*
G01X287400Y22100D02*
X287000D01*
Y22500D01*
X287400D01*
Y22100D01*
G37*
G36*
G01Y22900D02*
X287000D01*
Y23300D01*
X287400D01*
Y22900D01*
G37*
G36*
G01Y24900D02*
X287000D01*
Y25300D01*
X287400D01*
Y24900D01*
G37*
G36*
G01X287800Y21700D02*
X287400D01*
Y22100D01*
X287800D01*
Y21700D01*
G37*
G36*
G01Y22500D02*
X287400D01*
Y22900D01*
X287800D01*
Y22500D01*
G37*
G36*
G01Y26100D02*
X287400D01*
Y26500D01*
X287800D01*
Y26100D01*
G37*
G36*
G01Y26500D02*
X287400D01*
Y26900D01*
X287800D01*
Y26500D01*
G37*
G36*
G01X288200Y21300D02*
X287800D01*
Y21700D01*
X288200D01*
Y21300D01*
G37*
G36*
G01Y22900D02*
X287800D01*
Y23300D01*
X288200D01*
Y22900D01*
G37*
G36*
G01Y23300D02*
X287800D01*
Y23700D01*
X288200D01*
Y23300D01*
G37*
G36*
G01Y23700D02*
X287800D01*
Y24100D01*
X288200D01*
Y23700D01*
G37*
G36*
G01Y24100D02*
X287800D01*
Y24500D01*
X288200D01*
Y24100D01*
G37*
G36*
G01Y24500D02*
X287800D01*
Y24900D01*
X288200D01*
Y24500D01*
G37*
G36*
G01Y24900D02*
X287800D01*
Y25300D01*
X288200D01*
Y24900D01*
G37*
G36*
G01Y25300D02*
X287800D01*
Y25700D01*
X288200D01*
Y25300D01*
G37*
G36*
G01Y25700D02*
X287800D01*
Y26100D01*
X288200D01*
Y25700D01*
G37*
G36*
G01Y26100D02*
X287800D01*
Y26500D01*
X288200D01*
Y26100D01*
G37*
G36*
G01X282600Y32500D02*
X282200D01*
Y32900D01*
X282600D01*
Y32500D01*
G37*
G36*
G01Y33700D02*
X282200D01*
Y34100D01*
X282600D01*
Y33700D01*
G37*
G36*
G01X283000Y29300D02*
X282600D01*
Y29700D01*
X283000D01*
Y29300D01*
G37*
G36*
G01Y30900D02*
X282600D01*
Y31300D01*
X283000D01*
Y30900D01*
G37*
G36*
G01Y31300D02*
X282600D01*
Y31700D01*
X283000D01*
Y31300D01*
G37*
G36*
G01Y31700D02*
X282600D01*
Y32100D01*
X283000D01*
Y31700D01*
G37*
G36*
G01Y32100D02*
X282600D01*
Y32500D01*
X283000D01*
Y32100D01*
G37*
G36*
G01Y32500D02*
X282600D01*
Y32900D01*
X283000D01*
Y32500D01*
G37*
G36*
G01Y32900D02*
X282600D01*
Y33300D01*
X283000D01*
Y32900D01*
G37*
G36*
G01Y33300D02*
X282600D01*
Y33700D01*
X283000D01*
Y33300D01*
G37*
G36*
G01Y33700D02*
X282600D01*
Y34100D01*
X283000D01*
Y33700D01*
G37*
G36*
G01Y34100D02*
X282600D01*
Y34500D01*
X283000D01*
Y34100D01*
G37*
G36*
G01X283400Y29700D02*
X283000D01*
Y30100D01*
X283400D01*
Y29700D01*
G37*
G36*
G01Y32500D02*
X283000D01*
Y32900D01*
X283400D01*
Y32500D01*
G37*
G36*
G01X283800Y29700D02*
X283400D01*
Y30100D01*
X283800D01*
Y29700D01*
G37*
G36*
G01Y31300D02*
X283400D01*
Y31700D01*
X283800D01*
Y31300D01*
G37*
G36*
G01Y31700D02*
X283400D01*
Y32100D01*
X283800D01*
Y31700D01*
G37*
G36*
G01Y32100D02*
X283400D01*
Y32500D01*
X283800D01*
Y32100D01*
G37*
G36*
G01Y32500D02*
X283400D01*
Y32900D01*
X283800D01*
Y32500D01*
G37*
G36*
G01Y32900D02*
X283400D01*
Y33300D01*
X283800D01*
Y32900D01*
G37*
G36*
G01Y33300D02*
X283400D01*
Y33700D01*
X283800D01*
Y33300D01*
G37*
G36*
G01Y33700D02*
X283400D01*
Y34100D01*
X283800D01*
Y33700D01*
G37*
G36*
G01X284200Y32500D02*
X283800D01*
Y32900D01*
X284200D01*
Y32500D01*
G37*
G36*
G01X284600Y28900D02*
X284200D01*
Y29300D01*
X284600D01*
Y28900D01*
G37*
G36*
G01Y29300D02*
X284200D01*
Y29700D01*
X284600D01*
Y29300D01*
G37*
G36*
G01Y29700D02*
X284200D01*
Y30100D01*
X284600D01*
Y29700D01*
G37*
G36*
G01Y30500D02*
X284200D01*
Y30900D01*
X284600D01*
Y30500D01*
G37*
G36*
G01Y30900D02*
X284200D01*
Y31300D01*
X284600D01*
Y30900D01*
G37*
G36*
G01Y31300D02*
X284200D01*
Y31700D01*
X284600D01*
Y31300D01*
G37*
G36*
G01Y31700D02*
X284200D01*
Y32100D01*
X284600D01*
Y31700D01*
G37*
G36*
G01Y32100D02*
X284200D01*
Y32500D01*
X284600D01*
Y32100D01*
G37*
G36*
G01Y32500D02*
X284200D01*
Y32900D01*
X284600D01*
Y32500D01*
G37*
G36*
G01Y32900D02*
X284200D01*
Y33300D01*
X284600D01*
Y32900D01*
G37*
G36*
G01Y33300D02*
X284200D01*
Y33700D01*
X284600D01*
Y33300D01*
G37*
G36*
G01Y33700D02*
X284200D01*
Y34100D01*
X284600D01*
Y33700D01*
G37*
G36*
G01Y34100D02*
X284200D01*
Y34500D01*
X284600D01*
Y34100D01*
G37*
G36*
G01Y34500D02*
X284200D01*
Y34900D01*
X284600D01*
Y34500D01*
G37*
G36*
G01X285000Y29700D02*
X284600D01*
Y30100D01*
X285000D01*
Y29700D01*
G37*
G36*
G01Y33700D02*
X284600D01*
Y34100D01*
X285000D01*
Y33700D01*
G37*
G36*
G01X285400Y29700D02*
X285000D01*
Y30100D01*
X285400D01*
Y29700D01*
G37*
G36*
G01Y31300D02*
X285000D01*
Y31700D01*
X285400D01*
Y31300D01*
G37*
G36*
G01Y31700D02*
X285000D01*
Y32100D01*
X285400D01*
Y31700D01*
G37*
G36*
G01Y32100D02*
X285000D01*
Y32500D01*
X285400D01*
Y32100D01*
G37*
G36*
G01Y32500D02*
X285000D01*
Y32900D01*
X285400D01*
Y32500D01*
G37*
G36*
G01Y32900D02*
X285000D01*
Y33300D01*
X285400D01*
Y32900D01*
G37*
G36*
G01Y33300D02*
X285000D01*
Y33700D01*
X285400D01*
Y33300D01*
G37*
G36*
G01Y33700D02*
X285000D01*
Y34100D01*
X285400D01*
Y33700D01*
G37*
G36*
G01Y34100D02*
X285000D01*
Y34500D01*
X285400D01*
Y34100D01*
G37*
G36*
G01X285800Y29700D02*
X285400D01*
Y30100D01*
X285800D01*
Y29700D01*
G37*
G36*
G01Y31300D02*
X285400D01*
Y31700D01*
X285800D01*
Y31300D01*
G37*
G36*
G01Y33700D02*
X285400D01*
Y34100D01*
X285800D01*
Y33700D01*
G37*
G36*
G01X286200Y29700D02*
X285800D01*
Y30100D01*
X286200D01*
Y29700D01*
G37*
G36*
G01Y31300D02*
X285800D01*
Y31700D01*
X286200D01*
Y31300D01*
G37*
G36*
G01Y31700D02*
X285800D01*
Y32100D01*
X286200D01*
Y31700D01*
G37*
G36*
G01Y32100D02*
X285800D01*
Y32500D01*
X286200D01*
Y32100D01*
G37*
G36*
G01Y32500D02*
X285800D01*
Y32900D01*
X286200D01*
Y32500D01*
G37*
G36*
G01Y32900D02*
X285800D01*
Y33300D01*
X286200D01*
Y32900D01*
G37*
G36*
G01Y33300D02*
X285800D01*
Y33700D01*
X286200D01*
Y33300D01*
G37*
G36*
G01Y33700D02*
X285800D01*
Y34100D01*
X286200D01*
Y33700D01*
G37*
G36*
G01X286600Y29700D02*
X286200D01*
Y30100D01*
X286600D01*
Y29700D01*
G37*
G36*
G01Y31300D02*
X286200D01*
Y31700D01*
X286600D01*
Y31300D01*
G37*
G36*
G01Y33700D02*
X286200D01*
Y34100D01*
X286600D01*
Y33700D01*
G37*
G36*
G01X287000Y29700D02*
X286600D01*
Y30100D01*
X287000D01*
Y29700D01*
G37*
G36*
G01Y31300D02*
X286600D01*
Y31700D01*
X287000D01*
Y31300D01*
G37*
G36*
G01Y31700D02*
X286600D01*
Y32100D01*
X287000D01*
Y31700D01*
G37*
G36*
G01Y32100D02*
X286600D01*
Y32500D01*
X287000D01*
Y32100D01*
G37*
G36*
G01Y32500D02*
X286600D01*
Y32900D01*
X287000D01*
Y32500D01*
G37*
G36*
G01Y32900D02*
X286600D01*
Y33300D01*
X287000D01*
Y32900D01*
G37*
G36*
G01Y33300D02*
X286600D01*
Y33700D01*
X287000D01*
Y33300D01*
G37*
G36*
G01Y33700D02*
X286600D01*
Y34100D01*
X287000D01*
Y33700D01*
G37*
G36*
G01X287400Y29700D02*
X287000D01*
Y30100D01*
X287400D01*
Y29700D01*
G37*
G36*
G01Y30500D02*
X287000D01*
Y30900D01*
X287400D01*
Y30500D01*
G37*
G36*
G01Y31300D02*
X287000D01*
Y31700D01*
X287400D01*
Y31300D01*
G37*
G36*
G01Y33700D02*
X287000D01*
Y34100D01*
X287400D01*
Y33700D01*
G37*
G36*
G01X287800Y29700D02*
X287400D01*
Y30100D01*
X287800D01*
Y29700D01*
G37*
G36*
G01Y30100D02*
X287400D01*
Y30500D01*
X287800D01*
Y30100D01*
G37*
G36*
G01Y31300D02*
X287400D01*
Y31700D01*
X287800D01*
Y31300D01*
G37*
G36*
G01Y33700D02*
X287400D01*
Y34100D01*
X287800D01*
Y33700D01*
G37*
G36*
G01X288200Y29700D02*
X287800D01*
Y30100D01*
X288200D01*
Y29700D01*
G37*
G36*
G01Y31300D02*
X287800D01*
Y31700D01*
X288200D01*
Y31300D01*
G37*
G36*
G01Y32900D02*
X287800D01*
Y33300D01*
X288200D01*
Y32900D01*
G37*
G36*
G01Y33700D02*
X287800D01*
Y34100D01*
X288200D01*
Y33700D01*
G37*
G36*
G01X288600Y31300D02*
X288200D01*
Y31700D01*
X288600D01*
Y31300D01*
G37*
G36*
G01Y33300D02*
X288200D01*
Y33700D01*
X288600D01*
Y33300D01*
G37*
G36*
G01X282600Y38100D02*
X282200D01*
Y38500D01*
X282600D01*
Y38100D01*
G37*
G36*
G01Y40900D02*
X282200D01*
Y41300D01*
X282600D01*
Y40900D01*
G37*
G36*
G01X283000Y38100D02*
X282600D01*
Y38500D01*
X283000D01*
Y38100D01*
G37*
G36*
G01Y40900D02*
X282600D01*
Y41300D01*
X283000D01*
Y40900D01*
G37*
G36*
G01Y41700D02*
X282600D01*
Y42100D01*
X283000D01*
Y41700D01*
G37*
G36*
G01X283400Y38100D02*
X283000D01*
Y38500D01*
X283400D01*
Y38100D01*
G37*
G36*
G01Y38500D02*
X283000D01*
Y38900D01*
X283400D01*
Y38500D01*
G37*
G36*
G01Y38900D02*
X283000D01*
Y39300D01*
X283400D01*
Y38900D01*
G37*
G36*
G01Y40900D02*
X283000D01*
Y41300D01*
X283400D01*
Y40900D01*
G37*
G36*
G01Y42100D02*
X283000D01*
Y42500D01*
X283400D01*
Y42100D01*
G37*
G36*
G01X283800Y37700D02*
X283400D01*
Y38100D01*
X283800D01*
Y37700D01*
G37*
G36*
G01Y39300D02*
X283400D01*
Y39700D01*
X283800D01*
Y39300D01*
G37*
G36*
G01Y39700D02*
X283400D01*
Y40100D01*
X283800D01*
Y39700D01*
G37*
G36*
G01Y40100D02*
X283400D01*
Y40500D01*
X283800D01*
Y40100D01*
G37*
G36*
G01Y40500D02*
X283400D01*
Y40900D01*
X283800D01*
Y40500D01*
G37*
G36*
G01Y40900D02*
X283400D01*
Y41300D01*
X283800D01*
Y40900D01*
G37*
G36*
G01Y41300D02*
X283400D01*
Y41700D01*
X283800D01*
Y41300D01*
G37*
G36*
G01Y41700D02*
X283400D01*
Y42100D01*
X283800D01*
Y41700D01*
G37*
G36*
G01Y42100D02*
X283400D01*
Y42500D01*
X283800D01*
Y42100D01*
G37*
G36*
G01Y42500D02*
X283400D01*
Y42900D01*
X283800D01*
Y42500D01*
G37*
G36*
G01X284200Y37700D02*
X283800D01*
Y38100D01*
X284200D01*
Y37700D01*
G37*
G36*
G01Y40900D02*
X283800D01*
Y41300D01*
X284200D01*
Y40900D01*
G37*
G36*
G01X284600Y37300D02*
X284200D01*
Y37700D01*
X284600D01*
Y37300D01*
G37*
G36*
G01Y37700D02*
X284200D01*
Y38100D01*
X284600D01*
Y37700D01*
G37*
G36*
G01Y38100D02*
X284200D01*
Y38500D01*
X284600D01*
Y38100D01*
G37*
G36*
G01Y38500D02*
X284200D01*
Y38900D01*
X284600D01*
Y38500D01*
G37*
G36*
G01Y38900D02*
X284200D01*
Y39300D01*
X284600D01*
Y38900D01*
G37*
G36*
G01Y39700D02*
X284200D01*
Y40100D01*
X284600D01*
Y39700D01*
G37*
G36*
G01Y40100D02*
X284200D01*
Y40500D01*
X284600D01*
Y40100D01*
G37*
G36*
G01Y40500D02*
X284200D01*
Y40900D01*
X284600D01*
Y40500D01*
G37*
G36*
G01Y40900D02*
X284200D01*
Y41300D01*
X284600D01*
Y40900D01*
G37*
G36*
G01Y41300D02*
X284200D01*
Y41700D01*
X284600D01*
Y41300D01*
G37*
G36*
G01Y41700D02*
X284200D01*
Y42100D01*
X284600D01*
Y41700D01*
G37*
G36*
G01Y42100D02*
X284200D01*
Y42500D01*
X284600D01*
Y42100D01*
G37*
G36*
G01X285000Y36900D02*
X284600D01*
Y37300D01*
X285000D01*
Y36900D01*
G37*
G36*
G01Y38100D02*
X284600D01*
Y38500D01*
X285000D01*
Y38100D01*
G37*
G36*
G01Y39700D02*
X284600D01*
Y40100D01*
X285000D01*
Y39700D01*
G37*
G36*
G01Y40900D02*
X284600D01*
Y41300D01*
X285000D01*
Y40900D01*
G37*
G36*
G01Y42100D02*
X284600D01*
Y42500D01*
X285000D01*
Y42100D01*
G37*
G36*
G01X285400Y38100D02*
X285000D01*
Y38500D01*
X285400D01*
Y38100D01*
G37*
G36*
G01Y39700D02*
X285000D01*
Y40100D01*
X285400D01*
Y39700D01*
G37*
G36*
G01Y40900D02*
X285000D01*
Y41300D01*
X285400D01*
Y40900D01*
G37*
G36*
G01Y42100D02*
X285000D01*
Y42500D01*
X285400D01*
Y42100D01*
G37*
G36*
G01X285800Y37300D02*
X285400D01*
Y37700D01*
X285800D01*
Y37300D01*
G37*
G36*
G01Y37700D02*
X285400D01*
Y38100D01*
X285800D01*
Y37700D01*
G37*
G36*
G01Y38100D02*
X285400D01*
Y38500D01*
X285800D01*
Y38100D01*
G37*
G36*
G01Y38500D02*
X285400D01*
Y38900D01*
X285800D01*
Y38500D01*
G37*
G36*
G01Y38900D02*
X285400D01*
Y39300D01*
X285800D01*
Y38900D01*
G37*
G36*
G01Y39700D02*
X285400D01*
Y40100D01*
X285800D01*
Y39700D01*
G37*
G36*
G01Y40100D02*
X285400D01*
Y40500D01*
X285800D01*
Y40100D01*
G37*
G36*
G01Y40500D02*
X285400D01*
Y40900D01*
X285800D01*
Y40500D01*
G37*
G36*
G01Y40900D02*
X285400D01*
Y41300D01*
X285800D01*
Y40900D01*
G37*
G36*
G01Y41300D02*
X285400D01*
Y41700D01*
X285800D01*
Y41300D01*
G37*
G36*
G01Y41700D02*
X285400D01*
Y42100D01*
X285800D01*
Y41700D01*
G37*
G36*
G01Y42100D02*
X285400D01*
Y42500D01*
X285800D01*
Y42100D01*
G37*
G36*
G01X286200Y38100D02*
X285800D01*
Y38500D01*
X286200D01*
Y38100D01*
G37*
G36*
G01Y39700D02*
X285800D01*
Y40100D01*
X286200D01*
Y39700D01*
G37*
G36*
G01Y40900D02*
X285800D01*
Y41300D01*
X286200D01*
Y40900D01*
G37*
G36*
G01Y42100D02*
X285800D01*
Y42500D01*
X286200D01*
Y42100D01*
G37*
G36*
G01X286600Y38100D02*
X286200D01*
Y38500D01*
X286600D01*
Y38100D01*
G37*
G36*
G01Y39700D02*
X286200D01*
Y40100D01*
X286600D01*
Y39700D01*
G37*
G36*
G01Y40900D02*
X286200D01*
Y41300D01*
X286600D01*
Y40900D01*
G37*
G36*
G01Y42100D02*
X286200D01*
Y42500D01*
X286600D01*
Y42100D01*
G37*
G36*
G01X287000Y38100D02*
X286600D01*
Y38500D01*
X287000D01*
Y38100D01*
G37*
G36*
G01Y39700D02*
X286600D01*
Y40100D01*
X287000D01*
Y39700D01*
G37*
G36*
G01Y40100D02*
X286600D01*
Y40500D01*
X287000D01*
Y40100D01*
G37*
G36*
G01Y40500D02*
X286600D01*
Y40900D01*
X287000D01*
Y40500D01*
G37*
G36*
G01Y40900D02*
X286600D01*
Y41300D01*
X287000D01*
Y40900D01*
G37*
G36*
G01Y41300D02*
X286600D01*
Y41700D01*
X287000D01*
Y41300D01*
G37*
G36*
G01Y41700D02*
X286600D01*
Y42100D01*
X287000D01*
Y41700D01*
G37*
G36*
G01Y42100D02*
X286600D01*
Y42500D01*
X287000D01*
Y42100D01*
G37*
G36*
G01X287400Y38100D02*
X287000D01*
Y38500D01*
X287400D01*
Y38100D01*
G37*
G36*
G01Y38900D02*
X287000D01*
Y39300D01*
X287400D01*
Y38900D01*
G37*
G36*
G01Y39700D02*
X287000D01*
Y40100D01*
X287400D01*
Y39700D01*
G37*
G36*
G01Y40900D02*
X287000D01*
Y41300D01*
X287400D01*
Y40900D01*
G37*
G36*
G01Y42100D02*
X287000D01*
Y42500D01*
X287400D01*
Y42100D01*
G37*
G36*
G01X287800Y38100D02*
X287400D01*
Y38500D01*
X287800D01*
Y38100D01*
G37*
G36*
G01Y38500D02*
X287400D01*
Y38900D01*
X287800D01*
Y38500D01*
G37*
G36*
G01Y39700D02*
X287400D01*
Y40100D01*
X287800D01*
Y39700D01*
G37*
G36*
G01Y40900D02*
X287400D01*
Y41300D01*
X287800D01*
Y40900D01*
G37*
G36*
G01Y42100D02*
X287400D01*
Y42500D01*
X287800D01*
Y42100D01*
G37*
G36*
G01X288200Y38100D02*
X287800D01*
Y38500D01*
X288200D01*
Y38100D01*
G37*
G36*
G01Y39700D02*
X287800D01*
Y40100D01*
X288200D01*
Y39700D01*
G37*
G36*
G01Y40900D02*
X287800D01*
Y41300D01*
X288200D01*
Y40900D01*
G37*
G36*
G01Y41300D02*
X287800D01*
Y41700D01*
X288200D01*
Y41300D01*
G37*
G36*
G01Y42100D02*
X287800D01*
Y42500D01*
X288200D01*
Y42100D01*
G37*
G36*
G01X288600Y39700D02*
X288200D01*
Y40100D01*
X288600D01*
Y39700D01*
G37*
G36*
G01Y40900D02*
X288200D01*
Y41300D01*
X288600D01*
Y40900D01*
G37*
G36*
G01Y41700D02*
X288200D01*
Y42100D01*
X288600D01*
Y41700D01*
G37*
G36*
G01X282600Y45700D02*
X282200D01*
Y46100D01*
X282600D01*
Y45700D01*
G37*
G36*
G01Y50100D02*
X282200D01*
Y50500D01*
X282600D01*
Y50100D01*
G37*
G36*
G01X283000Y45700D02*
X282600D01*
Y46100D01*
X283000D01*
Y45700D01*
G37*
G36*
G01Y47300D02*
X282600D01*
Y47700D01*
X283000D01*
Y47300D01*
G37*
G36*
G01Y47700D02*
X282600D01*
Y48100D01*
X283000D01*
Y47700D01*
G37*
G36*
G01Y48100D02*
X282600D01*
Y48500D01*
X283000D01*
Y48100D01*
G37*
G36*
G01Y48500D02*
X282600D01*
Y48900D01*
X283000D01*
Y48500D01*
G37*
G36*
G01Y48900D02*
X282600D01*
Y49300D01*
X283000D01*
Y48900D01*
G37*
G36*
G01Y49300D02*
X282600D01*
Y49700D01*
X283000D01*
Y49300D01*
G37*
G36*
G01Y49700D02*
X282600D01*
Y50100D01*
X283000D01*
Y49700D01*
G37*
G36*
G01Y50100D02*
X282600D01*
Y50500D01*
X283000D01*
Y50100D01*
G37*
G36*
G01Y50500D02*
X282600D01*
Y50900D01*
X283000D01*
Y50500D01*
G37*
G36*
G01X283400Y45700D02*
X283000D01*
Y46100D01*
X283400D01*
Y45700D01*
G37*
G36*
G01Y46100D02*
X283000D01*
Y46500D01*
X283400D01*
Y46100D01*
G37*
G36*
G01Y46500D02*
X283000D01*
Y46900D01*
X283400D01*
Y46500D01*
G37*
G36*
G01Y46900D02*
X283000D01*
Y47300D01*
X283400D01*
Y46900D01*
G37*
G36*
G01Y47300D02*
X283000D01*
Y47700D01*
X283400D01*
Y47300D01*
G37*
G36*
G01Y50100D02*
X283000D01*
Y50500D01*
X283400D01*
Y50100D01*
G37*
G36*
G01X283800Y45300D02*
X283400D01*
Y45700D01*
X283800D01*
Y45300D01*
G37*
G36*
G01Y47300D02*
X283400D01*
Y47700D01*
X283800D01*
Y47300D01*
G37*
G36*
G01Y50100D02*
X283400D01*
Y50500D01*
X283800D01*
Y50100D01*
G37*
G36*
G01X284200Y44900D02*
X283800D01*
Y45300D01*
X284200D01*
Y44900D01*
G37*
G36*
G01Y47300D02*
X283800D01*
Y47700D01*
X284200D01*
Y47300D01*
G37*
G36*
G01Y48100D02*
X283800D01*
Y48500D01*
X284200D01*
Y48100D01*
G37*
G36*
G01Y48500D02*
X283800D01*
Y48900D01*
X284200D01*
Y48500D01*
G37*
G36*
G01Y48900D02*
X283800D01*
Y49300D01*
X284200D01*
Y48900D01*
G37*
G36*
G01Y49300D02*
X283800D01*
Y49700D01*
X284200D01*
Y49300D01*
G37*
G36*
G01Y50100D02*
X283800D01*
Y50500D01*
X284200D01*
Y50100D01*
G37*
G36*
G01X284600Y45300D02*
X284200D01*
Y45700D01*
X284600D01*
Y45300D01*
G37*
G36*
G01Y45700D02*
X284200D01*
Y46100D01*
X284600D01*
Y45700D01*
G37*
G36*
G01Y46100D02*
X284200D01*
Y46500D01*
X284600D01*
Y46100D01*
G37*
G36*
G01Y46500D02*
X284200D01*
Y46900D01*
X284600D01*
Y46500D01*
G37*
G36*
G01Y47300D02*
X284200D01*
Y47700D01*
X284600D01*
Y47300D01*
G37*
G36*
G01Y50100D02*
X284200D01*
Y50500D01*
X284600D01*
Y50100D01*
G37*
G36*
G01X285000Y45700D02*
X284600D01*
Y46100D01*
X285000D01*
Y45700D01*
G37*
G36*
G01Y47300D02*
X284600D01*
Y47700D01*
X285000D01*
Y47300D01*
G37*
G36*
G01Y50100D02*
X284600D01*
Y50500D01*
X285000D01*
Y50100D01*
G37*
G36*
G01X285400Y45700D02*
X285000D01*
Y46100D01*
X285400D01*
Y45700D01*
G37*
G36*
G01Y47300D02*
X285000D01*
Y47700D01*
X285400D01*
Y47300D01*
G37*
G36*
G01Y48100D02*
X285000D01*
Y48500D01*
X285400D01*
Y48100D01*
G37*
G36*
G01Y48500D02*
X285000D01*
Y48900D01*
X285400D01*
Y48500D01*
G37*
G36*
G01Y48900D02*
X285000D01*
Y49300D01*
X285400D01*
Y48900D01*
G37*
G36*
G01Y49300D02*
X285000D01*
Y49700D01*
X285400D01*
Y49300D01*
G37*
G36*
G01Y50100D02*
X285000D01*
Y50500D01*
X285400D01*
Y50100D01*
G37*
G36*
G01X285800Y44900D02*
X285400D01*
Y45300D01*
X285800D01*
Y44900D01*
G37*
G36*
G01Y45300D02*
X285400D01*
Y45700D01*
X285800D01*
Y45300D01*
G37*
G36*
G01Y45700D02*
X285400D01*
Y46100D01*
X285800D01*
Y45700D01*
G37*
G36*
G01Y46100D02*
X285400D01*
Y46500D01*
X285800D01*
Y46100D01*
G37*
G36*
G01Y46500D02*
X285400D01*
Y46900D01*
X285800D01*
Y46500D01*
G37*
G36*
G01Y47300D02*
X285400D01*
Y47700D01*
X285800D01*
Y47300D01*
G37*
G36*
G01Y48100D02*
X285400D01*
Y48500D01*
X285800D01*
Y48100D01*
G37*
G36*
G01Y49300D02*
X285400D01*
Y49700D01*
X285800D01*
Y49300D01*
G37*
G36*
G01Y50100D02*
X285400D01*
Y50500D01*
X285800D01*
Y50100D01*
G37*
G36*
G01X286200Y45700D02*
X285800D01*
Y46100D01*
X286200D01*
Y45700D01*
G37*
G36*
G01Y47300D02*
X285800D01*
Y47700D01*
X286200D01*
Y47300D01*
G37*
G36*
G01Y48100D02*
X285800D01*
Y48500D01*
X286200D01*
Y48100D01*
G37*
G36*
G01Y49300D02*
X285800D01*
Y49700D01*
X286200D01*
Y49300D01*
G37*
G36*
G01Y50100D02*
X285800D01*
Y50500D01*
X286200D01*
Y50100D01*
G37*
G36*
G01X286600Y45700D02*
X286200D01*
Y46100D01*
X286600D01*
Y45700D01*
G37*
G36*
G01Y47300D02*
X286200D01*
Y47700D01*
X286600D01*
Y47300D01*
G37*
G36*
G01Y48100D02*
X286200D01*
Y48500D01*
X286600D01*
Y48100D01*
G37*
G36*
G01Y49300D02*
X286200D01*
Y49700D01*
X286600D01*
Y49300D01*
G37*
G36*
G01Y50100D02*
X286200D01*
Y50500D01*
X286600D01*
Y50100D01*
G37*
G36*
G01X287000Y45700D02*
X286600D01*
Y46100D01*
X287000D01*
Y45700D01*
G37*
G36*
G01Y46900D02*
X286600D01*
Y47300D01*
X287000D01*
Y46900D01*
G37*
G36*
G01Y47300D02*
X286600D01*
Y47700D01*
X287000D01*
Y47300D01*
G37*
G36*
G01Y48100D02*
X286600D01*
Y48500D01*
X287000D01*
Y48100D01*
G37*
G36*
G01Y48500D02*
X286600D01*
Y48900D01*
X287000D01*
Y48500D01*
G37*
G36*
G01Y48900D02*
X286600D01*
Y49300D01*
X287000D01*
Y48900D01*
G37*
G36*
G01Y49300D02*
X286600D01*
Y49700D01*
X287000D01*
Y49300D01*
G37*
G36*
G01Y50100D02*
X286600D01*
Y50500D01*
X287000D01*
Y50100D01*
G37*
G36*
G01X287400Y45700D02*
X287000D01*
Y46100D01*
X287400D01*
Y45700D01*
G37*
G36*
G01Y46500D02*
X287000D01*
Y46900D01*
X287400D01*
Y46500D01*
G37*
G36*
G01Y47300D02*
X287000D01*
Y47700D01*
X287400D01*
Y47300D01*
G37*
G36*
G01Y50100D02*
X287000D01*
Y50500D01*
X287400D01*
Y50100D01*
G37*
G36*
G01X287800Y45700D02*
X287400D01*
Y46100D01*
X287800D01*
Y45700D01*
G37*
G36*
G01Y46100D02*
X287400D01*
Y46500D01*
X287800D01*
Y46100D01*
G37*
G36*
G01Y47300D02*
X287400D01*
Y47700D01*
X287800D01*
Y47300D01*
G37*
G36*
G01Y50100D02*
X287400D01*
Y50500D01*
X287800D01*
Y50100D01*
G37*
G36*
G01X288200Y45700D02*
X287800D01*
Y46100D01*
X288200D01*
Y45700D01*
G37*
G36*
G01Y47300D02*
X287800D01*
Y47700D01*
X288200D01*
Y47300D01*
G37*
G36*
G01Y49300D02*
X287800D01*
Y49700D01*
X288200D01*
Y49300D01*
G37*
G36*
G01Y50100D02*
X287800D01*
Y50500D01*
X288200D01*
Y50100D01*
G37*
G36*
G01X288600Y47300D02*
X288200D01*
Y47700D01*
X288600D01*
Y47300D01*
G37*
G36*
G01Y49700D02*
X288200D01*
Y50100D01*
X288600D01*
Y49700D01*
G37*
G54D10*
X3600Y5376D03*
Y15376D03*
Y25376D03*
Y35376D03*
Y45376D03*
Y55376D03*
Y65376D03*
Y75376D03*
Y85376D03*
Y95376D03*
Y105376D03*
Y115376D03*
Y125376D03*
Y135376D03*
Y145376D03*
Y155376D03*
Y165376D03*
Y175376D03*
Y185376D03*
X43500Y13500D03*
X63600Y13376D03*
X73600D03*
X25000Y27000D03*
Y17000D03*
X35000D03*
Y27000D03*
X35500Y36500D03*
X73600Y5376D03*
X63600D03*
X53600D03*
X38500Y5500D03*
X13600Y5376D03*
X61500Y32500D03*
X72854Y18146D03*
X67343Y18157D03*
X59000Y18500D03*
X42539Y31961D03*
X70098Y32402D03*
X29740Y39240D03*
X60500Y42295D03*
X67000Y42000D03*
X70500Y39396D03*
X64000Y90000D03*
X64500Y86500D03*
X19000Y105000D03*
X67825Y83674D03*
X74500Y116500D03*
X10000Y60000D03*
Y70000D03*
Y80000D03*
X9000Y89500D03*
X60000Y103500D03*
Y108500D03*
X46250Y112250D03*
X75000Y103500D03*
X65000Y75000D03*
X56124Y58600D03*
X34124Y59100D03*
X44124D03*
X38500Y93500D03*
X57500Y50000D03*
X63500D03*
X38000Y115500D03*
X60000Y92500D03*
X75000Y93000D03*
X60500Y86000D03*
X43000Y106500D03*
X55000Y96000D03*
X48000Y81500D03*
X68500Y56000D03*
X76000Y50500D03*
X68500Y51500D03*
X56500Y88500D03*
X66000Y80000D03*
X47500Y46500D03*
X45000Y132278D03*
X50000Y136000D03*
X65500Y138500D03*
X49000Y157000D03*
X42500D03*
X56900Y122150D03*
X70795Y138795D03*
X34000Y142500D03*
X20000Y137500D03*
X54000Y139458D03*
X10000Y117500D03*
Y127500D03*
Y137500D03*
Y147500D03*
X15000Y170000D03*
X27500Y160500D03*
Y170000D03*
X20000Y147500D03*
X13000Y185376D03*
X23000D03*
X33000D03*
X52500Y157000D03*
X54000Y183500D03*
X57500Y178500D03*
X36500Y181500D03*
X57500Y171000D03*
Y166500D03*
X75205Y138705D03*
Y124205D03*
X58500Y134500D03*
X27000Y126000D03*
X38000Y173500D03*
X40000Y159446D03*
X46000Y159000D03*
X29500Y142500D03*
X39000D03*
X57500Y155000D03*
X47500Y130500D03*
Y138500D03*
X53000Y122000D03*
X61500Y143000D03*
X56500Y118500D03*
X58500Y131500D03*
X27000Y121000D03*
Y131500D03*
X131000Y40000D03*
X135000D03*
X142000Y20000D03*
Y16000D03*
X150672Y7000D03*
X149672Y24500D03*
X123500Y13000D03*
X146500Y35000D03*
X140000Y28500D03*
X135000Y13000D03*
X131000Y20500D03*
X93600Y13376D03*
X103600D03*
X83600D03*
X143000Y31500D03*
X140000Y24500D03*
X131898Y27500D03*
X133600Y5376D03*
X123600D03*
X113600D03*
X103600D03*
X93600D03*
X83600D03*
X119705Y31795D03*
X122461Y18039D03*
X121000Y39000D03*
X100000Y32500D03*
X86500Y18000D03*
X103000D03*
X97500D03*
X108500D03*
X83878Y32378D03*
X105500Y33000D03*
X108000Y39500D03*
X98795Y39295D03*
X147672Y10000D03*
X125500Y34000D03*
Y38400D03*
X110500Y99500D03*
X147000Y78000D03*
X143104Y78396D03*
X125000Y89500D03*
X140000D03*
X142500Y83500D03*
X134735Y83000D03*
X135000Y89500D03*
X88000Y116000D03*
X81500Y112000D03*
X138000Y94800D03*
X151000Y79100D03*
X146500Y56265D03*
X126500Y114300D03*
X101500Y75000D03*
X95000Y103500D03*
X136000Y57500D03*
X103000Y103500D03*
X87500Y75000D03*
X120000Y108500D03*
X114000Y113500D03*
X114500Y79000D03*
X112000Y108500D03*
X80500Y50500D03*
X85000Y114000D03*
X120000Y73500D03*
X128000Y65500D03*
X110000Y82500D03*
X86500D03*
X106000Y108500D03*
X128500Y90000D03*
X120500Y89500D03*
X105500Y93000D03*
X86500D03*
X144000Y113000D03*
X136000Y110000D03*
X78500Y108500D03*
X132500Y78000D03*
X150500Y64795D03*
X122500Y103500D03*
X142500Y104503D03*
X142000Y100500D03*
X146000Y105000D03*
X123500Y96000D03*
X107500Y64500D03*
X84500Y77500D03*
X96000Y58500D03*
X106500Y59500D03*
X103500Y50000D03*
X89500D03*
X104000Y45500D03*
X109000Y78000D03*
X111000Y60000D03*
X115765Y54000D03*
X93500Y50000D03*
X120000Y133500D03*
X135000Y137000D03*
X115500Y177500D03*
X118000Y136500D03*
X126500Y138500D03*
X143000Y150000D03*
X139000D03*
X92500Y140000D03*
X89000Y142500D03*
X81000D03*
X133500Y171000D03*
X151000Y160000D03*
Y155000D03*
X150000Y121000D03*
X134500Y124500D03*
X103247Y127500D03*
X103000Y117500D03*
Y122500D03*
X120500Y118300D03*
X87500Y123500D03*
X142500Y127500D03*
X141000Y145000D03*
X145000Y180000D03*
X91000Y118000D03*
X146500Y185376D03*
X136500D03*
X126500D03*
X116500D03*
X106500D03*
X140500Y138500D03*
X132905Y147405D03*
X126500Y147500D03*
X121000Y146500D03*
X151000Y149500D03*
X121500Y158500D03*
X132500Y165000D03*
X79500Y121500D03*
X91000Y127500D03*
X105000Y164500D03*
X136500Y155000D03*
X101000Y174000D03*
X121000Y139500D03*
X132000Y141500D03*
X78500Y127500D03*
X111000Y117500D03*
X106500Y175500D03*
X122000Y143000D03*
X121000Y171000D03*
Y177500D03*
X127500Y171000D03*
Y177500D03*
X176000Y33000D03*
X183500Y23500D03*
X186000Y7000D03*
X212000Y7500D03*
X196000D03*
X198500Y26500D03*
X175500Y7500D03*
X161500Y7000D03*
X162500Y29500D03*
X215500Y17000D03*
X166249Y25750D03*
X182500Y5500D03*
X221500Y42000D03*
X196000Y11000D03*
X180104Y12000D03*
X163000Y21000D03*
X159760Y23588D03*
X162672Y11500D03*
X207500Y7500D03*
X158172Y7000D03*
X167000Y7500D03*
X165500Y34000D03*
X206500Y32500D03*
X179267Y29170D03*
X186000Y40000D03*
X175500Y24500D03*
X196500Y19735D03*
X207500Y42500D03*
X220000Y21000D03*
X223000Y29500D03*
X216000Y9500D03*
X209200Y24000D03*
X193000Y25000D03*
X180500Y21500D03*
X191672Y7200D03*
X224000Y26500D03*
X178500Y5500D03*
X176000Y29500D03*
X200000Y42000D03*
X195396Y41900D03*
X170000Y36000D03*
X175000Y104000D03*
X174331Y106831D03*
X169500Y105000D03*
X166000D03*
X191000Y52000D03*
X187000D03*
X165800Y75000D03*
X161100Y71500D03*
X209150Y45000D03*
X202000Y112500D03*
X222205Y116795D03*
Y112705D03*
X169278Y97078D03*
X156000Y56265D03*
X161164Y74336D03*
X182000Y117000D03*
X188000D03*
X210000Y93500D03*
X185500Y89000D03*
X165900Y71735D03*
X174500Y77500D03*
X178500Y80500D03*
X212000Y108500D03*
X222795Y108295D03*
X211500Y113500D03*
X198500Y56000D03*
X196000Y73000D03*
X199000Y90724D03*
X194000Y91100D03*
X187500Y102500D03*
X184000D03*
X154000Y113000D03*
X199000Y102500D03*
X204000Y107000D03*
X194000Y102500D03*
X204071Y92429D03*
X154843Y64780D03*
X203500Y70000D03*
X156500Y78500D03*
Y108500D03*
X153000Y110000D03*
X199500Y73000D03*
X214000Y83000D03*
X207000Y73000D03*
X218500Y59000D03*
X191500Y47000D03*
X188500Y45000D03*
X221500Y86500D03*
X190443Y126966D03*
X210500Y147000D03*
X222500Y163000D03*
X192000Y173000D03*
X186500Y179000D03*
X171500Y180000D03*
Y170500D03*
X160000Y171000D03*
X166000Y155000D03*
X161500Y160000D03*
X172000D03*
X203500D03*
X194500D03*
X182500D03*
X168500Y146500D03*
X194500Y153000D03*
X182000D03*
X203500D03*
X152500Y141500D03*
X160500Y149500D03*
X203500Y147500D03*
X192000Y133000D03*
X197500Y177376D03*
X207500D03*
X160000Y180000D03*
X152500D03*
X216500Y185376D03*
X206500D03*
X196500D03*
X186500D03*
X176500D03*
X166500D03*
X156500D03*
X182500Y147500D03*
X195500D03*
X172500Y142500D03*
X212000Y178500D03*
X222500Y156000D03*
Y141500D03*
Y151000D03*
X223000Y147000D03*
X222500Y123000D03*
X216500Y124500D03*
X159000Y135000D03*
X204500Y124500D03*
X191500Y121500D03*
X195000Y127500D03*
X222500Y173500D03*
X234800Y24500D03*
X238004Y20996D03*
X250000Y28000D03*
X243500Y16000D03*
X248500Y17798D03*
X253600Y5376D03*
X272100Y43376D03*
Y33376D03*
Y23376D03*
Y13376D03*
Y3376D03*
X248500Y41500D03*
X237500Y18000D03*
X232500Y87000D03*
X242004Y50000D03*
X246000Y45500D03*
X238000Y79500D03*
X230500Y48000D03*
X225500Y114500D03*
X243000Y102000D03*
Y95500D03*
Y79500D03*
Y85500D03*
X238000Y95500D03*
Y102000D03*
X240000Y109000D03*
X272100Y113376D03*
Y103376D03*
Y93376D03*
Y83376D03*
Y73376D03*
Y63376D03*
Y53376D03*
X240500Y53500D03*
X243735Y47500D03*
X238000Y63000D03*
X227000Y50000D03*
X248500Y100500D03*
Y87000D03*
Y81000D03*
Y117000D03*
X243000Y59000D03*
X248000Y110000D03*
X225000Y88000D03*
X235500Y59000D03*
X228000Y63500D03*
X224500Y59500D03*
X227000Y141500D03*
X231500Y157000D03*
X238500Y130000D03*
X256500Y176876D03*
X266500D03*
X272100Y173376D03*
Y163376D03*
Y153376D03*
Y143376D03*
Y133376D03*
Y123376D03*
X266500Y185376D03*
X256500D03*
X236500D03*
X226500D03*
X240000Y138500D03*
X236733Y124520D03*
X232500Y124500D03*
Y152000D03*
X231500Y165500D03*
Y161000D03*
X398669Y86673D03*
G54D20*
X252700Y43400D03*
Y33400D03*
Y23400D03*
X262700Y43400D03*
Y33400D03*
Y23400D03*
X252700Y113400D03*
Y103400D03*
Y93400D03*
Y83400D03*
Y73400D03*
Y63400D03*
Y53400D03*
X262700Y113400D03*
Y103400D03*
Y93400D03*
Y83400D03*
Y73400D03*
Y63400D03*
Y53400D03*
X252700Y163400D03*
Y153400D03*
Y143400D03*
Y133400D03*
Y123400D03*
X262700Y163400D03*
Y153400D03*
Y143400D03*
Y133400D03*
Y123400D03*
X398669Y2373D03*
G54D11*
X14500Y23500D03*
Y13500D03*
X398669Y30473D03*
G54D21*
G01X10400Y222700D02*
X12400D01*
Y220300D01*
X11800Y219500D01*
X11100Y218967D01*
X10100Y218700D01*
X9100Y218967D01*
X8400Y219500D01*
X7800Y220300D01*
X7400Y221233D01*
X7200Y222300D01*
Y223233D01*
X7400Y224033D01*
X7800Y224967D01*
X8400Y225767D01*
X9000Y226300D01*
X9800Y226700D01*
X10500D01*
X11300Y226433D01*
X11900Y225900D01*
G01X16300Y226700D02*
X15500Y226433D01*
X14900Y225767D01*
X14500Y224967D01*
X14200Y223900D01*
X14100Y222700D01*
X14200Y221500D01*
X14500Y220433D01*
X14900Y219633D01*
X15500Y218967D01*
X16300Y218700D01*
X17100Y218967D01*
X17700Y219633D01*
X18100Y220433D01*
X18400Y221500D01*
X18500Y222700D01*
X18400Y223900D01*
X18100Y224967D01*
X17700Y225767D01*
X17100Y226433D01*
X16300Y226700D01*
G01X21100Y219633D02*
X21800Y218967D01*
X22600Y218700D01*
X23400Y218967D01*
X24100Y219766D01*
X24600Y220967D01*
X24800Y222167D01*
Y223633D01*
X24600Y224833D01*
X24100Y225900D01*
X23500Y226433D01*
X22800Y226700D01*
X22000Y226433D01*
X21400Y225900D01*
X21000Y225100D01*
X20800Y224033D01*
X21000Y223100D01*
X21500Y222167D01*
X22100Y221633D01*
X22800Y221500D01*
X23600Y221766D01*
X24200Y222433D01*
X24800Y223633D01*
G01X27400Y222033D02*
X28100Y222967D01*
X28700Y223500D01*
X29500Y223767D01*
X30200Y223500D01*
X30700Y222967D01*
X31100Y222167D01*
X31200Y221233D01*
X31100Y220433D01*
X30700Y219633D01*
X30100Y218967D01*
X29400Y218700D01*
X28600Y218967D01*
X27900Y219766D01*
X27500Y220967D01*
X27400Y222300D01*
X27600Y224033D01*
X27900Y224967D01*
X28400Y225900D01*
X29100Y226567D01*
X29800Y226700D01*
X30500Y226433D01*
X31000Y225767D01*
G01X38000Y226033D02*
X37400Y226433D01*
X36700Y226700D01*
X35900D01*
X35000Y226300D01*
X34300Y225633D01*
X33800Y224833D01*
X33400Y223500D01*
X33300Y222300D01*
X33500Y221100D01*
X33800Y220300D01*
X34400Y219500D01*
X35100Y218967D01*
X35800Y218700D01*
X36500D01*
X37200Y218967D01*
X37800Y219367D01*
X38300Y219900D01*
G01X42300Y226700D02*
X41500Y226433D01*
X40900Y225767D01*
X40500Y224967D01*
X40200Y223900D01*
X40100Y222700D01*
X40200Y221500D01*
X40500Y220433D01*
X40900Y219633D01*
X41500Y218967D01*
X42300Y218700D01*
X43100Y218967D01*
X43700Y219633D01*
X44100Y220433D01*
X44400Y221500D01*
X44500Y222700D01*
X44400Y223900D01*
X44100Y224967D01*
X43700Y225767D01*
X43100Y226433D01*
X42300Y226700D01*
G01X50000Y218700D02*
Y226700D01*
X46300Y220967D01*
X51300D01*
G01X55300Y226700D02*
X54500Y226433D01*
X53900Y225767D01*
X53500Y224967D01*
X53200Y223900D01*
X53100Y222700D01*
X53200Y221500D01*
X53500Y220433D01*
X53900Y219633D01*
X54500Y218967D01*
X55300Y218700D01*
X56100Y218967D01*
X56700Y219633D01*
X57100Y220433D01*
X57400Y221500D01*
X57500Y222700D01*
X57400Y223900D01*
X57100Y224967D01*
X56700Y225767D01*
X56100Y226433D01*
X55300Y226700D01*
G01X62600Y222967D02*
X63000Y223367D01*
X63300Y224033D01*
X63500Y224967D01*
X63300Y225767D01*
X62900Y226300D01*
X62200Y226700D01*
X59500D01*
Y218700D01*
X62800D01*
X63500Y219233D01*
X63900Y220033D01*
X64100Y220967D01*
X63900Y221900D01*
X63300Y222700D01*
X62600Y222967D01*
X59500D01*
G01X68300Y226700D02*
X67500Y226433D01*
X66900Y225767D01*
X66500Y224967D01*
X66200Y223900D01*
X66100Y222700D01*
X66200Y221500D01*
X66500Y220433D01*
X66900Y219633D01*
X67500Y218967D01*
X68300Y218700D01*
X69100Y218967D01*
X69700Y219633D01*
X70100Y220433D01*
X70400Y221500D01*
X70500Y222700D01*
X70400Y223900D01*
X70100Y224967D01*
X69700Y225767D01*
X69100Y226433D01*
X68300Y226700D01*
G01X141400Y-105000D02*
Y-113000D01*
X137600D01*
G01X139000Y-109133D02*
X141400D01*
G01X138600Y98500D02*
Y106500D01*
X142400D01*
G01X141000Y102633D02*
X138600D01*
G54D12*
X51004Y9736D03*
X113996D03*
X398669Y-110027D03*
G54D22*
G01X-187135Y239107D02*
X-187063Y251607D01*
X-183188Y251585D01*
X-181952Y250952D01*
X-181182Y250115D01*
X-180881Y248446D01*
X-181201Y246781D01*
X-182137Y245745D01*
X-183225Y245126D01*
X-187100Y245149D01*
G01X-183225Y245126D02*
X-180935Y239071D01*
G01X-171635Y239018D02*
X-171563Y251518D01*
X-173438Y249029D01*
G01X-173495Y239029D02*
X-169775Y239008D01*
G01X-159238Y238531D02*
X-159546Y238741D01*
X-159544Y239157D01*
X-159233Y239364D01*
X-158924Y239154D01*
X-158926Y238737D01*
X-159238Y238531D01*
G01X-150234Y240770D02*
X-149310Y239724D01*
X-148229Y239093D01*
X-146835Y238876D01*
X-145438Y239285D01*
X-144348Y240112D01*
X-143565Y241566D01*
X-143400Y243231D01*
X-143700Y244900D01*
X-144470Y245946D01*
X-145550Y246786D01*
X-146633Y247000D01*
X-147720Y246798D01*
X-149119Y245973D01*
X-148623Y251387D01*
X-144438Y251363D01*
G01X-10000Y-188976D02*
X-128000D01*
G01X-118000Y-96525D02*
Y-188976D01*
G01X-120500Y-173976D02*
X-118000Y-188976D01*
X-115500Y-173976D01*
X-120500D01*
G01X-113208Y-85135D02*
X-112167Y-84050D01*
X-111750Y-82810D01*
X-112167Y-81570D01*
X-113416Y-80485D01*
X-115292Y-79710D01*
X-117167Y-79400D01*
X-119458D01*
X-121333Y-79710D01*
X-123000Y-80485D01*
X-123833Y-81415D01*
X-124250Y-82500D01*
X-123833Y-83740D01*
X-123000Y-84670D01*
X-121750Y-85290D01*
X-120083Y-85600D01*
X-118625Y-85290D01*
X-117167Y-84515D01*
X-116333Y-83585D01*
X-116125Y-82500D01*
X-116541Y-81260D01*
X-117583Y-80330D01*
X-119458Y-79400D01*
G01X-116958Y-73045D02*
X-118417Y-71960D01*
X-119250Y-71030D01*
X-119667Y-69790D01*
X-119250Y-68705D01*
X-118417Y-67930D01*
X-117167Y-67310D01*
X-115708Y-67155D01*
X-114458Y-67310D01*
X-113208Y-67930D01*
X-112167Y-68860D01*
X-111750Y-69945D01*
X-112167Y-71185D01*
X-113416Y-72270D01*
X-115292Y-72890D01*
X-117375Y-73045D01*
X-120083Y-72735D01*
X-121542Y-72270D01*
X-123000Y-71495D01*
X-124042Y-70410D01*
X-124250Y-69325D01*
X-123833Y-68240D01*
X-122792Y-67465D01*
G01X-114250Y-39210D02*
X-112791Y-38280D01*
X-111958Y-37040D01*
X-111750Y-35645D01*
X-111958Y-34405D01*
X-113000Y-33165D01*
X-114250Y-32390D01*
X-115500Y-32235D01*
X-116958Y-32545D01*
X-118000Y-33630D01*
X-118417Y-34715D01*
Y-36110D01*
G01Y-34715D02*
X-119042Y-33785D01*
X-120083Y-33010D01*
X-121333Y-32700D01*
X-122583Y-33010D01*
X-123625Y-33785D01*
X-124250Y-35180D01*
X-124042Y-36575D01*
X-123208Y-37970D01*
G01X-111750Y-23710D02*
X-114458Y-23400D01*
X-116750Y-22935D01*
X-118833Y-22315D01*
X-121125Y-21540D01*
X-124250Y-20300D01*
Y-26500D01*
G01X-111750Y-11310D02*
X-114458Y-11000D01*
X-116750Y-10535D01*
X-118833Y-9915D01*
X-121125Y-9140D01*
X-124250Y-7900D01*
Y-14100D01*
G01X-113208Y-1235D02*
X-112167Y-150D01*
X-111750Y1090D01*
X-112167Y2330D01*
X-113416Y3415D01*
X-115292Y4190D01*
X-117167Y4500D01*
X-119458D01*
X-121333Y4190D01*
X-123000Y3415D01*
X-123833Y2485D01*
X-124250Y1400D01*
X-123833Y160D01*
X-123000Y-770D01*
X-121750Y-1390D01*
X-120083Y-1700D01*
X-118625Y-1390D01*
X-117167Y-615D01*
X-116333Y315D01*
X-116125Y1400D01*
X-116541Y2640D01*
X-117583Y3570D01*
X-119458Y4500D01*
G01X-111333Y13800D02*
X-111542Y13490D01*
X-111958D01*
X-112167Y13800D01*
X-111958Y14110D01*
X-111542D01*
X-111333Y13800D01*
G01X-113625Y22790D02*
X-112583Y23720D01*
X-111958Y24805D01*
X-111750Y26200D01*
X-112167Y27595D01*
X-113000Y28680D01*
X-114458Y29455D01*
X-116125Y29610D01*
X-117792Y29300D01*
X-118833Y28525D01*
X-119667Y27440D01*
X-119875Y26355D01*
X-119667Y25270D01*
X-118833Y23875D01*
X-124250Y24340D01*
Y28525D01*
G01X-111750Y-45100D02*
Y-49750D01*
X-124250D01*
Y-45100D01*
G01X-60750Y40360D02*
X-73250D01*
X-64292Y34625D01*
Y42375D01*
G01X-60750Y50900D02*
X-60958Y51985D01*
X-61583Y53225D01*
X-62625Y54000D01*
X-64083Y54310D01*
X-65541Y54000D01*
X-66792Y53070D01*
X-67417Y51675D01*
Y50125D01*
X-67833Y49195D01*
X-68875Y48420D01*
X-70333Y48110D01*
X-71792Y48575D01*
X-72833Y49660D01*
X-73250Y50900D01*
X-72833Y52140D01*
X-71792Y53225D01*
X-70333Y53690D01*
X-68875Y53380D01*
X-67833Y52605D01*
X-67417Y51675D01*
Y50125D01*
X-66792Y48730D01*
X-65541Y47800D01*
X-64083Y47490D01*
X-62625Y47800D01*
X-61583Y48575D01*
X-60958Y49815D01*
X-60750Y50900D01*
G01X-10000Y0D02*
X-77000D01*
G01X-69500Y15000D02*
X-67000Y0D01*
X-64500Y15000D01*
X-69500D01*
G01X-111750Y35500D02*
Y40150D01*
X-124250D01*
Y35500D01*
G01X-60750Y85200D02*
X-73250D01*
X-70750Y83340D01*
G01X-60750D02*
Y87060D01*
G01Y97600D02*
X-60958Y98685D01*
X-61583Y99925D01*
X-62625Y100700D01*
X-64083Y101010D01*
X-65541Y100700D01*
X-66792Y99770D01*
X-67417Y98375D01*
Y96825D01*
X-67833Y95895D01*
X-68875Y95120D01*
X-70333Y94810D01*
X-71792Y95275D01*
X-72833Y96360D01*
X-73250Y97600D01*
X-72833Y98840D01*
X-71792Y99925D01*
X-70333Y100390D01*
X-68875Y100080D01*
X-67833Y99305D01*
X-67417Y98375D01*
Y96825D01*
X-66792Y95430D01*
X-65541Y94500D01*
X-64083Y94190D01*
X-62625Y94500D01*
X-61583Y95275D01*
X-60958Y96515D01*
X-60750Y97600D01*
G01Y110000D02*
X-60958Y111085D01*
X-61583Y112325D01*
X-62625Y113100D01*
X-64083Y113410D01*
X-65541Y113100D01*
X-66792Y112170D01*
X-67417Y110775D01*
Y109225D01*
X-67833Y108295D01*
X-68875Y107520D01*
X-70333Y107210D01*
X-71792Y107675D01*
X-72833Y108760D01*
X-73250Y110000D01*
X-72833Y111240D01*
X-71792Y112325D01*
X-70333Y112790D01*
X-68875Y112480D01*
X-67833Y111705D01*
X-67417Y110775D01*
Y109225D01*
X-66792Y107830D01*
X-65541Y106900D01*
X-64083Y106590D01*
X-62625Y106900D01*
X-61583Y107675D01*
X-60958Y108915D01*
X-60750Y110000D01*
G01X-62208Y119765D02*
X-61167Y120850D01*
X-60750Y122090D01*
X-61167Y123330D01*
X-62416Y124415D01*
X-64292Y125190D01*
X-66167Y125500D01*
X-68458D01*
X-70333Y125190D01*
X-72000Y124415D01*
X-72833Y123485D01*
X-73250Y122400D01*
X-72833Y121160D01*
X-72000Y120230D01*
X-70750Y119610D01*
X-69083Y119300D01*
X-67625Y119610D01*
X-66167Y120385D01*
X-65333Y121315D01*
X-65125Y122400D01*
X-65541Y123640D01*
X-66583Y124570D01*
X-68458Y125500D01*
G01X-60333Y134800D02*
X-60542Y134490D01*
X-60958D01*
X-61167Y134800D01*
X-60958Y135110D01*
X-60542D01*
X-60333Y134800D01*
G01X-60750Y147200D02*
X-60958Y148285D01*
X-61583Y149525D01*
X-62625Y150300D01*
X-64083Y150610D01*
X-65541Y150300D01*
X-66792Y149370D01*
X-67417Y147975D01*
Y146425D01*
X-67833Y145495D01*
X-68875Y144720D01*
X-70333Y144410D01*
X-71792Y144875D01*
X-72833Y145960D01*
X-73250Y147200D01*
X-72833Y148440D01*
X-71792Y149525D01*
X-70333Y149990D01*
X-68875Y149680D01*
X-67833Y148905D01*
X-67417Y147975D01*
Y146425D01*
X-66792Y145030D01*
X-65541Y144100D01*
X-64083Y143790D01*
X-62625Y144100D01*
X-61583Y144875D01*
X-60958Y146115D01*
X-60750Y147200D01*
G01Y75900D02*
Y71250D01*
X-73250D01*
Y75900D01*
G01X-118000Y49525D02*
Y188976D01*
G01X-64500Y173976D02*
X-67000Y188976D01*
X-69500Y173976D01*
X-64500D01*
G01X-60750Y156500D02*
Y161150D01*
X-73250D01*
Y156500D01*
G01X-115500Y173976D02*
X-118000Y188976D01*
X-120500Y173976D01*
X-115500D01*
G01X-10000Y188976D02*
X-77000D01*
G01X-10000D02*
X-128000D01*
G01X-115935Y240572D02*
X-115011Y239526D01*
X-113930Y238895D01*
X-112536Y238678D01*
X-111139Y239087D01*
X-110049Y239914D01*
X-109266Y241368D01*
X-109101Y243033D01*
X-109401Y244702D01*
X-110171Y245748D01*
X-111251Y246588D01*
X-112334Y246802D01*
X-113421Y246600D01*
X-114820Y245775D01*
X-114324Y251189D01*
X-110139Y251165D01*
G01X-102763Y240080D02*
X-101684Y239033D01*
X-100446Y238609D01*
X-99204Y239019D01*
X-98112Y240262D01*
X-97326Y242133D01*
X-97005Y244006D01*
X-96992Y246298D01*
X-97291Y248174D01*
X-98057Y249845D01*
X-98982Y250684D01*
X-100064Y251107D01*
X-101307Y250698D01*
X-102241Y249869D01*
X-102869Y248623D01*
X-103188Y246958D01*
X-102887Y245498D01*
X-102120Y244035D01*
X-101195Y243197D01*
X-100111Y242982D01*
X-98869Y243392D01*
X-97933Y244428D01*
X-96992Y246298D01*
G01X-87739Y238120D02*
X-88047Y238330D01*
X-88045Y238746D01*
X-87734Y238953D01*
X-87425Y238743D01*
X-87427Y238326D01*
X-87739Y238120D01*
G01X-75264Y250965D02*
X-76507Y250556D01*
X-77443Y249519D01*
X-78070Y248273D01*
X-78544Y246609D01*
X-78710Y244735D01*
X-78566Y242859D01*
X-78111Y241189D01*
X-77498Y239936D01*
X-76574Y238889D01*
X-75336Y238465D01*
X-74094Y238875D01*
X-73158Y239911D01*
X-72530Y241157D01*
X-72056Y242821D01*
X-71890Y244695D01*
X-72034Y246571D01*
X-72490Y248241D01*
X-73103Y249494D01*
X-74027Y250541D01*
X-75264Y250965D01*
G01X-121836Y238732D02*
X-126486Y238758D01*
X-126414Y251258D01*
X-121764Y251232D01*
G01X-19685Y-143643D02*
Y-283011D01*
G01X75852Y-273011D02*
X-19685D01*
G01X-4685Y-270511D02*
X-19685Y-273011D01*
X-4685Y-275511D01*
Y-270511D01*
G01X206311Y-146075D02*
G02X210248I1968J0D01*
G01Y-188988D01*
X214591D01*
X214091D01*
X216091D01*
X271591D01*
G03X275591Y-184988I0J4000D01*
G01Y-4012D01*
G03X271591Y-12I-4000J0D01*
G01X4000D01*
G03X0Y-4012I0J-4000D01*
G01Y-184988D01*
G03X4000Y-188988I4000J0D01*
G01X161091D01*
X179343D01*
Y-146075D01*
G02X183280I1968J0D01*
G01X206311D01*
G01X0Y188976D02*
X-15685D01*
G03X-19685Y184976I0J-4000D01*
G01Y-184976D01*
G03X-15685Y-188976I4000J0D01*
G01X0D01*
Y188976D01*
G01Y-4012D02*
Y-184988D01*
G01D02*
G03X4000Y-188988I4000J0D01*
G01X-3937Y-177076D02*
G03I-5900J0D01*
G01X0Y-194988D02*
Y-245500D01*
G01X56475Y-235500D02*
X0D01*
G01X15000Y-233000D02*
X0Y-235500D01*
X15000Y-238000D01*
Y-233000D01*
G01X2500Y-203976D02*
X0Y-188976D01*
X-2500Y-203976D01*
X2500D01*
G01X0Y-188976D02*
Y-211500D01*
G01X15138Y-176866D02*
X0Y-175420D01*
X13851Y-181697D01*
X15138Y-176866D01*
G01X0Y-175420D02*
X111908Y-205235D01*
G01X69280Y146063D02*
G02X65343I-1968J0D01*
G01Y188976D01*
X61000D01*
X61500D01*
X59500D01*
X4000D01*
G03X0Y184976I0J-4000D01*
G01Y4000D01*
G03X4000Y0I4000J0D01*
G01X271591D01*
G03X275591Y4000I0J4000D01*
G01Y184976D01*
G03X271591Y188976I-4000J0D01*
G01X114500D01*
X96248D01*
Y146063D01*
G02X92311I-1969J0D01*
G01X69280D01*
G01X4000Y-12D02*
G03X0Y-4012I0J-4000D01*
G01Y184976D02*
Y4000D01*
G01D02*
G03X4000Y0I4000J0D01*
G01X-67000Y24475D02*
Y0D01*
G01X4000Y188976D02*
G03X0Y184976I0J-4000D01*
G01X-3937Y177076D02*
G03I-5900J0D01*
G01X-67000Y170525D02*
Y188976D01*
G01X-17035Y195196D02*
X-8275Y182766D01*
X-12530Y197365D01*
X-17035Y195196D01*
G01X-8275Y182766D02*
X-38000Y244500D01*
X-51976Y244580D01*
G01X-66037Y238411D02*
X-61387Y238385D01*
X-61315Y250884D01*
X-65965Y250911D01*
G01X4000Y-188988D02*
X161091D01*
G01X70190Y-241750D02*
X70500Y-239042D01*
X70965Y-236750D01*
X71585Y-234667D01*
X72360Y-232375D01*
X73600Y-229250D01*
X67400D01*
G01X82900D02*
X81660Y-229667D01*
X80730Y-230708D01*
X80110Y-231958D01*
X79645Y-233625D01*
X79490Y-235500D01*
X79645Y-237375D01*
X80110Y-239042D01*
X80730Y-240292D01*
X81660Y-241333D01*
X82900Y-241750D01*
X84140Y-241333D01*
X85070Y-240292D01*
X85690Y-239042D01*
X86155Y-237375D01*
X86310Y-235500D01*
X86155Y-233625D01*
X85690Y-231958D01*
X85070Y-230708D01*
X84140Y-229667D01*
X82900Y-229250D01*
G01X271591Y-12D02*
X4000D01*
G01Y0D02*
X271591D01*
G01X69280Y146063D02*
G02X65343I-1968J0D01*
G01D02*
Y188976D01*
G01X92311Y146063D02*
X69280D01*
G01Y146087D02*
X92311D01*
G01X65343D02*
G03X69280I1969J0D01*
G01X57469Y189000D02*
X65343D01*
Y146087D01*
G01Y188976D02*
X61000D01*
G01D02*
X61500D01*
G01D02*
X59500D01*
G01D02*
X4000D01*
G01X89877Y-279261D02*
X90962Y-279053D01*
X92202Y-278428D01*
X92977Y-277386D01*
X93287Y-275928D01*
X92977Y-274470D01*
X92047Y-273219D01*
X90652Y-272594D01*
X89102D01*
X88172Y-272178D01*
X87397Y-271136D01*
X87087Y-269678D01*
X87552Y-268219D01*
X88637Y-267178D01*
X89877Y-266761D01*
X91117Y-267178D01*
X92202Y-268219D01*
X92667Y-269678D01*
X92357Y-271136D01*
X91582Y-272178D01*
X90652Y-272594D01*
X89102D01*
X87707Y-273219D01*
X86777Y-274470D01*
X86467Y-275928D01*
X86777Y-277386D01*
X87552Y-278428D01*
X88792Y-279053D01*
X89877Y-279261D01*
G01X102277Y-266761D02*
X101037Y-267178D01*
X100107Y-268219D01*
X99487Y-269469D01*
X99022Y-271136D01*
X98867Y-273011D01*
X99022Y-274886D01*
X99487Y-276553D01*
X100107Y-277803D01*
X101037Y-278844D01*
X102277Y-279261D01*
X103517Y-278844D01*
X104447Y-277803D01*
X105067Y-276553D01*
X105532Y-274886D01*
X105687Y-273011D01*
X105532Y-271136D01*
X105067Y-269469D01*
X104447Y-268219D01*
X103517Y-267178D01*
X102277Y-266761D01*
G01X133167Y-276761D02*
X134097Y-278220D01*
X135337Y-279053D01*
X136732Y-279261D01*
X137972Y-279053D01*
X139212Y-278011D01*
X139987Y-276761D01*
X140142Y-275511D01*
X139832Y-274053D01*
X138747Y-273011D01*
X137662Y-272594D01*
X136267D01*
G01X137662D02*
X138592Y-271969D01*
X139367Y-270928D01*
X139677Y-269678D01*
X139367Y-268428D01*
X138592Y-267386D01*
X137197Y-266761D01*
X135802Y-266969D01*
X134407Y-267803D01*
G01X148977Y-279261D02*
Y-266761D01*
X147117Y-269261D01*
G01Y-279261D02*
X150837D01*
G01X163237D02*
Y-266761D01*
X157502Y-275719D01*
X165252D01*
G01X171142Y-277803D02*
X172227Y-278844D01*
X173467Y-279261D01*
X174707Y-278844D01*
X175792Y-277595D01*
X176567Y-275719D01*
X176877Y-273844D01*
Y-271553D01*
X176567Y-269678D01*
X175792Y-268011D01*
X174862Y-267178D01*
X173777Y-266761D01*
X172537Y-267178D01*
X171607Y-268011D01*
X170987Y-269261D01*
X170677Y-270928D01*
X170987Y-272386D01*
X171762Y-273844D01*
X172692Y-274678D01*
X173777Y-274886D01*
X175017Y-274470D01*
X175947Y-273428D01*
X176877Y-271553D01*
G01X186177Y-279678D02*
X185867Y-279469D01*
Y-279053D01*
X186177Y-278844D01*
X186487Y-279053D01*
Y-279469D01*
X186177Y-279678D01*
G01X195632Y-274053D02*
X196717Y-272594D01*
X197647Y-271761D01*
X198887Y-271344D01*
X199972Y-271761D01*
X200747Y-272594D01*
X201367Y-273844D01*
X201522Y-275303D01*
X201367Y-276553D01*
X200747Y-277803D01*
X199817Y-278844D01*
X198732Y-279261D01*
X197492Y-278844D01*
X196407Y-277595D01*
X195787Y-275719D01*
X195632Y-273636D01*
X195942Y-270928D01*
X196407Y-269469D01*
X197182Y-268011D01*
X198267Y-266969D01*
X199352Y-266761D01*
X200437Y-267178D01*
X201212Y-268219D01*
G01X127277Y-279261D02*
X122627D01*
Y-266761D01*
X127277D01*
G01X114255Y-231333D02*
X115185Y-230084D01*
X116270Y-229458D01*
X117510Y-229250D01*
X119060Y-229667D01*
X120145Y-230708D01*
X120455Y-231958D01*
X120300Y-233209D01*
X119680Y-234250D01*
X116580Y-236333D01*
X115185Y-237792D01*
X114255Y-239875D01*
X113945Y-241750D01*
X120455D01*
G01X129290D02*
X129600Y-239042D01*
X130065Y-236750D01*
X130685Y-234667D01*
X131460Y-232375D01*
X132700Y-229250D01*
X126500D01*
G01X138590Y-239875D02*
X139520Y-240917D01*
X140605Y-241542D01*
X142000Y-241750D01*
X143395Y-241333D01*
X144480Y-240500D01*
X145255Y-239042D01*
X145410Y-237375D01*
X145100Y-235708D01*
X144325Y-234667D01*
X143240Y-233833D01*
X142155Y-233625D01*
X141070Y-233833D01*
X139675Y-234667D01*
X140140Y-229250D01*
X144325D01*
G01X150990Y-239875D02*
X151920Y-240917D01*
X153005Y-241542D01*
X154400Y-241750D01*
X155795Y-241333D01*
X156880Y-240500D01*
X157655Y-239042D01*
X157810Y-237375D01*
X157500Y-235708D01*
X156725Y-234667D01*
X155640Y-233833D01*
X154555Y-233625D01*
X153470Y-233833D01*
X152075Y-234667D01*
X152540Y-229250D01*
X156725D01*
G01X166800Y-242167D02*
X166490Y-241958D01*
Y-241542D01*
X166800Y-241333D01*
X167110Y-241542D01*
Y-241958D01*
X166800Y-242167D01*
G01X176565Y-240292D02*
X177650Y-241333D01*
X178890Y-241750D01*
X180130Y-241333D01*
X181215Y-240084D01*
X181990Y-238208D01*
X182300Y-236333D01*
Y-234042D01*
X181990Y-232167D01*
X181215Y-230500D01*
X180285Y-229667D01*
X179200Y-229250D01*
X177960Y-229667D01*
X177030Y-230500D01*
X176410Y-231750D01*
X176100Y-233417D01*
X176410Y-234875D01*
X177185Y-236333D01*
X178115Y-237167D01*
X179200Y-237375D01*
X180440Y-236959D01*
X181370Y-235917D01*
X182300Y-234042D01*
G01X107900Y-241750D02*
X103250D01*
Y-229250D01*
X107900D01*
G01X275591Y-171953D02*
X144497Y-205582D01*
G01X96248Y188976D02*
Y146063D01*
G01D02*
G02X92311I-1969J0D01*
G01X96248Y146087D02*
Y189000D01*
X104122D01*
G01X92311Y146087D02*
G03X96248I1968J0D01*
G01X271591Y188976D02*
X114500D01*
G01D02*
X96248D01*
G01X221902Y-273011D02*
X295276D01*
G01X207877Y-279261D02*
X212527D01*
Y-266761D01*
X207877D01*
G01X210248Y-146075D02*
Y-188988D01*
G01D02*
X214591D01*
G01D02*
X214091D01*
G01D02*
X216091D01*
G01D02*
X271591D01*
G01X161091D02*
X179343D01*
G01D02*
Y-146075D01*
G01X202525Y-235500D02*
X275591D01*
G01X188500Y-241750D02*
X193150D01*
Y-229250D01*
X188500D01*
G01X206311Y-146075D02*
G02X210248I1968J0D01*
G01X179343D02*
G02X183280I1968J0D01*
G01D02*
X206311D01*
G01X295276Y-142949D02*
Y-283011D01*
G01X280276Y-275511D02*
X295276Y-273011D01*
X280276Y-270511D01*
Y-275511D01*
G01X275591Y-188976D02*
X291276D01*
G03X295276Y-184976I0J4000D01*
G01Y184976D01*
G03X291276Y188976I-4000J0D01*
G01X275591D01*
Y-188976D01*
G01X271591Y-188988D02*
G03X275591Y-184988I0J4000D01*
G01D02*
Y-4012D01*
G01X291339Y-177076D02*
G03I-5900J0D01*
G01X275591Y-178052D02*
Y-245500D01*
G01X260591Y-238000D02*
X275591Y-235500D01*
X260591Y-233000D01*
Y-238000D01*
G01X261683Y-178102D02*
X275591Y-171953D01*
X260440Y-173259D01*
X261683Y-178102D01*
G01X275591Y-4012D02*
G03X271591Y-12I-4000J0D01*
G01Y0D02*
G03X275591Y4000I0J4000D01*
G01D02*
Y184976D01*
G01X286180Y2500D02*
X271180Y0D01*
X286180Y-2500D01*
Y2500D01*
G01X271180Y0D02*
X294000D01*
G01X275591Y184976D02*
G03X271591Y188976I-4000J0D01*
G01X291339Y177076D02*
G03I-5900J0D01*
G01X353719Y-208377D02*
Y181923D01*
X837319D01*
Y-208377D01*
X353719D01*
G01Y-180277D02*
X837319D01*
G01X353719Y-124077D02*
X837319D01*
G01X353719Y-152177D02*
X837319D01*
G01X353719Y-39777D02*
X837319D01*
G01X353719Y-67877D02*
X837319D01*
G01X353719Y-95977D02*
X837319D01*
G01X353719Y16423D02*
X837319D01*
G01X353719Y-11677D02*
X837319D01*
G01X364724Y110073D02*
Y122573D01*
X370614D01*
G01X368444Y116531D02*
X364724D01*
G01X378209Y122573D02*
X381929D01*
G01X380069D02*
Y110073D01*
G01X378209D02*
X381929D01*
G01X393399Y116323D02*
X396499D01*
Y112573D01*
X395569Y111323D01*
X394484Y110490D01*
X392934Y110073D01*
X391384Y110490D01*
X390299Y111323D01*
X389369Y112573D01*
X388749Y114031D01*
X388439Y115698D01*
Y117156D01*
X388749Y118406D01*
X389369Y119865D01*
X390299Y121115D01*
X391229Y121948D01*
X392469Y122573D01*
X393554D01*
X394794Y122156D01*
X395724Y121323D01*
G01X401459Y122573D02*
Y113615D01*
X402079Y111739D01*
X403319Y110490D01*
X404869Y110073D01*
X406419Y110490D01*
X407659Y111739D01*
X408279Y113615D01*
Y122573D01*
G01X414169Y110073D02*
Y122573D01*
X418044D01*
X419284Y121948D01*
X420059Y121115D01*
X420369Y119448D01*
X420059Y117781D01*
X419129Y116740D01*
X418044Y116115D01*
X414169D01*
G01X418044D02*
X420369Y110073D01*
G01X432769D02*
X426569D01*
Y122573D01*
X432769D01*
G01X430289Y116531D02*
X426569D01*
G01X353719Y100723D02*
X837319D01*
G01X353719Y72623D02*
X837319D01*
G01X353719Y44523D02*
X837319D01*
G01X353719Y156923D02*
X837319D01*
G01X353719Y128823D02*
X837319D01*
G01X437109Y163173D02*
Y175673D01*
X440209D01*
X441449Y175048D01*
X442379Y174215D01*
X443154Y172965D01*
X443774Y171506D01*
X443929Y169423D01*
X443774Y167340D01*
X443154Y165881D01*
X442379Y164631D01*
X441449Y163798D01*
X440209Y163173D01*
X437109D01*
G01X449819D02*
Y175673D01*
X453694D01*
X454934Y175048D01*
X455709Y174215D01*
X456019Y172548D01*
X455709Y170881D01*
X454779Y169840D01*
X453694Y169215D01*
X449819D01*
G01X453694D02*
X456019Y163173D01*
G01X463459Y175673D02*
X467179D01*
G01X465319D02*
Y163173D01*
G01X463459D02*
X467179D01*
G01X474619Y175673D02*
Y163173D01*
X480819D01*
G01X487019Y175673D02*
Y163173D01*
X493219D01*
G01X518329Y174631D02*
X517399Y175256D01*
X516314Y175673D01*
X515074D01*
X513679Y175048D01*
X512594Y174006D01*
X511819Y172756D01*
X511199Y170673D01*
X511044Y168798D01*
X511354Y166923D01*
X511819Y165673D01*
X512749Y164423D01*
X513834Y163590D01*
X514919Y163173D01*
X516004D01*
X517089Y163590D01*
X518019Y164214D01*
X518794Y165048D01*
G01X524064Y163173D02*
Y175673D01*
G01X530574D02*
Y163173D01*
G01Y169423D02*
X524064D01*
G01X535844Y163173D02*
X539719Y175673D01*
X543594Y163173D01*
G01X542199Y167548D02*
X537239D01*
G01X549019Y163173D02*
Y175673D01*
X552894D01*
X554134Y175048D01*
X554909Y174215D01*
X555219Y172548D01*
X554909Y170881D01*
X553979Y169840D01*
X552894Y169215D01*
X549019D01*
G01X552894D02*
X555219Y163173D01*
G01X564519Y175673D02*
Y163173D01*
G01X560954Y175673D02*
X568084D01*
G01X576919Y162756D02*
X576609Y162965D01*
Y163381D01*
X576919Y163590D01*
X577229Y163381D01*
Y162965D01*
X576919Y162756D01*
G01Y168381D02*
X576609Y168590D01*
Y169006D01*
X576919Y169215D01*
X577229Y169006D01*
Y168590D01*
X576919Y168381D01*
G01X601719Y175673D02*
Y163173D01*
G01X598154Y175673D02*
X605284D01*
G01X614119Y163173D02*
X612879Y163381D01*
X611794Y164214D01*
X610864Y165465D01*
X610244Y166923D01*
X609934Y168590D01*
Y170256D01*
X610244Y171923D01*
X610864Y173381D01*
X611794Y174631D01*
X612879Y175465D01*
X614119Y175673D01*
X615359Y175465D01*
X616444Y174631D01*
X617374Y173381D01*
X617994Y171923D01*
X618304Y170256D01*
Y168590D01*
X617994Y166923D01*
X617374Y165465D01*
X616444Y164214D01*
X615359Y163381D01*
X614119Y163173D01*
G01X623419D02*
Y175673D01*
X627139D01*
X628379Y175048D01*
X629309Y173590D01*
X629619Y171923D01*
X629309Y170256D01*
X628534Y169006D01*
X627139Y168381D01*
X623419D01*
G01X651319Y175673D02*
Y163173D01*
G01X649149Y171506D02*
X653489D01*
G01X663719Y163173D02*
X662789Y163381D01*
X661859Y164214D01*
X661239Y165673D01*
X660929Y167340D01*
X661239Y169006D01*
X661859Y170465D01*
X662789Y171298D01*
X663719Y171506D01*
X664649Y171298D01*
X665579Y170465D01*
X666199Y169006D01*
X666354Y167340D01*
X666199Y165673D01*
X665579Y164214D01*
X664649Y163381D01*
X663719Y163173D01*
G01X689759Y169840D02*
X690379Y170465D01*
X690844Y171506D01*
X691154Y172965D01*
X690844Y174215D01*
X690224Y175048D01*
X689139Y175673D01*
X684954D01*
Y163173D01*
X690069D01*
X691154Y164006D01*
X691774Y165256D01*
X692084Y166715D01*
X691774Y168173D01*
X690844Y169423D01*
X689759Y169840D01*
X684954D01*
G01X700919Y163173D02*
X699679Y163381D01*
X698594Y164214D01*
X697664Y165465D01*
X697044Y166923D01*
X696734Y168590D01*
Y170256D01*
X697044Y171923D01*
X697664Y173381D01*
X698594Y174631D01*
X699679Y175465D01*
X700919Y175673D01*
X702159Y175465D01*
X703244Y174631D01*
X704174Y173381D01*
X704794Y171923D01*
X705104Y170256D01*
Y168590D01*
X704794Y166923D01*
X704174Y165465D01*
X703244Y164214D01*
X702159Y163381D01*
X700919Y163173D01*
G01X713319Y175673D02*
Y163173D01*
G01X709754Y175673D02*
X716884D01*
G01X725719D02*
Y163173D01*
G01X722154Y175673D02*
X729284D01*
G01X738119Y163173D02*
X736879Y163381D01*
X735794Y164214D01*
X734864Y165465D01*
X734244Y166923D01*
X733934Y168590D01*
Y170256D01*
X734244Y171923D01*
X734864Y173381D01*
X735794Y174631D01*
X736879Y175465D01*
X738119Y175673D01*
X739359Y175465D01*
X740444Y174631D01*
X741374Y173381D01*
X741994Y171923D01*
X742304Y170256D01*
Y168590D01*
X741994Y166923D01*
X741374Y165465D01*
X740444Y164214D01*
X739359Y163381D01*
X738119Y163173D01*
G01X746489D02*
Y175673D01*
X750519Y165256D01*
X754549Y175673D01*
Y163173D01*
G01X510424Y-167269D02*
X511509Y-165810D01*
X512439Y-164977D01*
X513679Y-164560D01*
X514764Y-164977D01*
X515539Y-165810D01*
X516159Y-167060D01*
X516314Y-168519D01*
X516159Y-169769D01*
X515539Y-171019D01*
X514609Y-172060D01*
X513524Y-172477D01*
X512284Y-172060D01*
X511199Y-170811D01*
X510579Y-168935D01*
X510424Y-166852D01*
X510734Y-164144D01*
X511199Y-162685D01*
X511974Y-161227D01*
X513059Y-160185D01*
X514144Y-159977D01*
X515229Y-160394D01*
X516004Y-161435D01*
G01X522824Y-162060D02*
X523754Y-160811D01*
X524839Y-160185D01*
X526079Y-159977D01*
X527629Y-160394D01*
X528714Y-161435D01*
X529024Y-162685D01*
X528869Y-163936D01*
X528249Y-164977D01*
X525149Y-167060D01*
X523754Y-168519D01*
X522824Y-170602D01*
X522514Y-172477D01*
X529024D01*
G01X538169Y-172894D02*
X537859Y-172685D01*
Y-172269D01*
X538169Y-172060D01*
X538479Y-172269D01*
Y-172685D01*
X538169Y-172894D01*
G01X547934Y-171019D02*
X549019Y-172060D01*
X550259Y-172477D01*
X551499Y-172060D01*
X552584Y-170811D01*
X553359Y-168935D01*
X553669Y-167060D01*
Y-164769D01*
X553359Y-162894D01*
X552584Y-161227D01*
X551654Y-160394D01*
X550569Y-159977D01*
X549329Y-160394D01*
X548399Y-161227D01*
X547779Y-162477D01*
X547469Y-164144D01*
X547779Y-165602D01*
X548554Y-167060D01*
X549484Y-167894D01*
X550569Y-168102D01*
X551809Y-167686D01*
X552739Y-166644D01*
X553669Y-164769D01*
G01X560334Y-171019D02*
X561419Y-172060D01*
X562659Y-172477D01*
X563899Y-172060D01*
X564984Y-170811D01*
X565759Y-168935D01*
X566069Y-167060D01*
Y-164769D01*
X565759Y-162894D01*
X564984Y-161227D01*
X564054Y-160394D01*
X562969Y-159977D01*
X561729Y-160394D01*
X560799Y-161227D01*
X560179Y-162477D01*
X559869Y-164144D01*
X560179Y-165602D01*
X560954Y-167060D01*
X561884Y-167894D01*
X562969Y-168102D01*
X564209Y-167686D01*
X565139Y-166644D01*
X566069Y-164769D01*
G01X485624Y-195369D02*
X486709Y-193910D01*
X487639Y-193077D01*
X488879Y-192660D01*
X489964Y-193077D01*
X490739Y-193910D01*
X491359Y-195160D01*
X491514Y-196619D01*
X491359Y-197869D01*
X490739Y-199119D01*
X489809Y-200160D01*
X488724Y-200577D01*
X487484Y-200160D01*
X486399Y-198911D01*
X485779Y-197035D01*
X485624Y-194952D01*
X485934Y-192244D01*
X486399Y-190785D01*
X487174Y-189327D01*
X488259Y-188285D01*
X489344Y-188077D01*
X490429Y-188494D01*
X491204Y-189535D01*
G01X500969Y-188077D02*
X499729Y-188494D01*
X498799Y-189535D01*
X498179Y-190785D01*
X497714Y-192452D01*
X497559Y-194327D01*
X497714Y-196202D01*
X498179Y-197869D01*
X498799Y-199119D01*
X499729Y-200160D01*
X500969Y-200577D01*
X502209Y-200160D01*
X503139Y-199119D01*
X503759Y-197869D01*
X504224Y-196202D01*
X504379Y-194327D01*
X504224Y-192452D01*
X503759Y-190785D01*
X503139Y-189535D01*
X502209Y-188494D01*
X500969Y-188077D01*
G01X513369Y-200994D02*
X513059Y-200785D01*
Y-200369D01*
X513369Y-200160D01*
X513679Y-200369D01*
Y-200785D01*
X513369Y-200994D01*
G01X525769Y-188077D02*
X524529Y-188494D01*
X523599Y-189535D01*
X522979Y-190785D01*
X522514Y-192452D01*
X522359Y-194327D01*
X522514Y-196202D01*
X522979Y-197869D01*
X523599Y-199119D01*
X524529Y-200160D01*
X525769Y-200577D01*
X527009Y-200160D01*
X527939Y-199119D01*
X528559Y-197869D01*
X529024Y-196202D01*
X529179Y-194327D01*
X529024Y-192452D01*
X528559Y-190785D01*
X527939Y-189535D01*
X527009Y-188494D01*
X525769Y-188077D01*
G01X535844Y-192244D02*
X540494Y-200577D01*
G01Y-192244D02*
X535844Y-200577D01*
G01X547624Y-190160D02*
X548554Y-188911D01*
X549639Y-188285D01*
X550879Y-188077D01*
X552429Y-188494D01*
X553514Y-189535D01*
X553824Y-190785D01*
X553669Y-192036D01*
X553049Y-193077D01*
X549949Y-195160D01*
X548554Y-196619D01*
X547624Y-198702D01*
X547314Y-200577D01*
X553824D01*
G01X564829D02*
Y-188077D01*
X559094Y-197035D01*
X566844D01*
G01X575369Y-200994D02*
X575059Y-200785D01*
Y-200369D01*
X575369Y-200160D01*
X575679Y-200369D01*
Y-200785D01*
X575369Y-200994D01*
G01X587769Y-188077D02*
X586529Y-188494D01*
X585599Y-189535D01*
X584979Y-190785D01*
X584514Y-192452D01*
X584359Y-194327D01*
X584514Y-196202D01*
X584979Y-197869D01*
X585599Y-199119D01*
X586529Y-200160D01*
X587769Y-200577D01*
X589009Y-200160D01*
X589939Y-199119D01*
X590559Y-197869D01*
X591024Y-196202D01*
X591179Y-194327D01*
X591024Y-192452D01*
X590559Y-190785D01*
X589939Y-189535D01*
X589009Y-188494D01*
X587769Y-188077D01*
G01X443619Y128823D02*
Y-208377D01*
G01X509959Y-141877D02*
X510889Y-143336D01*
X512129Y-144169D01*
X513524Y-144377D01*
X514764Y-144169D01*
X516004Y-143127D01*
X516779Y-141877D01*
X516934Y-140627D01*
X516624Y-139169D01*
X515539Y-138127D01*
X514454Y-137710D01*
X513059D01*
G01X514454D02*
X515384Y-137085D01*
X516159Y-136044D01*
X516469Y-134794D01*
X516159Y-133544D01*
X515384Y-132502D01*
X513989Y-131877D01*
X512594Y-132085D01*
X511199Y-132919D01*
G01X522359Y-142502D02*
X523289Y-143544D01*
X524374Y-144169D01*
X525769Y-144377D01*
X527164Y-143960D01*
X528249Y-143127D01*
X529024Y-141669D01*
X529179Y-140002D01*
X528869Y-138335D01*
X528094Y-137294D01*
X527009Y-136460D01*
X525924Y-136252D01*
X524839Y-136460D01*
X523444Y-137294D01*
X523909Y-131877D01*
X528094D01*
G01X538169Y-144794D02*
X537859Y-144585D01*
Y-144169D01*
X538169Y-143960D01*
X538479Y-144169D01*
Y-144585D01*
X538169Y-144794D01*
G01X552429Y-144377D02*
Y-131877D01*
X546694Y-140835D01*
X554444D01*
G01X559559Y-141877D02*
X560489Y-143336D01*
X561729Y-144169D01*
X563124Y-144377D01*
X564364Y-144169D01*
X565604Y-143127D01*
X566379Y-141877D01*
X566534Y-140627D01*
X566224Y-139169D01*
X565139Y-138127D01*
X564054Y-137710D01*
X562659D01*
G01X564054D02*
X564984Y-137085D01*
X565759Y-136044D01*
X566069Y-134794D01*
X565759Y-133544D01*
X564984Y-132502D01*
X563589Y-131877D01*
X562194Y-132085D01*
X560799Y-132919D01*
G01X515229Y-31977D02*
Y-19477D01*
X509494Y-28435D01*
X517244D01*
G01X525769Y-19477D02*
X524529Y-19894D01*
X523599Y-20935D01*
X522979Y-22185D01*
X522514Y-23852D01*
X522359Y-25727D01*
X522514Y-27602D01*
X522979Y-29269D01*
X523599Y-30519D01*
X524529Y-31560D01*
X525769Y-31977D01*
X527009Y-31560D01*
X527939Y-30519D01*
X528559Y-29269D01*
X529024Y-27602D01*
X529179Y-25727D01*
X529024Y-23852D01*
X528559Y-22185D01*
X527939Y-20935D01*
X527009Y-19894D01*
X525769Y-19477D01*
G01X538169Y-32394D02*
X537859Y-32185D01*
Y-31769D01*
X538169Y-31560D01*
X538479Y-31769D01*
Y-32185D01*
X538169Y-32394D01*
G01X550569Y-31977D02*
Y-19477D01*
X548709Y-21977D01*
G01Y-31977D02*
X552429D01*
G01X560024Y-26769D02*
X561109Y-25310D01*
X562039Y-24477D01*
X563279Y-24060D01*
X564364Y-24477D01*
X565139Y-25310D01*
X565759Y-26560D01*
X565914Y-28019D01*
X565759Y-29269D01*
X565139Y-30519D01*
X564209Y-31560D01*
X563124Y-31977D01*
X561884Y-31560D01*
X560799Y-30311D01*
X560179Y-28435D01*
X560024Y-26352D01*
X560334Y-23644D01*
X560799Y-22185D01*
X561574Y-20727D01*
X562659Y-19685D01*
X563744Y-19477D01*
X564829Y-19894D01*
X565604Y-20935D01*
G01X515229Y-60077D02*
Y-47577D01*
X509494Y-56535D01*
X517244D01*
G01X525769Y-47577D02*
X524529Y-47994D01*
X523599Y-49035D01*
X522979Y-50285D01*
X522514Y-51952D01*
X522359Y-53827D01*
X522514Y-55702D01*
X522979Y-57369D01*
X523599Y-58619D01*
X524529Y-59660D01*
X525769Y-60077D01*
X527009Y-59660D01*
X527939Y-58619D01*
X528559Y-57369D01*
X529024Y-55702D01*
X529179Y-53827D01*
X529024Y-51952D01*
X528559Y-50285D01*
X527939Y-49035D01*
X527009Y-47994D01*
X525769Y-47577D01*
G01X538169Y-60494D02*
X537859Y-60285D01*
Y-59869D01*
X538169Y-59660D01*
X538479Y-59869D01*
Y-60285D01*
X538169Y-60494D01*
G01X550569Y-60077D02*
Y-47577D01*
X548709Y-50077D01*
G01Y-60077D02*
X552429D01*
G01X560024Y-54869D02*
X561109Y-53410D01*
X562039Y-52577D01*
X563279Y-52160D01*
X564364Y-52577D01*
X565139Y-53410D01*
X565759Y-54660D01*
X565914Y-56119D01*
X565759Y-57369D01*
X565139Y-58619D01*
X564209Y-59660D01*
X563124Y-60077D01*
X561884Y-59660D01*
X560799Y-58411D01*
X560179Y-56535D01*
X560024Y-54452D01*
X560334Y-51744D01*
X560799Y-50285D01*
X561574Y-48827D01*
X562659Y-47785D01*
X563744Y-47577D01*
X564829Y-47994D01*
X565604Y-49035D01*
G01X510734Y-86719D02*
X511819Y-87760D01*
X513059Y-88177D01*
X514299Y-87760D01*
X515384Y-86511D01*
X516159Y-84635D01*
X516469Y-82760D01*
Y-80469D01*
X516159Y-78594D01*
X515384Y-76927D01*
X514454Y-76094D01*
X513369Y-75677D01*
X512129Y-76094D01*
X511199Y-76927D01*
X510579Y-78177D01*
X510269Y-79844D01*
X510579Y-81302D01*
X511354Y-82760D01*
X512284Y-83594D01*
X513369Y-83802D01*
X514609Y-83386D01*
X515539Y-82344D01*
X516469Y-80469D01*
G01X525769Y-88177D02*
X526854Y-87969D01*
X528094Y-87344D01*
X528869Y-86302D01*
X529179Y-84844D01*
X528869Y-83386D01*
X527939Y-82135D01*
X526544Y-81510D01*
X524994D01*
X524064Y-81094D01*
X523289Y-80052D01*
X522979Y-78594D01*
X523444Y-77135D01*
X524529Y-76094D01*
X525769Y-75677D01*
X527009Y-76094D01*
X528094Y-77135D01*
X528559Y-78594D01*
X528249Y-80052D01*
X527474Y-81094D01*
X526544Y-81510D01*
X524994D01*
X523599Y-82135D01*
X522669Y-83386D01*
X522359Y-84844D01*
X522669Y-86302D01*
X523444Y-87344D01*
X524684Y-87969D01*
X525769Y-88177D01*
G01X538169Y-88594D02*
X537859Y-88385D01*
Y-87969D01*
X538169Y-87760D01*
X538479Y-87969D01*
Y-88385D01*
X538169Y-88594D01*
G01X552429Y-88177D02*
Y-75677D01*
X546694Y-84635D01*
X554444D01*
G01X559559Y-85677D02*
X560489Y-87136D01*
X561729Y-87969D01*
X563124Y-88177D01*
X564364Y-87969D01*
X565604Y-86927D01*
X566379Y-85677D01*
X566534Y-84427D01*
X566224Y-82969D01*
X565139Y-81927D01*
X564054Y-81510D01*
X562659D01*
G01X564054D02*
X564984Y-80885D01*
X565759Y-79844D01*
X566069Y-78594D01*
X565759Y-77344D01*
X564984Y-76302D01*
X563589Y-75677D01*
X562194Y-75885D01*
X560799Y-76719D01*
G01X509959Y-1377D02*
X510889Y-2836D01*
X512129Y-3669D01*
X513524Y-3877D01*
X514764Y-3669D01*
X516004Y-2627D01*
X516779Y-1377D01*
X516934Y-127D01*
X516624Y1331D01*
X515539Y2373D01*
X514454Y2790D01*
X513059D01*
G01X514454D02*
X515384Y3415D01*
X516159Y4456D01*
X516469Y5706D01*
X516159Y6956D01*
X515384Y7998D01*
X513989Y8623D01*
X512594Y8415D01*
X511199Y7581D01*
G01X523134Y-2419D02*
X524219Y-3460D01*
X525459Y-3877D01*
X526699Y-3460D01*
X527784Y-2211D01*
X528559Y-335D01*
X528869Y1540D01*
Y3831D01*
X528559Y5706D01*
X527784Y7373D01*
X526854Y8206D01*
X525769Y8623D01*
X524529Y8206D01*
X523599Y7373D01*
X522979Y6123D01*
X522669Y4456D01*
X522979Y2998D01*
X523754Y1540D01*
X524684Y706D01*
X525769Y498D01*
X527009Y914D01*
X527939Y1956D01*
X528869Y3831D01*
G01X538169Y-4294D02*
X537859Y-4085D01*
Y-3669D01*
X538169Y-3460D01*
X538479Y-3669D01*
Y-4085D01*
X538169Y-4294D01*
G01X547159Y-1377D02*
X548089Y-2836D01*
X549329Y-3669D01*
X550724Y-3877D01*
X551964Y-3669D01*
X553204Y-2627D01*
X553979Y-1377D01*
X554134Y-127D01*
X553824Y1331D01*
X552739Y2373D01*
X551654Y2790D01*
X550259D01*
G01X551654D02*
X552584Y3415D01*
X553359Y4456D01*
X553669Y5706D01*
X553359Y6956D01*
X552584Y7998D01*
X551189Y8623D01*
X549794Y8415D01*
X548399Y7581D01*
G01X562659Y-3877D02*
X562969Y-1169D01*
X563434Y1123D01*
X564054Y3206D01*
X564829Y5498D01*
X566069Y8623D01*
X559869D01*
G01X510424Y62740D02*
X511354Y63989D01*
X512439Y64615D01*
X513679Y64823D01*
X515229Y64406D01*
X516314Y63365D01*
X516624Y62115D01*
X516469Y60864D01*
X515849Y59823D01*
X512749Y57740D01*
X511354Y56281D01*
X510424Y54198D01*
X510114Y52323D01*
X516624D01*
G01X525459D02*
X525769Y55031D01*
X526234Y57323D01*
X526854Y59406D01*
X527629Y61698D01*
X528869Y64823D01*
X522669D01*
G01X538169Y51906D02*
X537859Y52115D01*
Y52531D01*
X538169Y52740D01*
X538479Y52531D01*
Y52115D01*
X538169Y51906D01*
G01X547159Y54198D02*
X548089Y53156D01*
X549174Y52531D01*
X550569Y52323D01*
X551964Y52740D01*
X553049Y53573D01*
X553824Y55031D01*
X553979Y56698D01*
X553669Y58365D01*
X552894Y59406D01*
X551809Y60240D01*
X550724Y60448D01*
X549639Y60240D01*
X548244Y59406D01*
X548709Y64823D01*
X552894D01*
G01X560024Y57531D02*
X561109Y58990D01*
X562039Y59823D01*
X563279Y60240D01*
X564364Y59823D01*
X565139Y58990D01*
X565759Y57740D01*
X565914Y56281D01*
X565759Y55031D01*
X565139Y53781D01*
X564209Y52740D01*
X563124Y52323D01*
X561884Y52740D01*
X560799Y53989D01*
X560179Y55865D01*
X560024Y57948D01*
X560334Y60656D01*
X560799Y62115D01*
X561574Y63573D01*
X562659Y64615D01*
X563744Y64823D01*
X564829Y64406D01*
X565604Y63365D01*
G01X467644Y138173D02*
X471519Y150673D01*
X475394Y138173D01*
G01X473999Y142548D02*
X469039D01*
G01X480819Y150673D02*
Y138173D01*
X487019D01*
G01X493219Y150673D02*
Y138173D01*
X499419D01*
G01X517709Y150673D02*
Y141715D01*
X518329Y139839D01*
X519569Y138590D01*
X521119Y138173D01*
X522669Y138590D01*
X523909Y139839D01*
X524529Y141715D01*
Y150673D01*
G01X529954Y138173D02*
Y150673D01*
X537084Y138173D01*
Y150673D01*
G01X544059D02*
X547779D01*
G01X545919D02*
Y138173D01*
G01X544059D02*
X547779D01*
G01X558319Y150673D02*
Y138173D01*
G01X554754Y150673D02*
X561884D01*
G01X567464Y139839D02*
X568704Y138798D01*
X570099Y138173D01*
X571339D01*
X572579Y138798D01*
X573509Y139839D01*
X573974Y141298D01*
X573664Y142756D01*
X572889Y144006D01*
X571494Y144840D01*
X569634Y145256D01*
X568549Y146090D01*
X568084Y147548D01*
X568394Y149006D01*
X569169Y150048D01*
X570254Y150673D01*
X571339D01*
X572424Y150256D01*
X573354Y149215D01*
G01X591644Y138173D02*
X595519Y150673D01*
X599394Y138173D01*
G01X597999Y142548D02*
X593039D01*
G01X604819Y138173D02*
Y150673D01*
X608694D01*
X609934Y150048D01*
X610709Y149215D01*
X611019Y147548D01*
X610709Y145881D01*
X609779Y144840D01*
X608694Y144215D01*
X604819D01*
G01X608694D02*
X611019Y138173D01*
G01X623419D02*
X617219D01*
Y150673D01*
X623419D01*
G01X620939Y144631D02*
X617219D01*
G01X643259Y150673D02*
X646979D01*
G01X645119D02*
Y138173D01*
G01X643259D02*
X646979D01*
G01X653954D02*
Y150673D01*
X661084Y138173D01*
Y150673D01*
G01X678289Y138173D02*
Y150673D01*
X682319Y140256D01*
X686349Y150673D01*
Y138173D01*
G01X692859Y150673D02*
X696579D01*
G01X694719D02*
Y138173D01*
G01X692859D02*
X696579D01*
G01X704019Y150673D02*
Y138173D01*
X710219D01*
G01X716264Y139839D02*
X717504Y138798D01*
X718899Y138173D01*
X720139D01*
X721379Y138798D01*
X722309Y139839D01*
X722774Y141298D01*
X722464Y142756D01*
X721689Y144006D01*
X720294Y144840D01*
X718434Y145256D01*
X717349Y146090D01*
X716884Y147548D01*
X717194Y149006D01*
X717969Y150048D01*
X719054Y150673D01*
X720139D01*
X721224Y150256D01*
X722154Y149215D01*
G01X516159Y-113777D02*
X517089Y-115236D01*
X518329Y-116069D01*
X519724Y-116277D01*
X520964Y-116069D01*
X522204Y-115027D01*
X522979Y-113777D01*
X523134Y-112527D01*
X522824Y-111069D01*
X521739Y-110027D01*
X520654Y-109610D01*
X519259D01*
G01X520654D02*
X521584Y-108985D01*
X522359Y-107944D01*
X522669Y-106694D01*
X522359Y-105444D01*
X521584Y-104402D01*
X520189Y-103777D01*
X518794Y-103985D01*
X517399Y-104819D01*
G01X531969Y-116277D02*
Y-103777D01*
X530109Y-106277D01*
G01Y-116277D02*
X533829D01*
G01X544369Y-116694D02*
X544059Y-116485D01*
Y-116069D01*
X544369Y-115860D01*
X544679Y-116069D01*
Y-116485D01*
X544369Y-116694D01*
G01X553359Y-114402D02*
X554289Y-115444D01*
X555374Y-116069D01*
X556769Y-116277D01*
X558164Y-115860D01*
X559249Y-115027D01*
X560024Y-113569D01*
X560179Y-111902D01*
X559869Y-110235D01*
X559094Y-109194D01*
X558009Y-108360D01*
X556924Y-108152D01*
X555839Y-108360D01*
X554444Y-109194D01*
X554909Y-103777D01*
X559094D01*
G01X516159Y26723D02*
X517089Y25264D01*
X518329Y24431D01*
X519724Y24223D01*
X520964Y24431D01*
X522204Y25473D01*
X522979Y26723D01*
X523134Y27973D01*
X522824Y29431D01*
X521739Y30473D01*
X520654Y30890D01*
X519259D01*
G01X520654D02*
X521584Y31515D01*
X522359Y32556D01*
X522669Y33806D01*
X522359Y35056D01*
X521584Y36098D01*
X520189Y36723D01*
X518794Y36515D01*
X517399Y35681D01*
G01X529024Y29431D02*
X530109Y30890D01*
X531039Y31723D01*
X532279Y32140D01*
X533364Y31723D01*
X534139Y30890D01*
X534759Y29640D01*
X534914Y28181D01*
X534759Y26931D01*
X534139Y25681D01*
X533209Y24640D01*
X532124Y24223D01*
X530884Y24640D01*
X529799Y25889D01*
X529179Y27765D01*
X529024Y29848D01*
X529334Y32556D01*
X529799Y34015D01*
X530574Y35473D01*
X531659Y36515D01*
X532744Y36723D01*
X533829Y36306D01*
X534604Y35265D01*
G01X544369Y23806D02*
X544059Y24015D01*
Y24431D01*
X544369Y24640D01*
X544679Y24431D01*
Y24015D01*
X544369Y23806D01*
G01X556769Y36723D02*
X555529Y36306D01*
X554599Y35265D01*
X553979Y34015D01*
X553514Y32348D01*
X553359Y30473D01*
X553514Y28598D01*
X553979Y26931D01*
X554599Y25681D01*
X555529Y24640D01*
X556769Y24223D01*
X558009Y24640D01*
X558939Y25681D01*
X559559Y26931D01*
X560024Y28598D01*
X560179Y30473D01*
X560024Y32348D01*
X559559Y34015D01*
X558939Y35265D01*
X558009Y36306D01*
X556769Y36723D01*
G01X516314Y111739D02*
X517554Y110698D01*
X518949Y110073D01*
X520189D01*
X521429Y110698D01*
X522359Y111739D01*
X522824Y113198D01*
X522514Y114656D01*
X521739Y115906D01*
X520344Y116740D01*
X518484Y117156D01*
X517399Y117990D01*
X516934Y119448D01*
X517244Y120906D01*
X518019Y121948D01*
X519104Y122573D01*
X520189D01*
X521274Y122156D01*
X522204Y121115D01*
G01X530109Y122573D02*
X533829D01*
G01X531969D02*
Y110073D01*
G01X530109D02*
X533829D01*
G01X541424Y122573D02*
X547314D01*
X541424Y110073D01*
X547314D01*
G01X559869D02*
X553669D01*
Y122573D01*
X559869D01*
G01X557389Y116531D02*
X553669D01*
G01X519569Y80423D02*
Y92923D01*
X517709Y90423D01*
G01Y80423D02*
X521429D01*
G01X531969Y92923D02*
X530729Y92506D01*
X529799Y91465D01*
X529179Y90215D01*
X528714Y88548D01*
X528559Y86673D01*
X528714Y84798D01*
X529179Y83131D01*
X529799Y81881D01*
X530729Y80840D01*
X531969Y80423D01*
X533209Y80840D01*
X534139Y81881D01*
X534759Y83131D01*
X535224Y84798D01*
X535379Y86673D01*
X535224Y88548D01*
X534759Y90215D01*
X534139Y91465D01*
X533209Y92506D01*
X531969Y92923D01*
G01X544369Y80006D02*
X544059Y80215D01*
Y80631D01*
X544369Y80840D01*
X544679Y80631D01*
Y80215D01*
X544369Y80006D01*
G01X556769Y92923D02*
X555529Y92506D01*
X554599Y91465D01*
X553979Y90215D01*
X553514Y88548D01*
X553359Y86673D01*
X553514Y84798D01*
X553979Y83131D01*
X554599Y81881D01*
X555529Y80840D01*
X556769Y80423D01*
X558009Y80840D01*
X558939Y81881D01*
X559559Y83131D01*
X560024Y84798D01*
X560179Y86673D01*
X560024Y88548D01*
X559559Y90215D01*
X558939Y91465D01*
X558009Y92506D01*
X556769Y92923D01*
G01X636904Y-172477D02*
Y-159977D01*
X644034Y-172477D01*
Y-159977D01*
G01X652869Y-172477D02*
X651629Y-172269D01*
X650544Y-171436D01*
X649614Y-170185D01*
X648994Y-168727D01*
X648684Y-167060D01*
Y-165394D01*
X648994Y-163727D01*
X649614Y-162269D01*
X650544Y-161019D01*
X651629Y-160185D01*
X652869Y-159977D01*
X654109Y-160185D01*
X655194Y-161019D01*
X656124Y-162269D01*
X656744Y-163727D01*
X657054Y-165394D01*
Y-167060D01*
X656744Y-168727D01*
X656124Y-170185D01*
X655194Y-171436D01*
X654109Y-172269D01*
X652869Y-172477D01*
G01X661704D02*
Y-159977D01*
X668834Y-172477D01*
Y-159977D01*
G01X675654Y-168310D02*
X679684D01*
G01X686969Y-172477D02*
Y-159977D01*
X690689D01*
X691929Y-160602D01*
X692859Y-162060D01*
X693169Y-163727D01*
X692859Y-165394D01*
X692084Y-166644D01*
X690689Y-167269D01*
X686969D01*
G01X699369Y-159977D02*
Y-172477D01*
X705569D01*
G01X710994D02*
X714869Y-159977D01*
X718744Y-172477D01*
G01X717349Y-168102D02*
X712389D01*
G01X727269Y-159977D02*
Y-172477D01*
G01X723704Y-159977D02*
X730834D01*
G01X742769Y-172477D02*
X736569D01*
Y-159977D01*
X742769D01*
G01X740289Y-166019D02*
X736569D01*
G01X748659Y-172477D02*
Y-159977D01*
X751759D01*
X752999Y-160602D01*
X753929Y-161435D01*
X754704Y-162685D01*
X755324Y-164144D01*
X755479Y-166227D01*
X755324Y-168310D01*
X754704Y-169769D01*
X753929Y-171019D01*
X752999Y-171852D01*
X751759Y-172477D01*
X748659D01*
G01X632719Y128823D02*
Y-208377D01*
G01X636904Y-116277D02*
Y-103777D01*
X644034Y-116277D01*
Y-103777D01*
G01X652869Y-116277D02*
X651629Y-116069D01*
X650544Y-115236D01*
X649614Y-113985D01*
X648994Y-112527D01*
X648684Y-110860D01*
Y-109194D01*
X648994Y-107527D01*
X649614Y-106069D01*
X650544Y-104819D01*
X651629Y-103985D01*
X652869Y-103777D01*
X654109Y-103985D01*
X655194Y-104819D01*
X656124Y-106069D01*
X656744Y-107527D01*
X657054Y-109194D01*
Y-110860D01*
X656744Y-112527D01*
X656124Y-113985D01*
X655194Y-115236D01*
X654109Y-116069D01*
X652869Y-116277D01*
G01X661704D02*
Y-103777D01*
X668834Y-116277D01*
Y-103777D01*
G01X675654Y-112110D02*
X679684D01*
G01X686969Y-116277D02*
Y-103777D01*
X690689D01*
X691929Y-104402D01*
X692859Y-105860D01*
X693169Y-107527D01*
X692859Y-109194D01*
X692084Y-110444D01*
X690689Y-111069D01*
X686969D01*
G01X699369Y-103777D02*
Y-116277D01*
X705569D01*
G01X710994D02*
X714869Y-103777D01*
X718744Y-116277D01*
G01X717349Y-111902D02*
X712389D01*
G01X727269Y-103777D02*
Y-116277D01*
G01X723704Y-103777D02*
X730834D01*
G01X742769Y-116277D02*
X736569D01*
Y-103777D01*
X742769D01*
G01X740289Y-109819D02*
X736569D01*
G01X748659Y-116277D02*
Y-103777D01*
X751759D01*
X752999Y-104402D01*
X753929Y-105235D01*
X754704Y-106485D01*
X755324Y-107944D01*
X755479Y-110027D01*
X755324Y-112110D01*
X754704Y-113569D01*
X753929Y-114819D01*
X752999Y-115652D01*
X751759Y-116277D01*
X748659D01*
G01X636904Y-144377D02*
Y-131877D01*
X644034Y-144377D01*
Y-131877D01*
G01X652869Y-144377D02*
X651629Y-144169D01*
X650544Y-143336D01*
X649614Y-142085D01*
X648994Y-140627D01*
X648684Y-138960D01*
Y-137294D01*
X648994Y-135627D01*
X649614Y-134169D01*
X650544Y-132919D01*
X651629Y-132085D01*
X652869Y-131877D01*
X654109Y-132085D01*
X655194Y-132919D01*
X656124Y-134169D01*
X656744Y-135627D01*
X657054Y-137294D01*
Y-138960D01*
X656744Y-140627D01*
X656124Y-142085D01*
X655194Y-143336D01*
X654109Y-144169D01*
X652869Y-144377D01*
G01X661704D02*
Y-131877D01*
X668834Y-144377D01*
Y-131877D01*
G01X675654Y-140210D02*
X679684D01*
G01X686969Y-144377D02*
Y-131877D01*
X690689D01*
X691929Y-132502D01*
X692859Y-133960D01*
X693169Y-135627D01*
X692859Y-137294D01*
X692084Y-138544D01*
X690689Y-139169D01*
X686969D01*
G01X699369Y-131877D02*
Y-144377D01*
X705569D01*
G01X710994D02*
X714869Y-131877D01*
X718744Y-144377D01*
G01X717349Y-140002D02*
X712389D01*
G01X727269Y-131877D02*
Y-144377D01*
G01X723704Y-131877D02*
X730834D01*
G01X742769Y-144377D02*
X736569D01*
Y-131877D01*
X742769D01*
G01X740289Y-137919D02*
X736569D01*
G01X748659Y-144377D02*
Y-131877D01*
X751759D01*
X752999Y-132502D01*
X753929Y-133335D01*
X754704Y-134585D01*
X755324Y-136044D01*
X755479Y-138127D01*
X755324Y-140210D01*
X754704Y-141669D01*
X753929Y-142919D01*
X752999Y-143752D01*
X751759Y-144377D01*
X748659D01*
G01X662169Y-200577D02*
Y-188077D01*
X665889D01*
X667129Y-188702D01*
X668059Y-190160D01*
X668369Y-191827D01*
X668059Y-193494D01*
X667284Y-194744D01*
X665889Y-195369D01*
X662169D01*
G01X674569Y-188077D02*
Y-200577D01*
X680769D01*
G01X686194D02*
X690069Y-188077D01*
X693944Y-200577D01*
G01X692549Y-196202D02*
X687589D01*
G01X702469Y-188077D02*
Y-200577D01*
G01X698904Y-188077D02*
X706034D01*
G01X717969Y-200577D02*
X711769D01*
Y-188077D01*
X717969D01*
G01X715489Y-194119D02*
X711769D01*
G01X723859Y-200577D02*
Y-188077D01*
X726959D01*
X728199Y-188702D01*
X729129Y-189535D01*
X729904Y-190785D01*
X730524Y-192244D01*
X730679Y-194327D01*
X730524Y-196410D01*
X729904Y-197869D01*
X729129Y-199119D01*
X728199Y-199952D01*
X726959Y-200577D01*
X723859D01*
G01X662169Y-31977D02*
Y-19477D01*
X665889D01*
X667129Y-20102D01*
X668059Y-21560D01*
X668369Y-23227D01*
X668059Y-24894D01*
X667284Y-26144D01*
X665889Y-26769D01*
X662169D01*
G01X674569Y-19477D02*
Y-31977D01*
X680769D01*
G01X686194D02*
X690069Y-19477D01*
X693944Y-31977D01*
G01X692549Y-27602D02*
X687589D01*
G01X702469Y-19477D02*
Y-31977D01*
G01X698904Y-19477D02*
X706034D01*
G01X717969Y-31977D02*
X711769D01*
Y-19477D01*
X717969D01*
G01X715489Y-25519D02*
X711769D01*
G01X723859Y-31977D02*
Y-19477D01*
X726959D01*
X728199Y-20102D01*
X729129Y-20935D01*
X729904Y-22185D01*
X730524Y-23644D01*
X730679Y-25727D01*
X730524Y-27810D01*
X729904Y-29269D01*
X729129Y-30519D01*
X728199Y-31352D01*
X726959Y-31977D01*
X723859D01*
G01X662169Y-60077D02*
Y-47577D01*
X665889D01*
X667129Y-48202D01*
X668059Y-49660D01*
X668369Y-51327D01*
X668059Y-52994D01*
X667284Y-54244D01*
X665889Y-54869D01*
X662169D01*
G01X674569Y-47577D02*
Y-60077D01*
X680769D01*
G01X686194D02*
X690069Y-47577D01*
X693944Y-60077D01*
G01X692549Y-55702D02*
X687589D01*
G01X702469Y-47577D02*
Y-60077D01*
G01X698904Y-47577D02*
X706034D01*
G01X717969Y-60077D02*
X711769D01*
Y-47577D01*
X717969D01*
G01X715489Y-53619D02*
X711769D01*
G01X723859Y-60077D02*
Y-47577D01*
X726959D01*
X728199Y-48202D01*
X729129Y-49035D01*
X729904Y-50285D01*
X730524Y-51744D01*
X730679Y-53827D01*
X730524Y-55910D01*
X729904Y-57369D01*
X729129Y-58619D01*
X728199Y-59452D01*
X726959Y-60077D01*
X723859D01*
G01X662169Y-88177D02*
Y-75677D01*
X665889D01*
X667129Y-76302D01*
X668059Y-77760D01*
X668369Y-79427D01*
X668059Y-81094D01*
X667284Y-82344D01*
X665889Y-82969D01*
X662169D01*
G01X674569Y-75677D02*
Y-88177D01*
X680769D01*
G01X686194D02*
X690069Y-75677D01*
X693944Y-88177D01*
G01X692549Y-83802D02*
X687589D01*
G01X702469Y-75677D02*
Y-88177D01*
G01X698904Y-75677D02*
X706034D01*
G01X717969Y-88177D02*
X711769D01*
Y-75677D01*
X717969D01*
G01X715489Y-81719D02*
X711769D01*
G01X723859Y-88177D02*
Y-75677D01*
X726959D01*
X728199Y-76302D01*
X729129Y-77135D01*
X729904Y-78385D01*
X730524Y-79844D01*
X730679Y-81927D01*
X730524Y-84010D01*
X729904Y-85469D01*
X729129Y-86719D01*
X728199Y-87552D01*
X726959Y-88177D01*
X723859D01*
G01X662169Y24223D02*
Y36723D01*
X665889D01*
X667129Y36098D01*
X668059Y34640D01*
X668369Y32973D01*
X668059Y31306D01*
X667284Y30056D01*
X665889Y29431D01*
X662169D01*
G01X674569Y36723D02*
Y24223D01*
X680769D01*
G01X686194D02*
X690069Y36723D01*
X693944Y24223D01*
G01X692549Y28598D02*
X687589D01*
G01X702469Y36723D02*
Y24223D01*
G01X698904Y36723D02*
X706034D01*
G01X717969Y24223D02*
X711769D01*
Y36723D01*
X717969D01*
G01X715489Y30681D02*
X711769D01*
G01X723859Y24223D02*
Y36723D01*
X726959D01*
X728199Y36098D01*
X729129Y35265D01*
X729904Y34015D01*
X730524Y32556D01*
X730679Y30473D01*
X730524Y28390D01*
X729904Y26931D01*
X729129Y25681D01*
X728199Y24848D01*
X726959Y24223D01*
X723859D01*
G01X662169Y-3877D02*
Y8623D01*
X665889D01*
X667129Y7998D01*
X668059Y6540D01*
X668369Y4873D01*
X668059Y3206D01*
X667284Y1956D01*
X665889Y1331D01*
X662169D01*
G01X674569Y8623D02*
Y-3877D01*
X680769D01*
G01X686194D02*
X690069Y8623D01*
X693944Y-3877D01*
G01X692549Y498D02*
X687589D01*
G01X702469Y8623D02*
Y-3877D01*
G01X698904Y8623D02*
X706034D01*
G01X717969Y-3877D02*
X711769D01*
Y8623D01*
X717969D01*
G01X715489Y2581D02*
X711769D01*
G01X723859Y-3877D02*
Y8623D01*
X726959D01*
X728199Y7998D01*
X729129Y7165D01*
X729904Y5915D01*
X730524Y4456D01*
X730679Y2373D01*
X730524Y290D01*
X729904Y-1169D01*
X729129Y-2419D01*
X728199Y-3252D01*
X726959Y-3877D01*
X723859D01*
G01X662169Y110073D02*
Y122573D01*
X665889D01*
X667129Y121948D01*
X668059Y120490D01*
X668369Y118823D01*
X668059Y117156D01*
X667284Y115906D01*
X665889Y115281D01*
X662169D01*
G01X674569Y122573D02*
Y110073D01*
X680769D01*
G01X686194D02*
X690069Y122573D01*
X693944Y110073D01*
G01X692549Y114448D02*
X687589D01*
G01X702469Y122573D02*
Y110073D01*
G01X698904Y122573D02*
X706034D01*
G01X717969Y110073D02*
X711769D01*
Y122573D01*
X717969D01*
G01X715489Y116531D02*
X711769D01*
G01X723859Y110073D02*
Y122573D01*
X726959D01*
X728199Y121948D01*
X729129Y121115D01*
X729904Y119865D01*
X730524Y118406D01*
X730679Y116323D01*
X730524Y114240D01*
X729904Y112781D01*
X729129Y111531D01*
X728199Y110698D01*
X726959Y110073D01*
X723859D01*
G01X662169Y80423D02*
Y92923D01*
X665889D01*
X667129Y92298D01*
X668059Y90840D01*
X668369Y89173D01*
X668059Y87506D01*
X667284Y86256D01*
X665889Y85631D01*
X662169D01*
G01X674569Y92923D02*
Y80423D01*
X680769D01*
G01X686194D02*
X690069Y92923D01*
X693944Y80423D01*
G01X692549Y84798D02*
X687589D01*
G01X702469Y92923D02*
Y80423D01*
G01X698904Y92923D02*
X706034D01*
G01X717969Y80423D02*
X711769D01*
Y92923D01*
X717969D01*
G01X715489Y86881D02*
X711769D01*
G01X723859Y80423D02*
Y92923D01*
X726959D01*
X728199Y92298D01*
X729129Y91465D01*
X729904Y90215D01*
X730524Y88756D01*
X730679Y86673D01*
X730524Y84590D01*
X729904Y83131D01*
X729129Y81881D01*
X728199Y81048D01*
X726959Y80423D01*
X723859D01*
G01X662169Y52323D02*
Y64823D01*
X665889D01*
X667129Y64198D01*
X668059Y62740D01*
X668369Y61073D01*
X668059Y59406D01*
X667284Y58156D01*
X665889Y57531D01*
X662169D01*
G01X674569Y64823D02*
Y52323D01*
X680769D01*
G01X686194D02*
X690069Y64823D01*
X693944Y52323D01*
G01X692549Y56698D02*
X687589D01*
G01X702469Y64823D02*
Y52323D01*
G01X698904Y64823D02*
X706034D01*
G01X717969Y52323D02*
X711769D01*
Y64823D01*
X717969D01*
G01X715489Y58781D02*
X711769D01*
G01X723859Y52323D02*
Y64823D01*
X726959D01*
X728199Y64198D01*
X729129Y63365D01*
X729904Y62115D01*
X730524Y60656D01*
X730679Y58573D01*
X730524Y56490D01*
X729904Y55031D01*
X729129Y53781D01*
X728199Y52948D01*
X726959Y52323D01*
X723859D01*
G01X795624Y-162060D02*
X796554Y-160811D01*
X797639Y-160185D01*
X798879Y-159977D01*
X800429Y-160394D01*
X801514Y-161435D01*
X801824Y-162685D01*
X801669Y-163936D01*
X801049Y-164977D01*
X797949Y-167060D01*
X796554Y-168519D01*
X795624Y-170602D01*
X795314Y-172477D01*
X801824D01*
G01X798259Y-200577D02*
X798569Y-197869D01*
X799034Y-195577D01*
X799654Y-193494D01*
X800429Y-191202D01*
X801669Y-188077D01*
X795469D01*
G01X759819Y128823D02*
Y-208377D01*
G01X795624Y-105860D02*
X796554Y-104611D01*
X797639Y-103985D01*
X798879Y-103777D01*
X800429Y-104194D01*
X801514Y-105235D01*
X801824Y-106485D01*
X801669Y-107736D01*
X801049Y-108777D01*
X797949Y-110860D01*
X796554Y-112319D01*
X795624Y-114402D01*
X795314Y-116277D01*
X801824D01*
G01X795624Y-133960D02*
X796554Y-132711D01*
X797639Y-132085D01*
X798879Y-131877D01*
X800429Y-132294D01*
X801514Y-133335D01*
X801824Y-134585D01*
X801669Y-135836D01*
X801049Y-136877D01*
X797949Y-138960D01*
X796554Y-140419D01*
X795624Y-142502D01*
X795314Y-144377D01*
X801824D01*
G01X792369Y-31977D02*
Y-19477D01*
X790509Y-21977D01*
G01Y-31977D02*
X794229D01*
G01X804769Y-19477D02*
X803529Y-19894D01*
X802599Y-20935D01*
X801979Y-22185D01*
X801514Y-23852D01*
X801359Y-25727D01*
X801514Y-27602D01*
X801979Y-29269D01*
X802599Y-30519D01*
X803529Y-31560D01*
X804769Y-31977D01*
X806009Y-31560D01*
X806939Y-30519D01*
X807559Y-29269D01*
X808024Y-27602D01*
X808179Y-25727D01*
X808024Y-23852D01*
X807559Y-22185D01*
X806939Y-20935D01*
X806009Y-19894D01*
X804769Y-19477D01*
G01X795624Y-49660D02*
X796554Y-48411D01*
X797639Y-47785D01*
X798879Y-47577D01*
X800429Y-47994D01*
X801514Y-49035D01*
X801824Y-50285D01*
X801669Y-51536D01*
X801049Y-52577D01*
X797949Y-54660D01*
X796554Y-56119D01*
X795624Y-58202D01*
X795314Y-60077D01*
X801824D01*
G01X798569Y-88177D02*
Y-75677D01*
X796709Y-78177D01*
G01Y-88177D02*
X800429D01*
G01X795624Y34640D02*
X796554Y35889D01*
X797639Y36515D01*
X798879Y36723D01*
X800429Y36306D01*
X801514Y35265D01*
X801824Y34015D01*
X801669Y32764D01*
X801049Y31723D01*
X797949Y29640D01*
X796554Y28181D01*
X795624Y26098D01*
X795314Y24223D01*
X801824D01*
G01X788959Y-1377D02*
X789889Y-2836D01*
X791129Y-3669D01*
X792524Y-3877D01*
X793764Y-3669D01*
X795004Y-2627D01*
X795779Y-1377D01*
X795934Y-127D01*
X795624Y1331D01*
X794539Y2373D01*
X793454Y2790D01*
X792059D01*
G01X793454D02*
X794384Y3415D01*
X795159Y4456D01*
X795469Y5706D01*
X795159Y6956D01*
X794384Y7998D01*
X792989Y8623D01*
X791594Y8415D01*
X790199Y7581D01*
G01X804769Y8623D02*
X803529Y8206D01*
X802599Y7165D01*
X801979Y5915D01*
X801514Y4248D01*
X801359Y2373D01*
X801514Y498D01*
X801979Y-1169D01*
X802599Y-2419D01*
X803529Y-3460D01*
X804769Y-3877D01*
X806009Y-3460D01*
X806939Y-2419D01*
X807559Y-1169D01*
X808024Y498D01*
X808179Y2373D01*
X808024Y4248D01*
X807559Y5915D01*
X806939Y7165D01*
X806009Y8206D01*
X804769Y8623D01*
G01X786169Y110073D02*
X784929Y110281D01*
X783844Y111114D01*
X782914Y112365D01*
X782294Y113823D01*
X781984Y115490D01*
Y117156D01*
X782294Y118823D01*
X782914Y120281D01*
X783844Y121531D01*
X784929Y122365D01*
X786169Y122573D01*
X787409Y122365D01*
X788494Y121531D01*
X789424Y120281D01*
X790044Y118823D01*
X790354Y117156D01*
Y115490D01*
X790044Y113823D01*
X789424Y112365D01*
X788494Y111114D01*
X787409Y110281D01*
X786169Y110073D01*
G01X787409Y113406D02*
X789269Y110073D01*
G01X798569Y122573D02*
Y110073D01*
G01X795004Y122573D02*
X802134D01*
G01X810969Y110073D02*
Y115698D01*
X807869Y122573D01*
G01X814069D02*
X810969Y115698D01*
G01X788029Y80423D02*
Y92923D01*
X782294Y83965D01*
X790044D01*
G01X795624Y85631D02*
X796709Y87090D01*
X797639Y87923D01*
X798879Y88340D01*
X799964Y87923D01*
X800739Y87090D01*
X801359Y85840D01*
X801514Y84381D01*
X801359Y83131D01*
X800739Y81881D01*
X799809Y80840D01*
X798724Y80423D01*
X797484Y80840D01*
X796399Y82089D01*
X795779Y83965D01*
X795624Y86048D01*
X795934Y88756D01*
X796399Y90215D01*
X797174Y91673D01*
X798259Y92715D01*
X799344Y92923D01*
X800429Y92506D01*
X801204Y91465D01*
G01X808334Y81881D02*
X809419Y80840D01*
X810659Y80423D01*
X811899Y80840D01*
X812984Y82089D01*
X813759Y83965D01*
X814069Y85840D01*
Y88131D01*
X813759Y90006D01*
X812984Y91673D01*
X812054Y92506D01*
X810969Y92923D01*
X809729Y92506D01*
X808799Y91673D01*
X808179Y90423D01*
X807869Y88756D01*
X808179Y87298D01*
X808954Y85840D01*
X809884Y85006D01*
X810969Y84798D01*
X812209Y85214D01*
X813139Y86256D01*
X814069Y88131D01*
G01X795624Y62740D02*
X796554Y63989D01*
X797639Y64615D01*
X798879Y64823D01*
X800429Y64406D01*
X801514Y63365D01*
X801824Y62115D01*
X801669Y60864D01*
X801049Y59823D01*
X797949Y57740D01*
X796554Y56281D01*
X795624Y54198D01*
X795314Y52323D01*
X801824D01*
G54D13*
X13700Y93800D03*
Y83800D03*
Y73800D03*
Y63800D03*
Y53800D03*
X23700D03*
Y63800D03*
Y73800D03*
Y83800D03*
Y93800D03*
X398669Y-25727D03*
G54D23*
G01X120739Y-204141D02*
X121989Y-207141D01*
X123239Y-204141D01*
G01X124439Y-206141D02*
X125739D01*
G01X129289Y-204391D02*
X128989Y-204241D01*
X128639Y-204141D01*
X128239D01*
X127789Y-204291D01*
X127439Y-204541D01*
X127189Y-204841D01*
X126989Y-205341D01*
X126939Y-205791D01*
X127039Y-206241D01*
X127189Y-206541D01*
X127489Y-206841D01*
X127839Y-207041D01*
X128189Y-207141D01*
X128539D01*
X128889Y-207041D01*
X129189Y-206891D01*
X129439Y-206691D01*
G01X130189Y-204141D02*
Y-206291D01*
X130389Y-206741D01*
X130789Y-207041D01*
X131289Y-207141D01*
X131789Y-207041D01*
X132189Y-206741D01*
X132389Y-206291D01*
Y-204141D01*
G01X134389D02*
Y-207141D01*
G01X133239Y-204141D02*
X135539D01*
G01X299890Y2312D02*
X301140Y-688D01*
X302390Y2312D01*
G01X303590Y312D02*
X304890D01*
G01X308440Y2062D02*
X308140Y2212D01*
X307790Y2312D01*
X307390D01*
X306940Y2162D01*
X306590Y1912D01*
X306340Y1612D01*
X306140Y1112D01*
X306090Y662D01*
X306190Y212D01*
X306340Y-88D01*
X306640Y-388D01*
X306990Y-588D01*
X307340Y-688D01*
X307690D01*
X308040Y-588D01*
X308340Y-438D01*
X308590Y-238D01*
G01X309340Y2312D02*
Y162D01*
X309540Y-288D01*
X309940Y-588D01*
X310440Y-688D01*
X310940Y-588D01*
X311340Y-288D01*
X311540Y162D01*
Y2312D01*
G01X313540D02*
Y-688D01*
G01X312390Y2312D02*
X314690D01*
G54D14*
X29000Y177289D03*
Y153667D03*
X398669Y-166227D03*
G54D15*
X61996Y149630D03*
Y160457D03*
Y171283D03*
Y182701D03*
X99594Y149630D03*
Y165772D03*
Y180339D03*
X398669Y-194327D03*
G54D16*
X142500Y8000D03*
X158000Y33500D03*
X398669Y-53827D03*
G54D17*
X155568Y92582D03*
X398669Y-81927D03*
G54D18*
X224316Y17600D03*
X232190D03*
X398669Y58573D03*
G54D19*
X153512Y172500D03*
X185008D03*
X398669Y-138127D03*
M02*
