G04 ================== begin FILE IDENTIFICATION RECORD ==================*
G04 Layout Name:  DEV_SUB_AUDIO_BRD_V1_1-20170606.brd*
G04 Film Name:    SILK_BOT*
G04 File Format:  Gerber RS274X*
G04 File Origin:  Cadence Allegro 16.6-S012*
G04 Origin Date:  Tue Jun 06 20:57:13 2017*
G04 *
G04 Layer:  REF DES/SILKSCREEN_BOTTOM*
G04 Layer:  PACKAGE GEOMETRY/SILKSCREEN_BOTTOM*
G04 Layer:  BOARD GEOMETRY/OUTLINE*
G04 Layer:  BOARD GEOMETRY/SILKSCREEN_BOTTOM*
G04 *
G04 Offset:    (0.00 0.00)*
G04 Mirror:    No*
G04 Mode:      Positive*
G04 Rotation:  0*
G04 FullContactRelief:  No*
G04 UndefLineWidth:     6.00*
G04 ================== end FILE IDENTIFICATION RECORD ====================*
%FSLAX25Y25*MOIN*%
%IR0*IPPOS*OFA0.00000B0.00000*MIA0B0*SFA1.00000B1.00000*%
%ADD10C,.005*%
%ADD11C,.006*%
%ADD12C,.00512*%
%ADD13C,.00591*%
%ADD14C,.00394*%
%ADD15C,.00984*%
%ADD16C,.00787*%
G75*
%LPD*%
G75*
G54D10*
G01X32102Y41256D02*
Y35744D01*
X29000D01*
G01X24500Y41256D02*
X27500D01*
G01X31500D02*
X32102D01*
G01X23000Y35744D02*
X19898D01*
Y41256D01*
X20000D01*
G01X233856Y181582D02*
X243303D01*
Y145439D01*
X247897D01*
Y108691D01*
X237496D01*
Y144486D01*
X232902D01*
Y181582D01*
X233856D01*
G54D11*
G01X206311Y-146075D02*
G02X210248I1968J0D01*
G01Y-188988D01*
X214591D01*
X214091D01*
X216091D01*
X271591D01*
G03X275591Y-184988I0J4000D01*
G01Y-4012D01*
G03X271591Y-12I-4000J0D01*
G01X4000D01*
G03X0Y-4012I0J-4000D01*
G01Y-184988D01*
G03X4000Y-188988I4000J0D01*
G01X161091D01*
X179343D01*
Y-146075D01*
G02X183280I1968J0D01*
G01X206311D01*
G01X0Y188976D02*
X-15685D01*
G03X-19685Y184976I0J-4000D01*
G01Y-184976D01*
G03X-15685Y-188976I4000J0D01*
G01X0D01*
Y188976D01*
G01Y-4012D02*
Y-184988D01*
G01D02*
G03X4000Y-188988I4000J0D01*
G01X-3937Y-177076D02*
G03I-5900J0D01*
G01X69280Y146063D02*
G02X65343I-1968J0D01*
G01Y188976D01*
X61000D01*
X61500D01*
X59500D01*
X4000D01*
G03X0Y184976I0J-4000D01*
G01Y4000D01*
G03X4000Y0I4000J0D01*
G01X271591D01*
G03X275591Y4000I0J4000D01*
G01Y184976D01*
G03X271591Y188976I-4000J0D01*
G01X114500D01*
X96248D01*
Y146063D01*
G02X92311I-1969J0D01*
G01X69280D01*
G01X4000Y-12D02*
G03X0Y-4012I0J-4000D01*
G01Y184976D02*
Y4000D01*
G01D02*
G03X4000Y0I4000J0D01*
G01Y188976D02*
G03X0Y184976I0J-4000D01*
G01X-3937Y177076D02*
G03I-5900J0D01*
G01X4000Y-188988D02*
X161091D01*
G01X271591Y-12D02*
X4000D01*
G01Y0D02*
X271591D01*
G01X69280Y146063D02*
G02X65343I-1968J0D01*
G01D02*
Y188976D01*
G01X92311Y146063D02*
X69280D01*
G01Y146087D02*
X92311D01*
G01X65343D02*
G03X69280I1969J0D01*
G01X57469Y189000D02*
X65343D01*
Y146087D01*
G01Y188976D02*
X61000D01*
G01D02*
X61500D01*
G01D02*
X59500D01*
G01D02*
X4000D01*
G01X96248D02*
Y146063D01*
G01D02*
G02X92311I-1969J0D01*
G01X96248Y146087D02*
Y189000D01*
X104122D01*
G01X92311Y146087D02*
G03X96248I1968J0D01*
G01X271591Y188976D02*
X114500D01*
G01D02*
X96248D01*
G01X210248Y-146075D02*
Y-188988D01*
G01D02*
X214591D01*
G01D02*
X214091D01*
G01D02*
X216091D01*
G01D02*
X271591D01*
G01X161091D02*
X179343D01*
G01D02*
Y-146075D01*
G01X206311D02*
G02X210248I1968J0D01*
G01X179343D02*
G02X183280I1968J0D01*
G01D02*
X206311D01*
G01X275591Y-188976D02*
X291276D01*
G03X295276Y-184976I0J4000D01*
G01Y184976D01*
G03X291276Y188976I-4000J0D01*
G01X275591D01*
Y-188976D01*
G01X271591Y-188988D02*
G03X275591Y-184988I0J4000D01*
G01D02*
Y-4012D01*
G01X291339Y-177076D02*
G03I-5900J0D01*
G01X275591Y-4012D02*
G03X271591Y-12I-4000J0D01*
G01Y0D02*
G03X275591Y4000I0J4000D01*
G01D02*
Y184976D01*
G01D02*
G03X271591Y188976I-4000J0D01*
G01X291339Y177076D02*
G03I-5900J0D01*
G01X8500Y35900D02*
X11500D01*
Y37150D01*
X11350Y37550D01*
X11150Y37800D01*
X10750Y37900D01*
X10350Y37800D01*
X10100Y37500D01*
X9950Y37150D01*
Y35900D01*
G01Y37150D02*
X8500Y37900D01*
G01Y39900D02*
X9150Y40000D01*
X9700Y40150D01*
X10200Y40350D01*
X10750Y40600D01*
X11500Y41000D01*
Y39000D01*
G01X9100Y42000D02*
X8750Y42300D01*
X8550Y42700D01*
X8500Y43150D01*
X8550Y43550D01*
X8800Y43950D01*
X9100Y44200D01*
X9400Y44250D01*
X9750Y44150D01*
X10000Y43800D01*
X10100Y43450D01*
Y43000D01*
G01Y43450D02*
X10250Y43750D01*
X10500Y44000D01*
X10800Y44100D01*
X11100Y44000D01*
X11350Y43750D01*
X11500Y43300D01*
X11450Y42850D01*
X11250Y42400D01*
G01X85200Y37500D02*
Y35350D01*
X85000Y34900D01*
X84600Y34600D01*
X84100Y34500D01*
X83600Y34600D01*
X83200Y34900D01*
X83000Y35350D01*
Y37500D01*
G01X81000Y34500D02*
Y37500D01*
X81600Y36900D01*
G01Y34500D02*
X80400D01*
G01X77900Y37500D02*
X78300Y37400D01*
X78600Y37150D01*
X78800Y36850D01*
X78950Y36450D01*
X79000Y36000D01*
X78950Y35550D01*
X78800Y35150D01*
X78600Y34850D01*
X78300Y34600D01*
X77900Y34500D01*
X77500Y34600D01*
X77200Y34850D01*
X77000Y35150D01*
X76850Y35550D01*
X76800Y36000D01*
X76850Y36450D01*
X77000Y36850D01*
X77200Y37150D01*
X77500Y37400D01*
X77900Y37500D01*
G01X39500Y31500D02*
Y34500D01*
X40100Y33900D01*
G01Y31500D02*
X38900D01*
G01X64750Y54400D02*
X64900Y54100D01*
X65000Y53750D01*
Y53350D01*
X64850Y52900D01*
X64600Y52550D01*
X64300Y52300D01*
X63800Y52100D01*
X63350Y52050D01*
X62900Y52150D01*
X62600Y52300D01*
X62300Y52600D01*
X62100Y52950D01*
X62000Y53300D01*
Y53650D01*
X62100Y54000D01*
X62250Y54300D01*
X62450Y54550D01*
G01Y55300D02*
X62200Y55600D01*
X62050Y55950D01*
X62000Y56400D01*
X62100Y56850D01*
X62300Y57200D01*
X62650Y57450D01*
X63050Y57500D01*
X63450Y57400D01*
X63700Y57150D01*
X63900Y56800D01*
X63950Y56450D01*
X63900Y56100D01*
X63700Y55650D01*
X65000Y55800D01*
Y57150D01*
G01Y59500D02*
X64900Y59100D01*
X64650Y58800D01*
X64350Y58600D01*
X63950Y58450D01*
X63500Y58400D01*
X63050Y58450D01*
X62650Y58600D01*
X62350Y58800D01*
X62100Y59100D01*
X62000Y59500D01*
X62100Y59900D01*
X62350Y60200D01*
X62650Y60400D01*
X63050Y60550D01*
X63500Y60600D01*
X63950Y60550D01*
X64350Y60400D01*
X64650Y60200D01*
X64900Y59900D01*
X65000Y59500D01*
G01X43500Y52750D02*
X43800Y52900D01*
X44150Y53000D01*
X44550D01*
X45000Y52850D01*
X45350Y52600D01*
X45600Y52300D01*
X45800Y51800D01*
X45850Y51350D01*
X45750Y50900D01*
X45600Y50600D01*
X45300Y50300D01*
X44950Y50100D01*
X44600Y50000D01*
X44250D01*
X43900Y50100D01*
X43600Y50250D01*
X43350Y50450D01*
G01X42600D02*
X42300Y50200D01*
X41950Y50050D01*
X41500Y50000D01*
X41050Y50100D01*
X40700Y50300D01*
X40450Y50650D01*
X40400Y51050D01*
X40500Y51450D01*
X40750Y51700D01*
X41100Y51900D01*
X41450Y51950D01*
X41800Y51900D01*
X42250Y51700D01*
X42100Y53000D01*
X40750D01*
G01X39350Y52500D02*
X39050Y52800D01*
X38700Y52950D01*
X38300Y53000D01*
X37800Y52900D01*
X37450Y52650D01*
X37350Y52350D01*
X37400Y52050D01*
X37600Y51800D01*
X38600Y51300D01*
X39050Y50950D01*
X39350Y50450D01*
X39450Y50000D01*
X37350D01*
G01X53000Y52750D02*
X53300Y52900D01*
X53650Y53000D01*
X54050D01*
X54500Y52850D01*
X54850Y52600D01*
X55100Y52300D01*
X55300Y51800D01*
X55350Y51350D01*
X55250Y50900D01*
X55100Y50600D01*
X54800Y50300D01*
X54450Y50100D01*
X54100Y50000D01*
X53750D01*
X53400Y50100D01*
X53100Y50250D01*
X52850Y50450D01*
G01X52100D02*
X51800Y50200D01*
X51450Y50050D01*
X51000Y50000D01*
X50550Y50100D01*
X50200Y50300D01*
X49950Y50650D01*
X49900Y51050D01*
X50000Y51450D01*
X50250Y51700D01*
X50600Y51900D01*
X50950Y51950D01*
X51300Y51900D01*
X51750Y51700D01*
X51600Y53000D01*
X50250D01*
G01X49000Y50600D02*
X48700Y50250D01*
X48300Y50050D01*
X47850Y50000D01*
X47450Y50050D01*
X47050Y50300D01*
X46800Y50600D01*
X46750Y50900D01*
X46850Y51250D01*
X47200Y51500D01*
X47550Y51600D01*
X48000D01*
G01X47550D02*
X47250Y51750D01*
X47000Y52000D01*
X46900Y52300D01*
X47000Y52600D01*
X47250Y52850D01*
X47700Y53000D01*
X48150Y52950D01*
X48600Y52750D01*
G01X58750Y54400D02*
X58900Y54100D01*
X59000Y53750D01*
Y53350D01*
X58850Y52900D01*
X58600Y52550D01*
X58300Y52300D01*
X57800Y52100D01*
X57350Y52050D01*
X56900Y52150D01*
X56600Y52300D01*
X56300Y52600D01*
X56100Y52950D01*
X56000Y53300D01*
Y53650D01*
X56100Y54000D01*
X56250Y54300D01*
X56450Y54550D01*
G01X56000Y57000D02*
X59000D01*
X56850Y55150D01*
Y57650D01*
G01X56350Y58650D02*
X56100Y59000D01*
X56000Y59400D01*
X56100Y59800D01*
X56400Y60150D01*
X56850Y60400D01*
X57300Y60500D01*
X57850D01*
X58300Y60400D01*
X58700Y60150D01*
X58900Y59850D01*
X59000Y59500D01*
X58900Y59100D01*
X58700Y58800D01*
X58400Y58600D01*
X58000Y58500D01*
X57650Y58600D01*
X57300Y58850D01*
X57100Y59150D01*
X57050Y59500D01*
X57150Y59900D01*
X57400Y60200D01*
X57850Y60500D01*
G01X73750Y109050D02*
X73900Y108750D01*
X74000Y108400D01*
Y108000D01*
X73850Y107550D01*
X73600Y107200D01*
X73300Y106950D01*
X72800Y106750D01*
X72350Y106700D01*
X71900Y106800D01*
X71600Y106950D01*
X71300Y107250D01*
X71100Y107600D01*
X71000Y107950D01*
Y108300D01*
X71100Y108650D01*
X71250Y108950D01*
X71450Y109200D01*
G01X71000Y110950D02*
X71650Y111050D01*
X72200Y111200D01*
X72700Y111400D01*
X73250Y111650D01*
X74000Y112050D01*
Y110050D01*
G01X67250Y108050D02*
X67400Y107750D01*
X67500Y107400D01*
Y107000D01*
X67350Y106550D01*
X67100Y106200D01*
X66800Y105950D01*
X66300Y105750D01*
X65850Y105700D01*
X65400Y105800D01*
X65100Y105950D01*
X64800Y106250D01*
X64600Y106600D01*
X64500Y106950D01*
Y107300D01*
X64600Y107650D01*
X64750Y107950D01*
X64950Y108200D01*
G01X64500Y110650D02*
X67500D01*
X65350Y108800D01*
Y111300D01*
G01X58250Y108550D02*
X58400Y108250D01*
X58500Y107900D01*
Y107500D01*
X58350Y107050D01*
X58100Y106700D01*
X57800Y106450D01*
X57300Y106250D01*
X56850Y106200D01*
X56400Y106300D01*
X56100Y106450D01*
X55800Y106750D01*
X55600Y107100D01*
X55500Y107450D01*
Y107800D01*
X55600Y108150D01*
X55750Y108450D01*
X55950Y108700D01*
G01X55500Y110550D02*
X58500D01*
X57900Y109950D01*
G01X55500D02*
Y111150D01*
G01X69000Y52900D02*
X72000D01*
Y54150D01*
X71850Y54550D01*
X71650Y54800D01*
X71250Y54900D01*
X70850Y54800D01*
X70600Y54500D01*
X70450Y54150D01*
Y52900D01*
G01Y54150D02*
X69000Y54900D01*
G01X70250Y56050D02*
X70600Y56400D01*
X70800Y56700D01*
X70900Y57100D01*
X70800Y57450D01*
X70600Y57700D01*
X70300Y57900D01*
X69950Y57950D01*
X69650Y57900D01*
X69350Y57700D01*
X69100Y57400D01*
X69000Y57050D01*
X69100Y56650D01*
X69400Y56300D01*
X69850Y56100D01*
X70350Y56050D01*
X71000Y56150D01*
X71350Y56300D01*
X71700Y56550D01*
X71950Y56900D01*
X72000Y57250D01*
X71900Y57600D01*
X71650Y57850D01*
G01X69350Y59250D02*
X69100Y59600D01*
X69000Y60000D01*
X69100Y60400D01*
X69400Y60750D01*
X69850Y61000D01*
X70300Y61100D01*
X70850D01*
X71300Y61000D01*
X71700Y60750D01*
X71900Y60450D01*
X72000Y60100D01*
X71900Y59700D01*
X71700Y59400D01*
X71400Y59200D01*
X71000Y59100D01*
X70650Y59200D01*
X70300Y59450D01*
X70100Y59750D01*
X70050Y60100D01*
X70150Y60500D01*
X70400Y60800D01*
X70850Y61100D01*
G01X75000Y52900D02*
X78000D01*
Y54150D01*
X77850Y54550D01*
X77650Y54800D01*
X77250Y54900D01*
X76850Y54800D01*
X76600Y54500D01*
X76450Y54150D01*
Y52900D01*
G01Y54150D02*
X75000Y54900D01*
G01Y56900D02*
X75650Y57000D01*
X76200Y57150D01*
X76700Y57350D01*
X77250Y57600D01*
X78000Y58000D01*
Y56000D01*
G01Y60100D02*
X77900Y59700D01*
X77650Y59400D01*
X77350Y59200D01*
X76950Y59050D01*
X76500Y59000D01*
X76050Y59050D01*
X75650Y59200D01*
X75350Y59400D01*
X75100Y59700D01*
X75000Y60100D01*
X75100Y60500D01*
X75350Y60800D01*
X75650Y61000D01*
X76050Y61150D01*
X76500Y61200D01*
X76950Y61150D01*
X77350Y61000D01*
X77650Y60800D01*
X77900Y60500D01*
X78000Y60100D01*
G01X28500Y115900D02*
X31500D01*
Y117150D01*
X31350Y117550D01*
X31150Y117800D01*
X30750Y117900D01*
X30350Y117800D01*
X30100Y117500D01*
X29950Y117150D01*
Y115900D01*
G01Y117150D02*
X28500Y117900D01*
G01Y119900D02*
X29150Y120000D01*
X29700Y120150D01*
X30200Y120350D01*
X30750Y120600D01*
X31500Y121000D01*
Y119000D01*
G01X29750Y122150D02*
X30100Y122500D01*
X30300Y122800D01*
X30400Y123200D01*
X30300Y123550D01*
X30100Y123800D01*
X29800Y124000D01*
X29450Y124050D01*
X29150Y124000D01*
X28850Y123800D01*
X28600Y123500D01*
X28500Y123150D01*
X28600Y122750D01*
X28900Y122400D01*
X29350Y122200D01*
X29850Y122150D01*
X30500Y122250D01*
X30850Y122400D01*
X31200Y122650D01*
X31450Y123000D01*
X31500Y123350D01*
X31400Y123700D01*
X31150Y123950D01*
G01X45600Y54500D02*
Y57500D01*
X44350D01*
X43950Y57350D01*
X43700Y57150D01*
X43600Y56750D01*
X43700Y56350D01*
X44000Y56100D01*
X44350Y55950D01*
X45600D01*
G01X44350D02*
X43600Y54500D01*
G01X41600D02*
X41500Y55150D01*
X41350Y55700D01*
X41150Y56200D01*
X40900Y56750D01*
X40500Y57500D01*
X42500D01*
G01X38500Y54500D02*
X38400Y55150D01*
X38250Y55700D01*
X38050Y56200D01*
X37800Y56750D01*
X37400Y57500D01*
X39400D01*
G01X31050Y47500D02*
X31450Y47550D01*
X31800Y47750D01*
X32100Y48050D01*
X32300Y48400D01*
X32400Y48800D01*
Y49200D01*
X32300Y49600D01*
X32100Y49950D01*
X31800Y50250D01*
X31450Y50450D01*
X31050Y50500D01*
X30650Y50450D01*
X30300Y50250D01*
X30000Y49950D01*
X29800Y49600D01*
X29700Y49200D01*
Y48800D01*
X29800Y48400D01*
X30000Y48050D01*
X30300Y47750D01*
X30650Y47550D01*
X31050Y47500D01*
G01X30650Y48300D02*
X30050Y47500D01*
G01X27950D02*
Y50500D01*
X28550Y49900D01*
G01Y47500D02*
X27350D01*
G01X38750Y148000D02*
X38900Y147700D01*
X39000Y147350D01*
Y146950D01*
X38850Y146500D01*
X38600Y146150D01*
X38300Y145900D01*
X37800Y145700D01*
X37350Y145650D01*
X36900Y145750D01*
X36600Y145900D01*
X36300Y146200D01*
X36100Y146550D01*
X36000Y146900D01*
Y147250D01*
X36100Y147600D01*
X36250Y147900D01*
X36450Y148150D01*
G01X36600Y148900D02*
X36250Y149200D01*
X36050Y149600D01*
X36000Y150050D01*
X36050Y150450D01*
X36300Y150850D01*
X36600Y151100D01*
X36900Y151150D01*
X37250Y151050D01*
X37500Y150700D01*
X37600Y150350D01*
Y149900D01*
G01Y150350D02*
X37750Y150650D01*
X38000Y150900D01*
X38300Y151000D01*
X38600Y150900D01*
X38850Y150650D01*
X39000Y150200D01*
X38950Y149750D01*
X38750Y149300D01*
G01X36000Y153100D02*
X39000D01*
X38400Y152500D01*
G01X36000D02*
Y153700D01*
G01X48750Y148000D02*
X48900Y147700D01*
X49000Y147350D01*
Y146950D01*
X48850Y146500D01*
X48600Y146150D01*
X48300Y145900D01*
X47800Y145700D01*
X47350Y145650D01*
X46900Y145750D01*
X46600Y145900D01*
X46300Y146200D01*
X46100Y146550D01*
X46000Y146900D01*
Y147250D01*
X46100Y147600D01*
X46250Y147900D01*
X46450Y148150D01*
G01X46600Y148900D02*
X46250Y149200D01*
X46050Y149600D01*
X46000Y150050D01*
X46050Y150450D01*
X46300Y150850D01*
X46600Y151100D01*
X46900Y151150D01*
X47250Y151050D01*
X47500Y150700D01*
X47600Y150350D01*
Y149900D01*
G01Y150350D02*
X47750Y150650D01*
X48000Y150900D01*
X48300Y151000D01*
X48600Y150900D01*
X48850Y150650D01*
X49000Y150200D01*
X48950Y149750D01*
X48750Y149300D01*
G01X48500Y152150D02*
X48800Y152450D01*
X48950Y152800D01*
X49000Y153200D01*
X48900Y153700D01*
X48650Y154050D01*
X48350Y154150D01*
X48050Y154100D01*
X47800Y153900D01*
X47300Y152900D01*
X46950Y152450D01*
X46450Y152150D01*
X46000Y152050D01*
Y154150D01*
G01X24250Y137000D02*
X24400Y136700D01*
X24500Y136350D01*
Y135950D01*
X24350Y135500D01*
X24100Y135150D01*
X23800Y134900D01*
X23300Y134700D01*
X22850Y134650D01*
X22400Y134750D01*
X22100Y134900D01*
X21800Y135200D01*
X21600Y135550D01*
X21500Y135900D01*
Y136250D01*
X21600Y136600D01*
X21750Y136900D01*
X21950Y137150D01*
G01Y137900D02*
X21700Y138200D01*
X21550Y138550D01*
X21500Y139000D01*
X21600Y139450D01*
X21800Y139800D01*
X22150Y140050D01*
X22550Y140100D01*
X22950Y140000D01*
X23200Y139750D01*
X23400Y139400D01*
X23450Y139050D01*
X23400Y138700D01*
X23200Y138250D01*
X24500Y138400D01*
Y139750D01*
G01X22750Y141150D02*
X23100Y141500D01*
X23300Y141800D01*
X23400Y142200D01*
X23300Y142550D01*
X23100Y142800D01*
X22800Y143000D01*
X22450Y143050D01*
X22150Y143000D01*
X21850Y142800D01*
X21600Y142500D01*
X21500Y142150D01*
X21600Y141750D01*
X21900Y141400D01*
X22350Y141200D01*
X22850Y141150D01*
X23500Y141250D01*
X23850Y141400D01*
X24200Y141650D01*
X24450Y142000D01*
X24500Y142350D01*
X24400Y142700D01*
X24150Y142950D01*
G01X52650Y134000D02*
Y137000D01*
X51650D01*
X51250Y136850D01*
X50950Y136650D01*
X50700Y136350D01*
X50500Y136000D01*
X50450Y135500D01*
X50500Y135000D01*
X50700Y134650D01*
X50950Y134350D01*
X51250Y134150D01*
X51650Y134000D01*
X52650D01*
G01X49400Y136500D02*
X49100Y136800D01*
X48750Y136950D01*
X48350Y137000D01*
X47850Y136900D01*
X47500Y136650D01*
X47400Y136350D01*
X47450Y136050D01*
X47650Y135800D01*
X48650Y135300D01*
X49100Y134950D01*
X49400Y134450D01*
X49500Y134000D01*
X47400D01*
G01X49500Y178850D02*
X52500D01*
Y179850D01*
X52350Y180250D01*
X52150Y180550D01*
X51850Y180800D01*
X51500Y181000D01*
X51000Y181050D01*
X50500Y181000D01*
X50150Y180800D01*
X49850Y180550D01*
X49650Y180250D01*
X49500Y179850D01*
Y178850D01*
G01X50100Y181950D02*
X49750Y182250D01*
X49550Y182650D01*
X49500Y183100D01*
X49550Y183500D01*
X49800Y183900D01*
X50100Y184150D01*
X50400Y184200D01*
X50750Y184100D01*
X51000Y183750D01*
X51100Y183400D01*
Y182950D01*
G01Y183400D02*
X51250Y183700D01*
X51500Y183950D01*
X51800Y184050D01*
X52100Y183950D01*
X52350Y183700D01*
X52500Y183250D01*
X52450Y182800D01*
X52250Y182350D01*
G01X42650Y134000D02*
Y137000D01*
X41650D01*
X41250Y136850D01*
X40950Y136650D01*
X40700Y136350D01*
X40500Y136000D01*
X40450Y135500D01*
X40500Y135000D01*
X40700Y134650D01*
X40950Y134350D01*
X41250Y134150D01*
X41650Y134000D01*
X42650D01*
G01X37850D02*
Y137000D01*
X39700Y134850D01*
X37200D01*
G01X38250Y163000D02*
X38400Y162700D01*
X38500Y162350D01*
Y161950D01*
X38350Y161500D01*
X38100Y161150D01*
X37800Y160900D01*
X37300Y160700D01*
X36850Y160650D01*
X36400Y160750D01*
X36100Y160900D01*
X35800Y161200D01*
X35600Y161550D01*
X35500Y161900D01*
Y162250D01*
X35600Y162600D01*
X35750Y162900D01*
X35950Y163150D01*
G01X35500Y165000D02*
X38500D01*
X37900Y164400D01*
G01X35500D02*
Y165600D01*
G01X35950Y167000D02*
X35700Y167300D01*
X35550Y167650D01*
X35500Y168100D01*
X35600Y168550D01*
X35800Y168900D01*
X36150Y169150D01*
X36550Y169200D01*
X36950Y169100D01*
X37200Y168850D01*
X37400Y168500D01*
X37450Y168150D01*
X37400Y167800D01*
X37200Y167350D01*
X38500Y167500D01*
Y168850D01*
G01X40500Y132250D02*
X40800Y132400D01*
X41150Y132500D01*
X41550D01*
X42000Y132350D01*
X42350Y132100D01*
X42600Y131800D01*
X42800Y131300D01*
X42850Y130850D01*
X42750Y130400D01*
X42600Y130100D01*
X42300Y129800D01*
X41950Y129600D01*
X41600Y129500D01*
X41250D01*
X40900Y129600D01*
X40600Y129750D01*
X40350Y129950D01*
G01X38500Y129500D02*
Y132500D01*
X39100Y131900D01*
G01Y129500D02*
X37900D01*
G01X35400Y132500D02*
X35800Y132400D01*
X36100Y132150D01*
X36300Y131850D01*
X36450Y131450D01*
X36500Y131000D01*
X36450Y130550D01*
X36300Y130150D01*
X36100Y129850D01*
X35800Y129600D01*
X35400Y129500D01*
X35000Y129600D01*
X34700Y129850D01*
X34500Y130150D01*
X34350Y130550D01*
X34300Y131000D01*
X34350Y131450D01*
X34500Y131850D01*
X34700Y132150D01*
X35000Y132400D01*
X35400Y132500D01*
G01X77450Y121750D02*
X77750Y121900D01*
X78100Y122000D01*
X78500D01*
X78950Y121850D01*
X79300Y121600D01*
X79550Y121300D01*
X79750Y120800D01*
X79800Y120350D01*
X79700Y119900D01*
X79550Y119600D01*
X79250Y119300D01*
X78900Y119100D01*
X78550Y119000D01*
X78200D01*
X77850Y119100D01*
X77550Y119250D01*
X77300Y119450D01*
G01X76550D02*
X76250Y119200D01*
X75900Y119050D01*
X75450Y119000D01*
X75000Y119100D01*
X74650Y119300D01*
X74400Y119650D01*
X74350Y120050D01*
X74450Y120450D01*
X74700Y120700D01*
X75050Y120900D01*
X75400Y120950D01*
X75750Y120900D01*
X76200Y120700D01*
X76050Y122000D01*
X74700D01*
G01X50450Y127750D02*
X50750Y127900D01*
X51100Y128000D01*
X51500D01*
X51950Y127850D01*
X52300Y127600D01*
X52550Y127300D01*
X52750Y126800D01*
X52800Y126350D01*
X52700Y125900D01*
X52550Y125600D01*
X52250Y125300D01*
X51900Y125100D01*
X51550Y125000D01*
X51200D01*
X50850Y125100D01*
X50550Y125250D01*
X50300Y125450D01*
G01X49300Y125350D02*
X48950Y125100D01*
X48550Y125000D01*
X48150Y125100D01*
X47800Y125400D01*
X47550Y125850D01*
X47450Y126300D01*
Y126850D01*
X47550Y127300D01*
X47800Y127700D01*
X48100Y127900D01*
X48450Y128000D01*
X48850Y127900D01*
X49150Y127700D01*
X49350Y127400D01*
X49450Y127000D01*
X49350Y126650D01*
X49100Y126300D01*
X48800Y126100D01*
X48450Y126050D01*
X48050Y126150D01*
X47750Y126400D01*
X47450Y126850D01*
G01X42050Y124000D02*
Y127000D01*
X40800D01*
X40400Y126850D01*
X40150Y126650D01*
X40050Y126250D01*
X40150Y125850D01*
X40450Y125600D01*
X40800Y125450D01*
X42050D01*
G01X40800D02*
X40050Y124000D01*
G01X37950D02*
Y127000D01*
X38550Y126400D01*
G01Y124000D02*
X37350D01*
G01X52600Y129500D02*
Y132500D01*
X51350D01*
X50950Y132350D01*
X50700Y132150D01*
X50600Y131750D01*
X50700Y131350D01*
X51000Y131100D01*
X51350Y130950D01*
X52600D01*
G01X51350D02*
X50600Y129500D01*
G01X48500D02*
Y132500D01*
X49100Y131900D01*
G01Y129500D02*
X47900D01*
G01X45400Y132500D02*
X45800Y132400D01*
X46100Y132150D01*
X46300Y131850D01*
X46450Y131450D01*
X46500Y131000D01*
X46450Y130550D01*
X46300Y130150D01*
X46100Y129850D01*
X45800Y129600D01*
X45400Y129500D01*
X45000Y129600D01*
X44700Y129850D01*
X44500Y130150D01*
X44350Y130550D01*
X44300Y131000D01*
X44350Y131450D01*
X44500Y131850D01*
X44700Y132150D01*
X45000Y132400D01*
X45400Y132500D01*
G01X45000Y170900D02*
X48000D01*
Y172150D01*
X47850Y172550D01*
X47650Y172800D01*
X47250Y172900D01*
X46850Y172800D01*
X46600Y172500D01*
X46450Y172150D01*
Y170900D01*
G01Y172150D02*
X45000Y172900D01*
G01Y175000D02*
X48000D01*
X47400Y174400D01*
G01X45000D02*
Y175600D01*
G01Y178100D02*
X48000D01*
X47400Y177500D01*
G01X45000D02*
Y178700D01*
G01X54000Y159950D02*
X57000D01*
Y161200D01*
X56850Y161600D01*
X56650Y161850D01*
X56250Y161950D01*
X55850Y161850D01*
X55600Y161550D01*
X55450Y161200D01*
Y159950D01*
G01Y161200D02*
X54000Y161950D01*
G01Y164050D02*
X54050Y164400D01*
X54200Y164800D01*
X54450Y165050D01*
X54800Y165150D01*
X55150Y165050D01*
X55450Y164750D01*
X55600Y164300D01*
Y163800D01*
X55700Y163500D01*
X55950Y163250D01*
X56300Y163150D01*
X56650Y163300D01*
X56900Y163650D01*
X57000Y164050D01*
X56900Y164450D01*
X56650Y164800D01*
X56300Y164950D01*
X55950Y164850D01*
X55700Y164600D01*
X55600Y164300D01*
Y163800D01*
X55450Y163350D01*
X55150Y163050D01*
X54800Y162950D01*
X54450Y163050D01*
X54200Y163300D01*
X54050Y163700D01*
X54000Y164050D01*
G01X29500Y127450D02*
X32500D01*
Y128700D01*
X32350Y129100D01*
X32150Y129350D01*
X31750Y129450D01*
X31350Y129350D01*
X31100Y129050D01*
X30950Y128700D01*
Y127450D01*
G01Y128700D02*
X29500Y129450D01*
G01X32000Y130600D02*
X32300Y130900D01*
X32450Y131250D01*
X32500Y131650D01*
X32400Y132150D01*
X32150Y132500D01*
X31850Y132600D01*
X31550Y132550D01*
X31300Y132350D01*
X30800Y131350D01*
X30450Y130900D01*
X29950Y130600D01*
X29500Y130500D01*
Y132600D01*
G01X39500Y179450D02*
X42500D01*
Y180700D01*
X42350Y181100D01*
X42150Y181350D01*
X41750Y181450D01*
X41350Y181350D01*
X41100Y181050D01*
X40950Y180700D01*
Y179450D01*
G01Y180700D02*
X39500Y181450D01*
G01X40750Y182600D02*
X41100Y182950D01*
X41300Y183250D01*
X41400Y183650D01*
X41300Y184000D01*
X41100Y184250D01*
X40800Y184450D01*
X40450Y184500D01*
X40150Y184450D01*
X39850Y184250D01*
X39600Y183950D01*
X39500Y183600D01*
X39600Y183200D01*
X39900Y182850D01*
X40350Y182650D01*
X40850Y182600D01*
X41500Y182700D01*
X41850Y182850D01*
X42200Y183100D01*
X42450Y183450D01*
X42500Y183800D01*
X42400Y184150D01*
X42150Y184400D01*
G01X17000Y134900D02*
X20000D01*
Y136150D01*
X19850Y136550D01*
X19650Y136800D01*
X19250Y136900D01*
X18850Y136800D01*
X18600Y136500D01*
X18450Y136150D01*
Y134900D01*
G01Y136150D02*
X17000Y136900D01*
G01Y138900D02*
X17650Y139000D01*
X18200Y139150D01*
X18700Y139350D01*
X19250Y139600D01*
X20000Y140000D01*
Y138000D01*
G01X17000Y142700D02*
X20000D01*
X17850Y140850D01*
Y143350D01*
G01X11000Y119400D02*
X14000D01*
Y120650D01*
X13850Y121050D01*
X13650Y121300D01*
X13250Y121400D01*
X12850Y121300D01*
X12600Y121000D01*
X12450Y120650D01*
Y119400D01*
G01Y120650D02*
X11000Y121400D01*
G01Y123400D02*
X11650Y123500D01*
X12200Y123650D01*
X12700Y123850D01*
X13250Y124100D01*
X14000Y124500D01*
Y122500D01*
G01X11450Y125500D02*
X11200Y125800D01*
X11050Y126150D01*
X11000Y126600D01*
X11100Y127050D01*
X11300Y127400D01*
X11650Y127650D01*
X12050Y127700D01*
X12450Y127600D01*
X12700Y127350D01*
X12900Y127000D01*
X12950Y126650D01*
X12900Y126300D01*
X12700Y125850D01*
X14000Y126000D01*
Y127350D01*
G01X139100Y19000D02*
Y22000D01*
X137850D01*
X137450Y21850D01*
X137200Y21650D01*
X137100Y21250D01*
X137200Y20850D01*
X137500Y20600D01*
X137850Y20450D01*
X139100D01*
G01X137850D02*
X137100Y19000D01*
G01X136100Y19600D02*
X135800Y19250D01*
X135400Y19050D01*
X134950Y19000D01*
X134550Y19050D01*
X134150Y19300D01*
X133900Y19600D01*
X133850Y19900D01*
X133950Y20250D01*
X134300Y20500D01*
X134650Y20600D01*
X135100D01*
G01X134650D02*
X134350Y20750D01*
X134100Y21000D01*
X134000Y21300D01*
X134100Y21600D01*
X134350Y21850D01*
X134800Y22000D01*
X135250Y21950D01*
X135700Y21750D01*
G01X131900Y19000D02*
X131550Y19050D01*
X131150Y19200D01*
X130900Y19450D01*
X130800Y19800D01*
X130900Y20150D01*
X131200Y20450D01*
X131650Y20600D01*
X132150D01*
X132450Y20700D01*
X132700Y20950D01*
X132800Y21300D01*
X132650Y21650D01*
X132300Y21900D01*
X131900Y22000D01*
X131500Y21900D01*
X131150Y21650D01*
X131000Y21300D01*
X131100Y20950D01*
X131350Y20700D01*
X131650Y20600D01*
X132150D01*
X132600Y20450D01*
X132900Y20150D01*
X133000Y19800D01*
X132900Y19450D01*
X132650Y19200D01*
X132250Y19050D01*
X131900Y19000D01*
G01X139100Y14500D02*
Y17500D01*
X137850D01*
X137450Y17350D01*
X137200Y17150D01*
X137100Y16750D01*
X137200Y16350D01*
X137500Y16100D01*
X137850Y15950D01*
X139100D01*
G01X137850D02*
X137100Y14500D01*
G01X136100Y15100D02*
X135800Y14750D01*
X135400Y14550D01*
X134950Y14500D01*
X134550Y14550D01*
X134150Y14800D01*
X133900Y15100D01*
X133850Y15400D01*
X133950Y15750D01*
X134300Y16000D01*
X134650Y16100D01*
X135100D01*
G01X134650D02*
X134350Y16250D01*
X134100Y16500D01*
X134000Y16800D01*
X134100Y17100D01*
X134350Y17350D01*
X134800Y17500D01*
X135250Y17450D01*
X135700Y17250D01*
G01X132750Y14850D02*
X132400Y14600D01*
X132000Y14500D01*
X131600Y14600D01*
X131250Y14900D01*
X131000Y15350D01*
X130900Y15800D01*
Y16350D01*
X131000Y16800D01*
X131250Y17200D01*
X131550Y17400D01*
X131900Y17500D01*
X132300Y17400D01*
X132600Y17200D01*
X132800Y16900D01*
X132900Y16500D01*
X132800Y16150D01*
X132550Y15800D01*
X132250Y15600D01*
X131900Y15550D01*
X131500Y15650D01*
X131200Y15900D01*
X130900Y16350D01*
G01X127650Y33100D02*
X127350Y32750D01*
X126950Y32550D01*
X126500Y32500D01*
X126100Y32550D01*
X125700Y32800D01*
X125450Y33100D01*
X125400Y33400D01*
X125500Y33750D01*
X125850Y34000D01*
X126200Y34100D01*
X126650D01*
G01X126200D02*
X125900Y34250D01*
X125650Y34500D01*
X125550Y34800D01*
X125650Y35100D01*
X125900Y35350D01*
X126350Y35500D01*
X126800Y35450D01*
X127250Y35250D01*
G01X123450Y35500D02*
X123850Y35400D01*
X124150Y35150D01*
X124350Y34850D01*
X124500Y34450D01*
X124550Y34000D01*
X124500Y33550D01*
X124350Y33150D01*
X124150Y32850D01*
X123850Y32600D01*
X123450Y32500D01*
X123050Y32600D01*
X122750Y32850D01*
X122550Y33150D01*
X122400Y33550D01*
X122350Y34000D01*
X122400Y34450D01*
X122550Y34850D01*
X122750Y35150D01*
X123050Y35400D01*
X123450Y35500D01*
G01X82250Y55000D02*
X82400Y54700D01*
X82500Y54350D01*
Y53950D01*
X82350Y53500D01*
X82100Y53150D01*
X81800Y52900D01*
X81300Y52700D01*
X80850Y52650D01*
X80400Y52750D01*
X80100Y52900D01*
X79800Y53200D01*
X79600Y53550D01*
X79500Y53900D01*
Y54250D01*
X79600Y54600D01*
X79750Y54900D01*
X79950Y55150D01*
G01Y55900D02*
X79700Y56200D01*
X79550Y56550D01*
X79500Y57000D01*
X79600Y57450D01*
X79800Y57800D01*
X80150Y58050D01*
X80550Y58100D01*
X80950Y58000D01*
X81200Y57750D01*
X81400Y57400D01*
X81450Y57050D01*
X81400Y56700D01*
X81200Y56250D01*
X82500Y56400D01*
Y57750D01*
G01X79950Y59000D02*
X79700Y59300D01*
X79550Y59650D01*
X79500Y60100D01*
X79600Y60550D01*
X79800Y60900D01*
X80150Y61150D01*
X80550Y61200D01*
X80950Y61100D01*
X81200Y60850D01*
X81400Y60500D01*
X81450Y60150D01*
X81400Y59800D01*
X81200Y59350D01*
X82500Y59500D01*
Y60850D01*
G01X121500Y48750D02*
X121800Y48900D01*
X122150Y49000D01*
X122550D01*
X123000Y48850D01*
X123350Y48600D01*
X123600Y48300D01*
X123800Y47800D01*
X123850Y47350D01*
X123750Y46900D01*
X123600Y46600D01*
X123300Y46300D01*
X122950Y46100D01*
X122600Y46000D01*
X122250D01*
X121900Y46100D01*
X121600Y46250D01*
X121350Y46450D01*
G01X120600D02*
X120300Y46200D01*
X119950Y46050D01*
X119500Y46000D01*
X119050Y46100D01*
X118700Y46300D01*
X118450Y46650D01*
X118400Y47050D01*
X118500Y47450D01*
X118750Y47700D01*
X119100Y47900D01*
X119450Y47950D01*
X119800Y47900D01*
X120250Y47700D01*
X120100Y49000D01*
X118750D01*
G01X116400Y46000D02*
Y49000D01*
X117000Y48400D01*
G01Y46000D02*
X115800D01*
G01X112000Y61250D02*
X112300Y61400D01*
X112650Y61500D01*
X113050D01*
X113500Y61350D01*
X113850Y61100D01*
X114100Y60800D01*
X114300Y60300D01*
X114350Y59850D01*
X114250Y59400D01*
X114100Y59100D01*
X113800Y58800D01*
X113450Y58600D01*
X113100Y58500D01*
X112750D01*
X112400Y58600D01*
X112100Y58750D01*
X111850Y58950D01*
G01X111100D02*
X110800Y58700D01*
X110450Y58550D01*
X110000Y58500D01*
X109550Y58600D01*
X109200Y58800D01*
X108950Y59150D01*
X108900Y59550D01*
X109000Y59950D01*
X109250Y60200D01*
X109600Y60400D01*
X109950Y60450D01*
X110300Y60400D01*
X110750Y60200D01*
X110600Y61500D01*
X109250D01*
G01X106300Y58500D02*
Y61500D01*
X108150Y59350D01*
X105650D01*
G01X149500Y76250D02*
X149800Y76400D01*
X150150Y76500D01*
X150550D01*
X151000Y76350D01*
X151350Y76100D01*
X151600Y75800D01*
X151800Y75300D01*
X151850Y74850D01*
X151750Y74400D01*
X151600Y74100D01*
X151300Y73800D01*
X150950Y73600D01*
X150600Y73500D01*
X150250D01*
X149900Y73600D01*
X149600Y73750D01*
X149350Y73950D01*
G01X147500Y73500D02*
Y76500D01*
X148100Y75900D01*
G01Y73500D02*
X146900D01*
G01X144400D02*
X144050Y73550D01*
X143650Y73700D01*
X143400Y73950D01*
X143300Y74300D01*
X143400Y74650D01*
X143700Y74950D01*
X144150Y75100D01*
X144650D01*
X144950Y75200D01*
X145200Y75450D01*
X145300Y75800D01*
X145150Y76150D01*
X144800Y76400D01*
X144400Y76500D01*
X144000Y76400D01*
X143650Y76150D01*
X143500Y75800D01*
X143600Y75450D01*
X143850Y75200D01*
X144150Y75100D01*
X144650D01*
X145100Y74950D01*
X145400Y74650D01*
X145500Y74300D01*
X145400Y73950D01*
X145150Y73700D01*
X144750Y73550D01*
X144400Y73500D01*
G01X139750Y87500D02*
X139900Y87200D01*
X140000Y86850D01*
Y86450D01*
X139850Y86000D01*
X139600Y85650D01*
X139300Y85400D01*
X138800Y85200D01*
X138350Y85150D01*
X137900Y85250D01*
X137600Y85400D01*
X137300Y85700D01*
X137100Y86050D01*
X137000Y86400D01*
Y86750D01*
X137100Y87100D01*
X137250Y87400D01*
X137450Y87650D01*
G01X137000Y89500D02*
X140000D01*
X139400Y88900D01*
G01X137000D02*
Y90100D01*
G01Y92500D02*
X137650Y92600D01*
X138200Y92750D01*
X138700Y92950D01*
X139250Y93200D01*
X140000Y93600D01*
Y91600D01*
G01X140250Y100550D02*
X140400Y100250D01*
X140500Y99900D01*
Y99500D01*
X140350Y99050D01*
X140100Y98700D01*
X139800Y98450D01*
X139300Y98250D01*
X138850Y98200D01*
X138400Y98300D01*
X138100Y98450D01*
X137800Y98750D01*
X137600Y99100D01*
X137500Y99450D01*
Y99800D01*
X137600Y100150D01*
X137750Y100450D01*
X137950Y100700D01*
G01X138750Y101600D02*
X139100Y101950D01*
X139300Y102250D01*
X139400Y102650D01*
X139300Y103000D01*
X139100Y103250D01*
X138800Y103450D01*
X138450Y103500D01*
X138150Y103450D01*
X137850Y103250D01*
X137600Y102950D01*
X137500Y102600D01*
X137600Y102200D01*
X137900Y101850D01*
X138350Y101650D01*
X138850Y101600D01*
X139500Y101700D01*
X139850Y101850D01*
X140200Y102100D01*
X140450Y102450D01*
X140500Y102800D01*
X140400Y103150D01*
X140150Y103400D01*
G01X143663Y115293D02*
X143963Y115443D01*
X144313Y115543D01*
X144713D01*
X145163Y115393D01*
X145513Y115143D01*
X145763Y114843D01*
X145963Y114343D01*
X146013Y113893D01*
X145913Y113443D01*
X145763Y113143D01*
X145463Y112843D01*
X145113Y112643D01*
X144763Y112543D01*
X144413D01*
X144063Y112643D01*
X143763Y112793D01*
X143513Y112993D01*
G01X141663Y112543D02*
X141313Y112593D01*
X140913Y112743D01*
X140663Y112993D01*
X140563Y113343D01*
X140663Y113693D01*
X140963Y113993D01*
X141413Y114143D01*
X141913D01*
X142213Y114243D01*
X142463Y114493D01*
X142563Y114843D01*
X142413Y115193D01*
X142063Y115443D01*
X141663Y115543D01*
X141263Y115443D01*
X140913Y115193D01*
X140763Y114843D01*
X140863Y114493D01*
X141113Y114243D01*
X141413Y114143D01*
X141913D01*
X142363Y113993D01*
X142663Y113693D01*
X142763Y113343D01*
X142663Y112993D01*
X142413Y112743D01*
X142013Y112593D01*
X141663Y112543D01*
G01X94972Y69868D02*
Y72868D01*
X93722D01*
X93322Y72718D01*
X93072Y72518D01*
X92972Y72118D01*
X93072Y71718D01*
X93372Y71468D01*
X93722Y71318D01*
X94972D01*
G01X93722D02*
X92972Y69868D01*
G01X91822Y72368D02*
X91522Y72668D01*
X91172Y72818D01*
X90772Y72868D01*
X90272Y72768D01*
X89922Y72518D01*
X89822Y72218D01*
X89872Y71918D01*
X90072Y71668D01*
X91072Y71168D01*
X91522Y70818D01*
X91822Y70318D01*
X91922Y69868D01*
X89822D01*
G01X87772D02*
X87422Y69918D01*
X87022Y70068D01*
X86772Y70318D01*
X86672Y70668D01*
X86772Y71018D01*
X87072Y71318D01*
X87522Y71468D01*
X88022D01*
X88322Y71568D01*
X88572Y71818D01*
X88672Y72168D01*
X88522Y72518D01*
X88172Y72768D01*
X87772Y72868D01*
X87372Y72768D01*
X87022Y72518D01*
X86872Y72168D01*
X86972Y71818D01*
X87222Y71568D01*
X87522Y71468D01*
X88022D01*
X88472Y71318D01*
X88772Y71018D01*
X88872Y70668D01*
X88772Y70318D01*
X88522Y70068D01*
X88122Y69918D01*
X87772Y69868D01*
G01X94972Y73868D02*
Y76868D01*
X93722D01*
X93322Y76718D01*
X93072Y76518D01*
X92972Y76118D01*
X93072Y75718D01*
X93372Y75468D01*
X93722Y75318D01*
X94972D01*
G01X93722D02*
X92972Y73868D01*
G01X91822Y76368D02*
X91522Y76668D01*
X91172Y76818D01*
X90772Y76868D01*
X90272Y76768D01*
X89922Y76518D01*
X89822Y76218D01*
X89872Y75918D01*
X90072Y75668D01*
X91072Y75168D01*
X91522Y74818D01*
X91822Y74318D01*
X91922Y73868D01*
X89822D01*
G01X88622Y74218D02*
X88272Y73968D01*
X87872Y73868D01*
X87472Y73968D01*
X87122Y74268D01*
X86872Y74718D01*
X86772Y75168D01*
Y75718D01*
X86872Y76168D01*
X87122Y76568D01*
X87422Y76768D01*
X87772Y76868D01*
X88172Y76768D01*
X88472Y76568D01*
X88672Y76268D01*
X88772Y75868D01*
X88672Y75518D01*
X88422Y75168D01*
X88122Y74968D01*
X87772Y74918D01*
X87372Y75018D01*
X87072Y75268D01*
X86772Y75718D01*
G01X113600Y62500D02*
Y65500D01*
X112350D01*
X111950Y65350D01*
X111700Y65150D01*
X111600Y64750D01*
X111700Y64350D01*
X112000Y64100D01*
X112350Y63950D01*
X113600D01*
G01X112350D02*
X111600Y62500D01*
G01X110600Y63100D02*
X110300Y62750D01*
X109900Y62550D01*
X109450Y62500D01*
X109050Y62550D01*
X108650Y62800D01*
X108400Y63100D01*
X108350Y63400D01*
X108450Y63750D01*
X108800Y64000D01*
X109150Y64100D01*
X109600D01*
G01X109150D02*
X108850Y64250D01*
X108600Y64500D01*
X108500Y64800D01*
X108600Y65100D01*
X108850Y65350D01*
X109300Y65500D01*
X109750Y65450D01*
X110200Y65250D01*
G01X106500Y62500D02*
X106400Y63150D01*
X106250Y63700D01*
X106050Y64200D01*
X105800Y64750D01*
X105400Y65500D01*
X107400D01*
G01X113600Y67000D02*
Y70000D01*
X112350D01*
X111950Y69850D01*
X111700Y69650D01*
X111600Y69250D01*
X111700Y68850D01*
X112000Y68600D01*
X112350Y68450D01*
X113600D01*
G01X112350D02*
X111600Y67000D01*
G01X110600Y67600D02*
X110300Y67250D01*
X109900Y67050D01*
X109450Y67000D01*
X109050Y67050D01*
X108650Y67300D01*
X108400Y67600D01*
X108350Y67900D01*
X108450Y68250D01*
X108800Y68500D01*
X109150Y68600D01*
X109600D01*
G01X109150D02*
X108850Y68750D01*
X108600Y69000D01*
X108500Y69300D01*
X108600Y69600D01*
X108850Y69850D01*
X109300Y70000D01*
X109750Y69950D01*
X110200Y69750D01*
G01X107350Y69500D02*
X107050Y69800D01*
X106700Y69950D01*
X106300Y70000D01*
X105800Y69900D01*
X105450Y69650D01*
X105350Y69350D01*
X105400Y69050D01*
X105600Y68800D01*
X106600Y68300D01*
X107050Y67950D01*
X107350Y67450D01*
X107450Y67000D01*
X105350D01*
G01X113600Y71000D02*
Y74000D01*
X112350D01*
X111950Y73850D01*
X111700Y73650D01*
X111600Y73250D01*
X111700Y72850D01*
X112000Y72600D01*
X112350Y72450D01*
X113600D01*
G01X112350D02*
X111600Y71000D01*
G01X110600Y71600D02*
X110300Y71250D01*
X109900Y71050D01*
X109450Y71000D01*
X109050Y71050D01*
X108650Y71300D01*
X108400Y71600D01*
X108350Y71900D01*
X108450Y72250D01*
X108800Y72500D01*
X109150Y72600D01*
X109600D01*
G01X109150D02*
X108850Y72750D01*
X108600Y73000D01*
X108500Y73300D01*
X108600Y73600D01*
X108850Y73850D01*
X109300Y74000D01*
X109750Y73950D01*
X110200Y73750D01*
G01X107500Y71600D02*
X107200Y71250D01*
X106800Y71050D01*
X106350Y71000D01*
X105950Y71050D01*
X105550Y71300D01*
X105300Y71600D01*
X105250Y71900D01*
X105350Y72250D01*
X105700Y72500D01*
X106050Y72600D01*
X106500D01*
G01X106050D02*
X105750Y72750D01*
X105500Y73000D01*
X105400Y73300D01*
X105500Y73600D01*
X105750Y73850D01*
X106200Y74000D01*
X106650Y73950D01*
X107100Y73750D01*
G01X88547Y60158D02*
X91547D01*
Y61408D01*
X91397Y61808D01*
X91197Y62058D01*
X90797Y62158D01*
X90397Y62058D01*
X90147Y61758D01*
X89997Y61408D01*
Y60158D01*
G01Y61408D02*
X88547Y62158D01*
G01X89797Y63308D02*
X90147Y63658D01*
X90347Y63958D01*
X90447Y64358D01*
X90347Y64708D01*
X90147Y64958D01*
X89847Y65158D01*
X89497Y65208D01*
X89197Y65158D01*
X88897Y64958D01*
X88647Y64658D01*
X88547Y64308D01*
X88647Y63908D01*
X88947Y63558D01*
X89397Y63358D01*
X89897Y63308D01*
X90547Y63408D01*
X90897Y63558D01*
X91247Y63808D01*
X91497Y64158D01*
X91547Y64508D01*
X91447Y64858D01*
X91197Y65108D01*
G01X88547Y67258D02*
X89197Y67358D01*
X89747Y67508D01*
X90247Y67708D01*
X90797Y67958D01*
X91547Y68358D01*
Y66358D01*
G01X93047Y60158D02*
X96047D01*
Y61408D01*
X95897Y61808D01*
X95697Y62058D01*
X95297Y62158D01*
X94897Y62058D01*
X94647Y61758D01*
X94497Y61408D01*
Y60158D01*
G01Y61408D02*
X93047Y62158D01*
G01X94297Y63308D02*
X94647Y63658D01*
X94847Y63958D01*
X94947Y64358D01*
X94847Y64708D01*
X94647Y64958D01*
X94347Y65158D01*
X93997Y65208D01*
X93697Y65158D01*
X93397Y64958D01*
X93147Y64658D01*
X93047Y64308D01*
X93147Y63908D01*
X93447Y63558D01*
X93897Y63358D01*
X94397Y63308D01*
X95047Y63408D01*
X95397Y63558D01*
X95747Y63808D01*
X95997Y64158D01*
X96047Y64508D01*
X95947Y64858D01*
X95697Y65108D01*
G01X93047Y67358D02*
X93097Y67708D01*
X93247Y68108D01*
X93497Y68358D01*
X93847Y68458D01*
X94197Y68358D01*
X94497Y68058D01*
X94647Y67608D01*
Y67108D01*
X94747Y66808D01*
X94997Y66558D01*
X95347Y66458D01*
X95697Y66608D01*
X95947Y66958D01*
X96047Y67358D01*
X95947Y67758D01*
X95697Y68108D01*
X95347Y68258D01*
X94997Y68158D01*
X94747Y67908D01*
X94647Y67608D01*
Y67108D01*
X94497Y66658D01*
X94197Y66358D01*
X93847Y66258D01*
X93497Y66358D01*
X93247Y66608D01*
X93097Y67008D01*
X93047Y67358D01*
G01X84547Y60158D02*
X87547D01*
Y61408D01*
X87397Y61808D01*
X87197Y62058D01*
X86797Y62158D01*
X86397Y62058D01*
X86147Y61758D01*
X85997Y61408D01*
Y60158D01*
G01Y61408D02*
X84547Y62158D01*
G01Y64158D02*
X85197Y64258D01*
X85747Y64408D01*
X86247Y64608D01*
X86797Y64858D01*
X87547Y65258D01*
Y63258D01*
G01X84547Y67358D02*
X87547D01*
X86947Y66758D01*
G01X84547D02*
Y67958D01*
G01X104100Y50000D02*
Y53000D01*
X102850D01*
X102450Y52850D01*
X102200Y52650D01*
X102100Y52250D01*
X102200Y51850D01*
X102500Y51600D01*
X102850Y51450D01*
X104100D01*
G01X102850D02*
X102100Y50000D01*
G01X100100D02*
X100000Y50650D01*
X99850Y51200D01*
X99650Y51700D01*
X99400Y52250D01*
X99000Y53000D01*
X101000D01*
G01X97850Y52500D02*
X97550Y52800D01*
X97200Y52950D01*
X96800Y53000D01*
X96300Y52900D01*
X95950Y52650D01*
X95850Y52350D01*
X95900Y52050D01*
X96100Y51800D01*
X97100Y51300D01*
X97550Y50950D01*
X97850Y50450D01*
X97950Y50000D01*
X95850D01*
G01X121600Y100000D02*
Y103000D01*
X120350D01*
X119950Y102850D01*
X119700Y102650D01*
X119600Y102250D01*
X119700Y101850D01*
X120000Y101600D01*
X120350Y101450D01*
X121600D01*
G01X120350D02*
X119600Y100000D01*
G01X117500D02*
Y103000D01*
X118100Y102400D01*
G01Y100000D02*
X116900D01*
G01X115350Y101250D02*
X115000Y101600D01*
X114700Y101800D01*
X114300Y101900D01*
X113950Y101800D01*
X113700Y101600D01*
X113500Y101300D01*
X113450Y100950D01*
X113500Y100650D01*
X113700Y100350D01*
X114000Y100100D01*
X114350Y100000D01*
X114750Y100100D01*
X115100Y100400D01*
X115300Y100850D01*
X115350Y101350D01*
X115250Y102000D01*
X115100Y102350D01*
X114850Y102700D01*
X114500Y102950D01*
X114150Y103000D01*
X113800Y102900D01*
X113550Y102650D01*
G01X121600Y94000D02*
Y97000D01*
X120350D01*
X119950Y96850D01*
X119700Y96650D01*
X119600Y96250D01*
X119700Y95850D01*
X120000Y95600D01*
X120350Y95450D01*
X121600D01*
G01X120350D02*
X119600Y94000D01*
G01X117500D02*
Y97000D01*
X118100Y96400D01*
G01Y94000D02*
X116900D01*
G01X115500Y94450D02*
X115200Y94200D01*
X114850Y94050D01*
X114400Y94000D01*
X113950Y94100D01*
X113600Y94300D01*
X113350Y94650D01*
X113300Y95050D01*
X113400Y95450D01*
X113650Y95700D01*
X114000Y95900D01*
X114350Y95950D01*
X114700Y95900D01*
X115150Y95700D01*
X115000Y97000D01*
X113650D01*
G01X118650Y146000D02*
Y143850D01*
X118450Y143400D01*
X118050Y143100D01*
X117550Y143000D01*
X117050Y143100D01*
X116650Y143400D01*
X116450Y143850D01*
Y146000D01*
G01X114550Y143000D02*
X114450Y143650D01*
X114300Y144200D01*
X114100Y144700D01*
X113850Y145250D01*
X113450Y146000D01*
X115450D01*
G01X122000Y161750D02*
X122300Y161900D01*
X122650Y162000D01*
X123050D01*
X123500Y161850D01*
X123850Y161600D01*
X124100Y161300D01*
X124300Y160800D01*
X124350Y160350D01*
X124250Y159900D01*
X124100Y159600D01*
X123800Y159300D01*
X123450Y159100D01*
X123100Y159000D01*
X122750D01*
X122400Y159100D01*
X122100Y159250D01*
X121850Y159450D01*
G01X119400Y159000D02*
Y162000D01*
X121250Y159850D01*
X118750D01*
G01X116300Y159000D02*
Y162000D01*
X118150Y159850D01*
X115650D01*
G01X133000Y161750D02*
X133300Y161900D01*
X133650Y162000D01*
X134050D01*
X134500Y161850D01*
X134850Y161600D01*
X135100Y161300D01*
X135300Y160800D01*
X135350Y160350D01*
X135250Y159900D01*
X135100Y159600D01*
X134800Y159300D01*
X134450Y159100D01*
X134100Y159000D01*
X133750D01*
X133400Y159100D01*
X133100Y159250D01*
X132850Y159450D01*
G01X130400Y159000D02*
Y162000D01*
X132250Y159850D01*
X129750D01*
G01X129000Y159600D02*
X128700Y159250D01*
X128300Y159050D01*
X127850Y159000D01*
X127450Y159050D01*
X127050Y159300D01*
X126800Y159600D01*
X126750Y159900D01*
X126850Y160250D01*
X127200Y160500D01*
X127550Y160600D01*
X128000D01*
G01X127550D02*
X127250Y160750D01*
X127000Y161000D01*
X126900Y161300D01*
X127000Y161600D01*
X127250Y161850D01*
X127700Y162000D01*
X128150Y161950D01*
X128600Y161750D01*
G01X122750Y120000D02*
X122900Y119700D01*
X123000Y119350D01*
Y118950D01*
X122850Y118500D01*
X122600Y118150D01*
X122300Y117900D01*
X121800Y117700D01*
X121350Y117650D01*
X120900Y117750D01*
X120600Y117900D01*
X120300Y118200D01*
X120100Y118550D01*
X120000Y118900D01*
Y119250D01*
X120100Y119600D01*
X120250Y119900D01*
X120450Y120150D01*
G01X120000Y122600D02*
X123000D01*
X120850Y120750D01*
Y123250D01*
G01X120000Y125100D02*
X123000D01*
X122400Y124500D01*
G01X120000D02*
Y125700D01*
G01X135750Y119500D02*
X135900Y119200D01*
X136000Y118850D01*
Y118450D01*
X135850Y118000D01*
X135600Y117650D01*
X135300Y117400D01*
X134800Y117200D01*
X134350Y117150D01*
X133900Y117250D01*
X133600Y117400D01*
X133300Y117700D01*
X133100Y118050D01*
X133000Y118400D01*
Y118750D01*
X133100Y119100D01*
X133250Y119400D01*
X133450Y119650D01*
G01X133000Y122100D02*
X136000D01*
X133850Y120250D01*
Y122750D01*
G01X135500Y123650D02*
X135800Y123950D01*
X135950Y124300D01*
X136000Y124700D01*
X135900Y125200D01*
X135650Y125550D01*
X135350Y125650D01*
X135050Y125600D01*
X134800Y125400D01*
X134300Y124400D01*
X133950Y123950D01*
X133450Y123650D01*
X133000Y123550D01*
Y125650D01*
G01X95028Y119532D02*
X98028D01*
Y120532D01*
X97878Y120932D01*
X97678Y121232D01*
X97378Y121482D01*
X97028Y121682D01*
X96528Y121732D01*
X96028Y121682D01*
X95678Y121482D01*
X95378Y121232D01*
X95178Y120932D01*
X95028Y120532D01*
Y119532D01*
G01Y123732D02*
X98028D01*
X97428Y123132D01*
G01X95028D02*
Y124332D01*
G01X124200Y163500D02*
Y166500D01*
X123200D01*
X122800Y166350D01*
X122500Y166150D01*
X122250Y165850D01*
X122050Y165500D01*
X122000Y165000D01*
X122050Y164500D01*
X122250Y164150D01*
X122500Y163850D01*
X122800Y163650D01*
X123200Y163500D01*
X124200D01*
G01X120000D02*
Y166500D01*
X120600Y165900D01*
G01Y163500D02*
X119400D01*
G01X118000Y164100D02*
X117700Y163750D01*
X117300Y163550D01*
X116850Y163500D01*
X116450Y163550D01*
X116050Y163800D01*
X115800Y164100D01*
X115750Y164400D01*
X115850Y164750D01*
X116200Y165000D01*
X116550Y165100D01*
X117000D01*
G01X116550D02*
X116250Y165250D01*
X116000Y165500D01*
X115900Y165800D01*
X116000Y166100D01*
X116250Y166350D01*
X116700Y166500D01*
X117150Y166450D01*
X117600Y166250D01*
G01X135200Y163500D02*
Y166500D01*
X134200D01*
X133800Y166350D01*
X133500Y166150D01*
X133250Y165850D01*
X133050Y165500D01*
X133000Y165000D01*
X133050Y164500D01*
X133250Y164150D01*
X133500Y163850D01*
X133800Y163650D01*
X134200Y163500D01*
X135200D01*
G01X131000D02*
Y166500D01*
X131600Y165900D01*
G01Y163500D02*
X130400D01*
G01X127300D02*
Y166500D01*
X129150Y164350D01*
X126650D01*
G01X89250Y121500D02*
X89400Y121200D01*
X89500Y120850D01*
Y120450D01*
X89350Y120000D01*
X89100Y119650D01*
X88800Y119400D01*
X88300Y119200D01*
X87850Y119150D01*
X87400Y119250D01*
X87100Y119400D01*
X86800Y119700D01*
X86600Y120050D01*
X86500Y120400D01*
Y120750D01*
X86600Y121100D01*
X86750Y121400D01*
X86950Y121650D01*
G01X86500Y123500D02*
X89500D01*
X88900Y122900D01*
G01X86500D02*
Y124100D01*
G01X87750Y125650D02*
X88100Y126000D01*
X88300Y126300D01*
X88400Y126700D01*
X88300Y127050D01*
X88100Y127300D01*
X87800Y127500D01*
X87450Y127550D01*
X87150Y127500D01*
X86850Y127300D01*
X86600Y127000D01*
X86500Y126650D01*
X86600Y126250D01*
X86900Y125900D01*
X87350Y125700D01*
X87850Y125650D01*
X88500Y125750D01*
X88850Y125900D01*
X89200Y126150D01*
X89450Y126500D01*
X89500Y126850D01*
X89400Y127200D01*
X89150Y127450D01*
G01X111750Y134500D02*
X111900Y134200D01*
X112000Y133850D01*
Y133450D01*
X111850Y133000D01*
X111600Y132650D01*
X111300Y132400D01*
X110800Y132200D01*
X110350Y132150D01*
X109900Y132250D01*
X109600Y132400D01*
X109300Y132700D01*
X109100Y133050D01*
X109000Y133400D01*
Y133750D01*
X109100Y134100D01*
X109250Y134400D01*
X109450Y134650D01*
G01X109000Y137100D02*
X112000D01*
X109850Y135250D01*
Y137750D01*
G01X109450Y138500D02*
X109200Y138800D01*
X109050Y139150D01*
X109000Y139600D01*
X109100Y140050D01*
X109300Y140400D01*
X109650Y140650D01*
X110050Y140700D01*
X110450Y140600D01*
X110700Y140350D01*
X110900Y140000D01*
X110950Y139650D01*
X110900Y139300D01*
X110700Y138850D01*
X112000Y139000D01*
Y140350D01*
G01X113500Y132950D02*
X116500D01*
Y134850D01*
G01X115050Y134150D02*
Y132950D01*
G01X115100Y137400D02*
X115250Y137600D01*
X115500Y137750D01*
X115850Y137850D01*
X116150Y137750D01*
X116350Y137550D01*
X116500Y137200D01*
Y135850D01*
X113500D01*
Y137500D01*
X113700Y137850D01*
X114000Y138050D01*
X114350Y138150D01*
X114700Y138050D01*
X115000Y137750D01*
X115100Y137400D01*
Y135850D01*
G01X116000Y139150D02*
X116300Y139450D01*
X116450Y139800D01*
X116500Y140200D01*
X116400Y140700D01*
X116150Y141050D01*
X115850Y141150D01*
X115550Y141100D01*
X115300Y140900D01*
X114800Y139900D01*
X114450Y139450D01*
X113950Y139150D01*
X113500Y139050D01*
Y141150D01*
G01X132500Y128400D02*
X135500D01*
Y129650D01*
X135350Y130050D01*
X135150Y130300D01*
X134750Y130400D01*
X134350Y130300D01*
X134100Y130000D01*
X133950Y129650D01*
Y128400D01*
G01Y129650D02*
X132500Y130400D01*
G01X132950Y131400D02*
X132700Y131700D01*
X132550Y132050D01*
X132500Y132500D01*
X132600Y132950D01*
X132800Y133300D01*
X133150Y133550D01*
X133550Y133600D01*
X133950Y133500D01*
X134200Y133250D01*
X134400Y132900D01*
X134450Y132550D01*
X134400Y132200D01*
X134200Y131750D01*
X135500Y131900D01*
Y133250D01*
G01X133750Y134650D02*
X134100Y135000D01*
X134300Y135300D01*
X134400Y135700D01*
X134300Y136050D01*
X134100Y136300D01*
X133800Y136500D01*
X133450Y136550D01*
X133150Y136500D01*
X132850Y136300D01*
X132600Y136000D01*
X132500Y135650D01*
X132600Y135250D01*
X132900Y134900D01*
X133350Y134700D01*
X133850Y134650D01*
X134500Y134750D01*
X134850Y134900D01*
X135200Y135150D01*
X135450Y135500D01*
X135500Y135850D01*
X135400Y136200D01*
X135150Y136450D01*
G01X107500Y159450D02*
X110500D01*
Y160700D01*
X110350Y161100D01*
X110150Y161350D01*
X109750Y161450D01*
X109350Y161350D01*
X109100Y161050D01*
X108950Y160700D01*
Y159450D01*
G01Y160700D02*
X107500Y161450D01*
G01X107850Y162700D02*
X107600Y163050D01*
X107500Y163450D01*
X107600Y163850D01*
X107900Y164200D01*
X108350Y164450D01*
X108800Y164550D01*
X109350D01*
X109800Y164450D01*
X110200Y164200D01*
X110400Y163900D01*
X110500Y163550D01*
X110400Y163150D01*
X110200Y162850D01*
X109900Y162650D01*
X109500Y162550D01*
X109150Y162650D01*
X108800Y162900D01*
X108600Y163200D01*
X108550Y163550D01*
X108650Y163950D01*
X108900Y164250D01*
X109350Y164550D01*
G01X119500Y128400D02*
X122500D01*
Y129650D01*
X122350Y130050D01*
X122150Y130300D01*
X121750Y130400D01*
X121350Y130300D01*
X121100Y130000D01*
X120950Y129650D01*
Y128400D01*
G01Y129650D02*
X119500Y130400D01*
G01X119950Y131400D02*
X119700Y131700D01*
X119550Y132050D01*
X119500Y132500D01*
X119600Y132950D01*
X119800Y133300D01*
X120150Y133550D01*
X120550Y133600D01*
X120950Y133500D01*
X121200Y133250D01*
X121400Y132900D01*
X121450Y132550D01*
X121400Y132200D01*
X121200Y131750D01*
X122500Y131900D01*
Y133250D01*
G01X119950Y134500D02*
X119700Y134800D01*
X119550Y135150D01*
X119500Y135600D01*
X119600Y136050D01*
X119800Y136400D01*
X120150Y136650D01*
X120550Y136700D01*
X120950Y136600D01*
X121200Y136350D01*
X121400Y136000D01*
X121450Y135650D01*
X121400Y135300D01*
X121200Y134850D01*
X122500Y135000D01*
Y136350D01*
G01X82000Y118900D02*
X85000D01*
Y120150D01*
X84850Y120550D01*
X84650Y120800D01*
X84250Y120900D01*
X83850Y120800D01*
X83600Y120500D01*
X83450Y120150D01*
Y118900D01*
G01Y120150D02*
X82000Y120900D01*
G01Y123000D02*
X85000D01*
X84400Y122400D01*
G01X82000D02*
Y123600D01*
G01X84500Y125150D02*
X84800Y125450D01*
X84950Y125800D01*
X85000Y126200D01*
X84900Y126700D01*
X84650Y127050D01*
X84350Y127150D01*
X84050Y127100D01*
X83800Y126900D01*
X83300Y125900D01*
X82950Y125450D01*
X82450Y125150D01*
X82000Y125050D01*
Y127150D01*
G01X90500Y119450D02*
X93500D01*
Y120700D01*
X93350Y121100D01*
X93150Y121350D01*
X92750Y121450D01*
X92350Y121350D01*
X92100Y121050D01*
X91950Y120700D01*
Y119450D01*
G01Y120700D02*
X90500Y121450D01*
G01Y124150D02*
X93500D01*
X91350Y122300D01*
Y124800D01*
G01X192000Y5750D02*
X192300Y5900D01*
X192650Y6000D01*
X193050D01*
X193500Y5850D01*
X193850Y5600D01*
X194100Y5300D01*
X194300Y4800D01*
X194350Y4350D01*
X194250Y3900D01*
X194100Y3600D01*
X193800Y3300D01*
X193450Y3100D01*
X193100Y3000D01*
X192750D01*
X192400Y3100D01*
X192100Y3250D01*
X191850Y3450D01*
G01X189400Y3000D02*
Y6000D01*
X191250Y3850D01*
X188750D01*
G01X187850Y4250D02*
X187500Y4600D01*
X187200Y4800D01*
X186800Y4900D01*
X186450Y4800D01*
X186200Y4600D01*
X186000Y4300D01*
X185950Y3950D01*
X186000Y3650D01*
X186200Y3350D01*
X186500Y3100D01*
X186850Y3000D01*
X187250Y3100D01*
X187600Y3400D01*
X187800Y3850D01*
X187850Y4350D01*
X187750Y5000D01*
X187600Y5350D01*
X187350Y5700D01*
X187000Y5950D01*
X186650Y6000D01*
X186300Y5900D01*
X186050Y5650D01*
G01X213000Y5250D02*
X213300Y5400D01*
X213650Y5500D01*
X214050D01*
X214500Y5350D01*
X214850Y5100D01*
X215100Y4800D01*
X215300Y4300D01*
X215350Y3850D01*
X215250Y3400D01*
X215100Y3100D01*
X214800Y2800D01*
X214450Y2600D01*
X214100Y2500D01*
X213750D01*
X213400Y2600D01*
X213100Y2750D01*
X212850Y2950D01*
G01X210400Y2500D02*
Y5500D01*
X212250Y3350D01*
X209750D01*
G01X208000Y2500D02*
X207900Y3150D01*
X207750Y3700D01*
X207550Y4200D01*
X207300Y4750D01*
X206900Y5500D01*
X208900D01*
G01X200000Y37250D02*
X200300Y37400D01*
X200650Y37500D01*
X201050D01*
X201500Y37350D01*
X201850Y37100D01*
X202100Y36800D01*
X202300Y36300D01*
X202350Y35850D01*
X202250Y35400D01*
X202100Y35100D01*
X201800Y34800D01*
X201450Y34600D01*
X201100Y34500D01*
X200750D01*
X200400Y34600D01*
X200100Y34750D01*
X199850Y34950D01*
G01X198950Y37000D02*
X198650Y37300D01*
X198300Y37450D01*
X197900Y37500D01*
X197400Y37400D01*
X197050Y37150D01*
X196950Y36850D01*
X197000Y36550D01*
X197200Y36300D01*
X198200Y35800D01*
X198650Y35450D01*
X198950Y34950D01*
X199050Y34500D01*
X196950D01*
G01X195850Y35750D02*
X195500Y36100D01*
X195200Y36300D01*
X194800Y36400D01*
X194450Y36300D01*
X194200Y36100D01*
X194000Y35800D01*
X193950Y35450D01*
X194000Y35150D01*
X194200Y34850D01*
X194500Y34600D01*
X194850Y34500D01*
X195250Y34600D01*
X195600Y34900D01*
X195800Y35350D01*
X195850Y35850D01*
X195750Y36500D01*
X195600Y36850D01*
X195350Y37200D01*
X195000Y37450D01*
X194650Y37500D01*
X194300Y37400D01*
X194050Y37150D01*
G01X161000Y17250D02*
X161300Y17400D01*
X161650Y17500D01*
X162050D01*
X162500Y17350D01*
X162850Y17100D01*
X163100Y16800D01*
X163300Y16300D01*
X163350Y15850D01*
X163250Y15400D01*
X163100Y15100D01*
X162800Y14800D01*
X162450Y14600D01*
X162100Y14500D01*
X161750D01*
X161400Y14600D01*
X161100Y14750D01*
X160850Y14950D01*
G01X160100Y15100D02*
X159800Y14750D01*
X159400Y14550D01*
X158950Y14500D01*
X158550Y14550D01*
X158150Y14800D01*
X157900Y15100D01*
X157850Y15400D01*
X157950Y15750D01*
X158300Y16000D01*
X158650Y16100D01*
X159100D01*
G01X158650D02*
X158350Y16250D01*
X158100Y16500D01*
X158000Y16800D01*
X158100Y17100D01*
X158350Y17350D01*
X158800Y17500D01*
X159250Y17450D01*
X159700Y17250D01*
G01X155900Y17500D02*
X156300Y17400D01*
X156600Y17150D01*
X156800Y16850D01*
X156950Y16450D01*
X157000Y16000D01*
X156950Y15550D01*
X156800Y15150D01*
X156600Y14850D01*
X156300Y14600D01*
X155900Y14500D01*
X155500Y14600D01*
X155200Y14850D01*
X155000Y15150D01*
X154850Y15550D01*
X154800Y16000D01*
X154850Y16450D01*
X155000Y16850D01*
X155200Y17150D01*
X155500Y17400D01*
X155900Y17500D01*
G01X171500Y22250D02*
X171800Y22400D01*
X172150Y22500D01*
X172550D01*
X173000Y22350D01*
X173350Y22100D01*
X173600Y21800D01*
X173800Y21300D01*
X173850Y20850D01*
X173750Y20400D01*
X173600Y20100D01*
X173300Y19800D01*
X172950Y19600D01*
X172600Y19500D01*
X172250D01*
X171900Y19600D01*
X171600Y19750D01*
X171350Y19950D01*
G01X170450Y22000D02*
X170150Y22300D01*
X169800Y22450D01*
X169400Y22500D01*
X168900Y22400D01*
X168550Y22150D01*
X168450Y21850D01*
X168500Y21550D01*
X168700Y21300D01*
X169700Y20800D01*
X170150Y20450D01*
X170450Y19950D01*
X170550Y19500D01*
X168450D01*
G01X167250Y19850D02*
X166900Y19600D01*
X166500Y19500D01*
X166100Y19600D01*
X165750Y19900D01*
X165500Y20350D01*
X165400Y20800D01*
Y21350D01*
X165500Y21800D01*
X165750Y22200D01*
X166050Y22400D01*
X166400Y22500D01*
X166800Y22400D01*
X167100Y22200D01*
X167300Y21900D01*
X167400Y21500D01*
X167300Y21150D01*
X167050Y20800D01*
X166750Y20600D01*
X166400Y20550D01*
X166000Y20650D01*
X165700Y20900D01*
X165400Y21350D01*
G01X177500Y36750D02*
X177800Y36900D01*
X178150Y37000D01*
X178550D01*
X179000Y36850D01*
X179350Y36600D01*
X179600Y36300D01*
X179800Y35800D01*
X179850Y35350D01*
X179750Y34900D01*
X179600Y34600D01*
X179300Y34300D01*
X178950Y34100D01*
X178600Y34000D01*
X178250D01*
X177900Y34100D01*
X177600Y34250D01*
X177350Y34450D01*
G01X176450Y36500D02*
X176150Y36800D01*
X175800Y36950D01*
X175400Y37000D01*
X174900Y36900D01*
X174550Y36650D01*
X174450Y36350D01*
X174500Y36050D01*
X174700Y35800D01*
X175700Y35300D01*
X176150Y34950D01*
X176450Y34450D01*
X176550Y34000D01*
X174450D01*
G01X173500Y34600D02*
X173200Y34250D01*
X172800Y34050D01*
X172350Y34000D01*
X171950Y34050D01*
X171550Y34300D01*
X171300Y34600D01*
X171250Y34900D01*
X171350Y35250D01*
X171700Y35500D01*
X172050Y35600D01*
X172500D01*
G01X172050D02*
X171750Y35750D01*
X171500Y36000D01*
X171400Y36300D01*
X171500Y36600D01*
X171750Y36850D01*
X172200Y37000D01*
X172650Y36950D01*
X173100Y36750D01*
G01X199500Y41250D02*
X199800Y41400D01*
X200150Y41500D01*
X200550D01*
X201000Y41350D01*
X201350Y41100D01*
X201600Y40800D01*
X201800Y40300D01*
X201850Y39850D01*
X201750Y39400D01*
X201600Y39100D01*
X201300Y38800D01*
X200950Y38600D01*
X200600Y38500D01*
X200250D01*
X199900Y38600D01*
X199600Y38750D01*
X199350Y38950D01*
G01X198450Y41000D02*
X198150Y41300D01*
X197800Y41450D01*
X197400Y41500D01*
X196900Y41400D01*
X196550Y41150D01*
X196450Y40850D01*
X196500Y40550D01*
X196700Y40300D01*
X197700Y39800D01*
X198150Y39450D01*
X198450Y38950D01*
X198550Y38500D01*
X196450D01*
G01X193800D02*
Y41500D01*
X195650Y39350D01*
X193150D01*
G01X208500Y24750D02*
X208800Y24900D01*
X209150Y25000D01*
X209550D01*
X210000Y24850D01*
X210350Y24600D01*
X210600Y24300D01*
X210800Y23800D01*
X210850Y23350D01*
X210750Y22900D01*
X210600Y22600D01*
X210300Y22300D01*
X209950Y22100D01*
X209600Y22000D01*
X209250D01*
X208900Y22100D01*
X208600Y22250D01*
X208350Y22450D01*
G01X207450Y24500D02*
X207150Y24800D01*
X206800Y24950D01*
X206400Y25000D01*
X205900Y24900D01*
X205550Y24650D01*
X205450Y24350D01*
X205500Y24050D01*
X205700Y23800D01*
X206700Y23300D01*
X207150Y22950D01*
X207450Y22450D01*
X207550Y22000D01*
X205450D01*
G01X204350Y24500D02*
X204050Y24800D01*
X203700Y24950D01*
X203300Y25000D01*
X202800Y24900D01*
X202450Y24650D01*
X202350Y24350D01*
X202400Y24050D01*
X202600Y23800D01*
X203600Y23300D01*
X204050Y22950D01*
X204350Y22450D01*
X204450Y22000D01*
X202350D01*
G01X189600Y34000D02*
Y37000D01*
X188350D01*
X187950Y36850D01*
X187700Y36650D01*
X187600Y36250D01*
X187700Y35850D01*
X188000Y35600D01*
X188350Y35450D01*
X189600D01*
G01X188350D02*
X187600Y34000D01*
G01X185500D02*
Y37000D01*
X186100Y36400D01*
G01Y34000D02*
X184900D01*
G01X182400D02*
X182050Y34050D01*
X181650Y34200D01*
X181400Y34450D01*
X181300Y34800D01*
X181400Y35150D01*
X181700Y35450D01*
X182150Y35600D01*
X182650D01*
X182950Y35700D01*
X183200Y35950D01*
X183300Y36300D01*
X183150Y36650D01*
X182800Y36900D01*
X182400Y37000D01*
X182000Y36900D01*
X181650Y36650D01*
X181500Y36300D01*
X181600Y35950D01*
X181850Y35700D01*
X182150Y35600D01*
X182650D01*
X183100Y35450D01*
X183400Y35150D01*
X183500Y34800D01*
X183400Y34450D01*
X183150Y34200D01*
X182750Y34050D01*
X182400Y34000D01*
G01X219100Y19000D02*
Y22000D01*
X217850D01*
X217450Y21850D01*
X217200Y21650D01*
X217100Y21250D01*
X217200Y20850D01*
X217500Y20600D01*
X217850Y20450D01*
X219100D01*
G01X217850D02*
X217100Y19000D01*
G01X215950Y21500D02*
X215650Y21800D01*
X215300Y21950D01*
X214900Y22000D01*
X214400Y21900D01*
X214050Y21650D01*
X213950Y21350D01*
X214000Y21050D01*
X214200Y20800D01*
X215200Y20300D01*
X215650Y19950D01*
X215950Y19450D01*
X216050Y19000D01*
X213950D01*
G01X211900D02*
Y22000D01*
X212500Y21400D01*
G01Y19000D02*
X211300D01*
G01X194100Y25000D02*
Y28000D01*
X192850D01*
X192450Y27850D01*
X192200Y27650D01*
X192100Y27250D01*
X192200Y26850D01*
X192500Y26600D01*
X192850Y26450D01*
X194100D01*
G01X192850D02*
X192100Y25000D01*
G01X191100Y25450D02*
X190800Y25200D01*
X190450Y25050D01*
X190000Y25000D01*
X189550Y25100D01*
X189200Y25300D01*
X188950Y25650D01*
X188900Y26050D01*
X189000Y26450D01*
X189250Y26700D01*
X189600Y26900D01*
X189950Y26950D01*
X190300Y26900D01*
X190750Y26700D01*
X190600Y28000D01*
X189250D01*
G01X186900Y25000D02*
X186550Y25050D01*
X186150Y25200D01*
X185900Y25450D01*
X185800Y25800D01*
X185900Y26150D01*
X186200Y26450D01*
X186650Y26600D01*
X187150D01*
X187450Y26700D01*
X187700Y26950D01*
X187800Y27300D01*
X187650Y27650D01*
X187300Y27900D01*
X186900Y28000D01*
X186500Y27900D01*
X186150Y27650D01*
X186000Y27300D01*
X186100Y26950D01*
X186350Y26700D01*
X186650Y26600D01*
X187150D01*
X187600Y26450D01*
X187900Y26150D01*
X188000Y25800D01*
X187900Y25450D01*
X187650Y25200D01*
X187250Y25050D01*
X186900Y25000D01*
G01X173600Y24000D02*
Y27000D01*
X172350D01*
X171950Y26850D01*
X171700Y26650D01*
X171600Y26250D01*
X171700Y25850D01*
X172000Y25600D01*
X172350Y25450D01*
X173600D01*
G01X172350D02*
X171600Y24000D01*
G01X170600Y24600D02*
X170300Y24250D01*
X169900Y24050D01*
X169450Y24000D01*
X169050Y24050D01*
X168650Y24300D01*
X168400Y24600D01*
X168350Y24900D01*
X168450Y25250D01*
X168800Y25500D01*
X169150Y25600D01*
X169600D01*
G01X169150D02*
X168850Y25750D01*
X168600Y26000D01*
X168500Y26300D01*
X168600Y26600D01*
X168850Y26850D01*
X169300Y27000D01*
X169750Y26950D01*
X170200Y26750D01*
G01X167500Y24450D02*
X167200Y24200D01*
X166850Y24050D01*
X166400Y24000D01*
X165950Y24100D01*
X165600Y24300D01*
X165350Y24650D01*
X165300Y25050D01*
X165400Y25450D01*
X165650Y25700D01*
X166000Y25900D01*
X166350Y25950D01*
X166700Y25900D01*
X167150Y25700D01*
X167000Y27000D01*
X165650D01*
G01X204600Y2500D02*
Y5500D01*
X203350D01*
X202950Y5350D01*
X202700Y5150D01*
X202600Y4750D01*
X202700Y4350D01*
X203000Y4100D01*
X203350Y3950D01*
X204600D01*
G01X203350D02*
X202600Y2500D01*
G01X201600Y2950D02*
X201300Y2700D01*
X200950Y2550D01*
X200500Y2500D01*
X200050Y2600D01*
X199700Y2800D01*
X199450Y3150D01*
X199400Y3550D01*
X199500Y3950D01*
X199750Y4200D01*
X200100Y4400D01*
X200450Y4450D01*
X200800Y4400D01*
X201250Y4200D01*
X201100Y5500D01*
X199750D01*
G01X197500Y2500D02*
X197400Y3150D01*
X197250Y3700D01*
X197050Y4200D01*
X196800Y4750D01*
X196400Y5500D01*
X198400D01*
G01X204100Y16500D02*
Y19500D01*
X202850D01*
X202450Y19350D01*
X202200Y19150D01*
X202100Y18750D01*
X202200Y18350D01*
X202500Y18100D01*
X202850Y17950D01*
X204100D01*
G01X202850D02*
X202100Y16500D01*
G01X201100Y16950D02*
X200800Y16700D01*
X200450Y16550D01*
X200000Y16500D01*
X199550Y16600D01*
X199200Y16800D01*
X198950Y17150D01*
X198900Y17550D01*
X199000Y17950D01*
X199250Y18200D01*
X199600Y18400D01*
X199950Y18450D01*
X200300Y18400D01*
X200750Y18200D01*
X200600Y19500D01*
X199250D01*
G01X197750Y16850D02*
X197400Y16600D01*
X197000Y16500D01*
X196600Y16600D01*
X196250Y16900D01*
X196000Y17350D01*
X195900Y17800D01*
Y18350D01*
X196000Y18800D01*
X196250Y19200D01*
X196550Y19400D01*
X196900Y19500D01*
X197300Y19400D01*
X197600Y19200D01*
X197800Y18900D01*
X197900Y18500D01*
X197800Y18150D01*
X197550Y17800D01*
X197250Y17600D01*
X196900Y17550D01*
X196500Y17650D01*
X196200Y17900D01*
X195900Y18350D01*
G01X210150Y105500D02*
Y103350D01*
X209950Y102900D01*
X209550Y102600D01*
X209050Y102500D01*
X208550Y102600D01*
X208150Y102900D01*
X207950Y103350D01*
Y105500D01*
G01X206900Y103750D02*
X206550Y104100D01*
X206250Y104300D01*
X205850Y104400D01*
X205500Y104300D01*
X205250Y104100D01*
X205050Y103800D01*
X205000Y103450D01*
X205050Y103150D01*
X205250Y102850D01*
X205550Y102600D01*
X205900Y102500D01*
X206300Y102600D01*
X206650Y102900D01*
X206850Y103350D01*
X206900Y103850D01*
X206800Y104500D01*
X206650Y104850D01*
X206400Y105200D01*
X206050Y105450D01*
X205700Y105500D01*
X205350Y105400D01*
X205100Y105150D01*
G01X173750Y93000D02*
X173900Y92700D01*
X174000Y92350D01*
Y91950D01*
X173850Y91500D01*
X173600Y91150D01*
X173300Y90900D01*
X172800Y90700D01*
X172350Y90650D01*
X171900Y90750D01*
X171600Y90900D01*
X171300Y91200D01*
X171100Y91550D01*
X171000Y91900D01*
Y92250D01*
X171100Y92600D01*
X171250Y92900D01*
X171450Y93150D01*
G01X171000Y95000D02*
X174000D01*
X173400Y94400D01*
G01X171000D02*
Y95600D01*
G01X171350Y97250D02*
X171100Y97600D01*
X171000Y98000D01*
X171100Y98400D01*
X171400Y98750D01*
X171850Y99000D01*
X172300Y99100D01*
X172850D01*
X173300Y99000D01*
X173700Y98750D01*
X173900Y98450D01*
X174000Y98100D01*
X173900Y97700D01*
X173700Y97400D01*
X173400Y97200D01*
X173000Y97100D01*
X172650Y97200D01*
X172300Y97450D01*
X172100Y97750D01*
X172050Y98100D01*
X172150Y98500D01*
X172400Y98800D01*
X172850Y99100D01*
G01X162500Y113250D02*
X162800Y113400D01*
X163150Y113500D01*
X163550D01*
X164000Y113350D01*
X164350Y113100D01*
X164600Y112800D01*
X164800Y112300D01*
X164850Y111850D01*
X164750Y111400D01*
X164600Y111100D01*
X164300Y110800D01*
X163950Y110600D01*
X163600Y110500D01*
X163250D01*
X162900Y110600D01*
X162600Y110750D01*
X162350Y110950D01*
G01X161450Y113000D02*
X161150Y113300D01*
X160800Y113450D01*
X160400Y113500D01*
X159900Y113400D01*
X159550Y113150D01*
X159450Y112850D01*
X159500Y112550D01*
X159700Y112300D01*
X160700Y111800D01*
X161150Y111450D01*
X161450Y110950D01*
X161550Y110500D01*
X159450D01*
G01X157400Y113500D02*
X157800Y113400D01*
X158100Y113150D01*
X158300Y112850D01*
X158450Y112450D01*
X158500Y112000D01*
X158450Y111550D01*
X158300Y111150D01*
X158100Y110850D01*
X157800Y110600D01*
X157400Y110500D01*
X157000Y110600D01*
X156700Y110850D01*
X156500Y111150D01*
X156350Y111550D01*
X156300Y112000D01*
X156350Y112450D01*
X156500Y112850D01*
X156700Y113150D01*
X157000Y113400D01*
X157400Y113500D01*
G01X159000Y76250D02*
X159300Y76400D01*
X159650Y76500D01*
X160050D01*
X160500Y76350D01*
X160850Y76100D01*
X161100Y75800D01*
X161300Y75300D01*
X161350Y74850D01*
X161250Y74400D01*
X161100Y74100D01*
X160800Y73800D01*
X160450Y73600D01*
X160100Y73500D01*
X159750D01*
X159400Y73600D01*
X159100Y73750D01*
X158850Y73950D01*
G01X157950Y76000D02*
X157650Y76300D01*
X157300Y76450D01*
X156900Y76500D01*
X156400Y76400D01*
X156050Y76150D01*
X155950Y75850D01*
X156000Y75550D01*
X156200Y75300D01*
X157200Y74800D01*
X157650Y74450D01*
X157950Y73950D01*
X158050Y73500D01*
X155950D01*
G01X153900D02*
Y76500D01*
X154500Y75900D01*
G01Y73500D02*
X153300D01*
G01X213750Y79100D02*
X213900Y78800D01*
X214000Y78450D01*
Y78050D01*
X213850Y77600D01*
X213600Y77250D01*
X213300Y77000D01*
X212800Y76800D01*
X212350Y76750D01*
X211900Y76850D01*
X211600Y77000D01*
X211300Y77300D01*
X211100Y77650D01*
X211000Y78000D01*
Y78350D01*
X211100Y78700D01*
X211250Y79000D01*
X211450Y79250D01*
G01X211600Y80000D02*
X211250Y80300D01*
X211050Y80700D01*
X211000Y81150D01*
X211050Y81550D01*
X211300Y81950D01*
X211600Y82200D01*
X211900Y82250D01*
X212250Y82150D01*
X212500Y81800D01*
X212600Y81450D01*
Y81000D01*
G01Y81450D02*
X212750Y81750D01*
X213000Y82000D01*
X213300Y82100D01*
X213600Y82000D01*
X213850Y81750D01*
X214000Y81300D01*
X213950Y80850D01*
X213750Y80400D01*
G01X211600Y83100D02*
X211250Y83400D01*
X211050Y83800D01*
X211000Y84250D01*
X211050Y84650D01*
X211300Y85050D01*
X211600Y85300D01*
X211900Y85350D01*
X212250Y85250D01*
X212500Y84900D01*
X212600Y84550D01*
Y84100D01*
G01Y84550D02*
X212750Y84850D01*
X213000Y85100D01*
X213300Y85200D01*
X213600Y85100D01*
X213850Y84850D01*
X214000Y84400D01*
X213950Y83950D01*
X213750Y83500D01*
G01X224750Y63500D02*
X224900Y63200D01*
X225000Y62850D01*
Y62450D01*
X224850Y62000D01*
X224600Y61650D01*
X224300Y61400D01*
X223800Y61200D01*
X223350Y61150D01*
X222900Y61250D01*
X222600Y61400D01*
X222300Y61700D01*
X222100Y62050D01*
X222000Y62400D01*
Y62750D01*
X222100Y63100D01*
X222250Y63400D01*
X222450Y63650D01*
G01X222600Y64400D02*
X222250Y64700D01*
X222050Y65100D01*
X222000Y65550D01*
X222050Y65950D01*
X222300Y66350D01*
X222600Y66600D01*
X222900Y66650D01*
X223250Y66550D01*
X223500Y66200D01*
X223600Y65850D01*
Y65400D01*
G01Y65850D02*
X223750Y66150D01*
X224000Y66400D01*
X224300Y66500D01*
X224600Y66400D01*
X224850Y66150D01*
X225000Y65700D01*
X224950Y65250D01*
X224750Y64800D01*
G01X222000Y69200D02*
X225000D01*
X222850Y67350D01*
Y69850D01*
G01X216250Y89000D02*
X216400Y88700D01*
X216500Y88350D01*
Y87950D01*
X216350Y87500D01*
X216100Y87150D01*
X215800Y86900D01*
X215300Y86700D01*
X214850Y86650D01*
X214400Y86750D01*
X214100Y86900D01*
X213800Y87200D01*
X213600Y87550D01*
X213500Y87900D01*
Y88250D01*
X213600Y88600D01*
X213750Y88900D01*
X213950Y89150D01*
G01X214100Y89900D02*
X213750Y90200D01*
X213550Y90600D01*
X213500Y91050D01*
X213550Y91450D01*
X213800Y91850D01*
X214100Y92100D01*
X214400Y92150D01*
X214750Y92050D01*
X215000Y91700D01*
X215100Y91350D01*
Y90900D01*
G01Y91350D02*
X215250Y91650D01*
X215500Y91900D01*
X215800Y92000D01*
X216100Y91900D01*
X216350Y91650D01*
X216500Y91200D01*
X216450Y90750D01*
X216250Y90300D01*
G01X213500Y94100D02*
X213550Y94450D01*
X213700Y94850D01*
X213950Y95100D01*
X214300Y95200D01*
X214650Y95100D01*
X214950Y94800D01*
X215100Y94350D01*
Y93850D01*
X215200Y93550D01*
X215450Y93300D01*
X215800Y93200D01*
X216150Y93350D01*
X216400Y93700D01*
X216500Y94100D01*
X216400Y94500D01*
X216150Y94850D01*
X215800Y95000D01*
X215450Y94900D01*
X215200Y94650D01*
X215100Y94350D01*
Y93850D01*
X214950Y93400D01*
X214650Y93100D01*
X214300Y93000D01*
X213950Y93100D01*
X213700Y93350D01*
X213550Y93750D01*
X213500Y94100D01*
G01X216250Y99000D02*
X216400Y98700D01*
X216500Y98350D01*
Y97950D01*
X216350Y97500D01*
X216100Y97150D01*
X215800Y96900D01*
X215300Y96700D01*
X214850Y96650D01*
X214400Y96750D01*
X214100Y96900D01*
X213800Y97200D01*
X213600Y97550D01*
X213500Y97900D01*
Y98250D01*
X213600Y98600D01*
X213750Y98900D01*
X213950Y99150D01*
G01X214100Y99900D02*
X213750Y100200D01*
X213550Y100600D01*
X213500Y101050D01*
X213550Y101450D01*
X213800Y101850D01*
X214100Y102100D01*
X214400Y102150D01*
X214750Y102050D01*
X215000Y101700D01*
X215100Y101350D01*
Y100900D01*
G01Y101350D02*
X215250Y101650D01*
X215500Y101900D01*
X215800Y102000D01*
X216100Y101900D01*
X216350Y101650D01*
X216500Y101200D01*
X216450Y100750D01*
X216250Y100300D01*
G01X213850Y103250D02*
X213600Y103600D01*
X213500Y104000D01*
X213600Y104400D01*
X213900Y104750D01*
X214350Y105000D01*
X214800Y105100D01*
X215350D01*
X215800Y105000D01*
X216200Y104750D01*
X216400Y104450D01*
X216500Y104100D01*
X216400Y103700D01*
X216200Y103400D01*
X215900Y103200D01*
X215500Y103100D01*
X215150Y103200D01*
X214800Y103450D01*
X214600Y103750D01*
X214550Y104100D01*
X214650Y104500D01*
X214900Y104800D01*
X215350Y105100D01*
G01X186500Y106750D02*
X186800Y106900D01*
X187150Y107000D01*
X187550D01*
X188000Y106850D01*
X188350Y106600D01*
X188600Y106300D01*
X188800Y105800D01*
X188850Y105350D01*
X188750Y104900D01*
X188600Y104600D01*
X188300Y104300D01*
X187950Y104100D01*
X187600Y104000D01*
X187250D01*
X186900Y104100D01*
X186600Y104250D01*
X186350Y104450D01*
G01X185600Y104600D02*
X185300Y104250D01*
X184900Y104050D01*
X184450Y104000D01*
X184050Y104050D01*
X183650Y104300D01*
X183400Y104600D01*
X183350Y104900D01*
X183450Y105250D01*
X183800Y105500D01*
X184150Y105600D01*
X184600D01*
G01X184150D02*
X183850Y105750D01*
X183600Y106000D01*
X183500Y106300D01*
X183600Y106600D01*
X183850Y106850D01*
X184300Y107000D01*
X184750Y106950D01*
X185200Y106750D01*
G01X182350Y105250D02*
X182000Y105600D01*
X181700Y105800D01*
X181300Y105900D01*
X180950Y105800D01*
X180700Y105600D01*
X180500Y105300D01*
X180450Y104950D01*
X180500Y104650D01*
X180700Y104350D01*
X181000Y104100D01*
X181350Y104000D01*
X181750Y104100D01*
X182100Y104400D01*
X182300Y104850D01*
X182350Y105350D01*
X182250Y106000D01*
X182100Y106350D01*
X181850Y106700D01*
X181500Y106950D01*
X181150Y107000D01*
X180800Y106900D01*
X180550Y106650D01*
G01X187000Y100250D02*
X187300Y100400D01*
X187650Y100500D01*
X188050D01*
X188500Y100350D01*
X188850Y100100D01*
X189100Y99800D01*
X189300Y99300D01*
X189350Y98850D01*
X189250Y98400D01*
X189100Y98100D01*
X188800Y97800D01*
X188450Y97600D01*
X188100Y97500D01*
X187750D01*
X187400Y97600D01*
X187100Y97750D01*
X186850Y97950D01*
G01X186100Y98100D02*
X185800Y97750D01*
X185400Y97550D01*
X184950Y97500D01*
X184550Y97550D01*
X184150Y97800D01*
X183900Y98100D01*
X183850Y98400D01*
X183950Y98750D01*
X184300Y99000D01*
X184650Y99100D01*
X185100D01*
G01X184650D02*
X184350Y99250D01*
X184100Y99500D01*
X184000Y99800D01*
X184100Y100100D01*
X184350Y100350D01*
X184800Y100500D01*
X185250Y100450D01*
X185700Y100250D01*
G01X182000Y97500D02*
X181900Y98150D01*
X181750Y98700D01*
X181550Y99200D01*
X181300Y99750D01*
X180900Y100500D01*
X182900D01*
G01X185000Y44800D02*
X188000D01*
Y45800D01*
X187850Y46200D01*
X187650Y46500D01*
X187350Y46750D01*
X187000Y46950D01*
X186500Y47000D01*
X186000Y46950D01*
X185650Y46750D01*
X185350Y46500D01*
X185150Y46200D01*
X185000Y45800D01*
Y44800D01*
G01Y49000D02*
X188000D01*
X187400Y48400D01*
G01X185000D02*
Y49600D01*
G01X188000Y52100D02*
X187900Y51700D01*
X187650Y51400D01*
X187350Y51200D01*
X186950Y51050D01*
X186500Y51000D01*
X186050Y51050D01*
X185650Y51200D01*
X185350Y51400D01*
X185100Y51700D01*
X185000Y52100D01*
X185100Y52500D01*
X185350Y52800D01*
X185650Y53000D01*
X186050Y53150D01*
X186500Y53200D01*
X186950Y53150D01*
X187350Y53000D01*
X187650Y52800D01*
X187900Y52500D01*
X188000Y52100D01*
G01X217500Y96800D02*
X220500D01*
Y97800D01*
X220350Y98200D01*
X220150Y98500D01*
X219850Y98750D01*
X219500Y98950D01*
X219000Y99000D01*
X218500Y98950D01*
X218150Y98750D01*
X217850Y98500D01*
X217650Y98200D01*
X217500Y97800D01*
Y96800D01*
G01Y101000D02*
X220500D01*
X219900Y100400D01*
G01X217500D02*
Y101600D01*
G01Y104100D02*
X220500D01*
X219900Y103500D01*
G01X217500D02*
Y104700D01*
G01X218000Y86800D02*
X221000D01*
Y87800D01*
X220850Y88200D01*
X220650Y88500D01*
X220350Y88750D01*
X220000Y88950D01*
X219500Y89000D01*
X219000Y88950D01*
X218650Y88750D01*
X218350Y88500D01*
X218150Y88200D01*
X218000Y87800D01*
Y86800D01*
G01Y91000D02*
X221000D01*
X220400Y90400D01*
G01X218000D02*
Y91600D01*
G01X220500Y93150D02*
X220800Y93450D01*
X220950Y93800D01*
X221000Y94200D01*
X220900Y94700D01*
X220650Y95050D01*
X220350Y95150D01*
X220050Y95100D01*
X219800Y94900D01*
X219300Y93900D01*
X218950Y93450D01*
X218450Y93150D01*
X218000Y93050D01*
Y95150D01*
G01Y61350D02*
X221000D01*
Y62350D01*
X220850Y62750D01*
X220650Y63050D01*
X220350Y63300D01*
X220000Y63500D01*
X219500Y63550D01*
X219000Y63500D01*
X218650Y63300D01*
X218350Y63050D01*
X218150Y62750D01*
X218000Y62350D01*
Y61350D01*
G01X218350Y64700D02*
X218100Y65050D01*
X218000Y65450D01*
X218100Y65850D01*
X218400Y66200D01*
X218850Y66450D01*
X219300Y66550D01*
X219850D01*
X220300Y66450D01*
X220700Y66200D01*
X220900Y65900D01*
X221000Y65550D01*
X220900Y65150D01*
X220700Y64850D01*
X220400Y64650D01*
X220000Y64550D01*
X219650Y64650D01*
X219300Y64900D01*
X219100Y65200D01*
X219050Y65550D01*
X219150Y65950D01*
X219400Y66250D01*
X219850Y66550D01*
G01X205000Y61250D02*
X205300Y61400D01*
X205650Y61500D01*
X206050D01*
X206500Y61350D01*
X206850Y61100D01*
X207100Y60800D01*
X207300Y60300D01*
X207350Y59850D01*
X207250Y59400D01*
X207100Y59100D01*
X206800Y58800D01*
X206450Y58600D01*
X206100Y58500D01*
X205750D01*
X205400Y58600D01*
X205100Y58750D01*
X204850Y58950D01*
G01X204100Y59100D02*
X203800Y58750D01*
X203400Y58550D01*
X202950Y58500D01*
X202550Y58550D01*
X202150Y58800D01*
X201900Y59100D01*
X201850Y59400D01*
X201950Y59750D01*
X202300Y60000D01*
X202650Y60100D01*
X203100D01*
G01X202650D02*
X202350Y60250D01*
X202100Y60500D01*
X202000Y60800D01*
X202100Y61100D01*
X202350Y61350D01*
X202800Y61500D01*
X203250Y61450D01*
X203700Y61250D01*
G01X201000Y58950D02*
X200700Y58700D01*
X200350Y58550D01*
X199900Y58500D01*
X199450Y58600D01*
X199100Y58800D01*
X198850Y59150D01*
X198800Y59550D01*
X198900Y59950D01*
X199150Y60200D01*
X199500Y60400D01*
X199850Y60450D01*
X200200Y60400D01*
X200650Y60200D01*
X200500Y61500D01*
X199150D01*
G01X186500Y62900D02*
X189500D01*
Y64150D01*
X189350Y64550D01*
X189150Y64800D01*
X188750Y64900D01*
X188350Y64800D01*
X188100Y64500D01*
X187950Y64150D01*
Y62900D01*
G01Y64150D02*
X186500Y64900D01*
G01X189000Y66050D02*
X189300Y66350D01*
X189450Y66700D01*
X189500Y67100D01*
X189400Y67600D01*
X189150Y67950D01*
X188850Y68050D01*
X188550Y68000D01*
X188300Y67800D01*
X187800Y66800D01*
X187450Y66350D01*
X186950Y66050D01*
X186500Y65950D01*
Y68050D01*
G01X186950Y69000D02*
X186700Y69300D01*
X186550Y69650D01*
X186500Y70100D01*
X186600Y70550D01*
X186800Y70900D01*
X187150Y71150D01*
X187550Y71200D01*
X187950Y71100D01*
X188200Y70850D01*
X188400Y70500D01*
X188450Y70150D01*
X188400Y69800D01*
X188200Y69350D01*
X189500Y69500D01*
Y70850D01*
G01X182500Y62900D02*
X185500D01*
Y64150D01*
X185350Y64550D01*
X185150Y64800D01*
X184750Y64900D01*
X184350Y64800D01*
X184100Y64500D01*
X183950Y64150D01*
Y62900D01*
G01Y64150D02*
X182500Y64900D01*
G01X185000Y66050D02*
X185300Y66350D01*
X185450Y66700D01*
X185500Y67100D01*
X185400Y67600D01*
X185150Y67950D01*
X184850Y68050D01*
X184550Y68000D01*
X184300Y67800D01*
X183800Y66800D01*
X183450Y66350D01*
X182950Y66050D01*
X182500Y65950D01*
Y68050D01*
G01Y70700D02*
X185500D01*
X183350Y68850D01*
Y71350D01*
G01X216100Y63000D02*
Y66000D01*
X214850D01*
X214450Y65850D01*
X214200Y65650D01*
X214100Y65250D01*
X214200Y64850D01*
X214500Y64600D01*
X214850Y64450D01*
X216100D01*
G01X214850D02*
X214100Y63000D01*
G01X211400D02*
Y66000D01*
X213250Y63850D01*
X210750D01*
G01X208900Y63000D02*
Y66000D01*
X209500Y65400D01*
G01Y63000D02*
X208300D01*
G01X202000Y77000D02*
X205000D01*
Y78250D01*
X204850Y78650D01*
X204650Y78900D01*
X204250Y79000D01*
X203850Y78900D01*
X203600Y78600D01*
X203450Y78250D01*
Y77000D01*
G01Y78250D02*
X202000Y79000D01*
G01Y81700D02*
X205000D01*
X202850Y79850D01*
Y82350D01*
G01X204500Y83250D02*
X204800Y83550D01*
X204950Y83900D01*
X205000Y84300D01*
X204900Y84800D01*
X204650Y85150D01*
X204350Y85250D01*
X204050Y85200D01*
X203800Y85000D01*
X203300Y84000D01*
X202950Y83550D01*
X202450Y83250D01*
X202000Y83150D01*
Y85250D01*
G01X206500Y77000D02*
X209500D01*
Y78250D01*
X209350Y78650D01*
X209150Y78900D01*
X208750Y79000D01*
X208350Y78900D01*
X208100Y78600D01*
X207950Y78250D01*
Y77000D01*
G01Y78250D02*
X206500Y79000D01*
G01Y81700D02*
X209500D01*
X207350Y79850D01*
Y82350D01*
G01X206500Y84800D02*
X209500D01*
X207350Y82950D01*
Y85450D01*
G01X216100Y67000D02*
Y70000D01*
X214850D01*
X214450Y69850D01*
X214200Y69650D01*
X214100Y69250D01*
X214200Y68850D01*
X214500Y68600D01*
X214850Y68450D01*
X216100D01*
G01X214850D02*
X214100Y67000D01*
G01X211400D02*
Y70000D01*
X213250Y67850D01*
X210750D01*
G01X209850Y68250D02*
X209500Y68600D01*
X209200Y68800D01*
X208800Y68900D01*
X208450Y68800D01*
X208200Y68600D01*
X208000Y68300D01*
X207950Y67950D01*
X208000Y67650D01*
X208200Y67350D01*
X208500Y67100D01*
X208850Y67000D01*
X209250Y67100D01*
X209600Y67400D01*
X209800Y67850D01*
X209850Y68350D01*
X209750Y69000D01*
X209600Y69350D01*
X209350Y69700D01*
X209000Y69950D01*
X208650Y70000D01*
X208300Y69900D01*
X208050Y69650D01*
G01X216100Y71000D02*
Y74000D01*
X214850D01*
X214450Y73850D01*
X214200Y73650D01*
X214100Y73250D01*
X214200Y72850D01*
X214500Y72600D01*
X214850Y72450D01*
X216100D01*
G01X214850D02*
X214100Y71000D01*
G01X211400D02*
Y74000D01*
X213250Y71850D01*
X210750D01*
G01X209000Y71000D02*
X208900Y71650D01*
X208750Y72200D01*
X208550Y72700D01*
X208300Y73250D01*
X207900Y74000D01*
X209900D01*
G01X180500Y44900D02*
X183500D01*
Y46150D01*
X183350Y46550D01*
X183150Y46800D01*
X182750Y46900D01*
X182350Y46800D01*
X182100Y46500D01*
X181950Y46150D01*
Y44900D01*
G01Y46150D02*
X180500Y46900D01*
G01Y49600D02*
X183500D01*
X181350Y47750D01*
Y50250D01*
G01X180500Y52100D02*
X180550Y52450D01*
X180700Y52850D01*
X180950Y53100D01*
X181300Y53200D01*
X181650Y53100D01*
X181950Y52800D01*
X182100Y52350D01*
Y51850D01*
X182200Y51550D01*
X182450Y51300D01*
X182800Y51200D01*
X183150Y51350D01*
X183400Y51700D01*
X183500Y52100D01*
X183400Y52500D01*
X183150Y52850D01*
X182800Y53000D01*
X182450Y52900D01*
X182200Y52650D01*
X182100Y52350D01*
Y51850D01*
X181950Y51400D01*
X181650Y51100D01*
X181300Y51000D01*
X180950Y51100D01*
X180700Y51350D01*
X180550Y51750D01*
X180500Y52100D01*
G01X198100Y104000D02*
Y107000D01*
X196850D01*
X196450Y106850D01*
X196200Y106650D01*
X196100Y106250D01*
X196200Y105850D01*
X196500Y105600D01*
X196850Y105450D01*
X198100D01*
G01X196850D02*
X196100Y104000D01*
G01X195100Y104450D02*
X194800Y104200D01*
X194450Y104050D01*
X194000Y104000D01*
X193550Y104100D01*
X193200Y104300D01*
X192950Y104650D01*
X192900Y105050D01*
X193000Y105450D01*
X193250Y105700D01*
X193600Y105900D01*
X193950Y105950D01*
X194300Y105900D01*
X194750Y105700D01*
X194600Y107000D01*
X193250D01*
G01X190900Y104000D02*
Y107000D01*
X191500Y106400D01*
G01Y104000D02*
X190300D01*
G01X176500Y44900D02*
X179500D01*
Y46150D01*
X179350Y46550D01*
X179150Y46800D01*
X178750Y46900D01*
X178350Y46800D01*
X178100Y46500D01*
X177950Y46150D01*
Y44900D01*
G01Y46150D02*
X176500Y46900D01*
G01Y49600D02*
X179500D01*
X177350Y47750D01*
Y50250D01*
G01X176850Y51250D02*
X176600Y51600D01*
X176500Y52000D01*
X176600Y52400D01*
X176900Y52750D01*
X177350Y53000D01*
X177800Y53100D01*
X178350D01*
X178800Y53000D01*
X179200Y52750D01*
X179400Y52450D01*
X179500Y52100D01*
X179400Y51700D01*
X179200Y51400D01*
X178900Y51200D01*
X178500Y51100D01*
X178150Y51200D01*
X177800Y51450D01*
X177600Y51750D01*
X177550Y52100D01*
X177650Y52500D01*
X177900Y52800D01*
X178350Y53100D01*
G01X172500Y44900D02*
X175500D01*
Y46150D01*
X175350Y46550D01*
X175150Y46800D01*
X174750Y46900D01*
X174350Y46800D01*
X174100Y46500D01*
X173950Y46150D01*
Y44900D01*
G01Y46150D02*
X172500Y46900D01*
G01X172950Y47900D02*
X172700Y48200D01*
X172550Y48550D01*
X172500Y49000D01*
X172600Y49450D01*
X172800Y49800D01*
X173150Y50050D01*
X173550Y50100D01*
X173950Y50000D01*
X174200Y49750D01*
X174400Y49400D01*
X174450Y49050D01*
X174400Y48700D01*
X174200Y48250D01*
X175500Y48400D01*
Y49750D01*
G01Y52100D02*
X175400Y51700D01*
X175150Y51400D01*
X174850Y51200D01*
X174450Y51050D01*
X174000Y51000D01*
X173550Y51050D01*
X173150Y51200D01*
X172850Y51400D01*
X172600Y51700D01*
X172500Y52100D01*
X172600Y52500D01*
X172850Y52800D01*
X173150Y53000D01*
X173550Y53150D01*
X174000Y53200D01*
X174450Y53150D01*
X174850Y53000D01*
X175150Y52800D01*
X175400Y52500D01*
X175500Y52100D01*
G01X199100Y98000D02*
Y101000D01*
X197850D01*
X197450Y100850D01*
X197200Y100650D01*
X197100Y100250D01*
X197200Y99850D01*
X197500Y99600D01*
X197850Y99450D01*
X199100D01*
G01X197850D02*
X197100Y98000D01*
G01X196100Y98450D02*
X195800Y98200D01*
X195450Y98050D01*
X195000Y98000D01*
X194550Y98100D01*
X194200Y98300D01*
X193950Y98650D01*
X193900Y99050D01*
X194000Y99450D01*
X194250Y99700D01*
X194600Y99900D01*
X194950Y99950D01*
X195300Y99900D01*
X195750Y99700D01*
X195600Y101000D01*
X194250D01*
G01X192850Y100500D02*
X192550Y100800D01*
X192200Y100950D01*
X191800Y101000D01*
X191300Y100900D01*
X190950Y100650D01*
X190850Y100350D01*
X190900Y100050D01*
X191100Y99800D01*
X192100Y99300D01*
X192550Y98950D01*
X192850Y98450D01*
X192950Y98000D01*
X190850D01*
G01X202600Y116000D02*
Y119000D01*
X201350D01*
X200950Y118850D01*
X200700Y118650D01*
X200600Y118250D01*
X200700Y117850D01*
X201000Y117600D01*
X201350Y117450D01*
X202600D01*
G01X201350D02*
X200600Y116000D01*
G01X199600Y116450D02*
X199300Y116200D01*
X198950Y116050D01*
X198500Y116000D01*
X198050Y116100D01*
X197700Y116300D01*
X197450Y116650D01*
X197400Y117050D01*
X197500Y117450D01*
X197750Y117700D01*
X198100Y117900D01*
X198450Y117950D01*
X198800Y117900D01*
X199250Y117700D01*
X199100Y119000D01*
X197750D01*
G01X196500Y116600D02*
X196200Y116250D01*
X195800Y116050D01*
X195350Y116000D01*
X194950Y116050D01*
X194550Y116300D01*
X194300Y116600D01*
X194250Y116900D01*
X194350Y117250D01*
X194700Y117500D01*
X195050Y117600D01*
X195500D01*
G01X195050D02*
X194750Y117750D01*
X194500Y118000D01*
X194400Y118300D01*
X194500Y118600D01*
X194750Y118850D01*
X195200Y119000D01*
X195650Y118950D01*
X196100Y118750D01*
G01X180500Y121000D02*
Y124000D01*
X181100Y123400D01*
G01Y121000D02*
X179900D01*
G01X170150Y119900D02*
X169750Y119650D01*
X169300Y119500D01*
X168900D01*
X168500Y119650D01*
X168200Y119900D01*
X168050Y120250D01*
X168150Y120600D01*
X168400Y120900D01*
X168850Y121100D01*
X169450Y121200D01*
X169800Y121400D01*
X169950Y121750D01*
X169850Y122100D01*
X169600Y122350D01*
X169250Y122500D01*
X168900D01*
X168550Y122400D01*
X168250Y122150D01*
G01X167100Y122500D02*
Y120350D01*
X166900Y119900D01*
X166500Y119600D01*
X166000Y119500D01*
X165500Y119600D01*
X165100Y119900D01*
X164900Y120350D01*
Y122500D01*
G01X162900Y119500D02*
Y122500D01*
X163500Y121900D01*
G01Y119500D02*
X162300D01*
G01X228372Y149882D02*
X228672Y150032D01*
X229022Y150132D01*
X229422D01*
X229872Y149982D01*
X230222Y149732D01*
X230472Y149432D01*
X230672Y148932D01*
X230722Y148482D01*
X230622Y148032D01*
X230472Y147732D01*
X230172Y147432D01*
X229822Y147232D01*
X229472Y147132D01*
X229122D01*
X228772Y147232D01*
X228472Y147382D01*
X228222Y147582D01*
G01X225772Y147132D02*
Y150132D01*
X227622Y147982D01*
X225122D01*
G01X223272Y147132D02*
X222922Y147182D01*
X222522Y147332D01*
X222272Y147582D01*
X222172Y147932D01*
X222272Y148282D01*
X222572Y148582D01*
X223022Y148732D01*
X223522D01*
X223822Y148832D01*
X224072Y149082D01*
X224172Y149432D01*
X224022Y149782D01*
X223672Y150032D01*
X223272Y150132D01*
X222872Y150032D01*
X222522Y149782D01*
X222372Y149432D01*
X222472Y149082D01*
X222722Y148832D01*
X223022Y148732D01*
X223522D01*
X223972Y148582D01*
X224272Y148282D01*
X224372Y147932D01*
X224272Y147582D01*
X224022Y147332D01*
X223622Y147182D01*
X223272Y147132D01*
G01X230572Y143132D02*
Y146132D01*
X229572D01*
X229172Y145982D01*
X228872Y145782D01*
X228622Y145482D01*
X228422Y145132D01*
X228372Y144632D01*
X228422Y144132D01*
X228622Y143782D01*
X228872Y143482D01*
X229172Y143282D01*
X229572Y143132D01*
X230572D01*
G01X226372D02*
Y146132D01*
X226972Y145532D01*
G01Y143132D02*
X225772D01*
G01X224372Y143582D02*
X224072Y143332D01*
X223722Y143182D01*
X223272Y143132D01*
X222822Y143232D01*
X222472Y143432D01*
X222222Y143782D01*
X222172Y144182D01*
X222272Y144582D01*
X222522Y144832D01*
X222872Y145032D01*
X223222Y145082D01*
X223572Y145032D01*
X224022Y144832D01*
X223872Y146132D01*
X222522D01*
G01X230572Y151132D02*
Y154132D01*
X229572D01*
X229172Y153982D01*
X228872Y153782D01*
X228622Y153482D01*
X228422Y153132D01*
X228372Y152632D01*
X228422Y152132D01*
X228622Y151782D01*
X228872Y151482D01*
X229172Y151282D01*
X229572Y151132D01*
X230572D01*
G01X226372D02*
Y154132D01*
X226972Y153532D01*
G01Y151132D02*
X225772D01*
G01X224222Y152382D02*
X223872Y152732D01*
X223572Y152932D01*
X223172Y153032D01*
X222822Y152932D01*
X222572Y152732D01*
X222372Y152432D01*
X222322Y152082D01*
X222372Y151782D01*
X222572Y151482D01*
X222872Y151232D01*
X223222Y151132D01*
X223622Y151232D01*
X223972Y151532D01*
X224172Y151982D01*
X224222Y152482D01*
X224122Y153132D01*
X223972Y153482D01*
X223722Y153832D01*
X223372Y154082D01*
X223022Y154132D01*
X222672Y154032D01*
X222422Y153782D01*
G01X230700Y155500D02*
Y158500D01*
X229700D01*
X229300Y158350D01*
X229000Y158150D01*
X228750Y157850D01*
X228550Y157500D01*
X228500Y157000D01*
X228550Y156500D01*
X228750Y156150D01*
X229000Y155850D01*
X229300Y155650D01*
X229700Y155500D01*
X230700D01*
G01X226500D02*
Y158500D01*
X227100Y157900D01*
G01Y155500D02*
X225900D01*
G01X223500D02*
X223400Y156150D01*
X223250Y156700D01*
X223050Y157200D01*
X222800Y157750D01*
X222400Y158500D01*
X224400D01*
G01X211100Y124000D02*
Y127000D01*
X209850D01*
X209450Y126850D01*
X209200Y126650D01*
X209100Y126250D01*
X209200Y125850D01*
X209500Y125600D01*
X209850Y125450D01*
X211100D01*
G01X209850D02*
X209100Y124000D01*
G01X208100Y124450D02*
X207800Y124200D01*
X207450Y124050D01*
X207000Y124000D01*
X206550Y124100D01*
X206200Y124300D01*
X205950Y124650D01*
X205900Y125050D01*
X206000Y125450D01*
X206250Y125700D01*
X206600Y125900D01*
X206950Y125950D01*
X207300Y125900D01*
X207750Y125700D01*
X207600Y127000D01*
X206250D01*
G01X203300Y124000D02*
Y127000D01*
X205150Y124850D01*
X202650D01*
G01X230600Y160000D02*
Y163000D01*
X229350D01*
X228950Y162850D01*
X228700Y162650D01*
X228600Y162250D01*
X228700Y161850D01*
X229000Y161600D01*
X229350Y161450D01*
X230600D01*
G01X229350D02*
X228600Y160000D01*
G01X227450Y161250D02*
X227100Y161600D01*
X226800Y161800D01*
X226400Y161900D01*
X226050Y161800D01*
X225800Y161600D01*
X225600Y161300D01*
X225550Y160950D01*
X225600Y160650D01*
X225800Y160350D01*
X226100Y160100D01*
X226450Y160000D01*
X226850Y160100D01*
X227200Y160400D01*
X227400Y160850D01*
X227450Y161350D01*
X227350Y162000D01*
X227200Y162350D01*
X226950Y162700D01*
X226600Y162950D01*
X226250Y163000D01*
X225900Y162900D01*
X225650Y162650D01*
G01X223400Y163000D02*
X223800Y162900D01*
X224100Y162650D01*
X224300Y162350D01*
X224450Y161950D01*
X224500Y161500D01*
X224450Y161050D01*
X224300Y160650D01*
X224100Y160350D01*
X223800Y160100D01*
X223400Y160000D01*
X223000Y160100D01*
X222700Y160350D01*
X222500Y160650D01*
X222350Y161050D01*
X222300Y161500D01*
X222350Y161950D01*
X222500Y162350D01*
X222700Y162650D01*
X223000Y162900D01*
X223400Y163000D01*
G01X230358Y138953D02*
Y141953D01*
X229108D01*
X228708Y141803D01*
X228458Y141603D01*
X228358Y141203D01*
X228458Y140803D01*
X228758Y140553D01*
X229108Y140403D01*
X230358D01*
G01X229108D02*
X228358Y138953D01*
G01X227208Y140203D02*
X226858Y140553D01*
X226558Y140753D01*
X226158Y140853D01*
X225808Y140753D01*
X225558Y140553D01*
X225358Y140253D01*
X225308Y139903D01*
X225358Y139603D01*
X225558Y139303D01*
X225858Y139053D01*
X226208Y138953D01*
X226608Y139053D01*
X226958Y139353D01*
X227158Y139803D01*
X227208Y140303D01*
X227108Y140953D01*
X226958Y141303D01*
X226708Y141653D01*
X226358Y141903D01*
X226008Y141953D01*
X225658Y141853D01*
X225408Y141603D01*
G01X223158Y138953D02*
Y141953D01*
X223758Y141353D01*
G01Y138953D02*
X222558D01*
G01X230600Y164500D02*
Y167500D01*
X229350D01*
X228950Y167350D01*
X228700Y167150D01*
X228600Y166750D01*
X228700Y166350D01*
X229000Y166100D01*
X229350Y165950D01*
X230600D01*
G01X229350D02*
X228600Y164500D01*
G01X227450Y165750D02*
X227100Y166100D01*
X226800Y166300D01*
X226400Y166400D01*
X226050Y166300D01*
X225800Y166100D01*
X225600Y165800D01*
X225550Y165450D01*
X225600Y165150D01*
X225800Y164850D01*
X226100Y164600D01*
X226450Y164500D01*
X226850Y164600D01*
X227200Y164900D01*
X227400Y165350D01*
X227450Y165850D01*
X227350Y166500D01*
X227200Y166850D01*
X226950Y167200D01*
X226600Y167450D01*
X226250Y167500D01*
X225900Y167400D01*
X225650Y167150D01*
G01X224350Y167000D02*
X224050Y167300D01*
X223700Y167450D01*
X223300Y167500D01*
X222800Y167400D01*
X222450Y167150D01*
X222350Y166850D01*
X222400Y166550D01*
X222600Y166300D01*
X223600Y165800D01*
X224050Y165450D01*
X224350Y164950D01*
X224450Y164500D01*
X222350D01*
G01X230358Y134953D02*
Y137953D01*
X229108D01*
X228708Y137803D01*
X228458Y137603D01*
X228358Y137203D01*
X228458Y136803D01*
X228758Y136553D01*
X229108Y136403D01*
X230358D01*
G01X229108D02*
X228358Y134953D01*
G01X227208Y136203D02*
X226858Y136553D01*
X226558Y136753D01*
X226158Y136853D01*
X225808Y136753D01*
X225558Y136553D01*
X225358Y136253D01*
X225308Y135903D01*
X225358Y135603D01*
X225558Y135303D01*
X225858Y135053D01*
X226208Y134953D01*
X226608Y135053D01*
X226958Y135353D01*
X227158Y135803D01*
X227208Y136303D01*
X227108Y136953D01*
X226958Y137303D01*
X226708Y137653D01*
X226358Y137903D01*
X226008Y137953D01*
X225658Y137853D01*
X225408Y137603D01*
G01X224258Y135553D02*
X223958Y135203D01*
X223558Y135003D01*
X223108Y134953D01*
X222708Y135003D01*
X222308Y135253D01*
X222058Y135553D01*
X222008Y135853D01*
X222108Y136203D01*
X222458Y136453D01*
X222808Y136553D01*
X223258D01*
G01X222808D02*
X222508Y136703D01*
X222258Y136953D01*
X222158Y137253D01*
X222258Y137553D01*
X222508Y137803D01*
X222958Y137953D01*
X223408Y137903D01*
X223858Y137703D01*
G01X230600Y168500D02*
Y171500D01*
X229350D01*
X228950Y171350D01*
X228700Y171150D01*
X228600Y170750D01*
X228700Y170350D01*
X229000Y170100D01*
X229350Y169950D01*
X230600D01*
G01X229350D02*
X228600Y168500D01*
G01X227450Y169750D02*
X227100Y170100D01*
X226800Y170300D01*
X226400Y170400D01*
X226050Y170300D01*
X225800Y170100D01*
X225600Y169800D01*
X225550Y169450D01*
X225600Y169150D01*
X225800Y168850D01*
X226100Y168600D01*
X226450Y168500D01*
X226850Y168600D01*
X227200Y168900D01*
X227400Y169350D01*
X227450Y169850D01*
X227350Y170500D01*
X227200Y170850D01*
X226950Y171200D01*
X226600Y171450D01*
X226250Y171500D01*
X225900Y171400D01*
X225650Y171150D01*
G01X222800Y168500D02*
Y171500D01*
X224650Y169350D01*
X222150D01*
G01X223600Y124000D02*
Y127000D01*
X222350D01*
X221950Y126850D01*
X221700Y126650D01*
X221600Y126250D01*
X221700Y125850D01*
X222000Y125600D01*
X222350Y125450D01*
X223600D01*
G01X222350D02*
X221600Y124000D01*
G01X220450Y125250D02*
X220100Y125600D01*
X219800Y125800D01*
X219400Y125900D01*
X219050Y125800D01*
X218800Y125600D01*
X218600Y125300D01*
X218550Y124950D01*
X218600Y124650D01*
X218800Y124350D01*
X219100Y124100D01*
X219450Y124000D01*
X219850Y124100D01*
X220200Y124400D01*
X220400Y124850D01*
X220450Y125350D01*
X220350Y126000D01*
X220200Y126350D01*
X219950Y126700D01*
X219600Y126950D01*
X219250Y127000D01*
X218900Y126900D01*
X218650Y126650D01*
G01X217500Y124450D02*
X217200Y124200D01*
X216850Y124050D01*
X216400Y124000D01*
X215950Y124100D01*
X215600Y124300D01*
X215350Y124650D01*
X215300Y125050D01*
X215400Y125450D01*
X215650Y125700D01*
X216000Y125900D01*
X216350Y125950D01*
X216700Y125900D01*
X217150Y125700D01*
X217000Y127000D01*
X215650D01*
G01X230600Y173000D02*
Y176000D01*
X229350D01*
X228950Y175850D01*
X228700Y175650D01*
X228600Y175250D01*
X228700Y174850D01*
X229000Y174600D01*
X229350Y174450D01*
X230600D01*
G01X229350D02*
X228600Y173000D01*
G01X227450Y174250D02*
X227100Y174600D01*
X226800Y174800D01*
X226400Y174900D01*
X226050Y174800D01*
X225800Y174600D01*
X225600Y174300D01*
X225550Y173950D01*
X225600Y173650D01*
X225800Y173350D01*
X226100Y173100D01*
X226450Y173000D01*
X226850Y173100D01*
X227200Y173400D01*
X227400Y173850D01*
X227450Y174350D01*
X227350Y175000D01*
X227200Y175350D01*
X226950Y175700D01*
X226600Y175950D01*
X226250Y176000D01*
X225900Y175900D01*
X225650Y175650D01*
G01X224350Y174250D02*
X224000Y174600D01*
X223700Y174800D01*
X223300Y174900D01*
X222950Y174800D01*
X222700Y174600D01*
X222500Y174300D01*
X222450Y173950D01*
X222500Y173650D01*
X222700Y173350D01*
X223000Y173100D01*
X223350Y173000D01*
X223750Y173100D01*
X224100Y173400D01*
X224300Y173850D01*
X224350Y174350D01*
X224250Y175000D01*
X224100Y175350D01*
X223850Y175700D01*
X223500Y175950D01*
X223150Y176000D01*
X222800Y175900D01*
X222550Y175650D01*
G01X230700Y177500D02*
Y180500D01*
X229700D01*
X229300Y180350D01*
X229000Y180150D01*
X228750Y179850D01*
X228550Y179500D01*
X228500Y179000D01*
X228550Y178500D01*
X228750Y178150D01*
X229000Y177850D01*
X229300Y177650D01*
X229700Y177500D01*
X230700D01*
G01X226500D02*
Y180500D01*
X227100Y179900D01*
G01Y177500D02*
X225900D01*
G01X223400D02*
X223050Y177550D01*
X222650Y177700D01*
X222400Y177950D01*
X222300Y178300D01*
X222400Y178650D01*
X222700Y178950D01*
X223150Y179100D01*
X223650D01*
X223950Y179200D01*
X224200Y179450D01*
X224300Y179800D01*
X224150Y180150D01*
X223800Y180400D01*
X223400Y180500D01*
X223000Y180400D01*
X222650Y180150D01*
X222500Y179800D01*
X222600Y179450D01*
X222850Y179200D01*
X223150Y179100D01*
X223650D01*
X224100Y178950D01*
X224400Y178650D01*
X224500Y178300D01*
X224400Y177950D01*
X224150Y177700D01*
X223750Y177550D01*
X223400Y177500D01*
G01X236250Y39000D02*
X236400Y38700D01*
X236500Y38350D01*
Y37950D01*
X236350Y37500D01*
X236100Y37150D01*
X235800Y36900D01*
X235300Y36700D01*
X234850Y36650D01*
X234400Y36750D01*
X234100Y36900D01*
X233800Y37200D01*
X233600Y37550D01*
X233500Y37900D01*
Y38250D01*
X233600Y38600D01*
X233750Y38900D01*
X233950Y39150D01*
G01X236000Y40050D02*
X236300Y40350D01*
X236450Y40700D01*
X236500Y41100D01*
X236400Y41600D01*
X236150Y41950D01*
X235850Y42050D01*
X235550Y42000D01*
X235300Y41800D01*
X234800Y40800D01*
X234450Y40350D01*
X233950Y40050D01*
X233500Y39950D01*
Y42050D01*
G01Y44100D02*
X233550Y44450D01*
X233700Y44850D01*
X233950Y45100D01*
X234300Y45200D01*
X234650Y45100D01*
X234950Y44800D01*
X235100Y44350D01*
Y43850D01*
X235200Y43550D01*
X235450Y43300D01*
X235800Y43200D01*
X236150Y43350D01*
X236400Y43700D01*
X236500Y44100D01*
X236400Y44500D01*
X236150Y44850D01*
X235800Y45000D01*
X235450Y44900D01*
X235200Y44650D01*
X235100Y44350D01*
Y43850D01*
X234950Y43400D01*
X234650Y43100D01*
X234300Y43000D01*
X233950Y43100D01*
X233700Y43350D01*
X233550Y43750D01*
X233500Y44100D01*
G01X236250Y29500D02*
X236400Y29200D01*
X236500Y28850D01*
Y28450D01*
X236350Y28000D01*
X236100Y27650D01*
X235800Y27400D01*
X235300Y27200D01*
X234850Y27150D01*
X234400Y27250D01*
X234100Y27400D01*
X233800Y27700D01*
X233600Y28050D01*
X233500Y28400D01*
Y28750D01*
X233600Y29100D01*
X233750Y29400D01*
X233950Y29650D01*
G01X236000Y30550D02*
X236300Y30850D01*
X236450Y31200D01*
X236500Y31600D01*
X236400Y32100D01*
X236150Y32450D01*
X235850Y32550D01*
X235550Y32500D01*
X235300Y32300D01*
X234800Y31300D01*
X234450Y30850D01*
X233950Y30550D01*
X233500Y30450D01*
Y32550D01*
G01Y34500D02*
X234150Y34600D01*
X234700Y34750D01*
X235200Y34950D01*
X235750Y35200D01*
X236500Y35600D01*
Y33600D01*
G01X243500Y30850D02*
X246500D01*
Y31850D01*
X246350Y32250D01*
X246150Y32550D01*
X245850Y32800D01*
X245500Y33000D01*
X245000Y33050D01*
X244500Y33000D01*
X244150Y32800D01*
X243850Y32550D01*
X243650Y32250D01*
X243500Y31850D01*
Y30850D01*
G01X243950Y33950D02*
X243700Y34250D01*
X243550Y34600D01*
X243500Y35050D01*
X243600Y35500D01*
X243800Y35850D01*
X244150Y36100D01*
X244550Y36150D01*
X244950Y36050D01*
X245200Y35800D01*
X245400Y35450D01*
X245450Y35100D01*
X245400Y34750D01*
X245200Y34300D01*
X246500Y34450D01*
Y35800D01*
G01X243500Y37850D02*
X246500D01*
Y38850D01*
X246350Y39250D01*
X246150Y39550D01*
X245850Y39800D01*
X245500Y40000D01*
X245000Y40050D01*
X244500Y40000D01*
X244150Y39800D01*
X243850Y39550D01*
X243650Y39250D01*
X243500Y38850D01*
Y37850D01*
G01X244750Y41100D02*
X245100Y41450D01*
X245300Y41750D01*
X245400Y42150D01*
X245300Y42500D01*
X245100Y42750D01*
X244800Y42950D01*
X244450Y43000D01*
X244150Y42950D01*
X243850Y42750D01*
X243600Y42450D01*
X243500Y42100D01*
X243600Y41700D01*
X243900Y41350D01*
X244350Y41150D01*
X244850Y41100D01*
X245500Y41200D01*
X245850Y41350D01*
X246200Y41600D01*
X246450Y41950D01*
X246500Y42300D01*
X246400Y42650D01*
X246150Y42900D01*
G01X241250Y34500D02*
X241400Y34200D01*
X241500Y33850D01*
Y33450D01*
X241350Y33000D01*
X241100Y32650D01*
X240800Y32400D01*
X240300Y32200D01*
X239850Y32150D01*
X239400Y32250D01*
X239100Y32400D01*
X238800Y32700D01*
X238600Y33050D01*
X238500Y33400D01*
Y33750D01*
X238600Y34100D01*
X238750Y34400D01*
X238950Y34650D01*
G01X241000Y35550D02*
X241300Y35850D01*
X241450Y36200D01*
X241500Y36600D01*
X241400Y37100D01*
X241150Y37450D01*
X240850Y37550D01*
X240550Y37500D01*
X240300Y37300D01*
X239800Y36300D01*
X239450Y35850D01*
X238950Y35550D01*
X238500Y35450D01*
Y37550D01*
G01X238950Y38500D02*
X238700Y38800D01*
X238550Y39150D01*
X238500Y39600D01*
X238600Y40050D01*
X238800Y40400D01*
X239150Y40650D01*
X239550Y40700D01*
X239950Y40600D01*
X240200Y40350D01*
X240400Y40000D01*
X240450Y39650D01*
X240400Y39300D01*
X240200Y38850D01*
X241500Y39000D01*
Y40350D01*
G01X229500Y36900D02*
X232500D01*
Y38150D01*
X232350Y38550D01*
X232150Y38800D01*
X231750Y38900D01*
X231350Y38800D01*
X231100Y38500D01*
X230950Y38150D01*
Y36900D01*
G01Y38150D02*
X229500Y38900D01*
G01Y41000D02*
X232500D01*
X231900Y40400D01*
G01X229500D02*
Y41600D01*
G01X229850Y43250D02*
X229600Y43600D01*
X229500Y44000D01*
X229600Y44400D01*
X229900Y44750D01*
X230350Y45000D01*
X230800Y45100D01*
X231350D01*
X231800Y45000D01*
X232200Y44750D01*
X232400Y44450D01*
X232500Y44100D01*
X232400Y43700D01*
X232200Y43400D01*
X231900Y43200D01*
X231500Y43100D01*
X231150Y43200D01*
X230800Y43450D01*
X230600Y43750D01*
X230550Y44100D01*
X230650Y44500D01*
X230900Y44800D01*
X231350Y45100D01*
G01X229500Y26900D02*
X232500D01*
Y28150D01*
X232350Y28550D01*
X232150Y28800D01*
X231750Y28900D01*
X231350Y28800D01*
X231100Y28500D01*
X230950Y28150D01*
Y26900D01*
G01Y28150D02*
X229500Y28900D01*
G01X232000Y30050D02*
X232300Y30350D01*
X232450Y30700D01*
X232500Y31100D01*
X232400Y31600D01*
X232150Y31950D01*
X231850Y32050D01*
X231550Y32000D01*
X231300Y31800D01*
X230800Y30800D01*
X230450Y30350D01*
X229950Y30050D01*
X229500Y29950D01*
Y32050D01*
G01X232500Y34100D02*
X232400Y33700D01*
X232150Y33400D01*
X231850Y33200D01*
X231450Y33050D01*
X231000Y33000D01*
X230550Y33050D01*
X230150Y33200D01*
X229850Y33400D01*
X229600Y33700D01*
X229500Y34100D01*
X229600Y34500D01*
X229850Y34800D01*
X230150Y35000D01*
X230550Y35150D01*
X231000Y35200D01*
X231450Y35150D01*
X231850Y35000D01*
X232150Y34800D01*
X232400Y34500D01*
X232500Y34100D01*
G01X236500Y77400D02*
X239500D01*
Y78400D01*
X239350Y78800D01*
X239150Y79100D01*
X238850Y79350D01*
X238500Y79550D01*
X238000Y79600D01*
X237500Y79550D01*
X237150Y79350D01*
X236850Y79100D01*
X236650Y78800D01*
X236500Y78400D01*
Y77400D01*
G01Y81600D02*
X236550Y81950D01*
X236700Y82350D01*
X236950Y82600D01*
X237300Y82700D01*
X237650Y82600D01*
X237950Y82300D01*
X238100Y81850D01*
Y81350D01*
X238200Y81050D01*
X238450Y80800D01*
X238800Y80700D01*
X239150Y80850D01*
X239400Y81200D01*
X239500Y81600D01*
X239400Y82000D01*
X239150Y82350D01*
X238800Y82500D01*
X238450Y82400D01*
X238200Y82150D01*
X238100Y81850D01*
Y81350D01*
X237950Y80900D01*
X237650Y80600D01*
X237300Y80500D01*
X236950Y80600D01*
X236700Y80850D01*
X236550Y81250D01*
X236500Y81600D01*
G01X246694Y110945D02*
Y113945D01*
X245444D01*
X245044Y113795D01*
X244794Y113595D01*
X244694Y113195D01*
X244794Y112795D01*
X245094Y112545D01*
X245444Y112395D01*
X246694D01*
G01X245444D02*
X244694Y110945D01*
G01X243544Y113445D02*
X243244Y113745D01*
X242894Y113895D01*
X242494Y113945D01*
X241994Y113845D01*
X241644Y113595D01*
X241544Y113295D01*
X241594Y112995D01*
X241794Y112745D01*
X242794Y112245D01*
X243244Y111895D01*
X243544Y111395D01*
X243644Y110945D01*
X241544D01*
G01X240444Y113445D02*
X240144Y113745D01*
X239794Y113895D01*
X239394Y113945D01*
X238894Y113845D01*
X238544Y113595D01*
X238444Y113295D01*
X238494Y112995D01*
X238694Y112745D01*
X239694Y112245D01*
X240144Y111895D01*
X240444Y111395D01*
X240544Y110945D01*
X238444D01*
G01X246694Y114945D02*
Y117945D01*
X245444D01*
X245044Y117795D01*
X244794Y117595D01*
X244694Y117195D01*
X244794Y116795D01*
X245094Y116545D01*
X245444Y116395D01*
X246694D01*
G01X245444D02*
X244694Y114945D01*
G01X243544Y117445D02*
X243244Y117745D01*
X242894Y117895D01*
X242494Y117945D01*
X241994Y117845D01*
X241644Y117595D01*
X241544Y117295D01*
X241594Y116995D01*
X241794Y116745D01*
X242794Y116245D01*
X243244Y115895D01*
X243544Y115395D01*
X243644Y114945D01*
X241544D01*
G01X240594Y115545D02*
X240294Y115195D01*
X239894Y114995D01*
X239444Y114945D01*
X239044Y114995D01*
X238644Y115245D01*
X238394Y115545D01*
X238344Y115845D01*
X238444Y116195D01*
X238794Y116445D01*
X239144Y116545D01*
X239594D01*
G01X239144D02*
X238844Y116695D01*
X238594Y116945D01*
X238494Y117245D01*
X238594Y117545D01*
X238844Y117795D01*
X239294Y117945D01*
X239744Y117895D01*
X240194Y117695D01*
G01X241000Y77500D02*
X244000D01*
Y78750D01*
X243850Y79150D01*
X243650Y79400D01*
X243250Y79500D01*
X242850Y79400D01*
X242600Y79100D01*
X242450Y78750D01*
Y77500D01*
G01Y78750D02*
X241000Y79500D01*
G01Y82200D02*
X244000D01*
X241850Y80350D01*
Y82850D01*
G01X241600Y83600D02*
X241250Y83900D01*
X241050Y84300D01*
X241000Y84750D01*
X241050Y85150D01*
X241300Y85550D01*
X241600Y85800D01*
X241900Y85850D01*
X242250Y85750D01*
X242500Y85400D01*
X242600Y85050D01*
Y84600D01*
G01Y85050D02*
X242750Y85350D01*
X243000Y85600D01*
X243300Y85700D01*
X243600Y85600D01*
X243850Y85350D01*
X244000Y84900D01*
X243950Y84450D01*
X243750Y84000D01*
G01X234500Y69500D02*
Y72500D01*
X233250D01*
X232850Y72350D01*
X232600Y72150D01*
X232500Y71750D01*
X232600Y71350D01*
X232900Y71100D01*
X233250Y70950D01*
X234500D01*
G01X233250D02*
X232500Y69500D01*
G01X229800D02*
Y72500D01*
X231650Y70350D01*
X229150D01*
G01X228400Y69950D02*
X228100Y69700D01*
X227750Y69550D01*
X227300Y69500D01*
X226850Y69600D01*
X226500Y69800D01*
X226250Y70150D01*
X226200Y70550D01*
X226300Y70950D01*
X226550Y71200D01*
X226900Y71400D01*
X227250Y71450D01*
X227600Y71400D01*
X228050Y71200D01*
X227900Y72500D01*
X226550D01*
G01X234500Y65000D02*
Y68000D01*
X233250D01*
X232850Y67850D01*
X232600Y67650D01*
X232500Y67250D01*
X232600Y66850D01*
X232900Y66600D01*
X233250Y66450D01*
X234500D01*
G01X233250D02*
X232500Y65000D01*
G01X229800D02*
Y68000D01*
X231650Y65850D01*
X229150D01*
G01X227300Y68000D02*
X227700Y67900D01*
X228000Y67650D01*
X228200Y67350D01*
X228350Y66950D01*
X228400Y66500D01*
X228350Y66050D01*
X228200Y65650D01*
X228000Y65350D01*
X227700Y65100D01*
X227300Y65000D01*
X226900Y65100D01*
X226600Y65350D01*
X226400Y65650D01*
X226250Y66050D01*
X226200Y66500D01*
X226250Y66950D01*
X226400Y67350D01*
X226600Y67650D01*
X226900Y67900D01*
X227300Y68000D01*
G01X246639Y127964D02*
Y130964D01*
X245389D01*
X244989Y130814D01*
X244739Y130614D01*
X244639Y130214D01*
X244739Y129814D01*
X245039Y129564D01*
X245389Y129414D01*
X246639D01*
G01X245389D02*
X244639Y127964D01*
G01X243489Y130464D02*
X243189Y130764D01*
X242839Y130914D01*
X242439Y130964D01*
X241939Y130864D01*
X241589Y130614D01*
X241489Y130314D01*
X241539Y130014D01*
X241739Y129764D01*
X242739Y129264D01*
X243189Y128914D01*
X243489Y128414D01*
X243589Y127964D01*
X241489D01*
G01X239539D02*
X239439Y128614D01*
X239289Y129164D01*
X239089Y129664D01*
X238839Y130214D01*
X238439Y130964D01*
X240439D01*
G01X246639Y132464D02*
Y135464D01*
X245389D01*
X244989Y135314D01*
X244739Y135114D01*
X244639Y134714D01*
X244739Y134314D01*
X245039Y134064D01*
X245389Y133914D01*
X246639D01*
G01X245389D02*
X244639Y132464D01*
G01X243489Y134964D02*
X243189Y135264D01*
X242839Y135414D01*
X242439Y135464D01*
X241939Y135364D01*
X241589Y135114D01*
X241489Y134814D01*
X241539Y134514D01*
X241739Y134264D01*
X242739Y133764D01*
X243189Y133414D01*
X243489Y132914D01*
X243589Y132464D01*
X241489D01*
G01X240389Y133714D02*
X240039Y134064D01*
X239739Y134264D01*
X239339Y134364D01*
X238989Y134264D01*
X238739Y134064D01*
X238539Y133764D01*
X238489Y133414D01*
X238539Y133114D01*
X238739Y132814D01*
X239039Y132564D01*
X239389Y132464D01*
X239789Y132564D01*
X240139Y132864D01*
X240339Y133314D01*
X240389Y133814D01*
X240289Y134464D01*
X240139Y134814D01*
X239889Y135164D01*
X239539Y135414D01*
X239189Y135464D01*
X238839Y135364D01*
X238589Y135114D01*
G01X246694Y118945D02*
Y121945D01*
X245444D01*
X245044Y121795D01*
X244794Y121595D01*
X244694Y121195D01*
X244794Y120795D01*
X245094Y120545D01*
X245444Y120395D01*
X246694D01*
G01X245444D02*
X244694Y118945D01*
G01X243694Y119545D02*
X243394Y119195D01*
X242994Y118995D01*
X242544Y118945D01*
X242144Y118995D01*
X241744Y119245D01*
X241494Y119545D01*
X241444Y119845D01*
X241544Y120195D01*
X241894Y120445D01*
X242244Y120545D01*
X242694D01*
G01X242244D02*
X241944Y120695D01*
X241694Y120945D01*
X241594Y121245D01*
X241694Y121545D01*
X241944Y121795D01*
X242394Y121945D01*
X242844Y121895D01*
X243294Y121695D01*
G01X239494Y121945D02*
X239894Y121845D01*
X240194Y121595D01*
X240394Y121295D01*
X240544Y120895D01*
X240594Y120445D01*
X240544Y119995D01*
X240394Y119595D01*
X240194Y119295D01*
X239894Y119045D01*
X239494Y118945D01*
X239094Y119045D01*
X238794Y119295D01*
X238594Y119595D01*
X238444Y119995D01*
X238394Y120445D01*
X238444Y120895D01*
X238594Y121295D01*
X238794Y121595D01*
X239094Y121845D01*
X239494Y121945D01*
G01X246530Y123252D02*
Y126252D01*
X245280D01*
X244880Y126102D01*
X244630Y125902D01*
X244530Y125502D01*
X244630Y125102D01*
X244930Y124852D01*
X245280Y124702D01*
X246530D01*
G01X245280D02*
X244530Y123252D01*
G01X243530Y123852D02*
X243230Y123502D01*
X242830Y123302D01*
X242380Y123252D01*
X241980Y123302D01*
X241580Y123552D01*
X241330Y123852D01*
X241280Y124152D01*
X241380Y124502D01*
X241730Y124752D01*
X242080Y124852D01*
X242530D01*
G01X242080D02*
X241780Y125002D01*
X241530Y125252D01*
X241430Y125552D01*
X241530Y125852D01*
X241780Y126102D01*
X242230Y126252D01*
X242680Y126202D01*
X243130Y126002D01*
G01X239330Y123252D02*
Y126252D01*
X239930Y125652D01*
G01Y123252D02*
X238730D01*
G01X246639Y140464D02*
Y143464D01*
X245389D01*
X244989Y143314D01*
X244739Y143114D01*
X244639Y142714D01*
X244739Y142314D01*
X245039Y142064D01*
X245389Y141914D01*
X246639D01*
G01X245389D02*
X244639Y140464D01*
G01X243639Y141064D02*
X243339Y140714D01*
X242939Y140514D01*
X242489Y140464D01*
X242089Y140514D01*
X241689Y140764D01*
X241439Y141064D01*
X241389Y141364D01*
X241489Y141714D01*
X241839Y141964D01*
X242189Y142064D01*
X242639D01*
G01X242189D02*
X241889Y142214D01*
X241639Y142464D01*
X241539Y142764D01*
X241639Y143064D01*
X241889Y143314D01*
X242339Y143464D01*
X242789Y143414D01*
X243239Y143214D01*
G01X238839Y140464D02*
Y143464D01*
X240689Y141314D01*
X238189D01*
G01X246639Y136464D02*
Y139464D01*
X245389D01*
X244989Y139314D01*
X244739Y139114D01*
X244639Y138714D01*
X244739Y138314D01*
X245039Y138064D01*
X245389Y137914D01*
X246639D01*
G01X245389D02*
X244639Y136464D01*
G01X243639Y137064D02*
X243339Y136714D01*
X242939Y136514D01*
X242489Y136464D01*
X242089Y136514D01*
X241689Y136764D01*
X241439Y137064D01*
X241389Y137364D01*
X241489Y137714D01*
X241839Y137964D01*
X242189Y138064D01*
X242639D01*
G01X242189D02*
X241889Y138214D01*
X241639Y138464D01*
X241539Y138764D01*
X241639Y139064D01*
X241889Y139314D01*
X242339Y139464D01*
X242789Y139414D01*
X243239Y139214D01*
G01X240389Y137714D02*
X240039Y138064D01*
X239739Y138264D01*
X239339Y138364D01*
X238989Y138264D01*
X238739Y138064D01*
X238539Y137764D01*
X238489Y137414D01*
X238539Y137114D01*
X238739Y136814D01*
X239039Y136564D01*
X239389Y136464D01*
X239789Y136564D01*
X240139Y136864D01*
X240339Y137314D01*
X240389Y137814D01*
X240289Y138464D01*
X240139Y138814D01*
X239889Y139164D01*
X239539Y139414D01*
X239189Y139464D01*
X238839Y139364D01*
X238589Y139114D01*
G01X233883Y121345D02*
Y124345D01*
X232633D01*
X232233Y124195D01*
X231983Y123995D01*
X231883Y123595D01*
X231983Y123195D01*
X232283Y122945D01*
X232633Y122795D01*
X233883D01*
G01X232633D02*
X231883Y121345D01*
G01X229783D02*
Y124345D01*
X230383Y123745D01*
G01Y121345D02*
X229183D01*
G01X226783D02*
X226683Y121995D01*
X226533Y122545D01*
X226333Y123045D01*
X226083Y123595D01*
X225683Y124345D01*
X227683D01*
G54D12*
G01X61768Y43988D02*
Y40484D01*
G01D02*
X65232D01*
G01D02*
Y43988D01*
G01X46016Y43732D02*
Y40268D01*
G01D02*
X42512D01*
G01X37984Y43732D02*
Y40268D01*
G01D02*
X41488D01*
G01X55016Y43732D02*
Y40268D01*
G01D02*
X51512D01*
G01X46984Y43732D02*
Y40268D01*
G01D02*
X50488D01*
G01X55768Y43988D02*
Y40484D01*
G01D02*
X59232D01*
G01D02*
Y43988D01*
G01X68768Y48516D02*
Y40484D01*
G01X72232Y48516D02*
Y40484D01*
G01X68768D02*
X72232D01*
G01X74268Y48516D02*
Y40484D01*
G01D02*
X77732D01*
G01X16732Y35484D02*
Y43516D01*
G01Y35484D02*
X13268D01*
G01D02*
Y43516D01*
G01X61768Y45012D02*
Y48516D01*
G01D02*
X65232D01*
G01D02*
Y45012D01*
G01X42512Y43732D02*
X46016D01*
G01X41488D02*
X37984D01*
G01X51512D02*
X55016D01*
G01X50488D02*
X46984D01*
G01X55768Y45012D02*
Y48516D01*
G01D02*
X59232D01*
G01D02*
Y45012D01*
G01X73232Y116488D02*
Y112984D01*
G01D02*
X69768D01*
G01D02*
Y116488D01*
G01X68732D02*
Y112984D01*
G01D02*
X65268D01*
G01D02*
Y116488D01*
G01X68768Y48516D02*
X72232D01*
G01X74268D02*
X77732D01*
G01X16732Y43516D02*
X13268D01*
G01X17268Y123516D02*
Y115484D01*
G01X20732Y123516D02*
Y115484D01*
G01X17268D02*
X20732D01*
G01X21768Y123516D02*
Y115484D01*
G01X25232Y123516D02*
Y115484D01*
G01X21768D02*
X25232D01*
G01X37984Y45268D02*
X46016D01*
G01X37984D02*
Y48732D01*
G01D02*
X46016D01*
G01Y45268D02*
Y48732D01*
G01X40268Y150512D02*
Y154016D01*
G01D02*
X43732D01*
G01D02*
Y150512D01*
G01X40268Y149488D02*
Y145984D01*
G01D02*
X43732D01*
G01D02*
Y149488D01*
G01X49768Y151012D02*
Y154516D01*
G01D02*
X53232D01*
G01D02*
Y151012D01*
G01X49768Y149988D02*
Y146484D01*
G01D02*
X53232D01*
G01D02*
Y149988D01*
G01X25232Y128488D02*
Y124984D01*
G01D02*
X21768D01*
G01D02*
Y128488D01*
G01X25232Y129512D02*
Y133016D01*
G01D02*
X21768D01*
G01D02*
Y129512D01*
G01X72488Y133768D02*
X68984D01*
G01D02*
Y137232D01*
G01D02*
X72488D01*
G01X73512Y133768D02*
X77016D01*
G01Y137232D02*
X73512D01*
G01X49768Y174012D02*
Y177516D01*
G01D02*
X53232D01*
G01D02*
Y174012D01*
G01X49768Y172988D02*
Y169484D01*
G01D02*
X53232D01*
G01D02*
Y172988D01*
G01X64512Y137232D02*
X68016D01*
G01D02*
Y133768D01*
G01D02*
X64512D01*
G01X63488Y137232D02*
X59984D01*
G01D02*
Y133768D01*
G01D02*
X63488D01*
G01X43232Y163988D02*
Y160484D01*
G01D02*
X39768D01*
G01D02*
Y163988D01*
G01X43232Y165012D02*
Y168516D01*
G01D02*
X39768D01*
G01D02*
Y165012D01*
G01X63488Y129768D02*
X59984D01*
G01D02*
Y133232D01*
G01D02*
X63488D01*
G01X64512Y129768D02*
X68016D01*
G01D02*
Y133232D01*
G01D02*
X64512D01*
G01X69512Y125232D02*
X73016D01*
G01D02*
Y121768D01*
G01D02*
X69512D01*
G01X68488Y125232D02*
X64984D01*
G01D02*
Y121768D01*
G01D02*
X68488D01*
G01X73512Y129232D02*
X77016D01*
G01Y125768D02*
X73512D01*
G01X72488Y129232D02*
X68984D01*
G01D02*
Y125768D01*
G01D02*
X72488D01*
G01X73232Y117512D02*
Y121016D01*
G01D02*
X69768D01*
G01D02*
Y117512D01*
G01X68732D02*
Y121016D01*
G01D02*
X65268D01*
G01D02*
Y117512D01*
G01X68016Y129232D02*
X59984D01*
G01X68016D02*
Y125768D01*
G01D02*
X59984D01*
G01Y129232D02*
Y125768D01*
G01X77016Y133232D02*
X68984D01*
G01X77016Y129768D02*
X68984D01*
G01Y133232D02*
Y129768D01*
G01X44268Y168516D02*
Y160484D01*
G01Y168516D02*
X47732D01*
G01D02*
Y160484D01*
G01X44268D02*
X47732D01*
G01X49768Y168516D02*
Y160484D01*
G01Y168516D02*
X53232D01*
G01D02*
Y160484D01*
G01X49768D02*
X53232D01*
G01X53768Y137016D02*
Y128984D01*
G01Y137016D02*
X57232D01*
G01D02*
Y128984D01*
G01X53768D02*
X57232D01*
G01X39768Y177516D02*
Y169484D01*
G01Y177516D02*
X43232D01*
G01D02*
Y169484D01*
G01X39768D02*
X43232D01*
G01X17768Y133016D02*
Y124984D01*
G01Y133016D02*
X21232D01*
G01D02*
Y124984D01*
G01X17768D02*
X21232D01*
G01X17268Y123516D02*
X20732D01*
G01X21768D02*
X25232D01*
G01X78768Y43988D02*
Y40484D01*
G01D02*
X82232D01*
G01D02*
Y43988D01*
G01X123016Y44232D02*
Y40768D01*
G01D02*
X119512D01*
G01X114984Y44232D02*
Y40768D01*
G01D02*
X118488D01*
G01X109488D02*
X105984D01*
G01D02*
Y44232D01*
G01X110512Y40768D02*
X114016D01*
G01D02*
Y44232D01*
G01X144484Y18768D02*
X152516D01*
G01X144484D02*
Y22232D01*
G01D02*
X152516D01*
G01X144484Y13268D02*
X152516D01*
G01X144484D02*
Y16732D01*
G01D02*
X152516D01*
G01X88268Y48516D02*
Y40484D01*
G01X91732Y48516D02*
Y40484D01*
G01X88268D02*
X91732D01*
G01X92768Y48516D02*
Y40484D01*
G01X96232Y48516D02*
Y40484D01*
G01X92768D02*
X96232D01*
G01X77732Y48516D02*
Y40484D01*
G01X84268Y48516D02*
Y40484D01*
G01X87732Y48516D02*
Y40484D01*
G01X84268D02*
X87732D01*
G01X105016Y44232D02*
Y40768D01*
G01D02*
X96984D01*
G01Y44232D02*
Y40768D01*
G01X78768Y45012D02*
Y48516D01*
G01D02*
X82232D01*
G01D02*
Y45012D01*
G01X119512Y44232D02*
X123016D01*
G01X118488D02*
X114984D01*
G01X105984D02*
X109488D01*
G01X114016D02*
X110512D01*
G01X147688Y80268D02*
X144184D01*
G01D02*
Y83732D01*
G01D02*
X147688D01*
G01X148712Y80268D02*
X152216D01*
G01Y83732D02*
X148712D01*
G01X147232Y89488D02*
Y85984D01*
G01D02*
X143768D01*
G01D02*
Y89488D01*
G01X147232Y90512D02*
Y94016D01*
G01D02*
X143768D01*
G01D02*
Y90512D01*
G01X143836Y99040D02*
Y102544D01*
G01D02*
X147300D01*
G01D02*
Y99040D01*
G01X143836Y98016D02*
Y94512D01*
G01D02*
X147300D01*
G01D02*
Y98016D01*
G01X85984Y51768D02*
X94016D01*
G01X85984D02*
Y55232D01*
G01D02*
X94016D01*
G01Y51768D02*
Y55232D01*
G01X85984Y55768D02*
X94016D01*
G01X85984D02*
Y59232D01*
G01D02*
X94016D01*
G01Y55768D02*
Y59232D01*
G01X105984Y44768D02*
X114016D01*
G01X105984D02*
Y48232D01*
G01D02*
X114016D01*
G01Y44768D02*
Y48232D01*
G01X105984Y48768D02*
X114016D01*
G01X105984D02*
Y52232D01*
G01D02*
X114016D01*
G01Y48768D02*
Y52232D01*
G01X105984Y52768D02*
X114016D01*
G01X105984D02*
Y56232D01*
G01D02*
X114016D01*
G01Y52768D02*
Y56232D01*
G01X88268Y48516D02*
X91732D01*
G01X92768D02*
X96232D01*
G01X84268D02*
X87732D01*
G01X105016Y44232D02*
X96984D01*
G01X121188Y148768D02*
X117684D01*
G01D02*
Y152232D01*
G01D02*
X121188D01*
G01X122212Y148768D02*
X125716D01*
G01D02*
Y152232D01*
G01D02*
X122212D01*
G01X131212D02*
X134716D01*
G01D02*
Y148768D01*
G01D02*
X131212D01*
G01X130188Y152232D02*
X126684D01*
G01D02*
Y148768D01*
G01D02*
X130188D01*
G01X123868Y122912D02*
Y126416D01*
G01D02*
X127332D01*
G01D02*
Y122912D01*
G01X123868Y121888D02*
Y118384D01*
G01D02*
X127332D01*
G01D02*
Y121888D01*
G01X128268Y123012D02*
Y126516D01*
G01D02*
X131732D01*
G01D02*
Y123012D01*
G01X128268Y121988D02*
Y118484D01*
G01D02*
X131732D01*
G01D02*
Y121988D01*
G01X90268Y133512D02*
Y137016D01*
G01D02*
X93732D01*
G01D02*
Y133512D01*
G01X90268Y132488D02*
Y128984D01*
G01D02*
X93732D01*
G01D02*
Y132488D01*
G01X77016Y133768D02*
Y137232D01*
G01X122312Y156532D02*
X125816D01*
G01D02*
Y153068D01*
G01D02*
X122312D01*
G01X121288Y156532D02*
X117784D01*
G01D02*
Y153068D01*
G01D02*
X121288D01*
G01X130088D02*
X126584D01*
G01D02*
Y156532D01*
G01D02*
X130088D01*
G01X131112Y153068D02*
X134616D01*
G01D02*
Y156532D01*
G01D02*
X131112D01*
G01X82268Y133512D02*
Y137016D01*
G01D02*
X85732D01*
G01D02*
Y133512D01*
G01X82268Y132488D02*
Y128984D01*
G01D02*
X85732D01*
G01D02*
Y132488D01*
G01X77016Y129232D02*
Y125768D01*
G01X115268Y126012D02*
Y129516D01*
G01D02*
X118732D01*
G01D02*
Y126012D01*
G01X115268Y124988D02*
Y121484D01*
G01D02*
X118732D01*
G01D02*
Y124988D01*
G01X77016Y133232D02*
Y129768D01*
G01X128268Y135516D02*
Y127484D01*
G01Y135516D02*
X131732D01*
G01D02*
Y127484D01*
G01X128268D02*
X131732D01*
G01X106768Y174516D02*
Y166484D01*
G01Y174516D02*
X110232D01*
G01D02*
Y166484D01*
G01X106768D02*
X110232D01*
G01X123868Y135416D02*
Y127384D01*
G01Y135416D02*
X127332D01*
G01D02*
Y127384D01*
G01X123868D02*
X127332D01*
G01X81232Y128984D02*
Y137016D01*
G01Y128984D02*
X77768D01*
G01D02*
Y137016D01*
G01X81232D02*
X77768D01*
G01X86268D02*
Y128984D01*
G01Y137016D02*
X89732D01*
G01D02*
Y128984D01*
G01X86268D02*
X89732D01*
G01X189988Y8768D02*
X186484D01*
G01D02*
Y12232D01*
G01D02*
X189988D01*
G01X191012Y8768D02*
X194516D01*
G01D02*
Y12232D01*
G01D02*
X191012D01*
G01X209488Y8768D02*
X205984D01*
G01D02*
Y12232D01*
G01D02*
X209488D01*
G01X210512Y8768D02*
X214016D01*
G01D02*
Y12232D01*
G01D02*
X210512D01*
G01X206988Y33768D02*
X203484D01*
G01D02*
Y37232D01*
G01D02*
X206988D01*
G01X208012Y33768D02*
X211516D01*
G01D02*
Y37232D01*
G01D02*
X208012D01*
G01X216268Y41012D02*
Y44516D01*
G01X219732D02*
Y41012D01*
G01X216268Y39988D02*
Y36484D01*
G01D02*
X219732D01*
G01D02*
Y39988D01*
G01X156660Y9268D02*
X153156D01*
G01D02*
Y12732D01*
G01D02*
X156660D01*
G01X157684Y9268D02*
X161188D01*
G01D02*
Y12732D01*
G01D02*
X157684D01*
G01X219732Y31488D02*
Y27984D01*
G01D02*
X216268D01*
G01D02*
Y31488D01*
G01X219732Y32512D02*
Y36016D01*
G01D02*
X216268D01*
G01D02*
Y32512D01*
G01X173988Y9268D02*
X170484D01*
G01D02*
Y12732D01*
G01D02*
X173988D01*
G01X175012Y9268D02*
X178516D01*
G01D02*
Y12732D01*
G01D02*
X175012D01*
G01X185488Y29268D02*
X181984D01*
G01D02*
Y32732D01*
G01D02*
X185488D01*
G01X186512Y29268D02*
X190016D01*
G01D02*
Y32732D01*
G01D02*
X186512D01*
G01X206988Y37768D02*
X203484D01*
G01D02*
Y41232D01*
G01D02*
X206988D01*
G01X208012Y37768D02*
X211516D01*
G01D02*
Y41232D01*
G01D02*
X208012D01*
G01X223732Y31984D02*
X220268D01*
G01D02*
Y35488D01*
G01X223732Y40016D02*
X220268D01*
G01D02*
Y36512D01*
G01X190984Y29268D02*
X199016D01*
G01X190984D02*
Y32732D01*
G01D02*
X199016D01*
G01Y29268D02*
Y32732D01*
G01X215732Y36484D02*
Y44516D01*
G01Y36484D02*
X212268D01*
G01D02*
Y44516D01*
G01X215732Y27984D02*
Y36016D01*
G01Y27984D02*
X212268D01*
G01D02*
Y36016D01*
G01X215732D02*
X212268D01*
G01X220516Y27232D02*
X212484D01*
G01X220516D02*
Y23768D01*
G01D02*
X212484D01*
G01Y27232D02*
Y23768D01*
G01X194516Y23732D02*
X186484D01*
G01X194516D02*
Y20268D01*
G01D02*
X186484D01*
G01Y23732D02*
Y20268D01*
G01X178516Y18232D02*
X170484D01*
G01X178516D02*
Y14768D01*
G01D02*
X170484D01*
G01Y18232D02*
Y14768D01*
G01X152516Y18768D02*
Y22232D01*
G01Y13268D02*
Y16732D01*
G01X205516Y12232D02*
X197484D01*
G01X205516D02*
Y8768D01*
G01D02*
X197484D01*
G01Y12232D02*
Y8768D01*
G01X194516Y19732D02*
X186484D01*
G01X194516D02*
Y16268D01*
G01D02*
X186484D01*
G01Y19732D02*
Y16268D01*
G01X167732Y93988D02*
Y90484D01*
G01D02*
X164268D01*
G01D02*
Y93988D01*
G01X167732Y95012D02*
Y98516D01*
G01D02*
X164268D01*
G01D02*
Y95012D01*
G01X156988Y102268D02*
X153484D01*
G01D02*
Y105732D01*
G01D02*
X156988D01*
G01X158012Y102268D02*
X161516D01*
G01D02*
Y105732D01*
G01D02*
X158012D01*
G01X156488Y80268D02*
X152984D01*
G01D02*
Y83732D01*
G01D02*
X156488D01*
G01X157512Y80268D02*
X161016D01*
G01D02*
Y83732D01*
G01D02*
X157512D01*
G01X216268Y44516D02*
X219732D01*
G01X225232Y48484D02*
X221768D01*
G01D02*
Y51988D01*
G01X225232Y56516D02*
X221768D01*
G01D02*
Y53012D01*
G01X216732Y109988D02*
Y106484D01*
G01D02*
X213268D01*
G01D02*
Y109988D01*
G01X216732Y111012D02*
Y114516D01*
G01D02*
X213268D01*
G01D02*
Y111012D01*
G01Y118488D02*
Y114984D01*
G01D02*
X216732D01*
G01D02*
Y118488D01*
G01X185012Y115232D02*
X188516D01*
G01D02*
Y111768D01*
G01D02*
X185012D01*
G01X183988Y115232D02*
X180484D01*
G01D02*
Y111768D01*
G01D02*
X183988D01*
G01X185012Y111232D02*
X188516D01*
G01D02*
Y107768D01*
G01D02*
X185012D01*
G01X183988Y111232D02*
X180484D01*
G01D02*
Y107768D01*
G01D02*
X183988D01*
G01X204768Y49512D02*
Y53016D01*
G01D02*
X208232D01*
G01D02*
Y49512D01*
G01X204768Y48488D02*
Y44984D01*
G01D02*
X208232D01*
G01D02*
Y48488D01*
G01X220732Y118488D02*
Y114984D01*
G01D02*
X217268D01*
G01D02*
Y118488D01*
G01Y111012D02*
Y114516D01*
G01D02*
X220732D01*
G01D02*
Y111012D01*
G01X217268Y109988D02*
Y106484D01*
G01D02*
X220732D01*
G01D02*
Y109988D01*
G01X217768Y53012D02*
Y56516D01*
G01D02*
X221232D01*
G01D02*
Y53012D01*
G01X217768Y51988D02*
Y48484D01*
G01D02*
X221232D01*
G01D02*
Y51988D01*
G01X152216Y80268D02*
Y83732D01*
G01X203488Y53768D02*
X199984D01*
G01D02*
Y57232D01*
G01D02*
X203488D01*
G01X204512Y53768D02*
X208016D01*
G01D02*
Y57232D01*
G01D02*
X204512D01*
G01X215732Y44516D02*
X212268D01*
G01X195268Y70516D02*
Y62484D01*
G01Y70516D02*
X198732D01*
G01D02*
Y62484D01*
G01X195268D02*
X198732D01*
G01X191268Y70516D02*
Y62484D01*
G01Y70516D02*
X194732D01*
G01D02*
Y62484D01*
G01X191268D02*
X194732D01*
G01X216516Y52232D02*
X208484D01*
G01X216516D02*
Y48768D01*
G01D02*
X208484D01*
G01Y52232D02*
Y48768D01*
G01X215768Y85016D02*
Y76984D01*
G01Y85016D02*
X219232D01*
G01D02*
Y76984D01*
G01X215768D02*
X219232D01*
G01X219768Y85016D02*
Y76984D01*
G01Y85016D02*
X223232D01*
G01X219768Y76984D02*
X223232D01*
G01X208484Y53768D02*
X216516D01*
G01X208484D02*
Y57232D01*
G01D02*
X216516D01*
G01Y53768D02*
Y57232D01*
G01X208484Y58268D02*
X216516D01*
G01X208484D02*
Y61732D01*
G01D02*
X216516D01*
G01Y58268D02*
Y61732D01*
G01X204232Y44984D02*
Y53016D01*
G01Y44984D02*
X200768D01*
G01D02*
Y53016D01*
G01X204232D02*
X200768D01*
G01X197516Y115232D02*
X189484D01*
G01X197516D02*
Y111768D01*
G01D02*
X189484D01*
G01Y115232D02*
Y111768D01*
G01X200232Y44984D02*
Y53016D01*
G01Y44984D02*
X196768D01*
G01D02*
Y53016D01*
G01X200232D02*
X196768D01*
G01X196232Y44984D02*
Y53016D01*
G01Y44984D02*
X192768D01*
G01D02*
Y53016D01*
G01X196232D02*
X192768D01*
G01X197516Y111232D02*
X189484D01*
G01X197516D02*
Y107768D01*
G01D02*
X189484D01*
G01Y111232D02*
Y107768D01*
G01X217012Y148732D02*
X220516D01*
G01D02*
Y145268D01*
G01D02*
X217012D01*
G01X215988Y148732D02*
X212484D01*
G01D02*
Y145268D01*
G01D02*
X215988D01*
G01X213268Y119512D02*
Y123016D01*
G01D02*
X216732D01*
G01D02*
Y119512D01*
G01X220732D02*
Y123016D01*
G01D02*
X217268D01*
G01D02*
Y119512D01*
G01X215988Y140268D02*
X212484D01*
G01D02*
Y143732D01*
G01D02*
X215988D01*
G01X217012Y140268D02*
X220516D01*
G01D02*
Y143732D01*
G01D02*
X217012D01*
G01X215988Y149268D02*
X212484D01*
G01D02*
Y152732D01*
G01D02*
X215988D01*
G01X217012Y149268D02*
X220516D01*
G01D02*
Y152732D01*
G01D02*
X217012D01*
G01X215988Y154268D02*
X212484D01*
G01D02*
Y157732D01*
G01D02*
X215988D01*
G01X217012Y154268D02*
X220516D01*
G01D02*
Y157732D01*
G01D02*
X217012D01*
G01X203516Y123232D02*
X195484D01*
G01X203516D02*
Y119768D01*
G01D02*
X195484D01*
G01Y123232D02*
Y119768D01*
G01X212516Y123232D02*
X204484D01*
G01X212516D02*
Y119768D01*
G01D02*
X204484D01*
G01Y123232D02*
Y119768D01*
G01X220516Y162732D02*
X212484D01*
G01X220516D02*
Y159268D01*
G01D02*
X212484D01*
G01Y162732D02*
Y159268D01*
G01X220516Y139232D02*
X212484D01*
G01X220516D02*
Y135768D01*
G01D02*
X212484D01*
G01Y139232D02*
Y135768D01*
G01X220516Y167232D02*
X212484D01*
G01X220516D02*
Y163768D01*
G01D02*
X212484D01*
G01Y167232D02*
Y163768D01*
G01X220516Y135232D02*
X212484D01*
G01X220516D02*
Y131768D01*
G01D02*
X212484D01*
G01Y135232D02*
Y131768D01*
G01X220516Y171732D02*
X212484D01*
G01X220516D02*
Y168268D01*
G01D02*
X212484D01*
G01Y171732D02*
Y168268D01*
G01X220516Y131232D02*
X212484D01*
G01X220516D02*
Y127768D01*
G01D02*
X212484D01*
G01Y131232D02*
Y127768D01*
G01X220516Y176232D02*
X212484D01*
G01X220516D02*
Y172768D01*
G01D02*
X212484D01*
G01Y176232D02*
Y172768D01*
G01X224268Y32512D02*
Y36016D01*
G01D02*
X227732D01*
G01D02*
Y32512D01*
G01X224268Y31488D02*
Y27984D01*
G01D02*
X227732D01*
G01D02*
Y31488D01*
G01Y39988D02*
Y36484D01*
G01D02*
X224268D01*
G01D02*
Y39988D01*
G01X227732Y41012D02*
Y44516D01*
G01X224268D02*
Y41012D01*
G01X223732Y35488D02*
Y31984D01*
G01Y36512D02*
Y40016D01*
G01X223768Y81512D02*
Y85016D01*
G01D02*
X227232D01*
G01D02*
Y81512D01*
G01X223768Y80488D02*
Y76984D01*
G01D02*
X227232D01*
G01D02*
Y80488D01*
G01X225232Y51988D02*
Y48484D01*
G01Y53012D02*
Y56516D01*
G01X227732Y44516D02*
X224268D01*
G01X231232Y80488D02*
Y76984D01*
G01D02*
X227768D01*
G01D02*
Y80488D01*
G01X231232Y81512D02*
Y85016D01*
G01D02*
X227768D01*
G01D02*
Y81512D01*
G01X235232Y76984D02*
Y85016D01*
G01Y76984D02*
X231768D01*
G01D02*
Y85016D01*
G01X235232D02*
X231768D01*
G01X225984Y57768D02*
X234016D01*
G01X225984D02*
Y61232D01*
G01D02*
X234016D01*
G01Y57768D02*
Y61232D01*
G01Y56232D02*
X225984D01*
G01X234016D02*
Y52768D01*
G01D02*
X225984D01*
G01Y56232D02*
Y52768D01*
G01X223232Y85016D02*
Y76984D01*
G01X233984Y163768D02*
X242016D01*
G01X233984D02*
Y167232D01*
G01D02*
X242016D01*
G01Y163768D02*
Y167232D01*
G01X233984Y145768D02*
X242016D01*
G01X233984D02*
Y149232D01*
G01D02*
X242016D01*
G01Y145768D02*
Y149232D01*
G01X233984Y168268D02*
X242016D01*
G01X233984D02*
Y171732D01*
G01D02*
X242016D01*
G01Y168268D02*
Y171732D01*
G01X233984Y150268D02*
X242016D01*
G01X233984D02*
Y153732D01*
G01D02*
X242016D01*
G01Y150268D02*
Y153732D01*
G01X233984Y154768D02*
X242016D01*
G01X233984D02*
Y158232D01*
G01D02*
X242016D01*
G01Y154768D02*
Y158232D01*
G01X233984Y159268D02*
X242016D01*
G01X233984D02*
Y162732D01*
G01D02*
X242016D01*
G01Y159268D02*
Y162732D01*
G01X233984Y176768D02*
X242016D01*
G01X233984D02*
Y180232D01*
G01D02*
X242016D01*
G01Y176768D02*
Y180232D01*
G01X233984Y172768D02*
X242016D01*
G01X233984D02*
Y176232D01*
G01D02*
X242016D01*
G01Y172768D02*
Y176232D01*
G54D13*
G01X39193Y18988D02*
Y12689D01*
X58878Y1272D01*
X106122D01*
X125807Y12689D01*
Y18791D01*
G54D14*
G01X58244Y124906D02*
Y113094D01*
G01D02*
X63756D01*
G01D02*
Y124906D01*
G01D02*
X58244D01*
G01X138094Y111756D02*
Y106244D01*
G01D02*
X149906D01*
G01Y111756D02*
X138094D01*
G01X136906Y100819D02*
Y103181D01*
G01D02*
G03X135331Y104756I-1575J0D01*
G01D02*
X133362D01*
G01X126669D02*
G03X125094Y103181I0J-1575D01*
G01D02*
Y100819D01*
G01D02*
G03X126669Y99244I1575J0D01*
G01D02*
X135331D01*
G01D02*
G03X136906Y100819I0J1575D01*
G01X133362Y104756D02*
X126669D01*
G01X136906Y94819D02*
Y97181D01*
G01D02*
G03X135331Y98756I-1575J0D01*
G01D02*
X133362D01*
G01X126669D02*
G03X125094Y97181I0J-1575D01*
G01D02*
Y94819D01*
G01D02*
G03X126669Y93244I1575J0D01*
G01D02*
X135331D01*
G01D02*
G03X136906Y94819I0J1575D01*
G01X133362Y98756D02*
X126669D01*
G01X144063Y135098D02*
Y188248D01*
G01D02*
X201937D01*
G01X114756Y130406D02*
X109244D01*
G01D02*
Y118594D01*
G01D02*
X114756D01*
G01D02*
Y130406D01*
G01X200094Y31756D02*
Y26244D01*
G01D02*
X211906D01*
G01D02*
Y31756D01*
G01D02*
X200094D01*
G01X149906Y106244D02*
Y111756D01*
G01X201937Y188248D02*
Y129587D01*
G01D02*
X183827D01*
G01X220150Y180075D02*
X213850D01*
Y176925D01*
X220150D01*
Y180075D01*
G01X236906Y129319D02*
Y131681D01*
G01D02*
G03X235331Y133256I-1575J0D01*
G01D02*
X233362D01*
G01X226669D02*
G03X225094Y131681I0J-1575D01*
G01D02*
Y129319D01*
G01D02*
G03X226669Y127744I1575J0D01*
G01D02*
X235331D01*
G01D02*
G03X236906Y129319I0J1575D01*
G01X233362Y133256D02*
X226669D01*
G54D15*
G01X129995Y138500D02*
G02I-494J0D01*
G01X201995Y108500D02*
G02I-495J0D01*
G54D16*
G01X128528Y140185D02*
X129315Y140972D01*
G01X127740Y140185D02*
X129315Y141760D01*
G01X123685Y140185D02*
Y145815D01*
X129315D01*
Y140185D01*
X123685D01*
G01X203685Y110472D02*
X204472Y109685D01*
G01X203685Y111260D02*
X205260Y109685D01*
G01X203685Y115315D02*
X209315D01*
Y109685D01*
X203685D01*
Y115315D01*
M02*
