G04 ================== begin FILE IDENTIFICATION RECORD ==================*
G04 Layout Name:  DEV_SUB_AUDIO_BRD_V1_1-20170606.brd*
G04 Film Name:    TOP*
G04 File Format:  Gerber RS274X*
G04 File Origin:  Cadence Allegro 16.6-S012*
G04 Origin Date:  Tue Jun 06 20:57:13 2017*
G04 *
G04 Layer:  VIA CLASS/TOP*
G04 Layer:  PIN/TOP*
G04 Layer:  ETCH/TOP*
G04 *
G04 Offset:    (0.00 0.00)*
G04 Mirror:    No*
G04 Mode:      Positive*
G04 Rotation:  0*
G04 FullContactRelief:  No*
G04 UndefLineWidth:     6.00*
G04 ================== end FILE IDENTIFICATION RECORD ====================*
%FSLAX25Y25*MOIN*%
%IR0*IPPOS*OFA0.00000B0.00000*MIA0B0*SFA1.00000B1.00000*%
%AMMACRO34*
4,1,40,-.01299,-.02638,
.01299,-.02638,
.013647,-.026278,
.014275,-.026064,
.014858,-.025744,
.015375,-.025328,
.015813,-.024828,
.016157,-.02426,
.016397,-.02364,
.016526,-.022988,
.01654,-.02283,
.01654,.02283,
.016438,.023487,
.016224,.024115,
.015904,.024698,
.015488,.025215,
.014988,.025653,
.01442,.025997,
.0138,.026237,
.013148,.026366,
.01299,.02638,
-.01299,.02638,
-.013647,.026278,
-.014275,.026064,
-.014858,.025744,
-.015375,.025328,
-.015813,.024828,
-.016157,.02426,
-.016397,.02364,
-.016526,.022988,
-.01654,.02283,
-.01654,-.02283,
-.016438,-.023487,
-.016224,-.024115,
-.015904,-.024698,
-.015488,-.025215,
-.014988,-.025653,
-.01442,-.025997,
-.0138,-.026237,
-.013148,-.026366,
-.01299,-.02638,
0.0*
%
%ADD34MACRO34*%
%ADD10C,.022*%
%ADD11C,.06*%
%ADD14C,.0315*%
%ADD13C,.056*%
%ADD35C,.03543*%
%ADD30C,.04724*%
%ADD12R,.056X.056*%
%ADD36C,.05906*%
%AMMACRO32*
4,1,38,-.01575,0.0,
-.01569,-.000684,
-.015512,-.001348,
-.015222,-.00197,
-.014828,-.002533,
-.014343,-.003018,
-.01378,-.003412,
-.013158,-.003702,
-.012494,-.00388,
-.01181,-.00394,
.01181,-.00394,
.012494,-.00388,
.013158,-.003702,
.01378,-.003412,
.014343,-.003018,
.014828,-.002533,
.015222,-.00197,
.015512,-.001348,
.01569,-.000684,
.01575,0.0,
.01569,.000684,
.015512,.001348,
.015222,.00197,
.014828,.002533,
.014343,.003018,
.01378,.003412,
.013158,.003702,
.012494,.00388,
.01181,.00394,
-.01181,.00394,
-.012494,.00388,
-.013158,.003702,
-.01378,.003412,
-.014343,.003018,
-.014828,.002533,
-.015222,.00197,
-.015512,.001348,
-.01569,.000684,
-.01575,0.0,
0.0*
%
%ADD32MACRO32*%
%AMMACRO22*
4,1,38,0.0,.01575,
-.000684,.01569,
-.001348,.015512,
-.00197,.015222,
-.002533,.014828,
-.003018,.014343,
-.003412,.01378,
-.003702,.013158,
-.00388,.012494,
-.00394,.01181,
-.00394,-.01181,
-.00388,-.012494,
-.003702,-.013158,
-.003412,-.01378,
-.003018,-.014343,
-.002533,-.014828,
-.00197,-.015222,
-.001348,-.015512,
-.000684,-.01569,
0.0,-.01575,
.000684,-.01569,
.001348,-.015512,
.00197,-.015222,
.002533,-.014828,
.003018,-.014343,
.003412,-.01378,
.003702,-.013158,
.00388,-.012494,
.00394,-.01181,
.00394,.01181,
.00388,.012494,
.003702,.013158,
.003412,.01378,
.003018,.014343,
.002533,.014828,
.00197,.015222,
.001348,.015512,
.000684,.01569,
0.0,.01575,
0.0*
%
%ADD22MACRO22*%
%ADD16C,.05984*%
%ADD37R,.05906X.05906*%
%ADD17R,.12598X.07087*%
%ADD15R,.05984X.05984*%
%ADD19O,.044X.08*%
%ADD29R,.01772X.0374*%
%ADD28R,.05118X.01772*%
%ADD25R,.02205X.02598*%
%ADD26R,.02598X.02205*%
%ADD33R,.0374X.03937*%
%ADD31R,.04724X.05906*%
%ADD21R,.13386X.13386*%
%ADD20R,.01772X.09055*%
%AMMACRO23*
4,1,38,.01575,0.0,
.01569,.000684,
.015512,.001348,
.015222,.00197,
.014828,.002533,
.014343,.003018,
.01378,.003412,
.013158,.003702,
.012494,.00388,
.01181,.00394,
-.01181,.00394,
-.012494,.00388,
-.013158,.003702,
-.01378,.003412,
-.014343,.003018,
-.014828,.002533,
-.015222,.00197,
-.015512,.001348,
-.01569,.000684,
-.01575,0.0,
-.01569,-.000684,
-.015512,-.001348,
-.015222,-.00197,
-.014828,-.002533,
-.014343,-.003018,
-.01378,-.003412,
-.013158,-.003702,
-.012494,-.00388,
-.01181,-.00394,
.01181,-.00394,
.012494,-.00388,
.013158,-.003702,
.01378,-.003412,
.014343,-.003018,
.014828,-.002533,
.015222,-.00197,
.015512,-.001348,
.01569,-.000684,
.01575,0.0,
0.0*
%
%ADD23MACRO23*%
%AMMACRO24*
4,1,38,0.0,-.01575,
.000684,-.01569,
.001348,-.015512,
.00197,-.015222,
.002533,-.014828,
.003018,-.014343,
.003412,-.01378,
.003702,-.013158,
.00388,-.012494,
.00394,-.01181,
.00394,.01181,
.00388,.012494,
.003702,.013158,
.003412,.01378,
.003018,.014343,
.002533,.014828,
.00197,.015222,
.001348,.015512,
.000684,.01569,
0.0,.01575,
-.000684,.01569,
-.001348,.015512,
-.00197,.015222,
-.002533,.014828,
-.003018,.014343,
-.003412,.01378,
-.003702,.013158,
-.00388,.012494,
-.00394,.01181,
-.00394,-.01181,
-.00388,-.012494,
-.003702,-.013158,
-.003412,-.01378,
-.003018,-.014343,
-.002533,-.014828,
-.00197,-.015222,
-.001348,-.015512,
-.000684,-.01569,
0.0,-.01575,
0.0*
%
%ADD24MACRO24*%
%ADD27R,.03937X.09843*%
%ADD18R,.06299X.03937*%
%ADD38C,.01*%
%ADD39C,.02*%
%ADD40C,.012*%
%ADD41C,.04*%
%ADD42C,.015*%
%ADD43C,.008*%
%ADD44C,.009*%
%ADD45C,.0067*%
%ADD52R,.07988X.07988*%
%ADD55C,.0791*%
%ADD51C,.07604*%
%ADD46C,.05516*%
%ADD49R,.14602X.0909*%
%ADD54R,.0594X.11846*%
%ADD53C,.07988*%
%ADD59C,.1*%
%ADD47C,.1117*%
%ADD58C,.11046*%
%ADD57C,.10198*%
%ADD48C,.11738*%
%ADD50R,.07604X.07604*%
%ADD56R,.07908X.07908*%
G75*
%LPD*%
G75*
G36*
G01X4000Y2000D02*
G02X2000Y4000I0J2000D01*
G01Y184976D01*
G02X4000Y186976I2000J0D01*
G01X37500D01*
Y175028D01*
X37378Y174976D01*
G03X37331Y172044I622J-1476D01*
G01X37448Y171991D01*
Y163689D01*
X37500D01*
Y155062D01*
X37448D01*
Y149948D01*
X25000Y137500D01*
Y133390D01*
G03Y129610I2000J-1890D01*
G01Y122208D01*
G03Y119792I2000J-1208D01*
G01Y108000D01*
X24500Y107500D01*
Y98845D01*
X23450Y97794D01*
X23376Y97788D01*
G03X20871Y90971I324J-3988D01*
G01X23403Y88438D01*
G02X23173Y87759I-283J-283D01*
G03X24064Y79823I527J-3959D01*
G02X24500Y79424I36J-398D01*
G01Y77802D01*
X23700D01*
G03Y69798I0J-4002D01*
G01X25202D01*
X34500Y60500D01*
X39341D01*
X39343Y60498D01*
X66502D01*
X67500Y59500D01*
Y57618D01*
G03Y54382I1000J-1618D01*
G01Y53118D01*
G03X67128Y50182I1000J-1618D01*
G02X67123Y49623I-288J-277D01*
G01X66500Y49000D01*
X45500D01*
X44000Y47500D01*
Y44500D01*
X44500Y44000D01*
X58604D01*
G02X58933Y43373I0J-400D01*
G03X62067I1567J-1078D01*
G02X62396Y44000I329J227D01*
G01X65345D01*
G02X65633Y43322I0J-400D01*
G03X67496Y40164I1367J-1322D01*
G02X68000Y39778I104J-386D01*
G01Y37000D01*
X85000D01*
X88163Y40164D01*
X101968D01*
X102804Y41000D01*
X116500D01*
X121498Y36002D01*
Y31171D01*
X123171Y29498D01*
X127829D01*
X130002Y31671D01*
Y34500D01*
X135168D01*
G02X135451Y33817I0J-400D01*
G01X132498Y30865D01*
Y19343D01*
X137135Y14706D01*
X139500D01*
Y14000D01*
X141141Y12359D01*
G02X141008Y11705I-283J-283D01*
G03X146205Y6508I1492J-3705D01*
G02X146859Y6641I371J-150D01*
G01X148000Y5500D01*
X148881D01*
G03X149020Y5348I1792J1499D01*
G01X151704Y2664D01*
X163968D01*
X166804Y5500D01*
X176500D01*
X178000Y7000D01*
X183000D01*
X183807Y6193D01*
X183822Y6154D01*
G03X184348Y5348I2178J847D01*
G01X186767Y2928D01*
X198233D01*
X199804Y4500D01*
X212000D01*
X212434Y4934D01*
X212494Y4946D01*
G03X214554Y7006I-494J2554D01*
G01X214566Y7066D01*
X215480Y7980D01*
X215591Y7951D01*
G03X217549Y9909I409J1549D01*
G01X217520Y10020D01*
X221500Y14000D01*
X236500D01*
X242000Y19500D01*
X244841D01*
X244943Y19398D01*
X252700D01*
G03X254500Y26974I0J4002D01*
G01Y29826D01*
G03X252700Y37402I-1800J3574D01*
G01X251257D01*
X247000Y41659D01*
Y42000D01*
X248101Y43101D01*
G02X248780Y42872I283J-283D01*
G03X249671Y45943I3920J527D01*
G02X249082Y45918I-306J258D01*
G01X248544Y46456D01*
Y47520D01*
X248542Y50018D01*
Y51200D01*
G02X249287Y51402I400J0D01*
G03Y55398I3413J1998D01*
G02X248542Y55600I-345J202D01*
G01Y56832D01*
X248000Y57373D01*
Y59000D01*
X247836Y59164D01*
Y103032D01*
X248081Y103277D01*
G02X248762Y103031I283J-283D01*
G03X256374Y104865I3938J370D01*
G02X256745Y105414I371J149D01*
G01X258018D01*
X262095Y109490D01*
X262192Y109478D01*
G03X265925Y115689I508J3922D01*
G01X265827Y115827D01*
X269500Y119500D01*
Y128196D01*
X269836Y128532D01*
Y137468D01*
X269500Y137804D01*
Y142000D01*
X266500Y145000D01*
X266319D01*
X266265Y145113D01*
G03X259083Y145000I-3565J-1713D01*
G01X256317D01*
G03X249992Y146282I-3617J-1600D01*
G01X249850Y146150D01*
X238750Y157250D01*
Y172250D01*
X237029Y173971D01*
Y182724D01*
X231089D01*
Y179000D01*
X213000D01*
X203000Y169000D01*
X189561D01*
G02X189231Y169625I1J400D01*
G03X182507Y176954I-4223J2875D01*
G02X181911Y177303I-196J349D01*
G01Y182724D01*
X175971D01*
Y170878D01*
X180164D01*
G03X180785Y169625I4845J1621D01*
G02X180455Y169000I-331J-225D01*
G01X158476D01*
G02X158137Y169612I0J400D01*
G03X148158Y173530I-4625J2888D01*
G02X147482Y173322I-393J75D01*
G01X138468Y182336D01*
X117032D01*
X114394Y179698D01*
G02X113711Y179981I-283J283D01*
G01Y182724D01*
X107771D01*
Y177500D01*
X105971D01*
X102796Y180675D01*
Y182139D01*
G03X101239Y184886I-3202J0D01*
G01Y186976D01*
X271591D01*
G02X273591Y184976I0J-2000D01*
G01Y4000D01*
G02X271591Y2000I-2000J0D01*
G01X4000D01*
G37*
G36*
G01X130000Y45000D02*
Y39000D01*
X130500Y38500D01*
X136000D01*
X136500Y39000D01*
Y44000D01*
X135500Y45000D01*
X130000D01*
G37*
G36*
G01X124500Y41000D02*
X127500D01*
X128000Y40500D01*
Y32500D01*
X127000Y31500D01*
X124000D01*
X123500Y32000D01*
Y40000D01*
X124500Y41000D01*
G37*
G36*
G01X186500Y54500D02*
X195500D01*
X196000Y54000D01*
Y51000D01*
X195500Y50500D01*
X186500D01*
X186000Y51000D01*
Y54000D01*
X186500Y54500D01*
G37*
G36*
G01X184000Y100500D02*
X183101Y101399D01*
Y104101D01*
X183500Y104500D01*
X186462D01*
X188999Y101963D01*
Y98500D01*
X188499Y98000D01*
X184000D01*
Y100500D01*
G37*
G36*
G01X179500Y87502D02*
Y90500D01*
X178500Y91500D01*
X172500D01*
X171000Y93000D01*
X167500D01*
Y95300D01*
X170000D01*
X170700Y96000D01*
X181998D01*
Y95998D01*
X185748D01*
Y92748D01*
X184601Y91601D01*
X184559Y91586D01*
G03X183666Y91051I942J-2585D01*
G01X183609Y91000D01*
X183000D01*
Y90192D01*
X182983Y90112D01*
Y90111D01*
G03Y87889I2517J-1111D01*
G01X183000Y87850D01*
Y87502D01*
X179500D01*
G37*
G36*
G01X192500Y48000D02*
Y46500D01*
Y44000D01*
X192000Y43500D01*
X189500D01*
X187500D01*
X187000D01*
X186500Y44000D01*
Y48000D01*
X187000Y48500D01*
X192000D01*
X192500Y48000D01*
G37*
%LPC*%
G75*
G54D52*
X13700Y93800D03*
G54D55*
X262700Y43400D03*
Y33400D03*
Y23400D03*
Y63400D03*
X252700D03*
X262700Y83400D03*
Y93400D03*
X252700D03*
X262700Y103400D03*
X252700Y83400D03*
Y73400D03*
X262700D03*
Y53400D03*
Y163400D03*
X252700Y153400D03*
X262700D03*
G54D51*
X14500Y13500D03*
G54D46*
X51004Y9736D03*
X113996D03*
G54D49*
X11677Y159572D03*
Y179257D03*
G54D54*
X165859Y176801D03*
G54D53*
X23700Y53800D03*
X13700Y83800D03*
Y73800D03*
Y63800D03*
X23700D03*
X13700Y53800D03*
G54D59*
X11500Y110000D03*
G54D47*
X29000Y177289D03*
G54D58*
X31500Y8500D03*
G54D57*
X248500Y180500D03*
G54D48*
X29000Y153667D03*
G54D50*
X14500Y23500D03*
G54D56*
X252700Y163400D03*
%LPD*%
G75*
G54D10*
X3600Y5376D03*
Y15376D03*
Y25376D03*
Y35376D03*
Y45376D03*
Y55376D03*
Y65376D03*
Y75376D03*
Y85376D03*
Y95376D03*
Y105376D03*
Y115376D03*
Y125376D03*
Y135376D03*
Y145376D03*
Y155376D03*
Y165376D03*
Y175376D03*
Y185376D03*
X43500Y13500D03*
X63600Y13376D03*
X73600D03*
X25000Y27000D03*
Y17000D03*
X35000D03*
Y27000D03*
X35500Y36500D03*
X73600Y5376D03*
X63600D03*
X53600D03*
X38500Y5500D03*
X13600Y5376D03*
X61500Y32500D03*
X72854Y18146D03*
X67343Y18157D03*
X59000Y18500D03*
X42539Y31961D03*
X70098Y32402D03*
X29740Y39240D03*
X60500Y42295D03*
X67000Y42000D03*
X70500Y39396D03*
X64000Y90000D03*
X64500Y86500D03*
X19000Y105000D03*
X67825Y83674D03*
X74500Y116500D03*
X10000Y60000D03*
Y70000D03*
Y80000D03*
X9000Y89500D03*
X60000Y103500D03*
Y108500D03*
X46250Y112250D03*
X75000Y103500D03*
X65000Y75000D03*
X56124Y58600D03*
X34124Y59100D03*
X44124D03*
X38500Y93500D03*
X57500Y50000D03*
X63500D03*
X38000Y115500D03*
X60000Y92500D03*
X75000Y93000D03*
X60500Y86000D03*
X43000Y106500D03*
X55000Y96000D03*
X48000Y81500D03*
X68500Y56000D03*
X76000Y50500D03*
X68500Y51500D03*
X56500Y88500D03*
X66000Y80000D03*
X47500Y46500D03*
X45000Y132278D03*
X50000Y136000D03*
X65500Y138500D03*
X49000Y157000D03*
X42500D03*
X56900Y122150D03*
X70795Y138795D03*
X34000Y142500D03*
X20000Y137500D03*
X54000Y139458D03*
X10000Y117500D03*
Y127500D03*
Y137500D03*
Y147500D03*
X15000Y170000D03*
X27500Y160500D03*
Y170000D03*
X20000Y147500D03*
X13000Y185376D03*
X23000D03*
X33000D03*
X52500Y157000D03*
X54000Y183500D03*
X57500Y178500D03*
X36500Y181500D03*
X57500Y171000D03*
Y166500D03*
X75205Y138705D03*
Y124205D03*
X58500Y134500D03*
X27000Y126000D03*
X38000Y173500D03*
X40000Y159446D03*
X46000Y159000D03*
X29500Y142500D03*
X39000D03*
X57500Y155000D03*
X47500Y130500D03*
Y138500D03*
X53000Y122000D03*
X61500Y143000D03*
X56500Y118500D03*
X58500Y131500D03*
X27000Y121000D03*
Y131500D03*
X131000Y40000D03*
X135000D03*
X142000Y20000D03*
Y16000D03*
X150672Y7000D03*
X149672Y24500D03*
X123500Y13000D03*
X146500Y35000D03*
X140000Y28500D03*
X135000Y13000D03*
X131000Y20500D03*
X93600Y13376D03*
X103600D03*
X83600D03*
X143000Y31500D03*
X140000Y24500D03*
X131898Y27500D03*
X133600Y5376D03*
X123600D03*
X113600D03*
X103600D03*
X93600D03*
X83600D03*
X119705Y31795D03*
X122461Y18039D03*
X121000Y39000D03*
X100000Y32500D03*
X86500Y18000D03*
X103000D03*
X97500D03*
X108500D03*
X83878Y32378D03*
X105500Y33000D03*
X108000Y39500D03*
X98795Y39295D03*
X147672Y10000D03*
X125500Y34000D03*
Y38400D03*
X110500Y99500D03*
X147000Y78000D03*
X143104Y78396D03*
X125000Y89500D03*
X140000D03*
X142500Y83500D03*
X134735Y83000D03*
X135000Y89500D03*
X88000Y116000D03*
X81500Y112000D03*
X138000Y94800D03*
X151000Y79100D03*
X146500Y56265D03*
X126500Y114300D03*
X101500Y75000D03*
X95000Y103500D03*
X136000Y57500D03*
X103000Y103500D03*
X87500Y75000D03*
X120000Y108500D03*
X114000Y113500D03*
X114500Y79000D03*
X112000Y108500D03*
X80500Y50500D03*
X85000Y114000D03*
X120000Y73500D03*
X128000Y65500D03*
X110000Y82500D03*
X86500D03*
X106000Y108500D03*
X128500Y90000D03*
X120500Y89500D03*
X105500Y93000D03*
X86500D03*
X144000Y113000D03*
X136000Y110000D03*
X78500Y108500D03*
X132500Y78000D03*
X150500Y64795D03*
X122500Y103500D03*
X142500Y104503D03*
X142000Y100500D03*
X146000Y105000D03*
X123500Y96000D03*
X107500Y64500D03*
X84500Y77500D03*
X96000Y58500D03*
X106500Y59500D03*
X103500Y50000D03*
X89500D03*
X104000Y45500D03*
X109000Y78000D03*
X111000Y60000D03*
X115765Y54000D03*
X93500Y50000D03*
X120000Y133500D03*
X135000Y137000D03*
X115500Y177500D03*
X118000Y136500D03*
X126500Y138500D03*
X143000Y150000D03*
X139000D03*
X92500Y140000D03*
X89000Y142500D03*
X81000D03*
X133500Y171000D03*
X151000Y160000D03*
Y155000D03*
X150000Y121000D03*
X134500Y124500D03*
X103247Y127500D03*
X103000Y117500D03*
Y122500D03*
X120500Y118300D03*
X87500Y123500D03*
X142500Y127500D03*
X141000Y145000D03*
X145000Y180000D03*
X91000Y118000D03*
X146500Y185376D03*
X136500D03*
X126500D03*
X116500D03*
X106500D03*
X140500Y138500D03*
X132905Y147405D03*
X126500Y147500D03*
X121000Y146500D03*
X151000Y149500D03*
X121500Y158500D03*
X132500Y165000D03*
X79500Y121500D03*
X91000Y127500D03*
X105000Y164500D03*
X136500Y155000D03*
X101000Y174000D03*
X121000Y139500D03*
X132000Y141500D03*
X78500Y127500D03*
X111000Y117500D03*
X106500Y175500D03*
X122000Y143000D03*
X121000Y171000D03*
Y177500D03*
X127500Y171000D03*
Y177500D03*
X176000Y33000D03*
X183500Y23500D03*
X186000Y7000D03*
X212000Y7500D03*
X196000D03*
X198500Y26500D03*
X175500Y7500D03*
X161500Y7000D03*
X162500Y29500D03*
X215500Y17000D03*
X166249Y25750D03*
X182500Y5500D03*
X221500Y42000D03*
X196000Y11000D03*
X180104Y12000D03*
X163000Y21000D03*
X159760Y23588D03*
X162672Y11500D03*
X207500Y7500D03*
X158172Y7000D03*
X167000Y7500D03*
X165500Y34000D03*
X206500Y32500D03*
X179267Y29170D03*
X186000Y40000D03*
X175500Y24500D03*
X196500Y19735D03*
X207500Y42500D03*
X220000Y21000D03*
X223000Y29500D03*
X216000Y9500D03*
X209200Y24000D03*
X193000Y25000D03*
X180500Y21500D03*
X191672Y7200D03*
X224000Y26500D03*
X178500Y5500D03*
X176000Y29500D03*
X200000Y42000D03*
X195396Y41900D03*
X170000Y36000D03*
X175000Y104000D03*
X174331Y106831D03*
X169500Y105000D03*
X166000D03*
X191000Y52000D03*
X187000D03*
X165800Y75000D03*
X161100Y71500D03*
X209150Y45000D03*
X202000Y112500D03*
X222205Y116795D03*
Y112705D03*
X169278Y97078D03*
X156000Y56265D03*
X161164Y74336D03*
X182000Y117000D03*
X188000D03*
X210000Y93500D03*
X185500Y89000D03*
X165900Y71735D03*
X174500Y77500D03*
X178500Y80500D03*
X212000Y108500D03*
X222795Y108295D03*
X211500Y113500D03*
X198500Y56000D03*
X196000Y73000D03*
X199000Y90724D03*
X194000Y91100D03*
X187500Y102500D03*
X184000D03*
X154000Y113000D03*
X199000Y102500D03*
X204000Y107000D03*
X194000Y102500D03*
X204071Y92429D03*
X154843Y64780D03*
X203500Y70000D03*
X156500Y78500D03*
Y108500D03*
X153000Y110000D03*
X199500Y73000D03*
X214000Y83000D03*
X207000Y73000D03*
X218500Y59000D03*
X191500Y47000D03*
X188500Y45000D03*
X221500Y86500D03*
X190443Y126966D03*
X210500Y147000D03*
X222500Y163000D03*
X192000Y173000D03*
X186500Y179000D03*
X171500Y180000D03*
Y170500D03*
X160000Y171000D03*
X166000Y155000D03*
X161500Y160000D03*
X172000D03*
X203500D03*
X194500D03*
X182500D03*
X168500Y146500D03*
X194500Y153000D03*
X182000D03*
X203500D03*
X152500Y141500D03*
X160500Y149500D03*
X203500Y147500D03*
X192000Y133000D03*
X197500Y177376D03*
X207500D03*
X160000Y180000D03*
X152500D03*
X216500Y185376D03*
X206500D03*
X196500D03*
X186500D03*
X176500D03*
X166500D03*
X156500D03*
X182500Y147500D03*
X195500D03*
X172500Y142500D03*
X212000Y178500D03*
X222500Y156000D03*
Y141500D03*
Y151000D03*
X223000Y147000D03*
X222500Y123000D03*
X216500Y124500D03*
X159000Y135000D03*
X204500Y124500D03*
X191500Y121500D03*
X195000Y127500D03*
X222500Y173500D03*
X234800Y24500D03*
X238004Y20996D03*
X250000Y28000D03*
X243500Y16000D03*
X248500Y17798D03*
X253600Y5376D03*
X272100Y43376D03*
Y33376D03*
Y23376D03*
Y13376D03*
Y3376D03*
X248500Y41500D03*
X237500Y18000D03*
X232500Y87000D03*
X242004Y50000D03*
X246000Y45500D03*
X238000Y79500D03*
X230500Y48000D03*
X225500Y114500D03*
X243000Y102000D03*
Y95500D03*
Y79500D03*
Y85500D03*
X238000Y95500D03*
Y102000D03*
X240000Y109000D03*
X272100Y113376D03*
Y103376D03*
Y93376D03*
Y83376D03*
Y73376D03*
Y63376D03*
Y53376D03*
X240500Y53500D03*
X243735Y47500D03*
X238000Y63000D03*
X227000Y50000D03*
X248500Y100500D03*
Y87000D03*
Y81000D03*
Y117000D03*
X243000Y59000D03*
X248000Y110000D03*
X225000Y88000D03*
X235500Y59000D03*
X228000Y63500D03*
X224500Y59500D03*
X227000Y141500D03*
X231500Y157000D03*
X238500Y130000D03*
X256500Y176876D03*
X266500D03*
X272100Y173376D03*
Y163376D03*
Y153376D03*
Y143376D03*
Y133376D03*
Y123376D03*
X266500Y185376D03*
X256500D03*
X236500D03*
X226500D03*
X240000Y138500D03*
X236733Y124520D03*
X232500Y124500D03*
Y152000D03*
X231500Y165500D03*
Y161000D03*
G54D20*
X149952Y16600D03*
X193492Y16800D03*
X183452D03*
X209192Y16900D03*
X199152D03*
X159992Y16600D03*
X175692D03*
X165652D03*
G54D11*
X31500Y8500D03*
X11500Y110000D03*
X248500Y180500D03*
G54D21*
X155568Y92582D03*
G54D12*
X14500Y23500D03*
G54D30*
X224316Y17600D03*
X232190D03*
G54D40*
G01X13700Y69606D02*
Y73800D01*
G01D02*
Y77994D01*
G01X9506Y73800D02*
X13700D01*
G01D02*
X17894D01*
G01X13700Y79606D02*
Y83800D01*
G01D02*
Y87994D01*
G01X9506Y83800D02*
X13700D01*
G01D02*
X17894D01*
G01X13700Y89606D02*
Y93800D01*
G01D02*
Y97994D01*
G01X9506Y93800D02*
X13700D01*
G01D02*
X17894D01*
G01X147672Y10000D02*
Y10500D01*
G01X149952Y16600D02*
Y12780D01*
X147672Y10500D01*
G01X167000Y3500D02*
X166500Y3000D01*
X150000D01*
G01X142500Y3806D02*
Y8000D01*
G01X138306D02*
X142500D01*
G01X140500Y94000D02*
X139700Y94800D01*
X138000D01*
G01X196000Y7500D02*
X195804D01*
X190145Y13159D01*
Y14143D01*
G01X205845Y19557D02*
Y14243D01*
G01X212000Y7500D02*
X211603D01*
X205845Y13258D01*
Y14243D01*
G01X175500Y7500D02*
X175501Y9701D01*
Y9803D01*
X172345Y12959D01*
Y13943D01*
G01X161500Y7000D02*
X159944Y8556D01*
Y9660D01*
X156645Y12959D01*
Y13943D01*
G01X172345Y19257D02*
Y13943D01*
G01X204172Y23888D02*
X208888D01*
X209000Y24000D01*
X209200D01*
G01X207500Y7500D02*
Y8272D01*
X205860Y9912D01*
X204172D01*
G01X180104Y12000D02*
X182472D01*
X183452Y12980D01*
Y16800D01*
G01X163000Y21000D02*
X160672D01*
X159992Y20320D01*
Y16600D01*
G01X154972Y23588D02*
X159760D01*
G01X167000Y7500D02*
X169110Y9610D01*
X170670D01*
X170672Y9612D01*
G01X209192Y16900D02*
Y13308D01*
X211000Y11500D01*
X214000D01*
X216000Y9500D01*
G01X175692Y16600D02*
Y19692D01*
X177500Y21500D01*
X180500D01*
G01X175500Y24500D02*
X174588Y23588D01*
X170672D01*
G01X159760D02*
Y23356D01*
X156645Y20241D01*
Y19257D01*
G01X162672Y11500D02*
X163672D01*
X165652Y13480D01*
Y16600D01*
G01X193000Y25000D02*
Y23296D01*
X190145Y20441D01*
Y19457D01*
G01X196000Y11000D02*
X196500D01*
X199152Y13652D01*
Y16900D01*
G01X170672Y23588D02*
X168411D01*
X166249Y25750D01*
G01X209192Y23808D02*
Y16900D01*
G01X193000Y25000D02*
X191500D01*
X190288Y23788D01*
X188472D01*
G01X177200Y105775D02*
Y107730D01*
X173930Y111000D01*
X162200D01*
X161000Y109800D01*
Y108700D01*
G01X177200Y99205D02*
X173200D01*
G01X177200D02*
Y105775D01*
G01X180500Y104300D02*
Y107542D01*
X174812Y113230D01*
X161230D01*
X159000Y111000D01*
Y109388D01*
G01X181200Y99205D02*
X180500Y99905D01*
Y104300D01*
G01X262700Y19245D02*
Y23400D01*
G01D02*
Y27555D01*
G01X258545Y23400D02*
X262700D01*
G01D02*
X266855D01*
G01X262700Y29245D02*
Y33400D01*
G01D02*
Y37555D01*
G01X258545Y33400D02*
X262700D01*
G01D02*
X266855D01*
G01X262700Y39245D02*
Y43400D01*
G01Y49245D02*
Y53400D01*
G01D02*
Y57555D01*
G01X258545Y53400D02*
X262700D01*
G01D02*
X266855D01*
G01X262700Y43400D02*
Y47555D01*
G01X258545Y43400D02*
X262700D01*
G01D02*
X266855D01*
G54D31*
X170000Y31299D03*
X191000D03*
X212000D03*
X170000Y68701D03*
X191000D03*
X212000D03*
X233000Y31299D03*
Y68701D03*
Y81299D03*
Y118701D03*
G54D22*
X150056Y82739D03*
X148481D03*
X162655D03*
X161080D03*
X159505D03*
X157930D03*
X156355D03*
X154781D03*
X153206D03*
X151631D03*
G54D13*
X14500Y13500D03*
G54D41*
G01X132500Y44000D02*
Y54500D01*
X116000Y71000D01*
X46500D01*
X23700Y93800D01*
G01Y73800D02*
X31700D01*
X41000Y64500D01*
X107500D01*
G01X125500Y34000D02*
Y38400D01*
G01X107500Y64500D02*
X113000D01*
X125500Y52000D01*
Y38400D01*
G01X252700Y33400D02*
X249600D01*
X235500Y47500D01*
Y51000D01*
X231500Y55000D01*
X214500D01*
X209000Y60500D01*
X196500D01*
X193000Y57000D01*
Y54000D01*
G01X190500Y46500D02*
X199500D01*
X202000Y49000D01*
X220500D01*
X226500Y43000D01*
X232244D01*
X242000Y33244D01*
Y28000D01*
X246600Y23400D01*
X252700D01*
G01X190171Y46171D02*
X190500Y46500D01*
G54D23*
X145725Y85495D03*
Y87070D03*
Y88645D03*
Y90220D03*
Y91795D03*
Y93369D03*
Y94944D03*
Y96519D03*
Y98094D03*
Y99669D03*
G54D32*
X165411D03*
Y98094D03*
Y96519D03*
Y94944D03*
Y93369D03*
Y91795D03*
Y90220D03*
Y88645D03*
Y87070D03*
Y85495D03*
G54D14*
X51004Y9736D03*
X113996D03*
G54D42*
G01X38000Y115500D02*
Y134000D01*
X29500Y142500D01*
G01X38000Y115500D02*
Y111500D01*
X43000Y106500D01*
G01X86500Y93000D02*
X75000D01*
G01D02*
X60500D01*
X60000Y92500D01*
G01D02*
Y86500D01*
X60500Y86000D01*
G01X67825Y83674D02*
X62826D01*
X60500Y86000D01*
G01X86500Y82500D02*
X68999D01*
X67825Y83674D01*
G01X57500Y178500D02*
Y171000D01*
G01D02*
Y166500D01*
G01X58500Y131500D02*
Y134500D01*
G01X57500Y166500D02*
Y155000D01*
G01X27000Y126000D02*
X27187Y126187D01*
X32780D01*
G01X61500Y143000D02*
X60000D01*
X57500Y145500D01*
Y155000D01*
G01X58500Y134500D02*
Y134958D01*
X54000Y139458D01*
G01X39000Y142500D02*
X36000Y145500D01*
X31500D01*
G01X36500Y181500D02*
X36774Y181226D01*
G01X31500Y145500D02*
X29500Y143500D01*
Y142500D01*
G01X36774Y181226D02*
X44748D01*
G01X32780Y131187D02*
X27313D01*
X27000Y131500D01*
G01X140000Y24500D02*
Y28500D01*
G01X146500Y35000D02*
Y56265D01*
G01Y35000D02*
X143000Y31500D01*
G01D02*
X140000Y28500D01*
G01X147672Y5328D02*
Y10000D01*
G01X150000Y3000D02*
X147672Y5328D01*
G01X150500Y64795D02*
X141205D01*
X132500Y73500D01*
Y78000D01*
G01X142500Y104503D02*
X141353Y105650D01*
X124650D01*
X122500Y103500D01*
G01X120500Y89500D02*
X117000Y93000D01*
X105500D01*
G01X128000Y65500D02*
X120000Y73500D01*
G01X106000Y108500D02*
X78500D01*
G01X112000D02*
X106000D01*
G01X114500Y79000D02*
X120000Y73500D01*
G01X120500Y89500D02*
X132000Y78000D01*
X132500D01*
G01X150500Y64795D02*
X151500Y65795D01*
Y68295D01*
G01X105500Y93000D02*
X86500D01*
G01X114500Y79000D02*
X111000Y82500D01*
X110000D01*
G01D02*
X86500D01*
G01X101500Y75000D02*
X110500D01*
X114500Y79000D01*
G01X101500Y75000D02*
X87500D01*
G01X128000Y65500D02*
X136000Y57500D01*
G01X146500Y56265D02*
Y58001D01*
X150500Y62001D01*
Y64795D01*
G01X143000Y150000D02*
X146500Y146500D01*
X160000D01*
X165859Y140641D01*
Y137431D01*
G01X110741D02*
Y140741D01*
X120500Y150500D01*
X138500D01*
X139000Y150000D01*
G01X151000Y149500D02*
X147500D01*
X142000Y155000D01*
X136500D01*
G01D02*
X125000D01*
X121500Y158500D01*
G01X121000Y139500D02*
X118500Y142000D01*
G01X126595Y147405D02*
X121905D01*
X121000Y146500D01*
G01X126500Y147500D02*
X126595Y147405D01*
G01X106500Y175500D02*
Y185376D01*
G01X126595Y147405D02*
X132905D01*
G01X118500Y142000D02*
Y144000D01*
X121000Y146500D01*
G01X132500Y165000D02*
X137950D01*
X147950Y155000D01*
X151000D01*
G01X180104Y12000D02*
Y7104D01*
X178500Y5500D01*
G01X180104Y12000D02*
Y21104D01*
X180500Y21500D01*
G01X175500Y24500D02*
X177766D01*
G01D02*
X179000D01*
X180500Y23000D01*
Y21500D01*
G01X177766Y24500D02*
X179267Y26001D01*
Y29170D01*
G01X193492Y16800D02*
Y13508D01*
X196000Y11000D01*
G01X158000Y33500D02*
X156000Y35500D01*
Y56265D01*
G01X165500Y34000D02*
Y36000D01*
X165900Y36400D01*
Y38500D01*
G01D02*
Y52901D01*
X170000Y57001D01*
Y68701D01*
G01X179267Y29170D02*
X181000Y30903D01*
Y58701D01*
X191000Y68701D01*
G01X222795Y108295D02*
X212205D01*
X212000Y108500D01*
G01D02*
X211500Y109000D01*
Y113500D01*
G01X194000Y102500D02*
Y91100D01*
G01X199000Y90724D02*
Y102500D01*
G01X204000Y107000D02*
X204071Y106929D01*
Y92429D01*
G01X212000Y108500D02*
X206000D01*
X204500Y107000D01*
X204000D01*
G01X187500Y102500D02*
X188500Y101500D01*
G01D02*
Y91500D01*
X186000Y89000D01*
X185500D01*
G01X204000Y107000D02*
X203500Y107500D01*
X202501D01*
X195000Y115001D01*
Y117350D01*
X194850Y117500D01*
G01X204500Y124500D02*
X205000Y124000D01*
Y120000D01*
X211500Y113500D01*
G01X225500Y114500D02*
Y111000D01*
X222795Y108295D01*
G01X155700Y68295D02*
Y65637D01*
X154843Y64780D01*
G01X165900Y71735D02*
X166966D01*
X170000Y68701D01*
G01X212000D02*
X204799D01*
X203500Y70000D01*
G01X174500Y77500D02*
X178307Y73693D01*
X186008D01*
X191000Y68701D01*
G01X227000Y141500D02*
X224150Y144350D01*
X213150D01*
X210500Y147000D01*
G01X222500Y163000D02*
X210500Y151000D01*
Y147000D01*
G01X151000Y149500D02*
X151500Y150000D01*
X160500D01*
Y149500D01*
G01X194850Y117500D02*
X191500Y120850D01*
Y121500D01*
G01X222500Y123000D02*
X218000D01*
X216500Y124500D01*
G01D02*
Y128000D01*
X219000Y130500D01*
X238000D01*
X238500Y130000D01*
G01X182500Y147500D02*
X195500D01*
G01X203500D02*
X205000D01*
X211000Y141500D01*
X222500D01*
G01X172500Y142500D02*
X177500Y147500D01*
X182500D01*
G01X168500Y146500D02*
X172500Y142500D01*
G01X195500Y147500D02*
X203500D01*
G01X194500Y160000D02*
X203500D01*
G01X182500D02*
X194500D01*
G01X172000D02*
X182500D01*
G01X161500D02*
X172000D01*
G01X151000D02*
X161500D01*
G01X182000Y153000D02*
X176500D01*
X174500Y155000D01*
X166000D01*
G01X194500Y153000D02*
X203500D01*
G01X182000D02*
X194500D01*
G01X166000Y155000D02*
X151000D01*
G01X192000Y133000D02*
X201500D01*
X204500Y130000D01*
Y124500D01*
G01X160500Y149500D02*
X165500D01*
X168500Y146500D01*
G01X225500Y114500D02*
Y120000D01*
X222500Y123000D01*
G01X237500Y18000D02*
Y20492D01*
X238004Y20996D01*
G01X243000Y79500D02*
Y59000D01*
G01Y85500D02*
Y95500D01*
G01Y79500D02*
Y85500D01*
G01X238000Y102000D02*
Y95500D01*
G01X243000D02*
Y102000D01*
G01X248000Y110000D02*
X243000Y105000D01*
Y102000D01*
G01X240000Y109000D02*
X248000Y117000D01*
X248500D01*
G01X238000Y102000D02*
Y107000D01*
X240000Y109000D01*
G01X238000Y95500D02*
Y79500D01*
G01X233000Y68701D02*
X238000Y63701D01*
Y63000D01*
G01Y79500D02*
Y73701D01*
X233000Y68701D01*
G01X240000Y138500D02*
Y131500D01*
X238500Y130000D01*
G01X236733Y124520D02*
Y122434D01*
X233000Y118701D01*
G54D24*
X148481Y102425D03*
X150056D03*
X151631D03*
X153206D03*
X154781D03*
X156355D03*
X157930D03*
X159505D03*
X161080D03*
X162655D03*
G54D33*
X201150Y117500D03*
X194850D03*
X175350Y88500D03*
X181650D03*
G54D15*
X13700Y93800D03*
G54D43*
G01X158000Y33500D02*
X155500D01*
X147672Y25672D01*
Y10500D01*
G01X145725Y93369D02*
X141131D01*
X140500Y94000D01*
G01X142000Y99110D02*
Y100500D01*
G01Y99110D02*
X143016Y98094D01*
X145725D01*
G01X146000Y105000D02*
X147500D01*
X148481Y104019D01*
Y102425D01*
G01X162655Y82739D02*
Y82000D01*
X163655Y81000D01*
G01X158000Y33500D02*
Y30500D01*
X162750Y25750D01*
X166249D01*
G01X209200Y24000D02*
X209192Y23992D01*
Y23808D01*
G01X220000Y21000D02*
X214000D01*
X211000Y24000D01*
X209200D01*
G01X165900Y38500D02*
X172500D01*
X173562Y37438D01*
Y27438D01*
X175500Y25500D01*
Y24500D01*
G01X220000Y21000D02*
X220500Y21500D01*
X237500D01*
X238004Y20996D01*
G01X167000Y83700D02*
Y84695D01*
X166200Y85495D01*
X165411D01*
G01X164413Y106912D02*
X163799Y106298D01*
Y105753D01*
X162655Y104609D01*
Y102425D01*
G01X161080D02*
Y105580D01*
X162300Y106800D01*
Y107628D01*
X162999Y108327D01*
G01X169500Y105000D02*
Y100254D01*
X169123Y99877D01*
G01D02*
X167340Y98094D01*
X165411D01*
G01X166000Y105000D02*
X167700Y103300D01*
Y101000D01*
X166369Y99669D01*
X165411D01*
G01X157930Y80323D02*
Y82739D01*
G01X161080D02*
Y80920D01*
G01X154500Y77000D02*
Y80000D01*
X154781Y80281D01*
Y82739D01*
G01X154500Y77000D02*
X154750Y76750D01*
G01X169278Y97078D02*
X168719Y96519D01*
X165411D01*
G01X151631Y82739D02*
Y79731D01*
X151000Y79100D01*
G01X153000Y78500D02*
Y76794D01*
X152500Y76294D01*
G01X153000Y78500D02*
Y79501D01*
X153200Y79701D01*
Y80539D01*
X153206Y80545D01*
Y82739D01*
G01X161000Y108700D02*
Y107500D01*
X160000Y106500D01*
G01D02*
X159505Y106005D01*
Y102425D01*
G01X178500Y80500D02*
X189483D01*
X199000Y90017D01*
Y90724D01*
G01X165411Y94944D02*
X167944D01*
G01X165411Y93369D02*
X167869D01*
G01X156500Y78500D02*
X156355Y78645D01*
Y82739D01*
G01Y102425D02*
Y108355D01*
X156500Y108500D01*
G01X159000Y109388D02*
Y107480D01*
G01D02*
X157930Y106410D01*
Y102425D01*
G01X170500Y89980D02*
X168685Y91795D01*
G01D02*
X165411D01*
G01X248500Y41500D02*
X246501D01*
X243500Y44501D01*
Y47265D01*
X243735Y47500D01*
G01X249000Y59500D02*
X248500Y59000D01*
Y41500D01*
G01X224000Y26500D02*
X224500Y27000D01*
X237000D01*
X239000Y25000D01*
Y21992D01*
X238004Y20996D01*
G01X240500Y53500D02*
X238500Y55500D01*
Y62500D01*
X238000Y63000D01*
G01X243735Y47500D02*
X240309D01*
X239500Y48309D01*
Y52500D01*
X240500Y53500D01*
G01X243000Y59000D02*
Y56615D01*
X244470Y55145D01*
Y50016D01*
X244472Y48237D01*
X243735Y47500D01*
G54D25*
X133000Y98295D03*
Y102705D03*
X146500Y68295D03*
Y72705D03*
X142500Y68295D03*
Y72705D03*
X181200Y94795D03*
Y99205D03*
X155700Y72705D03*
Y68295D03*
X151500Y72705D03*
Y68295D03*
X173200Y99205D03*
Y94795D03*
X177200D03*
Y99205D03*
X185500D03*
Y94795D03*
G54D16*
X13700Y83800D03*
Y73800D03*
Y63800D03*
Y53800D03*
X23700D03*
Y63800D03*
Y73800D03*
Y83800D03*
Y93800D03*
X29000Y177289D03*
Y153667D03*
X142500Y8000D03*
X158000Y33500D03*
G54D34*
X206642Y78500D03*
X199358D03*
G54D44*
G01X154781Y106719D02*
Y102425D01*
G01Y106719D02*
X153000Y108500D01*
Y110000D01*
G54D26*
X129295Y94500D03*
X133705D03*
X201205Y122500D03*
X196795D03*
G54D17*
X11677Y179257D03*
X44748Y168234D03*
X11677Y159572D03*
X44748Y150517D03*
Y181226D03*
G54D35*
X153512Y172500D03*
X185008D03*
G54D45*
G01X70500Y39396D02*
X73604Y42500D01*
X101000D01*
X104000Y45500D01*
G01X56500Y88500D02*
Y85000D01*
X64000Y77500D01*
X84500D01*
G01X66000Y80000D02*
X107000D01*
X109000Y78000D01*
G01X47500Y46500D02*
X68000D01*
X77500Y56000D01*
X107000D01*
X111000Y60000D01*
G01X169000Y83500D02*
X171500Y81000D01*
X173000D01*
G01X32780Y121187D02*
X27187D01*
X27000Y121000D01*
G01X149672Y24500D02*
Y23868D01*
X153299Y20241D01*
Y19257D01*
G01X149672Y24500D02*
X150937Y25765D01*
X160320D01*
X162585Y23500D01*
X165740D01*
X168999Y20241D01*
Y19257D01*
G01X150056Y81056D02*
X147000Y78000D01*
G01X146500Y72705D02*
Y77500D01*
X147000Y78000D01*
G01X148481Y82739D02*
Y81482D01*
X147499Y80500D01*
X145208D01*
X143104Y78396D01*
G01X142500Y72705D02*
Y77792D01*
X143104Y78396D01*
G01X141500Y88000D02*
X139000Y85500D01*
X129000D01*
X125000Y89500D01*
G01X145725Y88645D02*
X142145D01*
X141500Y88000D01*
G01X140000Y89500D02*
X140720Y90220D01*
X141420D01*
G01X145725D02*
X141420D01*
G01X142500Y83500D02*
Y83800D01*
X142850Y84150D01*
G01D02*
X144195Y85495D01*
X145725D01*
G01Y87070D02*
X143070D01*
X141629Y85629D01*
G01X134735Y83000D02*
X139000D01*
X141629Y85629D01*
G01X135000Y89500D02*
X136999D01*
X139294Y91795D01*
X139914D01*
G01X145725D02*
X139914D01*
G01X150500Y108948D02*
X150499Y108001D01*
X151746Y106754D01*
G01X147700Y109300D02*
X148523Y108477D01*
Y108024D01*
G01D02*
X151372Y105175D01*
G01X146500Y107500D02*
X147392D01*
X150056Y104836D01*
Y102425D01*
G01X141100Y98100D02*
X140700Y98500D01*
G01X141100Y98100D02*
X142681Y96519D01*
X145725D01*
G01X144000Y101068D02*
Y101898D01*
X143330Y102568D01*
X140500D01*
G01X144000Y101068D02*
Y100339D01*
X144670Y99669D01*
X145725D01*
G01X140300Y97000D02*
X142356Y94944D01*
X145725D01*
G01X140300Y97000D02*
X136205D01*
X133705Y94500D01*
G01X96000Y58500D02*
X105500D01*
X106500Y59500D01*
G01X103500Y50000D02*
X101265Y47765D01*
X91735D01*
X89500Y50000D01*
G01X93500D02*
X96500Y53000D01*
X114765D01*
X115765Y54000D01*
G01X252700Y123400D02*
X254900D01*
X259500Y128000D01*
X266000D01*
X267500Y129500D01*
Y136500D01*
X266000Y138000D01*
X250000D01*
X235500Y152500D01*
Y165000D01*
X224500Y176000D01*
X213500D01*
X204000Y166500D01*
X151000D01*
X137500Y180000D01*
X118000D01*
X115500Y177500D01*
G01X122000Y143000D02*
X123000Y144000D01*
X134000D01*
X136500Y141500D01*
X147500D01*
X159835Y129165D01*
X183665D01*
X185000Y130500D01*
X192000D01*
X195000Y127500D01*
G01X232500Y152000D02*
X225000Y159500D01*
Y164000D01*
X223500Y165500D01*
X221000D01*
X206000Y150500D01*
X170000D01*
X168000Y152500D01*
X147500D01*
X140500Y159500D01*
X131000D01*
X121000Y169500D01*
Y171000D01*
G01Y177500D02*
X123235Y175265D01*
X136235D01*
X149000Y162500D01*
X207250D01*
X215750Y171000D01*
X226000D01*
X231500Y165500D01*
G01X127500Y171000D02*
X130000Y168500D01*
X137400D01*
X148400Y157500D01*
X206999D01*
X217999Y168500D01*
X224000D01*
X231500Y161000D01*
G01X127500Y177500D02*
X137000D01*
X150000Y164500D01*
X205624D01*
X214624Y173500D01*
X222500D01*
G01X209150Y45000D02*
X216575Y37575D01*
X226724D01*
X233000Y31299D01*
G01X186799Y19457D02*
Y20441D01*
X183740Y23500D01*
X183500D01*
G01X202499Y19557D02*
Y20441D01*
X199940Y23000D01*
X198000D01*
X194000Y27000D01*
X186500D01*
X183500Y24000D01*
Y23500D01*
G01X186000Y7000D02*
X187735Y5265D01*
X197265D01*
X198672Y6672D01*
Y9700D01*
X202499Y13527D01*
Y14243D01*
G01X186000Y7000D02*
X184172Y8828D01*
Y10563D01*
X186799Y13190D01*
Y14143D01*
G01X168999Y13943D02*
Y12959D01*
X164500Y8460D01*
Y6500D01*
X163000Y5000D01*
X152672D01*
X150672Y7000D01*
G01X153299Y13943D02*
Y12990D01*
X150672Y10363D01*
Y7000D01*
G01X200000Y42000D02*
X201299D01*
X212000Y31299D01*
G01X191000D02*
Y37504D01*
X195396Y41900D01*
G01X170000Y31299D02*
Y36000D01*
G01X150056Y81056D02*
Y82739D01*
G01X172300Y85300D02*
X167380Y90220D01*
X165411D01*
G01X172000Y83000D02*
X171000Y84000D01*
G01D02*
Y84800D01*
X167155Y88645D01*
X165411D01*
G01X169000Y83500D02*
Y84900D01*
X166830Y87070D01*
X165411D01*
G01X151746Y106754D02*
X153206Y105294D01*
Y102425D01*
G01X151631D02*
Y104916D01*
X151372Y105175D01*
G01X161000Y78100D02*
Y79000D01*
X159505Y80495D01*
Y82739D01*
G01X199500Y73000D02*
Y77500D01*
X199358Y77642D01*
Y78500D01*
G01X221500Y86500D02*
Y89500D01*
X231500Y99500D01*
Y109000D01*
X240500Y118000D01*
Y124500D01*
X249400Y133400D01*
X252700D01*
G01X233000Y81299D02*
Y86500D01*
X232500Y87000D01*
G01X252700Y113400D02*
X247900D01*
X240500Y106000D01*
Y56661D01*
X242735Y54426D01*
Y50735D01*
X242004Y50004D01*
Y50000D01*
G01X262700Y113400D02*
X257050Y107750D01*
X249250D01*
X245500Y104000D01*
Y56569D01*
X246205Y55864D01*
Y50017D01*
X246208Y47519D01*
Y45708D01*
X246000Y45500D01*
G01X228000Y63500D02*
Y67000D01*
X229500Y68500D01*
Y90500D01*
X235500Y96500D01*
Y108000D01*
X247500Y120000D01*
X249500D01*
X251500Y118000D01*
X257300D01*
X262700Y123400D01*
G01X224500Y59500D02*
Y67000D01*
X227500Y70000D01*
Y91500D01*
X233500Y97500D01*
Y108500D01*
X245000Y120000D01*
Y125500D01*
X247500Y128000D01*
X254500D01*
X259900Y133400D01*
X262700D01*
G54D18*
X32780Y121187D03*
Y126187D03*
Y131187D03*
G54D27*
X110741Y176801D03*
Y137431D03*
X178941Y176801D03*
Y137431D03*
X165859Y176801D03*
Y137431D03*
X234059Y176801D03*
Y137431D03*
G54D36*
X252700Y43400D03*
Y33400D03*
Y23400D03*
X262700Y43400D03*
Y33400D03*
Y23400D03*
X252700Y113400D03*
Y103400D03*
Y93400D03*
Y83400D03*
Y73400D03*
Y63400D03*
Y53400D03*
X262700Y113400D03*
Y103400D03*
Y93400D03*
Y83400D03*
Y73400D03*
Y63400D03*
Y53400D03*
X252700Y153400D03*
Y143400D03*
Y133400D03*
Y123400D03*
X262700Y163400D03*
Y153400D03*
Y143400D03*
Y133400D03*
Y123400D03*
G54D28*
X188472Y9812D03*
Y23788D03*
X204172Y9912D03*
Y23888D03*
X154972Y9612D03*
Y23588D03*
X170672Y9612D03*
Y23588D03*
G54D19*
X61996Y149630D03*
Y160457D03*
Y171283D03*
Y182701D03*
X99594Y149630D03*
Y165772D03*
Y180339D03*
G54D37*
X252700Y163400D03*
G54D38*
G01X64000Y90000D02*
X64830Y89170D01*
X111830D01*
X143000Y58000D01*
Y35000D01*
X137000Y29000D01*
Y21208D01*
X139000Y19208D01*
X141208D01*
X142000Y20000D01*
G01X64500Y86500D02*
X65170Y87170D01*
X111001D01*
X141000Y57171D01*
Y35829D01*
X135000Y29829D01*
Y20379D01*
X138171Y17208D01*
X140792D01*
X142000Y16000D01*
G01X177399Y117100D02*
X177169Y117330D01*
X149671D01*
X146001Y121000D01*
X110000D01*
X109000Y120000D01*
X99000D01*
X98000Y121000D01*
X83000D01*
X73000Y111000D01*
X51501D01*
X45000Y117501D01*
Y132278D01*
G01X50000Y136000D02*
Y120000D01*
X54500Y115500D01*
X70000D01*
X80500Y126000D01*
X88500D01*
X89500Y125000D01*
X131000D01*
X133000Y127000D01*
X139000D01*
X141000Y125000D01*
G01X34000Y142500D02*
X40500Y136000D01*
Y113000D01*
X47500Y106000D01*
X121500D01*
X123400Y107900D01*
X146100D01*
X146500Y107500D01*
G01X46250Y112250D02*
X50000Y108500D01*
X60000D01*
G01X78500D02*
X60000D01*
G01X39000Y142500D02*
X42500Y139000D01*
Y116000D01*
X46250Y112250D01*
G01X47500Y130500D02*
Y119000D01*
X53500Y113000D01*
X71000D01*
X74500Y116500D01*
G01X65000Y75000D02*
X87500D01*
G01X65000D02*
X62500D01*
X54000Y83500D01*
Y90500D01*
X56000Y92500D01*
X60000D01*
G01X65500Y138500D02*
X60500D01*
X55000Y144000D01*
Y180201D01*
X57500Y182701D01*
X61996D01*
G01X49000Y157000D02*
Y167234D01*
X48000Y168234D01*
X44748D01*
G01X42500Y157000D02*
Y152001D01*
X43984Y150517D01*
X44748D01*
G01X173000Y81000D02*
X174500D01*
X178000Y77500D01*
X189171D01*
X201500Y89829D01*
Y105000D01*
X191000Y115500D01*
Y118000D01*
X183670Y125330D01*
X155986D01*
X149316Y132000D01*
X132000D01*
X129000Y129000D01*
X107171D01*
X105671Y130500D01*
X76000D01*
X67650Y122150D01*
X56900D01*
G01X99594Y180339D02*
X103500Y176433D01*
Y172000D01*
X108000Y167500D01*
Y147000D01*
X97000Y136000D01*
X73590D01*
X70795Y138795D01*
G01X75205Y124205D02*
X78500Y127500D01*
G01X106000Y133000D02*
X71000D01*
X68000Y136000D01*
G01X75205Y124205D02*
X69000Y118000D01*
X57000D01*
X56500Y118500D01*
G01D02*
X53000Y122000D01*
G01X54000Y183500D02*
X53000Y182500D01*
Y157500D01*
X52500Y157000D01*
G01X68000Y140500D02*
X69000Y141500D01*
X72410D01*
X75205Y138705D01*
G01X68000Y140500D02*
X67000Y141500D01*
X63000D01*
X61500Y143000D01*
G01X74500Y116500D02*
X79500Y121500D01*
G01X47500Y138500D02*
Y130500D01*
G01X68000Y136000D02*
Y140500D01*
G01X58500Y134500D02*
X66500D01*
X68000Y136000D01*
G01X75205Y138705D02*
X91205D01*
X92500Y140000D01*
G01X47500Y138500D02*
X51500Y142500D01*
G01D02*
Y144000D01*
X52500Y145000D01*
Y157000D01*
G01X51500Y142500D02*
X54000Y140000D01*
Y139458D01*
G01X158600Y76900D02*
Y65100D01*
X150000Y56500D01*
Y33829D01*
X143500Y27329D01*
Y21000D01*
X142500Y20000D01*
X142000D01*
G01X161100Y71500D02*
X160600Y71000D01*
Y64271D01*
X152000Y55671D01*
Y33000D01*
X145500Y26500D01*
Y19500D01*
X142000Y16000D01*
G01X131898Y27500D02*
Y31898D01*
X133708Y33708D01*
G01D02*
X135708D01*
X139000Y37000D01*
Y54500D01*
X136000Y57500D01*
G01X88000Y116000D02*
X89000Y115000D01*
X112105D01*
X113005Y115900D01*
X123900D01*
X125000Y117000D01*
X144000D01*
X150500Y110500D01*
Y108948D01*
G01X81500Y112000D02*
X82500Y111000D01*
X115999D01*
X116899Y111900D01*
X128900D01*
X130000Y113000D01*
X137000D01*
X139500Y110500D01*
X146500D01*
X147700Y109300D01*
G01X129295Y94500D02*
Y92897D01*
X130192Y92000D01*
X135200D01*
X138000Y94800D01*
G01X142500Y68295D02*
X146500D01*
G01D02*
X148000D01*
X149000Y69295D01*
Y75500D01*
X151000Y77500D01*
Y79100D01*
G01X140700Y98500D02*
X139200Y100000D01*
X134705D01*
X133000Y98295D01*
G01X140500Y102568D02*
X139932Y102000D01*
X133705D01*
X133000Y102705D01*
G01X84198Y114802D02*
Y117198D01*
X86000Y119000D01*
X90000D01*
X91000Y118000D01*
G01X85000Y114000D02*
X86000Y113000D01*
X113500D01*
X114000Y113500D01*
G01X84198Y114802D02*
X80302D01*
X78500Y113000D01*
Y108500D01*
G01X85000Y114000D02*
X84198Y114802D01*
G01X154000Y113000D02*
X151000D01*
X145000Y119000D01*
X121200D01*
X120500Y118300D01*
G01X120000Y108500D02*
X121400Y109900D01*
X135900D01*
X136000Y110000D01*
G01X112000Y108500D02*
X120000D01*
G01X144000Y113000D02*
X142000Y115000D01*
X127200D01*
X126500Y114300D01*
G01X114000Y113500D02*
X114400Y113900D01*
X126100D01*
X126500Y114300D01*
G01X191000Y109500D02*
X185500Y115000D01*
Y117500D01*
X181670Y121330D01*
X154157D01*
X150487Y125000D01*
X145404D01*
G01X141000D02*
X145404D01*
G01X132500Y165000D02*
X129500D01*
X125000Y169500D01*
Y172000D01*
X126400Y173400D01*
X131100D01*
X133500Y171000D01*
G01X111000Y117500D02*
X103000D01*
G01X134500Y124500D02*
X133500D01*
X132000Y123000D01*
X105000D01*
X104500Y122500D01*
X103000D01*
G01X92500Y140000D02*
X97500D01*
X105000Y147500D01*
Y164500D01*
G01X115500Y132500D02*
X117000Y131000D01*
X128000D01*
X131000Y134000D01*
X136000D01*
X140500Y138500D01*
G01X106000Y133000D02*
X108000Y131000D01*
X114000D01*
X115500Y132500D01*
G01X191500Y121500D02*
X185670Y127330D01*
X156815D01*
X145645Y138500D01*
X140500D01*
G01X101000Y174000D02*
Y171500D01*
X105000Y167500D01*
Y164500D01*
G01X106500Y175500D02*
Y172000D01*
X120000Y158500D01*
X121500D01*
G01X118500Y142000D02*
X115500Y139000D01*
Y132500D01*
G01X120500Y118300D02*
X111800D01*
X111000Y117500D01*
G01X87500Y123500D02*
X81500D01*
X79500Y121500D01*
G01X134500Y124500D02*
X138000D01*
X139500Y123000D01*
X148000D01*
X150000Y121000D01*
G01X182000Y117000D02*
X179670Y119330D01*
X151670D01*
X150000Y121000D01*
G01X121500Y158500D02*
Y157000D01*
X107000Y142500D01*
Y134000D01*
X106000Y133000D01*
G01X152500Y141500D02*
X150000Y144000D01*
X142000D01*
X141000Y145000D01*
G01X91000Y127500D02*
X90500Y128000D01*
X79000D01*
X78500Y127500D01*
G01X91000D02*
X103247D01*
G01D02*
X104500D01*
X105000Y127000D01*
X130000D01*
X132500Y129500D01*
X140500D01*
X142500Y127500D01*
G01X103000Y122500D02*
X102500Y123000D01*
X88000D01*
X87500Y123500D01*
G01X103000Y117500D02*
X91500D01*
X91000Y118000D01*
G01X133500Y171000D02*
X137500D01*
X148500Y160000D01*
X151000D01*
G01X142500Y127500D02*
X150987D01*
X155157Y123330D01*
X182670D01*
X188000Y118000D01*
Y117000D01*
G01X141000Y145000D02*
X138595Y147405D01*
X132905D01*
G01X163655Y81000D02*
X164884D01*
X169127Y76757D01*
Y76758D01*
X176500Y69385D01*
Y33500D01*
X176000Y33000D01*
G01X198500Y26500D02*
X212000D01*
X214500Y24000D01*
X234300D01*
X234800Y24500D01*
G01X162500Y29500D02*
Y54000D01*
X165000Y56500D01*
Y68000D01*
X163500Y69500D01*
Y74330D01*
G01X166249Y25750D02*
X165500Y26499D01*
Y34000D01*
G01X158172Y7000D02*
Y8328D01*
X156888Y9612D01*
X154972D01*
G01X188472Y9812D02*
X190672D01*
X191672Y8812D01*
Y7200D01*
G01X176000Y29500D02*
X178500Y32000D01*
Y70214D01*
X167000Y81714D01*
Y83700D01*
G01X175000Y104000D02*
X173672D01*
X170572Y107100D01*
X164601D01*
X164413Y106912D01*
G01X162999Y108327D02*
X163772Y109100D01*
X171401D01*
X173668Y106833D01*
X174329D01*
X174331Y106831D01*
G01X158600Y76900D02*
Y79400D01*
X157930Y80070D01*
Y80323D01*
G01X161080Y80920D02*
X165800Y76200D01*
Y75000D01*
G01X177399Y117100D02*
X190500Y103999D01*
G01X178464Y85000D02*
X172600D01*
X172300Y85300D01*
G01X178464Y85000D02*
X185182D01*
X191500Y91318D01*
Y102999D01*
X190500Y103999D01*
G01X196500Y93500D02*
Y90205D01*
X189295Y83000D01*
X172000D01*
G01X196500Y93500D02*
Y104000D01*
X191000Y109500D01*
G01X154750Y76750D02*
X155700Y75800D01*
Y72705D01*
G01X163500Y74330D02*
Y75600D01*
X161000Y78100D01*
G01X152500Y76294D02*
X151500Y75294D01*
Y72705D01*
G01X196000Y73000D02*
X195500Y73500D01*
Y81000D01*
X204071Y89571D01*
Y92429D01*
G01X182000Y117000D02*
Y115500D01*
X194000Y103500D01*
Y102500D01*
G01X184000D02*
Y107012D01*
X175682Y115330D01*
X156330D01*
X154000Y113000D01*
G01X188000Y117000D02*
X188585Y116415D01*
Y115085D01*
X199000Y104670D01*
Y102500D01*
G01X222500Y141500D02*
X225500Y138500D01*
X229000D01*
X230500Y140000D01*
Y143500D01*
X231500Y144500D01*
X238500D01*
X240000Y143000D01*
Y138500D01*
G01X192000Y133000D02*
X184500D01*
X182500Y131000D01*
X175000D01*
X172500Y133500D01*
G01X152500Y141500D02*
X159000Y135000D01*
G01X172500Y133500D02*
X170209Y131209D01*
X162791D01*
X159000Y135000D01*
G01X172500Y142500D02*
Y133500D01*
G54D29*
X190145Y19457D03*
Y14143D03*
X186799D03*
Y19457D03*
X205845Y19557D03*
Y14243D03*
X202499D03*
Y19557D03*
X156645Y19257D03*
Y13943D03*
X153299D03*
Y19257D03*
X172345D03*
Y13943D03*
X168999D03*
Y19257D03*
G54D39*
G01X110500Y99500D02*
X29400D01*
X23700Y93800D01*
G01X75000Y103500D02*
X60000D01*
G01D02*
X46000D01*
X43000Y106500D01*
G01X75000Y103500D02*
X95000D01*
G01X55000Y96000D02*
X123500D01*
G01X48000Y81500D02*
Y89000D01*
X55000Y96000D01*
G01X122500Y103500D02*
X103000D01*
G01X95000D02*
X103000D01*
G01X120000Y133500D02*
X126500D01*
X130000Y137000D01*
X135000D01*
G01X118000Y136500D02*
X124500D01*
X126500Y138500D01*
G01X202000Y112500D02*
X201150Y113350D01*
Y117500D01*
G01X222205Y116795D02*
X221660Y116250D01*
X218494D01*
X211000Y123743D01*
Y133242D01*
X213758Y136000D01*
X232628D01*
X234059Y137431D01*
G01X178941D02*
X205000D01*
X208000Y134431D01*
Y122500D01*
X217251Y113250D01*
X221660D01*
X222205Y112705D01*
G01X175350Y88500D02*
X171980D01*
X170500Y89980D01*
G01X232500Y124500D02*
X230500D01*
X228500Y122500D01*
Y102500D01*
X217500Y91500D01*
Y86500D01*
X214000Y83000D01*
G01X207000Y73000D02*
X206642Y73358D01*
Y78500D01*
G01X214000Y83000D02*
X209486Y78486D01*
X206656D01*
X206642Y78500D01*
G01X190443Y126966D02*
X194909Y122500D01*
X196795D01*
G01X201150Y117500D02*
X201205Y118055D01*
Y122500D01*
M02*
