G04 ================== begin FILE IDENTIFICATION RECORD ==================*
G04 Layout Name:  DEV_SUB_SENSOR_BRD_V1_1-20170606.brd*
G04 Film Name:    DRILL-1-4*
G04 File Format:  Gerber RS274X*
G04 File Origin:  Cadence Allegro 16.6-S012*
G04 Origin Date:  Tue Jun 06 21:12:07 2017*
G04 *
G04 Layer:  MANUFACTURING/NCLEGEND-1-4*
G04 Layer:  BOARD GEOMETRY/OUTLINE*
G04 Layer:  BOARD GEOMETRY/DIMENSION*
G04 *
G04 Offset:    (0.00 0.00)*
G04 Mirror:    No*
G04 Mode:      Positive*
G04 Rotation:  0*
G04 FullContactRelief:  No*
G04 UndefLineWidth:     1.00*
G04 ================== end FILE IDENTIFICATION RECORD ====================*
%FSLAX25Y25*MOIN*%
%IR0*IPPOS*OFA0.00000B0.00000*MIA0B0*SFA1.00000B1.00000*%
%AMMACRO10*
1,1,.001,.005,0.0*
20,1,.001,.005,0.0,-.005,0.0,0.0*
1,1,.001,-.005,0.0*
1,1,.001,0.0,.005*
20,1,.001,0.0,.005,0.0,-.005,0.0*
1,1,.001,0.0,-.005*
%
%ADD10MACRO10*%
%AMMACRO16*
1,1,.001,.01575,.01575*
20,1,.001,.01575,.01575,.01575,-.01575,0.0*
1,1,.001,.01575,-.01575*
20,1,.001,.01575,-.01575,-.01575,-.01575,0.0*
1,1,.001,-.01575,-.01575*
20,1,.001,-.01575,-.01575,-.01575,.01575,0.0*
1,1,.001,-.01575,.01575*
20,1,.001,-.01575,.01575,.01575,.01575,0.0*
1,1,.001,.01575,.01575*
%
%ADD16MACRO16*%
%AMMACRO18*
1,1,.001,.017715,.013285*
20,1,.001,.017715,.013285,.017715,-.013285,0.0*
1,1,.001,.017715,-.013285*
20,1,.001,.017715,-.013285,-.017715,-.013285,0.0*
1,1,.001,-.017715,-.013285*
20,1,.001,-.017715,-.013285,-.017715,.013285,0.0*
1,1,.001,-.017715,.013285*
20,1,.001,-.017715,.013285,.017715,.013285,0.0*
1,1,.001,.017715,.013285*
%
%ADD18MACRO18*%
%AMMACRO19*
1,1,.001,.008154,-.019685*
20,1,.001,.008154,-.019685,-.008154,-.019685,0.0*
1,1,.001,-.008154,-.019685*
20,1,.001,-.008154,-.019685,-.019685,-.008154,0.0*
1,1,.001,-.019685,-.008154*
20,1,.001,-.019685,-.008154,-.019685,.008154,0.0*
1,1,.001,-.019685,.008154*
20,1,.001,-.019685,.008154,-.008154,.019685,0.0*
1,1,.001,-.008154,.019685*
20,1,.001,-.008154,.019685,.008154,.019685,0.0*
1,1,.001,.008154,.019685*
20,1,.001,.008154,.019685,.019685,.008154,0.0*
1,1,.001,.019685,.008154*
20,1,.001,.019685,.008154,.019685,-.008154,0.0*
1,1,.001,.019685,-.008154*
20,1,.001,.019685,-.008154,.008154,-.019685,0.0*
1,1,.001,.008154,-.019685*
%
%ADD19MACRO19*%
%AMMACRO11*
1,1,.001,.019685,0.0*
20,1,.001,.019685,0.0,0.0,-.019685,0.0*
1,1,.001,0.0,-.019685*
20,1,.001,0.0,-.019685,-.019685,0.0,0.0*
1,1,.001,-.019685,0.0*
20,1,.001,-.019685,0.0,0.0,.019685,0.0*
1,1,.001,0.0,.019685*
20,1,.001,0.0,.019685,.019685,0.0,0.0*
1,1,.001,.019685,0.0*
%
%ADD11MACRO11*%
%AMMACRO12*
1,1,.001,-.005165,.015505*
20,1,.001,-.005165,.015505,.005165,.015505,0.0*
1,1,.001,.005165,.015505*
20,1,.001,.005165,.015505,.007857,.015269,0.0*
1,1,.001,.007857,.015269*
20,1,.001,.007857,.015269,.010468,.01457,0.0*
1,1,.001,.010468,.01457*
20,1,.001,.010468,.01457,.012917,.013428,0.0*
1,1,.001,.012917,.013428*
20,1,.001,.012917,.013428,.015131,.011878,0.0*
1,1,.001,.015131,.011878*
20,1,.001,.015131,.011878,.017043,.009966,0.0*
1,1,.001,.017043,.009966*
20,1,.001,.017043,.009966,.018593,.007753,0.0*
1,1,.001,.018593,.007753*
20,1,.001,.018593,.007753,.019735,.005303,0.0*
1,1,.001,.019735,.005303*
20,1,.001,.019735,.005303,.020434,.002692,0.0*
1,1,.001,.020434,.002692*
20,1,.001,.020434,.002692,.02067,0.0,0.0*
1,1,.001,.02067,0.0*
20,1,.001,.02067,0.0,.020434,-.002692,0.0*
1,1,.001,.020434,-.002692*
20,1,.001,.020434,-.002692,.019735,-.005303,0.0*
1,1,.001,.019735,-.005303*
20,1,.001,.019735,-.005303,.018593,-.007752,0.0*
1,1,.001,.018593,-.007752*
20,1,.001,.018593,-.007752,.017043,-.009966,0.0*
1,1,.001,.017043,-.009966*
20,1,.001,.017043,-.009966,.015131,-.011878,0.0*
1,1,.001,.015131,-.011878*
20,1,.001,.015131,-.011878,.012918,-.013428,0.0*
1,1,.001,.012918,-.013428*
20,1,.001,.012918,-.013428,.010468,-.01457,0.0*
1,1,.001,.010468,-.01457*
20,1,.001,.010468,-.01457,.007857,-.015269,0.0*
1,1,.001,.007857,-.015269*
20,1,.001,.007857,-.015269,.005165,-.015505,0.0*
1,1,.001,.005165,-.015505*
20,1,.001,.005165,-.015505,-.005165,-.015505,0.0*
1,1,.001,-.005165,-.015505*
20,1,.001,-.005165,-.015505,-.007857,-.015269,0.0*
1,1,.001,-.007857,-.015269*
20,1,.001,-.007857,-.015269,-.010468,-.01457,0.0*
1,1,.001,-.010468,-.01457*
20,1,.001,-.010468,-.01457,-.012917,-.013428,0.0*
1,1,.001,-.012917,-.013428*
20,1,.001,-.012917,-.013428,-.015131,-.011878,0.0*
1,1,.001,-.015131,-.011878*
20,1,.001,-.015131,-.011878,-.017043,-.009966,0.0*
1,1,.001,-.017043,-.009966*
20,1,.001,-.017043,-.009966,-.018593,-.007753,0.0*
1,1,.001,-.018593,-.007753*
20,1,.001,-.018593,-.007753,-.019735,-.005303,0.0*
1,1,.001,-.019735,-.005303*
20,1,.001,-.019735,-.005303,-.020434,-.002692,0.0*
1,1,.001,-.020434,-.002692*
20,1,.001,-.020434,-.002692,-.02067,0.0,0.0*
1,1,.001,-.02067,0.0*
20,1,.001,-.02067,0.0,-.020434,.002692,0.0*
1,1,.001,-.020434,.002692*
20,1,.001,-.020434,.002692,-.019735,.005303,0.0*
1,1,.001,-.019735,.005303*
20,1,.001,-.019735,.005303,-.018593,.007752,0.0*
1,1,.001,-.018593,.007752*
20,1,.001,-.018593,.007752,-.017043,.009966,0.0*
1,1,.001,-.017043,.009966*
20,1,.001,-.017043,.009966,-.015131,.011878,0.0*
1,1,.001,-.015131,.011878*
20,1,.001,-.015131,.011878,-.012918,.013428,0.0*
1,1,.001,-.012918,.013428*
20,1,.001,-.012918,.013428,-.010468,.01457,0.0*
1,1,.001,-.010468,.01457*
20,1,.001,-.010468,.01457,-.007857,.015269,0.0*
1,1,.001,-.007857,.015269*
20,1,.001,-.007857,.015269,-.005165,.015505,0.0*
1,1,.001,-.005165,.015505*
%
%ADD12MACRO12*%
%AMMACRO17*
1,1,.001,.018,0.0*
20,1,.001,.018,0.0,.009,.015588,0.0*
1,1,.001,.009,.015588*
20,1,.001,.009,.015588,-.009,.015588,0.0*
1,1,.001,-.009,.015588*
20,1,.001,-.009,.015588,-.018,0.0,0.0*
1,1,.001,-.018,0.0*
20,1,.001,-.018,0.0,-.009,-.015588,0.0*
1,1,.001,-.009,-.015588*
20,1,.001,-.009,-.015588,.009,-.015588,0.0*
1,1,.001,.009,-.015588*
20,1,.001,.009,-.015588,.018,0.0,0.0*
1,1,.001,.018,0.0*
%
%ADD17MACRO17*%
%AMMACRO15*
1,1,.001,-.011815,.003935*
20,1,.001,-.011815,.003935,-.011636,.005987,0.0*
1,1,.001,-.011636,.005987*
20,1,.001,-.011636,.005987,-.011102,.007976,0.0*
1,1,.001,-.011102,.007976*
20,1,.001,-.011102,.007976,-.010232,.009842,0.0*
1,1,.001,-.010232,.009842*
20,1,.001,-.010232,.009842,-.009051,.01153,0.0*
1,1,.001,-.009051,.01153*
20,1,.001,-.009051,.01153,-.007595,.012986,0.0*
1,1,.001,-.007595,.012986*
20,1,.001,-.007595,.012986,-.005908,.014167,0.0*
1,1,.001,-.005908,.014167*
20,1,.001,-.005908,.014167,-.004041,.015037,0.0*
1,1,.001,-.004041,.015037*
20,1,.001,-.004041,.015037,-.002052,.015571,0.0*
1,1,.001,-.002052,.015571*
20,1,.001,-.002052,.015571,0.0,.01575,0.0*
1,1,.001,0.0,.01575*
20,1,.001,0.0,.01575,.002052,.015571,0.0*
1,1,.001,.002052,.015571*
20,1,.001,.002052,.015571,.004041,.015037,0.0*
1,1,.001,.004041,.015037*
20,1,.001,.004041,.015037,.005907,.014167,0.0*
1,1,.001,.005907,.014167*
20,1,.001,.005907,.014167,.007595,.012986,0.0*
1,1,.001,.007595,.012986*
20,1,.001,.007595,.012986,.009051,.01153,0.0*
1,1,.001,.009051,.01153*
20,1,.001,.009051,.01153,.010232,.009843,0.0*
1,1,.001,.010232,.009843*
20,1,.001,.010232,.009843,.011102,.007976,0.0*
1,1,.001,.011102,.007976*
20,1,.001,.011102,.007976,.011636,.005987,0.0*
1,1,.001,.011636,.005987*
20,1,.001,.011636,.005987,.011815,.003935,0.0*
1,1,.001,.011815,.003935*
20,1,.001,.011815,.003935,.011815,-.003935,0.0*
1,1,.001,.011815,-.003935*
20,1,.001,.011815,-.003935,.011636,-.005987,0.0*
1,1,.001,.011636,-.005987*
20,1,.001,.011636,-.005987,.011102,-.007976,0.0*
1,1,.001,.011102,-.007976*
20,1,.001,.011102,-.007976,.010232,-.009842,0.0*
1,1,.001,.010232,-.009842*
20,1,.001,.010232,-.009842,.009051,-.01153,0.0*
1,1,.001,.009051,-.01153*
20,1,.001,.009051,-.01153,.007595,-.012986,0.0*
1,1,.001,.007595,-.012986*
20,1,.001,.007595,-.012986,.005908,-.014167,0.0*
1,1,.001,.005908,-.014167*
20,1,.001,.005908,-.014167,.004041,-.015037,0.0*
1,1,.001,.004041,-.015037*
20,1,.001,.004041,-.015037,.002052,-.015571,0.0*
1,1,.001,.002052,-.015571*
20,1,.001,.002052,-.015571,0.0,-.01575,0.0*
1,1,.001,0.0,-.01575*
20,1,.001,0.0,-.01575,-.002052,-.015571,0.0*
1,1,.001,-.002052,-.015571*
20,1,.001,-.002052,-.015571,-.004041,-.015037,0.0*
1,1,.001,-.004041,-.015037*
20,1,.001,-.004041,-.015037,-.005907,-.014167,0.0*
1,1,.001,-.005907,-.014167*
20,1,.001,-.005907,-.014167,-.007595,-.012986,0.0*
1,1,.001,-.007595,-.012986*
20,1,.001,-.007595,-.012986,-.009051,-.01153,0.0*
1,1,.001,-.009051,-.01153*
20,1,.001,-.009051,-.01153,-.010232,-.009843,0.0*
1,1,.001,-.010232,-.009843*
20,1,.001,-.010232,-.009843,-.011102,-.007976,0.0*
1,1,.001,-.011102,-.007976*
20,1,.001,-.011102,-.007976,-.011636,-.005987,0.0*
1,1,.001,-.011636,-.005987*
20,1,.001,-.011636,-.005987,-.011815,-.003935,0.0*
1,1,.001,-.011815,-.003935*
20,1,.001,-.011815,-.003935,-.011815,.003935,0.0*
1,1,.001,-.011815,.003935*
%
%ADD15MACRO15*%
%AMMACRO13*
1,1,.001,0.0,.02008*
20,1,.001,0.0,.02008,.02008,-.02008,0.0*
1,1,.001,.02008,-.02008*
20,1,.001,.02008,-.02008,-.02008,-.02008,0.0*
1,1,.001,-.02008,-.02008*
20,1,.001,-.02008,-.02008,0.0,.02008,0.0*
1,1,.001,0.0,.02008*
%
%ADD13MACRO13*%
%AMMACRO14*
1,1,.001,0.0,.0187*
20,1,.001,0.0,.0187,-.016195,.00935,0.0*
1,1,.001,-.016195,.00935*
20,1,.001,-.016195,.00935,-.016195,-.00935,0.0*
1,1,.001,-.016195,-.00935*
20,1,.001,-.016195,-.00935,0.0,-.0187,0.0*
1,1,.001,0.0,-.0187*
20,1,.001,0.0,-.0187,.016195,-.00935,0.0*
1,1,.001,.016195,-.00935*
20,1,.001,.016195,-.00935,.016195,.00935,0.0*
1,1,.001,.016195,.00935*
20,1,.001,.016195,.00935,0.0,.0187,0.0*
1,1,.001,0.0,.0187*
%
%ADD14MACRO14*%
%ADD20C,.015*%
%ADD21C,.001*%
G75*
%LPD*%
G75*
G54D10*
X3000Y3500D03*
Y13500D03*
Y23500D03*
Y33500D03*
Y43500D03*
Y63500D03*
Y53500D03*
Y83500D03*
Y73500D03*
Y103500D03*
Y93500D03*
Y123500D03*
Y113500D03*
Y144500D03*
Y133500D03*
Y163500D03*
Y153500D03*
Y185500D03*
X13000Y3500D03*
X23000D03*
X17000Y17500D03*
X16500Y21500D03*
X10000Y20000D03*
Y30000D03*
X17000Y13500D03*
Y26000D03*
X10000Y40000D03*
X20000Y110000D03*
X10000D03*
Y130000D03*
Y120000D03*
X20000Y150000D03*
X10000D03*
X20000Y170000D03*
Y160000D03*
X10000D03*
Y180000D03*
X22500Y185500D03*
X12500D03*
X40000Y10000D03*
X43000Y3500D03*
X33000D03*
X27000Y30000D03*
X33500D03*
X36000Y11000D03*
Y21500D03*
Y18000D03*
X30000Y110000D03*
X40000D03*
X39705Y118295D03*
X40000Y130000D03*
X30000D03*
X26500Y118500D03*
X29500Y115000D03*
X26500Y122500D03*
X40000Y150000D03*
X30000D03*
Y180000D03*
X29500Y170500D03*
X42500Y185500D03*
X32500D03*
X50000Y10000D03*
X63000Y3500D03*
X51500Y32000D03*
X60000Y110000D03*
X50000D03*
X48000Y122500D03*
X60000Y140000D03*
X62500Y185500D03*
X52500D03*
X80000Y10000D03*
X70000D03*
X83000Y3500D03*
X73000D03*
X79000Y18098D03*
X68000D03*
X80205Y44705D03*
X76500Y32000D03*
X82000D03*
X73295Y44705D03*
X70500Y32000D03*
X80000Y40500D03*
X73500Y40000D03*
X80000Y70000D03*
X70000Y100000D03*
X81500Y115000D03*
X66000D03*
X76500D03*
X71500D03*
X67500Y130500D03*
X70000Y170000D03*
X74000Y158500D03*
X67500Y161500D03*
X82500Y185500D03*
X72500D03*
X100000Y10000D03*
X90000D03*
X103000Y3500D03*
X93000D03*
X92878Y17720D03*
X93000Y48000D03*
X95500Y32000D03*
X83500Y48000D03*
X88480Y47980D03*
X98000Y48500D03*
X101500Y67000D03*
X90000Y70000D03*
X102500Y61000D03*
X88500D03*
X90000Y90000D03*
Y130000D03*
X97500Y117500D03*
X92500D03*
X87500Y124500D03*
Y117500D03*
X90000Y140000D03*
Y150000D03*
X100205Y165705D03*
X83500Y158000D03*
X88000D03*
X102500Y185500D03*
X110000Y10000D03*
X123000Y3500D03*
X113000D03*
X114925Y17511D03*
X109413D03*
X117500Y32000D03*
X106500D03*
X112000D03*
X107000Y48500D03*
X122000D03*
X117000D03*
X110000Y68000D03*
X112000Y53500D03*
X111000Y76500D03*
Y87500D03*
X105000Y84000D03*
Y88000D03*
X110000Y107000D03*
Y117500D03*
X121000Y141500D03*
X113000D03*
X120500Y133000D03*
X117000Y141500D03*
X111500Y132500D03*
X109500Y142000D03*
X119000Y158500D03*
X105000Y164000D03*
X105500Y158500D03*
X116500Y168500D03*
X110500Y158500D03*
X104000Y168500D03*
X121000D03*
X110500D03*
X114000Y158500D03*
X122500Y185500D03*
X112500D03*
X140000Y10000D03*
X130000D03*
X143000Y3500D03*
X133000D03*
X128705Y17511D03*
X131500Y32500D03*
X127000Y48500D03*
X125000Y70000D03*
Y60000D03*
X134500Y70000D03*
Y60000D03*
X130000Y77500D03*
X140000D03*
Y82500D03*
X136000Y101500D03*
X142000Y107500D03*
X124000Y117500D03*
X138500Y128500D03*
X142000Y113500D03*
X131500Y133000D03*
X132000Y153000D03*
X127705Y150295D03*
X142500Y185500D03*
X132500D03*
X150000Y10000D03*
X153000Y3500D03*
X163000D03*
X154701Y46201D03*
X150000Y70000D03*
Y60000D03*
X162000Y65000D03*
X153000Y78000D03*
X150000Y82500D03*
X162000Y78500D03*
Y71500D03*
X143500Y101500D03*
X152000Y110000D03*
X154500Y123500D03*
X161000Y134000D03*
X160000Y147000D03*
X155500D03*
X150000Y170000D03*
Y160000D03*
X160000Y170000D03*
X155500Y158500D03*
X160000Y180000D03*
X162500Y185500D03*
X152500D03*
X175500Y4000D03*
X173000Y9000D03*
X166500Y9500D03*
X173201Y46201D03*
X180000Y89500D03*
Y94500D03*
X180500Y120000D03*
X178500Y128000D03*
X166000Y129000D03*
X169500Y123500D03*
X168295Y151295D03*
X167287Y165787D03*
X170000Y154500D03*
X180000Y180000D03*
X182500Y185500D03*
X172500D03*
X187000Y4000D03*
X198500Y3500D03*
X201500Y9000D03*
X199500Y21500D03*
X200000Y26000D03*
X187500Y38500D03*
X191701Y46201D03*
X198500Y89500D03*
X200500Y109500D03*
X198500Y94500D03*
X199500Y124500D03*
X195500Y125000D03*
X190000Y124000D03*
X192000Y139000D03*
X185500Y136500D03*
X190000Y145000D03*
X185000D03*
X200000Y167500D03*
X190000D03*
X185500Y151000D03*
X192000Y162500D03*
X192500Y151000D03*
X200000Y180000D03*
X202500Y185500D03*
X192500D03*
X223000Y3500D03*
X211000D03*
X220500Y8500D03*
X211500Y21500D03*
Y26000D03*
X211000Y12500D03*
X210000Y44500D03*
X207500Y109500D03*
X218000D03*
X213500D03*
X218000Y120500D03*
X204500Y140000D03*
X220000D03*
X210000D03*
X220000Y167500D03*
X210000D03*
X220000Y161000D03*
Y152000D03*
X210000D03*
Y161000D03*
X220000Y180000D03*
X222500Y185500D03*
X212500D03*
X231000Y3500D03*
X243000D03*
X223500Y21500D03*
Y26000D03*
X239799Y46201D03*
X224500Y38500D03*
X224000Y44000D03*
X227500Y64500D03*
Y57000D03*
X226500Y89500D03*
X227500Y75500D03*
Y71000D03*
X227000Y79500D03*
X224000Y132000D03*
X232000Y135500D03*
X237000Y140500D03*
X242500Y145500D03*
X234500Y148500D03*
X226500Y140500D03*
X228000Y167500D03*
X241500Y155500D03*
X240000Y180000D03*
X242500Y185500D03*
X232500D03*
X250000Y10000D03*
X260000D03*
X253000Y3500D03*
X263000D03*
X246500Y69500D03*
X247000Y76500D03*
X248500Y148500D03*
X246500Y155000D03*
X249500Y177000D03*
X251000Y185500D03*
X271500Y3500D03*
Y14500D03*
Y24500D03*
Y34500D03*
Y44500D03*
Y64500D03*
Y54500D03*
Y84500D03*
Y74500D03*
Y104500D03*
Y94500D03*
Y124500D03*
Y114500D03*
Y144500D03*
Y134500D03*
Y164500D03*
Y154500D03*
Y185500D03*
X264500D03*
X271500Y174500D03*
X478352Y85706D03*
G54D20*
G01X1850Y237500D02*
X3850D01*
Y235700D01*
X3250Y235100D01*
X2550Y234700D01*
X1550Y234500D01*
X550Y234700D01*
X-150Y235100D01*
X-750Y235700D01*
X-1150Y236400D01*
X-1350Y237200D01*
Y237900D01*
X-1150Y238500D01*
X-750Y239200D01*
X-150Y239800D01*
X450Y240200D01*
X1250Y240500D01*
X1950D01*
X2750Y240300D01*
X3350Y239900D01*
G01X7750Y240500D02*
X6950Y240300D01*
X6350Y239800D01*
X5950Y239200D01*
X5650Y238400D01*
X5550Y237500D01*
X5650Y236600D01*
X5950Y235800D01*
X6350Y235200D01*
X6950Y234700D01*
X7750Y234500D01*
X8550Y234700D01*
X9150Y235200D01*
X9550Y235800D01*
X9850Y236600D01*
X9950Y237500D01*
X9850Y238400D01*
X9550Y239200D01*
X9150Y239800D01*
X8550Y240300D01*
X7750Y240500D01*
G01X12550Y235200D02*
X13250Y234700D01*
X14050Y234500D01*
X14850Y234700D01*
X15550Y235300D01*
X16050Y236200D01*
X16250Y237100D01*
Y238200D01*
X16050Y239100D01*
X15550Y239900D01*
X14950Y240300D01*
X14250Y240500D01*
X13450Y240300D01*
X12850Y239900D01*
X12450Y239300D01*
X12250Y238500D01*
X12450Y237800D01*
X12950Y237100D01*
X13550Y236700D01*
X14250Y236600D01*
X15050Y236800D01*
X15650Y237300D01*
X16250Y238200D01*
G01X18850Y237000D02*
X19550Y237700D01*
X20150Y238100D01*
X20950Y238300D01*
X21650Y238100D01*
X22150Y237700D01*
X22550Y237100D01*
X22650Y236400D01*
X22550Y235800D01*
X22150Y235200D01*
X21550Y234700D01*
X20850Y234500D01*
X20050Y234700D01*
X19350Y235300D01*
X18950Y236200D01*
X18850Y237200D01*
X19050Y238500D01*
X19350Y239200D01*
X19850Y239900D01*
X20550Y240400D01*
X21250Y240500D01*
X21950Y240300D01*
X22450Y239800D01*
G01X29450Y240000D02*
X28850Y240300D01*
X28150Y240500D01*
X27350D01*
X26450Y240200D01*
X25750Y239700D01*
X25250Y239100D01*
X24850Y238100D01*
X24750Y237200D01*
X24950Y236300D01*
X25250Y235700D01*
X25850Y235100D01*
X26550Y234700D01*
X27250Y234500D01*
X27950D01*
X28650Y234700D01*
X29250Y235000D01*
X29750Y235400D01*
G01X33750Y240500D02*
X32950Y240300D01*
X32350Y239800D01*
X31950Y239200D01*
X31650Y238400D01*
X31550Y237500D01*
X31650Y236600D01*
X31950Y235800D01*
X32350Y235200D01*
X32950Y234700D01*
X33750Y234500D01*
X34550Y234700D01*
X35150Y235200D01*
X35550Y235800D01*
X35850Y236600D01*
X35950Y237500D01*
X35850Y238400D01*
X35550Y239200D01*
X35150Y239800D01*
X34550Y240300D01*
X33750Y240500D01*
G01X41450Y234500D02*
Y240500D01*
X37750Y236200D01*
X42750D01*
G01X46750Y234500D02*
Y240500D01*
X45550Y239300D01*
G01Y234500D02*
X47950D01*
G01X54050Y237700D02*
X54450Y238000D01*
X54750Y238500D01*
X54950Y239200D01*
X54750Y239800D01*
X54350Y240200D01*
X53650Y240500D01*
X50950D01*
Y234500D01*
X54250D01*
X54950Y234900D01*
X55350Y235500D01*
X55550Y236200D01*
X55350Y236900D01*
X54750Y237500D01*
X54050Y237700D01*
X50950D01*
G01X59750Y240500D02*
X58950Y240300D01*
X58350Y239800D01*
X57950Y239200D01*
X57650Y238400D01*
X57550Y237500D01*
X57650Y236600D01*
X57950Y235800D01*
X58350Y235200D01*
X58950Y234700D01*
X59750Y234500D01*
X60550Y234700D01*
X61150Y235200D01*
X61550Y235800D01*
X61850Y236600D01*
X61950Y237500D01*
X61850Y238400D01*
X61550Y239200D01*
X61150Y239800D01*
X60550Y240300D01*
X59750Y240500D01*
G54D11*
X5500Y138980D03*
X15500D03*
X25500D03*
X35500D03*
X68468Y151441D03*
Y141599D03*
X79492D03*
Y151441D03*
X478352Y-54849D03*
G54D21*
G01X245908Y-188976D02*
X-96000D01*
G01X-86000Y-106250D02*
Y-188976D01*
G01X-88500Y-173976D02*
X-86000Y-188976D01*
X-83500Y-173976D01*
X-88500D01*
G01X-81200Y-94847D02*
X-80157Y-93763D01*
X-79740Y-92524D01*
X-80157Y-91285D01*
X-81409Y-90201D01*
X-83287Y-89427D01*
X-85165Y-89117D01*
X-87461D01*
X-89339Y-89427D01*
X-91008Y-90201D01*
X-91843Y-91131D01*
X-92260Y-92215D01*
X-91843Y-93453D01*
X-91008Y-94382D01*
X-89756Y-95002D01*
X-88086Y-95312D01*
X-86626Y-95002D01*
X-85165Y-94228D01*
X-84330Y-93298D01*
X-84122Y-92215D01*
X-84539Y-90976D01*
X-85583Y-90047D01*
X-87461Y-89117D01*
G01X-84956Y-82756D02*
X-86417Y-81672D01*
X-87252Y-80743D01*
X-87669Y-79504D01*
X-87252Y-78420D01*
X-86417Y-77646D01*
X-85165Y-77026D01*
X-83705Y-76871D01*
X-82452Y-77026D01*
X-81200Y-77646D01*
X-80157Y-78575D01*
X-79740Y-79659D01*
X-80157Y-80897D01*
X-81409Y-81981D01*
X-83287Y-82601D01*
X-85374Y-82756D01*
X-88086Y-82446D01*
X-89548Y-81981D01*
X-91008Y-81207D01*
X-92051Y-80123D01*
X-92260Y-79039D01*
X-91843Y-77955D01*
X-90799Y-77181D01*
G01X-79740Y-54774D02*
Y-59419D01*
X-92260D01*
Y-54774D01*
G01X-82244Y-48889D02*
X-80783Y-47960D01*
X-79949Y-46721D01*
X-79740Y-45328D01*
X-79949Y-44089D01*
X-80992Y-42850D01*
X-82244Y-42076D01*
X-83496Y-41921D01*
X-84956Y-42231D01*
X-86000Y-43315D01*
X-86417Y-44399D01*
Y-45792D01*
G01Y-44399D02*
X-87043Y-43469D01*
X-88086Y-42695D01*
X-89339Y-42385D01*
X-90591Y-42695D01*
X-91634Y-43469D01*
X-92260Y-44863D01*
X-92051Y-46257D01*
X-91217Y-47650D01*
G01X-79740Y-33391D02*
X-82452Y-33082D01*
X-84748Y-32617D01*
X-86835Y-31998D01*
X-89130Y-31223D01*
X-92260Y-29984D01*
Y-36179D01*
G01X-79740Y-20990D02*
X-82452Y-20681D01*
X-84748Y-20216D01*
X-86835Y-19597D01*
X-89130Y-18822D01*
X-92260Y-17583D01*
Y-23778D01*
G01X-81200Y-10912D02*
X-80157Y-9828D01*
X-79740Y-8589D01*
X-80157Y-7350D01*
X-81409Y-6266D01*
X-83287Y-5492D01*
X-85165Y-5182D01*
X-87461D01*
X-89339Y-5492D01*
X-91008Y-6266D01*
X-91843Y-7196D01*
X-92260Y-8280D01*
X-91843Y-9518D01*
X-91008Y-10447D01*
X-89756Y-11067D01*
X-88086Y-11377D01*
X-86626Y-11067D01*
X-85165Y-10293D01*
X-84330Y-9363D01*
X-84122Y-8280D01*
X-84539Y-7041D01*
X-85583Y-6112D01*
X-87461Y-5182D01*
G01X-79323Y4121D02*
X-79531Y3812D01*
X-79949D01*
X-80157Y4121D01*
X-79949Y4431D01*
X-79531D01*
X-79323Y4121D01*
G01X-81618Y13116D02*
X-80574Y14045D01*
X-79949Y15129D01*
X-79740Y16522D01*
X-80157Y17916D01*
X-80992Y19000D01*
X-82452Y19774D01*
X-84122Y19929D01*
X-85791Y19620D01*
X-86835Y18845D01*
X-87669Y17761D01*
X-87878Y16677D01*
X-87669Y15593D01*
X-86835Y14200D01*
X-92260Y14664D01*
Y18845D01*
G01X-90173Y25981D02*
X-91425Y26910D01*
X-92051Y27994D01*
X-92260Y29233D01*
X-91843Y30782D01*
X-90799Y31866D01*
X-89548Y32175D01*
X-88295Y32021D01*
X-87252Y31401D01*
X-85165Y28304D01*
X-83705Y26910D01*
X-81618Y25981D01*
X-79740Y25672D01*
Y32175D01*
G01Y38215D02*
Y42860D01*
X-92260D01*
Y38215D01*
G01X-86000Y52250D02*
Y188976D01*
G01X-83500Y173976D02*
X-86000Y188976D01*
X-88500Y173976D01*
X-83500D01*
G01X257025Y188976D02*
X-96000D01*
G01X-10500Y0D02*
X-52500D01*
G01X-42500Y18734D02*
Y0D01*
G01X-45000Y15000D02*
X-42500Y0D01*
X-40000Y15000D01*
X-45000D01*
G01X-36240Y34628D02*
X-48760D01*
X-39787Y28898D01*
Y36641D01*
G01X-36240Y45170D02*
X-36449Y46254D01*
X-37074Y47493D01*
X-38118Y48268D01*
X-39579Y48577D01*
X-41039Y48268D01*
X-42291Y47338D01*
X-42917Y45945D01*
Y44396D01*
X-43335Y43467D01*
X-44378Y42693D01*
X-45839Y42383D01*
X-47299Y42848D01*
X-48343Y43932D01*
X-48760Y45170D01*
X-48343Y46409D01*
X-47299Y47493D01*
X-45839Y47958D01*
X-44378Y47648D01*
X-43335Y46874D01*
X-42917Y45945D01*
Y44396D01*
X-42291Y43003D01*
X-41039Y42073D01*
X-39579Y41764D01*
X-38118Y42073D01*
X-37074Y42848D01*
X-36449Y44087D01*
X-36240Y45170D01*
G01Y70210D02*
Y65565D01*
X-48760D01*
Y70210D01*
G01X-36240Y79501D02*
X-48760D01*
X-46256Y77643D01*
G01X-36240D02*
Y81359D01*
G01Y91902D02*
X-36449Y92986D01*
X-37074Y94225D01*
X-38118Y95000D01*
X-39579Y95309D01*
X-41039Y95000D01*
X-42291Y94070D01*
X-42917Y92677D01*
Y91128D01*
X-43335Y90199D01*
X-44378Y89425D01*
X-45839Y89115D01*
X-47299Y89580D01*
X-48343Y90664D01*
X-48760Y91902D01*
X-48343Y93141D01*
X-47299Y94225D01*
X-45839Y94690D01*
X-44378Y94380D01*
X-43335Y93606D01*
X-42917Y92677D01*
Y91128D01*
X-42291Y89735D01*
X-41039Y88805D01*
X-39579Y88496D01*
X-38118Y88805D01*
X-37074Y89580D01*
X-36449Y90819D01*
X-36240Y91902D01*
G01Y104303D02*
X-36449Y105387D01*
X-37074Y106626D01*
X-38118Y107401D01*
X-39579Y107710D01*
X-41039Y107401D01*
X-42291Y106471D01*
X-42917Y105078D01*
Y103529D01*
X-43335Y102600D01*
X-44378Y101826D01*
X-45839Y101516D01*
X-47299Y101981D01*
X-48343Y103065D01*
X-48760Y104303D01*
X-48343Y105542D01*
X-47299Y106626D01*
X-45839Y107091D01*
X-44378Y106781D01*
X-43335Y106007D01*
X-42917Y105078D01*
Y103529D01*
X-42291Y102136D01*
X-41039Y101206D01*
X-39579Y100897D01*
X-38118Y101206D01*
X-37074Y101981D01*
X-36449Y103220D01*
X-36240Y104303D01*
G01X-37700Y114072D02*
X-36657Y115156D01*
X-36240Y116395D01*
X-36657Y117634D01*
X-37909Y118718D01*
X-39787Y119492D01*
X-41665Y119802D01*
X-43961D01*
X-45839Y119492D01*
X-47508Y118718D01*
X-48343Y117788D01*
X-48760Y116704D01*
X-48343Y115466D01*
X-47508Y114537D01*
X-46256Y113917D01*
X-44586Y113607D01*
X-43126Y113917D01*
X-41665Y114691D01*
X-40830Y115621D01*
X-40622Y116704D01*
X-41039Y117943D01*
X-42083Y118872D01*
X-43961Y119802D01*
G01X-35823Y129105D02*
X-36031Y128796D01*
X-36449D01*
X-36657Y129105D01*
X-36449Y129415D01*
X-36031D01*
X-35823Y129105D01*
G01X-36240Y141197D02*
X-38952Y141506D01*
X-41248Y141971D01*
X-43335Y142590D01*
X-45630Y143365D01*
X-48760Y144604D01*
Y138409D01*
G01X-41456Y150965D02*
X-42917Y152049D01*
X-43752Y152978D01*
X-44169Y154217D01*
X-43752Y155301D01*
X-42917Y156075D01*
X-41665Y156695D01*
X-40205Y156850D01*
X-38952Y156695D01*
X-37700Y156075D01*
X-36657Y155146D01*
X-36240Y154062D01*
X-36657Y152824D01*
X-37909Y151740D01*
X-39787Y151120D01*
X-41874Y150965D01*
X-44586Y151275D01*
X-46048Y151740D01*
X-47508Y152514D01*
X-48551Y153598D01*
X-48760Y154682D01*
X-48343Y155766D01*
X-47299Y156540D01*
G01X-36240Y163199D02*
Y167844D01*
X-48760D01*
Y163199D01*
G01X-42500Y177234D02*
Y188976D01*
G01X-40000Y173976D02*
X-42500Y188976D01*
X-45000Y173976D01*
X-40000D01*
G01X-10500Y188976D02*
X-52500D01*
G01X271091Y0D02*
X3500D01*
G03X-500Y-4000I0J-4000D01*
G01Y-184976D01*
G03X3500Y-188976I4000J0D01*
G01X271091D01*
G03X275091Y-184976I0J4000D01*
G01Y-4000D01*
G03X271091Y0I-4000J0D01*
G01D02*
X3500D01*
G03X-500Y-4000I0J-4000D01*
G01Y-184976D01*
G03X3500Y-188976I4000J0D01*
G01X271091D01*
G03X275091Y-184976I0J4000D01*
G01Y-4000D01*
G03X271091Y0I-4000J0D01*
G01X3500D02*
X271091D01*
G03X275091Y4000I0J4000D01*
G01Y184976D01*
G03X271091Y188976I-4000J0D01*
G01X3500D01*
G03X-500Y184976I0J-4000D01*
G01Y4000D01*
G03X3500Y0I4000J0D01*
G01X-500Y102213D02*
Y219500D01*
G01X49250Y209500D02*
X-500D01*
G01X14500Y212000D02*
X-500Y209500D01*
X14500Y207000D01*
Y212000D01*
G01X21891Y-181500D02*
G03I-4800J0D01*
G01X13800Y9500D02*
G03I-4800J0D01*
G01X62976Y203240D02*
X63285Y205952D01*
X63750Y208248D01*
X64369Y210335D01*
X65144Y212630D01*
X66383Y215760D01*
X60188D01*
G01X75686D02*
X74448Y215343D01*
X73519Y214299D01*
X72899Y213048D01*
X72435Y211378D01*
X72280Y209500D01*
X72435Y207622D01*
X72899Y205952D01*
X73519Y204700D01*
X74448Y203657D01*
X75686Y203240D01*
X76925Y203657D01*
X77854Y204700D01*
X78474Y205952D01*
X78938Y207622D01*
X79093Y209500D01*
X78938Y211378D01*
X78474Y213048D01*
X77854Y214299D01*
X76925Y215343D01*
X75686Y215760D01*
G01X98800Y179500D02*
G03I-4800J0D01*
G01X100726Y203240D02*
X96081D01*
Y215760D01*
X100726D01*
G01X107075Y213673D02*
X108004Y214925D01*
X109088Y215551D01*
X110327Y215760D01*
X111876Y215343D01*
X112960Y214299D01*
X113269Y213048D01*
X113115Y211795D01*
X112495Y210752D01*
X109398Y208665D01*
X108004Y207205D01*
X107075Y205118D01*
X106766Y203240D01*
X113269D01*
G01X122109D02*
X122418Y205952D01*
X122883Y208248D01*
X123502Y210335D01*
X124277Y212630D01*
X125516Y215760D01*
X119321D01*
G01X131413Y205118D02*
X132342Y204074D01*
X133426Y203449D01*
X134819Y203240D01*
X136213Y203657D01*
X137297Y204492D01*
X138071Y205952D01*
X138226Y207622D01*
X137917Y209291D01*
X137142Y210335D01*
X136058Y211169D01*
X134974Y211378D01*
X133890Y211169D01*
X132497Y210335D01*
X132961Y215760D01*
X137142D01*
G01X143814Y205118D02*
X144743Y204074D01*
X145827Y203449D01*
X147220Y203240D01*
X148614Y203657D01*
X149698Y204492D01*
X150472Y205952D01*
X150627Y207622D01*
X150318Y209291D01*
X149543Y210335D01*
X148459Y211169D01*
X147375Y211378D01*
X146291Y211169D01*
X144898Y210335D01*
X145362Y215760D01*
X149543D01*
G01X159621Y202823D02*
X159312Y203031D01*
Y203449D01*
X159621Y203657D01*
X159931Y203449D01*
Y203031D01*
X159621Y202823D01*
G01X169390Y204700D02*
X170474Y203657D01*
X171713Y203240D01*
X172952Y203657D01*
X174036Y204909D01*
X174810Y206787D01*
X175120Y208665D01*
Y210961D01*
X174810Y212839D01*
X174036Y214508D01*
X173106Y215343D01*
X172022Y215760D01*
X170784Y215343D01*
X169855Y214508D01*
X169235Y213256D01*
X168925Y211586D01*
X169235Y210126D01*
X170009Y208665D01*
X170939Y207830D01*
X172022Y207622D01*
X173261Y208039D01*
X174190Y209083D01*
X175120Y210961D01*
G01X184423Y203240D02*
Y215760D01*
X182565Y213256D01*
G01Y203240D02*
X186281D01*
G01X136203Y-71803D02*
Y-87394D01*
X128798D01*
G01X131526Y-79859D02*
X136203D01*
G01X130999Y94327D02*
Y109918D01*
X138404D01*
G01X135676Y102383D02*
X130999D01*
G01X185391Y-179500D02*
G03I-4800J0D01*
G01X193715Y203240D02*
X198360D01*
Y215760D01*
X193715D01*
G01X207750Y209500D02*
X275091D01*
G01X270391Y-9500D02*
G03I-4800J0D01*
G01X272389Y450D02*
X257189Y0D01*
X271713Y-4504D01*
X272389Y450D01*
G01X257189Y0D02*
X319500Y-8500D01*
G01X262300Y181500D02*
G03I-4800J0D01*
G01X260091Y207000D02*
X275091Y209500D01*
X260091Y212000D01*
Y207000D01*
G01X275091Y127868D02*
Y219500D01*
G01X327474Y-1409D02*
X332346Y-17000D01*
X337219Y-1409D01*
G01X347687Y-11803D02*
X352754D01*
G01X372382Y-2708D02*
X371213Y-1929D01*
X369849Y-1409D01*
X368290D01*
X366535Y-2189D01*
X365171Y-3488D01*
X364197Y-5047D01*
X363417Y-7645D01*
X363222Y-9984D01*
X363612Y-12323D01*
X364197Y-13882D01*
X365366Y-15441D01*
X366730Y-16480D01*
X368094Y-17000D01*
X369459D01*
X370823Y-16480D01*
X371992Y-15701D01*
X372967Y-14662D01*
G01X381681Y-1409D02*
Y-12583D01*
X382460Y-14922D01*
X384020Y-16480D01*
X385968Y-17000D01*
X387917Y-16480D01*
X389477Y-14922D01*
X390256Y-12583D01*
Y-1409D01*
G01X403842D02*
Y-17000D01*
G01X399360Y-1409D02*
X408325D01*
G01X433393Y-181348D02*
Y180984D01*
X917071D01*
Y-181348D01*
X433393D01*
G01Y-153237D02*
X917071D01*
G01X433393Y-125126D02*
X917071D01*
G01X433393Y-97015D02*
X917071D01*
G01X433393Y-68904D02*
X917071D01*
G01X433393Y-40793D02*
X917071D01*
G01X433393Y-12682D02*
X917071D01*
G01X433393Y15429D02*
X917071D01*
G01X433393Y43540D02*
X917071D01*
G01X433393Y71651D02*
X917071D01*
G01X433393Y99762D02*
X917071D01*
G01X433393Y127873D02*
X917071D01*
G01X433393Y155984D02*
X917071D01*
G01X444407Y109093D02*
Y121613D01*
X450292D01*
G01X448124Y115562D02*
X444407D01*
G01X457892Y121613D02*
X461608D01*
G01X459750D02*
Y109093D01*
G01X457892D02*
X461608D01*
G01X473081Y115353D02*
X476178D01*
Y111597D01*
X475249Y110345D01*
X474165Y109510D01*
X472616Y109093D01*
X471068Y109510D01*
X469984Y110345D01*
X469054Y111597D01*
X468435Y113058D01*
X468125Y114727D01*
Y116188D01*
X468435Y117439D01*
X469054Y118901D01*
X469984Y120152D01*
X470913Y120987D01*
X472151Y121613D01*
X473235D01*
X474474Y121196D01*
X475403Y120361D01*
G01X481146Y121613D02*
Y112640D01*
X481765Y110762D01*
X483004Y109510D01*
X484552Y109093D01*
X486101Y109510D01*
X487340Y110762D01*
X487959Y112640D01*
Y121613D01*
G01X493856Y109093D02*
Y121613D01*
X497728D01*
X498967Y120987D01*
X499741Y120152D01*
X500051Y118483D01*
X499741Y116814D01*
X498812Y115770D01*
X497728Y115144D01*
X493856D01*
G01X497728D02*
X500051Y109093D01*
G01X512452D02*
X506257D01*
Y121613D01*
X512452D01*
G01X509974Y115562D02*
X506257D01*
G01X516813Y162204D02*
Y174724D01*
X519910D01*
X521149Y174098D01*
X522078Y173263D01*
X522852Y172012D01*
X523471Y170550D01*
X523626Y168464D01*
X523471Y166377D01*
X522852Y164916D01*
X522078Y163664D01*
X521149Y162830D01*
X519910Y162204D01*
X516813D01*
G01X529523D02*
Y174724D01*
X533395D01*
X534634Y174098D01*
X535408Y173263D01*
X535718Y171594D01*
X535408Y169925D01*
X534479Y168881D01*
X533395Y168255D01*
X529523D01*
G01X533395D02*
X535718Y162204D01*
G01X543163Y174724D02*
X546879D01*
G01X545021D02*
Y162204D01*
G01X543163D02*
X546879D01*
G01X554325Y174724D02*
Y162204D01*
X560520D01*
G01X566726Y174724D02*
Y162204D01*
X572921D01*
G01X598032Y173681D02*
X597103Y174307D01*
X596019Y174724D01*
X594780D01*
X593387Y174098D01*
X592303Y173055D01*
X591528Y171803D01*
X590909Y169716D01*
X590754Y167838D01*
X591064Y165960D01*
X591528Y164708D01*
X592458Y163456D01*
X593542Y162621D01*
X594625Y162204D01*
X595709D01*
X596793Y162621D01*
X597723Y163247D01*
X598497Y164082D01*
G01X603775Y162204D02*
Y174724D01*
G01X610278D02*
Y162204D01*
G01Y168464D02*
X603775D01*
G01X615556Y162204D02*
X619427Y174724D01*
X623299Y162204D01*
G01X621905Y166586D02*
X616950D01*
G01X628731Y162204D02*
Y174724D01*
X632603D01*
X633842Y174098D01*
X634616Y173263D01*
X634926Y171594D01*
X634616Y169925D01*
X633687Y168881D01*
X632603Y168255D01*
X628731D01*
G01X632603D02*
X634926Y162204D01*
G01X644229Y174724D02*
Y162204D01*
G01X640668Y174724D02*
X647791D01*
G01X656630Y161787D02*
X656321Y161995D01*
Y162413D01*
X656630Y162621D01*
X656940Y162413D01*
Y161995D01*
X656630Y161787D01*
G01Y167420D02*
X656321Y167629D01*
Y168047D01*
X656630Y168255D01*
X656940Y168047D01*
Y167629D01*
X656630Y167420D01*
G01X681432Y174724D02*
Y162204D01*
G01X677871Y174724D02*
X684994D01*
G01X693833Y162204D02*
X692595Y162413D01*
X691511Y163247D01*
X690582Y164499D01*
X689962Y165960D01*
X689652Y167629D01*
Y169299D01*
X689962Y170968D01*
X690582Y172429D01*
X691511Y173681D01*
X692595Y174515D01*
X693833Y174724D01*
X695072Y174515D01*
X696156Y173681D01*
X697085Y172429D01*
X697705Y170968D01*
X698015Y169299D01*
Y167629D01*
X697705Y165960D01*
X697085Y164499D01*
X696156Y163247D01*
X695072Y162413D01*
X693833Y162204D01*
G01X703137D02*
Y174724D01*
X706854D01*
X708093Y174098D01*
X709022Y172637D01*
X709332Y170968D01*
X709022Y169299D01*
X708248Y168047D01*
X706854Y167420D01*
X703137D01*
G01X731036Y174724D02*
Y162204D01*
G01X728869Y170550D02*
X733204D01*
G01X743437Y162204D02*
X742508Y162413D01*
X741579Y163247D01*
X740960Y164708D01*
X740650Y166377D01*
X740960Y168047D01*
X741579Y169507D01*
X742508Y170342D01*
X743437Y170550D01*
X744367Y170342D01*
X745296Y169507D01*
X745915Y168047D01*
X746070Y166377D01*
X745915Y164708D01*
X745296Y163247D01*
X744367Y162413D01*
X743437Y162204D01*
G01X769478Y168881D02*
X770098Y169507D01*
X770562Y170550D01*
X770872Y172012D01*
X770562Y173263D01*
X769943Y174098D01*
X768859Y174724D01*
X764678D01*
Y162204D01*
X769788D01*
X770872Y163038D01*
X771491Y164291D01*
X771801Y165751D01*
X771491Y167212D01*
X770562Y168464D01*
X769478Y168881D01*
X764678D01*
G01X780640Y162204D02*
X779402Y162413D01*
X778318Y163247D01*
X777389Y164499D01*
X776769Y165960D01*
X776459Y167629D01*
Y169299D01*
X776769Y170968D01*
X777389Y172429D01*
X778318Y173681D01*
X779402Y174515D01*
X780640Y174724D01*
X781879Y174515D01*
X782963Y173681D01*
X783892Y172429D01*
X784512Y170968D01*
X784822Y169299D01*
Y167629D01*
X784512Y165960D01*
X783892Y164499D01*
X782963Y163247D01*
X781879Y162413D01*
X780640Y162204D01*
G01X793041Y174724D02*
Y162204D01*
G01X789480Y174724D02*
X796603D01*
G01X805442D02*
Y162204D01*
G01X801881Y174724D02*
X809004D01*
G01X817843Y162204D02*
X816605Y162413D01*
X815521Y163247D01*
X814592Y164499D01*
X813972Y165960D01*
X813662Y167629D01*
Y169299D01*
X813972Y170968D01*
X814592Y172429D01*
X815521Y173681D01*
X816605Y174515D01*
X817843Y174724D01*
X819082Y174515D01*
X820166Y173681D01*
X821095Y172429D01*
X821715Y170968D01*
X822025Y169299D01*
Y167629D01*
X821715Y165960D01*
X821095Y164499D01*
X820166Y163247D01*
X819082Y162413D01*
X817843Y162204D01*
G01X826218D02*
Y174724D01*
X830244Y164291D01*
X834271Y174724D01*
Y162204D01*
G01X523310Y127873D02*
Y-181348D01*
G01X547350Y137204D02*
X551221Y149724D01*
X555093Y137204D01*
G01X553699Y141586D02*
X548744D01*
G01X560525Y149724D02*
Y137204D01*
X566720D01*
G01X572926Y149724D02*
Y137204D01*
X579121D01*
G01X597419Y149724D02*
Y140751D01*
X598038Y138873D01*
X599277Y137621D01*
X600825Y137204D01*
X602374Y137621D01*
X603613Y138873D01*
X604232Y140751D01*
Y149724D01*
G01X609665Y137204D02*
Y149724D01*
X616788Y137204D01*
Y149724D01*
G01X623769D02*
X627485D01*
G01X625627D02*
Y137204D01*
G01X623769D02*
X627485D01*
G01X638028Y149724D02*
Y137204D01*
G01X634467Y149724D02*
X641590D01*
G01X647178Y138873D02*
X648416Y137830D01*
X649810Y137204D01*
X651049D01*
X652288Y137830D01*
X653217Y138873D01*
X653681Y140334D01*
X653372Y141794D01*
X652597Y143047D01*
X651204Y143881D01*
X649346Y144299D01*
X648262Y145133D01*
X647797Y146594D01*
X648107Y148055D01*
X648881Y149098D01*
X649965Y149724D01*
X651049D01*
X652133Y149307D01*
X653062Y148263D01*
G01X671360Y137204D02*
X675231Y149724D01*
X679103Y137204D01*
G01X677709Y141586D02*
X672754D01*
G01X684535Y137204D02*
Y149724D01*
X688407D01*
X689646Y149098D01*
X690420Y148263D01*
X690730Y146594D01*
X690420Y144925D01*
X689491Y143881D01*
X688407Y143255D01*
X684535D01*
G01X688407D02*
X690730Y137204D01*
G01X703131D02*
X696936D01*
Y149724D01*
X703131D01*
G01X700653Y143673D02*
X696936D01*
G01X722977Y149724D02*
X726693D01*
G01X724835D02*
Y137204D01*
G01X722977D02*
X726693D01*
G01X733675D02*
Y149724D01*
X740798Y137204D01*
Y149724D01*
G01X758012Y137204D02*
Y149724D01*
X762038Y139291D01*
X766065Y149724D01*
Y137204D01*
G01X772581Y149724D02*
X776297D01*
G01X774439D02*
Y137204D01*
G01X772581D02*
X776297D01*
G01X783743Y149724D02*
Y137204D01*
X789938D01*
G01X795990Y138873D02*
X797228Y137830D01*
X798622Y137204D01*
X799861D01*
X801100Y137830D01*
X802029Y138873D01*
X802493Y140334D01*
X802184Y141794D01*
X801409Y143047D01*
X800016Y143881D01*
X798158Y144299D01*
X797074Y145133D01*
X796609Y146594D01*
X796919Y148055D01*
X797693Y149098D01*
X798777Y149724D01*
X799861D01*
X800945Y149307D01*
X801874Y148263D01*
G01X589663Y-171049D02*
X590592Y-172510D01*
X591831Y-173344D01*
X593224Y-173553D01*
X594463Y-173344D01*
X595702Y-172301D01*
X596476Y-171049D01*
X596631Y-169797D01*
X596321Y-168337D01*
X595237Y-167293D01*
X594153Y-166876D01*
X592760D01*
G01X594153D02*
X595083Y-166250D01*
X595857Y-165207D01*
X596167Y-163954D01*
X595857Y-162702D01*
X595083Y-161659D01*
X593689Y-161033D01*
X592295Y-161242D01*
X590902Y-162076D01*
G01X602064Y-171675D02*
X602993Y-172719D01*
X604077Y-173344D01*
X605470Y-173553D01*
X606864Y-173136D01*
X607948Y-172301D01*
X608722Y-170841D01*
X608877Y-169171D01*
X608568Y-167502D01*
X607793Y-166458D01*
X606709Y-165624D01*
X605625Y-165415D01*
X604541Y-165624D01*
X603148Y-166458D01*
X603612Y-161033D01*
X607793D01*
G01X617871Y-173970D02*
X617562Y-173762D01*
Y-173344D01*
X617871Y-173136D01*
X618181Y-173344D01*
Y-173762D01*
X617871Y-173970D01*
G01X632131Y-173553D02*
Y-161033D01*
X626401Y-170006D01*
X634144D01*
G01X639267Y-171049D02*
X640196Y-172510D01*
X641435Y-173344D01*
X642828Y-173553D01*
X644067Y-173344D01*
X645306Y-172301D01*
X646080Y-171049D01*
X646235Y-169797D01*
X645925Y-168337D01*
X644841Y-167293D01*
X643757Y-166876D01*
X642364D01*
G01X643757D02*
X644687Y-166250D01*
X645461Y-165207D01*
X645771Y-163954D01*
X645461Y-162702D01*
X644687Y-161659D01*
X643293Y-161033D01*
X641899Y-161242D01*
X640506Y-162076D01*
G01X595864Y-142938D02*
X596793Y-144399D01*
X598032Y-145233D01*
X599425Y-145442D01*
X600664Y-145233D01*
X601903Y-144190D01*
X602677Y-142938D01*
X602832Y-141686D01*
X602522Y-140226D01*
X601438Y-139182D01*
X600354Y-138765D01*
X598961D01*
G01X600354D02*
X601284Y-138139D01*
X602058Y-137096D01*
X602368Y-135843D01*
X602058Y-134591D01*
X601284Y-133548D01*
X599890Y-132922D01*
X598496Y-133131D01*
X597103Y-133965D01*
G01X611671Y-145442D02*
Y-132922D01*
X609813Y-135426D01*
G01Y-145442D02*
X613529D01*
G01X624072Y-145859D02*
X623763Y-145651D01*
Y-145233D01*
X624072Y-145025D01*
X624382Y-145233D01*
Y-145651D01*
X624072Y-145859D01*
G01X633067Y-143564D02*
X633996Y-144608D01*
X635080Y-145233D01*
X636473Y-145442D01*
X637867Y-145025D01*
X638951Y-144190D01*
X639725Y-142730D01*
X639880Y-141060D01*
X639571Y-139391D01*
X638796Y-138347D01*
X637712Y-137513D01*
X636628Y-137304D01*
X635544Y-137513D01*
X634151Y-138347D01*
X634615Y-132922D01*
X638796D01*
G01X594928Y-117330D02*
Y-104810D01*
X589198Y-113783D01*
X596941D01*
G01X605470Y-117330D02*
Y-104810D01*
X603612Y-107314D01*
G01Y-117330D02*
X607328D01*
G01X617871Y-117747D02*
X617562Y-117539D01*
Y-117121D01*
X617871Y-116913D01*
X618181Y-117121D01*
Y-117539D01*
X617871Y-117747D01*
G01X626866Y-114826D02*
X627795Y-116287D01*
X629034Y-117121D01*
X630427Y-117330D01*
X631666Y-117121D01*
X632905Y-116078D01*
X633679Y-114826D01*
X633834Y-113574D01*
X633524Y-112114D01*
X632440Y-111070D01*
X631356Y-110653D01*
X629963D01*
G01X631356D02*
X632286Y-110027D01*
X633060Y-108984D01*
X633370Y-107731D01*
X633060Y-106479D01*
X632286Y-105436D01*
X630892Y-104810D01*
X629498Y-105019D01*
X628105Y-105853D01*
G01X644532Y-117330D02*
Y-104810D01*
X638802Y-113783D01*
X646545D01*
G01X594928Y-89220D02*
Y-76700D01*
X589198Y-85673D01*
X596941D01*
G01X605470Y-76700D02*
X604232Y-77117D01*
X603303Y-78161D01*
X602683Y-79412D01*
X602219Y-81082D01*
X602064Y-82960D01*
X602219Y-84838D01*
X602683Y-86508D01*
X603303Y-87760D01*
X604232Y-88803D01*
X605470Y-89220D01*
X606709Y-88803D01*
X607638Y-87760D01*
X608258Y-86508D01*
X608722Y-84838D01*
X608877Y-82960D01*
X608722Y-81082D01*
X608258Y-79412D01*
X607638Y-78161D01*
X606709Y-77117D01*
X605470Y-76700D01*
G01X617871Y-89637D02*
X617562Y-89429D01*
Y-89011D01*
X617871Y-88803D01*
X618181Y-89011D01*
Y-89429D01*
X617871Y-89637D01*
G01X630272Y-89220D02*
Y-76700D01*
X628414Y-79204D01*
G01Y-89220D02*
X632130D01*
G01X639731Y-84004D02*
X640815Y-82543D01*
X641744Y-81708D01*
X642983Y-81291D01*
X644067Y-81708D01*
X644841Y-82543D01*
X645461Y-83795D01*
X645616Y-85255D01*
X645461Y-86508D01*
X644841Y-87760D01*
X643912Y-88803D01*
X642828Y-89220D01*
X641590Y-88803D01*
X640506Y-87551D01*
X639886Y-85673D01*
X639731Y-83586D01*
X640041Y-80874D01*
X640506Y-79412D01*
X641280Y-77952D01*
X642364Y-76909D01*
X643448Y-76700D01*
X644532Y-77117D01*
X645306Y-78161D01*
G01X589663Y-58605D02*
X590592Y-60066D01*
X591831Y-60900D01*
X593224Y-61109D01*
X594463Y-60900D01*
X595702Y-59857D01*
X596476Y-58605D01*
X596631Y-57353D01*
X596321Y-55893D01*
X595237Y-54849D01*
X594153Y-54432D01*
X592760D01*
G01X594153D02*
X595083Y-53806D01*
X595857Y-52763D01*
X596167Y-51510D01*
X595857Y-50258D01*
X595083Y-49215D01*
X593689Y-48589D01*
X592295Y-48798D01*
X590902Y-49632D01*
G01X602838Y-59649D02*
X603922Y-60692D01*
X605161Y-61109D01*
X606400Y-60692D01*
X607484Y-59440D01*
X608258Y-57562D01*
X608568Y-55684D01*
Y-53388D01*
X608258Y-51510D01*
X607484Y-49841D01*
X606554Y-49006D01*
X605470Y-48589D01*
X604232Y-49006D01*
X603303Y-49841D01*
X602683Y-51093D01*
X602373Y-52763D01*
X602683Y-54223D01*
X603457Y-55684D01*
X604387Y-56519D01*
X605470Y-56727D01*
X606709Y-56310D01*
X607638Y-55266D01*
X608568Y-53388D01*
G01X617871Y-61526D02*
X617562Y-61318D01*
Y-60900D01*
X617871Y-60692D01*
X618181Y-60900D01*
Y-61318D01*
X617871Y-61526D01*
G01X626866Y-58605D02*
X627795Y-60066D01*
X629034Y-60900D01*
X630427Y-61109D01*
X631666Y-60900D01*
X632905Y-59857D01*
X633679Y-58605D01*
X633834Y-57353D01*
X633524Y-55893D01*
X632440Y-54849D01*
X631356Y-54432D01*
X629963D01*
G01X631356D02*
X632286Y-53806D01*
X633060Y-52763D01*
X633370Y-51510D01*
X633060Y-50258D01*
X632286Y-49215D01*
X630892Y-48589D01*
X629498Y-48798D01*
X628105Y-49632D01*
G01X642364Y-61109D02*
X642673Y-58397D01*
X643138Y-56101D01*
X643757Y-54014D01*
X644532Y-51719D01*
X645771Y-48589D01*
X639576D01*
G01X589663Y-30494D02*
X590592Y-31955D01*
X591831Y-32789D01*
X593224Y-32998D01*
X594463Y-32789D01*
X595702Y-31746D01*
X596476Y-30494D01*
X596631Y-29242D01*
X596321Y-27782D01*
X595237Y-26738D01*
X594153Y-26321D01*
X592760D01*
G01X594153D02*
X595083Y-25695D01*
X595857Y-24652D01*
X596167Y-23399D01*
X595857Y-22147D01*
X595083Y-21104D01*
X593689Y-20478D01*
X592295Y-20687D01*
X590902Y-21521D01*
G01X602838Y-31538D02*
X603922Y-32581D01*
X605161Y-32998D01*
X606400Y-32581D01*
X607484Y-31329D01*
X608258Y-29451D01*
X608568Y-27573D01*
Y-25277D01*
X608258Y-23399D01*
X607484Y-21730D01*
X606554Y-20895D01*
X605470Y-20478D01*
X604232Y-20895D01*
X603303Y-21730D01*
X602683Y-22982D01*
X602373Y-24652D01*
X602683Y-26112D01*
X603457Y-27573D01*
X604387Y-28408D01*
X605470Y-28616D01*
X606709Y-28199D01*
X607638Y-27155D01*
X608568Y-25277D01*
G01X617871Y-33415D02*
X617562Y-33207D01*
Y-32789D01*
X617871Y-32581D01*
X618181Y-32789D01*
Y-33207D01*
X617871Y-33415D01*
G01X626866Y-30494D02*
X627795Y-31955D01*
X629034Y-32789D01*
X630427Y-32998D01*
X631666Y-32789D01*
X632905Y-31746D01*
X633679Y-30494D01*
X633834Y-29242D01*
X633524Y-27782D01*
X632440Y-26738D01*
X631356Y-26321D01*
X629963D01*
G01X631356D02*
X632286Y-25695D01*
X633060Y-24652D01*
X633370Y-23399D01*
X633060Y-22147D01*
X632286Y-21104D01*
X630892Y-20478D01*
X629498Y-20687D01*
X628105Y-21521D01*
G01X642364Y-32998D02*
X642673Y-30286D01*
X643138Y-27990D01*
X643757Y-25903D01*
X644532Y-23608D01*
X645771Y-20478D01*
X639576D01*
G01X595864Y-2383D02*
X596793Y-3844D01*
X598032Y-4678D01*
X599425Y-4887D01*
X600664Y-4678D01*
X601903Y-3635D01*
X602677Y-2383D01*
X602832Y-1131D01*
X602522Y329D01*
X601438Y1373D01*
X600354Y1790D01*
X598961D01*
G01X600354D02*
X601284Y2416D01*
X602058Y3459D01*
X602368Y4712D01*
X602058Y5964D01*
X601284Y7007D01*
X599890Y7633D01*
X598496Y7424D01*
X597103Y6590D01*
G01X611362Y-4887D02*
X611671Y-2175D01*
X612136Y121D01*
X612755Y2208D01*
X613530Y4503D01*
X614769Y7633D01*
X608574D01*
G01X624072Y-5304D02*
X623763Y-5096D01*
Y-4678D01*
X624072Y-4470D01*
X624382Y-4678D01*
Y-5096D01*
X624072Y-5304D01*
G01X638332Y-4887D02*
Y7633D01*
X632602Y-1340D01*
X640345D01*
G01X595864Y25728D02*
X596793Y24267D01*
X598032Y23433D01*
X599425Y23224D01*
X600664Y23433D01*
X601903Y24476D01*
X602677Y25728D01*
X602832Y26980D01*
X602522Y28440D01*
X601438Y29484D01*
X600354Y29901D01*
X598961D01*
G01X600354D02*
X601284Y30527D01*
X602058Y31570D01*
X602368Y32823D01*
X602058Y34075D01*
X601284Y35118D01*
X599890Y35744D01*
X598496Y35535D01*
X597103Y34701D01*
G01X608729Y28440D02*
X609813Y29901D01*
X610742Y30736D01*
X611981Y31153D01*
X613065Y30736D01*
X613839Y29901D01*
X614459Y28649D01*
X614614Y27189D01*
X614459Y25936D01*
X613839Y24684D01*
X612910Y23641D01*
X611826Y23224D01*
X610588Y23641D01*
X609504Y24893D01*
X608884Y26771D01*
X608729Y28858D01*
X609039Y31570D01*
X609504Y33032D01*
X610278Y34492D01*
X611362Y35535D01*
X612446Y35744D01*
X613530Y35327D01*
X614304Y34283D01*
G01X624072Y22807D02*
X623763Y23015D01*
Y23433D01*
X624072Y23641D01*
X624382Y23433D01*
Y23015D01*
X624072Y22807D01*
G01X636473Y35744D02*
X635235Y35327D01*
X634306Y34283D01*
X633686Y33032D01*
X633222Y31362D01*
X633067Y29484D01*
X633222Y27606D01*
X633686Y25936D01*
X634306Y24684D01*
X635235Y23641D01*
X636473Y23224D01*
X637712Y23641D01*
X638641Y24684D01*
X639261Y25936D01*
X639725Y27606D01*
X639880Y29484D01*
X639725Y31362D01*
X639261Y33032D01*
X638641Y34283D01*
X637712Y35327D01*
X636473Y35744D01*
G01X595864Y53839D02*
X596793Y52378D01*
X598032Y51544D01*
X599425Y51335D01*
X600664Y51544D01*
X601903Y52587D01*
X602677Y53839D01*
X602832Y55091D01*
X602522Y56551D01*
X601438Y57595D01*
X600354Y58012D01*
X598961D01*
G01X600354D02*
X601284Y58638D01*
X602058Y59681D01*
X602368Y60934D01*
X602058Y62186D01*
X601284Y63229D01*
X599890Y63855D01*
X598496Y63646D01*
X597103Y62812D01*
G01X611671Y51335D02*
Y63855D01*
X609813Y61351D01*
G01Y51335D02*
X613529D01*
G01X624072Y50918D02*
X623763Y51126D01*
Y51544D01*
X624072Y51752D01*
X624382Y51544D01*
Y51126D01*
X624072Y50918D01*
G01X633067Y53213D02*
X633996Y52169D01*
X635080Y51544D01*
X636473Y51335D01*
X637867Y51752D01*
X638951Y52587D01*
X639725Y54047D01*
X639880Y55717D01*
X639571Y57386D01*
X638796Y58430D01*
X637712Y59264D01*
X636628Y59473D01*
X635544Y59264D01*
X634151Y58430D01*
X634615Y63855D01*
X638796D01*
G01X599270Y79446D02*
Y91966D01*
X597412Y89462D01*
G01Y79446D02*
X601128D01*
G01X611671Y91966D02*
X610433Y91549D01*
X609504Y90505D01*
X608884Y89254D01*
X608420Y87584D01*
X608265Y85706D01*
X608420Y83828D01*
X608884Y82158D01*
X609504Y80906D01*
X610433Y79863D01*
X611671Y79446D01*
X612910Y79863D01*
X613839Y80906D01*
X614459Y82158D01*
X614923Y83828D01*
X615078Y85706D01*
X614923Y87584D01*
X614459Y89254D01*
X613839Y90505D01*
X612910Y91549D01*
X611671Y91966D01*
G01X624072Y79029D02*
X623763Y79237D01*
Y79655D01*
X624072Y79863D01*
X624382Y79655D01*
Y79237D01*
X624072Y79029D01*
G01X636473Y91966D02*
X635235Y91549D01*
X634306Y90505D01*
X633686Y89254D01*
X633222Y87584D01*
X633067Y85706D01*
X633222Y83828D01*
X633686Y82158D01*
X634306Y80906D01*
X635235Y79863D01*
X636473Y79446D01*
X637712Y79863D01*
X638641Y80906D01*
X639261Y82158D01*
X639725Y83828D01*
X639880Y85706D01*
X639725Y87584D01*
X639261Y89254D01*
X638641Y90505D01*
X637712Y91549D01*
X636473Y91966D01*
G01X596019Y110762D02*
X597257Y109719D01*
X598651Y109093D01*
X599890D01*
X601129Y109719D01*
X602058Y110762D01*
X602522Y112223D01*
X602213Y113683D01*
X601438Y114936D01*
X600045Y115770D01*
X598187Y116188D01*
X597103Y117022D01*
X596638Y118483D01*
X596948Y119944D01*
X597722Y120987D01*
X598806Y121613D01*
X599890D01*
X600974Y121196D01*
X601903Y120152D01*
G01X609813Y121613D02*
X613529D01*
G01X611671D02*
Y109093D01*
G01X609813D02*
X613529D01*
G01X621130Y121613D02*
X627015D01*
X621130Y109093D01*
X627015D01*
G01X639571D02*
X633376D01*
Y121613D01*
X639571D01*
G01X637093Y115562D02*
X633376D01*
G01X716629Y-173553D02*
Y-161033D01*
X723752Y-173553D01*
Y-161033D01*
G01X732591Y-173553D02*
X731353Y-173344D01*
X730269Y-172510D01*
X729340Y-171258D01*
X728720Y-169797D01*
X728410Y-168128D01*
Y-166458D01*
X728720Y-164789D01*
X729340Y-163328D01*
X730269Y-162076D01*
X731353Y-161242D01*
X732591Y-161033D01*
X733830Y-161242D01*
X734914Y-162076D01*
X735843Y-163328D01*
X736463Y-164789D01*
X736773Y-166458D01*
Y-168128D01*
X736463Y-169797D01*
X735843Y-171258D01*
X734914Y-172510D01*
X733830Y-173344D01*
X732591Y-173553D01*
G01X741431D02*
Y-161033D01*
X748554Y-173553D01*
Y-161033D01*
G01X755380Y-169380D02*
X759407D01*
G01X766697Y-173553D02*
Y-161033D01*
X770414D01*
X771653Y-161659D01*
X772582Y-163120D01*
X772892Y-164789D01*
X772582Y-166458D01*
X771808Y-167710D01*
X770414Y-168337D01*
X766697D01*
G01X779098Y-161033D02*
Y-173553D01*
X785293D01*
G01X790725D02*
X794596Y-161033D01*
X798468Y-173553D01*
G01X797074Y-169171D02*
X792119D01*
G01X806997Y-161033D02*
Y-173553D01*
G01X803436Y-161033D02*
X810559D01*
G01X822496Y-173553D02*
X816301D01*
Y-161033D01*
X822496D01*
G01X820018Y-167084D02*
X816301D01*
G01X828393Y-173553D02*
Y-161033D01*
X831490D01*
X832729Y-161659D01*
X833658Y-162494D01*
X834432Y-163745D01*
X835051Y-165207D01*
X835206Y-167293D01*
X835051Y-169380D01*
X834432Y-170841D01*
X833658Y-172093D01*
X832729Y-172927D01*
X831490Y-173553D01*
X828393D01*
G01X712435Y127873D02*
Y-181348D01*
G01X716629Y-145442D02*
Y-132922D01*
X723752Y-145442D01*
Y-132922D01*
G01X732591Y-145442D02*
X731353Y-145233D01*
X730269Y-144399D01*
X729340Y-143147D01*
X728720Y-141686D01*
X728410Y-140017D01*
Y-138347D01*
X728720Y-136678D01*
X729340Y-135217D01*
X730269Y-133965D01*
X731353Y-133131D01*
X732591Y-132922D01*
X733830Y-133131D01*
X734914Y-133965D01*
X735843Y-135217D01*
X736463Y-136678D01*
X736773Y-138347D01*
Y-140017D01*
X736463Y-141686D01*
X735843Y-143147D01*
X734914Y-144399D01*
X733830Y-145233D01*
X732591Y-145442D01*
G01X741431D02*
Y-132922D01*
X748554Y-145442D01*
Y-132922D01*
G01X755380Y-141269D02*
X759407D01*
G01X766697Y-145442D02*
Y-132922D01*
X770414D01*
X771653Y-133548D01*
X772582Y-135009D01*
X772892Y-136678D01*
X772582Y-138347D01*
X771808Y-139599D01*
X770414Y-140226D01*
X766697D01*
G01X779098Y-132922D02*
Y-145442D01*
X785293D01*
G01X790725D02*
X794596Y-132922D01*
X798468Y-145442D01*
G01X797074Y-141060D02*
X792119D01*
G01X806997Y-132922D02*
Y-145442D01*
G01X803436Y-132922D02*
X810559D01*
G01X822496Y-145442D02*
X816301D01*
Y-132922D01*
X822496D01*
G01X820018Y-138973D02*
X816301D01*
G01X828393Y-145442D02*
Y-132922D01*
X831490D01*
X832729Y-133548D01*
X833658Y-134383D01*
X834432Y-135634D01*
X835051Y-137096D01*
X835206Y-139182D01*
X835051Y-141269D01*
X834432Y-142730D01*
X833658Y-143982D01*
X832729Y-144816D01*
X831490Y-145442D01*
X828393D01*
G01X741895Y-117330D02*
Y-104810D01*
X745612D01*
X746851Y-105436D01*
X747780Y-106897D01*
X748090Y-108566D01*
X747780Y-110235D01*
X747006Y-111487D01*
X745612Y-112114D01*
X741895D01*
G01X754296Y-104810D02*
Y-117330D01*
X760491D01*
G01X765923D02*
X769794Y-104810D01*
X773666Y-117330D01*
G01X772272Y-112948D02*
X767317D01*
G01X782195Y-104810D02*
Y-117330D01*
G01X778634Y-104810D02*
X785757D01*
G01X797694Y-117330D02*
X791499D01*
Y-104810D01*
X797694D01*
G01X795216Y-110861D02*
X791499D01*
G01X803591Y-117330D02*
Y-104810D01*
X806688D01*
X807927Y-105436D01*
X808856Y-106271D01*
X809630Y-107522D01*
X810249Y-108984D01*
X810404Y-111070D01*
X810249Y-113157D01*
X809630Y-114618D01*
X808856Y-115870D01*
X807927Y-116704D01*
X806688Y-117330D01*
X803591D01*
G01X741895Y-89220D02*
Y-76700D01*
X745612D01*
X746851Y-77326D01*
X747780Y-78787D01*
X748090Y-80456D01*
X747780Y-82125D01*
X747006Y-83377D01*
X745612Y-84004D01*
X741895D01*
G01X754296Y-76700D02*
Y-89220D01*
X760491D01*
G01X765923D02*
X769794Y-76700D01*
X773666Y-89220D01*
G01X772272Y-84838D02*
X767317D01*
G01X782195Y-76700D02*
Y-89220D01*
G01X778634Y-76700D02*
X785757D01*
G01X797694Y-89220D02*
X791499D01*
Y-76700D01*
X797694D01*
G01X795216Y-82751D02*
X791499D01*
G01X803591Y-89220D02*
Y-76700D01*
X806688D01*
X807927Y-77326D01*
X808856Y-78161D01*
X809630Y-79412D01*
X810249Y-80874D01*
X810404Y-82960D01*
X810249Y-85047D01*
X809630Y-86508D01*
X808856Y-87760D01*
X807927Y-88594D01*
X806688Y-89220D01*
X803591D01*
G01X741895Y-61109D02*
Y-48589D01*
X745612D01*
X746851Y-49215D01*
X747780Y-50676D01*
X748090Y-52345D01*
X747780Y-54014D01*
X747006Y-55266D01*
X745612Y-55893D01*
X741895D01*
G01X754296Y-48589D02*
Y-61109D01*
X760491D01*
G01X765923D02*
X769794Y-48589D01*
X773666Y-61109D01*
G01X772272Y-56727D02*
X767317D01*
G01X782195Y-48589D02*
Y-61109D01*
G01X778634Y-48589D02*
X785757D01*
G01X797694Y-61109D02*
X791499D01*
Y-48589D01*
X797694D01*
G01X795216Y-54640D02*
X791499D01*
G01X803591Y-61109D02*
Y-48589D01*
X806688D01*
X807927Y-49215D01*
X808856Y-50050D01*
X809630Y-51301D01*
X810249Y-52763D01*
X810404Y-54849D01*
X810249Y-56936D01*
X809630Y-58397D01*
X808856Y-59649D01*
X807927Y-60483D01*
X806688Y-61109D01*
X803591D01*
G01X741895Y-32998D02*
Y-20478D01*
X745612D01*
X746851Y-21104D01*
X747780Y-22565D01*
X748090Y-24234D01*
X747780Y-25903D01*
X747006Y-27155D01*
X745612Y-27782D01*
X741895D01*
G01X754296Y-20478D02*
Y-32998D01*
X760491D01*
G01X765923D02*
X769794Y-20478D01*
X773666Y-32998D01*
G01X772272Y-28616D02*
X767317D01*
G01X782195Y-20478D02*
Y-32998D01*
G01X778634Y-20478D02*
X785757D01*
G01X797694Y-32998D02*
X791499D01*
Y-20478D01*
X797694D01*
G01X795216Y-26529D02*
X791499D01*
G01X803591Y-32998D02*
Y-20478D01*
X806688D01*
X807927Y-21104D01*
X808856Y-21939D01*
X809630Y-23190D01*
X810249Y-24652D01*
X810404Y-26738D01*
X810249Y-28825D01*
X809630Y-30286D01*
X808856Y-31538D01*
X807927Y-32372D01*
X806688Y-32998D01*
X803591D01*
G01X741895Y-4887D02*
Y7633D01*
X745612D01*
X746851Y7007D01*
X747780Y5546D01*
X748090Y3877D01*
X747780Y2208D01*
X747006Y956D01*
X745612Y329D01*
X741895D01*
G01X754296Y7633D02*
Y-4887D01*
X760491D01*
G01X765923D02*
X769794Y7633D01*
X773666Y-4887D01*
G01X772272Y-505D02*
X767317D01*
G01X782195Y7633D02*
Y-4887D01*
G01X778634Y7633D02*
X785757D01*
G01X797694Y-4887D02*
X791499D01*
Y7633D01*
X797694D01*
G01X795216Y1582D02*
X791499D01*
G01X803591Y-4887D02*
Y7633D01*
X806688D01*
X807927Y7007D01*
X808856Y6172D01*
X809630Y4921D01*
X810249Y3459D01*
X810404Y1373D01*
X810249Y-714D01*
X809630Y-2175D01*
X808856Y-3427D01*
X807927Y-4261D01*
X806688Y-4887D01*
X803591D01*
G01X741895Y23224D02*
Y35744D01*
X745612D01*
X746851Y35118D01*
X747780Y33657D01*
X748090Y31988D01*
X747780Y30319D01*
X747006Y29067D01*
X745612Y28440D01*
X741895D01*
G01X754296Y35744D02*
Y23224D01*
X760491D01*
G01X765923D02*
X769794Y35744D01*
X773666Y23224D01*
G01X772272Y27606D02*
X767317D01*
G01X782195Y35744D02*
Y23224D01*
G01X778634Y35744D02*
X785757D01*
G01X797694Y23224D02*
X791499D01*
Y35744D01*
X797694D01*
G01X795216Y29693D02*
X791499D01*
G01X803591Y23224D02*
Y35744D01*
X806688D01*
X807927Y35118D01*
X808856Y34283D01*
X809630Y33032D01*
X810249Y31570D01*
X810404Y29484D01*
X810249Y27397D01*
X809630Y25936D01*
X808856Y24684D01*
X807927Y23850D01*
X806688Y23224D01*
X803591D01*
G01X741895Y51335D02*
Y63855D01*
X745612D01*
X746851Y63229D01*
X747780Y61768D01*
X748090Y60099D01*
X747780Y58430D01*
X747006Y57178D01*
X745612Y56551D01*
X741895D01*
G01X754296Y63855D02*
Y51335D01*
X760491D01*
G01X765923D02*
X769794Y63855D01*
X773666Y51335D01*
G01X772272Y55717D02*
X767317D01*
G01X782195Y63855D02*
Y51335D01*
G01X778634Y63855D02*
X785757D01*
G01X797694Y51335D02*
X791499D01*
Y63855D01*
X797694D01*
G01X795216Y57804D02*
X791499D01*
G01X803591Y51335D02*
Y63855D01*
X806688D01*
X807927Y63229D01*
X808856Y62394D01*
X809630Y61143D01*
X810249Y59681D01*
X810404Y57595D01*
X810249Y55508D01*
X809630Y54047D01*
X808856Y52795D01*
X807927Y51961D01*
X806688Y51335D01*
X803591D01*
G01X741895Y79446D02*
Y91966D01*
X745612D01*
X746851Y91340D01*
X747780Y89879D01*
X748090Y88210D01*
X747780Y86541D01*
X747006Y85289D01*
X745612Y84662D01*
X741895D01*
G01X754296Y91966D02*
Y79446D01*
X760491D01*
G01X765923D02*
X769794Y91966D01*
X773666Y79446D01*
G01X772272Y83828D02*
X767317D01*
G01X782195Y91966D02*
Y79446D01*
G01X778634Y91966D02*
X785757D01*
G01X797694Y79446D02*
X791499D01*
Y91966D01*
X797694D01*
G01X795216Y85915D02*
X791499D01*
G01X803591Y79446D02*
Y91966D01*
X806688D01*
X807927Y91340D01*
X808856Y90505D01*
X809630Y89254D01*
X810249Y87792D01*
X810404Y85706D01*
X810249Y83619D01*
X809630Y82158D01*
X808856Y80906D01*
X807927Y80072D01*
X806688Y79446D01*
X803591D01*
G01X741895Y109093D02*
Y121613D01*
X745612D01*
X746851Y120987D01*
X747780Y119526D01*
X748090Y117857D01*
X747780Y116188D01*
X747006Y114936D01*
X745612Y114309D01*
X741895D01*
G01X754296Y121613D02*
Y109093D01*
X760491D01*
G01X765923D02*
X769794Y121613D01*
X773666Y109093D01*
G01X772272Y113475D02*
X767317D01*
G01X782195Y121613D02*
Y109093D01*
G01X778634Y121613D02*
X785757D01*
G01X797694Y109093D02*
X791499D01*
Y121613D01*
X797694D01*
G01X795216Y115562D02*
X791499D01*
G01X803591Y109093D02*
Y121613D01*
X806688D01*
X807927Y120987D01*
X808856Y120152D01*
X809630Y118901D01*
X810249Y117439D01*
X810404Y115353D01*
X810249Y113266D01*
X809630Y111805D01*
X808856Y110553D01*
X807927Y109719D01*
X806688Y109093D01*
X803591D01*
G01X839555Y127873D02*
Y-181348D01*
G01X875370Y-163120D02*
X876299Y-161868D01*
X877383Y-161242D01*
X878622Y-161033D01*
X880171Y-161450D01*
X881255Y-162494D01*
X881564Y-163745D01*
X881410Y-164998D01*
X880790Y-166041D01*
X877693Y-168128D01*
X876299Y-169588D01*
X875370Y-171675D01*
X875061Y-173553D01*
X881564D01*
G01X875370Y-135009D02*
X876299Y-133757D01*
X877383Y-133131D01*
X878622Y-132922D01*
X880171Y-133339D01*
X881255Y-134383D01*
X881564Y-135634D01*
X881410Y-136887D01*
X880790Y-137930D01*
X877693Y-140017D01*
X876299Y-141477D01*
X875370Y-143564D01*
X875061Y-145442D01*
X881564D01*
G01X875370Y-106897D02*
X876299Y-105645D01*
X877383Y-105019D01*
X878622Y-104810D01*
X880171Y-105227D01*
X881255Y-106271D01*
X881564Y-107522D01*
X881410Y-108775D01*
X880790Y-109818D01*
X877693Y-111905D01*
X876299Y-113365D01*
X875370Y-115452D01*
X875061Y-117330D01*
X881564D01*
G01X872112Y-89220D02*
Y-76700D01*
X870254Y-79204D01*
G01Y-89220D02*
X873970D01*
G01X884513Y-76700D02*
X883275Y-77117D01*
X882346Y-78161D01*
X881726Y-79412D01*
X881262Y-81082D01*
X881107Y-82960D01*
X881262Y-84838D01*
X881726Y-86508D01*
X882346Y-87760D01*
X883275Y-88803D01*
X884513Y-89220D01*
X885752Y-88803D01*
X886681Y-87760D01*
X887301Y-86508D01*
X887765Y-84838D01*
X887920Y-82960D01*
X887765Y-81082D01*
X887301Y-79412D01*
X886681Y-78161D01*
X885752Y-77117D01*
X884513Y-76700D01*
G01X878312Y-61109D02*
X879396Y-60900D01*
X880635Y-60275D01*
X881410Y-59231D01*
X881719Y-57770D01*
X881410Y-56310D01*
X880480Y-55058D01*
X879087Y-54432D01*
X877538D01*
X876609Y-54014D01*
X875835Y-52971D01*
X875525Y-51510D01*
X875990Y-50050D01*
X877074Y-49006D01*
X878312Y-48589D01*
X879551Y-49006D01*
X880635Y-50050D01*
X881100Y-51510D01*
X880790Y-52971D01*
X880016Y-54014D01*
X879087Y-54432D01*
X877538D01*
X876145Y-55058D01*
X875215Y-56310D01*
X874906Y-57770D01*
X875215Y-59231D01*
X875990Y-60275D01*
X877229Y-60900D01*
X878312Y-61109D01*
G01X868706Y-30494D02*
X869635Y-31955D01*
X870874Y-32789D01*
X872267Y-32998D01*
X873506Y-32789D01*
X874745Y-31746D01*
X875519Y-30494D01*
X875674Y-29242D01*
X875364Y-27782D01*
X874280Y-26738D01*
X873196Y-26321D01*
X871803D01*
G01X873196D02*
X874126Y-25695D01*
X874900Y-24652D01*
X875210Y-23399D01*
X874900Y-22147D01*
X874126Y-21104D01*
X872732Y-20478D01*
X871338Y-20687D01*
X869945Y-21521D01*
G01X884513Y-20478D02*
X883275Y-20895D01*
X882346Y-21939D01*
X881726Y-23190D01*
X881262Y-24860D01*
X881107Y-26738D01*
X881262Y-28616D01*
X881726Y-30286D01*
X882346Y-31538D01*
X883275Y-32581D01*
X884513Y-32998D01*
X885752Y-32581D01*
X886681Y-31538D01*
X887301Y-30286D01*
X887765Y-28616D01*
X887920Y-26738D01*
X887765Y-24860D01*
X887301Y-23190D01*
X886681Y-21939D01*
X885752Y-20895D01*
X884513Y-20478D01*
G01X875370Y5546D02*
X876299Y6798D01*
X877383Y7424D01*
X878622Y7633D01*
X880171Y7216D01*
X881255Y6172D01*
X881564Y4921D01*
X881410Y3668D01*
X880790Y2625D01*
X877693Y538D01*
X876299Y-922D01*
X875370Y-3009D01*
X875061Y-4887D01*
X881564D01*
G01X875370Y33657D02*
X876299Y34909D01*
X877383Y35535D01*
X878622Y35744D01*
X880171Y35327D01*
X881255Y34283D01*
X881564Y33032D01*
X881410Y31779D01*
X880790Y30736D01*
X877693Y28649D01*
X876299Y27189D01*
X875370Y25102D01*
X875061Y23224D01*
X881564D01*
G01X875370Y61768D02*
X876299Y63020D01*
X877383Y63646D01*
X878622Y63855D01*
X880171Y63438D01*
X881255Y62394D01*
X881564Y61143D01*
X881410Y59890D01*
X880790Y58847D01*
X877693Y56760D01*
X876299Y55300D01*
X875370Y53213D01*
X875061Y51335D01*
X881564D01*
G01X862505Y81950D02*
X863434Y80489D01*
X864673Y79655D01*
X866066Y79446D01*
X867305Y79655D01*
X868544Y80698D01*
X869318Y81950D01*
X869473Y83202D01*
X869163Y84662D01*
X868079Y85706D01*
X866995Y86123D01*
X865602D01*
G01X866995D02*
X867925Y86749D01*
X868699Y87792D01*
X869009Y89045D01*
X868699Y90297D01*
X867925Y91340D01*
X866531Y91966D01*
X865137Y91757D01*
X863744Y90923D01*
G01X875370Y89879D02*
X876299Y91131D01*
X877383Y91757D01*
X878622Y91966D01*
X880171Y91549D01*
X881255Y90505D01*
X881564Y89254D01*
X881410Y88001D01*
X880790Y86958D01*
X877693Y84871D01*
X876299Y83411D01*
X875370Y81324D01*
X875061Y79446D01*
X881564D01*
G01X887307Y81950D02*
X888236Y80489D01*
X889475Y79655D01*
X890868Y79446D01*
X892107Y79655D01*
X893346Y80698D01*
X894120Y81950D01*
X894275Y83202D01*
X893965Y84662D01*
X892881Y85706D01*
X891797Y86123D01*
X890404D01*
G01X891797D02*
X892727Y86749D01*
X893501Y87792D01*
X893811Y89045D01*
X893501Y90297D01*
X892727Y91340D01*
X891333Y91966D01*
X889939Y91757D01*
X888546Y90923D01*
G01X865911Y109093D02*
X864673Y109302D01*
X863589Y110136D01*
X862660Y111388D01*
X862040Y112849D01*
X861730Y114518D01*
Y116188D01*
X862040Y117857D01*
X862660Y119318D01*
X863589Y120570D01*
X864673Y121404D01*
X865911Y121613D01*
X867150Y121404D01*
X868234Y120570D01*
X869163Y119318D01*
X869783Y117857D01*
X870093Y116188D01*
Y114518D01*
X869783Y112849D01*
X869163Y111388D01*
X868234Y110136D01*
X867150Y109302D01*
X865911Y109093D01*
G01X867150Y112432D02*
X869009Y109093D01*
G01X878312Y121613D02*
Y109093D01*
G01X874751Y121613D02*
X881874D01*
G01X890713Y109093D02*
Y114727D01*
X887616Y121613D01*
G01X893811D02*
X890713Y114727D01*
G54D12*
X4661Y171618D03*
X44975D03*
X478352Y-111071D03*
G54D13*
X23200Y63800D03*
Y53800D03*
X13200D03*
Y63800D03*
X23200Y83800D03*
Y73800D03*
X13200D03*
Y83800D03*
X23200Y93800D03*
X13200D03*
X478352Y-82960D03*
G54D14*
X44975Y165043D03*
Y178193D03*
X478352Y1373D03*
G54D15*
X60004Y9545D03*
X122996D03*
X478352Y-139182D03*
G54D16*
X82406Y176500D03*
X70594D03*
X478352Y57595D03*
G54D17*
X136500Y175000D03*
X146500D03*
X478352Y29484D03*
G54D18*
X191012Y173272D03*
X222508D03*
X478352Y-167293D03*
G54D19*
X252200Y23400D03*
X262200D03*
X252200Y43400D03*
Y33400D03*
X262200Y43400D03*
Y33400D03*
X252200Y63400D03*
Y53400D03*
X262200Y63400D03*
Y53400D03*
X252200Y83400D03*
Y73400D03*
X262200Y83400D03*
Y73400D03*
X252200Y103400D03*
Y93400D03*
X262200Y103400D03*
Y93400D03*
X252200Y123400D03*
Y113400D03*
X262200Y123400D03*
Y113400D03*
X252200Y143400D03*
Y133400D03*
X262200Y143400D03*
Y133400D03*
X252200Y163400D03*
Y153400D03*
X262200Y163400D03*
Y153400D03*
X478352Y-26738D03*
M02*
