G04 ================== begin FILE IDENTIFICATION RECORD ==================*
G04 Layout Name:  DEV_SUB_SENSOR_BRD_V1_1-20170606.brd*
G04 Film Name:    GND02*
G04 File Format:  Gerber RS274X*
G04 File Origin:  Cadence Allegro 16.6-S012*
G04 Origin Date:  Tue Jun 06 21:12:07 2017*
G04 *
G04 Layer:  VIA CLASS/GND02*
G04 Layer:  PIN/GND02*
G04 Layer:  ETCH/GND02*
G04 *
G04 Offset:    (0.00 0.00)*
G04 Mirror:    No*
G04 Mode:      Positive*
G04 Rotation:  0*
G04 FullContactRelief:  No*
G04 UndefLineWidth:     6.00*
G04 ================== end FILE IDENTIFICATION RECORD ====================*
%FSLAX25Y25*MOIN*%
%IR0*IPPOS*OFA0.00000B0.00000*MIA0B0*SFA1.00000B1.00000*%
%ADD10C,.022*%
%ADD15C,.0315*%
%ADD12C,.06102*%
%ADD16C,.056*%
%ADD14C,.05512*%
%ADD17C,.03543*%
%ADD18C,.05906*%
%ADD13C,.05984*%
%ADD11C,.06299*%
%ADD19C,.015*%
%ADD25C,.08302*%
%ADD20C,.03804*%
%ADD28C,.05516*%
%ADD23C,.07604*%
%ADD21C,.0791*%
%ADD27C,.05436*%
%ADD24C,.07516*%
%ADD26C,.07988*%
%ADD22C,.11604*%
G75*
%LPD*%
G75*
G36*
G01X271091Y186976D02*
G02X273091Y184976I0J-2000D01*
G01Y4000D01*
G02X271091Y2000I-2000J0D01*
G01X3500D01*
G02X1500Y4000I0J2000D01*
G01Y136196D01*
G02X2216Y136441I400J0D01*
G03Y141519I3284J2539D01*
G02X1500Y141764I-316J245D01*
G01Y168125D01*
G02X2148Y168438I400J-1D01*
G03Y174798I2513J3180D01*
G02X1500Y175111I-248J314D01*
G01Y184976D01*
G02X3500Y186976I2000J0D01*
G01X253937D01*
G02X254167Y186249I0J-400D01*
G03X260833I3333J-4749D01*
G02X261063Y186976I230J327D01*
G01X271091D01*
G37*
%LPC*%
G75*
G36*
G01X105942Y85652D02*
G02X104058I-942J-1652D01*
G03Y86348I-198J348D01*
G02X105942I942J1652D01*
G03Y85652I198J-348D01*
G37*
G36*
G01X42465Y167840D02*
G03X42447Y168450I-267J297D01*
G02Y174786I2528J3168D01*
G03X42465Y175396I-249J313D01*
G02X47485I2510J2797D01*
G03X47503Y174786I267J-297D01*
G02Y168450I-2528J-3168D01*
G03X47485Y167840I249J-313D01*
G02X42465I-2510J-2797D01*
G37*
G54D25*
X79492Y151441D03*
Y141599D03*
X68468D03*
Y151441D03*
X35500Y138980D03*
X25500D03*
X15500D03*
G54D20*
X211500Y26000D03*
X220500Y8500D03*
X173000Y9000D03*
X201500D03*
X224500Y38500D03*
X227500Y71000D03*
X227000Y79500D03*
X162000Y65000D03*
X199500Y124500D03*
X17000Y26000D03*
Y13500D03*
X218000Y120500D03*
X224000Y44000D03*
X211000Y12500D03*
X192000Y162500D03*
X192500Y151000D03*
X185000Y145000D03*
X185500Y151000D03*
X190000Y145000D03*
X192000Y139000D03*
X185500Y136500D03*
X155500Y158500D03*
X170000Y154500D03*
X155500Y147000D03*
X160000D03*
X169500Y123500D03*
X138500Y128500D03*
X142000Y113500D03*
X114000Y158500D03*
X121000Y168500D03*
X119000Y158500D03*
X117000Y141500D03*
X127705Y150295D03*
X110500Y168500D03*
X105500Y158500D03*
X109500Y142000D03*
X111500Y132500D03*
X111000Y87500D03*
X102500Y61000D03*
X98000Y48500D03*
X112000Y53500D03*
X88000Y158000D03*
X87500Y117500D03*
Y124500D03*
X92500Y117500D03*
X76500Y115000D03*
X88500Y61000D03*
X80000Y40500D03*
X73500Y40000D03*
X83500Y48000D03*
X88480Y47980D03*
X67500Y161500D03*
X71500Y115000D03*
X66000D03*
X39705Y118295D03*
X36000Y18000D03*
X33500Y30000D03*
X26500Y122500D03*
X29500Y115000D03*
X27000Y30000D03*
X105000Y164000D03*
X190000Y124000D03*
X162000Y78500D03*
Y71500D03*
X227500Y64500D03*
X166500Y9500D03*
X200000Y26000D03*
X223500D03*
G54D28*
X122996Y9545D03*
X60004D03*
G54D23*
X146500Y175000D03*
X136500D03*
G54D21*
X252200Y63400D03*
Y73400D03*
X262200Y163400D03*
Y143400D03*
Y153400D03*
Y123400D03*
Y133400D03*
Y103400D03*
Y113400D03*
Y83400D03*
Y93400D03*
Y63400D03*
Y73400D03*
Y43400D03*
Y53400D03*
Y23400D03*
Y33400D03*
X252200Y163400D03*
Y143400D03*
Y153400D03*
Y123400D03*
Y133400D03*
Y103400D03*
Y113400D03*
Y93400D03*
Y43400D03*
Y53400D03*
Y23400D03*
Y33400D03*
Y83400D03*
G54D27*
X222508Y173272D03*
X191012D03*
G54D24*
X82406Y176500D03*
X70594D03*
G54D26*
X23200Y83800D03*
Y93800D03*
Y63800D03*
Y73800D03*
Y53800D03*
X13200Y93800D03*
Y83800D03*
Y73800D03*
Y63800D03*
Y53800D03*
G54D22*
X9000Y9500D03*
X94000Y179500D03*
%LPD*%
G75*
G54D10*
X3000Y3500D03*
Y13500D03*
Y23500D03*
Y33500D03*
Y43500D03*
Y63500D03*
Y53500D03*
Y83500D03*
Y73500D03*
Y103500D03*
Y93500D03*
Y123500D03*
Y113500D03*
Y144500D03*
Y133500D03*
Y163500D03*
Y153500D03*
Y185500D03*
X13000Y3500D03*
X23000D03*
X17000Y17500D03*
X16500Y21500D03*
X10000Y20000D03*
Y30000D03*
X17000Y13500D03*
Y26000D03*
X10000Y40000D03*
X20000Y110000D03*
X10000D03*
Y130000D03*
Y120000D03*
X20000Y150000D03*
X10000D03*
X20000Y170000D03*
Y160000D03*
X10000D03*
Y180000D03*
X22500Y185500D03*
X12500D03*
X40000Y10000D03*
X43000Y3500D03*
X33000D03*
X27000Y30000D03*
X33500D03*
X36000Y11000D03*
Y21500D03*
Y18000D03*
X30000Y110000D03*
X40000D03*
X39705Y118295D03*
X40000Y130000D03*
X30000D03*
X26500Y118500D03*
X29500Y115000D03*
X26500Y122500D03*
X40000Y150000D03*
X30000D03*
Y180000D03*
X29500Y170500D03*
X42500Y185500D03*
X32500D03*
X50000Y10000D03*
X63000Y3500D03*
X51500Y32000D03*
X60000Y110000D03*
X50000D03*
X48000Y122500D03*
X60000Y140000D03*
X62500Y185500D03*
X52500D03*
X80000Y10000D03*
X70000D03*
X83000Y3500D03*
X73000D03*
X79000Y18098D03*
X68000D03*
X80205Y44705D03*
X76500Y32000D03*
X82000D03*
X73295Y44705D03*
X70500Y32000D03*
X80000Y40500D03*
X73500Y40000D03*
X80000Y70000D03*
X70000Y100000D03*
X81500Y115000D03*
X66000D03*
X76500D03*
X71500D03*
X67500Y130500D03*
X70000Y170000D03*
X74000Y158500D03*
X67500Y161500D03*
X82500Y185500D03*
X72500D03*
X100000Y10000D03*
X90000D03*
X103000Y3500D03*
X93000D03*
X92878Y17720D03*
X93000Y48000D03*
X95500Y32000D03*
X83500Y48000D03*
X88480Y47980D03*
X98000Y48500D03*
X101500Y67000D03*
X90000Y70000D03*
X102500Y61000D03*
X88500D03*
X90000Y90000D03*
Y130000D03*
X97500Y117500D03*
X92500D03*
X87500Y124500D03*
Y117500D03*
X90000Y140000D03*
Y150000D03*
X100205Y165705D03*
X83500Y158000D03*
X88000D03*
X102500Y185500D03*
X110000Y10000D03*
X123000Y3500D03*
X113000D03*
X114925Y17511D03*
X109413D03*
X117500Y32000D03*
X106500D03*
X112000D03*
X107000Y48500D03*
X122000D03*
X117000D03*
X110000Y68000D03*
X112000Y53500D03*
X111000Y76500D03*
Y87500D03*
X105000Y84000D03*
Y88000D03*
X110000Y107000D03*
Y117500D03*
X121000Y141500D03*
X113000D03*
X120500Y133000D03*
X117000Y141500D03*
X111500Y132500D03*
X109500Y142000D03*
X119000Y158500D03*
X105000Y164000D03*
X105500Y158500D03*
X116500Y168500D03*
X110500Y158500D03*
X104000Y168500D03*
X121000D03*
X110500D03*
X114000Y158500D03*
X122500Y185500D03*
X112500D03*
X140000Y10000D03*
X130000D03*
X143000Y3500D03*
X133000D03*
X128705Y17511D03*
X131500Y32500D03*
X127000Y48500D03*
X125000Y70000D03*
Y60000D03*
X134500Y70000D03*
Y60000D03*
X130000Y77500D03*
X140000D03*
Y82500D03*
X136000Y101500D03*
X142000Y107500D03*
X124000Y117500D03*
X138500Y128500D03*
X142000Y113500D03*
X131500Y133000D03*
X132000Y153000D03*
X127705Y150295D03*
X142500Y185500D03*
X132500D03*
X150000Y10000D03*
X153000Y3500D03*
X163000D03*
X154701Y46201D03*
X150000Y70000D03*
Y60000D03*
X162000Y65000D03*
X153000Y78000D03*
X150000Y82500D03*
X162000Y78500D03*
Y71500D03*
X143500Y101500D03*
X152000Y110000D03*
X154500Y123500D03*
X161000Y134000D03*
X160000Y147000D03*
X155500D03*
X150000Y170000D03*
Y160000D03*
X160000Y170000D03*
X155500Y158500D03*
X160000Y180000D03*
X162500Y185500D03*
X152500D03*
X175500Y4000D03*
X173000Y9000D03*
X166500Y9500D03*
X173201Y46201D03*
X180000Y89500D03*
Y94500D03*
X180500Y120000D03*
X178500Y128000D03*
X166000Y129000D03*
X169500Y123500D03*
X168295Y151295D03*
X167287Y165787D03*
X170000Y154500D03*
X180000Y180000D03*
X182500Y185500D03*
X172500D03*
X187000Y4000D03*
X198500Y3500D03*
X201500Y9000D03*
X199500Y21500D03*
X200000Y26000D03*
X187500Y38500D03*
X191701Y46201D03*
X198500Y89500D03*
X200500Y109500D03*
X198500Y94500D03*
X199500Y124500D03*
X195500Y125000D03*
X190000Y124000D03*
X192000Y139000D03*
X185500Y136500D03*
X190000Y145000D03*
X185000D03*
X200000Y167500D03*
X190000D03*
X185500Y151000D03*
X192000Y162500D03*
X192500Y151000D03*
X200000Y180000D03*
X202500Y185500D03*
X192500D03*
X223000Y3500D03*
X211000D03*
X220500Y8500D03*
X211500Y21500D03*
Y26000D03*
X211000Y12500D03*
X210000Y44500D03*
X207500Y109500D03*
X218000D03*
X213500D03*
X218000Y120500D03*
X204500Y140000D03*
X220000D03*
X210000D03*
X220000Y167500D03*
X210000D03*
X220000Y161000D03*
Y152000D03*
X210000D03*
Y161000D03*
X220000Y180000D03*
X222500Y185500D03*
X212500D03*
X231000Y3500D03*
X243000D03*
X223500Y21500D03*
Y26000D03*
X239799Y46201D03*
X224500Y38500D03*
X224000Y44000D03*
X227500Y64500D03*
Y57000D03*
X226500Y89500D03*
X227500Y75500D03*
Y71000D03*
X227000Y79500D03*
X224000Y132000D03*
X232000Y135500D03*
X237000Y140500D03*
X242500Y145500D03*
X234500Y148500D03*
X226500Y140500D03*
X228000Y167500D03*
X241500Y155500D03*
X240000Y180000D03*
X242500Y185500D03*
X232500D03*
X250000Y10000D03*
X260000D03*
X253000Y3500D03*
X263000D03*
X246500Y69500D03*
X247000Y76500D03*
X248500Y148500D03*
X246500Y155000D03*
X249500Y177000D03*
X251000Y185500D03*
X271500Y3500D03*
Y14500D03*
Y24500D03*
Y34500D03*
Y44500D03*
Y64500D03*
Y54500D03*
Y84500D03*
Y74500D03*
Y104500D03*
Y94500D03*
Y124500D03*
Y114500D03*
Y144500D03*
Y134500D03*
Y164500D03*
Y154500D03*
Y185500D03*
X264500D03*
X271500Y174500D03*
G54D11*
X5500Y138980D03*
X15500D03*
X25500D03*
X35500D03*
X68468Y151441D03*
Y141599D03*
X79492D03*
Y151441D03*
G54D12*
X4661Y171618D03*
X44975D03*
G54D13*
X23200Y63800D03*
Y53800D03*
X13200D03*
Y63800D03*
X23200Y83800D03*
Y73800D03*
X13200D03*
Y83800D03*
X23200Y93800D03*
X13200D03*
G54D14*
X44975Y165043D03*
Y178193D03*
X82406Y176500D03*
X70594D03*
G54D15*
X60004Y9545D03*
X122996D03*
G54D16*
X136500Y175000D03*
X146500D03*
G54D17*
X191012Y173272D03*
X222508D03*
G54D18*
X252200Y23400D03*
X262200D03*
X252200Y43400D03*
Y33400D03*
X262200Y43400D03*
Y33400D03*
X252200Y63400D03*
Y53400D03*
X262200Y63400D03*
Y53400D03*
X252200Y83400D03*
Y73400D03*
X262200Y83400D03*
Y73400D03*
X252200Y103400D03*
Y93400D03*
X262200Y103400D03*
Y93400D03*
X252200Y123400D03*
Y113400D03*
X262200Y123400D03*
Y113400D03*
X252200Y143400D03*
Y133400D03*
X262200Y143400D03*
Y133400D03*
X252200Y163400D03*
Y153400D03*
X262200Y163400D03*
Y153400D03*
G54D19*
G01X13200Y79606D02*
Y83800D01*
G01D02*
Y87994D01*
G01X9006Y83800D02*
X13200D01*
G01D02*
X17394D01*
G01X13200Y69606D02*
Y73800D01*
G01D02*
Y77994D01*
G01X9006Y73800D02*
X13200D01*
G01D02*
X17394D01*
G01X13200Y89606D02*
Y93800D01*
G01D02*
Y97994D01*
G01X9006Y93800D02*
X13200D01*
G01D02*
X17394D01*
G01X35500Y134628D02*
Y138980D01*
G01D02*
Y143332D01*
G01X31148Y138980D02*
X35500D01*
G01D02*
X39852D01*
G01X79492Y147089D02*
Y151441D01*
G01X68468Y147089D02*
Y151441D01*
G01X79492D02*
Y155793D01*
G01X75140Y151441D02*
X79492D01*
G01D02*
X83844D01*
G01X68468D02*
Y155793D01*
G01X64116Y151441D02*
X68468D01*
G01D02*
X72820D01*
G01X82406Y172542D02*
Y176500D01*
G01D02*
Y180458D01*
G01X78448Y176500D02*
X82406D01*
G01D02*
X86364D01*
G01X262200Y19245D02*
Y23400D01*
G01D02*
Y27555D01*
G01X258045Y23400D02*
X262200D01*
G01D02*
X266355D01*
G01X262200Y29245D02*
Y33400D01*
G01Y39245D02*
Y43400D01*
G01D02*
Y47555D01*
G01X258045Y43400D02*
X262200D01*
G01D02*
X266355D01*
G01X262200Y49245D02*
Y53400D01*
G01Y33400D02*
Y37555D01*
G01X258045Y33400D02*
X262200D01*
G01D02*
X266355D01*
G01X262200Y53400D02*
Y57555D01*
G01X258045Y53400D02*
X262200D01*
G01D02*
X266355D01*
M02*
