G04 ================== begin FILE IDENTIFICATION RECORD ==================*
G04 Layout Name:  DEV_SUB_SENSOR_BRD_V1_1-20170606.brd*
G04 Film Name:    SOLDER_BOT*
G04 File Format:  Gerber RS274X*
G04 File Origin:  Cadence Allegro 16.6-S012*
G04 Origin Date:  Tue Jun 06 21:12:07 2017*
G04 *
G04 Layer:  VIA CLASS/SOLDERMASK_BOTTOM*
G04 Layer:  PIN/SOLDERMASK_BOTTOM*
G04 Layer:  PACKAGE GEOMETRY/SOLDERMASK_BOTTOM*
G04 Layer:  BOARD GEOMETRY/OUTLINE*
G04 Layer:  BOARD GEOMETRY/SOLDERMASK_BOTTOM*
G04 *
G04 Offset:    (0.00 0.00)*
G04 Mirror:    No*
G04 Mode:      Positive*
G04 Rotation:  0*
G04 FullContactRelief:  No*
G04 UndefLineWidth:     6.00*
G04 ================== end FILE IDENTIFICATION RECORD ====================*
%FSLAX25Y25*MOIN*%
%IR0*IPPOS*OFA0.00000B0.00000*MIA0B0*SFA1.00000B1.00000*%
%ADD24C,.062*%
%ADD22C,.06102*%
%ADD18R,.02362X.10236*%
%ADD17C,.0374*%
%ADD23R,.062X.062*%
%ADD14C,.07008*%
%ADD29C,.03937*%
%ADD15R,.07008X.07008*%
%ADD10C,.0689*%
%ADD11C,.06693*%
%ADD16C,.06299*%
%ADD13C,.07874*%
%ADD30R,.06299X.06299*%
%ADD25R,.02756X.02362*%
%ADD12R,.02205X.02598*%
%ADD28R,.0315X.06693*%
%ADD19R,.02598X.02205*%
%ADD20R,.03543X.03937*%
%ADD21R,.03937X.03543*%
%ADD27R,.05906X.08661*%
%ADD26R,.0748X.07087*%
%ADD31C,.006*%
G75*
%LPD*%
G75*
G36*
G01X47996Y23522D02*
Y25096D01*
X50949D01*
Y23522D01*
X47996D01*
G37*
G36*
G01X135004D02*
Y25096D01*
X132051D01*
Y23522D01*
X135004D01*
G37*
G54D10*
X5500Y138980D03*
X15500D03*
X25500D03*
X35500D03*
X68468Y151441D03*
Y141599D03*
X79492D03*
Y151441D03*
G54D20*
X50760Y117579D03*
X54500Y127500D03*
X58240Y117579D03*
X131760Y148579D03*
X139240D03*
X135500Y158500D03*
G54D11*
X4661Y171618D03*
X44975D03*
G54D21*
X54500Y136350D03*
Y142650D03*
X62500Y161350D03*
Y167650D03*
X169500Y112350D03*
Y118650D03*
X221579Y58240D03*
Y50760D03*
Y64760D03*
Y87240D03*
Y79760D03*
Y72240D03*
X231500Y54500D03*
Y68500D03*
Y83500D03*
G54D12*
X22000Y12795D03*
Y17205D03*
X23000Y122705D03*
Y118295D03*
X32000Y22315D03*
Y26725D03*
X27000Y22295D03*
Y26705D03*
X32000Y17205D03*
Y12795D03*
X35500Y118295D03*
Y122705D03*
X29500Y118295D03*
Y122705D03*
X77000Y40295D03*
Y44705D03*
X70000Y40295D03*
Y44705D03*
X66000Y123205D03*
Y118795D03*
X71500D03*
Y123205D03*
X76500Y118795D03*
Y123205D03*
X81500Y118795D03*
Y123205D03*
X102500Y40295D03*
Y44705D03*
X88480Y40295D03*
Y44705D03*
X83500Y40295D03*
Y44705D03*
X98000Y40295D03*
Y44705D03*
X93000Y40295D03*
Y44705D03*
X88500Y57205D03*
Y52795D03*
X102500Y57205D03*
Y52795D03*
X88000Y161295D03*
Y165705D03*
X92500Y161295D03*
Y165705D03*
X83500D03*
Y161295D03*
X97000D03*
Y165705D03*
X107000Y40295D03*
Y44705D03*
X117000D03*
Y40295D03*
X122000D03*
Y44705D03*
X127000Y40295D03*
Y44705D03*
X124000Y150295D03*
Y154705D03*
X146500Y150295D03*
Y154705D03*
X151000Y150295D03*
Y154705D03*
X160000Y150295D03*
Y154705D03*
X155500Y150295D03*
Y154705D03*
X175500Y117205D03*
Y112795D03*
X164500Y154705D03*
Y150295D03*
X196000Y117205D03*
Y112795D03*
X185000Y117205D03*
Y112795D03*
X189500Y117205D03*
Y112795D03*
X200500D03*
Y117205D03*
X214500Y55205D03*
Y50795D03*
Y69205D03*
Y64795D03*
Y84205D03*
Y79795D03*
X222500Y117205D03*
Y112795D03*
X213500Y117205D03*
Y112795D03*
X218000D03*
Y117205D03*
X207500Y112795D03*
Y117205D03*
X227000D03*
Y112795D03*
X231500Y117205D03*
Y112795D03*
G54D30*
X252200Y163400D03*
G54D31*
G01X271091Y0D02*
X3500D01*
G03X-500Y-4000I0J-4000D01*
G01Y-184976D01*
G03X3500Y-188976I4000J0D01*
G01X271091D01*
G03X275091Y-184976I0J4000D01*
G01Y-4000D01*
G03X271091Y0I-4000J0D01*
G01D02*
X3500D01*
G03X-500Y-4000I0J-4000D01*
G01Y-184976D01*
G03X3500Y-188976I4000J0D01*
G01X271091D01*
G03X275091Y-184976I0J4000D01*
G01Y-4000D01*
G03X271091Y0I-4000J0D01*
G01X3500D02*
X271091D01*
G03X275091Y4000I0J4000D01*
G01Y184976D01*
G03X271091Y188976I-4000J0D01*
G01X3500D01*
G03X-500Y184976I0J-4000D01*
G01Y4000D01*
G03X3500Y0I4000J0D01*
G01X21891Y-181500D02*
G03I-4800J0D01*
G01X13800Y9500D02*
G03I-4800J0D01*
G01X98800Y179500D02*
G03I-4800J0D01*
G01X185391Y-179500D02*
G03I-4800J0D01*
G01X270391Y-9500D02*
G03I-4800J0D01*
G01X262300Y181500D02*
G03I-4800J0D01*
G54D13*
X25500Y40000D03*
X32500Y158500D03*
X237000Y9500D03*
G54D22*
X82406Y176500D03*
X70594D03*
G54D14*
X23200Y63800D03*
Y53800D03*
X13200D03*
Y63800D03*
X23200Y83800D03*
Y73800D03*
X13200D03*
Y83800D03*
X23200Y93800D03*
G54D23*
X136500Y175000D03*
G54D15*
X13200Y93800D03*
G54D24*
X146500Y175000D03*
G54D25*
X180500Y116772D03*
Y113228D03*
G54D16*
X44975Y165043D03*
Y178193D03*
X252200Y23400D03*
X262200D03*
X252200Y43400D03*
Y33400D03*
X262200Y43400D03*
Y33400D03*
X252200Y63400D03*
Y53400D03*
X262200Y63400D03*
Y53400D03*
X252200Y83400D03*
Y73400D03*
X262200Y83400D03*
Y73400D03*
X252200Y103400D03*
Y93400D03*
X262200Y103400D03*
Y93400D03*
X252200Y123400D03*
Y113400D03*
X262200Y123400D03*
Y113400D03*
X252200Y143400D03*
Y133400D03*
X262200Y143400D03*
Y133400D03*
X252200Y153400D03*
X262200Y163400D03*
Y153400D03*
G54D26*
X178020Y133902D03*
X239043Y132918D03*
G54D17*
X60004Y9545D03*
X122996D03*
G54D27*
X179004Y170319D03*
X241996D03*
G54D18*
X62563Y25096D03*
X59807D03*
X57051D03*
X54295D03*
X51539D03*
X81854D03*
X79098D03*
X76343D03*
X73587D03*
X70831D03*
X68075D03*
X65319D03*
X101146D03*
X98390D03*
X95634D03*
X92878D03*
X90122D03*
X87366D03*
X84610D03*
X120437D03*
X117681D03*
X114925D03*
X112169D03*
X109413D03*
X106657D03*
X103902D03*
X131461D03*
X128705D03*
X125949D03*
X123193D03*
G54D19*
X52295Y40000D03*
X56705D03*
X61295D03*
X65705D03*
X107795Y145500D03*
X112205D03*
X116795D03*
X121205D03*
X120705Y172500D03*
X116295D03*
X110205D03*
X105795D03*
X179295Y12500D03*
X171705D03*
X167295D03*
X191795Y26000D03*
X196205D03*
X191795Y12500D03*
X196205D03*
X183705D03*
X191795Y21500D03*
X196205D03*
Y17000D03*
X191795D03*
X196205Y30500D03*
X191795D03*
X215295Y26000D03*
X219705D03*
X207705Y12500D03*
X203295D03*
X219705D03*
X215295D03*
X203295Y26000D03*
X207705D03*
X203295Y21500D03*
X207705D03*
X215295D03*
X219705D03*
X207705Y17000D03*
X203295D03*
X219705D03*
X215295D03*
Y30500D03*
X219705D03*
X203295D03*
X207705D03*
X234205Y35000D03*
X229795D03*
X234205Y44000D03*
X229795D03*
X234205Y30500D03*
X229795D03*
X234205Y39500D03*
X229795D03*
G54D28*
X184516Y130359D03*
X188846D03*
X193177D03*
X197508D03*
X201839D03*
X206169D03*
X210500D03*
X214831D03*
X219161D03*
G54D29*
X191012Y173272D03*
X222508D03*
M02*
